<svg width="278" height="175" viewBox="0 0 278 175" fill="none" xmlns="http://www.w3.org/2000/svg">
<g clip-path="url(#clip0_6175_8323)">
<rect x="174.904" y="8.17188" width="44.6566" height="44.6566" rx="5.05128" transform="rotate(45 174.904 8.17188)" fill="#4C8FFF" fill-opacity="0.05"/>
<rect x="174.904" y="8.66414" width="43.9604" height="43.9604" rx="4.7032" transform="rotate(45 174.904 8.66414)" stroke="#4C8FFF" stroke-opacity="0.5" stroke-width="0.69617"/>
<rect x="149.6" y="113.117" width="52.0994" height="52.0994" rx="5.05128" fill="#4C8FFF" fill-opacity="0.05"/>
<rect x="149.948" y="113.465" width="51.4032" height="51.4032" rx="4.7032" stroke="#4C8FFF" stroke-opacity="0.5" stroke-width="0.69617"/>
<path d="M174.904 -35.25V10.1509" stroke="#4C8FFF" stroke-opacity="0.4" stroke-width="0.63141"/>
<path d="M174.904 69.7109V113.111" stroke="#4C8FFF" stroke-opacity="0.8" stroke-width="0.63141"/>
<path d="M145.622 40.9219H65.9723C62.4851 40.9219 59.6582 43.7488 59.6582 47.236V78.1357" stroke="#4C8FFF" stroke-opacity="0.8" stroke-width="0.63141"/>
<path d="M204.559 40.9219H284.209C287.697 40.9219 290.523 43.7488 290.523 47.236V78.1357" stroke="#4C8FFF" stroke-opacity="0.8" stroke-width="0.63141"/>
<rect y="78.1328" width="119.084" height="66.9849" rx="5.05128" fill="#4C8FFF" fill-opacity="0.05"/>
<rect x="0.348085" y="78.4809" width="118.388" height="66.2887" rx="4.7032" stroke="#4C8FFF" stroke-opacity="0.8" stroke-width="0.69617"/>
<path d="M6.31445 90.76C6.31445 89.3651 7.44522 88.2344 8.84009 88.2344H72.6125C74.0074 88.2344 75.1382 89.3651 75.1382 90.76C75.1382 92.1549 74.0074 93.2857 72.6125 93.2857H8.8401C7.44522 93.2857 6.31445 92.1549 6.31445 90.76Z" fill="#4C8FFF" fill-opacity="0.1"/>
<path d="M8.83984 88.5498H72.6123C73.8327 88.5498 74.8221 89.5394 74.8223 90.7598C74.8223 91.9803 73.8328 92.9697 72.6123 92.9697H8.83984C7.61945 92.9696 6.62988 91.9802 6.62988 90.7598C6.63002 89.5395 7.61953 88.5499 8.83984 88.5498Z" stroke="#4C8FFF" stroke-opacity="0.7" stroke-width="0.63141"/>
<path d="M6.31445 99.596C6.31445 98.2011 7.44522 97.0703 8.84009 97.0703H66.2984C67.6933 97.0703 68.8241 98.2011 68.8241 99.596C68.8241 100.991 67.6933 102.122 66.2984 102.122H8.84009C7.44522 102.122 6.31445 100.991 6.31445 99.596Z" fill="#4C8FFF" fill-opacity="0.1"/>
<path d="M8.83984 97.3857H66.2988C67.5191 97.386 68.5087 98.3754 68.5088 99.5957C68.5088 100.816 67.5192 101.805 66.2988 101.806H8.83984C7.61944 101.806 6.62988 100.816 6.62988 99.5957C6.63002 98.3754 7.61953 97.3859 8.83984 97.3857Z" stroke="#4C8FFF" stroke-opacity="0.7" stroke-width="0.63141"/>
<path d="M6.31445 108.44C6.31445 107.045 7.44522 105.914 8.84009 105.914H72.6125C74.0074 105.914 75.1382 107.045 75.1382 108.44C75.1382 109.835 74.0074 110.965 72.6125 110.965H8.8401C7.44522 110.965 6.31445 109.835 6.31445 108.44Z" fill="#4C8FFF" fill-opacity="0.1"/>
<path d="M8.83984 106.229H72.6123C73.8327 106.229 74.8221 107.219 74.8223 108.439C74.8223 109.66 73.8328 110.649 72.6123 110.649H8.83984C7.61945 110.649 6.62988 109.66 6.62988 108.439C6.63002 107.219 7.61953 106.23 8.83984 106.229Z" stroke="#4C8FFF" stroke-opacity="0.7" stroke-width="0.63141"/>
<path d="M6.31445 117.276C6.31445 115.881 7.44522 114.75 8.84009 114.75H47.3561C48.751 114.75 49.8818 115.881 49.8818 117.276C49.8818 118.671 48.751 119.801 47.3561 119.801H8.8401C7.44523 119.801 6.31445 118.671 6.31445 117.276Z" fill="#4C8FFF" fill-opacity="0.1"/>
<path d="M8.83984 115.065H47.3564C48.5767 115.066 49.5663 116.055 49.5664 117.275C49.5664 118.496 48.5768 119.485 47.3564 119.485H8.83984C7.61945 119.485 6.62988 118.496 6.62988 117.275C6.63002 116.055 7.61953 115.066 8.83984 115.065Z" stroke="#4C8FFF" stroke-opacity="0.7" stroke-width="0.63141"/>
<rect x="235.191" y="78.1328" width="119.084" height="66.9849" rx="5.05128" fill="#4C8FFF" fill-opacity="0.05"/>
<rect x="235.539" y="78.4809" width="118.388" height="66.2887" rx="4.7032" stroke="#4C8FFF" stroke-opacity="0.5" stroke-width="0.69617"/>
<path d="M246.557 91.3928C246.557 89.998 247.687 88.8672 249.082 88.8672H312.855C314.25 88.8672 315.38 89.998 315.38 91.3928C315.38 92.7877 314.25 93.9185 312.855 93.9185H249.082C247.687 93.9185 246.557 92.7877 246.557 91.3928Z" fill="#4C8FFF" fill-opacity="0.1"/>
<path d="M249.082 89.1826H312.854C314.075 89.1826 315.064 90.1722 315.064 91.3926C315.064 92.6131 314.075 93.6025 312.854 93.6025H249.082C247.862 93.6024 246.872 92.613 246.872 91.3926C246.872 90.1723 247.862 89.1828 249.082 89.1826Z" stroke="#4C8FFF" stroke-opacity="0.6" stroke-width="0.63141"/>
<path d="M246.557 100.229C246.557 98.8339 247.687 97.7031 249.082 97.7031H306.541C307.935 97.7031 309.066 98.8339 309.066 100.229C309.066 101.624 307.935 102.754 306.541 102.754H249.082C247.687 102.754 246.557 101.624 246.557 100.229Z" fill="#4C8FFF" fill-opacity="0.1"/>
<path d="M249.082 98.0186H306.541C307.761 98.0188 308.751 99.0082 308.751 100.229C308.751 101.449 307.761 102.438 306.541 102.438H249.082C247.862 102.438 246.872 101.449 246.872 100.229C246.872 99.0082 247.862 98.0187 249.082 98.0186Z" stroke="#4C8FFF" stroke-opacity="0.6" stroke-width="0.63141"/>
<path d="M246.557 109.073C246.557 107.678 247.687 106.547 249.082 106.547H312.855C314.25 106.547 315.38 107.678 315.38 109.073C315.38 110.467 314.25 111.598 312.855 111.598H249.082C247.687 111.598 246.557 110.467 246.557 109.073Z" fill="#4C8FFF" fill-opacity="0.1"/>
<path d="M249.082 106.862H312.854C314.075 106.862 315.064 107.852 315.064 109.072C315.064 110.293 314.075 111.282 312.854 111.282H249.082C247.862 111.282 246.872 110.293 246.872 109.072C246.872 107.852 247.862 106.862 249.082 106.862Z" stroke="#4C8FFF" stroke-opacity="0.6" stroke-width="0.63141"/>
<path d="M246.557 117.908C246.557 116.514 247.687 115.383 249.082 115.383H287.598C288.993 115.383 290.124 116.514 290.124 117.908C290.124 119.303 288.993 120.434 287.598 120.434H249.082C247.687 120.434 246.557 119.303 246.557 117.908Z" fill="#4C8FFF" fill-opacity="0.1"/>
<path d="M249.082 115.698H287.599C288.819 115.698 289.808 116.688 289.809 117.908C289.809 119.129 288.819 120.118 287.599 120.118H249.082C247.862 120.118 246.872 119.129 246.872 117.908C246.872 116.688 247.862 115.698 249.082 115.698Z" stroke="#4C8FFF" stroke-opacity="0.6" stroke-width="0.63141"/>
</g>
<defs>
<clipPath id="clip0_6175_8323">
<rect width="278" height="175" fill="white"/>
</clipPath>
</defs>
</svg>
