<svg width="518" height="307" viewBox="0 0 518 307" fill="none" xmlns="http://www.w3.org/2000/svg">
<rect width="518" height="307" rx="6" fill="#17150E"/>
<mask id="path-2-inside-1_104_13" fill="white">
<path d="M181 87C181 83.6863 183.686 81 187 81H518V307H181V87Z"/>
</mask>
<path d="M181 87C181 83.6863 183.686 81 187 81H518V307H181V87Z" fill="#13110B"/>
<path d="M180 87C180 83.134 183.134 80 187 80H518V82H187C184.239 82 182 84.2386 182 87H180ZM182 87M518 307H181H518M180 307V87C180 83.134 183.134 80 187 80V82C184.239 82 182 84.2386 182 87V307H180ZM182 307M518 81V307V81" fill="white" fill-opacity="0.03" mask="url(#path-2-inside-1_104_13)"/>
<mask id="path-4-inside-2_104_13" fill="white">
<path d="M0 150H367C370.314 150 373 152.686 373 156V307H0V150Z"/>
</mask>
<path d="M0 150H367C370.314 150 373 152.686 373 156V307H0V150Z" fill="#1F1D17"/>
<path d="M0 149H367C370.866 149 374 152.134 374 156H372C372 153.239 369.761 151 367 151H0V149ZM0 151M373 307H0H373M373 307M0 307V150V307M367 149C370.866 149 374 152.134 374 156V307H372V156C372 153.239 369.761 151 367 151V149Z" fill="white" fill-opacity="0.03" mask="url(#path-4-inside-2_104_13)"/>
<mask id="path-6-inside-3_104_13" fill="white">
<path d="M0 6C0 2.68629 2.68629 0 6 0H512C515.314 0 518 2.68629 518 6V24H0V6Z"/>
</mask>
<path d="M0 6C0 2.68629 2.68629 0 6 0H512C515.314 0 518 2.68629 518 6V24H0V6Z" fill="#13110B"/>
<path d="M0 0H518H0M518 24.64H0V23.36H518V24.64ZM518 23.36M0 24V0V24M0 24M518 0V24V0" fill="white" fill-opacity="0.09" mask="url(#path-6-inside-3_104_13)"/>
<path d="M8 11.6802C8 8.91875 10.2386 6.68018 13 6.68018V6.68018C15.7614 6.68018 18 8.91875 18 11.6802V11.6802C18 14.4416 15.7614 16.6802 13 16.6802V16.6802C10.2386 16.6802 8 14.4416 8 11.6802V11.6802Z" fill="#EDECEC" fill-opacity="0.2"/>
<path d="M24 11.6802C24 8.91875 26.2386 6.68018 29 6.68018V6.68018C31.7614 6.68018 34 8.91875 34 11.6802V11.6802C34 14.4416 31.7614 16.6802 29 16.6802V16.6802C26.2386 16.6802 24 14.4416 24 11.6802V11.6802Z" fill="#EDECEC" fill-opacity="0.2"/>
<path d="M40 11.6802C40 8.91875 42.2386 6.68018 45 6.68018V6.68018C47.7614 6.68018 50 8.91875 50 11.6802V11.6802C50 14.4416 47.7614 16.6802 45 16.6802V16.6802C42.2386 16.6802 40 14.4416 40 11.6802V11.6802Z" fill="#EDECEC" fill-opacity="0.2"/>
<path d="M215.145 109.364C215.038 108.464 214.606 107.766 213.849 107.268C213.091 106.771 212.162 106.523 211.061 106.523C210.256 106.523 209.552 106.653 208.948 106.913C208.35 107.174 207.883 107.532 207.545 107.988C207.214 108.443 207.048 108.961 207.048 109.541C207.048 110.027 207.164 110.444 207.395 110.793C207.631 111.136 207.933 111.423 208.3 111.654C208.667 111.879 209.052 112.065 209.454 112.213C209.857 112.355 210.227 112.471 210.564 112.56L212.411 113.057C212.884 113.181 213.411 113.353 213.991 113.572C214.577 113.791 215.136 114.09 215.669 114.468C216.207 114.841 216.651 115.321 217 115.907C217.35 116.493 217.524 117.212 217.524 118.064C217.524 119.046 217.267 119.934 216.752 120.727C216.243 121.52 215.497 122.151 214.515 122.618C213.538 123.086 212.351 123.32 210.955 123.32C209.652 123.32 208.525 123.109 207.572 122.689C206.625 122.269 205.879 121.683 205.335 120.931C204.796 120.18 204.491 119.307 204.42 118.312H206.693C206.752 118.999 206.983 119.567 207.386 120.017C207.794 120.461 208.309 120.792 208.93 121.011C209.558 121.224 210.232 121.331 210.955 121.331C211.795 121.331 212.55 121.195 213.218 120.923C213.887 120.644 214.417 120.26 214.808 119.768C215.198 119.271 215.393 118.691 215.393 118.028C215.393 117.425 215.225 116.933 214.887 116.555C214.55 116.176 214.106 115.868 213.556 115.631C213.005 115.395 212.411 115.187 211.771 115.01L209.534 114.371C208.114 113.962 206.989 113.379 206.161 112.622C205.332 111.864 204.918 110.873 204.918 109.648C204.918 108.63 205.193 107.742 205.743 106.984C206.3 106.221 207.045 105.629 207.98 105.209C208.922 104.783 209.972 104.57 211.132 104.57C212.304 104.57 213.346 104.78 214.257 105.2C215.169 105.614 215.891 106.182 216.423 106.904C216.962 107.627 217.246 108.446 217.276 109.364H215.145ZM225.65 123.284C224.419 123.284 223.339 122.991 222.409 122.405C221.486 121.819 220.764 121 220.243 119.946C219.728 118.893 219.471 117.661 219.471 116.253C219.471 114.832 219.728 113.592 220.243 112.533C220.764 111.474 221.486 110.651 222.409 110.065C223.339 109.479 224.419 109.186 225.65 109.186C226.881 109.186 227.958 109.479 228.881 110.065C229.811 110.651 230.533 111.474 231.047 112.533C231.568 113.592 231.829 114.832 231.829 116.253C231.829 117.661 231.568 118.893 231.047 119.946C230.533 121 229.811 121.819 228.881 122.405C227.958 122.991 226.881 123.284 225.65 123.284ZM225.65 121.402C226.585 121.402 227.354 121.162 227.958 120.683C228.562 120.203 229.009 119.573 229.299 118.792C229.589 118.011 229.734 117.164 229.734 116.253C229.734 115.341 229.589 114.492 229.299 113.705C229.009 112.918 228.562 112.281 227.958 111.796C227.354 111.311 226.585 111.068 225.65 111.068C224.715 111.068 223.945 111.311 223.342 111.796C222.738 112.281 222.291 112.918 222.001 113.705C221.711 114.492 221.566 115.341 221.566 116.253C221.566 117.164 221.711 118.011 222.001 118.792C222.291 119.573 222.738 120.203 223.342 120.683C223.945 121.162 224.715 121.402 225.65 121.402ZM236.372 114.797V123H234.277V109.364H236.301V111.494H236.479C236.798 110.802 237.284 110.246 237.935 109.825C238.586 109.399 239.426 109.186 240.456 109.186C241.379 109.186 242.187 109.375 242.88 109.754C243.572 110.127 244.111 110.695 244.495 111.459C244.88 112.216 245.072 113.175 245.072 114.335V123H242.977V114.477C242.977 113.406 242.699 112.571 242.143 111.974C241.586 111.37 240.823 111.068 239.852 111.068C239.183 111.068 238.586 111.213 238.059 111.503C237.538 111.793 237.127 112.216 236.825 112.773C236.523 113.329 236.372 114.004 236.372 114.797ZM252.164 123.32C251.3 123.32 250.515 123.157 249.811 122.831C249.107 122.5 248.548 122.023 248.133 121.402C247.719 120.775 247.512 120.017 247.512 119.129C247.512 118.348 247.666 117.715 247.973 117.229C248.281 116.738 248.693 116.353 249.207 116.075C249.722 115.797 250.291 115.59 250.912 115.454C251.539 115.312 252.17 115.199 252.803 115.116C253.632 115.01 254.303 114.93 254.818 114.877C255.339 114.818 255.718 114.72 255.955 114.584C256.197 114.448 256.319 114.211 256.319 113.874V113.803C256.319 112.927 256.079 112.246 255.6 111.761C255.126 111.275 254.407 111.033 253.442 111.033C252.442 111.033 251.658 111.252 251.09 111.69C250.521 112.128 250.122 112.595 249.891 113.092L247.902 112.382C248.258 111.554 248.731 110.908 249.323 110.447C249.921 109.979 250.572 109.654 251.276 109.47C251.986 109.281 252.685 109.186 253.371 109.186C253.809 109.186 254.312 109.239 254.88 109.346C255.455 109.446 256.008 109.657 256.541 109.976C257.079 110.296 257.526 110.778 257.881 111.423C258.236 112.068 258.414 112.933 258.414 114.016V123H256.319V121.153H256.212C256.07 121.449 255.833 121.766 255.502 122.103C255.17 122.441 254.729 122.728 254.179 122.964C253.629 123.201 252.957 123.32 252.164 123.32ZM252.483 121.438C253.312 121.438 254.01 121.275 254.579 120.949C255.153 120.624 255.585 120.203 255.875 119.689C256.171 119.174 256.319 118.632 256.319 118.064V116.146C256.23 116.253 256.035 116.35 255.733 116.439C255.437 116.522 255.093 116.596 254.703 116.661C254.318 116.72 253.942 116.774 253.575 116.821C253.214 116.862 252.921 116.898 252.696 116.928C252.152 116.999 251.643 117.114 251.169 117.274C250.702 117.428 250.323 117.661 250.033 117.975C249.749 118.283 249.607 118.703 249.607 119.236C249.607 119.964 249.876 120.514 250.415 120.887C250.959 121.254 251.649 121.438 252.483 121.438ZM261.488 123V109.364H263.512V111.423H263.654C263.903 110.749 264.353 110.201 265.004 109.781C265.655 109.361 266.388 109.151 267.205 109.151C267.359 109.151 267.551 109.154 267.782 109.159C268.013 109.165 268.188 109.174 268.306 109.186V111.317C268.235 111.299 268.072 111.272 267.818 111.237C267.569 111.195 267.306 111.175 267.028 111.175C266.365 111.175 265.773 111.314 265.252 111.592C264.737 111.864 264.329 112.243 264.027 112.728C263.731 113.208 263.583 113.755 263.583 114.371V123H261.488ZM276.929 117.318H279.344L281.368 119.982L281.9 120.692L284.919 124.705H282.504L280.516 122.041L280.018 121.366L276.929 117.318ZM285.665 113.909C285.665 115.827 285.318 117.484 284.626 118.881C283.934 120.277 282.984 121.355 281.776 122.112C280.569 122.87 279.19 123.249 277.639 123.249C276.088 123.249 274.709 122.87 273.502 122.112C272.295 121.355 271.345 120.277 270.652 118.881C269.96 117.484 269.614 115.827 269.614 113.909C269.614 111.991 269.96 110.334 270.652 108.938C271.345 107.541 272.295 106.464 273.502 105.706C274.709 104.948 276.088 104.57 277.639 104.57C279.19 104.57 280.569 104.948 281.776 105.706C282.984 106.464 283.934 107.541 284.626 108.938C285.318 110.334 285.665 111.991 285.665 113.909ZM283.534 113.909C283.534 112.335 283.271 111.006 282.744 109.923C282.223 108.84 281.516 108.02 280.622 107.464C279.734 106.907 278.74 106.629 277.639 106.629C276.538 106.629 275.541 106.907 274.647 107.464C273.759 108.02 273.052 108.84 272.525 109.923C272.005 111.006 271.744 112.335 271.744 113.909C271.744 115.483 272.005 116.812 272.525 117.895C273.052 118.978 273.759 119.798 274.647 120.354C275.541 120.911 276.538 121.189 277.639 121.189C278.74 121.189 279.734 120.911 280.622 120.354C281.516 119.798 282.223 118.978 282.744 117.895C283.271 116.812 283.534 115.483 283.534 113.909ZM296.926 117.425V109.364H299.022V123H296.926V120.692H296.784C296.465 121.384 295.968 121.973 295.293 122.458C294.618 122.938 293.766 123.178 292.736 123.178C291.884 123.178 291.126 122.991 290.463 122.618C289.8 122.239 289.28 121.671 288.901 120.914C288.522 120.15 288.333 119.188 288.333 118.028V109.364H290.428V117.886C290.428 118.881 290.706 119.674 291.262 120.266C291.825 120.857 292.541 121.153 293.411 121.153C293.932 121.153 294.461 121.02 295 120.754C295.544 120.488 296 120.079 296.367 119.529C296.74 118.978 296.926 118.277 296.926 117.425ZM302.393 123V104.818H304.488V111.53H304.666C304.82 111.293 305.033 110.991 305.305 110.624C305.583 110.251 305.98 109.92 306.495 109.63C307.016 109.334 307.72 109.186 308.608 109.186C309.756 109.186 310.768 109.473 311.644 110.047C312.52 110.621 313.203 111.435 313.695 112.489C314.186 113.542 314.431 114.785 314.431 116.217C314.431 117.661 314.186 118.913 313.695 119.973C313.203 121.026 312.523 121.843 311.653 122.423C310.783 122.997 309.779 123.284 308.643 123.284C307.767 123.284 307.066 123.139 306.539 122.849C306.012 122.553 305.607 122.219 305.323 121.846C305.039 121.467 304.82 121.153 304.666 120.905H304.417V123H302.393ZM304.453 116.182C304.453 117.212 304.604 118.12 304.906 118.907C305.207 119.689 305.648 120.301 306.228 120.745C306.808 121.183 307.519 121.402 308.359 121.402C309.235 121.402 309.966 121.171 310.552 120.71C311.144 120.242 311.588 119.615 311.884 118.827C312.185 118.034 312.336 117.152 312.336 116.182C312.336 115.223 312.188 114.359 311.892 113.589C311.602 112.814 311.161 112.202 310.57 111.752C309.984 111.296 309.247 111.068 308.359 111.068C307.507 111.068 306.791 111.284 306.211 111.716C305.631 112.142 305.193 112.74 304.897 113.51C304.601 114.273 304.453 115.164 304.453 116.182ZM322.604 123.284C321.29 123.284 320.156 122.994 319.203 122.414C318.257 121.828 317.526 121.011 317.011 119.964C316.502 118.91 316.247 117.685 316.247 116.288C316.247 114.892 316.502 113.661 317.011 112.595C317.526 111.524 318.242 110.689 319.159 110.092C320.082 109.488 321.16 109.186 322.391 109.186C323.101 109.186 323.802 109.304 324.495 109.541C325.187 109.778 325.817 110.163 326.386 110.695C326.954 111.222 327.407 111.92 327.744 112.79C328.081 113.661 328.25 114.732 328.25 116.004V116.892H317.739V115.081H326.119C326.119 114.312 325.965 113.625 325.658 113.021C325.356 112.418 324.924 111.941 324.362 111.592C323.805 111.243 323.148 111.068 322.391 111.068C321.556 111.068 320.834 111.275 320.224 111.69C319.621 112.098 319.156 112.631 318.831 113.288C318.505 113.945 318.342 114.649 318.342 115.401V116.608C318.342 117.638 318.52 118.511 318.875 119.227C319.236 119.937 319.736 120.479 320.375 120.852C321.015 121.219 321.757 121.402 322.604 121.402C323.154 121.402 323.651 121.325 324.095 121.171C324.545 121.011 324.933 120.775 325.258 120.461C325.584 120.141 325.835 119.745 326.013 119.271L328.037 119.839C327.824 120.526 327.466 121.13 326.963 121.651C326.46 122.165 325.838 122.568 325.098 122.858C324.359 123.142 323.527 123.284 322.604 123.284ZM340.981 123.32C340.117 123.32 339.333 123.157 338.629 122.831C337.924 122.5 337.365 122.023 336.951 121.402C336.536 120.775 336.329 120.017 336.329 119.129C336.329 118.348 336.483 117.715 336.791 117.229C337.099 116.738 337.51 116.353 338.025 116.075C338.54 115.797 339.108 115.59 339.729 115.454C340.357 115.312 340.987 115.199 341.62 115.116C342.449 115.01 343.121 114.93 343.636 114.877C344.156 114.818 344.535 114.72 344.772 114.584C345.015 114.448 345.136 114.211 345.136 113.874V113.803C345.136 112.927 344.896 112.246 344.417 111.761C343.943 111.275 343.224 111.033 342.26 111.033C341.259 111.033 340.475 111.252 339.907 111.69C339.339 112.128 338.939 112.595 338.708 113.092L336.72 112.382C337.075 111.554 337.548 110.908 338.14 110.447C338.738 109.979 339.389 109.654 340.093 109.47C340.804 109.281 341.502 109.186 342.189 109.186C342.627 109.186 343.13 109.239 343.698 109.346C344.272 109.446 344.825 109.657 345.358 109.976C345.897 110.296 346.343 110.778 346.699 111.423C347.054 112.068 347.231 112.933 347.231 114.016V123H345.136V121.153H345.029C344.887 121.449 344.651 121.766 344.319 122.103C343.988 122.441 343.547 122.728 342.996 122.964C342.446 123.201 341.774 123.32 340.981 123.32ZM341.301 121.438C342.129 121.438 342.828 121.275 343.396 120.949C343.97 120.624 344.402 120.203 344.692 119.689C344.988 119.174 345.136 118.632 345.136 118.064V116.146C345.047 116.253 344.852 116.35 344.55 116.439C344.254 116.522 343.911 116.596 343.52 116.661C343.136 116.72 342.76 116.774 342.393 116.821C342.032 116.862 341.739 116.898 341.514 116.928C340.969 116.999 340.46 117.114 339.987 117.274C339.519 117.428 339.141 117.661 338.85 117.975C338.566 118.283 338.424 118.703 338.424 119.236C338.424 119.964 338.694 120.514 339.232 120.887C339.777 121.254 340.466 121.438 341.301 121.438ZM352.4 114.797V123H350.305V109.364H352.329V111.494H352.507C352.827 110.802 353.312 110.246 353.963 109.825C354.614 109.399 355.454 109.186 356.484 109.186C357.408 109.186 358.215 109.375 358.908 109.754C359.6 110.127 360.139 110.695 360.524 111.459C360.908 112.216 361.101 113.175 361.101 114.335V123H359.006V114.477C359.006 113.406 358.727 112.571 358.171 111.974C357.615 111.37 356.851 111.068 355.881 111.068C355.212 111.068 354.614 111.213 354.087 111.503C353.566 111.793 353.155 112.216 352.853 112.773C352.551 113.329 352.4 114.004 352.4 114.797ZM368.192 123.32C367.328 123.32 366.544 123.157 365.839 122.831C365.135 122.5 364.576 122.023 364.162 121.402C363.747 120.775 363.54 120.017 363.54 119.129C363.54 118.348 363.694 117.715 364.002 117.229C364.31 116.738 364.721 116.353 365.236 116.075C365.751 115.797 366.319 115.59 366.94 115.454C367.568 115.312 368.198 115.199 368.831 115.116C369.66 115.01 370.332 114.93 370.847 114.877C371.367 114.818 371.746 114.72 371.983 114.584C372.226 114.448 372.347 114.211 372.347 113.874V113.803C372.347 112.927 372.107 112.246 371.628 111.761C371.154 111.275 370.435 111.033 369.471 111.033C368.47 111.033 367.686 111.252 367.118 111.69C366.55 112.128 366.15 112.595 365.919 113.092L363.931 112.382C364.286 111.554 364.759 110.908 365.351 110.447C365.949 109.979 366.6 109.654 367.304 109.47C368.015 109.281 368.713 109.186 369.4 109.186C369.837 109.186 370.341 109.239 370.909 109.346C371.483 109.446 372.036 109.657 372.569 109.976C373.107 110.296 373.554 110.778 373.909 111.423C374.265 112.068 374.442 112.933 374.442 114.016V123H372.347V121.153H372.24C372.098 121.449 371.862 121.766 371.53 122.103C371.199 122.441 370.758 122.728 370.207 122.964C369.657 123.201 368.985 123.32 368.192 123.32ZM368.512 121.438C369.34 121.438 370.039 121.275 370.607 120.949C371.181 120.624 371.613 120.203 371.903 119.689C372.199 119.174 372.347 118.632 372.347 118.064V116.146C372.258 116.253 372.063 116.35 371.761 116.439C371.465 116.522 371.122 116.596 370.731 116.661C370.346 116.72 369.971 116.774 369.604 116.821C369.243 116.862 368.95 116.898 368.725 116.928C368.18 116.999 367.671 117.114 367.198 117.274C366.73 117.428 366.351 117.661 366.061 117.975C365.777 118.283 365.635 118.703 365.635 119.236C365.635 119.964 365.905 120.514 366.443 120.887C366.988 121.254 367.677 121.438 368.512 121.438ZM379.611 104.818V123H377.516V104.818H379.611ZM384.048 128.114C383.693 128.114 383.377 128.084 383.098 128.025C382.82 127.972 382.628 127.918 382.521 127.865L383.054 126.018C383.563 126.149 384.013 126.196 384.403 126.161C384.794 126.125 385.14 125.95 385.442 125.637C385.75 125.329 386.031 124.829 386.286 124.136L386.676 123.071L381.634 109.364H383.906L387.67 120.23H387.812L391.577 109.364H393.849L388.061 124.989C387.801 125.693 387.478 126.276 387.093 126.738C386.709 127.205 386.262 127.551 385.753 127.776C385.25 128.001 384.682 128.114 384.048 128.114ZM405.524 112.418L403.642 112.95C403.523 112.637 403.349 112.332 403.118 112.036C402.893 111.734 402.585 111.485 402.195 111.29C401.804 111.095 401.304 110.997 400.694 110.997C399.86 110.997 399.164 111.19 398.608 111.574C398.058 111.953 397.782 112.435 397.782 113.021C397.782 113.542 397.972 113.953 398.351 114.255C398.729 114.557 399.321 114.809 400.126 115.01L402.15 115.507C403.37 115.803 404.278 116.256 404.876 116.865C405.474 117.469 405.773 118.247 405.773 119.2C405.773 119.982 405.548 120.68 405.098 121.295C404.654 121.911 404.032 122.396 403.233 122.751C402.434 123.107 401.505 123.284 400.446 123.284C399.055 123.284 397.904 122.982 396.992 122.379C396.081 121.775 395.504 120.893 395.261 119.733L397.25 119.236C397.439 119.97 397.797 120.52 398.324 120.887C398.857 121.254 399.552 121.438 400.41 121.438C401.387 121.438 402.162 121.23 402.736 120.816C403.316 120.396 403.606 119.893 403.606 119.307C403.606 118.833 403.441 118.437 403.109 118.117C402.778 117.792 402.269 117.549 401.582 117.389L399.309 116.857C398.061 116.561 397.143 116.102 396.557 115.48C395.977 114.853 395.687 114.069 395.687 113.128C395.687 112.358 395.903 111.678 396.335 111.086C396.773 110.494 397.368 110.029 398.12 109.692C398.877 109.355 399.736 109.186 400.694 109.186C402.044 109.186 403.103 109.482 403.873 110.074C404.648 110.666 405.198 111.447 405.524 112.418ZM408.176 123V109.364H410.272V123H408.176ZM409.242 107.091C408.833 107.091 408.481 106.952 408.185 106.674C407.895 106.395 407.75 106.061 407.75 105.67C407.75 105.28 407.895 104.945 408.185 104.667C408.481 104.389 408.833 104.25 409.242 104.25C409.65 104.25 409.999 104.389 410.289 104.667C410.585 104.945 410.733 105.28 410.733 105.67C410.733 106.061 410.585 106.395 410.289 106.674C409.999 106.952 409.65 107.091 409.242 107.091ZM423.018 112.418L421.136 112.95C421.018 112.637 420.843 112.332 420.612 112.036C420.387 111.734 420.08 111.485 419.689 111.29C419.298 111.095 418.798 110.997 418.189 110.997C417.354 110.997 416.659 111.19 416.102 111.574C415.552 111.953 415.277 112.435 415.277 113.021C415.277 113.542 415.466 113.953 415.845 114.255C416.224 114.557 416.815 114.809 417.62 115.01L419.645 115.507C420.864 115.803 421.772 116.256 422.37 116.865C422.968 117.469 423.267 118.247 423.267 119.2C423.267 119.982 423.042 120.68 422.592 121.295C422.148 121.911 421.527 122.396 420.728 122.751C419.929 123.107 418.999 123.284 417.94 123.284C416.549 123.284 415.398 122.982 414.487 122.379C413.575 121.775 412.998 120.893 412.755 119.733L414.744 119.236C414.933 119.97 415.291 120.52 415.818 120.887C416.351 121.254 417.046 121.438 417.904 121.438C418.881 121.438 419.656 121.23 420.23 120.816C420.81 120.396 421.1 119.893 421.1 119.307C421.1 118.833 420.935 118.437 420.603 118.117C420.272 117.792 419.763 117.549 419.076 117.389L416.804 116.857C415.555 116.561 414.637 116.102 414.051 115.48C413.471 114.853 413.181 114.069 413.181 113.128C413.181 112.358 413.397 111.678 413.83 111.086C414.268 110.494 414.862 110.029 415.614 109.692C416.372 109.355 417.23 109.186 418.189 109.186C419.538 109.186 420.597 109.482 421.367 110.074C422.142 110.666 422.693 111.447 423.018 112.418ZM427.198 123.142C426.76 123.142 426.384 122.985 426.07 122.672C425.756 122.358 425.6 121.982 425.6 121.544C425.6 121.106 425.756 120.73 426.07 120.417C426.384 120.103 426.76 119.946 427.198 119.946C427.636 119.946 428.011 120.103 428.325 120.417C428.639 120.73 428.796 121.106 428.796 121.544C428.796 121.834 428.722 122.1 428.574 122.343C428.432 122.586 428.239 122.781 427.997 122.929C427.76 123.071 427.493 123.142 427.198 123.142Z" fill="#ECECEC" fill-opacity="0.9"/>
<path d="M46.8413 178.089C46.3832 178.089 45.9783 178.011 45.6268 177.853C45.2773 177.695 45.0036 177.478 44.8054 177.201C44.6072 176.924 44.5092 176.609 44.5114 176.255C44.5092 175.978 44.5657 175.723 44.6808 175.491C44.7979 175.257 44.9567 175.062 45.157 174.906C45.3572 174.749 45.581 174.648 45.8281 174.606V174.567C45.5021 174.489 45.2411 174.314 45.0451 174.043C44.8491 173.773 44.7521 173.462 44.7543 173.11C44.7521 172.776 44.8406 172.477 45.0195 172.215C45.2006 171.951 45.4489 171.743 45.7642 171.592C46.0795 171.441 46.4386 171.365 46.8413 171.365C47.2397 171.365 47.5955 171.442 47.9087 171.595C48.2241 171.746 48.4723 171.954 48.6534 172.218C48.8345 172.48 48.9261 172.778 48.9283 173.11C48.9261 173.462 48.826 173.773 48.6278 174.043C48.4297 174.314 48.1719 174.489 47.8544 174.567V174.606C48.0994 174.648 48.32 174.749 48.516 174.906C48.7141 175.062 48.8718 175.257 48.989 175.491C49.1083 175.723 49.169 175.978 49.1712 176.255C49.169 176.609 49.0689 176.924 48.8707 177.201C48.6726 177.478 48.3977 177.695 48.0462 177.853C47.6967 178.011 47.2951 178.089 46.8413 178.089ZM46.8413 177.281C47.1119 177.281 47.3462 177.236 47.5444 177.147C47.7425 177.055 47.896 176.928 48.0046 176.766C48.1133 176.602 48.1687 176.411 48.1708 176.191C48.1687 175.963 48.109 175.762 47.9918 175.587C47.8768 175.412 47.7202 175.275 47.522 175.175C47.3239 175.075 47.0969 175.025 46.8413 175.025C46.5835 175.025 46.3544 175.075 46.1541 175.175C45.9538 175.275 45.7962 175.412 45.6811 175.587C45.5661 175.762 45.5096 175.963 45.5117 176.191C45.5096 176.411 45.5618 176.602 45.6683 176.766C45.777 176.928 45.9315 177.055 46.1317 177.147C46.332 177.236 46.5685 177.281 46.8413 177.281ZM46.8413 174.235C47.0586 174.235 47.2514 174.191 47.4197 174.104C47.5881 174.017 47.7202 173.895 47.8161 173.74C47.9141 173.584 47.9641 173.402 47.9663 173.193C47.9641 172.989 47.9151 172.81 47.8192 172.656C47.7255 172.503 47.5945 172.385 47.4261 172.301C47.2578 172.216 47.0629 172.174 46.8413 172.174C46.6154 172.174 46.4173 172.216 46.2468 172.301C46.0785 172.385 45.9474 172.503 45.8537 172.656C45.7599 172.81 45.7141 172.989 45.7163 173.193C45.7141 173.402 45.761 173.584 45.8569 173.74C45.9528 173.895 46.0849 174.017 46.2532 174.104C46.4237 174.191 46.6197 174.235 46.8413 174.235ZM49.7867 178L52.6439 172.349V172.301H49.3392V171.455H53.6666V172.33L50.819 178H49.7867ZM54.0281 178V177.284L56.2429 174.989C56.4794 174.74 56.6744 174.522 56.8278 174.334C56.9833 174.145 57.0994 173.964 57.1761 173.794C57.2528 173.624 57.2912 173.442 57.2912 173.251C57.2912 173.033 57.2401 172.846 57.1378 172.688C57.0355 172.528 56.896 172.406 56.7191 172.321C56.5423 172.233 56.343 172.19 56.1214 172.19C55.8871 172.19 55.6825 172.238 55.5078 172.333C55.3331 172.429 55.1989 172.565 55.1051 172.739C55.0114 172.914 54.9645 173.119 54.9645 173.353H54.0217C54.0217 172.955 54.1133 172.606 54.2965 172.308C54.4798 172.01 54.7312 171.778 55.0508 171.614C55.3704 171.448 55.7337 171.365 56.1406 171.365C56.5518 171.365 56.9141 171.447 57.2273 171.611C57.5426 171.773 57.7887 171.995 57.9656 172.276C58.1424 172.555 58.2308 172.87 58.2308 173.222C58.2308 173.465 58.185 173.702 58.0934 173.935C58.0039 174.167 57.8473 174.426 57.6236 174.711C57.3999 174.995 57.0888 175.339 56.6903 175.744L55.3896 177.105V177.153H58.3363V178H54.0281Z" fill="#6B6B70" fill-opacity="0.9"/>
<path d="M109.492 202.722V201.923L112.321 197.455H112.95V198.631H112.551L110.528 201.833V201.884H114.404V202.722H109.492ZM112.596 204V202.479L112.602 202.114V197.455H113.538V204H112.596ZM114.768 204V203.284L116.983 200.989C117.22 200.74 117.415 200.522 117.568 200.334C117.724 200.145 117.84 199.964 117.916 199.794C117.993 199.624 118.031 199.442 118.031 199.251C118.031 199.033 117.98 198.846 117.878 198.688C117.776 198.528 117.636 198.406 117.459 198.321C117.282 198.233 117.083 198.19 116.862 198.19C116.627 198.19 116.423 198.238 116.248 198.333C116.073 198.429 115.939 198.565 115.845 198.739C115.752 198.914 115.705 199.119 115.705 199.353H114.762C114.762 198.955 114.854 198.606 115.037 198.308C115.22 198.01 115.471 197.778 115.791 197.614C116.111 197.448 116.474 197.365 116.881 197.365C117.292 197.365 117.654 197.447 117.968 197.611C118.283 197.773 118.529 197.995 118.706 198.276C118.883 198.555 118.971 198.87 118.971 199.222C118.971 199.465 118.925 199.702 118.834 199.935C118.744 200.167 118.588 200.426 118.364 200.711C118.14 200.995 117.829 201.339 117.431 201.744L116.13 203.105V203.153H119.077V204H114.768ZM121.749 204.089C121.291 204.089 120.887 204.011 120.535 203.853C120.186 203.695 119.912 203.478 119.714 203.201C119.515 202.924 119.417 202.609 119.42 202.255C119.417 201.978 119.474 201.723 119.589 201.491C119.706 201.257 119.865 201.062 120.065 200.906C120.265 200.749 120.489 200.648 120.736 200.606V200.567C120.41 200.489 120.149 200.314 119.953 200.043C119.757 199.773 119.66 199.462 119.662 199.11C119.66 198.776 119.749 198.477 119.928 198.215C120.109 197.951 120.357 197.743 120.672 197.592C120.988 197.441 121.347 197.365 121.749 197.365C122.148 197.365 122.504 197.442 122.817 197.595C123.132 197.746 123.381 197.954 123.562 198.218C123.743 198.48 123.834 198.778 123.836 199.11C123.834 199.462 123.734 199.773 123.536 200.043C123.338 200.314 123.08 200.489 122.763 200.567V200.606C123.008 200.648 123.228 200.749 123.424 200.906C123.622 201.062 123.78 201.257 123.897 201.491C124.017 201.723 124.077 201.978 124.079 202.255C124.077 202.609 123.977 202.924 123.779 203.201C123.581 203.478 123.306 203.695 122.954 203.853C122.605 204.011 122.203 204.089 121.749 204.089ZM121.749 203.281C122.02 203.281 122.254 203.236 122.453 203.147C122.651 203.055 122.804 202.928 122.913 202.766C123.021 202.602 123.077 202.411 123.079 202.191C123.077 201.963 123.017 201.762 122.9 201.587C122.785 201.412 122.628 201.275 122.43 201.175C122.232 201.075 122.005 201.025 121.749 201.025C121.492 201.025 121.263 201.075 121.062 201.175C120.862 201.275 120.704 201.412 120.589 201.587C120.474 201.762 120.418 201.963 120.42 202.191C120.418 202.411 120.47 202.602 120.577 202.766C120.685 202.928 120.84 203.055 121.04 203.147C121.24 203.236 121.477 203.281 121.749 203.281ZM121.749 200.235C121.967 200.235 122.16 200.191 122.328 200.104C122.496 200.017 122.628 199.895 122.724 199.74C122.822 199.584 122.872 199.402 122.874 199.193C122.872 198.989 122.823 198.81 122.727 198.656C122.634 198.503 122.503 198.385 122.334 198.301C122.166 198.216 121.971 198.174 121.749 198.174C121.524 198.174 121.325 198.216 121.155 198.301C120.987 198.385 120.856 198.503 120.762 198.656C120.668 198.81 120.622 198.989 120.624 199.193C120.622 199.402 120.669 199.584 120.765 199.74C120.861 199.895 120.993 200.017 121.161 200.104C121.332 200.191 121.528 200.235 121.749 200.235Z" fill="#6B6B70" fill-opacity="0.9"/>
<path d="M180.113 218.455V225H179.122V219.445H179.084L177.518 220.468V219.522L179.151 218.455H180.113ZM183.419 225.089C183.127 225.085 182.839 225.032 182.556 224.93C182.275 224.827 182.019 224.657 181.789 224.418C181.559 224.18 181.374 223.859 181.236 223.456C181.099 223.054 181.031 222.551 181.031 221.948C181.031 221.377 181.088 220.87 181.201 220.426C181.316 219.983 181.481 219.609 181.696 219.305C181.911 218.998 182.171 218.765 182.476 218.605C182.781 218.445 183.123 218.365 183.502 218.365C183.892 218.365 184.238 218.442 184.54 218.595C184.843 218.749 185.088 218.961 185.276 219.231C185.465 219.502 185.586 219.81 185.637 220.155H184.662C184.596 219.882 184.465 219.659 184.269 219.487C184.073 219.314 183.817 219.228 183.502 219.228C183.022 219.228 182.648 219.437 182.38 219.854C182.114 220.272 181.979 220.853 181.977 221.596H182.025C182.138 221.411 182.277 221.253 182.441 221.123C182.607 220.991 182.792 220.89 182.997 220.82C183.203 220.747 183.421 220.711 183.649 220.711C184.028 220.711 184.371 220.804 184.678 220.989C184.987 221.172 185.233 221.426 185.416 221.75C185.599 222.074 185.691 222.444 185.691 222.862C185.691 223.279 185.596 223.658 185.407 223.996C185.219 224.335 184.955 224.604 184.614 224.802C184.273 224.998 183.875 225.094 183.419 225.089ZM183.415 224.259C183.667 224.259 183.892 224.197 184.09 224.073C184.288 223.95 184.445 223.783 184.56 223.575C184.675 223.366 184.732 223.132 184.732 222.875C184.732 222.623 184.676 222.394 184.563 222.188C184.452 221.981 184.299 221.817 184.103 221.695C183.909 221.574 183.687 221.513 183.438 221.513C183.248 221.513 183.072 221.549 182.911 221.622C182.751 221.694 182.61 221.794 182.489 221.922C182.367 222.05 182.271 222.197 182.201 222.363C182.133 222.527 182.099 222.701 182.099 222.884C182.099 223.129 182.155 223.356 182.268 223.565C182.383 223.774 182.54 223.942 182.738 224.07C182.938 224.196 183.164 224.259 183.415 224.259ZM186.326 225L189.183 219.349V219.301H185.878V218.455H190.206V219.33L187.358 225H186.326Z" fill="#6B6B70" fill-opacity="0.9"/>
<path d="M244.63 256V255.284L246.844 252.989C247.081 252.74 247.276 252.522 247.429 252.334C247.585 252.145 247.701 251.964 247.778 251.794C247.854 251.624 247.893 251.442 247.893 251.251C247.893 251.033 247.842 250.846 247.739 250.688C247.637 250.528 247.498 250.406 247.321 250.321C247.144 250.233 246.945 250.19 246.723 250.19C246.489 250.19 246.284 250.238 246.109 250.333C245.935 250.429 245.8 250.565 245.707 250.739C245.613 250.914 245.566 251.119 245.566 251.353H244.623C244.623 250.955 244.715 250.606 244.898 250.308C245.081 250.01 245.333 249.778 245.652 249.614C245.972 249.448 246.335 249.365 246.742 249.365C247.153 249.365 247.516 249.447 247.829 249.611C248.144 249.773 248.39 249.995 248.567 250.276C248.744 250.555 248.832 250.87 248.832 251.222C248.832 251.465 248.787 251.702 248.695 251.935C248.605 252.167 248.449 252.426 248.225 252.711C248.001 252.995 247.69 253.339 247.292 253.744L245.991 255.105V255.153H248.938V256H244.63ZM251.56 256.089C251.159 256.089 250.799 256.013 250.479 255.859C250.162 255.704 249.908 255.491 249.719 255.22C249.529 254.95 249.428 254.641 249.415 254.293H250.374C250.397 254.575 250.522 254.806 250.748 254.987C250.974 255.168 251.244 255.259 251.56 255.259C251.811 255.259 252.034 255.201 252.228 255.086C252.424 254.969 252.577 254.808 252.688 254.603C252.801 254.399 252.857 254.165 252.857 253.903C252.857 253.637 252.8 253.4 252.685 253.191C252.57 252.982 252.411 252.818 252.208 252.699C252.008 252.579 251.778 252.518 251.518 252.516C251.32 252.516 251.121 252.55 250.92 252.619C250.72 252.687 250.558 252.776 250.435 252.887L249.53 252.753L249.898 249.455H253.496V250.301H250.719L250.511 252.133H250.55C250.678 252.009 250.847 251.906 251.058 251.823C251.271 251.74 251.499 251.698 251.742 251.698C252.14 251.698 252.495 251.793 252.806 251.983C253.119 252.172 253.365 252.431 253.544 252.759C253.725 253.085 253.815 253.46 253.813 253.884C253.815 254.308 253.719 254.686 253.525 255.019C253.333 255.351 253.067 255.613 252.726 255.805C252.387 255.995 251.999 256.089 251.56 256.089Z" fill="#6B6B70" fill-opacity="0.9"/>
<path d="M319.157 281.099C318.648 281.099 318.198 281.012 317.808 280.837C317.419 280.661 317.115 280.42 316.895 280.112C316.675 279.804 316.566 279.454 316.568 279.061C316.566 278.753 316.629 278.47 316.756 278.212C316.887 277.952 317.063 277.735 317.286 277.562C317.508 277.387 317.757 277.276 318.031 277.229V277.186C317.669 277.098 317.379 276.904 317.161 276.604C316.943 276.303 316.836 275.957 316.838 275.567C316.836 275.195 316.934 274.864 317.133 274.572C317.334 274.279 317.61 274.048 317.96 273.88C318.311 273.712 318.71 273.628 319.157 273.628C319.6 273.628 319.995 273.713 320.343 273.884C320.693 274.052 320.969 274.282 321.17 274.576C321.372 274.867 321.473 275.197 321.476 275.567C321.473 275.957 321.362 276.303 321.142 276.604C320.922 276.904 320.635 277.098 320.283 277.186V277.229C320.555 277.276 320.8 277.387 321.018 277.562C321.238 277.735 321.413 277.952 321.543 278.212C321.676 278.47 321.743 278.753 321.746 279.061C321.743 279.454 321.632 279.804 321.412 280.112C321.192 280.42 320.886 280.661 320.496 280.837C320.107 281.012 319.661 281.099 319.157 281.099ZM319.157 280.201C319.458 280.201 319.718 280.151 319.938 280.052C320.158 279.95 320.329 279.809 320.45 279.629C320.57 279.447 320.632 279.234 320.634 278.99C320.632 278.737 320.566 278.513 320.435 278.319C320.308 278.125 320.134 277.972 319.913 277.861C319.693 277.75 319.441 277.694 319.157 277.694C318.871 277.694 318.616 277.75 318.393 277.861C318.171 277.972 317.996 278.125 317.868 278.319C317.74 278.513 317.677 278.737 317.68 278.99C317.677 279.234 317.735 279.447 317.854 279.629C317.974 279.809 318.146 279.95 318.369 280.052C318.591 280.151 318.854 280.201 319.157 280.201ZM319.157 276.817C319.398 276.817 319.613 276.768 319.8 276.671C319.987 276.574 320.134 276.439 320.24 276.266C320.349 276.094 320.405 275.891 320.407 275.659C320.405 275.432 320.35 275.233 320.244 275.062C320.139 274.892 319.994 274.761 319.807 274.668C319.62 274.574 319.403 274.526 319.157 274.526C318.906 274.526 318.686 274.574 318.496 274.668C318.309 274.761 318.164 274.892 318.06 275.062C317.955 275.233 317.905 275.432 317.907 275.659C317.905 275.891 317.957 276.094 318.063 276.266C318.17 276.439 318.317 276.574 318.504 276.671C318.693 276.768 318.911 276.817 319.157 276.817Z" fill="#6B6B70" fill-opacity="0.9"/>
<mask id="path-17-inside-4_104_13" fill="white">
<path d="M408 246C408 242.686 410.686 240 414 240H518V301C518 304.314 515.314 307 512 307H408V246Z"/>
</mask>
<path d="M408 246C408 242.686 410.686 240 414 240H518V301C518 304.314 515.314 307 512 307H408V246Z" fill="#1C1A14"/>
<path d="M407 246C407 242.134 410.134 239 414 239H518V241H414C411.239 241 409 243.239 409 246H407ZM409 246M518 307H408H518M407 307V246C407 242.134 410.134 239 414 239V241C411.239 241 409 243.239 409 246V307H407ZM409 307M518 240V307V240" fill="white" fill-opacity="0.03" mask="url(#path-17-inside-4_104_13)"/>
<path d="M442.847 281.149C442.116 281.149 441.462 281.023 440.887 280.771C440.315 280.519 439.863 280.169 439.529 279.722C439.199 279.271 439.021 278.749 438.996 278.156H440.669C440.69 278.479 440.798 278.759 440.994 278.997C441.192 279.232 441.452 279.413 441.771 279.54C442.091 279.668 442.446 279.732 442.837 279.732C443.266 279.732 443.646 279.658 443.977 279.509C444.31 279.359 444.571 279.152 444.76 278.885C444.948 278.615 445.042 278.305 445.042 277.953C445.042 277.587 444.948 277.266 444.76 276.989C444.575 276.708 444.303 276.488 443.945 276.328C443.589 276.169 443.16 276.089 442.656 276.089H441.734V274.746H442.656C443.06 274.746 443.415 274.674 443.721 274.528C444.03 274.382 444.271 274.18 444.445 273.921C444.619 273.658 444.706 273.351 444.706 272.999C444.706 272.662 444.63 272.369 444.477 272.12C444.328 271.868 444.115 271.671 443.838 271.529C443.565 271.387 443.241 271.316 442.869 271.316C442.513 271.316 442.181 271.382 441.873 271.513C441.567 271.641 441.319 271.826 441.127 272.067C440.935 272.305 440.832 272.591 440.818 272.925H439.225C439.243 272.335 439.417 271.817 439.747 271.369C440.081 270.922 440.521 270.572 441.068 270.32C441.615 270.068 442.222 269.942 442.89 269.942C443.589 269.942 444.193 270.078 444.701 270.352C445.212 270.622 445.607 270.982 445.884 271.433C446.164 271.884 446.303 272.378 446.299 272.914C446.303 273.525 446.132 274.043 445.788 274.469C445.447 274.896 444.992 275.181 444.424 275.327V275.412C445.148 275.522 445.71 275.81 446.107 276.275C446.509 276.74 446.707 277.317 446.704 278.006C446.707 278.607 446.54 279.145 446.203 279.62C445.869 280.096 445.413 280.471 444.834 280.744C444.255 281.014 443.593 281.149 442.847 281.149ZM451.765 281.181C450.924 281.178 450.205 280.956 449.608 280.515C449.011 280.075 448.555 279.434 448.239 278.592C447.923 277.751 447.765 276.737 447.765 275.551C447.765 274.368 447.923 273.358 448.239 272.52C448.559 271.682 449.017 271.043 449.613 270.602C450.213 270.162 450.931 269.942 451.765 269.942C452.6 269.942 453.315 270.164 453.912 270.608C454.509 271.048 454.965 271.687 455.281 272.525C455.6 273.36 455.76 274.368 455.76 275.551C455.76 276.74 455.602 277.756 455.286 278.598C454.97 279.436 454.514 280.077 453.917 280.521C453.321 280.961 452.603 281.181 451.765 281.181ZM451.765 279.759C452.504 279.759 453.081 279.398 453.496 278.678C453.915 277.957 454.125 276.914 454.125 275.551C454.125 274.645 454.029 273.88 453.837 273.255C453.649 272.626 453.377 272.151 453.022 271.827C452.671 271.501 452.252 271.337 451.765 271.337C451.03 271.337 450.453 271.7 450.034 272.424C449.615 273.148 449.404 274.191 449.4 275.551C449.4 276.46 449.494 277.229 449.683 277.857C449.874 278.482 450.146 278.956 450.498 279.279C450.849 279.599 451.272 279.759 451.765 279.759ZM463.8 281H460.269V270.091H463.912C464.981 270.091 465.899 270.309 466.666 270.746C467.433 271.179 468.021 271.803 468.429 272.616C468.841 273.425 469.047 274.397 469.047 275.529C469.047 276.666 468.839 277.642 468.424 278.459C468.012 279.276 467.415 279.904 466.634 280.345C465.853 280.782 464.908 281 463.8 281ZM461.915 279.562H463.71C464.541 279.562 465.232 279.406 465.782 279.093C466.332 278.777 466.744 278.321 467.018 277.724C467.291 277.124 467.428 276.392 467.428 275.529C467.428 274.674 467.291 273.947 467.018 273.351C466.748 272.754 466.345 272.301 465.809 271.993C465.272 271.684 464.607 271.529 463.811 271.529H461.915V279.562ZM472.597 281.181C472.079 281.181 471.61 281.085 471.191 280.893C470.772 280.698 470.44 280.416 470.195 280.047C469.953 279.677 469.833 279.224 469.833 278.688C469.833 278.227 469.921 277.847 470.099 277.548C470.277 277.25 470.516 277.014 470.818 276.84C471.12 276.666 471.457 276.534 471.83 276.446C472.203 276.357 472.583 276.289 472.97 276.243C473.46 276.186 473.858 276.14 474.163 276.105C474.469 276.066 474.691 276.004 474.829 275.918C474.968 275.833 475.037 275.695 475.037 275.503V275.466C475.037 275 474.905 274.64 474.643 274.384C474.383 274.129 473.996 274.001 473.481 274.001C472.945 274.001 472.523 274.12 472.214 274.358C471.908 274.592 471.697 274.853 471.58 275.141L470.083 274.8C470.261 274.303 470.52 273.901 470.861 273.596C471.205 273.287 471.601 273.063 472.049 272.925C472.496 272.783 472.967 272.712 473.46 272.712C473.787 272.712 474.133 272.751 474.499 272.829C474.868 272.903 475.213 273.042 475.532 273.244C475.855 273.447 476.12 273.736 476.326 274.113C476.532 274.485 476.635 274.97 476.635 275.567V281H475.079V279.881H475.016C474.913 280.087 474.758 280.29 474.552 280.489C474.346 280.687 474.082 280.853 473.758 280.984C473.435 281.115 473.048 281.181 472.597 281.181ZM472.943 279.903C473.384 279.903 473.76 279.816 474.073 279.642C474.389 279.468 474.628 279.24 474.792 278.96C474.959 278.676 475.042 278.372 475.042 278.049V276.994C474.985 277.051 474.875 277.104 474.712 277.154C474.552 277.2 474.369 277.241 474.163 277.277C473.957 277.309 473.757 277.339 473.561 277.367C473.366 277.392 473.203 277.413 473.071 277.431C472.762 277.47 472.48 277.536 472.224 277.628C471.972 277.721 471.77 277.854 471.617 278.028C471.468 278.198 471.393 278.425 471.393 278.71C471.393 279.104 471.539 279.402 471.83 279.604C472.121 279.803 472.492 279.903 472.943 279.903ZM478.72 284.068C478.482 284.068 478.265 284.049 478.07 284.01C477.875 283.974 477.729 283.935 477.633 283.892L478.017 282.587C478.308 282.665 478.567 282.699 478.795 282.689C479.022 282.678 479.222 282.593 479.396 282.433C479.574 282.273 479.73 282.012 479.865 281.65L480.062 281.107L477.069 272.818H478.773L480.845 279.168H480.931L483.003 272.818H484.713L481.341 282.092C481.184 282.518 480.986 282.879 480.744 283.173C480.503 283.472 480.215 283.695 479.881 283.844C479.547 283.994 479.16 284.068 478.72 284.068ZM491.59 274.816L490.147 275.071C490.086 274.887 489.991 274.711 489.859 274.544C489.731 274.377 489.557 274.24 489.337 274.134C489.117 274.027 488.842 273.974 488.512 273.974C488.061 273.974 487.684 274.075 487.382 274.278C487.08 274.477 486.93 274.734 486.93 275.05C486.93 275.324 487.031 275.544 487.233 275.711C487.436 275.877 487.762 276.014 488.213 276.121L489.513 276.419C490.266 276.593 490.827 276.861 491.196 277.223C491.566 277.586 491.75 278.056 491.75 278.635C491.75 279.125 491.608 279.562 491.324 279.945C491.044 280.325 490.651 280.624 490.147 280.84C489.646 281.057 489.066 281.165 488.405 281.165C487.489 281.165 486.741 280.97 486.162 280.579C485.584 280.185 485.229 279.626 485.097 278.901L486.637 278.667C486.732 279.068 486.93 279.372 487.228 279.578C487.526 279.78 487.915 279.881 488.394 279.881C488.916 279.881 489.334 279.773 489.646 279.556C489.959 279.336 490.115 279.068 490.115 278.752C490.115 278.496 490.019 278.282 489.827 278.108C489.639 277.934 489.35 277.802 488.959 277.713L487.574 277.41C486.811 277.236 486.246 276.959 485.88 276.579C485.518 276.199 485.337 275.718 485.337 275.135C485.337 274.652 485.472 274.23 485.742 273.868C486.012 273.505 486.384 273.223 486.86 273.021C487.336 272.815 487.881 272.712 488.496 272.712C489.38 272.712 490.076 272.903 490.584 273.287C491.091 273.667 491.427 274.176 491.59 274.816Z" fill="#ECECEC" fill-opacity="0.9"/>
<path d="M33 295.5L340 294.98" stroke="white" stroke-opacity="0.15"/>
<path d="M44.5 295.222V189C44.5 187.343 45.8431 186 47.5 186H56.5C58.1569 186 59.5 187.343 59.5 189V295.222H44.5Z" fill="#3A362B"/>
<path d="M78 295V203C78 201.343 79.3431 200 81 200H90C91.6569 200 93 201.343 93 203V295H78Z" fill="#3A362B"/>
<path d="M44.5 295.222V189C44.5 187.343 45.8431 186 47.5 186H56.5C58.1569 186 59.5 187.343 59.5 189V295.222H44.5Z" fill="#3A362B"/>
<path d="M144 295V223C144 221.343 145.343 220 147 220H156C157.657 220 159 221.343 159 223V295H144Z" fill="#3A362B"/>
<path d="M177 296V235C177 233.343 178.343 232 180 232H189C190.657 232 192 233.343 192 235V296H177Z" fill="#3A362B"/>
<path d="M210 295V252C210 250.343 211.343 249 213 249H222C223.657 249 225 250.343 225 252V295H210Z" fill="#3A362B"/>
<path d="M243 295V265C243 263.343 244.343 262 246 262H255C256.657 262 258 263.343 258 265V295H243Z" fill="#3A362B"/>
<path d="M279 295V280C279 278.343 280.343 277 282 277H291C292.657 277 294 278.343 294 280V295H279Z" fill="#3A362B"/>
<path d="M312 295V289C312 287.343 313.343 286 315 286H324C325.657 286 327 287.343 327 289V295H312Z" fill="#3A362B"/>
<path d="M111 295V214C111 212.343 112.343 211 114 211H123C124.657 211 126 212.343 126 214V295H111Z" fill="#3A362B"/>
<path d="M287.938 164V172H286.969V164H287.938ZM294.005 167.344L293.177 167.578C293.125 167.44 293.048 167.306 292.946 167.176C292.847 167.043 292.712 166.934 292.54 166.848C292.368 166.762 292.148 166.719 291.88 166.719C291.513 166.719 291.207 166.803 290.962 166.973C290.72 167.139 290.599 167.352 290.599 167.609C290.599 167.839 290.682 168.02 290.849 168.152C291.015 168.285 291.276 168.396 291.63 168.484L292.521 168.703C293.057 168.833 293.457 169.033 293.72 169.301C293.983 169.566 294.114 169.909 294.114 170.328C294.114 170.672 294.015 170.979 293.817 171.25C293.622 171.521 293.349 171.734 292.997 171.891C292.646 172.047 292.237 172.125 291.771 172.125C291.159 172.125 290.652 171.992 290.251 171.727C289.85 171.461 289.596 171.073 289.489 170.562L290.364 170.344C290.448 170.667 290.605 170.909 290.837 171.07C291.071 171.232 291.377 171.312 291.755 171.312C292.185 171.312 292.526 171.221 292.778 171.039C293.034 170.854 293.161 170.633 293.161 170.375C293.161 170.167 293.088 169.992 292.942 169.852C292.797 169.708 292.573 169.602 292.271 169.531L291.271 169.297C290.721 169.167 290.317 168.965 290.06 168.691C289.804 168.415 289.677 168.07 289.677 167.656C289.677 167.318 289.772 167.018 289.962 166.758C290.155 166.497 290.416 166.293 290.747 166.145C291.08 165.996 291.458 165.922 291.88 165.922C292.474 165.922 292.94 166.052 293.278 166.312C293.619 166.573 293.862 166.917 294.005 167.344ZM299.752 167.344L298.924 167.578C298.872 167.44 298.795 167.306 298.693 167.176C298.594 167.043 298.459 166.934 298.287 166.848C298.115 166.762 297.895 166.719 297.627 166.719C297.26 166.719 296.954 166.803 296.709 166.973C296.467 167.139 296.346 167.352 296.346 167.609C296.346 167.839 296.429 168.02 296.596 168.152C296.762 168.285 297.023 168.396 297.377 168.484L298.268 168.703C298.804 168.833 299.204 169.033 299.467 169.301C299.73 169.566 299.861 169.909 299.861 170.328C299.861 170.672 299.762 170.979 299.564 171.25C299.369 171.521 299.096 171.734 298.744 171.891C298.393 172.047 297.984 172.125 297.518 172.125C296.906 172.125 296.399 171.992 295.998 171.727C295.597 171.461 295.343 171.073 295.236 170.562L296.111 170.344C296.195 170.667 296.352 170.909 296.584 171.07C296.818 171.232 297.124 171.312 297.502 171.312C297.932 171.312 298.273 171.221 298.525 171.039C298.781 170.854 298.908 170.633 298.908 170.375C298.908 170.167 298.835 169.992 298.689 169.852C298.544 169.708 298.32 169.602 298.018 169.531L297.018 169.297C296.468 169.167 296.064 168.965 295.807 168.691C295.551 168.415 295.424 168.07 295.424 167.656C295.424 167.318 295.519 167.018 295.709 166.758C295.902 166.497 296.163 166.293 296.494 166.145C296.827 165.996 297.205 165.922 297.627 165.922C298.221 165.922 298.687 166.052 299.025 166.312C299.367 166.573 299.609 166.917 299.752 167.344ZM305.03 169.547V166H305.952V172H305.03V170.984H304.968C304.827 171.289 304.608 171.548 304.312 171.762C304.015 171.973 303.64 172.078 303.187 172.078C302.812 172.078 302.478 171.996 302.187 171.832C301.895 171.665 301.666 171.415 301.499 171.082C301.332 170.746 301.249 170.323 301.249 169.812V166H302.171V169.75C302.171 170.187 302.293 170.536 302.538 170.797C302.785 171.057 303.101 171.187 303.483 171.187C303.713 171.187 303.946 171.129 304.183 171.012C304.422 170.895 304.623 170.715 304.784 170.473C304.948 170.23 305.03 169.922 305.03 169.547ZM310.156 172.125C309.578 172.125 309.079 171.997 308.66 171.742C308.243 171.484 307.922 171.125 307.695 170.664C307.471 170.201 307.359 169.661 307.359 169.047C307.359 168.432 307.471 167.891 307.695 167.422C307.922 166.951 308.237 166.583 308.641 166.32C309.047 166.055 309.521 165.922 310.062 165.922C310.375 165.922 310.684 165.974 310.988 166.078C311.293 166.182 311.57 166.352 311.82 166.586C312.07 166.818 312.27 167.125 312.418 167.508C312.566 167.891 312.641 168.362 312.641 168.922V169.312H308.016V168.516H311.703C311.703 168.177 311.635 167.875 311.5 167.609C311.367 167.344 311.177 167.134 310.93 166.98C310.685 166.827 310.396 166.75 310.062 166.75C309.695 166.75 309.378 166.841 309.109 167.023C308.844 167.203 308.639 167.437 308.496 167.727C308.353 168.016 308.281 168.326 308.281 168.656V169.188C308.281 169.641 308.359 170.025 308.516 170.34C308.674 170.652 308.895 170.891 309.176 171.055C309.457 171.216 309.784 171.297 310.156 171.297C310.398 171.297 310.617 171.263 310.813 171.195C311.01 171.125 311.181 171.021 311.324 170.883C311.467 170.742 311.578 170.568 311.656 170.359L312.547 170.609C312.453 170.911 312.296 171.177 312.074 171.406C311.853 171.633 311.579 171.81 311.254 171.937C310.928 172.063 310.563 172.125 310.156 172.125ZM318.293 167.344L317.465 167.578C317.413 167.44 317.336 167.306 317.234 167.176C317.135 167.043 317 166.934 316.828 166.848C316.656 166.762 316.436 166.719 316.168 166.719C315.801 166.719 315.495 166.803 315.25 166.973C315.008 167.139 314.887 167.352 314.887 167.609C314.887 167.839 314.97 168.02 315.137 168.152C315.303 168.285 315.564 168.396 315.918 168.484L316.809 168.703C317.345 168.833 317.745 169.033 318.008 169.301C318.271 169.566 318.402 169.909 318.402 170.328C318.402 170.672 318.303 170.979 318.105 171.25C317.91 171.521 317.637 171.734 317.285 171.891C316.934 172.047 316.525 172.125 316.059 172.125C315.447 172.125 314.94 171.992 314.539 171.727C314.138 171.461 313.884 171.073 313.777 170.562L314.652 170.344C314.736 170.667 314.893 170.909 315.125 171.07C315.359 171.232 315.665 171.312 316.043 171.312C316.473 171.312 316.814 171.221 317.066 171.039C317.322 170.854 317.449 170.633 317.449 170.375C317.449 170.167 317.376 169.992 317.23 169.852C317.085 169.708 316.861 169.602 316.559 169.531L315.559 169.297C315.009 169.167 314.605 168.965 314.348 168.691C314.092 168.415 313.965 168.07 313.965 167.656C313.965 167.318 314.06 167.018 314.25 166.758C314.443 166.497 314.704 166.293 315.035 166.145C315.368 165.996 315.746 165.922 316.168 165.922C316.762 165.922 317.228 166.052 317.566 166.312C317.908 166.573 318.15 166.917 318.293 167.344ZM327.134 167.344L326.306 167.578C326.254 167.44 326.177 167.306 326.075 167.176C325.976 167.043 325.841 166.934 325.669 166.848C325.497 166.762 325.277 166.719 325.009 166.719C324.642 166.719 324.336 166.803 324.091 166.973C323.849 167.139 323.728 167.352 323.728 167.609C323.728 167.839 323.811 168.02 323.978 168.152C324.144 168.285 324.405 168.396 324.759 168.484L325.649 168.703C326.186 168.833 326.586 169.033 326.849 169.301C327.112 169.566 327.243 169.909 327.243 170.328C327.243 170.672 327.144 170.979 326.946 171.25C326.751 171.521 326.478 171.734 326.126 171.891C325.774 172.047 325.366 172.125 324.899 172.125C324.287 172.125 323.781 171.992 323.38 171.727C322.979 171.461 322.725 171.073 322.618 170.562L323.493 170.344C323.576 170.667 323.734 170.909 323.966 171.07C324.2 171.232 324.506 171.312 324.884 171.312C325.313 171.312 325.655 171.221 325.907 171.039C326.162 170.854 326.29 170.633 326.29 170.375C326.29 170.167 326.217 169.992 326.071 169.852C325.925 169.708 325.701 169.602 325.399 169.531L324.399 169.297C323.85 169.167 323.446 168.965 323.188 168.691C322.933 168.415 322.806 168.07 322.806 167.656C322.806 167.318 322.901 167.018 323.091 166.758C323.284 166.497 323.545 166.293 323.876 166.145C324.209 165.996 324.587 165.922 325.009 165.922C325.603 165.922 326.069 166.052 326.407 166.312C326.748 166.573 326.991 166.917 327.134 167.344ZM331.068 172.125C330.527 172.125 330.051 171.996 329.643 171.738C329.236 171.48 328.919 171.12 328.689 170.656C328.463 170.193 328.35 169.651 328.35 169.031C328.35 168.406 328.463 167.861 328.689 167.395C328.919 166.928 329.236 166.566 329.643 166.309C330.051 166.051 330.527 165.922 331.068 165.922C331.61 165.922 332.084 166.051 332.49 166.309C332.899 166.566 333.217 166.928 333.443 167.395C333.673 167.861 333.787 168.406 333.787 169.031C333.787 169.651 333.673 170.193 333.443 170.656C333.217 171.12 332.899 171.48 332.49 171.738C332.084 171.996 331.61 172.125 331.068 172.125ZM331.068 171.297C331.48 171.297 331.818 171.191 332.084 170.98C332.35 170.77 332.546 170.492 332.674 170.148C332.801 169.805 332.865 169.432 332.865 169.031C332.865 168.63 332.801 168.257 332.674 167.91C332.546 167.564 332.35 167.284 332.084 167.07C331.818 166.857 331.48 166.75 331.068 166.75C330.657 166.75 330.318 166.857 330.053 167.07C329.787 167.284 329.59 167.564 329.463 167.91C329.335 168.257 329.271 168.63 329.271 169.031C329.271 169.432 329.335 169.805 329.463 170.148C329.59 170.492 329.787 170.77 330.053 170.98C330.318 171.191 330.657 171.297 331.068 171.297ZM336.116 164V172H335.194V164H336.116ZM342.711 166L340.492 172H339.555L337.336 166H338.336L339.992 170.781H340.055L341.711 166H342.711ZM346.229 172.125C345.65 172.125 345.152 171.997 344.732 171.742C344.316 171.484 343.994 171.125 343.768 170.664C343.544 170.201 343.432 169.661 343.432 169.047C343.432 168.432 343.544 167.891 343.768 167.422C343.994 166.951 344.309 166.583 344.713 166.32C345.119 166.055 345.593 165.922 346.135 165.922C346.447 165.922 346.756 165.974 347.061 166.078C347.365 166.182 347.643 166.352 347.893 166.586C348.143 166.818 348.342 167.125 348.49 167.508C348.639 167.891 348.713 168.362 348.713 168.922V169.312H344.088V168.516H347.775C347.775 168.177 347.708 167.875 347.572 167.609C347.439 167.344 347.249 167.134 347.002 166.98C346.757 166.827 346.468 166.75 346.135 166.75C345.768 166.75 345.45 166.841 345.182 167.023C344.916 167.203 344.712 167.437 344.568 167.727C344.425 168.016 344.354 168.326 344.354 168.656V169.188C344.354 169.641 344.432 170.025 344.588 170.34C344.747 170.652 344.967 170.891 345.248 171.055C345.529 171.216 345.856 171.297 346.229 171.297C346.471 171.297 346.689 171.263 346.885 171.195C347.083 171.125 347.253 171.021 347.396 170.883C347.54 170.742 347.65 170.568 347.729 170.359L348.619 170.609C348.525 170.911 348.368 171.177 348.146 171.406C347.925 171.633 347.652 171.81 347.326 171.937C347.001 172.063 346.635 172.125 346.229 172.125ZM352.381 172.125C351.881 172.125 351.439 171.999 351.057 171.746C350.674 171.491 350.374 171.132 350.158 170.668C349.942 170.202 349.834 169.651 349.834 169.016C349.834 168.385 349.942 167.839 350.158 167.375C350.374 166.911 350.675 166.553 351.061 166.301C351.446 166.048 351.891 165.922 352.396 165.922C352.787 165.922 353.096 165.987 353.322 166.117C353.551 166.245 353.726 166.391 353.846 166.555C353.968 166.716 354.063 166.849 354.131 166.953H354.209V164H355.131V172H354.24V171.078H354.131C354.063 171.187 353.967 171.326 353.842 171.492C353.717 171.656 353.538 171.803 353.307 171.934C353.075 172.061 352.766 172.125 352.381 172.125ZM352.506 171.297C352.876 171.297 353.188 171.201 353.443 171.008C353.699 170.812 353.893 170.543 354.025 170.199C354.158 169.853 354.225 169.453 354.225 169C354.225 168.552 354.16 168.16 354.029 167.824C353.899 167.486 353.706 167.223 353.451 167.035C353.196 166.845 352.881 166.75 352.506 166.75C352.115 166.75 351.79 166.85 351.529 167.051C351.271 167.249 351.077 167.518 350.947 167.859C350.82 168.198 350.756 168.578 350.756 169C350.756 169.427 350.821 169.815 350.951 170.164C351.084 170.51 351.279 170.786 351.537 170.992C351.798 171.195 352.12 171.297 352.506 171.297Z" fill="#ECECEC"/>
</svg>
