<svg xmlns="http://www.w3.org/2000/svg" width="518" height="307" fill="none" viewBox="0 0 518 307"><rect width="518" height="307" fill="#17150e" rx="6"/><mask id="a" fill="#fff"><path d="M181 87a6 6 0 0 1 6-6h331v226H181z"/></mask><path fill="#13110b" d="M181 87a6 6 0 0 1 6-6h331v226H181z"/><path fill="#fff" fill-opacity=".03" d="M180 87a7 7 0 0 1 7-7h331v2H187a5 5 0 0 0-5 5zm338 220H181zm-338 0V87a7 7 0 0 1 7-7v2a5 5 0 0 0-5 5v220zM518 81v226z" mask="url(#a)"/><mask id="b" fill="#fff"><path d="M0 150h367a6 6 0 0 1 6 6v151H0z"/></mask><path fill="#1f1d17" d="M0 150h367a6 6 0 0 1 6 6v151H0z"/><path fill="#fff" fill-opacity=".03" d="M0 149h367a7 7 0 0 1 7 7h-2a5 5 0 0 0-5-5H0zm373 158H0zM0 307V150zm367-158a7 7 0 0 1 7 7v151h-2V156a5 5 0 0 0-5-5z" mask="url(#b)"/><mask id="c" fill="#fff"><path d="M0 6a6 6 0 0 1 6-6h506a6 6 0 0 1 6 6v18H0z"/></mask><path fill="#13110b" d="M0 6a6 6 0 0 1 6-6h506a6 6 0 0 1 6 6v18H0z"/><path fill="#fff" fill-opacity=".09" d="M0 0h518zm518 24.64H0v-1.28h518zM0 24V0zM518 0v24z" mask="url(#c)"/><path fill="#edecec" fill-opacity=".2" d="M8 11.68a5 5 0 1 1 10 0 5 5 0 0 1-10 0m16 0a5 5 0 1 1 10 0 5 5 0 0 1-10 0m16 0a5 5 0 1 1 10 0 5 5 0 0 1-10 0"/><path fill="#ececec" fill-opacity=".9" d="M215.145 109.364q-.16-1.35-1.296-2.096-1.137-.745-2.788-.745-1.207 0-2.113.39-.897.391-1.403 1.075a2.57 2.57 0 0 0-.497 1.553q0 .729.347 1.252.354.514.905.861.55.337 1.154.559.605.213 1.11.347l1.847.497q.71.186 1.58.515a7.3 7.3 0 0 1 1.678.896q.807.56 1.331 1.439t.524 2.157q0 1.473-.772 2.663-.764 1.19-2.237 1.891-1.466.702-3.56.702-1.954 0-3.383-.631-1.42-.63-2.237-1.758-.809-1.127-.915-2.619h2.273q.089 1.03.693 1.705.612.666 1.544.994a6.3 6.3 0 0 0 2.025.32q1.26 0 2.263-.408 1.004-.418 1.59-1.155.585-.746.585-1.74 0-.905-.506-1.473t-1.331-.924a14 14 0 0 0-1.785-.621l-2.237-.639q-2.13-.614-3.373-1.749-1.243-1.137-1.243-2.974 0-1.527.825-2.664.835-1.145 2.237-1.775 1.412-.639 3.152-.639 1.758 0 3.125.63 1.368.621 2.166 1.704a4.25 4.25 0 0 1 .853 2.46zm10.505 13.92q-1.846 0-3.241-.879-1.385-.879-2.166-2.459-.772-1.58-.772-3.693 0-2.132.772-3.72.781-1.589 2.166-2.468 1.395-.879 3.241-.879t3.231.879q1.395.88 2.166 2.468.782 1.589.782 3.72 0 2.113-.782 3.693-.771 1.58-2.166 2.459-1.384.879-3.231.879m0-1.882q1.402 0 2.308-.719.906-.72 1.341-1.891a7.2 7.2 0 0 0 .435-2.539q0-1.368-.435-2.548-.435-1.181-1.341-1.909t-2.308-.728q-1.403 0-2.308.728-.906.728-1.341 1.909a7.3 7.3 0 0 0-.435 2.548q0 1.367.435 2.539.435 1.171 1.341 1.891.905.719 2.308.719m10.722-6.605V123h-2.095v-13.636h2.024v2.13h.178a3.9 3.9 0 0 1 1.456-1.669q.976-.639 2.521-.639 1.384 0 2.424.568 1.038.56 1.615 1.705.577 1.136.577 2.876V123h-2.095v-8.523q0-1.607-.834-2.503-.835-.906-2.291-.906-1.003 0-1.793.435a3.1 3.1 0 0 0-1.234 1.27q-.453.834-.453 2.024m15.792 8.523q-1.296 0-2.353-.489a4.04 4.04 0 0 1-1.678-1.429q-.621-.94-.621-2.273 0-1.171.461-1.9.463-.737 1.234-1.154a6.5 6.5 0 0 1 1.705-.621 21 21 0 0 1 1.891-.338q1.243-.16 2.015-.239.781-.089 1.137-.293.364-.204.364-.71v-.071q0-1.314-.719-2.042-.71-.728-2.158-.728-1.5 0-2.352.657-.853.657-1.199 1.402l-1.989-.71q.534-1.243 1.421-1.935a5.3 5.3 0 0 1 1.953-.977 8 8 0 0 1 2.095-.284q.657 0 1.509.16.862.15 1.661.63.807.48 1.34 1.447t.533 2.593V123h-2.095v-1.847h-.107q-.213.444-.71.95-.498.507-1.323.861-.825.356-2.015.356m.319-1.882q1.243 0 2.096-.489.861-.488 1.296-1.26a3.2 3.2 0 0 0 .444-1.625v-1.918q-.133.16-.586.293-.445.124-1.03.222-.577.089-1.128.16-.541.062-.879.107a8 8 0 0 0-1.527.346q-.7.23-1.136.701-.426.462-.426 1.261 0 1.092.808 1.651.816.55 2.068.551m9.005 1.562v-13.636h2.024v2.059h.142q.374-1.012 1.35-1.642a3.97 3.97 0 0 1 2.201-.63q.23 0 .577.008t.524.027v2.131a6 6 0 0 0-.488-.08 5 5 0 0 0-.79-.062q-.995 0-1.776.417a3.15 3.15 0 0 0-1.225 1.136q-.444.72-.444 1.643V123zm15.441-5.682h2.415l2.024 2.664.532.71 3.019 4.013h-2.415l-1.988-2.664-.498-.675zm8.736-3.409q0 2.877-1.039 4.972t-2.85 3.231q-1.81 1.137-4.137 1.137t-4.137-1.137q-1.81-1.136-2.85-3.231-1.038-2.095-1.038-4.972t1.038-4.971q1.04-2.095 2.85-3.232 1.81-1.136 4.137-1.136t4.137 1.136q1.812 1.137 2.85 3.232 1.038 2.094 1.039 4.971m-2.131 0q0-2.361-.79-3.986-.781-1.625-2.122-2.459-1.332-.835-2.983-.835t-2.992.835q-1.332.834-2.122 2.459-.78 1.625-.781 3.986 0 2.361.781 3.986.79 1.625 2.122 2.459 1.34.835 2.992.835t2.983-.835q1.34-.834 2.122-2.459.79-1.625.79-3.986m13.392 3.516v-8.061h2.096V123h-2.096v-2.308h-.142q-.478 1.038-1.491 1.766-1.012.72-2.557.72-1.278 0-2.273-.56-.994-.569-1.562-1.704-.568-1.146-.568-2.886v-8.664h2.095v8.522q0 1.492.834 2.38.844.887 2.149.887.781 0 1.589-.399.816-.4 1.367-1.225.56-.826.559-2.104m5.467 5.575v-18.182h2.095v6.712h.178q.231-.355.639-.906.417-.56 1.19-.994.781-.444 2.113-.444 1.722 0 3.036.861t2.051 2.442q.736 1.58.736 3.728 0 2.166-.736 3.756-.738 1.58-2.042 2.45-1.306.861-3.01.861-1.314 0-2.104-.435-.79-.444-1.216-1.003a14 14 0 0 1-.657-.941h-.249V123zm2.06-6.818q0 1.545.453 2.725.452 1.173 1.322 1.838.87.657 2.131.657 1.314 0 2.193-.692.888-.701 1.332-1.883.452-1.19.452-2.645 0-1.438-.444-2.593-.435-1.162-1.322-1.837-.879-.684-2.211-.684-1.278 0-2.148.648-.87.639-1.314 1.794-.444 1.145-.444 2.672m18.151 7.102q-1.971 0-3.401-.87-1.42-.88-2.192-2.45-.764-1.58-.764-3.676 0-2.094.764-3.693.772-1.607 2.148-2.503 1.385-.906 3.232-.906 1.065 0 2.104.355a5.2 5.2 0 0 1 1.891 1.154q.852.79 1.358 2.095t.506 3.214v.888h-10.511v-1.811h8.38q0-1.154-.461-2.06a3.5 3.5 0 0 0-1.296-1.429q-.836-.524-1.971-.524-1.252 0-2.167.622a4.1 4.1 0 0 0-1.393 1.598 4.7 4.7 0 0 0-.489 2.113v1.207q0 1.545.533 2.619.541 1.065 1.5 1.625.96.55 2.229.55a4.5 4.5 0 0 0 1.491-.231q.675-.24 1.163-.71.488-.48.755-1.19l2.024.568a4.5 4.5 0 0 1-1.074 1.812q-.755.772-1.865 1.207-1.109.426-2.494.426m18.377.036q-1.296 0-2.352-.489a4.03 4.03 0 0 1-1.678-1.429q-.622-.94-.622-2.273 0-1.171.462-1.9a3.26 3.26 0 0 1 1.234-1.154 6.5 6.5 0 0 1 1.704-.621 21 21 0 0 1 1.891-.338 87 87 0 0 1 2.016-.239q.78-.089 1.136-.293.364-.204.364-.71v-.071q0-1.314-.719-2.042-.711-.728-2.157-.728-1.501 0-2.353.657t-1.199 1.402l-1.988-.71q.532-1.243 1.42-1.935a5.3 5.3 0 0 1 1.953-.977 8 8 0 0 1 2.096-.284q.657 0 1.509.16.86.15 1.66.63.808.48 1.341 1.447t.532 2.593V123h-2.095v-1.847h-.107q-.212.444-.71.95-.497.507-1.323.861-.825.356-2.015.356m.32-1.882q1.243 0 2.095-.489.861-.488 1.296-1.26a3.2 3.2 0 0 0 .444-1.625v-1.918q-.133.16-.586.293a10 10 0 0 1-1.03.222 46 46 0 0 1-1.127.16q-.541.062-.879.107a8 8 0 0 0-1.527.346q-.701.23-1.137.701-.426.462-.426 1.261 0 1.092.808 1.651.817.55 2.069.551m11.099-6.641V123h-2.095v-13.636h2.024v2.13h.178a3.9 3.9 0 0 1 1.456-1.669q.976-.639 2.521-.639 1.385 0 2.424.568 1.038.56 1.616 1.705.577 1.136.577 2.876V123h-2.095v-8.523q0-1.607-.835-2.503-.834-.906-2.29-.906-1.004 0-1.794.435a3.1 3.1 0 0 0-1.234 1.27q-.453.834-.453 2.024m15.792 8.523q-1.296 0-2.353-.489a4.03 4.03 0 0 1-1.677-1.429q-.622-.94-.622-2.273 0-1.171.462-1.9a3.26 3.26 0 0 1 1.234-1.154 6.5 6.5 0 0 1 1.704-.621 21 21 0 0 1 1.891-.338 87 87 0 0 1 2.016-.239q.78-.089 1.136-.293.364-.204.364-.71v-.071q0-1.314-.719-2.042-.711-.728-2.157-.728-1.501 0-2.353.657t-1.199 1.402l-1.988-.71q.532-1.243 1.42-1.935a5.3 5.3 0 0 1 1.953-.977 8 8 0 0 1 2.096-.284q.656 0 1.509.16.86.15 1.66.63.807.48 1.34 1.447.534.968.533 2.593V123h-2.095v-1.847h-.107q-.212.444-.71.95-.497.507-1.323.861-.825.356-2.015.356m.32-1.882q1.243 0 2.095-.489.861-.488 1.296-1.26a3.2 3.2 0 0 0 .444-1.625v-1.918q-.133.16-.586.293a10 10 0 0 1-1.03.222q-.577.089-1.127.16-.541.062-.879.107a8 8 0 0 0-1.527.346q-.702.23-1.137.701-.426.462-.426 1.261 0 1.092.808 1.651.817.55 2.069.551m11.099-16.62V123h-2.095v-18.182zm4.437 23.296q-.532 0-.95-.089-.417-.08-.577-.16l.533-1.847q.764.196 1.349.143.586-.054 1.039-.524.462-.462.844-1.501l.39-1.065-5.042-13.707h2.272l3.764 10.866h.142l3.765-10.866h2.272l-5.788 15.625q-.39 1.056-.968 1.749a3.6 3.6 0 0 1-1.34 1.038q-.754.338-1.705.338m21.476-15.696-1.882.532a3.5 3.5 0 0 0-.524-.914 2.54 2.54 0 0 0-.923-.746q-.586-.293-1.501-.293-1.251 0-2.086.577-.825.568-.826 1.447 0 .781.569 1.234.567.453 1.775.755l2.024.497q1.83.444 2.726 1.358.897.906.897 2.335 0 1.173-.675 2.095-.666.924-1.865 1.456-1.199.534-2.787.533-2.086 0-3.454-.905-1.366-.906-1.731-2.646l1.989-.497q.284 1.1 1.074 1.651.8.55 2.086.551 1.465 0 2.326-.622.87-.63.87-1.509 0-.71-.497-1.19-.497-.488-1.527-.728l-2.273-.532q-1.873-.444-2.752-1.377-.87-.94-.87-2.352 0-1.154.648-2.042.657-.888 1.785-1.394 1.136-.506 2.574-.506 2.024 0 3.179.888 1.162.888 1.651 2.344M408.176 123v-13.636h2.096V123zm1.066-15.909a1.5 1.5 0 0 1-1.057-.417 1.34 1.34 0 0 1-.435-1.004q0-.585.435-1.003a1.5 1.5 0 0 1 1.057-.417q.612 0 1.047.417.444.418.444 1.003 0 .586-.444 1.004-.435.417-1.047.417m13.776 5.327-1.882.532a3.5 3.5 0 0 0-.524-.914 2.5 2.5 0 0 0-.923-.746q-.587-.293-1.5-.293-1.252 0-2.087.577-.825.568-.825 1.447 0 .781.568 1.234t1.775.755l2.025.497q1.828.444 2.725 1.358.897.906.897 2.335 0 1.173-.675 2.095-.666.924-1.864 1.456-1.199.534-2.788.533-2.087 0-3.453-.905-1.368-.906-1.732-2.646l1.989-.497q.284 1.1 1.074 1.651.8.55 2.086.551 1.465 0 2.326-.622.87-.63.87-1.509 0-.71-.497-1.19-.496-.488-1.527-.728l-2.272-.532q-1.874-.444-2.753-1.377-.87-.94-.87-2.352 0-1.154.649-2.042.656-.888 1.784-1.394 1.137-.506 2.575-.506 2.023 0 3.178.888 1.163.888 1.651 2.344m4.18 10.724q-.657 0-1.128-.47a1.54 1.54 0 0 1-.47-1.128q0-.657.47-1.127.471-.471 1.128-.471t1.127.471q.471.47.471 1.127 0 .435-.222.799a1.66 1.66 0 0 1-.577.586 1.53 1.53 0 0 1-.799.213"/><path fill="#6b6b70" fill-opacity=".9" d="M46.841 178.089q-.687 0-1.214-.236a2 2 0 0 1-.822-.652 1.57 1.57 0 0 1-.294-.946 1.67 1.67 0 0 1 .646-1.349q.3-.236.671-.3v-.039a1.32 1.32 0 0 1-.783-.524 1.53 1.53 0 0 1-.29-.933 1.53 1.53 0 0 1 .264-.895 1.85 1.85 0 0 1 .745-.623 2.5 2.5 0 0 1 1.077-.227q.599 0 1.068.23.472.227.744.623.272.393.275.892a1.55 1.55 0 0 1-.3.933 1.33 1.33 0 0 1-.774.524v.039q.368.064.662.3.297.234.473.585.18.348.182.764a1.6 1.6 0 0 1-.3.946 2 2 0 0 1-.825.652q-.524.237-1.205.236m0-.808q.406 0 .703-.134.298-.138.46-.381.164-.245.167-.575a1.1 1.1 0 0 0-.18-.604 1.2 1.2 0 0 0-.469-.412 1.5 1.5 0 0 0-.68-.15q-.388 0-.688.15t-.473.412a1.06 1.06 0 0 0-.17.604q-.002.33.157.575.164.243.464.381.3.134.71.134m0-3.046q.326 0 .579-.131a.99.99 0 0 0 .546-.911 1 1 0 0 0-.147-.537.94.94 0 0 0-.393-.355 1.3 1.3 0 0 0-.585-.127q-.339 0-.594.127a.94.94 0 0 0-.393.355 1 1 0 0 0-.138.537q-.003.313.14.547a1 1 0 0 0 .397.364q.256.13.588.131M49.787 178l2.857-5.651v-.048h-3.305v-.846h4.328v.875L50.819 178zm4.241 0v-.716l2.215-2.295q.354-.373.585-.655a2.5 2.5 0 0 0 .348-.54q.115-.256.115-.543 0-.326-.153-.563a1 1 0 0 0-.419-.367 1.3 1.3 0 0 0-.598-.131q-.352 0-.613.143a1 1 0 0 0-.403.406q-.14.263-.14.614h-.943q0-.598.275-1.045a1.87 1.87 0 0 1 .754-.694 2.3 2.3 0 0 1 1.09-.249q.616 0 1.086.246.474.243.739.665.264.418.265.946 0 .364-.138.713-.135.348-.47.776-.334.426-.933 1.033l-1.3 1.361v.048h2.946V178zm55.464 24.722v-.799l2.829-4.468h.629v1.176h-.399l-2.023 3.202v.051h3.876v.838zm3.104 1.278v-1.521l.006-.365v-4.659h.936V204zm2.172 0v-.716l2.215-2.295q.355-.373.585-.655.234-.284.348-.54.115-.256.115-.543 0-.326-.153-.563a1 1 0 0 0-.419-.367 1.3 1.3 0 0 0-.597-.131q-.352 0-.614.143a1 1 0 0 0-.403.406 1.3 1.3 0 0 0-.14.614h-.943q0-.598.275-1.045.274-.448.754-.694.48-.249 1.09-.249.616 0 1.087.246.472.243.738.665.265.418.265.946 0 .364-.137.713-.135.348-.47.776-.336.426-.933 1.033l-1.301 1.361v.048h2.947V204zm6.981.089q-.686 0-1.214-.236a2 2 0 0 1-.821-.652 1.56 1.56 0 0 1-.294-.946 1.66 1.66 0 0 1 .645-1.349q.3-.236.671-.3v-.039a1.32 1.32 0 0 1-.783-.524 1.53 1.53 0 0 1-.291-.933 1.53 1.53 0 0 1 .266-.895 1.85 1.85 0 0 1 .744-.623 2.5 2.5 0 0 1 1.077-.227q.598 0 1.068.23.473.227.745.623.271.393.274.892a1.55 1.55 0 0 1-.3.933 1.33 1.33 0 0 1-.773.524v.039q.367.064.661.3.297.234.473.585.18.348.182.764a1.6 1.6 0 0 1-.3.946 2 2 0 0 1-.825.652 2.9 2.9 0 0 1-1.205.236m0-.808q.406 0 .704-.134.297-.138.46-.381.162-.245.166-.575a1.1 1.1 0 0 0-.179-.604 1.2 1.2 0 0 0-.47-.412 1.5 1.5 0 0 0-.681-.15q-.386 0-.687.15-.3.15-.473.412a1.06 1.06 0 0 0-.169.604q-.003.33.157.575.162.243.463.381.3.134.709.134m0-3.046q.327 0 .579-.131a1 1 0 0 0 .546-.911 1 1 0 0 0-.147-.537.93.93 0 0 0-.393-.355 1.3 1.3 0 0 0-.585-.127q-.338 0-.594.127a.95.95 0 0 0-.393.355 1 1 0 0 0-.138.537q-.003.313.141.547a1 1 0 0 0 .396.364q.257.13.588.131m58.364 18.22V225h-.991v-5.555h-.038l-1.566 1.023v-.946l1.633-1.067zm3.306 6.634a2.6 2.6 0 0 1-.863-.159 2 2 0 0 1-.767-.512q-.345-.357-.553-.962-.205-.603-.205-1.508 0-.856.17-1.522.172-.665.495-1.121a2.2 2.2 0 0 1 .78-.7q.457-.24 1.026-.24.585 0 1.038.23.454.231.736.636.284.407.361.924h-.975a1.26 1.26 0 0 0-.393-.668q-.294-.26-.767-.259-.72 0-1.122.626-.4.627-.403 1.742h.048q.17-.278.416-.473.249-.198.556-.303a2 2 0 0 1 .652-.109q.569 0 1.029.278.464.275.738.761.275.486.275 1.112t-.284 1.134a2.1 2.1 0 0 1-.793.806q-.511.294-1.195.287m-.004-.83q.378 0 .675-.186.297-.185.47-.498a1.43 1.43 0 0 0 .172-.7q0-.378-.169-.687a1.3 1.3 0 0 0-.46-.493 1.23 1.23 0 0 0-.665-.182q-.285 0-.527.109-.24.108-.422.3a1.5 1.5 0 0 0-.288.441 1.4 1.4 0 0 0-.102.521q0 .367.169.681.173.313.47.505.3.189.677.189m2.911.741 2.857-5.651v-.048h-3.305v-.846h4.328v.875l-2.848 5.67zm58.304 31v-.716l2.214-2.295q.356-.373.585-.655.234-.284.349-.54a1.3 1.3 0 0 0 .115-.543q0-.326-.154-.563a1 1 0 0 0-.418-.367 1.3 1.3 0 0 0-.598-.131q-.351 0-.614.143a1 1 0 0 0-.402.406 1.3 1.3 0 0 0-.141.614h-.943q0-.598.275-1.045.275-.448.754-.694.48-.249 1.09-.249.617 0 1.087.246.473.243.738.665.265.418.265.946 0 .364-.137.713-.135.348-.47.776-.336.426-.933 1.033l-1.301 1.361v.048h2.947V256zm6.93.089a2.46 2.46 0 0 1-1.081-.23 1.95 1.95 0 0 1-.76-.639 1.7 1.7 0 0 1-.304-.927h.959a.96.96 0 0 0 .374.694q.339.272.812.272.377 0 .668-.173.294-.175.46-.483.17-.306.169-.7 0-.399-.172-.712a1.27 1.27 0 0 0-.477-.492q-.3-.18-.69-.183a1.8 1.8 0 0 0-.598.103q-.3.102-.485.268l-.905-.134.368-3.298h3.598v.846h-2.777l-.208 1.832h.039q.192-.186.508-.31.32-.125.684-.125a2 2 0 0 1 1.802 1.061q.272.489.269 1.125a2.2 2.2 0 0 1-.288 1.135 2.1 2.1 0 0 1-.799.786q-.508.285-1.166.284m67.597 25.01q-.764 0-1.349-.262a2.2 2.2 0 0 1-.913-.725 1.75 1.75 0 0 1-.327-1.051 1.9 1.9 0 0 1 .188-.849 1.9 1.9 0 0 1 .53-.65q.333-.263.745-.333v-.043a1.47 1.47 0 0 1-.87-.582 1.7 1.7 0 0 1-.323-1.037 1.7 1.7 0 0 1 .295-.995q.302-.44.827-.692a2.74 2.74 0 0 1 1.197-.252q.664 0 1.186.256.525.252.827.692.302.436.306.991-.004.585-.334 1.037-.33.45-.859.582v.043q.408.07.735.333.33.26.525.65.199.387.203.849a1.8 1.8 0 0 1-.334 1.051q-.33.461-.916.725-.583.262-1.339.262m0-.898q.451 0 .781-.149.33-.153.512-.423.18-.273.184-.639a1.2 1.2 0 0 0-.199-.671 1.3 1.3 0 0 0-.522-.458 1.66 1.66 0 0 0-.756-.167q-.43 0-.764.167a1.3 1.3 0 0 0-.525.458 1.17 1.17 0 0 0-.188.671q-.004.366.174.639.18.27.515.423.333.149.788.149m0-3.384q.362 0 .643-.146.28-.146.44-.405a1.13 1.13 0 0 0 .167-.607 1.13 1.13 0 0 0-.163-.597 1.05 1.05 0 0 0-.437-.394 1.4 1.4 0 0 0-.65-.142q-.376 0-.661.142a1.04 1.04 0 0 0-.436.394q-.157.257-.153.597-.003.348.156.607.16.26.441.405.284.146.653.146"/><mask id="d" fill="#fff"><path d="M408 246a6 6 0 0 1 6-6h104v61a6 6 0 0 1-6 6H408z"/></mask><path fill="#1c1a14" d="M408 246a6 6 0 0 1 6-6h104v61a6 6 0 0 1-6 6H408z"/><path fill="#fff" fill-opacity=".03" d="M407 246a7 7 0 0 1 7-7h104v2H414a5 5 0 0 0-5 5zm111 61H408zm-111 0v-61a7 7 0 0 1 7-7v2a5 5 0 0 0-5 5v61zm111-67v67z" mask="url(#d)"/><path fill="#ececec" fill-opacity=".9" d="M442.847 281.149q-1.097 0-1.96-.378-.858-.378-1.358-1.049a2.8 2.8 0 0 1-.533-1.566h1.673q.031.484.325.841.298.353.777.543.48.192 1.066.192.644 0 1.14-.223.5-.224.783-.624.282-.404.282-.932 0-.549-.282-.964-.278-.421-.815-.661-.533-.239-1.289-.239h-.922v-1.343h.922q.606 0 1.065-.218.463-.219.724-.607.261-.394.261-.922 0-.505-.229-.879a1.54 1.54 0 0 0-.639-.591 2.1 2.1 0 0 0-.969-.213q-.534 0-.996.197a1.84 1.84 0 0 0-.746.554 1.42 1.42 0 0 0-.309.858h-1.593q.027-.884.522-1.556a3.4 3.4 0 0 1 1.321-1.049 4.3 4.3 0 0 1 1.822-.378q1.049 0 1.811.41.767.405 1.183 1.081.42.677.415 1.481.006.916-.511 1.555-.512.64-1.364.858v.085q1.087.165 1.683.863.602.697.597 1.731a2.7 2.7 0 0 1-.501 1.614q-.5.714-1.369 1.124-.868.405-1.987.405m8.918.032q-1.261-.004-2.157-.666-.895-.66-1.369-1.923t-.474-3.041q0-1.774.474-3.031.48-1.257 1.374-1.918.9-.66 2.152-.66t2.147.666q.895.66 1.369 1.917.479 1.252.479 3.026 0 1.784-.474 3.047-.474 1.257-1.369 1.923-.895.66-2.152.66m0-1.422q1.108 0 1.731-1.081.629-1.082.629-3.127 0-1.359-.288-2.296-.282-.943-.815-1.428a1.78 1.78 0 0 0-1.257-.49q-1.103 0-1.731 1.087t-.634 3.127q0 1.364.283 2.306.287.938.815 1.422.527.48 1.267.48M463.8 281h-3.531v-10.909h3.643q1.604 0 2.754.655a4.3 4.3 0 0 1 1.763 1.87q.618 1.214.618 2.913 0 1.705-.623 2.93a4.4 4.4 0 0 1-1.79 1.886q-1.172.655-2.834.655m-1.885-1.438h1.795q1.247 0 2.072-.469.825-.474 1.236-1.369.41-.9.41-2.195 0-1.283-.41-2.178a2.9 2.9 0 0 0-1.209-1.358q-.805-.464-1.998-.464h-1.896zm10.682 1.619q-.777 0-1.406-.288a2.37 2.37 0 0 1-.996-.846q-.363-.555-.362-1.359 0-.692.266-1.14t.719-.708a3.7 3.7 0 0 1 1.012-.394 10 10 0 0 1 1.14-.203l1.193-.138q.459-.058.666-.187.208-.127.208-.415v-.037q0-.699-.394-1.082-.39-.383-1.162-.383-.804 0-1.267.357-.459.351-.634.783l-1.497-.341q.267-.746.778-1.204a3.1 3.1 0 0 1 1.188-.671 4.6 4.6 0 0 1 1.411-.213q.49 0 1.039.117.554.112 1.033.415.485.304.794.869.309.558.309 1.454V281h-1.556v-1.119h-.063a2.3 2.3 0 0 1-.464.608q-.308.298-.794.495-.484.197-1.161.197m.346-1.278q.661 0 1.13-.261.474-.262.719-.682.25-.426.25-.911v-1.055q-.085.085-.33.16-.24.069-.549.123-.308.048-.602.09l-.49.064a4 4 0 0 0-.847.197 1.46 1.46 0 0 0-.607.4q-.224.255-.224.682 0 .591.437.894.436.299 1.113.299m5.777 4.165q-.357 0-.65-.058a2 2 0 0 1-.437-.118l.384-1.305q.436.117.778.102a.93.93 0 0 0 .601-.256q.267-.24.469-.783l.197-.543-2.993-8.289h1.704l2.072 6.35h.086l2.072-6.35h1.71l-3.372 9.274a3.7 3.7 0 0 1-.597 1.081 2.3 2.3 0 0 1-.863.671 2.8 2.8 0 0 1-1.161.224m12.87-9.252-1.443.255a1.7 1.7 0 0 0-.288-.527 1.4 1.4 0 0 0-.522-.41q-.33-.16-.825-.16-.677 0-1.13.304-.453.298-.452.772 0 .41.303.661.304.25.98.41l1.3.298q1.13.261 1.683.804.554.544.554 1.412 0 .735-.426 1.31-.42.57-1.177.895-.751.325-1.742.325-1.374 0-2.243-.586-.867-.59-1.065-1.678l1.54-.234q.143.602.591.911.447.303 1.166.303.784 0 1.252-.325.47-.33.469-.804a.83.83 0 0 0-.288-.644q-.282-.261-.868-.395l-1.385-.303q-1.145-.261-1.694-.831-.543-.57-.543-1.444 0-.724.405-1.267.405-.544 1.118-.847.714-.309 1.636-.309 1.326 0 2.088.575.761.57 1.006 1.529"/><path stroke="#fff" stroke-opacity=".15" d="m33 295.5 307-.52"/><path fill="#3a362b" d="M44.5 295.222V189a3 3 0 0 1 3-3h9a3 3 0 0 1 3 3v106.222zM78 295v-92a3 3 0 0 1 3-3h9a3 3 0 0 1 3 3v92z"/><path fill="#3a362b" d="M44.5 295.222V189a3 3 0 0 1 3-3h9a3 3 0 0 1 3 3v106.222zM144 295v-72a3 3 0 0 1 3-3h9a3 3 0 0 1 3 3v72zm33 1v-61a3 3 0 0 1 3-3h9a3 3 0 0 1 3 3v61zm33-1v-43a3 3 0 0 1 3-3h9a3 3 0 0 1 3 3v43zm33 0v-30a3 3 0 0 1 3-3h9a3 3 0 0 1 3 3v30zm36 0v-15a3 3 0 0 1 3-3h9a3 3 0 0 1 3 3v15zm33 0v-6a3 3 0 0 1 3-3h9a3 3 0 0 1 3 3v6zm-201 0v-81a3 3 0 0 1 3-3h9a3 3 0 0 1 3 3v81z"/><path fill="#ececec" d="M287.938 164v8h-.969v-8zm6.067 3.344-.828.234a1.5 1.5 0 0 0-.231-.402 1.1 1.1 0 0 0-.406-.328q-.258-.129-.66-.129-.55 0-.918.254-.363.25-.363.636 0 .345.25.543.25.2.781.332l.891.219q.804.196 1.199.598.394.398.394 1.027 0 .516-.297.922a1.97 1.97 0 0 1-.82.641q-.527.234-1.226.234-.918 0-1.52-.398-.601-.399-.762-1.165l.875-.218q.125.484.473.726.351.243.918.242.645 0 1.023-.273.383-.277.383-.664a.7.7 0 0 0-.219-.523q-.218-.215-.671-.321l-1-.234q-.825-.195-1.211-.606-.383-.414-.383-1.035 0-.507.285-.898.289-.391.785-.613a2.75 2.75 0 0 1 1.133-.223q.891 0 1.398.39.512.391.727 1.032m5.747 0-.828.234a1.5 1.5 0 0 0-.231-.402 1.1 1.1 0 0 0-.406-.328q-.258-.129-.66-.129-.55 0-.918.254-.363.25-.363.636 0 .345.25.543.25.2.781.332l.891.219q.804.196 1.199.598.394.398.394 1.027 0 .516-.297.922a1.97 1.97 0 0 1-.82.641q-.527.234-1.226.234-.918 0-1.52-.398-.602-.399-.762-1.165l.875-.218q.125.484.473.726.351.243.918.242.645 0 1.023-.273.384-.277.383-.664a.7.7 0 0 0-.219-.523q-.218-.215-.671-.321l-1-.234q-.825-.195-1.211-.606-.383-.414-.383-1.035 0-.507.285-.898.289-.391.785-.613a2.75 2.75 0 0 1 1.133-.223q.891 0 1.398.39.513.391.727 1.032m5.278 2.203V166h.922v6h-.922v-1.016h-.062a2 2 0 0 1-.656.778q-.446.316-1.125.316-.563 0-1-.246a1.73 1.73 0 0 1-.688-.75q-.25-.504-.25-1.27V166h.922v3.75q0 .656.367 1.047.371.39.945.39.345 0 .7-.175.359-.176.601-.539.246-.364.246-.926m5.126 2.578q-.867 0-1.496-.383a2.57 2.57 0 0 1-.965-1.078q-.336-.695-.336-1.617t.336-1.625q.34-.707.946-1.102.61-.398 1.421-.398.47 0 .926.156.457.157.832.508.376.348.598.922t.223 1.414v.39h-4.625v-.796h3.687q0-.508-.203-.907a1.54 1.54 0 0 0-.57-.629 1.6 1.6 0 0 0-.868-.23q-.55 0-.953.273a1.8 1.8 0 0 0-.613.704 2.1 2.1 0 0 0-.215.929v.532q0 .68.235 1.152.238.468.66.715.422.242.98.242.363 0 .657-.102.296-.105.511-.312.215-.211.332-.524l.891.25a2 2 0 0 1-.473.797 2.3 2.3 0 0 1-.82.531 3 3 0 0 1-1.098.188m8.137-4.781-.828.234a1.5 1.5 0 0 0-.231-.402 1.1 1.1 0 0 0-.406-.328q-.258-.129-.66-.129-.55 0-.918.254-.363.25-.363.636 0 .345.25.543.25.2.781.332l.891.219q.804.196 1.199.598.394.398.394 1.027 0 .516-.297.922a1.97 1.97 0 0 1-.82.641q-.527.234-1.226.234-.918 0-1.52-.398-.601-.399-.762-1.165l.875-.218q.125.484.473.726.351.243.918.242.645 0 1.023-.273.383-.277.383-.664a.7.7 0 0 0-.219-.523q-.218-.215-.671-.321l-1-.234q-.825-.195-1.211-.606-.383-.414-.383-1.035 0-.507.285-.898.289-.391.785-.613a2.75 2.75 0 0 1 1.133-.223q.891 0 1.398.39.513.391.727 1.032m8.841 0-.828.234a1.5 1.5 0 0 0-.231-.402 1.1 1.1 0 0 0-.406-.328q-.258-.129-.66-.129-.55 0-.918.254-.363.25-.363.636 0 .345.25.543.25.2.781.332l.89.219q.806.196 1.2.598.394.398.394 1.027 0 .516-.297.922a1.97 1.97 0 0 1-.82.641q-.527.234-1.227.234-.918 0-1.519-.398-.601-.399-.762-1.165l.875-.218q.125.484.473.726.351.243.918.242.644 0 1.023-.273.383-.277.383-.664a.7.7 0 0 0-.219-.523q-.219-.215-.672-.321l-1-.234q-.824-.195-1.211-.606-.382-.414-.382-1.035 0-.507.285-.898.289-.391.785-.613a2.75 2.75 0 0 1 1.133-.223q.891 0 1.398.39.512.391.727 1.032m3.934 4.781q-.812 0-1.425-.387a2.63 2.63 0 0 1-.954-1.082q-.339-.695-.339-1.625 0-.937.339-1.636.344-.7.954-1.086.613-.387 1.425-.387t1.422.387q.614.386.953 1.086.344.699.344 1.636 0 .93-.344 1.625a2.6 2.6 0 0 1-.953 1.082q-.609.387-1.422.387m0-.828q.617 0 1.016-.317a1.86 1.86 0 0 0 .59-.832q.19-.515.191-1.117 0-.601-.191-1.121a1.9 1.9 0 0 0-.59-.84q-.399-.32-1.016-.32t-1.015.32a1.9 1.9 0 0 0-.59.84q-.192.52-.192 1.121 0 .602.192 1.117.19.517.59.832.398.317 1.015.317m5.048-7.297v8h-.922v-8zm6.595 2-2.219 6h-.937l-2.219-6h1l1.656 4.781h.063l1.656-4.781zm3.518 6.125q-.868 0-1.497-.383a2.57 2.57 0 0 1-.964-1.078q-.336-.695-.336-1.617t.336-1.625q.339-.707.945-1.102.609-.398 1.422-.398.468 0 .926.156.456.157.832.508.375.348.597.922.223.574.223 1.414v.39h-4.625v-.796h3.687q0-.508-.203-.907a1.54 1.54 0 0 0-.57-.629 1.6 1.6 0 0 0-.867-.23q-.55 0-.953.273-.399.27-.614.704a2.1 2.1 0 0 0-.214.929v.532q0 .68.234 1.152.238.468.66.715.421.242.981.242.363 0 .656-.102.297-.105.511-.312.215-.211.333-.524l.89.25a2 2 0 0 1-.473.797 2.3 2.3 0 0 1-.82.531 3 3 0 0 1-1.097.188m6.152 0q-.75 0-1.324-.379a2.55 2.55 0 0 1-.899-1.078q-.324-.7-.324-1.652 0-.946.324-1.641a2.5 2.5 0 0 1 .903-1.074q.577-.38 1.335-.379.587 0 .926.195.344.192.524.438.183.242.285.398h.078V164h.922v8h-.891v-.922h-.109a6 6 0 0 1-.289.414 1.7 1.7 0 0 1-.535.442q-.348.19-.926.191m.125-.828q.555 0 .937-.289.384-.294.582-.809.2-.52.2-1.199 0-.672-.196-1.176a1.7 1.7 0 0 0-.578-.789q-.382-.285-.945-.285-.586 0-.977.301a1.8 1.8 0 0 0-.582.808 3.2 3.2 0 0 0-.191 1.141q0 .64.195 1.164.2.519.586.828.39.305.969.305"/></svg>