<svg xmlns="http://www.w3.org/2000/svg" width="256" height="256" viewBox="0 0 256 256" fill="none">
  <rect width="256" height="256" rx="60" fill="#1C1C1E"/>
  <g fill="#60a5fa" transform="translate(38, 34) scale(3)">
    <path d="M48,51.43l-5-2.855,0,5.418a1,1,0,0,0,.5.867L48,57.434Z"/>
    <path d="M29.508,17.279l-4.5,2.571L30,22.7l5-2.85L30.5,17.28A1,1,0,0,0,29.508,17.279Z"/>
    <path d="M17,53.993l0-5.417L12,51.43v6l4.5-2.569A1,1,0,0,0,17,53.993Z"/>
    <path d="M24,26.994a1,1,0,0,0,.5.867L29,30.435v-6l-5-2.855Z"/>
    <path d="M11,49.7l4.994-2.925L11.5,44.135a.979.979,0,0,0-.992,0l-4.5,2.638Z"/>
    <path d="M5.5,54.86,10,57.434v-6L5,48.575l0,5.418A1,1,0,0,0,5.5,54.86Z"/>
    <path d="M34.994,46.773,30.5,44.135a.979.979,0,0,0-.992,0l-4.5,2.638L30,49.7Z"/>
    <path d="M50,57.431l4.5-2.569a1,1,0,0,0,.5-.869l0-5.417L50,51.43Z"/>
    <path d="M53.994,46.773,49.5,44.135a.979.979,0,0,0-.992,0l-4.5,2.638L49,49.7Z"/>
    <path d="M19.874,12a.985.985,0,0,1-.484-.126,7.014,7.014,0,0,0-3.2-.87.323.323,0,0,1-.033.006A.95.95,0,0,0,16.032,11,7,7,0,1,0,16,25h6V20.428a2.016,2.016,0,0,1,1-1.734L29,15.26a2.062,2.062,0,0,1,1.977-.009L37,18.689a2.021,2.021,0,0,1,1,1.739V25h6a7,7,0,0,0,0-14,6.922,6.922,0,0,0-4.374,1.535,1,1,0,1,1-1.252-1.56,9.017,9.017,0,0,1,4.508-1.9,3.982,3.982,0,0,0-6.16-2.359c-.006,0-.014,0-.019.008A4.019,4.019,0,0,0,35.332,8.4a1,1,0,0,1-.917.6.973.973,0,0,1-.4-.084A1,1,0,0,1,33.5,7.6a6,6,0,0,1,1.282-1.852A9.971,9.971,0,0,0,17.436,9.123a8.972,8.972,0,0,1,2.924,1A1,1,0,0,1,19.874,12Z"/>
    <path d="M36,53.993l0-5.417L31,51.43v6l4.5-2.569A1,1,0,0,0,36,53.993Z"/>
    <path d="M35.5,27.863a1,1,0,0,0,.5-.869l0-5.417-5,2.854v6Z"/>
    <path d="M24,53.993a1,1,0,0,0,.5.867L29,57.434v-6l-5-2.855Z"/>
    <path d="M49.98,42.25l.02.01V39a3.009,3.009,0,0,0-3-3H31V32.74A2.13,2.13,0,0,1,30,33a1.985,1.985,0,0,1-.98-.25L29,32.74V36H13a3.009,3.009,0,0,0-3,3v3.26a2.076,2.076,0,0,1,1.98-.01l.02.01V39a1,1,0,0,1,1-1H29v4.26a2.076,2.076,0,0,1,1.98-.01l.02.01V38H47a1,1,0,0,1,1,1v3.26A2.076,2.076,0,0,1,49.98,42.25Z"/>
  </g>
</svg>