<svg width="930" height="383" viewBox="0 0 930 383" fill="none" xmlns="http://www.w3.org/2000/svg">
<g filter="url(#filter0_d_2056_353)">
<g clip-path="url(#clip0_2056_353)">
<path d="M34 43C34 34.1635 41.1634 27 50 27H857C865.837 27 873 34.1634 873 43V314C873 322.837 865.837 330 857 330H50C41.1634 330 34 322.837 34 314V43Z" fill="#14120B"/>
<mask id="path-2-inside-1_2056_353" fill="white">
<path d="M34 27H975V55H34V27Z"/>
</mask>
<path d="M975 55V54.2H34V55V55.8H975V55Z" fill="#EDECEC" fill-opacity="0.1" mask="url(#path-2-inside-1_2056_353)"/>
<path d="M42 40.6C42 37.8386 44.2386 35.6 47 35.6C49.7614 35.6 52 37.8386 52 40.6C52 43.3614 49.7614 45.6 47 45.6C44.2386 45.6 42 43.3614 42 40.6Z" fill="#EDECEC" fill-opacity="0.2"/>
<path d="M58 40.6C58 37.8386 60.2386 35.6 63 35.6C65.7614 35.6 68 37.8386 68 40.6C68 43.3614 65.7614 45.6 63 45.6C60.2386 45.6 58 43.3614 58 40.6Z" fill="#EDECEC" fill-opacity="0.2"/>
<path d="M74 40.6C74 37.8386 76.2386 35.6 79 35.6C81.7614 35.6 84 37.8386 84 40.6C84 43.3614 81.7614 45.6 79 45.6C76.2386 45.6 74 43.3614 74 40.6Z" fill="#EDECEC" fill-opacity="0.2"/>
<path d="M104.39 44.6V35.8727H107.586C108.205 35.8727 108.718 35.975 109.124 36.1795C109.531 36.3812 109.835 36.6554 110.036 37.002C110.238 37.3457 110.339 37.7335 110.339 38.1653C110.339 38.529 110.272 38.8358 110.139 39.0858C110.005 39.3329 109.826 39.5318 109.602 39.6824C109.38 39.8301 109.136 39.938 108.869 40.0062V40.0915C109.158 40.1057 109.441 40.1994 109.717 40.3727C109.995 40.5432 110.225 40.7861 110.407 41.1014C110.589 41.4167 110.68 41.8003 110.68 42.252C110.68 42.698 110.575 43.0986 110.364 43.4537C110.157 43.8059 109.836 44.0858 109.401 44.2932C108.967 44.4977 108.411 44.6 107.735 44.6H104.39ZM105.707 43.4707H107.607C108.238 43.4707 108.69 43.3486 108.962 43.1042C109.235 42.8599 109.371 42.5545 109.371 42.188C109.371 41.9125 109.302 41.6596 109.163 41.4295C109.023 41.1994 108.825 41.0162 108.566 40.8798C108.31 40.7434 108.006 40.6753 107.654 40.6753H105.707V43.4707ZM105.707 39.6483H107.471C107.766 39.6483 108.032 39.5915 108.268 39.4778C108.506 39.3642 108.695 39.2051 108.835 39.0005C108.977 38.7932 109.048 38.5488 109.048 38.2676C109.048 37.9068 108.921 37.6042 108.668 37.3599C108.416 37.1156 108.028 36.9934 107.505 36.9934H105.707V39.6483ZM114.044 44.7449C113.629 44.7449 113.254 44.6682 112.919 44.5147C112.584 44.3585 112.318 44.1326 112.122 43.8372C111.929 43.5417 111.832 43.1795 111.832 42.7505C111.832 42.3812 111.903 42.0772 112.045 41.8386C112.188 41.6 112.379 41.4111 112.621 41.2719C112.862 41.1326 113.132 41.0275 113.43 40.9565C113.729 40.8855 114.033 40.8315 114.342 40.7946C114.734 40.7491 115.053 40.7122 115.297 40.6838C115.541 40.6525 115.719 40.6028 115.83 40.5346C115.94 40.4665 115.996 40.3557 115.996 40.2022V40.1724C115.996 39.8003 115.891 39.5119 115.68 39.3074C115.473 39.1028 115.163 39.0005 114.751 39.0005C114.322 39.0005 113.984 39.0957 113.737 39.2861C113.493 39.4736 113.324 39.6824 113.23 39.9125L112.033 39.6397C112.175 39.242 112.382 38.921 112.655 38.6767C112.93 38.4295 113.247 38.2505 113.605 38.1397C113.963 38.0261 114.34 37.9693 114.734 37.9693C114.996 37.9693 115.273 38.0005 115.565 38.063C115.861 38.1227 116.136 38.2335 116.392 38.3954C116.651 38.5574 116.862 38.7889 117.027 39.09C117.192 39.3883 117.274 39.7761 117.274 40.2534V44.6H116.03V43.7051H115.979C115.896 43.8699 115.773 44.0318 115.608 44.1909C115.443 44.35 115.232 44.4821 114.973 44.5872C114.715 44.6923 114.405 44.7449 114.044 44.7449ZM114.321 43.7221C114.673 43.7221 114.974 43.6525 115.224 43.5133C115.477 43.3741 115.669 43.1923 115.8 42.9679C115.933 42.7406 116 42.4977 116 42.2392V41.3954C115.955 41.4409 115.867 41.4835 115.736 41.5233C115.608 41.5602 115.462 41.5929 115.297 41.6213C115.132 41.6469 114.972 41.671 114.815 41.6937C114.659 41.7136 114.528 41.7307 114.423 41.7449C114.176 41.7761 113.95 41.8287 113.746 41.9025C113.544 41.9764 113.382 42.0829 113.26 42.2221C113.141 42.3585 113.081 42.5403 113.081 42.7676C113.081 43.0829 113.197 43.3216 113.43 43.4835C113.663 43.6426 113.96 43.7221 114.321 43.7221ZM123.876 39.6525L122.721 39.8571C122.673 39.7094 122.596 39.5687 122.491 39.4352C122.389 39.3017 122.25 39.1923 122.074 39.1071C121.897 39.0219 121.677 38.9792 121.413 38.9792C121.052 38.9792 120.751 39.0602 120.51 39.2221C120.268 39.3812 120.147 39.5872 120.147 39.84C120.147 40.0588 120.228 40.2349 120.39 40.3684C120.552 40.502 120.814 40.6113 121.174 40.6966L122.214 40.9352C122.816 41.0744 123.265 41.2889 123.561 41.5787C123.856 41.8684 124.004 42.2449 124.004 42.7079C124.004 43.1 123.89 43.4494 123.663 43.7562C123.439 44.0602 123.125 44.2988 122.721 44.4721C122.321 44.6454 121.856 44.7321 121.328 44.7321C120.595 44.7321 119.997 44.5758 119.534 44.2633C119.071 43.948 118.787 43.5005 118.682 42.921L119.913 42.7335C119.99 43.0545 120.147 43.2974 120.386 43.4622C120.625 43.6241 120.936 43.7051 121.319 43.7051C121.737 43.7051 122.071 43.6184 122.321 43.4451C122.571 43.269 122.696 43.0545 122.696 42.8017C122.696 42.5971 122.619 42.4253 122.466 42.2861C122.315 42.1469 122.083 42.0417 121.771 41.9707L120.663 41.7278C120.052 41.5886 119.601 41.367 119.308 41.063C119.018 40.7591 118.873 40.3741 118.873 39.9082C118.873 39.5219 118.981 39.1838 119.197 38.894C119.413 38.6042 119.711 38.3784 120.092 38.2165C120.473 38.0517 120.909 37.9693 121.4 37.9693C122.108 37.9693 122.664 38.1227 123.071 38.4295C123.477 38.7335 123.745 39.1412 123.876 39.6525ZM128.46 38.0545V39.0772H124.885V38.0545H128.46ZM125.844 36.4863H127.118V42.6781C127.118 42.9253 127.155 43.1113 127.229 43.2363C127.303 43.3585 127.398 43.4423 127.514 43.4878C127.634 43.5304 127.763 43.5517 127.902 43.5517C128.004 43.5517 128.094 43.5446 128.17 43.5304C128.247 43.5162 128.307 43.5048 128.349 43.4963L128.58 44.5488C128.506 44.5772 128.401 44.6057 128.264 44.6341C128.128 44.6653 127.957 44.6824 127.753 44.6852C127.418 44.6909 127.105 44.6312 126.815 44.5062C126.526 44.3812 126.291 44.188 126.112 43.9267C125.933 43.6653 125.844 43.3372 125.844 42.9423V36.4863ZM129.87 44.6V38.0545H131.144V44.6H129.87ZM130.513 37.0446C130.292 37.0446 130.101 36.9707 129.942 36.823C129.786 36.6724 129.708 36.4934 129.708 36.2861C129.708 36.0758 129.786 35.8969 129.942 35.7491C130.101 35.5986 130.292 35.5233 130.513 35.5233C130.735 35.5233 130.924 35.5986 131.08 35.7491C131.239 35.8969 131.319 36.0758 131.319 36.2861C131.319 36.4934 131.239 36.6724 131.08 36.823C130.924 36.9707 130.735 37.0446 130.513 37.0446ZM135.615 44.7321C135.001 44.7321 134.466 44.5915 134.009 44.3102C133.551 44.029 133.196 43.6355 132.943 43.1298C132.69 42.6241 132.564 42.0332 132.564 41.3571C132.564 40.6781 132.69 40.0844 132.943 39.5758C133.196 39.0673 133.551 38.6724 134.009 38.3912C134.466 38.1099 135.001 37.9693 135.615 37.9693C136.229 37.9693 136.764 38.1099 137.222 38.3912C137.679 38.6724 138.034 39.0673 138.287 39.5758C138.54 40.0844 138.666 40.6781 138.666 41.3571C138.666 42.0332 138.54 42.6241 138.287 43.1298C138.034 43.6355 137.679 44.029 137.222 44.3102C136.764 44.5915 136.229 44.7321 135.615 44.7321ZM135.619 43.6625C136.017 43.6625 136.347 43.5574 136.608 43.3471C136.869 43.1369 137.063 42.8571 137.188 42.5076C137.315 42.1582 137.379 41.7733 137.379 41.3528C137.379 40.9352 137.315 40.5517 137.188 40.2022C137.063 39.85 136.869 39.5673 136.608 39.3542C136.347 39.1412 136.017 39.0346 135.619 39.0346C135.219 39.0346 134.886 39.1412 134.622 39.3542C134.361 39.5673 134.166 39.85 134.038 40.2022C133.913 40.5517 133.851 40.9352 133.851 41.3528C133.851 41.7733 133.913 42.1582 134.038 42.5076C134.166 42.8571 134.361 43.1369 134.622 43.3471C134.886 43.5574 135.219 43.6625 135.619 43.6625ZM141.363 40.7136V44.6H140.088V38.0545H141.311V39.1199H141.392C141.543 38.7733 141.779 38.4949 142.1 38.2846C142.424 38.0744 142.831 37.9693 143.323 37.9693C143.769 37.9693 144.159 38.063 144.495 38.2505C144.83 38.4352 145.09 38.7108 145.275 39.0772C145.459 39.4437 145.552 39.8969 145.552 40.4366V44.6H144.277V40.59C144.277 40.1156 144.154 39.7449 143.907 39.4778C143.659 39.2079 143.32 39.073 142.888 39.073C142.593 39.073 142.33 39.1369 142.1 39.2647C141.873 39.3926 141.692 39.5801 141.559 39.8272C141.428 40.0716 141.363 40.367 141.363 40.7136Z" fill="#EDECEC" fill-opacity="0.61"/>
</g>
</g>
<defs>
<filter id="filter0_d_2056_353" x="-30" y="-13" width="967" height="431" filterUnits="userSpaceOnUse" color-interpolation-filters="sRGB">
<feFlood flood-opacity="0" result="BackgroundImageFix"/>
<feColorMatrix in="SourceAlpha" type="matrix" values="0 0 0 0 0 0 0 0 0 0 0 0 0 0 0 0 0 0 127 0" result="hardAlpha"/>
<feOffset dy="24"/>
<feGaussianBlur stdDeviation="32"/>
<feComposite in2="hardAlpha" operator="out"/>
<feColorMatrix type="matrix" values="0 0 0 0 0 0 0 0 0 0 0 0 0 0 0 0 0 0 0.45 0"/>
<feBlend mode="normal" in2="BackgroundImageFix" result="effect1_dropShadow_2056_353"/>
<feBlend mode="normal" in="SourceGraphic" in2="effect1_dropShadow_2056_353" result="shape"/>
</filter>
<clipPath id="clip0_2056_353">
<path d="M34 43C34 34.1635 41.1634 27 50 27H857C865.837 27 873 34.1634 873 43V314C873 322.837 865.837 330 857 330H50C41.1634 330 34 322.837 34 314V43Z" fill="white"/>
</clipPath>
</defs>
</svg>
