<svg xmlns="http://www.w3.org/2000/svg" width="256" height="256" viewBox="0 0 256 256" fill="none">
  <rect width="256" height="256" rx="60" fill="#1C1C1E"/>
  <g fill="#60a5fa" transform="translate(41, 38) scale(3.6)">
    <path d="M35.59395,11.6414V7.9142c0-0.8909-1.0772-1.3371-1.70709-0.7071l-6.58591,6.5858c-0.3905,0.3905-0.3905,1.0236,0,1.4142l6.58591,6.5858c0.62989,0.63,1.70709,0.1838,1.70709-0.7071V17.368c4.1673,0.051,7.5423,3.4527,7.5423,7.6319c0,4.211-3.4253,7.6368-7.6362,7.6368c-4.211,0-7.6363-3.4258-7.6363-7.6368c0-7.3691-5.9951-13.3632-13.3637-13.3632c-7.3687,0-13.3638,5.9941-13.3638,13.3632c0,7.3165,5.9114,13.2705,13.2077,13.3554v3.7305c0,0.8909,1.0771,1.3371,1.707,0.7071l6.58591-6.5858c0.39049-0.3906,0.39049-1.0237,0-1.4142l-6.58591-6.5858c-0.6299-0.63-1.707-0.1838-1.707,0.7071v3.7145c-4.1385-0.0842-7.4802-3.4705-7.4802-7.6288c0-4.2109,3.4253-7.6367,7.6363-7.6367c4.2109,0,7.6362,3.4258,7.6362,7.6367c0,7.3692,5.9951,13.3633,13.3638,13.3633c7.3686,0,13.3637-5.9941,13.3637-13.3633C48.86375,17.6625,42.91905,11.6926,35.59395,11.6414z"/>
  </g>
</svg>