<svg width="52" height="44" viewBox="0 0 52 44" fill="none" xmlns="http://www.w3.org/2000/svg">
<g clip-path="url(#clip0_64_226)">
<path d="M36.4141 27L39.0625 22.3281L41.7344 27H44.2891L40.5469 21L44.3203 15H41.7656L39.0625 19.4844L36.3672 15H33.8047L37.5391 21L33.8516 27H36.4141ZM46.5775 15V27H48.8353V25.0938H48.9603C49.1791 25.7396 49.5645 26.2474 50.1166 26.6172C50.6739 26.9922 51.3041 27.1797 52.0072 27.1797C52.153 27.1797 52.3249 27.1745 52.5228 27.1641C52.7259 27.1536 52.8848 27.1406 52.9994 27.125V24.8906C52.9056 24.9167 52.739 24.9453 52.4994 24.9766C52.2598 25.013 52.0202 25.0313 51.7806 25.0313C51.2285 25.0313 50.7364 24.9141 50.3041 24.6797C49.877 24.4505 49.5384 24.1302 49.2884 23.7188C49.0384 23.3125 48.9134 22.849 48.9134 22.3281V15H46.5775Z" fill="#F3EFE8"/>
</g>
<g clip-path="url(#clip1_64_226)">
<path d="M3.90625 19.875V27H1.57031V15H3.8125V16.9531H3.96094C4.23698 16.3177 4.66927 15.8073 5.25781 15.4219C5.85156 15.0365 6.59896 14.8438 7.5 14.8438C8.31771 14.8438 9.03385 15.0156 9.64844 15.3594C10.263 15.6979 10.7396 16.2031 11.0781 16.875C11.4167 17.5469 11.5859 18.3776 11.5859 19.3672V27H9.25V19.6484C9.25 18.7786 9.02344 18.099 8.57031 17.6094C8.11719 17.1146 7.49479 16.8672 6.70312 16.8672C6.16146 16.8672 5.67969 16.9844 5.25781 17.2187C4.84115 17.4531 4.51042 17.7969 4.26563 18.25C4.02604 18.6979 3.90625 19.2396 3.90625 19.875ZM14.6088 27V15H16.9447V27H14.6088ZM15.7884 13.1484C15.3822 13.1484 15.0332 13.013 14.7416 12.7422C14.4551 12.4661 14.3119 12.138 14.3119 11.7578C14.3119 11.3724 14.4551 11.0443 14.7416 10.7734C15.0332 10.4974 15.3822 10.3594 15.7884 10.3594C16.1947 10.3594 16.541 10.4974 16.8275 10.7734C17.1192 11.0443 17.265 11.3724 17.265 11.7578C17.265 12.138 17.1192 12.4661 16.8275 12.7422C16.541 13.013 16.1947 13.1484 15.7884 13.1484ZM19.9773 27V15H22.2351V16.9062H22.3601C22.5788 16.2604 22.9642 15.7526 23.5163 15.3828C24.0736 15.0078 24.7038 14.8203 25.407 14.8203C25.5528 14.8203 25.7247 14.8255 25.9226 14.8359C26.1257 14.8464 26.2846 14.8594 26.3991 14.875V17.1094C26.3054 17.0833 26.1387 17.0547 25.8991 17.0234C25.6596 16.987 25.42 16.9687 25.1804 16.9687C24.6283 16.9687 24.1361 17.0859 23.7038 17.3203C23.2767 17.5495 22.9382 17.8698 22.6882 18.2812C22.4382 18.6875 22.3132 19.151 22.3132 19.6719V27H19.9773Z" fill="#F3EFE8"/>
</g>
<path d="M30.4297 29H28.0937V16.2188C28.0937 15.4167 28.2396 14.7396 28.5313 14.1875C28.8177 13.6354 29.2448 13.2161 29.8125 12.9297C30.375 12.6432 31.0703 12.5 31.8984 12.5C31.9818 12.5 32.0599 12.5 32.1328 12.5C32.2109 12.5 32.2917 12.5026 32.375 12.5078V14.5156C32.3021 14.5156 32.237 14.5156 32.1797 14.5156C32.1276 14.5156 32.0677 14.5156 32 14.5156C31.4479 14.5156 31.0495 14.6641 30.8047 14.9609C30.5547 15.2526 30.4297 15.6771 30.4297 16.2344V29ZM29.2734 30.8516C29.6797 30.8516 30.0286 30.987 30.3203 31.2578C30.6068 31.5339 30.75 31.862 30.75 32.2422C30.75 32.6276 30.6068 32.9557 30.3203 33.2266C30.0286 33.5026 29.6797 33.6406 29.2734 33.6406C28.8672 33.6406 28.5208 33.5026 28.2344 33.2266C27.9427 32.9557 27.7969 32.6276 27.7969 32.2422C27.7969 31.862 27.9427 31.5339 28.2344 31.2578C28.5208 30.987 28.8672 30.8516 29.2734 30.8516Z" fill="#F3EFE8"/>
<defs>
<clipPath id="clip0_64_226">
<rect width="20" height="24" fill="white" transform="translate(32 4)"/>
</clipPath>
<clipPath id="clip1_64_226">
<rect width="26" height="36" fill="white"/>
</clipPath>
</defs>
</svg>
