<svg xmlns="http://www.w3.org/2000/svg" xmlns:xlink="http://www.w3.org/1999/xlink" version="1.1" x="0px" y="0px" viewBox="0 0 100 100" style="enable-background:new 0 0 100 100;" xml:space="preserve"><g><path d="M91.1,26.2C91,23.6,91,21.1,91,18.7c0-1.9-1.5-3.4-3.4-3.4C72.9,15.2,61.7,11,52.4,2c-1.3-1.3-3.5-1.3-4.8,0   C38.3,11,27.1,15.2,12.5,15.2c-1.9,0-3.4,1.5-3.4,3.4c0,2.4,0,4.9-0.1,7.6C8.5,50.9,7.8,84.6,48.9,98.8c0.4,0.1,0.7,0.2,1.1,0.2   c0.4,0,0.8-0.1,1.1-0.2C92.2,84.6,91.5,50.9,91.1,26.2z M50,91.9C14.8,79.1,15.3,51.1,15.8,26.4c0-1.5,0.1-2.9,0.1-4.3   C29.6,21.4,40.6,17.3,50,9.1c9.4,8.2,20.4,12.4,34.1,12.9c0,1.4,0,2.8,0.1,4.3C84.7,51.1,85.2,79.1,50,91.9z"/><path d="M61.8,38.1L45.3,54.6l-7.1-7.1c-1.3-1.3-3.5-1.3-4.9,0c-1.3,1.3-1.3,3.5,0,4.9l9.5,9.5c0.7,0.7,1.5,1,2.4,1   c0.9,0,1.8-0.3,2.4-1l19-19c1.3-1.3,1.3-3.5,0-4.9C65.3,36.7,63.1,36.7,61.8,38.1z"/></g></svg>