<svg xmlns="http://www.w3.org/2000/svg" version="1.1" viewBox="-5.0 -10.0 110.0 135.0">
 <path d="m15.992 57.32c0.054687 1.5273-0.94531 2.9453-2.4844 3.3594l-1.6133 0.42969c-1.7852 0.48047-3.625-0.58203-4.1016-2.3672l-2.293-8.5508c-0.47656-1.7852 0.58203-3.625 2.3711-4.1016l1.6133-0.43359c1.5391-0.41016 3.1133 0.31641 3.8281 1.668l7.3555-2.2109-0.10938-0.40234c-0.1875-0.69922 0.19531-1.4258 0.87891-1.668l17.664-6.2227-0.12109-0.44922c-0.1875-0.71094 0.20703-1.4453 0.90625-1.6758l25.145-8.2539c0.33984-2.2109 1.9414-4.1211 4.2383-4.7383l2.9688-0.79297c1.0195-0.27344 2.1094-0.13281 3.0234 0.39453 0.47266 0.27734 0.88281 0.64453 1.2031 1.0742l0.12109-0.03125 0.035156 0.25781c0.007812 0.011719 0.015625 0.023437 0.023437 0.035156l-0.039062-0.30078 1.0117-0.26562c1.1289-0.30469 2.332-0.14844 3.3438 0.4375 1.0117 0.58594 1.75 1.5469 2.0547 2.6758l4.4062 16.453c0.30469 1.1289 0.14453 2.332-0.44141 3.3438-0.58203 1.0117-1.5469 1.75-2.6758 2.0547-0.30469 0.082032-0.83594 0.19922-1.1445 0.26953-0.003906 0.007812-0.003906 0.015625-0.003906 0.023437l0.11719-0.015625-0.12109 0.03125c-0.058594 0.53516-0.23047 1.0547-0.50391 1.5312-0.52734 0.91406-1.3984 1.582-2.418 1.8516l-2.9688 0.79688c-2.2969 0.61719-4.6406-0.23438-6.0391-1.9805l-25.902 5.4219c-0.71875 0.15234-1.4336-0.28906-1.6211-0.99609l-0.12109-0.44922-1.3203 0.24609c0.015626 0.17578 0.019532 0.35547 0.019532 0.53906 0 2.9531-1.75 5.4961-4.2656 6.6562l9.8203 26.238c0.26953 0.71484-0.09375 1.5156-0.80859 1.7812-0.71875 0.26953-1.5156-0.09375-1.7852-0.80859l-8.5234-22.773 1.4102 23.586c0.046875 0.76562-0.53516 1.4219-1.2969 1.4648-0.76172 0.046875-1.4219-0.53516-1.4648-1.2969l-1.5391-25.723-9.25 23.969c-0.27734 0.71484-1.0781 1.0703-1.7891 0.79297-0.71484-0.27344-1.0703-1.0742-0.79297-1.7891l9.8281-25.477c-1.8477-0.875-3.2695-2.5039-3.875-4.4844l-2.7773 0.51953c-0.71094 0.13281-1.4062-0.30469-1.5938-1.0039l-0.10938-0.40234zm-2.7891-0.027343-2.2891-8.5508c-0.085937-0.30859-0.40234-0.49609-0.71094-0.41016l-1.6172 0.43359c-0.30859 0.082031-0.49219 0.39844-0.41016 0.71094l2.293 8.5508c0.082031 0.30859 0.40234 0.49219 0.71094 0.41016l1.6133-0.43359c0.30859-0.082031 0.49219-0.40234 0.41016-0.71094zm8.1836-9.5039-7.2773 2.1836 1.2461 4.6523 7.3945-1.7461zm18.434-8.2852-16.254 5.7266 2.3516 8.7773 16.941-3.168zm25.465-10.234-23.289 7.6484 4.0391 15.07 23.992-5.0195zm12.16-4.3125 5.2617 19.645 0.87891-0.23828c0.42187-0.11328 0.78125-0.38672 0.99609-0.76172 0.21875-0.37891 0.27734-0.82812 0.16406-1.2461l-4.4062-16.449c-0.11328-0.42188-0.38672-0.77734-0.76562-0.99609-0.375-0.21484-0.82422-0.27734-1.2422-0.16406-0.23047 0.0625-0.59375 0.14453-0.88672 0.21094zm-37.938 29.324-8.8125 1.6484c0.65234 1.7148 2.3164 2.9336 4.2578 2.9336 2.5156 0 4.5547-2.0391 4.5547-4.5547v-0.027344zm33.449-30.695-2.9688 0.79297c-1.6211 0.43359-2.582 2.0977-2.1484 3.7227l4.9844 18.605c0.4375 1.6172 2.1016 2.582 3.7188 2.1484l2.9727-0.79688c0.30859-0.082032 0.57422-0.28516 0.73438-0.56641 0.16016-0.27734 0.20312-0.60547 0.12109-0.91797l-5.9336-22.133c-0.082031-0.3125-0.28516-0.57422-0.5625-0.73828-0.27734-0.16016-0.60938-0.20312-0.91797-0.11719zm13.543 29.281 0.93359 2.8711h3.0195c0.59766 0 1.1289 0.38672 1.3164 0.95703 0.18359 0.57031-0.019531 1.1953-0.50391 1.5469l-2.4414 1.7734 0.93359 2.8711c0.18359 0.57031-0.019531 1.1953-0.50391 1.5469-0.48438 0.35547-1.1445 0.35547-1.6289 0l-2.4414-1.7734-2.4414 1.7734c-0.48438 0.35547-1.1406 0.35547-1.625 0-0.48828-0.35156-0.69141-0.97656-0.50391-1.5469l0.92969-2.8711-2.4414-1.7734c-0.48437-0.35156-0.6875-0.97656-0.5-1.5469 0.18359-0.57031 0.71484-0.95703 1.3164-0.95703h3.0156l0.93359-2.8711c0.18359-0.57031 0.71875-0.95703 1.3164-0.95703 0.60156 0 1.1328 0.38672 1.3164 0.95703zm-2.3633 5.625c0.32812 0.32031 0.48047 0.78125 0.39844 1.2344 0.40625-0.21484 0.89062-0.21484 1.2969 0-0.078125-0.45312 0.070313-0.91406 0.39844-1.2344-0.44922-0.066407-0.84375-0.34766-1.0469-0.76172-0.19922 0.41406-0.59375 0.69531-1.0469 0.76172zm-17.395-0.61719 0.93359 2.8711h3.0156c0.60156 0 1.1328 0.38672 1.3164 0.95703 0.1875 0.57031-0.015624 1.1953-0.5 1.5508l-2.4414 1.7734 0.92969 2.8711c0.1875 0.57031-0.015625 1.1953-0.50391 1.5469-0.48438 0.35156-1.1406 0.35156-1.625 0l-2.4414-1.7734-2.4414 1.7734c-0.48438 0.35156-1.1445 0.35156-1.6289 0-0.48438-0.35156-0.6875-0.97656-0.50391-1.5469l0.93359-2.8711-2.4414-1.7734c-0.48438-0.35547-0.6875-0.98047-0.50391-1.5508 0.1875-0.57031 0.71875-0.95703 1.3164-0.95703h3.0195l0.93359-2.8711c0.18359-0.57031 0.71484-0.95312 1.3164-0.95312 0.59766 0 1.1328 0.38281 1.3164 0.95312zm-2.3672 5.6289c0.33203 0.31641 0.48047 0.78125 0.40234 1.2305 0.40234-0.21094 0.89062-0.21094 1.2969 0-0.082031-0.44922 0.070312-0.91406 0.39844-1.2305-0.45312-0.066406-0.84766-0.35156-1.0469-0.76172-0.20312 0.41016-0.59766 0.69531-1.0508 0.76172zm10.32-57.988 0.93359 2.8711h3.0156c0.60156 0 1.1328 0.38672 1.3164 0.95703 0.1875 0.57031-0.015626 1.1953-0.50391 1.5469l-2.4414 1.7734 0.93359 2.8711c0.1875 0.57031-0.015625 1.1953-0.5 1.5469-0.48828 0.35156-1.1445 0.35156-1.6289 0l-2.4453-1.7734-2.4414 1.7734c-0.48438 0.35156-1.1406 0.35156-1.625 0-0.48438-0.35156-0.6875-0.97656-0.50391-1.5469l0.93359-2.8711-2.4414-1.7734c-0.48438-0.35156-0.6875-0.97656-0.50391-1.5469 0.18359-0.57031 0.71484-0.95703 1.3164-0.95703h3.0195l0.92969-2.8711c0.1875-0.57031 0.71875-0.95703 1.3164-0.95703 0.60156 0 1.1328 0.38672 1.3203 0.95703zm-2.3672 5.625c0.33203 0.32031 0.48047 0.78125 0.40234 1.2344 0.40234-0.21484 0.89062-0.21484 1.2969 0-0.082032-0.45312 0.070312-0.91406 0.39844-1.2344-0.45312-0.0625-0.84766-0.35156-1.0508-0.76172-0.19922 0.41016-0.59375 0.69922-1.0469 0.76172zm-15.277 60.344 0.92969 2.8711h3.0195c0.60156 0 1.1289 0.38672 1.3164 0.95703 0.18359 0.57031-0.019531 1.1953-0.50391 1.5508l-2.4414 1.7734 0.93359 2.8711c0.18359 0.56641-0.019532 1.1953-0.50391 1.5469-0.48438 0.35156-1.1406 0.35156-1.625 0l-2.4453-1.7734-2.4414 1.7734c-0.48437 0.35156-1.1406 0.35156-1.6289 0-0.48438-0.35156-0.6875-0.98047-0.5-1.5469l0.93359-2.8711-2.4414-1.7734c-0.48828-0.35547-0.69141-0.98047-0.50391-1.5508 0.18359-0.57031 0.71484-0.95703 1.3164-0.95703h3.0156l0.93359-2.8711c0.1875-0.57031 0.71875-0.95703 1.3164-0.95703 0.60156 0 1.1328 0.38672 1.3203 0.95703zm-2.3672 5.6289c0.32812 0.31641 0.48047 0.77734 0.39844 1.2305 0.40625-0.21484 0.89453-0.21484 1.2969 0-0.078125-0.45312 0.070313-0.91406 0.40234-1.2305-0.45703-0.066406-0.84766-0.35156-1.0508-0.76562-0.19922 0.41406-0.59375 0.69922-1.0469 0.76562zm-14.965-57.871 0.93359 2.8711h3.0195c0.59766 0 1.1328 0.38672 1.3164 0.95703 0.1875 0.57031-0.015625 1.1953-0.50391 1.5469l-2.4414 1.7734 0.93359 2.8711c0.18359 0.57031-0.019531 1.1953-0.50391 1.5508-0.48438 0.35156-1.1406 0.35156-1.6289 0l-2.4414-1.7773-2.4414 1.7773c-0.48438 0.35156-1.1406 0.35156-1.6289 0-0.48438-0.35547-0.6875-0.98047-0.5-1.5508l0.92969-2.8711-2.4414-1.7734c-0.48437-0.35156-0.6875-0.97656-0.5-1.5469 0.18359-0.57031 0.71484-0.95703 1.3164-0.95703h3.0156l0.93359-2.8711c0.1875-0.57031 0.71875-0.95703 1.3164-0.95703 0.60156 0 1.1328 0.38672 1.3164 0.95703zm-2.3633 5.6289c0.32812 0.31641 0.47656 0.78125 0.39844 1.2305 0.40625-0.21484 0.89062-0.21484 1.2969 0-0.078125-0.44922 0.074219-0.91406 0.40234-1.2305-0.45312-0.066406-0.84766-0.35156-1.0508-0.76172-0.19922 0.41016-0.59375 0.69531-1.0469 0.76172zm-11.473-21.273 0.93359 2.8711h3.0156c0.60156 0 1.1328 0.38672 1.3203 0.95312 0.18359 0.57031-0.019532 1.1992-0.50391 1.5508l-2.4414 1.7734 0.92969 2.8711c0.1875 0.57031-0.015625 1.1953-0.5 1.5469-0.48438 0.35156-1.1445 0.35156-1.6289 0l-2.4414-1.7734-2.4414 1.7734c-0.48828 0.35156-1.1445 0.35156-1.6289 0-0.48438-0.35156-0.6875-0.97656-0.50391-1.5469l0.93359-2.8711-2.4414-1.7734c-0.48438-0.35156-0.6875-0.98047-0.50391-1.5508 0.1875-0.56641 0.71875-0.95312 1.3164-0.95312h3.0195l0.93359-2.8711c0.18359-0.57031 0.71484-0.95703 1.3164-0.95703 0.60156 0 1.1289 0.38672 1.3164 0.95703zm-2.3672 5.625c0.33203 0.32031 0.48047 0.78125 0.40234 1.2344 0.40625-0.21875 0.89062-0.21875 1.2969 0-0.078125-0.45312 0.070312-0.91406 0.39844-1.2344-0.45312-0.0625-0.84375-0.35156-1.0469-0.76172-0.20312 0.41016-0.59375 0.69922-1.0508 0.76172zm-12.848 9.2344 0.93359 2.8711h3.0156c0.60156 0 1.1328 0.38672 1.3164 0.95703 0.1875 0.57031-0.015625 1.1953-0.5 1.5469l-2.4414 1.7734 0.92969 2.8711c0.1875 0.57031-0.015625 1.1953-0.5 1.5469-0.48828 0.35156-1.1445 0.35156-1.6289 0l-2.4414-1.7734-2.4414 1.7734c-0.48438 0.35156-1.1445 0.35156-1.6289 0-0.48438-0.35156-0.6875-0.97656-0.50391-1.5469l0.93359-2.8711-2.4414-1.7734c-0.48438-0.35156-0.6875-0.97656-0.50391-1.5469 0.1875-0.57031 0.71875-0.95703 1.3164-0.95703h3.0195l0.93359-2.8711c0.18359-0.57031 0.71484-0.95703 1.3164-0.95703 0.59766 0 1.1328 0.38672 1.3164 0.95703zm-2.3633 5.625c0.32812 0.32031 0.47656 0.78125 0.39844 1.2344 0.40625-0.21484 0.89062-0.21484 1.2969 0-0.078125-0.45312 0.070312-0.91406 0.39844-1.2344-0.45313-0.0625-0.84766-0.35156-1.0469-0.76172-0.20312 0.41016-0.59375 0.69922-1.0469 0.76172zm46.492-11.422c2.2148 0 4.0156 1.7969 4.0156 4.0117s-1.8008 4.0117-4.0156 4.0117c-2.2109 0-4.0117-1.7969-4.0117-4.0117s1.8008-4.0117 4.0117-4.0117zm0 2.7695c-0.68359 0-1.2422 0.55469-1.2422 1.2422s0.55859 1.2422 1.2422 1.2422c0.6875 0 1.2461-0.55469 1.2461-1.2422s-0.55859-1.2422-1.2461-1.2422zm-35.5 16.219c2.2148 0 4.0156 1.7969 4.0156 4.0117s-1.8008 4.0117-4.0156 4.0117-4.0117-1.7969-4.0117-4.0117 1.7969-4.0117 4.0117-4.0117zm0 2.7695c-0.68359 0-1.2422 0.55469-1.2422 1.2422s0.55859 1.2422 1.2422 1.2422c0.6875 0 1.2461-0.55469 1.2461-1.2422s-0.55859-1.2422-1.2461-1.2422zm0.61328 31.535c2.2148 0 4.0117 1.7969 4.0117 4.0117s-1.7969 4.0117-4.0117 4.0117-4.0117-1.7969-4.0117-4.0117 1.7969-4.0117 4.0117-4.0117zm0 2.7695c-0.6875 0-1.2422 0.55859-1.2422 1.2422 0 0.6875 0.55469 1.2422 1.2422 1.2422 0.68359 0 1.2422-0.55469 1.2422-1.2422 0-0.68359-0.55859-1.2422-1.2422-1.2422zm43.445 15.355c2.2188 0 4.0156 1.7969 4.0156 4.0117s-1.7969 4.0117-4.0156 4.0117c-2.2109 0-4.0078-1.7969-4.0078-4.0117s1.7969-4.0117 4.0078-4.0117zm0 2.7695c-0.68359 0-1.2383 0.55859-1.2383 1.2422 0 0.6875 0.55469 1.2422 1.2383 1.2422 0.6875 0 1.2461-0.55469 1.2461-1.2422 0-0.68359-0.55859-1.2422-1.2461-1.2422zm0.35547-6.6133c-0.69531-0.3125-1.0078-1.1328-0.69922-1.8281 0.3125-0.69922 1.1328-1.0117 1.8281-0.69922l17.293 7.7344c0.69922 0.3125 1.0117 1.1328 0.69922 1.8281-0.30859 0.69922-1.1289 1.0117-1.8281 0.69922zm-45.344-55.016c-0.73047-0.23047-1.1406-1.0078-0.91406-1.7344 0.22656-0.73047 1.0039-1.1367 1.7344-0.91016l12.273 3.8164c0.73047 0.22656 1.1367 1 0.91016 1.7344-0.22656 0.72656-1.0039 1.1367-1.7344 0.91016zm-4.8242-8.3047c-0.52344 0.55469-1.4023 0.58203-1.957 0.058594-0.55859-0.52734-0.58203-1.4023-0.058594-1.957l4.1367-4.3867c0.52344-0.55469 1.4023-0.58203 1.957-0.058594 0.55469 0.52344 0.58203 1.4023 0.058594 1.957zm78.898 67.359 0.92969 2.8711h3.0195c0.60156 0 1.1328 0.38281 1.3164 0.95703 0.1875 0.57031-0.015625 1.1953-0.50391 1.5469l-2.4414 1.7734 0.93359 2.8711c0.1875 0.57031-0.015624 1.1953-0.50391 1.5469-0.48438 0.35547-1.1406 0.35547-1.625 0l-2.4414-1.7734-2.4453 1.7734c-0.48438 0.35547-1.1406 0.35547-1.625 0-0.48828-0.35156-0.69141-0.97656-0.50391-1.5469l0.93359-2.8711-2.4414-1.7734c-0.48828-0.35156-0.69141-0.97656-0.50391-1.5469 0.18359-0.57422 0.71484-0.95703 1.3164-0.95703h3.0195l0.92969-2.8711c0.1875-0.57031 0.71875-0.95703 1.3203-0.95703 0.59766 0 1.1289 0.38672 1.3164 0.95703zm-2.3672 5.625c0.32812 0.32031 0.48047 0.78125 0.40234 1.2344 0.40234-0.21484 0.89063-0.21484 1.293 0-0.078125-0.45312 0.074219-0.91406 0.40234-1.2344-0.45312-0.066407-0.84766-0.34766-1.0469-0.76172-0.20312 0.41406-0.59766 0.69531-1.0508 0.76172zm-5.7461-22.324c-0.12891-0.75391 0.375-1.4727 1.1289-1.6016 0.75391-0.12891 1.4688 0.37891 1.6016 1.1328l2.3633 13.805c0.12891 0.75391-0.37891 1.4688-1.1328 1.5977-0.75391 0.12891-1.4688-0.375-1.5977-1.1289z" fill-rule="evenodd"/>
<text x="0.0" y="117.5" font-size="5.0" font-weight="bold" font-family="Arbeit Regular, Helvetica, Arial-Unicode, Arial, Sans-serif" fill="#000000">Created by Keyy Creative</text><text x="0.0" y="122.5" font-size="5.0" font-weight="bold" font-family="Arbeit Regular, Helvetica, Arial-Unicode, Arial, Sans-serif" fill="#000000">from Noun Project</text></svg>