<svg xmlns="http://www.w3.org/2000/svg" width="391" height="378" fill="none" viewBox="0 0 391 378"><g clip-path="url(#a)"><path fill="#26241e" d="M0 0h391v378H0z"/><g clip-path="url(#b)"><path fill="#14120b" d="M39 57c0-11.046 8.954-20 20-20h332v341H39z"/><path fill="#1b1913" d="M39 37h352v32H39z"/><mask id="c" fill="#fff"><path d="M39 37h941v32H39z"/></mask><path fill="#edecec" fill-opacity=".08" d="M980 69v-.8H39v1.6h941z" mask="url(#c)"/><path fill="#edecec" fill-opacity=".2" d="M47 52.6a5 5 0 1 1 10 0 5 5 0 0 1-10 0m16 0a5 5 0 1 1 10 0 5 5 0 0 1-10 0m16 0a5 5 0 1 1 10 0 5 5 0 0 1-10 0"/><path fill="#14120b" d="M39 69h362v261H39z"/><path fill="#ececec" d="M76.338 97.455V112h-2.017l-7.393-10.668h-.135V112h-2.195V97.454h2.031l7.4 10.682h.136V97.455zm7.333 14.765q-1.612 0-2.777-.689a4.67 4.67 0 0 1-1.79-1.953q-.625-1.264-.625-2.962 0-1.676.625-2.954.632-1.279 1.761-1.996 1.136-.717 2.657-.717a5.4 5.4 0 0 1 1.79.305 4.3 4.3 0 0 1 1.555.959q.689.653 1.086 1.698.399 1.036.398 2.521v.753H79.68v-1.591h6.591q0-.838-.34-1.485a2.57 2.57 0 0 0-.96-1.029q-.61-.377-1.434-.377-.895 0-1.563.44-.66.433-1.022 1.137a3.3 3.3 0 0 0-.356 1.513v1.243q0 1.094.384 1.86.39.767 1.087 1.172.696.398 1.626.398.604 0 1.1-.171.498-.177.86-.525a2.3 2.3 0 0 0 .554-.859l2.01.362a3.64 3.64 0 0 1-.866 1.555q-.618.66-1.556 1.03-.93.362-2.123.362M95.4 101.091v1.704h-5.96v-1.704zm-4.361-2.614h2.123v10.32q0 .618.185.93a.96.96 0 0 0 .476.419q.298.107.646.107.255 0 .448-.036l.298-.056.383 1.754a4 4 0 0 1-.525.142q-.34.078-.852.085-.84.014-1.563-.298a2.7 2.7 0 0 1-1.172-.966q-.447-.654-.447-1.641zM99.714 112l-3.21-10.909h2.194l2.138 8.011h.106l2.145-8.011h2.195l2.131 7.976h.106l2.124-7.976h2.194L108.634 112h-2.166l-2.216-7.876h-.163L101.873 112zm18.002.22q-1.535 0-2.678-.703t-1.775-1.967q-.633-1.265-.633-2.955 0-1.697.633-2.969.632-1.27 1.775-1.974 1.143-.703 2.678-.703t2.677.703q1.144.704 1.776 1.974.632 1.272.632 2.969 0 1.69-.632 2.955-.632 1.264-1.776 1.967-1.143.703-2.677.703m.007-1.782q.994 0 1.648-.526.653-.525.965-1.399.32-.874.32-1.925 0-1.044-.32-1.918-.312-.88-.965-1.413-.654-.533-1.648-.533-1.002 0-1.662.533-.654.532-.973 1.413a5.7 5.7 0 0 0-.313 1.918q0 1.051.313 1.925.32.873.973 1.399.66.525 1.662.526m7.048 1.562v-10.909h2.053v1.733h.114a2.63 2.63 0 0 1 1.051-1.385 3 3 0 0 1 1.718-.511 9 9 0 0 1 .902.049v2.032a4 4 0 0 0-.454-.079 4.4 4.4 0 0 0-.654-.049q-.752 0-1.342.319a2.38 2.38 0 0 0-1.264 2.138V112zm9.229-3.7-.014-2.593h.369l4.347-4.616h2.543l-4.958 5.256h-.334zm-1.953 3.7V97.454h2.124V112zm6.889 0-3.906-5.185 1.463-1.484 5.05 6.669zm8.907 0V97.454h5.185q1.698 0 2.812.618 1.116.618 1.67 1.69.553 1.066.553 2.401 0 1.342-.561 2.415-.554 1.066-1.676 1.69-1.114.618-2.805.618h-3.565v-1.86h3.366q1.072 0 1.74-.37a2.32 2.32 0 0 0 .98-1.022q.313-.646.313-1.471 0-.824-.313-1.463a2.24 2.24 0 0 0-.987-1.001q-.668-.363-1.761-.362h-2.756V112zm16.681.22q-1.534 0-2.677-.703t-1.776-1.967q-.632-1.265-.632-2.955 0-1.697.632-2.969.632-1.27 1.776-1.974 1.143-.703 2.677-.703t2.678.703q1.143.704 1.775 1.974.633 1.272.633 2.969 0 1.69-.633 2.955-.632 1.264-1.775 1.967t-2.678.703m.007-1.782q.995 0 1.648-.526.654-.525.966-1.399a5.6 5.6 0 0 0 .32-1.925 5.6 5.6 0 0 0-.32-1.918q-.312-.88-.966-1.413t-1.648-.533q-1 0-1.662.533-.652.532-.973 1.413a5.7 5.7 0 0 0-.312 1.918q0 1.051.312 1.925.32.873.973 1.399.662.525 1.662.526m9.172-12.984V112h-2.123V97.454zM176.16 112v-10.909h2.124V112zm1.073-12.592a1.35 1.35 0 0 1-.952-.37 1.2 1.2 0 0 1-.391-.894q0-.526.391-.895.397-.377.952-.377t.944.377q.398.369.398.895 0 .517-.398.894-.39.37-.944.37m8.103 12.812q-1.584 0-2.727-.717a4.74 4.74 0 0 1-1.747-1.996q-.611-1.27-.611-2.912 0-1.662.625-2.933.625-1.279 1.761-1.996 1.137-.717 2.678-.717 1.242 0 2.216.462a4 4 0 0 1 1.569 1.278q.604.824.718 1.925h-2.067a2.48 2.48 0 0 0-.781-1.321q-.605-.555-1.62-.554-.888 0-1.555.468-.661.462-1.03 1.321-.369.853-.369 2.017 0 1.194.362 2.06t1.023 1.342q.667.477 1.569.476.604 0 1.094-.22.496-.227.831-.646a2.44 2.44 0 0 0 .476-1.009h2.067a4 4 0 0 1-.689 1.89 4 4 0 0 1-1.542 1.306q-.958.476-2.251.476m7.695 3.871q-.475 0-.867-.078-.39-.072-.582-.156l.511-1.741q.583.158 1.037.135.455-.02.803-.34.355-.32.625-1.045l.263-.724-3.992-11.051h2.273l2.763 8.466h.113l2.763-8.466h2.28l-4.496 12.365a4.9 4.9 0 0 1-.795 1.442 3.1 3.1 0 0 1-1.151.895q-.667.297-1.548.298"/><g clip-path="url(#d)"><rect width="310" height="231" x="63" y="125" fill="#1b1913" rx="8"/><mask id="e" fill="#fff"><path d="M64 126h418v55.64H64z"/></mask><path fill="#fff" fill-opacity=".06" d="M482 181.64V181H64v1.28h418z" mask="url(#e)"/><g clip-path="url(#f)"><path fill="#3fb950" d="M92.98 151.12a.75.75 0 0 1 0 1.06l-7.25 7.25a.75.75 0 0 1-1.06 0l-3.25-3.25a.75.75 0 0 1 1.06-1.06l2.72 2.72 6.72-6.72a.75.75 0 0 1 1.06 0"/></g><path fill="#ececec" d="M112.972 143.455v1.022h-3.699v-1.022zM110.287 150v-7.304q0-.614.268-1.018.269-.41.712-.61.444-.204.963-.204.384 0 .656.064.273.059.405.11l-.298 1.032a7 7 0 0 0-.23-.06 1.3 1.3 0 0 0-.341-.038q-.464 0-.665.23-.196.23-.196.664V150zm3.999 0v-6.545h1.232v1.039h.068a1.58 1.58 0 0 1 .631-.831 1.8 1.8 0 0 1 1.031-.306 5 5 0 0 1 .541.029v1.219a2 2 0 0 0-.273-.047q-.195-.03-.392-.03a1.66 1.66 0 0 0-.805.192 1.43 1.43 0 0 0-.759 1.283V150zm7.128.132q-.92 0-1.606-.422a2.83 2.83 0 0 1-1.065-1.18q-.38-.759-.38-1.773 0-1.019.38-1.781a2.83 2.83 0 0 1 1.065-1.185q.686-.422 1.606-.422.921 0 1.607.422.685.421 1.065 1.185.38.762.38 1.781 0 1.014-.38 1.773a2.84 2.84 0 0 1-1.065 1.18q-.686.422-1.607.422m.005-1.07q.596 0 .988-.315.393-.315.58-.839a3.3 3.3 0 0 0 .192-1.155q0-.626-.192-1.151a1.87 1.87 0 0 0-.58-.848q-.392-.32-.988-.319-.601 0-.997.319a1.9 1.9 0 0 0-.584.848q-.188.524-.188 1.151 0 .63.188 1.155.192.524.584.839.396.315.997.315m5.743-2.948V150h-1.274v-6.545h1.223v1.065h.081q.225-.52.707-.835.486-.316 1.223-.316.67 0 1.172.282.503.276.78.826t.277 1.36V150h-1.274v-4.01q0-.711-.371-1.112-.371-.405-1.018-.405-.444 0-.789.192a1.4 1.4 0 0 0-.541.562q-.196.367-.196.887m8.953-2.659v1.022h-3.575v-1.022zm-2.616-1.569h1.274v6.192q0 .37.111.558a.57.57 0 0 0 .285.252q.179.064.388.064.153 0 .268-.022l.179-.034.23 1.053a2.5 2.5 0 0 1-.826.136 2.2 2.2 0 0 1-.938-.179 1.6 1.6 0 0 1-.703-.579q-.268-.393-.268-.985zm6.776 8.246q-.967 0-1.666-.413a2.8 2.8 0 0 1-1.074-1.172q-.375-.759-.375-1.777 0-1.006.375-1.773.38-.766 1.057-1.197.682-.43 1.594-.431.554 0 1.074.184.519.183.933.575.413.392.652 1.018.238.622.238 1.513v.452h-5.203v-.955h3.955a1.9 1.9 0 0 0-.205-.89 1.54 1.54 0 0 0-.575-.618 1.6 1.6 0 0 0-.861-.226q-.537 0-.937.264a1.8 1.8 0 0 0-.614.682 2 2 0 0 0-.213.908v.745q0 .657.23 1.117.234.46.652.703.418.239.976.239.362 0 .661-.103.297-.107.515-.315a1.4 1.4 0 0 0 .333-.516l1.205.218a2.2 2.2 0 0 1-.519.933q-.372.396-.934.618a3.5 3.5 0 0 1-1.274.217m5.496-4.018V150h-1.274v-6.545h1.223v1.065h.081q.226-.52.708-.835.485-.316 1.223-.316.669 0 1.171.282.504.276.78.826.277.55.277 1.36V150h-1.274v-4.01q0-.711-.371-1.112-.37-.405-1.018-.405-.444 0-.788.192a1.4 1.4 0 0 0-.542.562q-.195.367-.196.887m8.348 4.014q-.793 0-1.414-.405-.618-.41-.972-1.163-.35-.76-.349-1.82 0-1.06.353-1.815.359-.755.98-1.155a2.55 2.55 0 0 1 1.411-.401q.61 0 .98.205.375.2.58.469.209.268.323.473h.077v-3.243h1.274V150h-1.244v-1.018h-.107a3.3 3.3 0 0 1-.332.477 1.9 1.9 0 0 1-.588.469q-.375.2-.972.2m.282-1.087q.55 0 .929-.29.382-.294.579-.813.2-.52.2-1.211 0-.681-.196-1.193a1.75 1.75 0 0 0-.575-.797q-.38-.285-.937-.285-.576 0-.959.298-.384.298-.58.814a3.3 3.3 0 0 0-.192 1.163q0 .656.196 1.181.196.523.58.831.388.302.955.302m13.393 1.117-.767-.759 2.663-2.663H163v-1.108h6.69l-2.663-2.659.767-.763 3.976 3.976zm11.092-.013q-.621 0-1.125-.23a1.9 1.9 0 0 1-.797-.678q-.29-.442-.289-1.086 0-.555.213-.912.213-.359.575-.567a3 3 0 0 1 .81-.315q.447-.107.912-.162l.954-.111q.367-.047.533-.149.166-.103.166-.333v-.03q0-.558-.315-.865-.311-.306-.929-.306-.643 0-1.014.285-.367.281-.508.626l-1.197-.272q.213-.597.622-.963a2.5 2.5 0 0 1 .95-.537 3.7 3.7 0 0 1 1.13-.171q.392 0 .831.094.443.09.826.332.389.243.635.695.247.447.247 1.163V150h-1.244v-.895h-.051a1.8 1.8 0 0 1-.371.486 2 2 0 0 1-.635.396 2.5 2.5 0 0 1-.929.158m.277-1.023q.53 0 .904-.209.379-.209.575-.545.2-.34.2-.729v-.844q-.067.07-.264.128-.192.056-.439.098l-.481.073-.392.051a3 3 0 0 0-.678.158q-.303.11-.486.319-.179.205-.179.546 0 .473.35.716.35.238.89.238m8.797-1.836v-3.831h1.278V150h-1.253v-1.134h-.068q-.226.525-.724.874-.495.345-1.232.345a2.2 2.2 0 0 1-1.116-.277 1.94 1.94 0 0 1-.759-.831q-.272-.549-.272-1.359v-4.163h1.274v4.009q0 .67.37 1.066.372.396.964.396.357 0 .711-.179.358-.179.592-.541.24-.362.235-.92m6.046-3.831v1.022h-3.576v-1.022zm-2.617-1.569h1.274v6.192q0 .37.111.558a.58.58 0 0 0 .286.252q.178.064.387.064.154 0 .269-.022l.179-.034.23 1.053a2.5 2.5 0 0 1-.827.136 2.2 2.2 0 0 1-.937-.179 1.6 1.6 0 0 1-.703-.579q-.269-.393-.269-.985zm5.441 4.228V150h-1.274v-8.727h1.257v3.247h.081q.23-.528.703-.84.472-.31 1.236-.311.674 0 1.176.277.507.278.784.827.28.546.281 1.364V150H199.8v-4.01q0-.72-.371-1.116-.37-.4-1.031-.401-.451 0-.81.192a1.4 1.4 0 0 0-.558.562q-.2.367-.2.887m9.801-.354v1.104h-3.869v-1.104zm1.8 4.24v-8.727h1.275v3.243h.076q.111-.205.32-.473.209-.269.579-.469.371-.204.981-.205.792 0 1.414.401.622.4.976 1.155.358.755.358 1.815t-.354 1.82q-.353.753-.971 1.163-.618.405-1.411.405-.596 0-.975-.2a1.9 1.9 0 0 1-.589-.469 3.6 3.6 0 0 1-.328-.477h-.106V150zm1.249-3.273q0 .69.2 1.211.2.519.58.813.379.29.929.29.572 0 .954-.302.384-.308.58-.831.2-.524.2-1.181 0-.647-.196-1.163a1.8 1.8 0 0 0-.579-.814q-.384-.298-.959-.298-.554 0-.938.285a1.76 1.76 0 0 0-.575.797 3.3 3.3 0 0 0-.196 1.193m8.066 3.418q-.622 0-1.125-.23a1.9 1.9 0 0 1-.797-.678q-.29-.442-.29-1.086 0-.555.213-.912.213-.359.575-.567.363-.209.81-.315t.912-.162l.955-.111q.366-.047.532-.149.166-.103.166-.333v-.03q0-.558-.315-.865-.31-.306-.929-.306-.643 0-1.014.285-.366.281-.507.626l-1.198-.272q.213-.597.623-.963.413-.37.95-.537a3.7 3.7 0 0 1 1.129-.171q.391 0 .831.094.444.09.827.332.387.243.635.695.246.447.247 1.163V150h-1.244v-.895h-.052a1.8 1.8 0 0 1-.37.486 2 2 0 0 1-.635.396 2.5 2.5 0 0 1-.929.158m.277-1.023q.528 0 .903-.209.38-.209.575-.545a1.4 1.4 0 0 0 .201-.729v-.844a.65.65 0 0 1-.264.128q-.192.056-.439.098l-.482.073-.392.051a3 3 0 0 0-.678.158q-.302.11-.485.319-.18.205-.179.546 0 .473.349.716.35.238.891.238m7.407 1.01q-.95 0-1.636-.43a2.85 2.85 0 0 1-1.049-1.198q-.366-.763-.366-1.747 0-.997.375-1.76.375-.766 1.057-1.197.681-.43 1.606-.431.746 0 1.33.277.584.273.942.767.362.495.43 1.155h-1.24a1.5 1.5 0 0 0-.469-.792q-.362-.333-.971-.333-.534 0-.934.281-.396.277-.618.793-.22.511-.221 1.21 0 .716.217 1.236.218.52.614.805.4.286.942.286.362 0 .656-.132a1.3 1.3 0 0 0 .498-.388q.205-.251.286-.605h1.24a2.4 2.4 0 0 1-.413 1.133 2.4 2.4 0 0 1-.925.785q-.576.285-1.351.285m5.223-2.352-.008-1.556h.221l2.608-2.769H235l-2.974 3.153h-.201zm-1.171 2.22v-8.727h1.274V150zm4.133 0-2.344-3.111.878-.89 3.03 4.001zm5.098.132q-.968 0-1.666-.413a2.8 2.8 0 0 1-1.074-1.172q-.375-.759-.375-1.777 0-1.006.375-1.773a2.9 2.9 0 0 1 1.056-1.197q.682-.43 1.594-.431.554 0 1.074.184.52.183.933.575t.652 1.018q.239.622.239 1.513v.452h-5.203v-.955h3.954q0-.503-.204-.89a1.54 1.54 0 0 0-.575-.618 1.6 1.6 0 0 0-.861-.226q-.537 0-.938.264a1.77 1.77 0 0 0-.613.682 2 2 0 0 0-.213.908v.745q0 .657.23 1.117.234.46.652.703.417.239.975.239.363 0 .661-.103a1.37 1.37 0 0 0 .848-.831l1.206.218q-.145.532-.52.933-.37.396-.933.618a3.5 3.5 0 0 1-1.274.217m5.496-4.018V150h-1.274v-6.545h1.223v1.065h.081q.225-.52.707-.835.486-.316 1.223-.316.67 0 1.172.282.502.276.78.826.276.55.277 1.36V150h-1.274v-4.01q0-.711-.371-1.112-.37-.405-1.019-.405-.443 0-.788.192a1.4 1.4 0 0 0-.541.562q-.196.367-.196.887m8.348 4.014q-.793 0-1.415-.405-.618-.41-.972-1.163-.349-.76-.349-1.82t.354-1.815q.357-.755.98-1.155a2.55 2.55 0 0 1 1.41-.401q.61 0 .98.205.375.2.58.469.209.268.324.473h.077v-3.243h1.274V150h-1.245v-1.018h-.106a3.4 3.4 0 0 1-.333.477 1.9 1.9 0 0 1-.588.469q-.375.2-.971.2m.281-1.087q.55 0 .929-.29.384-.294.58-.813.2-.52.2-1.211 0-.681-.196-1.193a1.76 1.76 0 0 0-.575-.797q-.38-.285-.938-.285-.575 0-.959.298-.383.298-.579.814a3.3 3.3 0 0 0-.192 1.163q0 .656.196 1.181.196.523.58.831.387.302.954.302m5.62 1.04a.83.83 0 0 1-.601-.247.83.83 0 0 1-.252-.605q0-.35.252-.597a.82.82 0 0 1 .601-.251q.35 0 .601.251a.8.8 0 0 1 .251.597q0 .234-.119.43a.9.9 0 0 1-.307.307.8.8 0 0 1-.426.115m0-4.764a.82.82 0 0 1-.601-.252.82.82 0 0 1-.252-.601q0-.348.252-.596a.82.82 0 0 1 .601-.252.82.82 0 0 1 .601.252.8.8 0 0 1 .251.596q0 .235-.119.431a.9.9 0 0 1-.307.307.8.8 0 0 1-.426.115m5.491 4.802q-.916 0-1.62-.315-.699-.315-1.095-.869a2.1 2.1 0 0 1-.392-1.262 2.23 2.23 0 0 1 .861-1.798 2 2 0 0 1 .895-.401v-.051a1.76 1.76 0 0 1-1.044-.699 2.04 2.04 0 0 1-.388-1.244 2.04 2.04 0 0 1 .354-1.193 2.47 2.47 0 0 1 .992-.831q.631-.303 1.437-.303.796 0 1.423.307.63.303.993.831.361.525.366 1.189a2.07 2.07 0 0 1-.4 1.244 1.78 1.78 0 0 1-1.032.699v.051q.49.086.882.401.397.31.631.78.239.464.243 1.018a2.13 2.13 0 0 1-.401 1.262q-.396.554-1.099.869-.699.315-1.606.315m0-1.078q.54 0 .937-.179.396-.183.614-.507.217-.328.221-.767a1.44 1.44 0 0 0-.238-.805 1.6 1.6 0 0 0-.627-.55 2 2 0 0 0-.907-.2q-.516 0-.917.2a1.6 1.6 0 0 0-.63.55 1.4 1.4 0 0 0-.226.805 1.35 1.35 0 0 0 .209.767q.216.324.617.507a2.3 2.3 0 0 0 .947.179m0-4.061q.433 0 .771-.175.336-.174.528-.485.196-.312.201-.729a1.35 1.35 0 0 0-.197-.716 1.24 1.24 0 0 0-.524-.473 1.7 1.7 0 0 0-.779-.17q-.453 0-.793.17a1.24 1.24 0 0 0-.524.473 1.3 1.3 0 0 0-.183.716q-.005.417.187.729.192.31.528.485.341.175.785.175m7.671 5.165q-1.01-.005-1.726-.533-.715-.528-1.095-1.538t-.379-2.433q0-1.42.379-2.425.384-1.006 1.099-1.534.72-.529 1.722-.529t1.717.533q.717.529 1.096 1.534.383 1.002.383 2.421 0 1.427-.379 2.437-.38 1.006-1.095 1.538-.717.53-1.722.529m0-1.138q.887 0 1.385-.865.503-.865.503-2.501 0-1.087-.23-1.837-.226-.755-.652-1.142a1.43 1.43 0 0 0-1.006-.392q-.882 0-1.385.869-.503.87-.507 2.502 0 1.09.226 1.845.23.75.652 1.138.422.383 1.014.383m7.657 1.112q-.916 0-1.62-.315-.699-.315-1.095-.869a2.1 2.1 0 0 1-.392-1.262 2.22 2.22 0 0 1 .861-1.798 2 2 0 0 1 .895-.401v-.051a1.76 1.76 0 0 1-1.044-.699 2.04 2.04 0 0 1-.388-1.244 2.04 2.04 0 0 1 .354-1.193q.362-.528.993-.831.63-.303 1.436-.303.796 0 1.423.307.63.303.993.831.361.525.366 1.189a2.07 2.07 0 0 1-.4 1.244 1.77 1.77 0 0 1-1.032.699v.051q.49.086.883.401.396.31.63.78.239.464.243 1.018a2.14 2.14 0 0 1-.4 1.262q-.397.554-1.1.869-.699.315-1.606.315m0-1.078q.54 0 .937-.179.396-.183.614-.507.218-.328.221-.767a1.43 1.43 0 0 0-.238-.805 1.6 1.6 0 0 0-.627-.55 2 2 0 0 0-.907-.2q-.516 0-.917.2a1.6 1.6 0 0 0-.63.55 1.4 1.4 0 0 0-.226.805 1.35 1.35 0 0 0 .209.767q.218.324.618.507.4.18.946.179m0-4.061q.434 0 .771-.175.337-.174.528-.485.196-.312.201-.729a1.36 1.36 0 0 0-.196-.716 1.24 1.24 0 0 0-.525-.473 1.7 1.7 0 0 0-.779-.17q-.453 0-.793.17a1.25 1.25 0 0 0-.524.473 1.3 1.3 0 0 0-.183.716q-.005.417.187.729.192.31.529.485.34.175.784.175m7.671 5.165q-1.01-.005-1.726-.533-.715-.528-1.095-1.538t-.379-2.433q0-1.42.379-2.425.383-1.006 1.1-1.534.72-.529 1.721-.529t1.717.533q.717.529 1.096 1.534.383 1.002.383 2.421 0 1.427-.379 2.437-.38 1.006-1.095 1.538-.716.53-1.722.529m0-1.138q.887 0 1.385-.865.503-.865.503-2.501 0-1.087-.23-1.837-.226-.755-.652-1.142a1.43 1.43 0 0 0-1.006-.392q-.882 0-1.385.869-.503.87-.507 2.502 0 1.09.226 1.845.23.75.652 1.138.421.383 1.014.383"/><path fill="#8e8f96" d="M111.372 167.128q-.518 0-.941-.195a1.6 1.6 0 0 1-.671-.572q-.249-.377-.249-.909 0-.47.185-.76.185-.296.494-.462a2.6 2.6 0 0 1 .681-.248q.377-.085.757-.135.497-.064.806-.096.313-.036.454-.117.147-.083.146-.285v-.028q0-.525-.288-.817-.284-.291-.862-.291-.6 0-.942.263-.34.262-.479.561l-.795-.284q.213-.498.568-.774a2.1 2.1 0 0 1 .781-.391 3.2 3.2 0 0 1 .838-.114q.263 0 .604.064.344.061.664.252.323.192.536.579t.213 1.037V167h-.838v-.739h-.043a1.4 1.4 0 0 1-.284.38 1.6 1.6 0 0 1-.529.345 2.05 2.05 0 0 1-.806.142m.128-.753q.497 0 .838-.195a1.34 1.34 0 0 0 .696-1.154v-.767q-.053.063-.234.117a4 4 0 0 1-.412.088 17 17 0 0 1-.803.107 3 3 0 0 0-.611.139 1.05 1.05 0 0 0-.454.28q-.171.185-.171.504 0 .438.324.661.326.22.827.22m4.74-6.648V167h-.838v-7.273zm2.373 0V167h-.838v-7.273zm3.751 7.387q-.74 0-1.296-.352a2.4 2.4 0 0 1-.867-.984q-.309-.631-.309-1.477 0-.852.309-1.488a2.4 2.4 0 0 1 .867-.987q.557-.352 1.296-.352.738 0 1.292.352.558.351.867.987.312.636.312 1.488 0 .846-.312 1.477a2.35 2.35 0 0 1-.867.984q-.554.351-1.292.352m0-.753q.561 0 .923-.288.363-.288.536-.756t.174-1.016q0-.546-.174-1.019a1.7 1.7 0 0 0-.536-.764q-.362-.291-.923-.291t-.923.291a1.7 1.7 0 0 0-.537.764 2.9 2.9 0 0 0-.174 1.019q0 .547.174 1.016t.537.756q.362.288.923.288m4.801.639-1.662-5.455h.881l1.179 4.177h.056l1.165-4.177h.895l1.151 4.162h.057l1.179-4.162h.88L131.284 167h-.824l-1.193-4.19h-.085l-1.193 4.19zm10.014-3.509v.782h-3.182v-.782zm3.904-1.946v.711h-2.941v-.711zm-2.06 5.455v-6.207q0-.469.22-.782.22-.312.572-.468.351-.157.742-.157.309 0 .504.05.196.05.292.092l-.242.725a4 4 0 0 0-.177-.053 1 1 0 0 0-.292-.032q-.416 0-.6.209-.18.21-.181.614V167zm3.234 0v-5.455h.81v.824h.057q.148-.405.54-.657.39-.252.88-.252a7 7 0 0 1 .441.014v.853a3 3 0 0 0-.196-.032 2 2 0 0 0-.316-.025q-.398 0-.71.167a1.26 1.26 0 0 0-.49.454 1.23 1.23 0 0 0-.178.657V167zm5.771.114q-.74 0-1.296-.352a2.4 2.4 0 0 1-.867-.984q-.309-.631-.309-1.477 0-.852.309-1.488a2.4 2.4 0 0 1 .867-.987q.556-.352 1.296-.352.738 0 1.292.352.558.351.867.987.312.636.312 1.488 0 .846-.312 1.477a2.35 2.35 0 0 1-.867.984q-.554.351-1.292.352m0-.753q.561 0 .923-.288t.536-.756.174-1.016q0-.546-.174-1.019a1.7 1.7 0 0 0-.536-.764q-.362-.291-.923-.291t-.923.291a1.7 1.7 0 0 0-.537.764 2.9 2.9 0 0 0-.174 1.019q0 .547.174 1.016t.537.756q.362.288.923.288m4.589-2.642V167h-.838v-5.455h.809v.853h.071q.192-.416.583-.668.39-.255 1.008-.256.555 0 .97.228.415.223.646.682.231.454.231 1.15V167h-.838v-3.409q0-.643-.334-1.002-.334-.362-.916-.362-.402 0-.717.174a1.25 1.25 0 0 0-.494.508q-.181.334-.181.81m7.384-2.174v.711h-2.827v-.711zm-2.003-1.306h.838v5.199q0 .354.103.532a.54.54 0 0 0 .27.235q.166.056.351.056.139 0 .227-.014l.143-.028.17.753a1.9 1.9 0 0 1-.625.099q-.355 0-.696-.153a1.4 1.4 0 0 1-.561-.465q-.22-.312-.22-.788zm5.492 6.875q-.788 0-1.361-.348a2.35 2.35 0 0 1-.877-.98q-.305-.633-.305-1.471 0-.837.305-1.477.31-.642.86-1.001.554-.363 1.292-.363.426 0 .842.142.415.143.756.462.342.316.544.838t.202 1.286v.355h-4.204v-.725h3.352q0-.461-.185-.823a1.4 1.4 0 0 0-.518-.572 1.45 1.45 0 0 0-.789-.21 1.5 1.5 0 0 0-.866.249 1.6 1.6 0 0 0-.558.639q-.195.395-.195.845v.483q0 .618.213 1.048.217.426.6.65.384.22.892.22.33 0 .596-.093.27-.095.465-.284.196-.191.302-.475l.81.227a1.8 1.8 0 0 1-.43.724q-.302.309-.746.483a2.8 2.8 0 0 1-.997.171m4.371-3.395V167h-.838v-5.455h.81v.853h.071q.191-.416.582-.668.39-.255 1.008-.256.555 0 .97.228.415.223.646.682.231.454.231 1.15V167h-.838v-3.409q0-.643-.334-1.002-.333-.362-.916-.362-.402 0-.717.174a1.25 1.25 0 0 0-.494.508q-.181.334-.181.81m7.071 3.395q-.681 0-1.204-.345a2.3 2.3 0 0 1-.816-.98q-.295-.636-.295-1.502 0-.86.295-1.492.294-.631.82-.976a2.16 2.16 0 0 1 1.214-.345q.533 0 .842.178.312.174.476.398.167.22.259.362h.071v-2.685h.838V167h-.809v-.838h-.1a5 5 0 0 1-.263.376 1.6 1.6 0 0 1-.486.402q-.316.174-.842.174m.114-.753q.504 0 .852-.263.348-.267.529-.735.181-.472.181-1.09 0-.611-.177-1.069a1.56 1.56 0 0 0-.526-.717q-.348-.26-.859-.26-.533 0-.888.274-.352.27-.529.735a2.9 2.9 0 0 0-.174 1.037q0 .582.177 1.058.182.472.533.753.355.276.881.277m7.162-2.87v.782h-3.181v-.782zm3.08 3.637q-.518 0-.941-.195a1.6 1.6 0 0 1-.671-.572q-.249-.377-.249-.909 0-.47.185-.76.185-.296.494-.462a2.6 2.6 0 0 1 .681-.248q.377-.085.757-.135.497-.064.806-.096.312-.036.455-.117.145-.083.145-.285v-.028q0-.525-.288-.817-.284-.291-.862-.291-.6 0-.942.263-.34.262-.479.561l-.795-.284q.213-.498.568-.774a2.1 2.1 0 0 1 .781-.391q.427-.114.838-.114.263 0 .604.064.344.061.664.252.323.192.536.579t.213 1.037V167h-.838v-.739h-.043a1.4 1.4 0 0 1-.284.38 1.6 1.6 0 0 1-.529.345 2.05 2.05 0 0 1-.806.142m.128-.753q.497 0 .838-.195a1.34 1.34 0 0 0 .696-1.154v-.767q-.053.063-.234.117a4 4 0 0 1-.412.088 17 17 0 0 1-.803.107 3 3 0 0 0-.611.139 1.05 1.05 0 0 0-.454.28q-.171.185-.171.504 0 .438.324.661.326.22.827.22m7.339-1.605v-3.225h.838V167h-.838v-.923h-.056a1.8 1.8 0 0 1-.597.706q-.405.288-1.023.288-.512 0-.909-.224a1.56 1.56 0 0 1-.625-.682q-.227-.458-.227-1.154v-3.466h.838v3.41q0 .596.334.951.337.355.859.355.312 0 .636-.159.327-.16.547-.49.223-.331.223-.842m4.746-3.225v.711h-2.827v-.711zm-2.003-1.306h.838v5.199q0 .354.103.532a.54.54 0 0 0 .27.235q.167.056.351.056.139 0 .227-.014l.143-.028.17.753a1.9 1.9 0 0 1-.625.099q-.356 0-.696-.153a1.4 1.4 0 0 1-.561-.465q-.22-.312-.22-.788zm4.218 3.48V167h-.838v-7.273h.838v2.671h.071q.192-.423.576-.671.387-.253 1.03-.253.557 0 .976.224.419.22.65.678.234.455.234 1.158V167h-.838v-3.409q0-.65-.337-1.005-.335-.359-.927-.359-.412 0-.739.174a1.3 1.3 0 0 0-.511.508 1.66 1.66 0 0 0-.185.81M204.9 167v-7.273h.838v2.685h.071q.093-.143.256-.362.167-.224.476-.398.312-.178.845-.178.689 0 1.214.345.526.345.821.976.294.633.295 1.492 0 .867-.295 1.502a2.33 2.33 0 0 1-.817.98q-.522.345-1.204.345-.525 0-.841-.174a1.6 1.6 0 0 1-.487-.402 5 5 0 0 1-.263-.376h-.099V167zm.824-2.727q0 .618.181 1.09.181.468.529.735.348.263.853.263.525 0 .877-.277.354-.28.532-.753.181-.476.181-1.058 0-.576-.177-1.037a1.6 1.6 0 0 0-.529-.735q-.352-.274-.884-.274-.512 0-.86.26-.348.255-.525.717a2.9 2.9 0 0 0-.178 1.069m6.879 2.855q-.52 0-.941-.195a1.6 1.6 0 0 1-.672-.572q-.248-.377-.248-.909 0-.47.184-.76.186-.296.494-.462.309-.167.682-.248.376-.085.756-.135.498-.064.806-.096.313-.036.455-.117.146-.083.146-.285v-.028q0-.525-.288-.817-.284-.291-.863-.291-.6 0-.941.263-.34.262-.479.561l-.796-.284q.213-.498.568-.774.359-.281.782-.391a3.2 3.2 0 0 1 .838-.114q.263 0 .603.064.345.061.664.252.324.192.537.579t.213 1.037V167h-.838v-.739h-.043a1.5 1.5 0 0 1-.284.38 1.7 1.7 0 0 1-.529.345 2.05 2.05 0 0 1-.806.142m.127-.753q.497 0 .839-.195a1.34 1.34 0 0 0 .696-1.154v-.767q-.054.063-.235.117a4 4 0 0 1-.412.088 17 17 0 0 1-.802.107 3 3 0 0 0-.611.139 1.05 1.05 0 0 0-.455.28q-.17.185-.17.504 0 .438.323.661.327.22.827.22m6.118.739q-.767 0-1.321-.363a2.36 2.36 0 0 1-.852-.997q-.298-.636-.298-1.453 0-.831.305-1.466.309-.64.859-.998.555-.363 1.293-.363.576 0 1.037.214.462.212.756.596.295.384.366.895h-.838a1.3 1.3 0 0 0-.426-.661q-.326-.291-.881-.291-.49 0-.859.256a1.66 1.66 0 0 0-.572.714q-.202.458-.202 1.076 0 .631.199 1.101.201.468.568.728.37.258.866.259.327 0 .593-.114a1.22 1.22 0 0 0 .714-.838h.838a1.94 1.94 0 0 1-1.087 1.481 2.4 2.4 0 0 1-1.058.224m4.151-2.103-.014-1.037h.171l2.386-2.429h1.037l-2.543 2.571h-.071zm-.781 1.989v-7.273h.838V167zm3.466 0-2.131-2.699.597-.582 2.599 3.281zm4.036.114q-.789 0-1.36-.348a2.34 2.34 0 0 1-.877-.98q-.306-.633-.306-1.471 0-.837.306-1.477a2.4 2.4 0 0 1 .859-1.001q.554-.363 1.293-.363.426 0 .841.142.416.143.757.462.34.316.543.838t.203 1.286v.355h-4.205v-.725h3.352q0-.461-.184-.823a1.4 1.4 0 0 0-.519-.572 1.45 1.45 0 0 0-.788-.21q-.501 0-.867.249a1.63 1.63 0 0 0-.557.639q-.195.395-.196.845v.483q0 .618.214 1.048.216.426.6.65.382.22.891.22.33 0 .597-.093.27-.095.465-.284.195-.191.302-.475l.809.227a1.8 1.8 0 0 1-.429.724q-.302.309-.746.483a2.8 2.8 0 0 1-.998.171m4.371-3.395V167h-.838v-5.455h.81v.853h.071q.192-.416.582-.668.391-.255 1.009-.256.553 0 .969.228.416.223.647.682.231.454.231 1.15V167h-.839v-3.409q0-.643-.333-1.002-.334-.362-.917-.362-.4 0-.717.174a1.25 1.25 0 0 0-.493.508 1.7 1.7 0 0 0-.182.81m7.072 3.395q-.682 0-1.204-.345a2.33 2.33 0 0 1-.817-.98q-.294-.636-.295-1.502 0-.86.295-1.492a2.3 2.3 0 0 1 .82-.976q.526-.345 1.215-.345.533 0 .841.178.313.174.476.398.167.22.26.362h.071v-2.685h.838V167h-.81v-.838h-.099q-.093.149-.263.376a1.6 1.6 0 0 1-.487.402q-.316.174-.841.174m.113-.753q.505 0 .853-.263.348-.267.529-.735.18-.472.181-1.09 0-.611-.178-1.069a1.55 1.55 0 0 0-.525-.717q-.348-.26-.86-.26-.533 0-.888.274-.35.27-.529.735a2.9 2.9 0 0 0-.174 1.037q0 .582.178 1.058.181.472.533.753.355.276.88.277"/><mask id="g" fill="#fff"><path d="M64 181.64h475v55.64H64z"/></mask><path fill="#fff" fill-opacity=".06" d="M539 237.28v-.64H64v1.28h475z" mask="url(#g)"/><g clip-path="url(#h)"><path fill="#3fb950" d="M92.98 206.76a.75.75 0 0 1 0 1.06l-7.25 7.25a.75.75 0 0 1-1.06 0l-3.25-3.25a.75.75 0 0 1 1.06-1.06l2.72 2.72 6.72-6.72a.75.75 0 0 1 1.06 0"/></g><path fill="#ececec" d="M111.761 205.785q-.621 0-1.125-.23a1.9 1.9 0 0 1-.797-.678q-.29-.442-.289-1.086 0-.555.213-.912.213-.359.575-.567a3 3 0 0 1 .81-.315q.447-.107.912-.162l.954-.111q.367-.047.533-.149t.166-.333v-.029q0-.56-.315-.865-.311-.307-.929-.307-.643 0-1.014.285a1.53 1.53 0 0 0-.508.627l-1.197-.273q.213-.597.622-.963a2.5 2.5 0 0 1 .95-.537 3.7 3.7 0 0 1 1.13-.171q.391 0 .831.094.443.09.826.333.389.243.635.694.247.447.247 1.164v4.346h-1.244v-.895h-.051a1.8 1.8 0 0 1-.371.486 2 2 0 0 1-.635.396 2.5 2.5 0 0 1-.929.158m.277-1.023q.53 0 .904-.209.379-.209.575-.545.2-.34.2-.729v-.843a.65.65 0 0 1-.264.127q-.192.056-.439.098l-.481.073-.392.051a3 3 0 0 0-.678.158q-.303.11-.486.319-.179.205-.179.546 0 .473.35.716.35.238.89.238m8.797-1.836v-3.831h1.278v6.545h-1.253v-1.133h-.068q-.225.524-.724.873-.494.345-1.232.345a2.2 2.2 0 0 1-1.116-.277 1.94 1.94 0 0 1-.759-.831q-.272-.549-.272-1.359v-4.163h1.274v4.01q0 .669.37 1.065.372.396.964.396.357 0 .711-.179.358-.178.592-.541.24-.362.235-.92m6.046-3.831v1.022h-3.576v-1.022zm-2.617-1.568h1.274v6.191q0 .371.111.559a.58.58 0 0 0 .286.251q.179.064.387.064.154 0 .269-.021l.179-.035.23 1.053a2 2 0 0 1-.315.085 2.5 2.5 0 0 1-.512.051 2.2 2.2 0 0 1-.937-.179 1.6 1.6 0 0 1-.703-.579q-.269-.393-.269-.985zm5.441 4.227v3.886h-1.274v-8.727h1.257v3.247h.081q.23-.528.703-.839.472-.312 1.236-.312.674 0 1.176.277.507.278.784.827.28.546.281 1.364v4.163h-1.274v-4.01q0-.72-.371-1.116-.37-.4-1.031-.401-.451 0-.81.192a1.4 1.4 0 0 0-.558.562q-.2.367-.2.887m9.801-.354v1.104h-3.869V201.4zm1.8 4.24v-8.727h1.275v3.243h.076q.111-.205.32-.473t.579-.469q.371-.204.981-.205.792 0 1.414.401.622.4.976 1.155.358.755.358 1.815 0 1.062-.354 1.82-.353.754-.971 1.163-.618.405-1.411.405-.596 0-.975-.2a1.9 1.9 0 0 1-.589-.469 3.6 3.6 0 0 1-.328-.477h-.106v1.018zm1.249-3.273q0 .691.2 1.211t.58.814q.379.29.929.289.572 0 .954-.302.384-.308.58-.831.2-.524.2-1.181a3.3 3.3 0 0 0-.196-1.163 1.8 1.8 0 0 0-.579-.814q-.384-.298-.959-.298-.554 0-.938.285a1.76 1.76 0 0 0-.575.797 3.3 3.3 0 0 0-.196 1.193m8.066 3.418q-.622 0-1.125-.23a1.9 1.9 0 0 1-.797-.678q-.29-.442-.29-1.086 0-.555.213-.912.213-.359.575-.567.363-.209.81-.315t.912-.162l.955-.111q.366-.047.532-.149t.166-.333v-.029q0-.56-.315-.865-.31-.307-.929-.307-.643 0-1.014.285a1.54 1.54 0 0 0-.507.627l-1.198-.273q.213-.597.623-.963.413-.37.95-.537a3.7 3.7 0 0 1 1.129-.171q.391 0 .831.094.444.09.827.333.387.243.635.694.246.447.247 1.164v4.346h-1.244v-.895h-.052a1.8 1.8 0 0 1-.37.486 2 2 0 0 1-.635.396 2.5 2.5 0 0 1-.929.158m.277-1.023q.528 0 .903-.209.38-.209.575-.545a1.4 1.4 0 0 0 .201-.729v-.843a.7.7 0 0 1-.265.127q-.191.056-.438.098l-.482.073-.392.051a3 3 0 0 0-.678.158q-.302.11-.485.319-.18.205-.179.546 0 .473.349.716.35.238.891.238m7.407 1.01q-.95 0-1.636-.43a2.85 2.85 0 0 1-1.049-1.198q-.366-.762-.366-1.747 0-.997.375-1.76.375-.766 1.057-1.197.681-.43 1.606-.431.746 0 1.33.277.584.273.942.767.362.495.43 1.155h-1.24a1.5 1.5 0 0 0-.469-.792q-.362-.333-.971-.333a1.58 1.58 0 0 0-.934.282q-.396.276-.618.792-.22.512-.221 1.21 0 .717.217 1.236.218.52.614.806.4.285.942.285.362 0 .656-.132a1.3 1.3 0 0 0 .498-.388q.205-.25.286-.605h1.24a2.4 2.4 0 0 1-.413 1.134 2.4 2.4 0 0 1-.925.784q-.576.285-1.351.285m5.223-2.352-.008-1.555h.221l2.608-2.77h1.526l-2.974 3.153h-.201zm-1.171 2.22v-8.727h1.274v8.727zm4.133 0-2.344-3.111.878-.89 3.03 4.001zm5.098.132q-.968 0-1.666-.413a2.8 2.8 0 0 1-1.074-1.172q-.375-.759-.375-1.777 0-1.005.375-1.773a2.9 2.9 0 0 1 1.056-1.197q.682-.43 1.594-.431.554 0 1.074.184.52.183.933.575t.652 1.018q.239.622.239 1.513v.452h-5.203v-.955h3.954q0-.503-.204-.89a1.54 1.54 0 0 0-.575-.618 1.6 1.6 0 0 0-.861-.226q-.537 0-.938.264a1.8 1.8 0 0 0-.613.682 2 2 0 0 0-.213.908v.745q0 .657.23 1.117.234.46.652.703.417.239.975.239.363 0 .661-.103a1.37 1.37 0 0 0 .848-.831l1.206.218q-.145.532-.52.933-.37.396-.933.618a3.5 3.5 0 0 1-1.274.217m5.496-4.018v3.886h-1.274v-6.545h1.223v1.065h.081q.225-.52.707-.835.486-.316 1.223-.316.67 0 1.172.282.502.276.78.826.276.55.277 1.36v4.163h-1.274v-4.01q0-.711-.371-1.112-.37-.405-1.019-.405-.443 0-.788.192a1.4 1.4 0 0 0-.541.562q-.196.367-.196.887m8.348 4.014q-.793 0-1.415-.405-.618-.409-.972-1.163-.349-.758-.349-1.82 0-1.06.354-1.815.357-.755.98-1.155a2.55 2.55 0 0 1 1.41-.401q.61 0 .98.205.375.2.58.469.209.268.324.473h.077v-3.243h1.274v8.727h-1.245v-1.018h-.106a3.4 3.4 0 0 1-.333.477 1.9 1.9 0 0 1-.588.469q-.375.2-.971.2m.281-1.087q.55 0 .929-.289.384-.294.58-.814.2-.52.2-1.211 0-.681-.196-1.193a1.76 1.76 0 0 0-.575-.797q-.38-.285-.938-.285-.575 0-.959.298-.383.298-.579.814a3.3 3.3 0 0 0-.192 1.163q0 .656.196 1.181.196.524.58.831.387.302.954.302m13.394 1.117-.768-.759 2.664-2.663h-6.691v-1.108h6.691l-2.664-2.659.768-.763 3.975 3.976zm14.092-5.105-1.155.204a1.4 1.4 0 0 0-.23-.422 1.14 1.14 0 0 0-.418-.328 1.5 1.5 0 0 0-.66-.128q-.541 0-.904.243-.362.238-.362.618 0 .328.243.529.243.2.784.328l1.04.238q.903.21 1.347.644t.443 1.129q0 .588-.341 1.048-.337.456-.942.716-.601.26-1.393.26-1.1 0-1.794-.469-.696-.472-.853-1.342l1.232-.187q.115.482.473.728.358.243.933.243.627 0 1.001-.26.375-.264.375-.643a.67.67 0 0 0-.23-.516q-.226-.209-.694-.315l-1.108-.243q-.917-.209-1.355-.665-.435-.456-.435-1.155 0-.579.324-1.014.324-.434.895-.677a3.3 3.3 0 0 1 1.308-.248q1.06 0 1.67.461.61.456.806 1.223m4.35 5.079q-.968 0-1.667-.413a2.8 2.8 0 0 1-1.073-1.172q-.375-.759-.375-1.777 0-1.005.375-1.773a2.9 2.9 0 0 1 1.056-1.197q.682-.43 1.594-.431.553 0 1.074.184.52.183.933.575t.652 1.018q.239.622.239 1.513v.452h-5.203v-.955h3.954q0-.503-.204-.89a1.54 1.54 0 0 0-.576-.618 1.6 1.6 0 0 0-.86-.226q-.537 0-.938.264a1.8 1.8 0 0 0-.613.682 2 2 0 0 0-.214.908v.745q0 .657.231 1.117.234.46.652.703.417.239.975.239.363 0 .661-.103a1.4 1.4 0 0 0 .516-.315 1.4 1.4 0 0 0 .332-.516l1.206.218q-.145.532-.52.933-.37.396-.933.618a3.5 3.5 0 0 1-1.274.217m6.979 0q-.95 0-1.637-.43a2.85 2.85 0 0 1-1.048-1.198q-.366-.762-.366-1.747 0-.997.375-1.76.375-.766 1.056-1.197.682-.43 1.607-.431.746 0 1.329.277.585.273.942.767.362.495.431 1.155h-1.24a1.5 1.5 0 0 0-.469-.792q-.363-.333-.972-.333a1.58 1.58 0 0 0-.933.282q-.396.276-.618.792-.222.512-.222 1.21 0 .717.218 1.236.217.52.613.806.401.285.942.285.363 0 .656-.132.299-.136.499-.388.204-.25.286-.605h1.24a2.4 2.4 0 0 1-.414 1.134q-.345.498-.924.784-.576.285-1.351.285m8.197-2.846v-3.831h1.279v6.545h-1.253v-1.133h-.068q-.226.524-.725.873-.494.345-1.231.345-.631 0-1.117-.277a1.94 1.94 0 0 1-.758-.831q-.273-.549-.273-1.359v-4.163h1.274v4.01q0 .669.371 1.065.37.396.963.396.358 0 .712-.179.358-.178.592-.541.238-.362.234-.92m2.991 2.714v-6.545h1.231v1.039h.069q.179-.528.63-.831a1.8 1.8 0 0 1 1.032-.306q.119 0 .281.008.166.009.26.022v1.218a2 2 0 0 0-.273-.047 3 3 0 0 0-.392-.029q-.452 0-.805.191a1.43 1.43 0 0 0-.759 1.283v3.997zm4.605 0v-6.545h1.275v6.545zm.644-7.555a.8.8 0 0 1-.571-.222.72.72 0 0 1-.235-.537q0-.315.235-.537a.8.8 0 0 1 .571-.226q.331 0 .567.226a.7.7 0 0 1 .238.537.7.7 0 0 1-.238.537.8.8 0 0 1-.567.222m5.4 1.01v1.022h-3.575v-1.022zm-2.616-1.568h1.274v6.191q0 .371.111.559a.58.58 0 0 0 .285.251q.179.064.388.064.153 0 .268-.021l.179-.035.23 1.053a2 2 0 0 1-.315.085 2.5 2.5 0 0 1-.511.051 2.2 2.2 0 0 1-.938-.179 1.6 1.6 0 0 1-.703-.579q-.268-.393-.268-.985zm4.831 10.568q-.285 0-.52-.047a1.7 1.7 0 0 1-.349-.094l.306-1.044q.35.095.623.081a.75.75 0 0 0 .481-.205q.213-.19.375-.626l.158-.435-2.395-6.63h1.364l1.657 5.079h.068l1.658-5.079h1.368l-2.698 7.419a3 3 0 0 1-.477.865 1.9 1.9 0 0 1-.69.537 2.3 2.3 0 0 1-.929.179m9.848-6.695v1.104h-3.869V201.4zm4.519 4.372q-.967 0-1.666-.413a2.8 2.8 0 0 1-1.074-1.172q-.375-.759-.375-1.777 0-1.005.375-1.773.38-.766 1.057-1.197.682-.43 1.594-.431.554 0 1.073.184.52.183.934.575.413.392.652 1.018.238.622.238 1.513v.452h-5.203v-.955h3.955a1.9 1.9 0 0 0-.205-.89 1.54 1.54 0 0 0-.575-.618 1.6 1.6 0 0 0-.861-.226q-.537 0-.937.264a1.8 1.8 0 0 0-.614.682 2 2 0 0 0-.213.908v.745q0 .657.23 1.117.235.46.652.703.418.239.976.239a2 2 0 0 0 .66-.103 1.36 1.36 0 0 0 .848-.831l1.206.218q-.144.532-.52.933-.37.396-.933.618a3.5 3.5 0 0 1-1.274.217m5.496-4.018v3.886h-1.274v-6.545h1.223v1.065h.081q.226-.52.707-.835.486-.316 1.223-.316.67 0 1.172.282.503.276.78.826t.277 1.36v4.163h-1.274v-4.01q0-.711-.371-1.112-.37-.405-1.018-.405-.443 0-.789.192a1.4 1.4 0 0 0-.541.562q-.196.367-.196.887m8.642 6.477q-.78 0-1.342-.204a2.6 2.6 0 0 1-.912-.542 2.3 2.3 0 0 1-.528-.737l1.095-.452q.115.187.307.397.195.213.528.362.336.149.865.149.724 0 1.197-.354.474-.35.473-1.116v-1.287h-.08a3 3 0 0 1-.333.464 1.8 1.8 0 0 1-.588.444q-.375.187-.976.187-.776 0-1.398-.362-.617-.367-.98-1.078-.358-.716-.358-1.76t.354-1.79q.358-.746.98-1.142a2.55 2.55 0 0 1 1.411-.401q.609 0 .984.205.375.2.584.469.213.268.328.473h.094v-1.061h1.248v6.69q0 .844-.392 1.385a2.3 2.3 0 0 1-1.061.801q-.665.26-1.5.26m-.013-3.746q.55 0 .929-.255.384-.26.58-.742.2-.486.2-1.163 0-.66-.196-1.164a1.73 1.73 0 0 0-.575-.784q-.379-.285-.938-.285-.575 0-.958.298a1.8 1.8 0 0 0-.58.801 3.2 3.2 0 0 0-.192 1.134q0 .643.196 1.129t.58.759q.388.272.954.272m4.675 1.155v-6.545h1.274v6.545zm.644-7.555a.8.8 0 0 1-.571-.222.72.72 0 0 1-.235-.537.7.7 0 0 1 .235-.537.8.8 0 0 1 .571-.226q.332 0 .566.226a.7.7 0 0 1 .239.537q0 .312-.239.537a.8.8 0 0 1-.566.222m3.619 3.669v3.886h-1.275v-6.545h1.223v1.065h.081q.226-.52.708-.835.486-.316 1.223-.316.668 0 1.172.282.502.276.78.826.276.55.277 1.36v4.163h-1.275v-4.01q0-.711-.37-1.112-.371-.405-1.019-.405-.443 0-.788.192a1.4 1.4 0 0 0-.541.562q-.196.367-.196.887m8.718 4.018q-.967 0-1.666-.413a2.8 2.8 0 0 1-1.074-1.172q-.375-.759-.375-1.777 0-1.005.375-1.773.38-.766 1.057-1.197.682-.43 1.594-.431.553 0 1.074.184.519.183.933.575t.652 1.018q.239.622.239 1.513v.452h-5.204v-.955h3.955a1.9 1.9 0 0 0-.205-.89 1.54 1.54 0 0 0-.575-.618 1.6 1.6 0 0 0-.861-.226q-.537 0-.937.264a1.8 1.8 0 0 0-.614.682 2 2 0 0 0-.213.908v.745q0 .657.23 1.117.235.46.652.703.418.239.976.239.363 0 .661-.103.297-.107.515-.315a1.4 1.4 0 0 0 .333-.516l1.206.218q-.145.532-.52.933-.371.396-.934.618a3.5 3.5 0 0 1-1.274.217m5.062-.051a.83.83 0 0 1-.601-.247.82.82 0 0 1-.251-.605q0-.35.251-.597a.82.82 0 0 1 .601-.251q.35 0 .601.251a.8.8 0 0 1 .251.597q0 .235-.119.43a.9.9 0 0 1-.307.307.8.8 0 0 1-.426.115m0-4.764a.82.82 0 0 1-.601-.252.82.82 0 0 1-.251-.6q0-.35.251-.597a.82.82 0 0 1 .601-.251q.35 0 .601.251a.8.8 0 0 1 .251.597q0 .234-.119.43a.9.9 0 0 1-.307.307.8.8 0 0 1-.426.115m5.491 4.802q-.916 0-1.62-.315-.699-.315-1.095-.869a2.1 2.1 0 0 1-.392-1.262 2.21 2.21 0 0 1 .861-1.798q.4-.316.895-.4v-.052a1.76 1.76 0 0 1-1.044-.698 2.04 2.04 0 0 1-.388-1.245 2.04 2.04 0 0 1 .354-1.193 2.47 2.47 0 0 1 .992-.831q.632-.302 1.437-.302.796 0 1.423.306.63.303.993.831.361.525.366 1.189a2.08 2.08 0 0 1-.4 1.245 1.78 1.78 0 0 1-1.032.698v.052q.49.084.882.4.397.311.631.78.239.465.243 1.018a2.14 2.14 0 0 1-.4 1.262q-.397.554-1.1.869-.699.315-1.606.315m0-1.078q.54 0 .937-.179.396-.183.614-.507a1.4 1.4 0 0 0 .221-.767 1.44 1.44 0 0 0-.238-.805 1.6 1.6 0 0 0-.627-.55 2 2 0 0 0-.907-.2q-.516 0-.917.2a1.6 1.6 0 0 0-.63.55 1.4 1.4 0 0 0-.226.805q-.004.44.209.767.217.324.618.507.4.18.946.179m0-4.061q.434 0 .771-.174a1.33 1.33 0 0 0 .729-1.215 1.36 1.36 0 0 0-.196-.716 1.25 1.25 0 0 0-.525-.473 1.7 1.7 0 0 0-.779-.17q-.453 0-.793.17a1.25 1.25 0 0 0-.524.473 1.3 1.3 0 0 0-.183.716q-.005.417.187.729.192.31.528.486.341.174.785.174m7.671 5.165q-1.01-.004-1.726-.533-.715-.528-1.095-1.538t-.379-2.433q0-1.419.379-2.425.384-1.005 1.099-1.534.72-.528 1.722-.528t1.717.532q.717.528 1.096 1.534.383 1.002.383 2.421 0 1.427-.379 2.437-.38 1.006-1.095 1.539-.716.528-1.722.528m0-1.138q.887 0 1.385-.865.503-.865.503-2.501 0-1.087-.23-1.837-.226-.754-.652-1.142a1.43 1.43 0 0 0-1.006-.392q-.882 0-1.385.869-.502.87-.507 2.502 0 1.09.226 1.845.23.75.652 1.138.422.383 1.014.383m7.746 1.138q-1.01-.004-1.726-.533-.715-.528-1.095-1.538t-.379-2.433q0-1.419.379-2.425.383-1.005 1.1-1.534.72-.528 1.721-.528t1.717.532q.717.528 1.096 1.534.383 1.002.383 2.421 0 1.427-.379 2.437-.38 1.006-1.095 1.539-.716.528-1.722.528m0-1.138q.887 0 1.385-.865.503-.865.503-2.501 0-1.087-.23-1.837-.226-.754-.652-1.142a1.43 1.43 0 0 0-1.006-.392q-.882 0-1.385.869-.503.87-.507 2.502 0 1.09.226 1.845.23.75.652 1.138.421.383 1.014.383m7.746 1.138q-1.01-.004-1.726-.533-.715-.528-1.095-1.538t-.379-2.433q0-1.419.379-2.425.383-1.005 1.1-1.534.72-.528 1.721-.528t1.718.532q.715.528 1.095 1.534.383 1.002.383 2.421 0 1.427-.379 2.437-.38 1.006-1.095 1.539-.715.528-1.722.528m0-1.138q.887 0 1.385-.865.503-.865.503-2.501 0-1.087-.23-1.837-.226-.754-.652-1.142a1.43 1.43 0 0 0-1.006-.392q-.881 0-1.385.869-.502.87-.507 2.502 0 1.09.226 1.845.23.75.652 1.138.422.383 1.014.383"/><path fill="#8e8f96" d="M111.372 222.768q-.518 0-.941-.195a1.6 1.6 0 0 1-.671-.572q-.249-.376-.249-.909 0-.47.185-.76.185-.295.494-.462a2.6 2.6 0 0 1 .681-.248q.377-.085.757-.135.497-.064.806-.096.313-.036.454-.117.147-.082.146-.284v-.029q0-.525-.288-.817-.284-.291-.862-.291-.6 0-.942.263-.34.262-.479.561l-.795-.284q.213-.497.568-.774.358-.28.781-.391.426-.113.838-.113.263 0 .604.063.344.061.664.253.323.19.536.578t.213 1.037v3.594h-.838v-.738h-.043a1.4 1.4 0 0 1-.284.379 1.6 1.6 0 0 1-.529.345q-.33.142-.806.142m.128-.753q.497 0 .838-.195a1.33 1.33 0 0 0 .696-1.154v-.767q-.053.063-.234.117a4 4 0 0 1-.412.089q-.23.035-.451.064-.217.024-.352.042a3.3 3.3 0 0 0-.611.139 1.05 1.05 0 0 0-.454.28q-.171.184-.171.504 0 .438.324.661.326.22.827.22m4.59-6.648v7.273h-.838v-7.273zm2.223 0v7.273h-.838v-7.273zm3.601 7.387q-.74 0-1.296-.352a2.4 2.4 0 0 1-.867-.983q-.309-.632-.309-1.478 0-.852.309-1.488.313-.635.867-.987.556-.351 1.296-.351.738 0 1.292.351.558.353.867.987.312.636.312 1.488 0 .845-.312 1.478a2.35 2.35 0 0 1-.867.983q-.554.352-1.292.352m0-.753q.561 0 .923-.288.363-.287.536-.756t.174-1.016q0-.546-.174-1.019a1.7 1.7 0 0 0-.536-.763q-.362-.292-.923-.292t-.923.292a1.7 1.7 0 0 0-.537.763 2.9 2.9 0 0 0-.174 1.019q0 .547.174 1.016t.537.756q.362.288.923.288m4.651.639-1.662-5.454h.881l1.179 4.176h.056l1.165-4.176h.895l1.151 4.162h.057l1.179-4.162h.88l-1.662 5.454h-.824l-1.193-4.19h-.085l-1.193 4.19zm9.864-3.508v.781h-3.182v-.781zm2.93 3.636q-.519 0-.941-.195a1.6 1.6 0 0 1-.671-.572q-.249-.376-.249-.909 0-.47.185-.76.184-.295.493-.462.31-.167.682-.248.376-.085.757-.135.497-.064.806-.096.313-.036.454-.117.146-.082.146-.284v-.029q0-.525-.288-.817-.284-.291-.863-.291-.6 0-.941.263-.34.262-.479.561l-.796-.284q.213-.497.569-.774.358-.28.781-.391.426-.113.838-.113.262 0 .604.063.344.061.664.253.323.19.536.578t.213 1.037v3.594h-.838v-.738h-.043a1.5 1.5 0 0 1-.284.379 1.6 1.6 0 0 1-.529.345q-.33.142-.806.142m.128-.753q.497 0 .838-.195a1.33 1.33 0 0 0 .696-1.154v-.767q-.054.063-.235.117a4 4 0 0 1-.411.089q-.232.035-.451.064-.217.024-.352.042a3.3 3.3 0 0 0-.611.139 1.05 1.05 0 0 0-.454.28q-.171.184-.171.504 0 .438.323.661.327.22.828.22m7.189-1.605v-3.224h.838v5.454h-.838v-.923h-.057a1.8 1.8 0 0 1-.596.707q-.405.287-1.023.287-.512 0-.909-.224a1.56 1.56 0 0 1-.625-.681q-.228-.459-.227-1.154v-3.466h.838v3.409q0 .596.333.951.338.356.86.356.312 0 .635-.16.327-.16.547-.49.224-.331.224-.842m4.595-3.224v.71h-2.826v-.71zm-2.003-1.307h.838v5.199q0 .355.103.532a.54.54 0 0 0 .27.235q.168.057.352.057.138 0 .227-.015l.142-.028.171.753a1.9 1.9 0 0 1-.625.099q-.355 0-.696-.153a1.37 1.37 0 0 1-.561-.465q-.22-.312-.221-.788zm4.069 3.48v3.281h-.838v-7.273h.838v2.671h.071a1.54 1.54 0 0 1 .575-.671q.388-.252 1.03-.252.558 0 .977.223.419.22.65.679.234.454.234 1.157v3.466h-.838v-3.409q0-.65-.337-1.005-.335-.359-.927-.359-.412 0-.739.174a1.27 1.27 0 0 0-.511.508 1.66 1.66 0 0 0-.185.81m5.034 3.281v-7.273h.838v2.685h.071a8 8 0 0 1 .256-.362q.167-.224.476-.398.312-.177.845-.177.689 0 1.214.344.526.344.821.977.294.631.294 1.491 0 .867-.294 1.502a2.33 2.33 0 0 1-.817.98q-.523.345-1.204.345-.525 0-.842-.174a1.6 1.6 0 0 1-.486-.402 5 5 0 0 1-.263-.376h-.099v.838zm.824-2.727q0 .618.181 1.09.181.47.529.735.348.263.852.263.526 0 .877-.277.356-.28.533-.753.181-.476.181-1.058 0-.575-.177-1.037a1.6 1.6 0 0 0-.529-.735q-.353-.273-.885-.274-.511 0-.859.26-.348.255-.526.717a3 3 0 0 0-.177 1.069m6.728 2.855q-.518 0-.941-.195a1.6 1.6 0 0 1-.671-.572q-.248-.376-.248-.909 0-.47.184-.76.185-.295.494-.462t.682-.248q.376-.085.756-.135.497-.064.806-.096.312-.036.455-.117.145-.082.145-.284v-.029q0-.525-.287-.817-.285-.291-.863-.291-.6 0-.941.263a1.55 1.55 0 0 0-.48.561l-.795-.284q.213-.497.568-.774.358-.28.781-.391.427-.113.838-.113.263 0 .604.063.345.061.664.253.323.19.536.578t.213 1.037v3.594h-.838v-.738h-.042a1.5 1.5 0 0 1-.284.379q-.199.203-.53.345a2 2 0 0 1-.806.142m.128-.753q.498 0 .838-.195a1.33 1.33 0 0 0 .696-1.154v-.767q-.052.063-.234.117a4 4 0 0 1-.412.089q-.23.035-.451.064-.216.024-.352.042a3.2 3.2 0 0 0-.61.139 1.05 1.05 0 0 0-.455.28q-.17.184-.17.504 0 .438.323.661.326.22.827.22m5.968.739q-.767 0-1.321-.362a2.36 2.36 0 0 1-.852-.998q-.299-.636-.299-1.453 0-.831.306-1.466.309-.64.859-.998.554-.362 1.293-.362.575 0 1.037.213t.756.596q.295.384.366.895h-.838a1.3 1.3 0 0 0-.426-.66q-.327-.292-.881-.292-.49 0-.859.256a1.66 1.66 0 0 0-.572.714 2.6 2.6 0 0 0-.203 1.076q0 .631.199 1.101.203.468.568.728.37.26.867.259.327 0 .593-.114a1.22 1.22 0 0 0 .714-.838h.838a1.95 1.95 0 0 1-1.087 1.481 2.4 2.4 0 0 1-1.058.224m4.001-2.102-.014-1.037h.17l2.387-2.429h1.037l-2.543 2.571h-.071zm-.781 1.988v-7.273h.838v7.273zm3.466 0-2.131-2.699.597-.582 2.599 3.281zm3.886.114q-.789 0-1.36-.348a2.34 2.34 0 0 1-.878-.98q-.305-.633-.305-1.471t.305-1.477q.31-.642.86-1.001.554-.362 1.292-.362.427 0 .842.142.415.141.756.461.342.316.544.838t.202 1.286v.355h-4.204v-.724h3.352q0-.462-.185-.824a1.4 1.4 0 0 0-.518-.572 1.45 1.45 0 0 0-.789-.21q-.5 0-.866.249a1.64 1.64 0 0 0-.558.639q-.195.395-.195.845v.483q0 .618.213 1.048.218.426.6.65.384.22.892.22.33 0 .596-.092.27-.096.465-.284.196-.192.302-.476l.81.227a1.8 1.8 0 0 1-.43.724q-.302.309-.745.483a2.8 2.8 0 0 1-.998.171m4.221-3.395v3.281h-.838v-5.454h.81v.852h.071q.192-.416.582-.668.391-.255 1.009-.255.553 0 .969.227.416.223.646.682.231.454.231 1.15v3.466h-.838v-3.409q0-.642-.334-1.001-.334-.363-.916-.363-.4 0-.717.174a1.25 1.25 0 0 0-.494.508q-.18.334-.181.81m6.921 3.395q-.681 0-1.203-.345a2.3 2.3 0 0 1-.817-.98q-.295-.636-.295-1.502 0-.86.295-1.491a2.3 2.3 0 0 1 .82-.977q.525-.344 1.215-.344.532 0 .841.177.313.174.476.398.167.22.259.362h.071v-2.685h.838v7.273h-.809v-.838h-.1q-.092.15-.263.376-.17.224-.486.402-.316.174-.842.174m.114-.753q.504 0 .852-.263.349-.266.529-.735.181-.472.181-1.09 0-.611-.177-1.069a1.55 1.55 0 0 0-.526-.717q-.348-.26-.859-.26-.532 0-.888.274-.352.27-.529.735a2.9 2.9 0 0 0-.174 1.037q0 .582.178 1.058.18.472.532.753.356.277.881.277m7.013-2.869v.781h-3.182v-.781zm1.324 3.508v-5.454h.81v.823h.057q.149-.404.539-.657.391-.252.881-.252.093 0 .231.004.138.003.21.011v.852a3 3 0 0 0-.196-.032 2 2 0 0 0-.316-.025q-.398 0-.71.167a1.22 1.22 0 0 0-.668 1.111v3.452zm3.571 0v-5.454h.838v5.454zm.426-6.363a.6.6 0 0 1-.423-.167.54.54 0 0 1-.174-.402q0-.234.174-.401a.6.6 0 0 1 .423-.167q.245 0 .419.167a.53.53 0 0 1 .178.401q0 .235-.178.402a.6.6 0 0 1-.419.167m5.661 2.13-.753.213a1.4 1.4 0 0 0-.21-.366q-.135-.18-.369-.298a1.34 1.34 0 0 0-.6-.117q-.5 0-.835.231-.33.226-.33.579 0 .313.227.493.228.182.711.302l.809.199q.732.177 1.09.543.359.363.359.934 0 .47-.27.838a1.8 1.8 0 0 1-.746.583 2.7 2.7 0 0 1-1.115.213q-.834 0-1.381-.362-.547-.363-.692-1.059l.795-.199q.114.44.43.661.32.22.834.22.586 0 .931-.248.348-.253.348-.604a.64.64 0 0 0-.199-.476q-.199-.195-.611-.291l-.909-.213q-.75-.178-1.101-.551-.348-.376-.348-.941 0-.461.259-.816.263-.356.714-.558a2.5 2.5 0 0 1 1.03-.202q.81 0 1.271.355.465.354.661.937m1.992 2.245-.014-1.037h.17l2.386-2.429h1.037l-2.542 2.571h-.071zm-.781 1.988v-7.273h.838v7.273zm3.466 0-2.131-2.699.596-.582 2.6 3.281zm3.885.114q-.788 0-1.36-.348a2.34 2.34 0 0 1-.877-.98q-.305-.633-.305-1.471t.305-1.477q.31-.642.86-1.001.554-.362 1.292-.362.426 0 .842.142.415.141.756.461.341.316.543.838.203.522.203 1.286v.355h-4.205v-.724h3.353q0-.462-.185-.824a1.4 1.4 0 0 0-.519-.572 1.45 1.45 0 0 0-.788-.21 1.5 1.5 0 0 0-.866.249 1.6 1.6 0 0 0-.558.639q-.195.395-.195.845v.483q0 .618.213 1.048.216.426.6.65.384.22.891.22.33 0 .597-.092.27-.096.465-.284.195-.192.302-.476l.81.227a1.8 1.8 0 0 1-.43.724q-.302.309-.746.483a2.8 2.8 0 0 1-.998.171m4.222-3.395v3.281h-.838v-5.454h.809v.852h.071q.192-.416.583-.668.39-.255 1.008-.255.555 0 .97.227.415.223.646.682.231.454.231 1.15v3.466h-.838v-3.409q0-.642-.334-1.001-.333-.363-.916-.363-.402 0-.717.174a1.25 1.25 0 0 0-.494.508q-.181.334-.181.81m7.063 5.44a3.1 3.1 0 0 1-1.044-.156 2.2 2.2 0 0 1-.728-.405 2.2 2.2 0 0 1-.458-.533l.668-.468q.113.149.287.341.174.195.476.337.306.146.799.146.66 0 1.09-.32t.43-1.001v-1.108h-.071a5 5 0 0 1-.263.369 1.5 1.5 0 0 1-.483.387q-.312.167-.845.167a2.27 2.27 0 0 1-1.186-.313 2.2 2.2 0 0 1-.827-.909q-.302-.595-.302-1.449 0-.837.294-1.459.295-.626.821-.966a2.16 2.16 0 0 1 1.214-.344q.533 0 .845.177.317.174.483.398.171.22.263.362h.085v-.866h.81v5.61q0 .703-.32 1.144-.315.443-.852.65-.532.209-1.186.209m-.028-2.997q.504 0 .852-.231.348-.23.529-.664.181-.433.181-1.037 0-.59-.177-1.04a1.57 1.57 0 0 0-.526-.707q-.348-.255-.859-.256-.533 0-.888.27-.352.27-.529.725a2.8 2.8 0 0 0-.174 1.008q0 .568.177 1.005.182.433.533.682.355.245.881.245m3.77.838v-5.454h.838v5.454zm.426-6.363a.6.6 0 0 1-.422-.167.54.54 0 0 1-.174-.402q0-.234.174-.401a.6.6 0 0 1 .422-.167q.246 0 .419.167a.53.53 0 0 1 .178.401q0 .235-.178.402a.58.58 0 0 1-.419.167m2.635 3.082v3.281h-.838v-5.454h.81v.852h.071q.192-.416.582-.668.391-.255 1.009-.255.554 0 .969.227.416.223.647.682.23.454.23 1.15v3.466h-.838v-3.409q0-.642-.334-1.001-.333-.363-.916-.363-.4 0-.717.174a1.25 1.25 0 0 0-.494.508q-.18.334-.181.81m7.149 3.395q-.789 0-1.36-.348a2.34 2.34 0 0 1-.878-.98q-.305-.633-.305-1.471t.305-1.477q.31-.642.86-1.001.554-.362 1.292-.362.427 0 .842.142.416.141.756.461.342.316.544.838t.202 1.286v.355h-4.204v-.724h3.352q0-.462-.185-.824a1.4 1.4 0 0 0-.518-.572 1.45 1.45 0 0 0-.789-.21q-.5 0-.866.249a1.64 1.64 0 0 0-.558.639q-.195.395-.195.845v.483q0 .618.213 1.048.218.426.6.65.384.22.892.22.33 0 .596-.092.27-.096.465-.284.196-.192.302-.476l.81.227a1.8 1.8 0 0 1-.43.724q-.302.309-.745.483a2.8 2.8 0 0 1-.998.171"/></g><rect width="309" height="230" x="63.5" y="125.5" stroke="#fff" stroke-opacity=".04" rx="7.5"/></g><g clip-path="url(#i)"><path fill="#3fb950" d="M92.98 320.12a.75.75 0 0 1 0 1.06l-7.25 7.25a.75.75 0 0 1-1.06 0l-3.25-3.25a.75.75 0 0 1 1.06-1.06l2.72 2.72 6.72-6.72a.75.75 0 0 1 1.06 0"/></g><path fill="#ececec" d="M111.761 319.145q-.621 0-1.125-.23a1.9 1.9 0 0 1-.797-.678q-.29-.442-.289-1.086 0-.555.213-.912.213-.358.575-.567a3 3 0 0 1 .81-.315q.447-.107.912-.162l.954-.111q.367-.047.533-.149.166-.103.166-.333v-.03q0-.558-.315-.865-.311-.306-.929-.306-.643 0-1.014.285-.367.281-.508.626l-1.197-.272q.213-.597.622-.963a2.5 2.5 0 0 1 .95-.537 3.7 3.7 0 0 1 1.13-.171q.391 0 .831.094.443.09.826.332.389.243.635.695.247.447.247 1.163V319h-1.244v-.895h-.051a1.8 1.8 0 0 1-.371.486 2 2 0 0 1-.635.396 2.5 2.5 0 0 1-.929.158m.277-1.023q.53 0 .904-.209.379-.209.575-.545.2-.34.2-.729v-.844q-.068.07-.264.128-.192.056-.439.098l-.481.073-.392.051a3 3 0 0 0-.678.158q-.303.11-.486.319-.179.205-.179.546 0 .473.35.716.35.238.89.238m8.797-1.836v-3.831h1.278V319h-1.253v-1.134h-.068q-.225.525-.724.874-.494.345-1.232.345a2.2 2.2 0 0 1-1.116-.277 1.94 1.94 0 0 1-.759-.831q-.272-.549-.272-1.359v-4.163h1.274v4.009q0 .67.37 1.066.372.396.964.396.357 0 .711-.179.358-.179.592-.541.24-.362.235-.92m6.046-3.831v1.022h-3.576v-1.022zm-2.617-1.569h1.274v6.192q0 .37.111.558a.58.58 0 0 0 .286.252q.179.063.387.064.154 0 .269-.022l.179-.034.23 1.053a2.5 2.5 0 0 1-.827.136 2.2 2.2 0 0 1-.937-.179 1.6 1.6 0 0 1-.703-.579q-.269-.393-.269-.985zm5.441 4.228V319h-1.274v-8.727h1.257v3.247h.081q.23-.528.703-.84.472-.31 1.236-.311.674 0 1.176.277.507.278.784.827.28.546.281 1.364V319h-1.274v-4.01q0-.72-.371-1.116-.37-.4-1.031-.401-.451 0-.81.192a1.4 1.4 0 0 0-.558.562q-.2.367-.2.887m9.801-.354v1.104h-3.869v-1.104zm1.8 4.24v-8.727h1.275v3.243h.076q.111-.205.32-.473.209-.269.579-.469.371-.204.981-.205.792 0 1.414.401.622.4.976 1.155.358.754.358 1.815t-.354 1.82q-.353.753-.971 1.163-.618.405-1.411.405-.596 0-.975-.2a1.9 1.9 0 0 1-.589-.469 3.6 3.6 0 0 1-.328-.477h-.106V319zm1.249-3.273q0 .69.2 1.211.2.519.58.813.379.29.929.29.572 0 .954-.302.384-.308.58-.831.2-.524.2-1.181 0-.648-.196-1.163a1.8 1.8 0 0 0-.579-.814q-.384-.298-.959-.298-.554 0-.938.285a1.76 1.76 0 0 0-.575.797 3.3 3.3 0 0 0-.196 1.193m8.066 3.418q-.622 0-1.125-.23a1.9 1.9 0 0 1-.797-.678q-.29-.442-.29-1.086 0-.555.213-.912.213-.358.575-.567.363-.209.81-.315t.912-.162l.955-.111q.366-.047.532-.149.166-.103.166-.333v-.03q0-.558-.315-.865-.31-.306-.929-.306-.643 0-1.014.285-.366.281-.507.626l-1.198-.272q.213-.597.623-.963.413-.37.95-.537a3.7 3.7 0 0 1 1.129-.171q.391 0 .831.094.444.09.827.332.387.243.635.695.246.447.247 1.163V319h-1.244v-.895h-.052a1.8 1.8 0 0 1-.37.486 2 2 0 0 1-.635.396 2.5 2.5 0 0 1-.929.158m.277-1.023q.528 0 .903-.209.38-.209.575-.545a1.4 1.4 0 0 0 .201-.729v-.844a.65.65 0 0 1-.265.128q-.191.056-.438.098l-.482.073-.392.051a3 3 0 0 0-.678.158q-.302.11-.485.319-.18.205-.179.546 0 .473.349.716.35.238.891.238m7.407 1.01q-.95 0-1.636-.43a2.85 2.85 0 0 1-1.049-1.198q-.366-.763-.366-1.747 0-.997.375-1.76.375-.767 1.057-1.197t1.606-.431q.746 0 1.33.277.584.273.942.767.362.495.43 1.155h-1.24a1.5 1.5 0 0 0-.469-.792q-.362-.333-.971-.333-.534 0-.934.281-.396.277-.618.793-.22.511-.221 1.21 0 .716.217 1.236.218.52.614.805.4.286.942.286.362 0 .656-.132a1.3 1.3 0 0 0 .498-.388q.205-.252.286-.605h1.24a2.4 2.4 0 0 1-.413 1.133 2.4 2.4 0 0 1-.925.785q-.576.285-1.351.285m5.223-2.352-.008-1.556h.221l2.608-2.769h1.526l-2.974 3.153h-.201zm-1.171 2.22v-8.727h1.274V319zm4.133 0-2.344-3.111.878-.89 3.03 4.001zm5.098.132q-.968 0-1.666-.413a2.8 2.8 0 0 1-1.074-1.172q-.375-.759-.375-1.777 0-1.006.375-1.773a2.9 2.9 0 0 1 1.056-1.197q.682-.43 1.594-.431.554 0 1.074.184.52.183.933.575t.652 1.018q.239.622.239 1.513v.452h-5.203v-.955h3.954q0-.503-.204-.89a1.54 1.54 0 0 0-.575-.618 1.6 1.6 0 0 0-.861-.226q-.537 0-.938.264a1.77 1.77 0 0 0-.613.682 2 2 0 0 0-.213.908v.745q0 .657.23 1.117.234.46.652.703.417.239.975.239.363 0 .661-.103a1.37 1.37 0 0 0 .848-.831l1.206.218q-.145.532-.52.933-.37.396-.933.618a3.5 3.5 0 0 1-1.274.217m5.496-4.018V319h-1.274v-6.545h1.223v1.065h.081q.225-.52.707-.835.486-.316 1.223-.316.67 0 1.172.282.502.276.78.826.276.55.277 1.36V319h-1.274v-4.01q0-.711-.371-1.112-.37-.405-1.019-.405-.443 0-.788.192a1.4 1.4 0 0 0-.541.562q-.196.367-.196.887m8.348 4.014q-.793 0-1.415-.405-.618-.41-.972-1.163-.349-.76-.349-1.82t.354-1.815q.357-.754.98-1.155a2.55 2.55 0 0 1 1.41-.401q.61 0 .98.205.375.2.58.469.209.268.324.473h.077v-3.243h1.274V319h-1.245v-1.018h-.106a3.4 3.4 0 0 1-.333.477 1.9 1.9 0 0 1-.588.469q-.375.2-.971.2m.281-1.087q.55 0 .929-.29.384-.294.58-.813.2-.52.2-1.211 0-.681-.196-1.193a1.76 1.76 0 0 0-.575-.797q-.38-.285-.938-.285-.575 0-.959.298-.383.298-.579.814a3.3 3.3 0 0 0-.192 1.163q0 .657.196 1.181.196.523.58.831.387.302.954.302m13.394 1.117-.768-.759 2.664-2.663h-6.691v-1.108h6.691l-2.664-2.659.768-.763 3.975 3.976zm9.187 2.297v-9h1.244v1.061h.107q.11-.205.319-.473.21-.269.58-.469.37-.204.98-.205.793 0 1.415.401.622.4.976 1.155.357.754.358 1.815 0 1.06-.354 1.82-.354.753-.972 1.163-.617.405-1.41.405-.597 0-.976-.2a1.9 1.9 0 0 1-.588-.469 3.6 3.6 0 0 1-.328-.477h-.077v3.473zm1.249-5.728q0 .69.2 1.211.2.519.579.813.38.29.929.29.571 0 .955-.302.384-.308.58-.831.2-.524.2-1.181 0-.648-.196-1.163a1.8 1.8 0 0 0-.58-.814q-.383-.298-.959-.298-.553 0-.937.285a1.75 1.75 0 0 0-.575.797 3.3 3.3 0 0 0-.196 1.193m8.914 3.405q-.92 0-1.606-.422a2.83 2.83 0 0 1-1.065-1.18q-.38-.759-.38-1.773 0-1.019.38-1.781a2.83 2.83 0 0 1 1.065-1.185q.686-.422 1.606-.422.921 0 1.607.422.686.421 1.065 1.185.38.762.38 1.781 0 1.014-.38 1.773a2.84 2.84 0 0 1-1.065 1.18q-.686.422-1.607.422m.005-1.07q.596 0 .988-.315.393-.315.58-.839a3.3 3.3 0 0 0 .192-1.155q0-.627-.192-1.151a1.87 1.87 0 0 0-.58-.848q-.392-.32-.988-.319-.601 0-.998.319a1.9 1.9 0 0 0-.583.848q-.188.524-.188 1.151 0 .63.188 1.155.192.524.583.839.397.315.998.315m9.374-4.009-1.155.204a1.4 1.4 0 0 0-.23-.422 1.15 1.15 0 0 0-.418-.328 1.5 1.5 0 0 0-.66-.128q-.541 0-.904.243-.362.238-.362.618a.65.65 0 0 0 .243.528q.243.2.784.329l1.04.238q.903.209 1.346.644.444.434.443 1.129 0 .588-.34 1.048-.338.456-.942.716-.601.26-1.394.26-1.1 0-1.794-.469-.695-.472-.852-1.342l1.232-.187q.114.481.473.728.357.243.933.243.626 0 1.001-.26.375-.264.375-.643a.67.67 0 0 0-.23-.516q-.225-.209-.695-.315l-1.107-.243q-.916-.209-1.356-.665-.434-.456-.434-1.155 0-.579.324-1.014t.894-.678a3.3 3.3 0 0 1 1.309-.247q1.06 0 1.67.461.61.455.806 1.223m4.584-1.598v1.022h-3.576v-1.022zm-2.617-1.569h1.274v6.192q0 .37.111.558a.58.58 0 0 0 .286.252q.178.063.388.064.153 0 .268-.022l.179-.034.23 1.053a2.5 2.5 0 0 1-.827.136 2.2 2.2 0 0 1-.937-.179 1.6 1.6 0 0 1-.703-.579q-.269-.393-.269-.985zm6.7 10.705q-.78 0-1.342-.205a2.6 2.6 0 0 1-.912-.541 2.3 2.3 0 0 1-.528-.737l1.095-.452q.114.187.307.397.195.212.528.362.337.149.865.149.725 0 1.197-.354.474-.35.473-1.116v-1.287h-.081a3 3 0 0 1-.332.464 1.8 1.8 0 0 1-.588.443q-.375.188-.976.188-.776 0-1.398-.362-.617-.367-.98-1.078-.357-.716-.358-1.76 0-1.044.354-1.79.358-.746.98-1.142a2.55 2.55 0 0 1 1.411-.401q.609 0 .984.205.375.2.584.469.213.268.328.473h.094v-1.061h1.248v6.69q0 .843-.392 1.385a2.3 2.3 0 0 1-1.061.801q-.665.26-1.5.26m-.013-3.746q.55 0 .929-.256a1.6 1.6 0 0 0 .58-.741q.2-.486.2-1.163 0-.66-.196-1.164a1.73 1.73 0 0 0-.575-.784q-.379-.285-.938-.285-.575 0-.958.298a1.8 1.8 0 0 0-.58.801 3.2 3.2 0 0 0-.192 1.134q0 .643.196 1.129t.58.758q.388.273.954.273m4.675 1.155v-6.545h1.232v1.039h.068a1.58 1.58 0 0 1 .631-.831 1.8 1.8 0 0 1 1.031-.306 5 5 0 0 1 .541.029v1.219a2 2 0 0 0-.273-.047q-.195-.03-.392-.03a1.66 1.66 0 0 0-.805.192 1.43 1.43 0 0 0-.759 1.283V319zm7.192.132q-.967 0-1.666-.413a2.8 2.8 0 0 1-1.074-1.172q-.375-.759-.375-1.777 0-1.006.375-1.773.38-.767 1.057-1.197.682-.43 1.594-.431.554 0 1.074.184.519.183.933.575.413.392.652 1.018.238.622.238 1.513v.452h-5.203v-.955h3.955a1.9 1.9 0 0 0-.205-.89 1.54 1.54 0 0 0-.575-.618 1.6 1.6 0 0 0-.861-.226q-.537 0-.937.264a1.8 1.8 0 0 0-.614.682 2 2 0 0 0-.213.908v.745q0 .657.23 1.117.234.46.652.703.418.239.976.239.363 0 .661-.103.297-.106.515-.315a1.4 1.4 0 0 0 .333-.516l1.206.218q-.145.532-.52.933-.372.396-.934.618a3.5 3.5 0 0 1-1.274.217m9.127-5.079-1.155.204a1.4 1.4 0 0 0-.23-.422 1.1 1.1 0 0 0-.418-.328 1.5 1.5 0 0 0-.66-.128q-.541 0-.903.243-.363.238-.363.618a.65.65 0 0 0 .243.528q.244.2.784.329l1.04.238q.903.209 1.347.644.443.434.443 1.129 0 .588-.341 1.048-.336.456-.942.716-.6.26-1.393.26-1.1 0-1.794-.469-.694-.472-.853-1.342l1.232-.187q.115.481.473.728.359.243.933.243.627 0 1.002-.26.375-.264.375-.643a.67.67 0 0 0-.23-.516q-.227-.209-.695-.315l-1.108-.243q-.917-.209-1.355-.665-.435-.456-.435-1.155 0-.579.324-1.014t.895-.678a3.3 3.3 0 0 1 1.308-.247q1.061 0 1.671.461.609.455.805 1.223m2.368 5.028a.83.83 0 0 1-.601-.247.83.83 0 0 1-.251-.605.8.8 0 0 1 .251-.597.82.82 0 0 1 .601-.251q.35 0 .601.251a.8.8 0 0 1 .252.597q0 .234-.12.43a.9.9 0 0 1-.307.307.8.8 0 0 1-.426.115m0-4.764a.82.82 0 0 1-.601-.252.82.82 0 0 1-.251-.601q0-.348.251-.596a.82.82 0 0 1 .601-.252q.35 0 .601.252a.8.8 0 0 1 .252.596q0 .235-.12.431a.9.9 0 0 1-.307.307.8.8 0 0 1-.426.115m5.423 4.802a3.3 3.3 0 0 1-1.44-.307 2.6 2.6 0 0 1-1.015-.852 2.26 2.26 0 0 1-.405-1.236h1.279q.046.563.498.925t1.083.362q.503 0 .89-.23.392-.234.614-.643.226-.41.226-.933 0-.533-.23-.951a1.7 1.7 0 0 0-.635-.656 1.8 1.8 0 0 0-.921-.243 2.5 2.5 0 0 0-.796.136 1.9 1.9 0 0 0-.648.358l-1.206-.179.49-4.397h4.798v1.129h-3.703l-.277 2.442h.051q.256-.248.678-.414.426-.166.912-.166a2.7 2.7 0 0 1 1.419.379q.626.38.984 1.036.363.652.358 1.5a2.9 2.9 0 0 1-.383 1.513 2.8 2.8 0 0 1-1.066 1.048q-.677.38-1.555.379m4.377-1.824v-1.065l3.772-5.957h.839v1.568h-.533l-2.697 4.27v.068h5.169v1.116zM273.79 319v-2.028l.009-.486v-6.213h1.248V319zm6.935.119q-.877 0-1.568-.302a2.67 2.67 0 0 1-1.086-.84 2.2 2.2 0 0 1-.426-1.253h1.338q.025.388.26.674.238.28.622.434.382.154.852.154.516 0 .912-.179.4-.18.626-.499.226-.324.226-.746 0-.438-.226-.771a1.47 1.47 0 0 0-.652-.528q-.426-.192-1.031-.192h-.737v-1.074h.737q.486 0 .852-.175.372-.174.58-.485.209-.316.209-.738 0-.404-.184-.703a1.23 1.23 0 0 0-.511-.473 1.7 1.7 0 0 0-.775-.17q-.427 0-.797.158-.368.153-.597.443-.23.285-.247.686h-1.274q.021-.708.417-1.245.401-.536 1.057-.839a3.4 3.4 0 0 1 1.458-.303q.839 0 1.448.329.615.323.946.865.337.54.333 1.184.004.733-.409 1.245-.41.51-1.091.686v.068q.869.132 1.346.69.482.558.478 1.385.004.72-.401 1.291a2.7 2.7 0 0 1-1.095.899q-.695.324-1.59.324m4.697-.119v-.955l2.953-3.059q.473-.5.779-.874.312-.38.465-.72.153-.341.153-.724 0-.435-.204-.75a1.34 1.34 0 0 0-.558-.49 1.8 1.8 0 0 0-.797-.175q-.47 0-.818.192a1.3 1.3 0 0 0-.537.541 1.7 1.7 0 0 0-.188.818h-1.257q0-.797.366-1.393.367-.597 1.006-.925a3.1 3.1 0 0 1 1.453-.333q.823 0 1.449.329.631.323.985.886.353.559.353 1.261 0 .486-.183.951-.179.464-.626 1.035-.448.567-1.245 1.376l-1.734 1.816v.064h3.929V319z"/><path fill="#8e8f96" d="M111.372 336.128q-.518 0-.941-.195a1.6 1.6 0 0 1-.671-.572q-.249-.376-.249-.909 0-.47.185-.76.185-.296.494-.462a2.6 2.6 0 0 1 .681-.248q.377-.085.757-.135.497-.064.806-.096.313-.036.454-.117.147-.082.146-.285v-.028q0-.526-.288-.817-.284-.291-.862-.291-.6 0-.942.263-.34.263-.479.561l-.795-.284q.213-.498.568-.774a2.1 2.1 0 0 1 .781-.391 3.2 3.2 0 0 1 .838-.114q.263 0 .604.064.344.062.664.252.323.192.536.579t.213 1.037V336h-.838v-.739h-.043a1.4 1.4 0 0 1-.284.38 1.6 1.6 0 0 1-.529.345 2.05 2.05 0 0 1-.806.142m.128-.753q.497 0 .838-.195a1.34 1.34 0 0 0 .696-1.154v-.767q-.053.063-.234.117a4 4 0 0 1-.412.088 17 17 0 0 1-.803.107 3 3 0 0 0-.611.139 1.05 1.05 0 0 0-.454.28q-.171.184-.171.504 0 .438.324.661.326.22.827.22m4.74-6.648V336h-.838v-7.273zm2.373 0V336h-.838v-7.273zm3.751 7.387q-.74 0-1.296-.352a2.4 2.4 0 0 1-.867-.984q-.309-.631-.309-1.477 0-.852.309-1.488a2.4 2.4 0 0 1 .867-.987q.557-.351 1.296-.352.738 0 1.292.352.558.351.867.987.312.636.312 1.488 0 .846-.312 1.477a2.35 2.35 0 0 1-.867.984q-.554.351-1.292.352m0-.753q.561 0 .923-.288.363-.288.536-.756t.174-1.016q0-.546-.174-1.019a1.7 1.7 0 0 0-.536-.764q-.362-.291-.923-.291t-.923.291a1.7 1.7 0 0 0-.537.764 2.9 2.9 0 0 0-.174 1.019q0 .547.174 1.016t.537.756q.362.288.923.288m4.801.639-1.662-5.455h.881l1.179 4.177h.056l1.165-4.177h.895l1.151 4.162h.057l1.179-4.162h.88L131.284 336h-.824l-1.193-4.19h-.085l-1.193 4.19zm10.014-3.509v.782h-3.182v-.782zm3.08 3.637q-.519 0-.941-.195a1.6 1.6 0 0 1-.671-.572q-.249-.376-.249-.909 0-.47.185-.76.184-.296.493-.462.31-.167.682-.248.376-.085.757-.135.497-.064.806-.096.313-.036.454-.117.146-.082.146-.285v-.028q0-.526-.288-.817-.284-.291-.863-.291-.6 0-.941.263t-.479.561l-.796-.284a1.9 1.9 0 0 1 .569-.774 2.1 2.1 0 0 1 .781-.391 3.2 3.2 0 0 1 .838-.114q.262 0 .604.064.344.062.664.252.323.192.536.579t.213 1.037V336h-.838v-.739h-.043a1.5 1.5 0 0 1-.284.38 1.6 1.6 0 0 1-.529.345 2.05 2.05 0 0 1-.806.142m.128-.753q.497 0 .838-.195a1.34 1.34 0 0 0 .696-1.154v-.767q-.054.063-.235.117a4 4 0 0 1-.411.088 18 18 0 0 1-.803.107 3 3 0 0 0-.611.139 1.05 1.05 0 0 0-.454.28q-.171.184-.171.504 0 .438.323.661.327.22.828.22m7.339-1.605v-3.225h.838V336h-.838v-.923h-.057a1.8 1.8 0 0 1-.596.706q-.405.288-1.023.288-.512 0-.909-.224a1.56 1.56 0 0 1-.625-.682q-.227-.458-.227-1.154v-3.466h.838v3.41q0 .596.333.951.338.355.86.355.312 0 .635-.159.328-.16.547-.49.224-.331.224-.842m4.745-3.225v.711h-2.826v-.711zm-2.003-1.306h.838v5.199q0 .355.103.532a.54.54 0 0 0 .27.235q.168.056.352.056.138 0 .227-.014l.142-.028.171.753a1.9 1.9 0 0 1-.625.099q-.355 0-.696-.153a1.4 1.4 0 0 1-.561-.465q-.22-.312-.221-.788zm4.219 3.48V336h-.838v-7.273h.838v2.671h.071a1.54 1.54 0 0 1 .575-.671q.388-.253 1.03-.253.558 0 .977.224.419.22.65.678.234.454.234 1.158V336h-.838v-3.409q0-.65-.337-1.005-.335-.359-.927-.359-.412 0-.739.174a1.27 1.27 0 0 0-.511.508 1.66 1.66 0 0 0-.185.81m5.184 3.281v-7.273h.838v2.685h.071q.093-.143.256-.362.167-.224.476-.398.312-.177.845-.178.689 0 1.214.345.526.345.821.976.294.633.294 1.492 0 .866-.294 1.502a2.33 2.33 0 0 1-.817.98q-.523.345-1.204.345-.525 0-.842-.174a1.6 1.6 0 0 1-.486-.402 5 5 0 0 1-.263-.376h-.099V336zm.824-2.727q0 .618.181 1.09.181.468.529.735.348.263.852.263.526 0 .877-.277.356-.28.533-.753.181-.476.181-1.058 0-.576-.177-1.037a1.6 1.6 0 0 0-.529-.735q-.353-.274-.885-.274-.511 0-.859.26-.348.255-.526.717a3 3 0 0 0-.177 1.069m6.878 2.855q-.518 0-.941-.195a1.63 1.63 0 0 1-.671-.572q-.248-.376-.248-.909 0-.47.184-.76.185-.296.494-.462t.682-.248q.376-.085.756-.135.497-.064.806-.096.312-.036.455-.117.145-.082.145-.285v-.028q0-.526-.287-.817-.285-.291-.863-.291-.6 0-.941.263a1.55 1.55 0 0 0-.48.561l-.795-.284q.213-.498.568-.774a2.1 2.1 0 0 1 .781-.391q.427-.114.838-.114.263 0 .604.064.345.062.664.252.323.192.536.579t.213 1.037V336h-.838v-.739h-.042a1.5 1.5 0 0 1-.284.38q-.199.202-.53.345-.33.142-.806.142m.128-.753q.498 0 .838-.195a1.34 1.34 0 0 0 .696-1.154v-.767q-.053.063-.234.117a4 4 0 0 1-.412.088 17 17 0 0 1-.803.107 3 3 0 0 0-.61.139 1.05 1.05 0 0 0-.455.28q-.17.184-.17.504 0 .438.323.661.326.22.827.22m6.118.739q-.767 0-1.321-.363a2.36 2.36 0 0 1-.852-.997q-.299-.636-.299-1.453 0-.831.306-1.466.309-.64.859-.998.554-.363 1.293-.363.575 0 1.037.214.461.212.756.596t.366.895h-.838a1.3 1.3 0 0 0-.426-.661q-.327-.291-.881-.291-.49 0-.859.256a1.66 1.66 0 0 0-.572.714 2.6 2.6 0 0 0-.203 1.076q0 .632.199 1.101.203.468.568.728.37.259.867.259.326 0 .593-.114t.451-.327a1.25 1.25 0 0 0 .263-.511h.838a1.95 1.95 0 0 1-.352.87 1.96 1.96 0 0 1-.735.611 2.4 2.4 0 0 1-1.058.224m4.151-2.103-.014-1.037h.17l2.387-2.429h1.037l-2.543 2.571h-.071zm-.781 1.989v-7.273h.838V336zm3.466 0-2.131-2.699.597-.582L181.72 336zm4.036.114q-.789 0-1.36-.348a2.34 2.34 0 0 1-.878-.98q-.305-.633-.305-1.471t.305-1.477q.31-.642.86-1.001.554-.363 1.292-.363.427 0 .842.142.416.143.756.462.342.316.544.838t.202 1.286v.355h-4.204v-.725h3.352q0-.461-.185-.823a1.4 1.4 0 0 0-.518-.572 1.45 1.45 0 0 0-.789-.21q-.5 0-.866.249a1.64 1.64 0 0 0-.558.639q-.195.395-.195.845v.483q0 .618.213 1.048.218.425.6.65.384.22.892.22.33 0 .596-.093.27-.095.465-.284.196-.191.302-.475l.81.227a1.8 1.8 0 0 1-.43.724q-.302.309-.745.483a2.8 2.8 0 0 1-.998.171m4.371-3.395V336h-.838v-5.455h.81v.853h.071q.192-.416.582-.668.391-.255 1.009-.256.553 0 .969.228.416.223.646.682.231.454.231 1.15V336h-.838v-3.409q0-.643-.334-1.002-.334-.362-.916-.362-.4 0-.717.174a1.25 1.25 0 0 0-.494.508q-.18.334-.181.81m7.071 3.395q-.681 0-1.203-.345a2.3 2.3 0 0 1-.817-.98q-.295-.635-.295-1.502 0-.86.295-1.492.295-.631.82-.976t1.215-.345q.532 0 .841.178.313.174.476.398.167.22.259.362h.071v-2.685h.838V336h-.809v-.838h-.1a5 5 0 0 1-.263.376 1.6 1.6 0 0 1-.486.402q-.316.174-.842.174m.114-.753q.504 0 .852-.263.348-.267.529-.735.181-.472.181-1.09 0-.611-.177-1.069a1.55 1.55 0 0 0-.526-.717q-.348-.26-.859-.26-.533 0-.888.274-.352.27-.529.735a2.9 2.9 0 0 0-.174 1.037q0 .582.178 1.058.18.472.532.753.356.276.881.277m7.163-2.87v.782h-3.182v-.782zm3.534 3.623q-.682 0-1.204-.345a2.33 2.33 0 0 1-.817-.98q-.294-.635-.294-1.502 0-.86.294-1.492.295-.631.821-.976a2.16 2.16 0 0 1 1.214-.345q.533 0 .842.178.312.174.476.398.166.22.259.362h.071v-2.685h.838V336h-.81v-.838h-.099a5 5 0 0 1-.263.376 1.6 1.6 0 0 1-.486.402q-.317.174-.842.174m.114-.753q.504 0 .852-.263.348-.267.529-.735.181-.472.181-1.09 0-.611-.178-1.069a1.55 1.55 0 0 0-.525-.717q-.349-.26-.859-.26-.534 0-.888.274a1.63 1.63 0 0 0-.529.735 2.9 2.9 0 0 0-.174 1.037q0 .582.177 1.058.181.472.533.753.355.276.881.277m4.151.639v-7.273h.838v2.685h.071q.092-.143.256-.362.166-.224.475-.398.313-.177.846-.178.689 0 1.214.345t.82.976q.295.633.295 1.492 0 .866-.295 1.502a2.3 2.3 0 0 1-.816.98q-.523.345-1.204.345-.526 0-.842-.174a1.6 1.6 0 0 1-.486-.402 5 5 0 0 1-.263-.376h-.1V336zm.824-2.727q0 .618.181 1.09.181.468.529.735.348.263.852.263.526 0 .877-.277.356-.28.533-.753.181-.476.181-1.058 0-.576-.177-1.037a1.6 1.6 0 0 0-.53-.735q-.351-.274-.884-.274-.511 0-.859.26-.348.255-.526.717a3 3 0 0 0-.177 1.069"/><mask id="j" fill="#fff"><path d="M64 239h309v56H64z"/></mask><path fill="#fff" fill-opacity=".06" d="M373 295v-1H64v2h309z" mask="url(#j)"/><g clip-path="url(#k)"><path fill="#3fb950" d="M92.98 264.12a.75.75 0 0 1 0 1.06l-7.25 7.25a.75.75 0 0 1-1.06 0l-3.25-3.25a.75.75 0 0 1 1.06-1.06l2.72 2.72 6.72-6.72a.75.75 0 0 1 1.06 0"/></g><path fill="#ececec" d="m114.761 258.053-1.154.204a1.4 1.4 0 0 0-.231-.422 1.14 1.14 0 0 0-.417-.328 1.5 1.5 0 0 0-.661-.128q-.54 0-.903.243-.363.238-.362.618a.65.65 0 0 0 .243.528q.243.2.784.329l1.039.238q.904.209 1.347.644.443.434.443 1.129 0 .588-.341 1.048-.336.456-.941.716-.602.26-1.394.26-1.1 0-1.794-.469-.695-.472-.852-1.342l1.231-.187q.116.481.473.728.358.243.934.243.626 0 1.001-.26.375-.264.375-.643a.67.67 0 0 0-.23-.516q-.226-.209-.695-.315l-1.108-.243q-.915-.209-1.355-.665-.435-.456-.434-1.155 0-.579.323-1.014.325-.435.895-.678a3.3 3.3 0 0 1 1.309-.247q1.06 0 1.67.461.61.455.805 1.223m4.35 5.079q-.967 0-1.666-.413a2.8 2.8 0 0 1-1.074-1.172q-.375-.759-.375-1.777 0-1.006.375-1.773.38-.767 1.057-1.197.681-.43 1.594-.431.553 0 1.074.184.519.183.933.575.413.392.652 1.018.238.622.238 1.513v.452h-5.203v-.955h3.955a1.9 1.9 0 0 0-.205-.89 1.54 1.54 0 0 0-.575-.618 1.6 1.6 0 0 0-.861-.226q-.537 0-.937.264a1.77 1.77 0 0 0-.614.682 2 2 0 0 0-.213.908v.745q0 .657.23 1.117.235.46.652.703.418.239.976.239.362 0 .66-.103a1.36 1.36 0 0 0 .848-.831l1.206.218a2.2 2.2 0 0 1-.519.933q-.372.396-.934.618a3.5 3.5 0 0 1-1.274.217m6.979 0q-.95 0-1.636-.43a2.84 2.84 0 0 1-1.048-1.198q-.367-.763-.367-1.747 0-.997.375-1.76.375-.767 1.057-1.197t1.606-.431q.747 0 1.33.277.583.273.942.767.362.495.43 1.155h-1.24a1.48 1.48 0 0 0-.469-.792q-.362-.333-.971-.333a1.6 1.6 0 0 0-.934.281q-.396.277-.617.793-.222.511-.222 1.21 0 .716.217 1.236.218.52.614.805.4.286.942.286.362 0 .656-.132.298-.136.499-.388.204-.252.285-.605h1.24a2.4 2.4 0 0 1-.413 1.133q-.345.499-.925.785-.575.285-1.351.285m8.198-2.846v-3.831h1.278V263h-1.252v-1.134h-.069q-.226.525-.724.874-.495.345-1.232.345a2.2 2.2 0 0 1-1.116-.277 1.94 1.94 0 0 1-.759-.831q-.272-.549-.272-1.359v-4.163h1.274v4.009q0 .67.371 1.066.37.396.963.396.357 0 .711-.179.358-.179.593-.541.239-.362.234-.92m2.99 2.714v-6.545h1.232v1.039h.068q.179-.528.631-.831a1.8 1.8 0 0 1 1.031-.306 5 5 0 0 1 .541.029v1.219a2 2 0 0 0-.272-.047 3 3 0 0 0-.393-.03 1.66 1.66 0 0 0-.805.192 1.43 1.43 0 0 0-.758 1.283V263zm4.606 0v-6.545h1.274V263zm.643-7.555a.8.8 0 0 1-.571-.222.72.72 0 0 1-.234-.537q0-.315.234-.537a.8.8 0 0 1 .571-.226q.333 0 .567.226a.7.7 0 0 1 .239.537q0 .31-.239.537a.8.8 0 0 1-.567.222m5.401 1.01v1.022h-3.576v-1.022zm-2.617-1.569h1.274v6.192q0 .37.111.558a.58.58 0 0 0 .286.252q.178.063.387.064.154 0 .269-.022l.179-.034.23 1.053a2.5 2.5 0 0 1-.827.136 2.2 2.2 0 0 1-.937-.179 1.6 1.6 0 0 1-.703-.579q-.269-.393-.269-.985zm4.831 10.569a2.7 2.7 0 0 1-.869-.141l.307-1.044q.35.093.622.081a.75.75 0 0 0 .482-.205q.213-.191.375-.626l.157-.435-2.395-6.63h1.364l1.658 5.079h.068l1.658-5.079h1.367l-2.697 7.419q-.188.51-.477.865a1.9 1.9 0 0 1-.691.537 2.3 2.3 0 0 1-.929.179m9.848-6.695v1.104h-3.869v-1.104zm4.52 4.372q-.968 0-1.667-.413a2.8 2.8 0 0 1-1.073-1.172q-.375-.759-.375-1.777 0-1.006.375-1.773a2.9 2.9 0 0 1 1.056-1.197q.682-.43 1.594-.431.554 0 1.074.184.52.183.933.575t.652 1.018q.239.622.239 1.513v.452h-5.203v-.955h3.954q0-.503-.204-.89a1.54 1.54 0 0 0-.576-.618 1.6 1.6 0 0 0-.86-.226q-.537 0-.938.264a1.8 1.8 0 0 0-.614.682 2 2 0 0 0-.213.908v.745q0 .657.231 1.117.234.46.652.703.417.239.975.239.363 0 .661-.103a1.4 1.4 0 0 0 .516-.315 1.4 1.4 0 0 0 .332-.516l1.206.218q-.145.532-.52.933-.37.396-.933.618a3.5 3.5 0 0 1-1.274.217m5.496-4.018V263h-1.274v-6.545h1.223v1.065h.081q.225-.52.707-.835.486-.316 1.223-.316.67 0 1.172.282.503.276.78.826.276.55.277 1.36V263h-1.275v-4.01q0-.711-.37-1.112-.37-.405-1.019-.405-.443 0-.788.192a1.4 1.4 0 0 0-.541.562q-.196.367-.196.887m8.642 6.477q-.78 0-1.343-.205a2.6 2.6 0 0 1-.912-.541 2.3 2.3 0 0 1-.528-.737l1.095-.452q.115.187.307.397.197.212.528.362.337.149.866.149.724 0 1.197-.354.473-.35.473-1.116v-1.287h-.081a3 3 0 0 1-.332.464 1.8 1.8 0 0 1-.588.443q-.376.188-.976.188-.775 0-1.398-.362-.618-.367-.98-1.078-.358-.716-.358-1.76t.354-1.79q.357-.746.98-1.142a2.55 2.55 0 0 1 1.41-.401q.61 0 .985.205.375.2.583.469.213.268.329.473h.093v-1.061h1.249v6.69q0 .843-.392 1.385a2.3 2.3 0 0 1-1.061.801q-.665.26-1.5.26m-.013-3.746q.55 0 .929-.256.384-.26.579-.741.201-.486.201-1.163 0-.66-.196-1.164a1.74 1.74 0 0 0-.576-.784q-.379-.285-.937-.285-.575 0-.959.298a1.8 1.8 0 0 0-.579.801 3.2 3.2 0 0 0-.192 1.134q0 .643.196 1.129.197.486.579.758.388.273.955.273M183.31 263v-6.545h1.274V263zm.643-7.555a.8.8 0 0 1-.571-.222.72.72 0 0 1-.234-.537q0-.315.234-.537a.8.8 0 0 1 .571-.226q.333 0 .567.226a.7.7 0 0 1 .239.537q0 .31-.239.537a.8.8 0 0 1-.567.222m3.619 3.669V263h-1.274v-6.545h1.223v1.065h.081q.225-.52.707-.835.486-.316 1.223-.316.67 0 1.172.282.502.276.78.826.277.55.277 1.36V263h-1.274v-4.01q0-.711-.371-1.112-.371-.405-1.018-.405-.444 0-.789.192a1.4 1.4 0 0 0-.541.562q-.196.367-.196.887m8.719 4.018q-.967 0-1.666-.413a2.8 2.8 0 0 1-1.074-1.172q-.375-.759-.375-1.777 0-1.006.375-1.773.38-.767 1.057-1.197.681-.43 1.593-.431.555 0 1.074.184.52.183.933.575t.652 1.018q.24.622.239 1.513v.452h-5.203v-.955h3.954q0-.503-.204-.89a1.54 1.54 0 0 0-.575-.618 1.6 1.6 0 0 0-.861-.226q-.537 0-.938.264a1.8 1.8 0 0 0-.613.682 2 2 0 0 0-.213.908v.745q0 .657.23 1.117.234.46.652.703.417.239.976.239.362 0 .66-.103a1.37 1.37 0 0 0 .848-.831l1.206.218q-.145.532-.52.933-.37.396-.933.618a3.5 3.5 0 0 1-1.274.217m12.835.026-.767-.759 2.663-2.663h-6.69v-1.108h6.69l-2.663-2.659.767-.763 3.976 3.976zm9.188 2.297v-9h1.244v1.061h.106q.111-.205.32-.473.208-.269.58-.469.37-.204.98-.205.793 0 1.414.401.623.4.976 1.155.358.754.358 1.815t-.353 1.82q-.354.753-.972 1.163-.618.405-1.411.405-.596 0-.975-.2a1.9 1.9 0 0 1-.588-.469 3.5 3.5 0 0 1-.329-.477h-.076v3.473zm1.248-5.728q0 .69.2 1.211.2.519.58.813.379.29.929.29.571 0 .954-.302.384-.308.58-.831.2-.524.2-1.181 0-.648-.196-1.163a1.8 1.8 0 0 0-.579-.814q-.384-.298-.959-.298-.554 0-.938.285a1.76 1.76 0 0 0-.575.797 3.3 3.3 0 0 0-.196 1.193m8.915 3.405q-.92 0-1.607-.422a2.84 2.84 0 0 1-1.065-1.18q-.38-.759-.379-1.773 0-1.019.379-1.781a2.84 2.84 0 0 1 1.065-1.185q.686-.422 1.607-.422t1.606.422q.687.421 1.066 1.185.38.762.379 1.781 0 1.014-.379 1.773a2.84 2.84 0 0 1-1.066 1.18q-.685.422-1.606.422m.004-1.07q.596 0 .989-.315.392-.315.579-.839a3.3 3.3 0 0 0 .192-1.155q0-.627-.192-1.151a1.9 1.9 0 0 0-.579-.848q-.393-.32-.989-.319-.6 0-.997.319a1.9 1.9 0 0 0-.584.848q-.187.524-.187 1.151 0 .63.187 1.155.192.524.584.839.397.315.997.315m9.374-4.009-1.155.204a1.4 1.4 0 0 0-.23-.422 1.14 1.14 0 0 0-.417-.328 1.5 1.5 0 0 0-.661-.128q-.541 0-.903.243-.363.238-.363.618a.65.65 0 0 0 .243.528q.244.2.784.329l1.04.238q.903.209 1.347.644.443.434.443 1.129 0 .588-.341 1.048-.336.456-.942.716-.6.26-1.393.26-1.1 0-1.794-.469-.694-.472-.852-1.342l1.231-.187q.115.481.473.728.359.243.933.243.627 0 1.002-.26.375-.264.375-.643a.67.67 0 0 0-.23-.516q-.227-.209-.695-.315l-1.108-.243q-.916-.209-1.355-.665-.435-.456-.435-1.155 0-.579.324-1.014t.895-.678a3.3 3.3 0 0 1 1.308-.247q1.061 0 1.671.461.609.455.805 1.223m4.584-1.598v1.022h-3.575v-1.022zm-2.616-1.569h1.274v6.192q0 .37.111.558a.58.58 0 0 0 .285.252q.18.063.388.064.153 0 .269-.022l.178-.034.231 1.053a2.5 2.5 0 0 1-.827.136 2.2 2.2 0 0 1-.938-.179 1.6 1.6 0 0 1-.703-.579q-.268-.393-.268-.985zm6.7 10.705q-.78 0-1.343-.205a2.6 2.6 0 0 1-.912-.541 2.3 2.3 0 0 1-.528-.737l1.095-.452q.115.187.307.397.197.212.528.362.337.149.866.149.724 0 1.197-.354.473-.35.473-1.116v-1.287h-.081a3 3 0 0 1-.332.464 1.8 1.8 0 0 1-.588.443q-.376.188-.976.188-.775 0-1.398-.362-.618-.367-.98-1.078-.358-.716-.358-1.76t.354-1.79q.357-.746.98-1.142a2.55 2.55 0 0 1 1.41-.401q.61 0 .985.205.375.2.583.469.213.268.329.473h.093v-1.061h1.249v6.69q0 .843-.392 1.385a2.3 2.3 0 0 1-1.061.801q-.665.26-1.5.26m-.013-3.746q.55 0 .929-.256.384-.26.579-.741.201-.486.201-1.163 0-.66-.196-1.164a1.74 1.74 0 0 0-.576-.784q-.379-.285-.937-.285-.575 0-.959.298a1.8 1.8 0 0 0-.579.801 3.2 3.2 0 0 0-.192 1.134q0 .643.196 1.129.197.486.579.758.388.273.955.273m4.675 1.155v-6.545h1.231v1.039h.068q.18-.528.631-.831a1.8 1.8 0 0 1 1.031-.306 5 5 0 0 1 .542.029v1.219a2 2 0 0 0-.273-.047 3 3 0 0 0-.392-.03q-.452 0-.806.192-.349.188-.554.524a1.4 1.4 0 0 0-.204.759V263zm7.192.132q-.968 0-1.666-.413a2.8 2.8 0 0 1-1.074-1.172q-.375-.759-.375-1.777 0-1.006.375-1.773.38-.767 1.057-1.197.681-.43 1.593-.431.555 0 1.074.184.52.183.933.575t.652 1.018q.239.622.239 1.513v.452h-5.203v-.955h3.954q0-.503-.204-.89a1.54 1.54 0 0 0-.575-.618 1.6 1.6 0 0 0-.861-.226q-.537 0-.938.264a1.8 1.8 0 0 0-.613.682 2 2 0 0 0-.213.908v.745q0 .657.23 1.117.234.46.652.703.417.239.976.239.361 0 .66-.103a1.37 1.37 0 0 0 .848-.831l1.206.218q-.145.532-.52.933-.37.396-.933.618a3.5 3.5 0 0 1-1.274.217m9.127-5.079-1.155.204a1.4 1.4 0 0 0-.23-.422 1.15 1.15 0 0 0-.418-.328 1.5 1.5 0 0 0-.661-.128q-.54 0-.903.243-.362.238-.362.618a.65.65 0 0 0 .243.528q.243.2.784.329l1.04.238q.903.209 1.346.644.443.434.443 1.129 0 .588-.341 1.048-.336.456-.941.716-.601.26-1.394.26-1.1 0-1.794-.469-.695-.472-.852-1.342l1.231-.187q.116.481.473.728.358.243.934.243.626 0 1.001-.26.375-.264.375-.643a.67.67 0 0 0-.23-.516q-.226-.209-.695-.315l-1.108-.243q-.915-.209-1.355-.665-.434-.456-.434-1.155 0-.579.324-1.014.323-.435.894-.678a3.3 3.3 0 0 1 1.309-.247q1.06 0 1.67.461.61.455.806 1.223m2.368 5.028a.83.83 0 0 1-.601-.247.83.83 0 0 1-.251-.605q0-.35.251-.597a.82.82 0 0 1 .601-.251q.35 0 .601.251a.8.8 0 0 1 .251.597q0 .234-.119.43a.9.9 0 0 1-.307.307.8.8 0 0 1-.426.115m0-4.764a.82.82 0 0 1-.601-.252.82.82 0 0 1-.251-.601q0-.348.251-.596a.82.82 0 0 1 .601-.252.82.82 0 0 1 .601.252.8.8 0 0 1 .251.596q0 .235-.119.431a.9.9 0 0 1-.307.307.8.8 0 0 1-.426.115m5.422 4.802a3.3 3.3 0 0 1-1.44-.307 2.6 2.6 0 0 1-1.014-.852 2.25 2.25 0 0 1-.405-1.236h1.278q.048.563.499.925.452.363 1.082.362.503 0 .891-.23.392-.234.614-.643.226-.41.226-.933 0-.533-.231-.951a1.7 1.7 0 0 0-.635-.656 1.8 1.8 0 0 0-.92-.243q-.396 0-.797.136a1.9 1.9 0 0 0-.648.358l-1.206-.179.49-4.397h4.799v1.129h-3.703l-.277 2.442h.051a2 2 0 0 1 .677-.414q.426-.166.912-.166a2.68 2.68 0 0 1 2.404 1.415q.361.652.358 1.5.004.848-.384 1.513a2.8 2.8 0 0 1-1.065 1.048q-.678.38-1.556.379m4.378-1.824v-1.065l3.771-5.957h.84v1.568h-.533l-2.697 4.27v.068h5.169v1.116zM283.81 263v-2.028l.008-.486v-6.213h1.249V263zm6.935.119q-.878 0-1.568-.302a2.66 2.66 0 0 1-1.087-.84 2.23 2.23 0 0 1-.426-1.253h1.338q.026.388.26.674.239.28.622.434.384.154.853.154.515 0 .911-.179.4-.18.627-.499.226-.324.226-.746 0-.438-.226-.771a1.5 1.5 0 0 0-.652-.528q-.426-.192-1.031-.192h-.738v-1.074h.738q.485 0 .852-.175.37-.174.579-.485a1.3 1.3 0 0 0 .209-.738 1.3 1.3 0 0 0-.183-.703 1.24 1.24 0 0 0-.511-.473 1.7 1.7 0 0 0-.776-.17 2 2 0 0 0-.797.158q-.366.153-.596.443a1.14 1.14 0 0 0-.248.686h-1.274q.022-.708.418-1.245a2.7 2.7 0 0 1 1.057-.839 3.4 3.4 0 0 1 1.457-.303q.84 0 1.449.329.613.323.946.865.336.54.332 1.184.005.733-.409 1.245-.408.51-1.091.686v.068q.87.132 1.347.69.482.558.477 1.385.005.72-.4 1.291a2.7 2.7 0 0 1-1.095.899q-.695.324-1.59.324m4.696-.119v-.955l2.953-3.059q.473-.5.78-.874.31-.38.464-.72.154-.341.154-.724 0-.435-.205-.75a1.33 1.33 0 0 0-.558-.49 1.8 1.8 0 0 0-.797-.175q-.468 0-.818.192a1.3 1.3 0 0 0-.537.541 1.7 1.7 0 0 0-.187.818h-1.257q0-.797.366-1.393a2.5 2.5 0 0 1 1.006-.925q.639-.333 1.453-.333.822 0 1.449.329.63.323.984.886.354.558.354 1.261 0 .486-.183.951-.18.464-.627 1.035-.447.567-1.244 1.376l-1.735 1.816v.064h3.929V263z"/><path fill="#8e8f96" d="M111.372 280.128q-.518 0-.941-.195a1.6 1.6 0 0 1-.671-.572q-.249-.376-.249-.909 0-.47.185-.76.185-.296.494-.462a2.6 2.6 0 0 1 .681-.248q.377-.085.757-.135.497-.064.806-.096.313-.036.454-.117.147-.082.146-.285v-.028q0-.526-.288-.817-.284-.291-.862-.291-.6 0-.942.263-.34.263-.479.561l-.795-.284q.213-.498.568-.774a2.1 2.1 0 0 1 .781-.391 3.2 3.2 0 0 1 .838-.114q.263 0 .604.064.344.062.664.252.323.192.536.579t.213 1.037V280h-.838v-.739h-.043a1.4 1.4 0 0 1-.284.38 1.6 1.6 0 0 1-.529.345 2.05 2.05 0 0 1-.806.142m.128-.753q.497 0 .838-.195a1.34 1.34 0 0 0 .696-1.154v-.767q-.053.063-.234.117a4 4 0 0 1-.412.088 17 17 0 0 1-.803.107 3 3 0 0 0-.611.139 1.05 1.05 0 0 0-.454.28q-.171.184-.171.504 0 .438.324.661.326.22.827.22m4.74-6.648V280h-.838v-7.273zm2.373 0V280h-.838v-7.273zm3.751 7.387q-.74 0-1.296-.352a2.4 2.4 0 0 1-.867-.984q-.309-.631-.309-1.477 0-.852.309-1.488a2.4 2.4 0 0 1 .867-.987q.557-.351 1.296-.352.738 0 1.292.352.558.351.867.987.312.636.312 1.488 0 .846-.312 1.477a2.35 2.35 0 0 1-.867.984q-.554.351-1.292.352m0-.753q.561 0 .923-.288.363-.288.536-.756t.174-1.016q0-.546-.174-1.019a1.7 1.7 0 0 0-.536-.764q-.362-.291-.923-.291t-.923.291a1.7 1.7 0 0 0-.537.764 2.9 2.9 0 0 0-.174 1.019q0 .547.174 1.016t.537.756q.362.288.923.288m4.801.639-1.662-5.455h.881l1.179 4.177h.056l1.165-4.177h.895l1.151 4.162h.057l1.179-4.162h.88L131.284 280h-.824l-1.193-4.19h-.085l-1.193 4.19zm10.014-3.509v.782h-3.182v-.782zm1.475 3.509v-5.455h.809v.824h.057q.15-.405.54-.657t.881-.252a7 7 0 0 1 .44.014v.853a2 2 0 0 0-.195-.032 2 2 0 0 0-.316-.025q-.397 0-.711.167a1.26 1.26 0 0 0-.49.454 1.23 1.23 0 0 0-.177.657V280zm3.72 0v-5.455h.839V280zm.427-6.364a.6.6 0 0 1-.423-.167.54.54 0 0 1-.174-.401q0-.234.174-.401a.6.6 0 0 1 .423-.167q.245 0 .419.167a.53.53 0 0 1 .177.401q0 .234-.177.401a.58.58 0 0 1-.419.167m5.81 2.131-.753.213a1.4 1.4 0 0 0-.209-.366 1 1 0 0 0-.37-.298 1.34 1.34 0 0 0-.6-.117q-.5 0-.834.231-.33.227-.33.579 0 .312.227.493t.71.302l.81.199q.731.177 1.09.543.359.363.359.934 0 .47-.27.838a1.8 1.8 0 0 1-.746.583q-.48.213-1.115.213-.835 0-1.381-.363-.548-.362-.693-1.058l.795-.199q.114.44.43.661.32.22.835.22.585 0 .93-.249.348-.252.348-.603a.63.63 0 0 0-.199-.476q-.198-.195-.611-.291l-.909-.213q-.749-.178-1.1-.551-.35-.376-.349-.941 0-.462.26-.817.263-.354.714-.557a2.5 2.5 0 0 1 1.029-.203q.81 0 1.272.356.465.354.66.937m2.142 2.244-.014-1.037h.171l2.386-2.429h1.037l-2.543 2.571h-.071zm-.781 1.989v-7.273h.838V280zm3.466 0-2.131-2.699.597-.582 2.599 3.281zm4.036.114q-.789 0-1.36-.348a2.34 2.34 0 0 1-.877-.98q-.306-.633-.306-1.471t.306-1.477a2.4 2.4 0 0 1 .859-1.001q.553-.363 1.293-.363.426 0 .841.142a2.1 2.1 0 0 1 .757.462q.34.316.543.838.202.522.202 1.286v.355h-4.204v-.725h3.352q0-.461-.185-.823a1.4 1.4 0 0 0-.518-.572 1.45 1.45 0 0 0-.788-.21q-.501 0-.867.249a1.63 1.63 0 0 0-.557.639 1.9 1.9 0 0 0-.196.845v.483q0 .618.213 1.048.217.425.601.65.383.22.891.22.33 0 .596-.093.27-.095.466-.284.195-.191.302-.475l.809.227a1.8 1.8 0 0 1-.429.724q-.302.309-.746.483a2.8 2.8 0 0 1-.998.171m4.371-3.395V280h-.838v-5.455h.81v.853h.071q.192-.416.582-.668.391-.255 1.009-.256.554 0 .969.228.416.223.647.682.23.454.23 1.15V280h-.838v-3.409q0-.643-.333-1.002-.334-.362-.917-.362-.4 0-.717.174a1.25 1.25 0 0 0-.494.508q-.18.334-.181.81m7.214 5.44a3.1 3.1 0 0 1-1.044-.156 2.2 2.2 0 0 1-1.187-.938l.668-.468q.114.149.288.341.174.195.476.337.305.145.799.145.66 0 1.09-.319.429-.32.429-1.002v-1.108h-.071a4 4 0 0 1-.262.37 1.5 1.5 0 0 1-.483.387q-.313.167-.845.167-.661 0-1.187-.313a2.2 2.2 0 0 1-.827-.909q-.302-.597-.302-1.449 0-.838.295-1.459a2.27 2.27 0 0 1 .82-.966q.526-.345 1.215-.345.533 0 .845.178.317.174.483.398.17.22.263.362h.085v-.867h.81v5.611q0 .703-.32 1.144a1.83 1.83 0 0 1-.852.65 3.2 3.2 0 0 1-1.186.209m-.029-2.997q.504 0 .852-.231.348-.23.53-.664.18-.433.181-1.037 0-.59-.178-1.04a1.55 1.55 0 0 0-.525-.707q-.348-.256-.86-.256-.532 0-.888.27-.35.27-.529.725a2.8 2.8 0 0 0-.174 1.008q0 .569.178 1.005.181.433.533.682.355.245.88.245m3.921.838v-5.455h.838V280zm.426-6.364a.6.6 0 0 1-.423-.167.54.54 0 0 1-.174-.401q0-.234.174-.401a.6.6 0 0 1 .423-.167q.245 0 .419.167a.53.53 0 0 1 .177.401q0 .234-.177.401a.58.58 0 0 1-.419.167m2.785 3.083V280h-.838v-5.455h.809v.853h.071q.192-.416.583-.668.39-.255 1.008-.256.555 0 .97.228.415.223.646.682.231.454.231 1.15V280h-.838v-3.409q0-.643-.334-1.002-.334-.362-.916-.362-.402 0-.718.174a1.25 1.25 0 0 0-.493.508q-.181.334-.181.81m7.298 3.395q-.788 0-1.36-.348a2.34 2.34 0 0 1-.877-.98q-.305-.633-.305-1.471t.305-1.477a2.4 2.4 0 0 1 .859-1.001q.555-.363 1.293-.363.426 0 .842.142.415.143.756.462.34.316.543.838t.203 1.286v.355h-4.205v-.725h3.352q0-.461-.184-.823a1.4 1.4 0 0 0-.519-.572 1.45 1.45 0 0 0-.788-.21q-.501 0-.866.249a1.6 1.6 0 0 0-.558.639q-.195.395-.195.845v.483q0 .618.213 1.048.216.425.6.65.384.22.891.22.33 0 .597-.093.27-.095.465-.284.195-.191.302-.475l.81.227a1.8 1.8 0 0 1-.43.724q-.302.309-.746.483a2.8 2.8 0 0 1-.998.171m6.659-3.623v.782h-3.182v-.782zm3.534 3.623q-.682 0-1.204-.345a2.33 2.33 0 0 1-.817-.98q-.294-.635-.294-1.502 0-.86.294-1.492.295-.631.821-.976a2.16 2.16 0 0 1 1.214-.345q.533 0 .842.178.312.174.476.398.166.22.259.362h.071v-2.685h.838V280h-.81v-.838h-.099a5 5 0 0 1-.263.376 1.6 1.6 0 0 1-.487.402q-.316.174-.841.174m.114-.753q.504 0 .852-.263.348-.267.529-.735.181-.472.181-1.09 0-.611-.178-1.069a1.55 1.55 0 0 0-.525-.717q-.348-.26-.859-.26-.534 0-.888.274a1.63 1.63 0 0 0-.529.735 2.9 2.9 0 0 0-.174 1.037q0 .582.177 1.058.181.472.533.753.355.276.881.277m4.151.639v-7.273h.838v2.685h.071q.092-.143.256-.362.166-.224.475-.398.313-.177.846-.178.689 0 1.214.345.526.345.82.976.295.633.295 1.492 0 .866-.295 1.502a2.3 2.3 0 0 1-.816.98q-.523.345-1.204.345-.526 0-.842-.174a1.6 1.6 0 0 1-.486-.402 5 5 0 0 1-.263-.376h-.1V280zm.824-2.727q0 .618.181 1.09.181.468.529.735.348.263.852.263.526 0 .877-.277.356-.28.533-.753.181-.476.181-1.058 0-.576-.177-1.037a1.6 1.6 0 0 0-.53-.735q-.351-.274-.884-.274-.511 0-.859.26-.348.255-.526.717a3 3 0 0 0-.177 1.069"/></g><defs><clipPath id="a"><path fill="#fff" d="M0 0h391v378H0z"/></clipPath><clipPath id="b"><path fill="#fff" d="M39 57c0-11.046 8.954-20 20-20h332v341H39z"/></clipPath><clipPath id="d"><rect width="310" height="231" x="63" y="125" fill="#fff" rx="8"/></clipPath><clipPath id="f"><path fill="#fff" d="M79 146.5h14v14H79z"/></clipPath><clipPath id="h"><path fill="#fff" d="M79 202.14h14v14H79z"/></clipPath><clipPath id="i"><path fill="#fff" d="M79 315.5h14v14H79z"/></clipPath><clipPath id="k"><path fill="#fff" d="M79 259.5h14v14H79z"/></clipPath></defs></svg>