<svg width="391" height="378" viewBox="0 0 391 378" fill="none" xmlns="http://www.w3.org/2000/svg">
<g clip-path="url(#clip0_2131_959)">
<path d="M0 1.99999C0 -0.209145 1.79086 -2 4 -2H387C389.209 -2 391 -0.209139 391 2V374C391 376.209 389.209 378 387 378H4C1.79086 378 0 376.209 0 374V1.99999Z" fill="#423D35"/>
<g clip-path="url(#clip1_2131_959)">
<path d="M39 57C39 45.9543 47.9543 37 59 37H391V378H39V57Z" fill="#14120B"/>
<rect width="352" height="32" transform="translate(39 37)" fill="#1B1913"/>
<mask id="path-4-inside-1_2131_959" fill="white">
<path d="M39 37H980V69H39V37Z"/>
</mask>
<path d="M980 69V68.2H39V69V69.8H980V69Z" fill="#EDECEC" fill-opacity="0.08" mask="url(#path-4-inside-1_2131_959)"/>
<path d="M47 52.6001C47 49.8387 49.2386 47.6001 52 47.6001C54.7614 47.6001 57 49.8387 57 52.6001C57 55.3615 54.7614 57.6001 52 57.6001C49.2386 57.6001 47 55.3615 47 52.6001Z" fill="#EDECEC" fill-opacity="0.2"/>
<path d="M63 52.6001C63 49.8387 65.2386 47.6001 68 47.6001C70.7614 47.6001 73 49.8387 73 52.6001C73 55.3615 70.7614 57.6001 68 57.6001C65.2386 57.6001 63 55.3615 63 52.6001Z" fill="#EDECEC" fill-opacity="0.2"/>
<path d="M79 52.6001C79 49.8387 81.2386 47.6001 84 47.6001C86.7614 47.6001 89 49.8387 89 52.6001C89 55.3615 86.7614 57.6001 84 57.6001C81.2386 57.6001 79 55.3615 79 52.6001Z" fill="#EDECEC" fill-opacity="0.2"/>
<rect width="362" height="261" transform="translate(39 69)" fill="#14120B"/>
<path d="M64.598 112V97.4545H69.7827C70.9096 97.4545 71.8447 97.6487 72.5881 98.0369C73.3362 98.4252 73.8949 98.9626 74.2642 99.6491C74.6335 100.331 74.8182 101.119 74.8182 102.014C74.8182 102.904 74.6312 103.688 74.2571 104.365C73.8878 105.037 73.3291 105.561 72.581 105.935C71.8376 106.309 70.9025 106.496 69.7756 106.496H65.848V104.607H69.5767C70.2869 104.607 70.8646 104.505 71.3097 104.301C71.7595 104.098 72.0885 103.802 72.2969 103.413C72.5052 103.025 72.6094 102.559 72.6094 102.014C72.6094 101.465 72.5028 100.989 72.2898 100.587C72.0814 100.184 71.7524 99.8764 71.3026 99.6634C70.8575 99.4455 70.2727 99.3366 69.5483 99.3366H66.7926V112H64.598ZM71.7784 105.438L75.3722 112H72.8722L69.3494 105.438H71.7784ZM81.3766 112.22C80.3539 112.22 79.4614 111.986 78.6991 111.517C77.9368 111.048 77.3449 110.393 76.9235 109.55C76.5021 108.707 76.2914 107.722 76.2914 106.595C76.2914 105.464 76.5021 104.474 76.9235 103.626C77.3449 102.779 77.9368 102.121 78.6991 101.652C79.4614 101.183 80.3539 100.949 81.3766 100.949C82.3994 100.949 83.2919 101.183 84.0542 101.652C84.8165 102.121 85.4084 102.779 85.8298 103.626C86.2512 104.474 86.4619 105.464 86.4619 106.595C86.4619 107.722 86.2512 108.707 85.8298 109.55C85.4084 110.393 84.8165 111.048 84.0542 111.517C83.2919 111.986 82.3994 112.22 81.3766 112.22ZM81.3837 110.438C82.0466 110.438 82.5959 110.262 83.0315 109.912C83.4671 109.562 83.789 109.095 83.9974 108.513C84.2104 107.93 84.317 107.289 84.317 106.588C84.317 105.892 84.2104 105.253 83.9974 104.67C83.789 104.083 83.4671 103.612 83.0315 103.257C82.5959 102.902 82.0466 102.724 81.3837 102.724C80.7161 102.724 80.1621 102.902 79.7218 103.257C79.2862 103.612 78.9619 104.083 78.7488 104.67C78.5405 105.253 78.4363 105.892 78.4363 106.588C78.4363 107.289 78.5405 107.93 78.7488 108.513C78.9619 109.095 79.2862 109.562 79.7218 109.912C80.1621 110.262 80.7161 110.438 81.3837 110.438ZM90.5558 97.4545V112H88.4322V97.4545H90.5558ZM97.7144 112.22C96.6396 112.22 95.7139 111.991 94.9374 111.531C94.1656 111.067 93.5691 110.416 93.1477 109.578C92.731 108.735 92.5227 107.748 92.5227 106.616C92.5227 105.499 92.731 104.514 93.1477 103.662C93.5691 102.81 94.1562 102.144 94.909 101.666C95.6666 101.188 96.552 100.949 97.5653 100.949C98.1808 100.949 98.7774 101.051 99.355 101.254C99.9327 101.458 100.451 101.777 100.91 102.213C101.37 102.649 101.732 103.214 101.997 103.911C102.262 104.602 102.395 105.442 102.395 106.432V107.185H93.7229V105.594H100.314C100.314 105.035 100.2 104.54 99.9729 104.109C99.7457 103.674 99.4261 103.33 99.0141 103.08C98.6069 102.829 98.1287 102.703 97.5795 102.703C96.9829 102.703 96.462 102.85 96.017 103.143C95.5766 103.432 95.2357 103.811 94.9942 104.28C94.7575 104.744 94.6391 105.248 94.6391 105.793V107.036C94.6391 107.765 94.767 108.385 95.0227 108.896C95.2831 109.408 95.6453 109.798 96.1093 110.068C96.5733 110.333 97.1155 110.466 97.7357 110.466C98.1382 110.466 98.5051 110.409 98.8366 110.295C99.168 110.177 99.4545 110.002 99.696 109.77C99.9374 109.538 100.122 109.251 100.25 108.911L102.26 109.273C102.099 109.865 101.81 110.383 101.393 110.828C100.981 111.268 100.463 111.612 99.838 111.858C99.2177 112.099 98.5099 112.22 97.7144 112.22ZM109.414 112V97.4545H114.599C115.731 97.4545 116.668 97.6605 117.412 98.0724C118.155 98.4844 118.711 99.0478 119.081 99.7628C119.45 100.473 119.635 101.273 119.635 102.163C119.635 103.058 119.448 103.863 119.074 104.578C118.704 105.288 118.145 105.852 117.397 106.268C116.654 106.68 115.719 106.886 114.592 106.886H111.027V105.026H114.393C115.108 105.026 115.688 104.902 116.133 104.656C116.578 104.405 116.905 104.064 117.113 103.634C117.322 103.203 117.426 102.713 117.426 102.163C117.426 101.614 117.322 101.126 117.113 100.7C116.905 100.274 116.576 99.9403 116.126 99.6989C115.681 99.4574 115.094 99.3366 114.365 99.3366H111.609V112H109.414ZM126.202 112.22C125.127 112.22 124.201 111.991 123.425 111.531C122.653 111.067 122.057 110.416 121.635 109.578C121.218 108.735 121.01 107.748 121.01 106.616C121.01 105.499 121.218 104.514 121.635 103.662C122.057 102.81 122.644 102.144 123.397 101.666C124.154 101.188 125.04 100.949 126.053 100.949C126.668 100.949 127.265 101.051 127.843 101.254C128.42 101.458 128.939 101.777 129.398 102.213C129.857 102.649 130.219 103.214 130.485 103.911C130.75 104.602 130.882 105.442 130.882 106.432V107.185H122.21V105.594H128.801C128.801 105.035 128.688 104.54 128.46 104.109C128.233 103.674 127.914 103.33 127.502 103.08C127.094 102.829 126.616 102.703 126.067 102.703C125.47 102.703 124.95 102.85 124.504 103.143C124.064 103.432 123.723 103.811 123.482 104.28C123.245 104.744 123.127 105.248 123.127 105.793V107.036C123.127 107.765 123.254 108.385 123.51 108.896C123.771 109.408 124.133 109.798 124.597 110.068C125.061 110.333 125.603 110.466 126.223 110.466C126.626 110.466 126.993 110.409 127.324 110.295C127.656 110.177 127.942 110.002 128.183 109.77C128.425 109.538 128.61 109.251 128.737 108.911L130.747 109.273C130.586 109.865 130.298 110.383 129.881 110.828C129.469 111.268 128.95 111.612 128.325 111.858C127.705 112.099 126.997 112.22 126.202 112.22ZM132.838 112V101.091H134.891V102.824H135.005C135.204 102.237 135.554 101.775 136.056 101.439C136.562 101.098 137.135 100.928 137.775 100.928C137.907 100.928 138.063 100.932 138.243 100.942C138.428 100.951 138.572 100.963 138.677 100.977V103.009C138.591 102.985 138.44 102.959 138.222 102.93C138.004 102.897 137.786 102.881 137.569 102.881C137.067 102.881 136.619 102.987 136.226 103.2C135.838 103.409 135.53 103.7 135.303 104.074C135.076 104.443 134.962 104.865 134.962 105.338V112H132.838ZM140.114 112V101.091H142.153V102.866H142.288C142.515 102.265 142.887 101.796 143.403 101.46C143.919 101.119 144.537 100.949 145.256 100.949C145.985 100.949 146.596 101.119 147.089 101.46C147.586 101.801 147.953 102.27 148.19 102.866H148.303C148.564 102.284 148.978 101.82 149.546 101.474C150.114 101.124 150.791 100.949 151.577 100.949C152.567 100.949 153.374 101.259 153.999 101.879C154.629 102.5 154.944 103.435 154.944 104.685V112H152.82V104.884C152.82 104.145 152.619 103.61 152.217 103.278C151.814 102.947 151.334 102.781 150.775 102.781C150.084 102.781 149.546 102.994 149.163 103.42C148.779 103.842 148.587 104.384 148.587 105.047V112H146.471V104.749C146.471 104.157 146.286 103.681 145.917 103.321C145.548 102.961 145.067 102.781 144.475 102.781C144.073 102.781 143.701 102.888 143.36 103.101C143.024 103.309 142.752 103.6 142.543 103.974C142.34 104.348 142.238 104.782 142.238 105.274V112H140.114ZM157.39 112V101.091H159.514V112H157.39ZM158.463 99.4077C158.093 99.4077 157.776 99.2846 157.511 99.0384C157.25 98.7874 157.12 98.4891 157.12 98.1435C157.12 97.7931 157.25 97.4948 157.511 97.2486C157.776 96.9976 158.093 96.8722 158.463 96.8722C158.832 96.8722 159.147 96.9976 159.407 97.2486C159.672 97.4948 159.805 97.7931 159.805 98.1435C159.805 98.4891 159.672 98.7874 159.407 99.0384C159.147 99.2846 158.832 99.4077 158.463 99.4077ZM170.145 103.754L168.221 104.095C168.14 103.849 168.012 103.615 167.837 103.392C167.667 103.17 167.435 102.987 167.141 102.845C166.847 102.703 166.48 102.632 166.04 102.632C165.439 102.632 164.937 102.767 164.534 103.037C164.132 103.302 163.931 103.645 163.931 104.067C163.931 104.431 164.066 104.725 164.336 104.947C164.605 105.17 165.041 105.352 165.642 105.494L167.375 105.892C168.379 106.124 169.127 106.482 169.62 106.964C170.112 107.447 170.358 108.075 170.358 108.847C170.358 109.5 170.169 110.082 169.79 110.594C169.416 111.1 168.893 111.498 168.221 111.787C167.553 112.076 166.779 112.22 165.898 112.22C164.676 112.22 163.68 111.96 162.908 111.439C162.136 110.913 161.663 110.168 161.488 109.202L163.54 108.889C163.668 109.424 163.931 109.829 164.328 110.104C164.726 110.374 165.245 110.509 165.884 110.509C166.58 110.509 167.136 110.364 167.553 110.075C167.97 109.782 168.178 109.424 168.178 109.003C168.178 108.662 168.05 108.375 167.794 108.143C167.543 107.911 167.158 107.736 166.637 107.618L164.79 107.213C163.772 106.981 163.019 106.612 162.532 106.105C162.049 105.598 161.807 104.957 161.807 104.18C161.807 103.536 161.987 102.973 162.347 102.49C162.707 102.007 163.204 101.631 163.838 101.361C164.473 101.086 165.2 100.949 166.019 100.949C167.198 100.949 168.126 101.205 168.803 101.716C169.48 102.223 169.927 102.902 170.145 103.754ZM180.468 103.754L178.543 104.095C178.463 103.849 178.335 103.615 178.16 103.392C177.989 103.17 177.757 102.987 177.464 102.845C177.17 102.703 176.803 102.632 176.363 102.632C175.761 102.632 175.26 102.767 174.857 103.037C174.455 103.302 174.253 103.645 174.253 104.067C174.253 104.431 174.388 104.725 174.658 104.947C174.928 105.17 175.364 105.352 175.965 105.494L177.698 105.892C178.702 106.124 179.45 106.482 179.942 106.964C180.435 107.447 180.681 108.075 180.681 108.847C180.681 109.5 180.492 110.082 180.113 110.594C179.739 111.1 179.216 111.498 178.543 111.787C177.876 112.076 177.101 112.22 176.221 112.22C174.999 112.22 174.002 111.96 173.231 111.439C172.459 110.913 171.985 110.168 171.81 109.202L173.863 108.889C173.991 109.424 174.253 109.829 174.651 110.104C175.049 110.374 175.567 110.509 176.207 110.509C176.903 110.509 177.459 110.364 177.876 110.075C178.292 109.782 178.501 109.424 178.501 109.003C178.501 108.662 178.373 108.375 178.117 108.143C177.866 107.911 177.48 107.736 176.959 107.618L175.113 107.213C174.095 106.981 173.342 106.612 172.854 106.105C172.371 105.598 172.13 104.957 172.13 104.18C172.13 103.536 172.31 102.973 172.67 102.49C173.029 102.007 173.527 101.631 174.161 101.361C174.796 101.086 175.522 100.949 176.341 100.949C177.52 100.949 178.448 101.205 179.126 101.716C179.803 102.223 180.25 102.902 180.468 103.754ZM182.616 112V101.091H184.739V112H182.616ZM183.688 99.4077C183.319 99.4077 183.002 99.2846 182.737 99.0384C182.476 98.7874 182.346 98.4891 182.346 98.1435C182.346 97.7931 182.476 97.4948 182.737 97.2486C183.002 96.9976 183.319 96.8722 183.688 96.8722C184.058 96.8722 184.372 96.9976 184.633 97.2486C184.898 97.4948 185.031 97.7931 185.031 98.1435C185.031 98.4891 184.898 98.7874 184.633 99.0384C184.372 99.2846 184.058 99.4077 183.688 99.4077ZM191.791 112.22C190.769 112.22 189.876 111.986 189.114 111.517C188.352 111.048 187.76 110.393 187.338 109.55C186.917 108.707 186.706 107.722 186.706 106.595C186.706 105.464 186.917 104.474 187.338 103.626C187.76 102.779 188.352 102.121 189.114 101.652C189.876 101.183 190.769 100.949 191.791 100.949C192.814 100.949 193.707 101.183 194.469 101.652C195.231 102.121 195.823 102.779 196.245 103.626C196.666 104.474 196.877 105.464 196.877 106.595C196.877 107.722 196.666 108.707 196.245 109.55C195.823 110.393 195.231 111.048 194.469 111.517C193.707 111.986 192.814 112.22 191.791 112.22ZM191.799 110.438C192.461 110.438 193.011 110.262 193.446 109.912C193.882 109.562 194.204 109.095 194.412 108.513C194.625 107.93 194.732 107.289 194.732 106.588C194.732 105.892 194.625 105.253 194.412 104.67C194.204 104.083 193.882 103.612 193.446 103.257C193.011 102.902 192.461 102.724 191.799 102.724C191.131 102.724 190.577 102.902 190.137 103.257C189.701 103.612 189.377 104.083 189.164 104.67C188.955 105.253 188.851 105.892 188.851 106.588C188.851 107.289 188.955 107.93 189.164 108.513C189.377 109.095 189.701 109.562 190.137 109.912C190.577 110.262 191.131 110.438 191.799 110.438ZM200.971 105.523V112H198.847V101.091H200.885V102.866H201.02C201.271 102.289 201.664 101.825 202.199 101.474C202.739 101.124 203.419 100.949 204.238 100.949C204.981 100.949 205.632 101.105 206.191 101.418C206.75 101.725 207.183 102.185 207.491 102.795C207.798 103.406 207.952 104.161 207.952 105.061V112H205.829V105.317C205.829 104.526 205.623 103.908 205.211 103.463C204.799 103.013 204.233 102.788 203.513 102.788C203.021 102.788 202.583 102.895 202.199 103.108C201.821 103.321 201.52 103.634 201.297 104.045C201.08 104.453 200.971 104.945 200.971 105.523ZM218.575 103.754L216.65 104.095C216.57 103.849 216.442 103.615 216.267 103.392C216.096 103.17 215.864 102.987 215.571 102.845C215.277 102.703 214.91 102.632 214.47 102.632C213.868 102.632 213.367 102.767 212.964 103.037C212.562 103.302 212.36 103.645 212.36 104.067C212.36 104.431 212.495 104.725 212.765 104.947C213.035 105.17 213.471 105.352 214.072 105.494L215.805 105.892C216.809 106.124 217.557 106.482 218.049 106.964C218.542 107.447 218.788 108.075 218.788 108.847C218.788 109.5 218.599 110.082 218.22 110.594C217.846 111.1 217.323 111.498 216.65 111.787C215.983 112.076 215.208 112.22 214.328 112.22C213.106 112.22 212.109 111.96 211.338 111.439C210.566 110.913 210.092 110.168 209.917 109.202L211.97 108.889C212.098 109.424 212.36 109.829 212.758 110.104C213.156 110.374 213.674 110.509 214.314 110.509C215.01 110.509 215.566 110.364 215.983 110.075C216.399 109.782 216.608 109.424 216.608 109.003C216.608 108.662 216.48 108.375 216.224 108.143C215.973 107.911 215.587 107.736 215.066 107.618L213.22 107.213C212.202 106.981 211.449 106.612 210.961 106.105C210.478 105.598 210.237 104.957 210.237 104.18C210.237 103.536 210.417 102.973 210.777 102.49C211.136 102.007 211.634 101.631 212.268 101.361C212.903 101.086 213.629 100.949 214.449 100.949C215.627 100.949 216.556 101.205 217.233 101.716C217.91 102.223 218.357 102.902 218.575 103.754Z" fill="#ECECEC"/>
</g>
<mask id="path-10-inside-2_2131_959" fill="white">
<path d="M63 139C63 131.268 69.268 125 77 125H391V378H63V139Z"/>
</mask>
<path d="M63 139C63 131.268 69.268 125 77 125H391V378H63V139Z" fill="black" fill-opacity="0.25"/>
<path d="M62.36 139C62.36 130.915 68.9146 124.36 77 124.36H391V125.64H77C69.6215 125.64 63.64 131.621 63.64 139H62.36ZM63.64 139M391 378H63H391M62.36 378V139C62.36 130.915 68.9146 124.36 77 124.36V125.64C69.6215 125.64 63.64 131.621 63.64 139V378H62.36ZM63.64 378M391 125V378V125" fill="white" fill-opacity="0.06" mask="url(#path-10-inside-2_2131_959)"/>
<mask id="path-12-inside-3_2131_959" fill="white">
<path d="M63.64 125.64H389.64V176.28H63.64V125.64Z"/>
</mask>
<path d="M389.64 176.28V175.64H63.64V176.28V176.92H389.64V176.28Z" fill="white" fill-opacity="0.06" mask="url(#path-12-inside-3_2131_959)"/>
<path d="M84.5679 155.64V148.549H85.9021V149.676H85.976C86.1052 149.294 86.333 148.994 86.6592 148.775C86.9885 148.554 87.3609 148.443 87.7764 148.443C87.8626 148.443 87.9641 148.446 88.0811 148.452C88.2011 148.458 88.295 148.466 88.3627 148.475V149.796C88.3073 149.78 88.2088 149.763 88.0672 149.745C87.9256 149.723 87.7841 149.713 87.6425 149.713C87.3163 149.713 87.0254 149.782 86.77 149.92C86.5176 150.056 86.3176 150.245 86.1698 150.488C86.0221 150.728 85.9483 151.002 85.9483 151.31V155.64H84.5679ZM92.3594 155.783C91.6608 155.783 91.0591 155.634 90.5543 155.335C90.0527 155.034 89.6649 154.611 89.391 154.066C89.1202 153.518 88.9847 152.876 88.9847 152.141C88.9847 151.415 89.1202 150.774 89.391 150.22C89.6649 149.666 90.0465 149.234 90.5359 148.923C91.0283 148.612 91.6038 148.457 92.2624 148.457C92.6625 148.457 93.0503 148.523 93.4258 148.655C93.8013 148.788 94.1383 148.995 94.4368 149.279C94.7353 149.562 94.9708 149.93 95.1431 150.382C95.3155 150.831 95.4016 151.378 95.4016 152.021V152.51H89.7649V151.476H94.049C94.049 151.113 93.9752 150.791 93.8274 150.511C93.6797 150.228 93.472 150.005 93.2042 149.842C92.9395 149.679 92.6287 149.597 92.2717 149.597C91.8839 149.597 91.5453 149.693 91.256 149.883C90.9698 150.071 90.7482 150.317 90.5913 150.622C90.4374 150.924 90.3605 151.251 90.3605 151.605V152.413C90.3605 152.887 90.4435 153.29 90.6097 153.623C90.779 153.955 91.0145 154.209 91.3161 154.384C91.6177 154.557 91.9701 154.643 92.3732 154.643C92.6348 154.643 92.8734 154.606 93.0888 154.532C93.3042 154.455 93.4904 154.341 93.6474 154.191C93.8043 154.04 93.9244 153.854 94.0075 153.632L95.3139 153.867C95.2093 154.252 95.0216 154.589 94.7507 154.878C94.483 155.165 94.146 155.388 93.7397 155.548C93.3365 155.705 92.8764 155.783 92.3594 155.783ZM98.9967 155.797C98.5474 155.797 98.1411 155.714 97.778 155.548C97.4148 155.379 97.1271 155.134 96.9147 154.814C96.7054 154.494 96.6008 154.101 96.6008 153.637C96.6008 153.236 96.6777 152.907 96.8316 152.649C96.9855 152.39 97.1932 152.185 97.4548 152.035C97.7164 151.884 98.0088 151.77 98.332 151.693C98.6551 151.616 98.9844 151.558 99.3199 151.518C99.7446 151.468 100.089 151.428 100.354 151.398C100.619 151.364 100.811 151.31 100.931 151.236C101.051 151.162 101.111 151.042 101.111 150.876V150.844C101.111 150.44 100.997 150.128 100.769 149.906C100.545 149.685 100.209 149.574 99.7631 149.574C99.2983 149.574 98.9321 149.677 98.6643 149.883C98.3997 150.087 98.2165 150.313 98.115 150.562L96.8177 150.267C96.9716 149.836 97.1963 149.488 97.4918 149.223C97.7903 148.955 98.1334 148.762 98.5212 148.642C98.909 148.518 99.3168 148.457 99.7446 148.457C100.028 148.457 100.328 148.491 100.645 148.558C100.965 148.623 101.263 148.743 101.54 148.919C101.82 149.094 102.05 149.345 102.228 149.671C102.407 149.994 102.496 150.414 102.496 150.931V155.64H101.148V154.671H101.093C101.003 154.849 100.869 155.025 100.691 155.197C100.512 155.369 100.283 155.512 100.003 155.626C99.7231 155.74 99.3876 155.797 98.9967 155.797ZM99.2968 154.689C99.6784 154.689 100.005 154.614 100.275 154.463C100.549 154.312 100.757 154.115 100.899 153.872C101.043 153.626 101.116 153.363 101.116 153.083V152.169C101.066 152.218 100.971 152.264 100.829 152.307C100.691 152.347 100.532 152.382 100.354 152.413C100.175 152.441 100.002 152.467 99.8323 152.492C99.663 152.513 99.5215 152.532 99.4076 152.547C99.1398 152.581 98.8952 152.638 98.6736 152.718C98.4551 152.798 98.2796 152.913 98.1473 153.064C98.018 153.212 97.9534 153.409 97.9534 153.655C97.9534 153.997 98.0796 154.255 98.332 154.431C98.5843 154.603 98.9059 154.689 99.2968 154.689ZM106.989 155.779C106.417 155.779 105.906 155.632 105.456 155.34C105.01 155.045 104.659 154.625 104.404 154.08C104.151 153.532 104.025 152.875 104.025 152.109C104.025 151.342 104.153 150.687 104.408 150.142C104.667 149.597 105.021 149.18 105.47 148.891C105.92 148.602 106.429 148.457 106.998 148.457C107.438 148.457 107.792 148.531 108.06 148.678C108.331 148.823 108.54 148.992 108.688 149.186C108.839 149.38 108.956 149.551 109.039 149.699H109.122V146.186H110.502V155.64H109.154V154.537H109.039C108.956 154.688 108.836 154.86 108.679 155.054C108.525 155.248 108.312 155.417 108.042 155.562C107.771 155.706 107.42 155.779 106.989 155.779ZM107.294 154.601C107.691 154.601 108.026 154.497 108.3 154.288C108.577 154.075 108.786 153.781 108.928 153.406C109.073 153.03 109.145 152.593 109.145 152.095C109.145 151.602 109.074 151.171 108.933 150.802C108.791 150.433 108.583 150.145 108.309 149.939C108.035 149.733 107.697 149.629 107.294 149.629C106.878 149.629 106.532 149.737 106.255 149.953C105.978 150.168 105.769 150.462 105.627 150.834C105.489 151.207 105.419 151.627 105.419 152.095C105.419 152.569 105.49 152.995 105.632 153.373C105.773 153.752 105.983 154.052 106.26 154.274C106.54 154.492 106.884 154.601 107.294 154.601ZM113.382 155.728C113.129 155.728 112.912 155.639 112.731 155.46C112.549 155.279 112.458 155.06 112.458 154.805C112.458 154.552 112.549 154.337 112.731 154.158C112.912 153.977 113.129 153.886 113.382 153.886C113.634 153.886 113.851 153.977 114.033 154.158C114.214 154.337 114.305 154.552 114.305 154.805C114.305 154.974 114.262 155.129 114.176 155.271C114.093 155.409 113.982 155.52 113.843 155.603C113.705 155.686 113.551 155.728 113.382 155.728ZM113.382 150.567C113.129 150.567 112.912 150.476 112.731 150.294C112.549 150.113 112.458 149.896 112.458 149.643C112.458 149.391 112.549 149.176 112.731 148.997C112.912 148.815 113.129 148.725 113.382 148.725C113.634 148.725 113.851 148.815 114.033 148.997C114.214 149.176 114.305 149.391 114.305 149.643C114.305 149.813 114.262 149.968 114.176 150.11C114.093 150.248 113.982 150.359 113.843 150.442C113.705 150.525 113.551 150.567 113.382 150.567ZM116.154 155.64V148.549H117.488V149.676H117.562C117.691 149.294 117.919 148.994 118.245 148.775C118.574 148.554 118.947 148.443 119.362 148.443C119.448 148.443 119.55 148.446 119.667 148.452C119.787 148.458 119.881 148.466 119.949 148.475V149.796C119.893 149.78 119.795 149.763 119.653 149.745C119.512 149.723 119.37 149.713 119.228 149.713C118.902 149.713 118.611 149.782 118.356 149.92C118.104 150.056 117.904 150.245 117.756 150.488C117.608 150.728 117.534 151.002 117.534 151.31V155.64H116.154ZM121.143 155.64V148.549H122.523V155.64H121.143ZM121.84 147.455C121.6 147.455 121.394 147.375 121.222 147.215C121.052 147.052 120.968 146.858 120.968 146.633C120.968 146.406 121.052 146.212 121.222 146.052C121.394 145.889 121.6 145.807 121.84 145.807C122.08 145.807 122.285 145.889 122.454 146.052C122.627 146.212 122.713 146.406 122.713 146.633C122.713 146.858 122.627 147.052 122.454 147.215C122.285 147.375 122.08 147.455 121.84 147.455ZM129.694 150.28L128.443 150.502C128.391 150.342 128.308 150.19 128.194 150.045C128.083 149.9 127.932 149.782 127.741 149.689C127.55 149.597 127.312 149.551 127.026 149.551C126.635 149.551 126.309 149.639 126.047 149.814C125.785 149.986 125.655 150.21 125.655 150.484C125.655 150.721 125.742 150.911 125.918 151.056C126.093 151.201 126.376 151.319 126.767 151.411L127.894 151.67C128.546 151.821 129.032 152.053 129.352 152.367C129.672 152.681 129.832 153.089 129.832 153.59C129.832 154.015 129.709 154.394 129.463 154.726C129.22 155.055 128.88 155.314 128.443 155.502C128.009 155.689 127.506 155.783 126.933 155.783C126.139 155.783 125.491 155.614 124.99 155.275C124.488 154.934 124.18 154.449 124.067 153.821L125.401 153.618C125.484 153.966 125.655 154.229 125.913 154.408C126.172 154.583 126.509 154.671 126.924 154.671C127.377 154.671 127.738 154.577 128.009 154.389C128.28 154.198 128.415 153.966 128.415 153.692C128.415 153.47 128.332 153.284 128.166 153.133C128.003 152.983 127.752 152.869 127.413 152.792L126.213 152.529C125.551 152.378 125.062 152.138 124.745 151.808C124.431 151.479 124.274 151.062 124.274 150.557C124.274 150.139 124.391 149.773 124.625 149.459C124.859 149.145 125.182 148.9 125.595 148.725C126.007 148.546 126.479 148.457 127.012 148.457C127.778 148.457 128.381 148.623 128.821 148.955C129.262 149.285 129.552 149.726 129.694 150.28ZM132.62 153.235L132.61 151.55H132.851L135.676 148.549H137.328L134.106 151.965H133.889L132.62 153.235ZM131.35 155.64V146.186H132.73V155.64H131.35ZM135.828 155.64L133.289 152.27L134.24 151.305L137.522 155.64H135.828ZM142.282 151.047V152.242H138.09V151.047H142.282ZM147.178 155.783C146.479 155.783 145.877 155.634 145.373 155.335C144.871 155.034 144.483 154.611 144.209 154.066C143.939 153.518 143.803 152.876 143.803 152.141C143.803 151.415 143.939 150.774 144.209 150.22C144.483 149.666 144.865 149.234 145.354 148.923C145.847 148.612 146.422 148.457 147.081 148.457C147.481 148.457 147.869 148.523 148.244 148.655C148.62 148.788 148.957 148.995 149.255 149.279C149.554 149.562 149.789 149.93 149.961 150.382C150.134 150.831 150.22 151.378 150.22 152.021V152.51H144.583V151.476H148.867C148.867 151.113 148.794 150.791 148.646 150.511C148.498 150.228 148.29 150.005 148.023 149.842C147.758 149.679 147.447 149.597 147.09 149.597C146.702 149.597 146.364 149.693 146.074 149.883C145.788 150.071 145.567 150.317 145.41 150.622C145.256 150.924 145.179 151.251 145.179 151.605V152.413C145.179 152.887 145.262 153.29 145.428 153.623C145.597 153.955 145.833 154.209 146.134 154.384C146.436 154.557 146.788 154.643 147.192 154.643C147.453 154.643 147.692 154.606 147.907 154.532C148.123 154.455 148.309 154.341 148.466 154.191C148.623 154.04 148.743 153.854 148.826 153.632L150.132 153.867C150.028 154.252 149.84 154.589 149.569 154.878C149.301 155.165 148.964 155.388 148.558 155.548C148.155 155.705 147.695 155.783 147.178 155.783ZM157.614 148.549L155.043 155.64H153.566L150.99 148.549H152.472L154.268 154.006H154.341L156.133 148.549H157.614ZM161.727 155.783C161.028 155.783 160.426 155.634 159.922 155.335C159.42 155.034 159.032 154.611 158.758 154.066C158.487 153.518 158.352 152.876 158.352 152.141C158.352 151.415 158.487 150.774 158.758 150.22C159.032 149.666 159.414 149.234 159.903 148.923C160.395 148.612 160.971 148.457 161.63 148.457C162.03 148.457 162.418 148.523 162.793 148.655C163.168 148.788 163.505 148.995 163.804 149.279C164.103 149.562 164.338 149.93 164.51 150.382C164.683 150.831 164.769 151.378 164.769 152.021V152.51H159.132V151.476H163.416C163.416 151.113 163.342 150.791 163.195 150.511C163.047 150.228 162.839 150.005 162.571 149.842C162.307 149.679 161.996 149.597 161.639 149.597C161.251 149.597 160.913 149.693 160.623 149.883C160.337 150.071 160.115 150.317 159.958 150.622C159.805 150.924 159.728 151.251 159.728 151.605V152.413C159.728 152.887 159.811 153.29 159.977 153.623C160.146 153.955 160.382 154.209 160.683 154.384C160.985 154.557 161.337 154.643 161.74 154.643C162.002 154.643 162.241 154.606 162.456 154.532C162.671 154.455 162.858 154.341 163.015 154.191C163.172 154.04 163.292 153.854 163.375 153.632L164.681 153.867C164.576 154.252 164.389 154.589 164.118 154.878C163.85 155.165 163.513 155.388 163.107 155.548C162.704 155.705 162.244 155.783 161.727 155.783ZM167.681 151.43V155.64H166.3V148.549H167.625V149.703H167.713C167.876 149.328 168.132 149.026 168.479 148.799C168.83 148.571 169.272 148.457 169.804 148.457C170.287 148.457 170.711 148.558 171.074 148.762C171.437 148.962 171.719 149.26 171.919 149.657C172.119 150.054 172.219 150.545 172.219 151.13V155.64H170.838V151.296C170.838 150.782 170.704 150.38 170.437 150.091C170.169 149.799 169.801 149.653 169.333 149.653C169.013 149.653 168.729 149.722 168.479 149.86C168.233 149.999 168.038 150.202 167.893 150.47C167.751 150.734 167.681 151.054 167.681 151.43ZM177.38 148.549V149.657H173.507V148.549H177.38ZM174.545 146.85H175.926V153.558C175.926 153.826 175.966 154.027 176.046 154.163C176.126 154.295 176.229 154.386 176.355 154.435C176.484 154.481 176.624 154.504 176.775 154.504C176.886 154.504 176.983 154.497 177.066 154.481C177.149 154.466 177.214 154.454 177.26 154.444L177.509 155.585C177.429 155.616 177.315 155.646 177.168 155.677C177.02 155.711 176.835 155.729 176.614 155.732C176.25 155.739 175.912 155.674 175.598 155.539C175.284 155.403 175.03 155.194 174.836 154.911C174.642 154.628 174.545 154.272 174.545 153.844V146.85ZM184.106 150.28L182.855 150.502C182.803 150.342 182.72 150.19 182.606 150.045C182.495 149.9 182.344 149.782 182.153 149.689C181.963 149.597 181.724 149.551 181.438 149.551C181.047 149.551 180.721 149.639 180.459 149.814C180.197 149.986 180.067 150.21 180.067 150.484C180.067 150.721 180.154 150.911 180.33 151.056C180.505 151.201 180.788 151.319 181.179 151.411L182.306 151.67C182.958 151.821 183.444 152.053 183.764 152.367C184.085 152.681 184.245 153.089 184.245 153.59C184.245 154.015 184.121 154.394 183.875 154.726C183.632 155.055 183.292 155.314 182.855 155.502C182.421 155.689 181.918 155.783 181.345 155.783C180.551 155.783 179.904 155.614 179.402 155.275C178.9 154.934 178.592 154.449 178.479 153.821L179.813 153.618C179.896 153.966 180.067 154.229 180.325 154.408C180.584 154.583 180.921 154.671 181.336 154.671C181.789 154.671 182.15 154.577 182.421 154.389C182.692 154.198 182.827 153.966 182.827 153.692C182.827 153.47 182.744 153.284 182.578 153.133C182.415 152.983 182.164 152.869 181.826 152.792L180.625 152.529C179.964 152.378 179.474 152.138 179.157 151.808C178.843 151.479 178.686 151.062 178.686 150.557C178.686 150.139 178.803 149.773 179.037 149.459C179.271 149.145 179.594 148.9 180.007 148.725C180.419 148.546 180.891 148.457 181.424 148.457C182.19 148.457 182.793 148.623 183.234 148.955C183.674 149.285 183.965 149.726 184.106 150.28Z" fill="#ECECEC"/>
<mask id="path-15-inside-4_2131_959" fill="white">
<path d="M329.64 150.64C329.64 145.117 334.117 140.64 339.64 140.64H359.64C365.163 140.64 369.64 145.117 369.64 150.64C369.64 156.163 365.163 160.64 359.64 160.64H339.64C334.117 160.64 329.64 156.163 329.64 150.64Z"/>
</mask>
<path d="M329.64 150.64C329.64 145.117 334.117 140.64 339.64 140.64H359.64C365.163 140.64 369.64 145.117 369.64 150.64C369.64 156.163 365.163 160.64 359.64 160.64H339.64C334.117 160.64 329.64 156.163 329.64 150.64Z" fill="#4F46E5"/>
<path d="M329.64 150.64M369.64 150.64M369.64 150.64M329.64 150.64M339.64 140.64V141.28H359.64V140.64V140H339.64V140.64ZM369.64 150.64M359.64 160.64V160H339.64V160.64V161.28H359.64V160.64ZM329.64 150.64M339.64 160.64V160C334.471 160 330.28 155.81 330.28 150.64H329.64H329C329 156.516 333.764 161.28 339.64 161.28V160.64ZM369.64 150.64H369C369 155.81 364.809 160 359.64 160V160.64V161.28C365.516 161.28 370.28 156.516 370.28 150.64H369.64ZM359.64 140.64V141.28C364.809 141.28 369 145.471 369 150.64H369.64H370.28C370.28 144.764 365.516 140 359.64 140V140.64ZM339.64 140.64V140C333.764 140 329 144.764 329 150.64H329.64H330.28C330.28 145.471 334.471 141.28 339.64 141.28V140.64Z" fill="#5C64F2" fill-opacity="0.4" mask="url(#path-15-inside-4_2131_959)"/>
<g filter="url(#filter0_d_2131_959)">
<path d="M352.28 151C352.28 147.134 355.414 144 359.28 144C363.146 144 366.28 147.134 366.28 151C366.28 154.866 363.146 158 359.28 158C355.414 158 352.28 154.866 352.28 151Z" fill="white"/>
</g>
<mask id="path-18-inside-5_2131_959" fill="white">
<path d="M63.64 176.28H390.64V226.92H63.64V176.28Z"/>
</mask>
<path d="M390.64 226.92V226.28H63.64V226.92V227.56H390.64V226.92Z" fill="white" fill-opacity="0.06" mask="url(#path-18-inside-5_2131_959)"/>
<path d="M86.2437 206.28L84.0832 199.189H85.2281L86.7608 204.618H86.8346L88.3488 199.189H89.5122L91.0079 204.599H91.0818L92.6144 199.189H93.7593L91.5988 206.28H90.5278L88.9767 200.832H88.8659L87.3147 206.28H86.2437ZM95.1997 206.28V199.189H96.2522V200.26H96.3261C96.4554 199.909 96.6893 199.624 97.0278 199.406C97.3663 199.187 97.748 199.078 98.1727 199.078C98.2527 199.078 98.3527 199.08 98.4728 199.083C98.5928 199.086 98.6836 199.09 98.7451 199.097V200.205C98.7082 200.195 98.6236 200.181 98.4912 200.163C98.362 200.141 98.225 200.131 98.0804 200.131C97.7357 200.131 97.4279 200.203 97.1571 200.348C96.8893 200.489 96.6769 200.686 96.52 200.939C96.3661 201.188 96.2892 201.472 96.2892 201.793V206.28H95.1997ZM100.037 206.28V199.189H101.126V206.28H100.037ZM100.591 198.007C100.378 198.007 100.195 197.935 100.041 197.79C99.8904 197.645 99.815 197.472 99.815 197.268C99.815 197.065 99.8904 196.891 100.041 196.747C100.195 196.602 100.378 196.53 100.591 196.53C100.803 196.53 100.985 196.602 101.135 196.747C101.289 196.891 101.366 197.065 101.366 197.268C101.366 197.472 101.289 197.645 101.135 197.79C100.985 197.935 100.803 198.007 100.591 198.007ZM106.205 199.189V200.112H102.531V199.189H106.205ZM103.602 197.49H104.691V204.249C104.691 204.556 104.736 204.787 104.825 204.941C104.917 205.092 105.034 205.193 105.176 205.246C105.321 205.295 105.473 205.32 105.633 205.32C105.753 205.32 105.851 205.313 105.928 205.301C106.005 205.286 106.067 205.273 106.113 205.264L106.335 206.243C106.261 206.271 106.158 206.298 106.025 206.326C105.893 206.357 105.725 206.372 105.522 206.372C105.214 206.372 104.913 206.306 104.617 206.174C104.325 206.041 104.082 205.84 103.888 205.569C103.697 205.298 103.602 204.956 103.602 204.544V197.49ZM110.741 206.428C110.058 206.428 109.468 206.277 108.973 205.975C108.481 205.67 108.1 205.246 107.833 204.701C107.568 204.153 107.436 203.516 107.436 202.79C107.436 202.063 107.568 201.423 107.833 200.869C108.1 200.312 108.473 199.878 108.95 199.567C109.43 199.254 109.99 199.097 110.63 199.097C111 199.097 111.364 199.158 111.724 199.281C112.084 199.404 112.412 199.604 112.708 199.881C113.003 200.155 113.239 200.518 113.414 200.971C113.589 201.423 113.677 201.98 113.677 202.642V203.104H108.211V202.162H112.569C112.569 201.762 112.489 201.405 112.329 201.091C112.172 200.777 111.947 200.529 111.655 200.348C111.366 200.166 111.024 200.075 110.63 200.075C110.196 200.075 109.821 200.183 109.504 200.398C109.19 200.611 108.948 200.888 108.779 201.229C108.61 201.571 108.525 201.937 108.525 202.328V202.956C108.525 203.491 108.617 203.945 108.802 204.318C108.99 204.687 109.25 204.969 109.582 205.163C109.915 205.353 110.301 205.449 110.741 205.449C111.027 205.449 111.286 205.409 111.517 205.329C111.751 205.246 111.952 205.123 112.121 204.959C112.291 204.793 112.421 204.587 112.514 204.341L113.566 204.636C113.456 204.993 113.269 205.307 113.008 205.578C112.746 205.846 112.423 206.055 112.038 206.206C111.654 206.354 111.221 206.428 110.741 206.428ZM116.128 206.354C115.901 206.354 115.705 206.272 115.542 206.109C115.379 205.946 115.298 205.75 115.298 205.523C115.298 205.295 115.379 205.1 115.542 204.936C115.705 204.773 115.901 204.692 116.128 204.692C116.356 204.692 116.552 204.773 116.715 204.936C116.878 205.1 116.959 205.295 116.959 205.523C116.959 205.673 116.921 205.812 116.844 205.938C116.77 206.064 116.67 206.166 116.544 206.243C116.421 206.317 116.282 206.354 116.128 206.354ZM116.128 201.091C115.901 201.091 115.705 201.009 115.542 200.846C115.379 200.683 115.298 200.488 115.298 200.26C115.298 200.032 115.379 199.837 115.542 199.674C115.705 199.51 115.901 199.429 116.128 199.429C116.356 199.429 116.552 199.51 116.715 199.674C116.878 199.837 116.959 200.032 116.959 200.26C116.959 200.411 116.921 200.549 116.844 200.675C116.77 200.802 116.67 200.903 116.544 200.98C116.421 201.054 116.282 201.091 116.128 201.091ZM118.915 206.28V199.189H119.967V200.26H120.041C120.17 199.909 120.404 199.624 120.743 199.406C121.081 199.187 121.463 199.078 121.888 199.078C121.968 199.078 122.068 199.08 122.188 199.083C122.308 199.086 122.398 199.09 122.46 199.097V200.205C122.423 200.195 122.338 200.181 122.206 200.163C122.077 200.141 121.94 200.131 121.795 200.131C121.451 200.131 121.143 200.203 120.872 200.348C120.604 200.489 120.392 200.686 120.235 200.939C120.081 201.188 120.004 201.472 120.004 201.793V206.28H118.915ZM123.751 206.28V199.189H124.841V206.28H123.751ZM124.305 198.007C124.093 198.007 123.91 197.935 123.756 197.79C123.605 197.645 123.53 197.472 123.53 197.268C123.53 197.065 123.605 196.891 123.756 196.747C123.91 196.602 124.093 196.53 124.305 196.53C124.518 196.53 124.699 196.602 124.85 196.747C125.004 196.891 125.081 197.065 125.081 197.268C125.081 197.472 125.004 197.645 124.85 197.79C124.699 197.935 124.518 198.007 124.305 198.007ZM131.859 200.777L130.88 201.054C130.819 200.891 130.728 200.732 130.608 200.578C130.491 200.421 130.331 200.292 130.128 200.191C129.925 200.089 129.665 200.038 129.348 200.038C128.914 200.038 128.552 200.138 128.263 200.338C127.977 200.535 127.834 200.786 127.834 201.091C127.834 201.362 127.932 201.576 128.129 201.733C128.326 201.89 128.634 202.02 129.052 202.125L130.105 202.383C130.739 202.537 131.211 202.773 131.522 203.09C131.833 203.404 131.988 203.808 131.988 204.304C131.988 204.71 131.871 205.073 131.638 205.393C131.407 205.713 131.084 205.966 130.668 206.151C130.253 206.335 129.769 206.428 129.218 206.428C128.495 206.428 127.897 206.271 127.423 205.957C126.949 205.643 126.649 205.184 126.522 204.581L127.557 204.322C127.655 204.704 127.841 204.99 128.115 205.181C128.392 205.372 128.754 205.467 129.2 205.467C129.708 205.467 130.111 205.36 130.41 205.144C130.711 204.926 130.862 204.664 130.862 204.359C130.862 204.113 130.776 203.907 130.603 203.741C130.431 203.571 130.166 203.445 129.809 203.362L128.628 203.085C127.978 202.931 127.501 202.693 127.196 202.37C126.895 202.043 126.744 201.636 126.744 201.146C126.744 200.746 126.856 200.392 127.081 200.084C127.309 199.777 127.618 199.535 128.009 199.36C128.403 199.184 128.849 199.097 129.348 199.097C130.049 199.097 130.6 199.25 131 199.558C131.404 199.866 131.69 200.272 131.859 200.777ZM134.644 203.695L134.626 202.347H134.847L137.949 199.189H139.297L135.992 202.531H135.9L134.644 203.695ZM133.628 206.28V196.825H134.718V206.28H133.628ZM138.134 206.28L135.364 202.771L136.14 202.014L139.519 206.28H138.134ZM144.165 201.719V202.734H140.029V201.719H144.165ZM151.105 200.777L150.127 201.054C150.065 200.891 149.974 200.732 149.854 200.578C149.737 200.421 149.577 200.292 149.374 200.191C149.171 200.089 148.911 200.038 148.594 200.038C148.16 200.038 147.798 200.138 147.509 200.338C147.223 200.535 147.08 200.786 147.08 201.091C147.08 201.362 147.178 201.576 147.375 201.733C147.572 201.89 147.88 202.02 148.298 202.125L149.351 202.383C149.985 202.537 150.457 202.773 150.768 203.09C151.079 203.404 151.234 203.808 151.234 204.304C151.234 204.71 151.118 205.073 150.884 205.393C150.653 205.713 150.33 205.966 149.914 206.151C149.499 206.335 149.015 206.428 148.465 206.428C147.741 206.428 147.143 206.271 146.669 205.957C146.195 205.643 145.895 205.184 145.769 204.581L146.803 204.322C146.901 204.704 147.087 204.99 147.361 205.181C147.638 205.372 148 205.467 148.446 205.467C148.954 205.467 149.357 205.36 149.656 205.144C149.957 204.926 150.108 204.664 150.108 204.359C150.108 204.113 150.022 203.907 149.85 203.741C149.677 203.571 149.413 203.445 149.055 203.362L147.874 203.085C147.224 202.931 146.747 202.693 146.443 202.37C146.141 202.043 145.99 201.636 145.99 201.146C145.99 200.746 146.102 200.392 146.327 200.084C146.555 199.777 146.864 199.535 147.255 199.36C147.649 199.184 148.095 199.097 148.594 199.097C149.296 199.097 149.846 199.25 150.247 199.558C150.65 199.866 150.936 200.272 151.105 200.777ZM155.755 206.428C155.09 206.428 154.518 206.271 154.038 205.957C153.558 205.643 153.188 205.21 152.93 204.659C152.671 204.109 152.542 203.479 152.542 202.771C152.542 202.051 152.674 201.416 152.939 200.865C153.207 200.311 153.579 199.878 154.056 199.567C154.536 199.254 155.097 199.097 155.737 199.097C156.235 199.097 156.685 199.189 157.085 199.374C157.485 199.558 157.813 199.817 158.068 200.149C158.323 200.481 158.482 200.869 158.544 201.312H157.454C157.371 200.989 157.186 200.703 156.9 200.454C156.617 200.201 156.235 200.075 155.755 200.075C155.33 200.075 154.958 200.186 154.638 200.408C154.321 200.626 154.073 200.935 153.895 201.336C153.719 201.733 153.632 202.199 153.632 202.734C153.632 203.282 153.718 203.759 153.89 204.165C154.066 204.572 154.312 204.887 154.629 205.112C154.949 205.336 155.324 205.449 155.755 205.449C156.038 205.449 156.295 205.4 156.526 205.301C156.757 205.203 156.952 205.061 157.112 204.876C157.272 204.692 157.386 204.47 157.454 204.212H158.544C158.482 204.63 158.33 205.007 158.086 205.343C157.846 205.675 157.528 205.94 157.131 206.137C156.737 206.331 156.278 206.428 155.755 206.428ZM163.017 206.428C162.377 206.428 161.815 206.275 161.332 205.97C160.852 205.666 160.476 205.24 160.205 204.692C159.938 204.144 159.804 203.504 159.804 202.771C159.804 202.033 159.938 201.388 160.205 200.837C160.476 200.286 160.852 199.858 161.332 199.554C161.815 199.249 162.377 199.097 163.017 199.097C163.657 199.097 164.217 199.249 164.697 199.554C165.18 199.858 165.556 200.286 165.824 200.837C166.095 201.388 166.23 202.033 166.23 202.771C166.23 203.504 166.095 204.144 165.824 204.692C165.556 205.24 165.18 205.666 164.697 205.97C164.217 206.275 163.657 206.428 163.017 206.428ZM163.017 205.449C163.503 205.449 163.903 205.324 164.217 205.075C164.531 204.826 164.763 204.498 164.914 204.092C165.065 203.685 165.14 203.245 165.14 202.771C165.14 202.297 165.065 201.856 164.914 201.446C164.763 201.037 164.531 200.706 164.217 200.454C163.903 200.201 163.503 200.075 163.017 200.075C162.531 200.075 162.131 200.201 161.817 200.454C161.503 200.706 161.27 201.037 161.12 201.446C160.969 201.856 160.893 202.297 160.893 202.771C160.893 203.245 160.969 203.685 161.12 204.092C161.27 204.498 161.503 204.826 161.817 205.075C162.131 205.324 162.531 205.449 163.017 205.449ZM167.893 206.28V199.189H168.946V200.26H169.019C169.149 199.909 169.383 199.624 169.721 199.406C170.06 199.187 170.441 199.078 170.866 199.078C170.946 199.078 171.046 199.08 171.166 199.083C171.286 199.086 171.377 199.09 171.438 199.097V200.205C171.402 200.195 171.317 200.181 171.185 200.163C171.055 200.141 170.918 200.131 170.774 200.131C170.429 200.131 170.121 200.203 169.85 200.348C169.583 200.489 169.37 200.686 169.213 200.939C169.059 201.188 168.983 201.472 168.983 201.793V206.28H167.893ZM175.487 206.428C174.804 206.428 174.215 206.277 173.719 205.975C173.227 205.67 172.847 205.246 172.579 204.701C172.314 204.153 172.182 203.516 172.182 202.79C172.182 202.063 172.314 201.423 172.579 200.869C172.847 200.312 173.219 199.878 173.696 199.567C174.176 199.254 174.736 199.097 175.376 199.097C175.746 199.097 176.11 199.158 176.47 199.281C176.831 199.404 177.158 199.604 177.454 199.881C177.749 200.155 177.985 200.518 178.16 200.971C178.336 201.423 178.423 201.98 178.423 202.642V203.104H172.957V202.162H177.315C177.315 201.762 177.235 201.405 177.075 201.091C176.918 200.777 176.694 200.529 176.401 200.348C176.112 200.166 175.77 200.075 175.376 200.075C174.942 200.075 174.567 200.183 174.25 200.398C173.936 200.611 173.694 200.888 173.525 201.229C173.356 201.571 173.271 201.937 173.271 202.328V202.956C173.271 203.491 173.364 203.945 173.548 204.318C173.736 204.687 173.996 204.969 174.328 205.163C174.661 205.353 175.047 205.449 175.487 205.449C175.773 205.449 176.032 205.409 176.263 205.329C176.497 205.246 176.698 205.123 176.867 204.959C177.037 204.793 177.168 204.587 177.26 204.341L178.312 204.636C178.202 204.993 178.015 205.307 177.754 205.578C177.492 205.846 177.169 206.055 176.784 206.206C176.4 206.354 175.967 206.428 175.487 206.428ZM185.103 200.777L184.125 201.054C184.063 200.891 183.972 200.732 183.852 200.578C183.735 200.421 183.575 200.292 183.372 200.191C183.169 200.089 182.909 200.038 182.592 200.038C182.158 200.038 181.796 200.138 181.507 200.338C181.221 200.535 181.078 200.786 181.078 201.091C181.078 201.362 181.176 201.576 181.373 201.733C181.57 201.89 181.878 202.02 182.296 202.125L183.349 202.383C183.983 202.537 184.455 202.773 184.766 203.09C185.077 203.404 185.233 203.808 185.233 204.304C185.233 204.71 185.116 205.073 184.882 205.393C184.651 205.713 184.328 205.966 183.912 206.151C183.497 206.335 183.014 206.428 182.463 206.428C181.739 206.428 181.141 206.271 180.667 205.957C180.193 205.643 179.893 205.184 179.767 204.581L180.801 204.322C180.899 204.704 181.085 204.99 181.359 205.181C181.636 205.372 181.998 205.467 182.444 205.467C182.952 205.467 183.355 205.36 183.654 205.144C183.955 204.926 184.106 204.664 184.106 204.359C184.106 204.113 184.02 203.907 183.848 203.741C183.675 203.571 183.411 203.445 183.054 203.362L181.872 203.085C181.222 202.931 180.745 202.693 180.441 202.37C180.139 202.043 179.988 201.636 179.988 201.146C179.988 200.746 180.101 200.392 180.325 200.084C180.553 199.777 180.862 199.535 181.253 199.36C181.647 199.184 182.093 199.097 182.592 199.097C183.294 199.097 183.845 199.25 184.245 199.558C184.648 199.866 184.934 200.272 185.103 200.777Z" fill="#ECECEC"/>
<mask id="path-21-inside-6_2131_959" fill="white">
<path d="M330.64 201.28C330.64 195.757 335.117 191.28 340.64 191.28H360.64C366.163 191.28 370.64 195.757 370.64 201.28C370.64 206.803 366.163 211.28 360.64 211.28H340.64C335.117 211.28 330.64 206.803 330.64 201.28Z"/>
</mask>
<path d="M330.64 201.28C330.64 195.757 335.117 191.28 340.64 191.28H360.64C366.163 191.28 370.64 195.757 370.64 201.28C370.64 206.803 366.163 211.28 360.64 211.28H340.64C335.117 211.28 330.64 206.803 330.64 201.28Z" fill="#4F46E5"/>
<path d="M330.64 201.28M370.64 201.28M370.64 201.28M330.64 201.28M340.64 191.28V191.92H360.64V191.28V190.64H340.64V191.28ZM370.64 201.28M360.64 211.28V210.64H340.64V211.28V211.92H360.64V211.28ZM330.64 201.28M340.64 211.28V210.64C335.471 210.64 331.28 206.449 331.28 201.28H330.64H330C330 207.156 334.764 211.92 340.64 211.92V211.28ZM370.64 201.28H370C370 206.449 365.809 210.64 360.64 210.64V211.28V211.92C366.516 211.92 371.28 207.156 371.28 201.28H370.64ZM360.64 191.28V191.92C365.809 191.92 370 196.11 370 201.28H370.64H371.28C371.28 195.403 366.516 190.64 360.64 190.64V191.28ZM340.64 191.28V190.64C334.764 190.64 330 195.403 330 201.28H330.64H331.28C331.28 196.11 335.471 191.92 340.64 191.92V191.28Z" fill="#5C64F2" fill-opacity="0.4" mask="url(#path-21-inside-6_2131_959)"/>
<g filter="url(#filter1_d_2131_959)">
<path d="M353.28 201.64C353.28 197.774 356.414 194.64 360.28 194.64C364.146 194.64 367.28 197.774 367.28 201.64C367.28 205.506 364.146 208.64 360.28 208.64C356.414 208.64 353.28 205.506 353.28 201.64Z" fill="white"/>
</g>
<mask id="path-24-inside-7_2131_959" fill="white">
<path d="M63.64 226.92H390.64V275.56H63.64V226.92Z"/>
</mask>
<path d="M390.64 275.56V274.92H63.64V275.56V276.2H390.64V275.56Z" fill="white" fill-opacity="0.06" mask="url(#path-24-inside-7_2131_959)"/>
<path d="M84.6372 255.92V248.829H85.6897V249.9H85.7636C85.8929 249.549 86.1268 249.265 86.4653 249.046C86.8038 248.827 87.1855 248.718 87.6102 248.718C87.6902 248.718 87.7902 248.72 87.9103 248.723C88.0303 248.726 88.1211 248.731 88.1826 248.737V249.845C88.1457 249.835 88.0611 249.822 87.9287 249.803C87.7995 249.782 87.6625 249.771 87.5179 249.771C87.1732 249.771 86.8654 249.843 86.5946 249.988C86.3268 250.129 86.1144 250.326 85.9575 250.579C85.8036 250.828 85.7267 251.113 85.7267 251.433V255.92H84.6372ZM92.2313 256.068C91.548 256.068 90.9587 255.917 90.4632 255.615C89.9707 255.311 89.5907 254.886 89.3229 254.341C89.0582 253.793 88.9259 253.156 88.9259 252.43C88.9259 251.704 89.0582 251.063 89.3229 250.509C89.5907 249.952 89.963 249.518 90.4401 249.208C90.9202 248.894 91.4803 248.737 92.1205 248.737C92.4898 248.737 92.8545 248.798 93.2146 248.921C93.5747 249.044 93.9024 249.244 94.1979 249.521C94.4934 249.795 94.7288 250.159 94.9042 250.611C95.0796 251.063 95.1674 251.62 95.1674 252.282V252.744H89.7014V251.802H94.0594C94.0594 251.402 93.9794 251.045 93.8193 250.731C93.6624 250.417 93.4377 250.169 93.1453 249.988C92.856 249.806 92.5144 249.715 92.1205 249.715C91.6865 249.715 91.3111 249.823 90.9941 250.039C90.6801 250.251 90.4385 250.528 90.2693 250.869C90.1 251.211 90.0154 251.577 90.0154 251.968V252.596C90.0154 253.132 90.1077 253.586 90.2924 253.958C90.4801 254.327 90.7402 254.609 91.0725 254.803C91.4049 254.994 91.7912 255.089 92.2313 255.089C92.5175 255.089 92.776 255.049 93.0068 254.969C93.2407 254.886 93.4423 254.763 93.6116 254.6C93.7809 254.433 93.9117 254.227 94.004 253.981L95.0566 254.276C94.9458 254.633 94.7596 254.947 94.498 255.218C94.2364 255.486 93.9132 255.695 93.5285 255.846C93.1438 255.994 92.7114 256.068 92.2313 256.068ZM98.9113 256.086C98.462 256.086 98.0542 256.001 97.688 255.832C97.3217 255.66 97.0309 255.412 96.8154 255.089C96.6 254.763 96.4923 254.369 96.4923 253.907C96.4923 253.501 96.5723 253.172 96.7323 252.919C96.8924 252.664 97.1063 252.464 97.374 252.319C97.6418 252.174 97.9372 252.067 98.2604 251.996C98.5866 251.922 98.9144 251.864 99.2437 251.82C99.6746 251.765 100.024 251.724 100.292 251.696C100.562 251.665 100.759 251.614 100.883 251.544C101.009 251.473 101.072 251.35 101.072 251.174V251.137C101.072 250.682 100.947 250.328 100.698 250.075C100.452 249.823 100.078 249.697 99.5761 249.697C99.056 249.697 98.6482 249.811 98.3527 250.039C98.0573 250.266 97.8495 250.509 97.7295 250.768L96.6954 250.399C96.8801 249.968 97.1263 249.632 97.434 249.392C97.7449 249.149 98.0834 248.98 98.4497 248.884C98.819 248.786 99.1822 248.737 99.5392 248.737C99.7669 248.737 100.029 248.764 100.324 248.82C100.622 248.872 100.91 248.981 101.187 249.148C101.467 249.314 101.7 249.565 101.884 249.9C102.069 250.235 102.161 250.685 102.161 251.248V255.92H101.072V254.96H101.016C100.943 255.114 100.819 255.278 100.647 255.454C100.475 255.629 100.245 255.778 99.9593 255.901C99.673 256.025 99.3237 256.086 98.9113 256.086ZM99.0775 255.107C99.5084 255.107 99.8715 255.023 100.167 254.854C100.466 254.684 100.69 254.466 100.841 254.198C100.995 253.93 101.072 253.649 101.072 253.353V252.356C101.026 252.411 100.924 252.462 100.767 252.508C100.613 252.551 100.435 252.59 100.232 252.624C100.032 252.655 99.8362 252.682 99.6453 252.707C99.4576 252.728 99.3053 252.747 99.1883 252.762C98.9052 252.799 98.6405 252.859 98.3943 252.942C98.1511 253.022 97.9542 253.144 97.8034 253.307C97.6556 253.467 97.5818 253.686 97.5818 253.963C97.5818 254.341 97.7218 254.627 98.0019 254.821C98.285 255.012 98.6436 255.107 99.0775 255.107ZM106.827 256.068C106.237 256.068 105.715 255.918 105.262 255.62C104.81 255.318 104.456 254.894 104.201 254.346C103.945 253.795 103.817 253.144 103.817 252.393C103.817 251.648 103.945 251.002 104.201 250.454C104.456 249.906 104.812 249.483 105.267 249.184C105.723 248.886 106.249 248.737 106.846 248.737C107.308 248.737 107.672 248.814 107.94 248.968C108.211 249.118 108.417 249.291 108.559 249.485C108.703 249.675 108.816 249.832 108.896 249.955H108.988V246.465H110.077V255.92H109.025V254.83H108.896C108.816 254.96 108.702 255.123 108.554 255.32C108.406 255.514 108.195 255.688 107.922 255.841C107.648 255.992 107.283 256.068 106.827 256.068ZM106.975 255.089C107.412 255.089 107.781 254.975 108.083 254.747C108.385 254.517 108.614 254.198 108.771 253.792C108.928 253.382 109.006 252.91 109.006 252.374C109.006 251.845 108.929 251.382 108.776 250.985C108.622 250.585 108.394 250.274 108.092 250.052C107.791 249.828 107.418 249.715 106.975 249.715C106.514 249.715 106.129 249.834 105.821 250.071C105.516 250.305 105.287 250.623 105.133 251.026C104.982 251.427 104.907 251.876 104.907 252.374C104.907 252.879 104.984 253.338 105.138 253.75C105.295 254.16 105.526 254.486 105.83 254.729C106.138 254.969 106.52 255.089 106.975 255.089ZM113.018 255.994C112.79 255.994 112.595 255.912 112.432 255.749C112.269 255.586 112.187 255.391 112.187 255.163C112.187 254.935 112.269 254.74 112.432 254.577C112.595 254.413 112.79 254.332 113.018 254.332C113.246 254.332 113.441 254.413 113.604 254.577C113.768 254.74 113.849 254.935 113.849 255.163C113.849 255.314 113.811 255.452 113.734 255.578C113.66 255.704 113.56 255.806 113.434 255.883C113.31 255.957 113.172 255.994 113.018 255.994ZM113.018 250.731C112.79 250.731 112.595 250.649 112.432 250.486C112.269 250.323 112.187 250.128 112.187 249.9C112.187 249.672 112.269 249.477 112.432 249.314C112.595 249.151 112.79 249.069 113.018 249.069C113.246 249.069 113.441 249.151 113.604 249.314C113.768 249.477 113.849 249.672 113.849 249.9C113.849 250.051 113.811 250.189 113.734 250.316C113.66 250.442 113.56 250.543 113.434 250.62C113.31 250.694 113.172 250.731 113.018 250.731ZM115.804 255.92V248.829H116.857V249.937H116.949C117.097 249.558 117.335 249.265 117.665 249.055C117.994 248.843 118.389 248.737 118.851 248.737C119.319 248.737 119.708 248.843 120.019 249.055C120.333 249.265 120.578 249.558 120.753 249.937H120.827C121.008 249.571 121.281 249.28 121.644 249.064C122.007 248.846 122.443 248.737 122.95 248.737C123.584 248.737 124.103 248.935 124.506 249.332C124.909 249.726 125.111 250.34 125.111 251.174V255.92H124.021V251.174C124.021 250.651 123.878 250.277 123.592 250.052C123.306 249.828 122.969 249.715 122.581 249.715C122.083 249.715 121.696 249.866 121.422 250.168C121.149 250.466 121.012 250.845 121.012 251.303V255.92H119.904V251.063C119.904 250.66 119.773 250.336 119.511 250.089C119.25 249.84 118.913 249.715 118.5 249.715C118.217 249.715 117.952 249.791 117.706 249.942C117.463 250.092 117.266 250.302 117.115 250.569C116.968 250.834 116.894 251.14 116.894 251.488V255.92H115.804ZM129.984 256.068C129.344 256.068 128.782 255.915 128.299 255.611C127.819 255.306 127.443 254.88 127.172 254.332C126.904 253.784 126.771 253.144 126.771 252.411C126.771 251.673 126.904 251.028 127.172 250.477C127.443 249.926 127.819 249.498 128.299 249.194C128.782 248.889 129.344 248.737 129.984 248.737C130.624 248.737 131.184 248.889 131.664 249.194C132.147 249.498 132.523 249.926 132.79 250.477C133.061 251.028 133.197 251.673 133.197 252.411C133.197 253.144 133.061 253.784 132.79 254.332C132.523 254.88 132.147 255.306 131.664 255.611C131.184 255.915 130.624 256.068 129.984 256.068ZM129.984 255.089C130.47 255.089 130.87 254.964 131.184 254.715C131.498 254.466 131.73 254.138 131.881 253.732C132.032 253.325 132.107 252.885 132.107 252.411C132.107 251.937 132.032 251.496 131.881 251.086C131.73 250.677 131.498 250.346 131.184 250.094C130.87 249.842 130.47 249.715 129.984 249.715C129.497 249.715 129.097 249.842 128.783 250.094C128.469 250.346 128.237 250.677 128.086 251.086C127.935 251.496 127.86 251.937 127.86 252.411C127.86 252.885 127.935 253.325 128.086 253.732C128.237 254.138 128.469 254.466 128.783 254.715C129.097 254.964 129.497 255.089 129.984 255.089ZM137.537 256.068C136.946 256.068 136.425 255.918 135.972 255.62C135.52 255.318 135.166 254.894 134.911 254.346C134.655 253.795 134.527 253.144 134.527 252.393C134.527 251.648 134.655 251.002 134.911 250.454C135.166 249.906 135.522 249.483 135.977 249.184C136.433 248.886 136.959 248.737 137.556 248.737C138.018 248.737 138.382 248.814 138.65 248.968C138.921 249.118 139.127 249.291 139.269 249.485C139.413 249.675 139.526 249.832 139.606 249.955H139.698V246.465H140.787V255.92H139.735V254.83H139.606C139.526 254.96 139.412 255.123 139.264 255.32C139.116 255.514 138.905 255.688 138.631 255.841C138.358 255.992 137.993 256.068 137.537 256.068ZM137.685 255.089C138.122 255.089 138.491 254.975 138.793 254.747C139.095 254.517 139.324 254.198 139.481 253.792C139.638 253.382 139.716 252.91 139.716 252.374C139.716 251.845 139.639 251.382 139.486 250.985C139.332 250.585 139.104 250.274 138.802 250.052C138.501 249.828 138.128 249.715 137.685 249.715C137.223 249.715 136.839 249.834 136.531 250.071C136.226 250.305 135.997 250.623 135.843 251.026C135.692 251.427 135.617 251.876 135.617 252.374C135.617 252.879 135.694 253.338 135.848 253.75C136.005 254.16 136.236 254.486 136.54 254.729C136.848 254.969 137.23 255.089 137.685 255.089ZM145.907 256.068C145.224 256.068 144.634 255.917 144.139 255.615C143.647 255.311 143.266 254.886 142.999 254.341C142.734 253.793 142.602 253.156 142.602 252.43C142.602 251.704 142.734 251.063 142.999 250.509C143.266 249.952 143.639 249.518 144.116 249.208C144.596 248.894 145.156 248.737 145.796 248.737C146.166 248.737 146.53 248.798 146.89 248.921C147.25 249.044 147.578 249.244 147.874 249.521C148.169 249.795 148.405 250.159 148.58 250.611C148.755 251.063 148.843 251.62 148.843 252.282V252.744H143.377V251.802H147.735C147.735 251.402 147.655 251.045 147.495 250.731C147.338 250.417 147.113 250.169 146.821 249.988C146.532 249.806 146.19 249.715 145.796 249.715C145.362 249.715 144.987 249.823 144.67 250.039C144.356 250.251 144.114 250.528 143.945 250.869C143.776 251.211 143.691 251.577 143.691 251.968V252.596C143.691 253.132 143.783 253.586 143.968 253.958C144.156 254.327 144.416 254.609 144.748 254.803C145.081 254.994 145.467 255.089 145.907 255.089C146.193 255.089 146.452 255.049 146.683 254.969C146.917 254.886 147.118 254.763 147.287 254.6C147.457 254.433 147.587 254.227 147.68 253.981L148.732 254.276C148.622 254.633 148.435 254.947 148.174 255.218C147.912 255.486 147.589 255.695 147.204 255.846C146.82 255.994 146.387 256.068 145.907 256.068ZM151.59 246.465V255.92H150.5V246.465H151.59ZM157.648 251.359V252.374H153.512V251.359H157.648ZM161.652 256.086C161.202 256.086 160.794 256.001 160.428 255.832C160.062 255.66 159.771 255.412 159.556 255.089C159.34 254.763 159.233 254.369 159.233 253.907C159.233 253.501 159.313 253.172 159.473 252.919C159.633 252.664 159.847 252.464 160.114 252.319C160.382 252.174 160.677 252.067 161.001 251.996C161.327 251.922 161.655 251.864 161.984 251.82C162.415 251.765 162.764 251.724 163.032 251.696C163.303 251.665 163.5 251.614 163.623 251.544C163.749 251.473 163.812 251.35 163.812 251.174V251.137C163.812 250.682 163.687 250.328 163.438 250.075C163.192 249.823 162.818 249.697 162.316 249.697C161.796 249.697 161.388 249.811 161.093 250.039C160.798 250.266 160.59 250.509 160.47 250.768L159.436 250.399C159.62 249.968 159.867 249.632 160.174 249.392C160.485 249.149 160.824 248.98 161.19 248.884C161.559 248.786 161.922 248.737 162.279 248.737C162.507 248.737 162.769 248.764 163.064 248.82C163.363 248.872 163.65 248.981 163.927 249.148C164.208 249.314 164.44 249.565 164.625 249.9C164.809 250.235 164.902 250.685 164.902 251.248V255.92H163.812V254.96H163.757C163.683 255.114 163.56 255.278 163.387 255.454C163.215 255.629 162.986 255.778 162.699 255.901C162.413 256.025 162.064 256.086 161.652 256.086ZM161.818 255.107C162.249 255.107 162.612 255.023 162.907 254.854C163.206 254.684 163.43 254.466 163.581 254.198C163.735 253.93 163.812 253.649 163.812 253.353V252.356C163.766 252.411 163.664 252.462 163.507 252.508C163.353 252.551 163.175 252.59 162.972 252.624C162.772 252.655 162.576 252.682 162.386 252.707C162.198 252.728 162.045 252.747 161.929 252.762C161.645 252.799 161.381 252.859 161.135 252.942C160.891 253.022 160.694 253.144 160.544 253.307C160.396 253.467 160.322 253.686 160.322 253.963C160.322 254.341 160.462 254.627 160.742 254.821C161.025 255.012 161.384 255.107 161.818 255.107ZM166.89 255.92V248.829H167.943V249.9H168.017C168.146 249.549 168.38 249.265 168.718 249.046C169.057 248.827 169.438 248.718 169.863 248.718C169.943 248.718 170.043 248.72 170.163 248.723C170.283 248.726 170.374 248.731 170.436 248.737V249.845C170.399 249.835 170.314 249.822 170.182 249.803C170.052 249.782 169.915 249.771 169.771 249.771C169.426 249.771 169.118 249.843 168.847 249.988C168.58 250.129 168.367 250.326 168.21 250.579C168.057 250.828 167.98 251.113 167.98 251.433V255.92H166.89ZM175.255 248.829V249.752H171.58V248.829H175.255ZM172.651 247.13H173.741V253.889C173.741 254.196 173.786 254.427 173.875 254.581C173.967 254.732 174.084 254.834 174.226 254.886C174.37 254.935 174.523 254.96 174.683 254.96C174.803 254.96 174.901 254.954 174.978 254.941C175.055 254.926 175.117 254.914 175.163 254.904L175.384 255.883C175.311 255.911 175.207 255.938 175.075 255.966C174.943 255.997 174.775 256.012 174.572 256.012C174.264 256.012 173.963 255.946 173.667 255.814C173.375 255.681 173.132 255.48 172.938 255.209C172.747 254.938 172.651 254.597 172.651 254.184V247.13ZM176.894 255.92V248.829H177.983V255.92H176.894ZM177.448 247.647C177.236 247.647 177.053 247.575 176.899 247.43C176.748 247.286 176.672 247.112 176.672 246.909C176.672 246.705 176.748 246.532 176.899 246.387C177.053 246.242 177.236 246.17 177.448 246.17C177.66 246.17 177.842 246.242 177.993 246.387C178.147 246.532 178.224 246.705 178.224 246.909C178.224 247.112 178.147 247.286 177.993 247.43C177.842 247.575 177.66 247.647 177.448 247.647ZM183.137 248.829V249.752H179.314V248.829H183.137ZM180.459 255.92V247.85C180.459 247.444 180.554 247.106 180.745 246.835C180.936 246.564 181.184 246.361 181.489 246.225C181.793 246.09 182.115 246.022 182.453 246.022C182.721 246.022 182.94 246.044 183.109 246.087C183.278 246.13 183.404 246.17 183.487 246.207L183.174 247.149C183.118 247.13 183.041 247.107 182.943 247.079C182.847 247.052 182.721 247.038 182.564 247.038C182.204 247.038 181.944 247.129 181.784 247.31C181.627 247.492 181.549 247.758 181.549 248.109V255.92H180.459ZM186.547 256.086C186.098 256.086 185.69 256.001 185.324 255.832C184.957 255.66 184.667 255.412 184.451 255.089C184.236 254.763 184.128 254.369 184.128 253.907C184.128 253.501 184.208 253.172 184.368 252.919C184.528 252.664 184.742 252.464 185.01 252.319C185.278 252.174 185.573 252.067 185.896 251.996C186.222 251.922 186.55 251.864 186.879 251.82C187.31 251.765 187.66 251.724 187.927 251.696C188.198 251.665 188.395 251.614 188.518 251.544C188.644 251.473 188.708 251.35 188.708 251.174V251.137C188.708 250.682 188.583 250.328 188.334 250.075C188.087 249.823 187.713 249.697 187.212 249.697C186.692 249.697 186.284 249.811 185.988 250.039C185.693 250.266 185.485 250.509 185.365 250.768L184.331 250.399C184.516 249.968 184.762 249.632 185.07 249.392C185.381 249.149 185.719 248.98 186.085 248.884C186.455 248.786 186.818 248.737 187.175 248.737C187.403 248.737 187.664 248.764 187.96 248.82C188.258 248.872 188.546 248.981 188.823 249.148C189.103 249.314 189.335 249.565 189.52 249.9C189.705 250.235 189.797 250.685 189.797 251.248V255.92H188.708V254.96H188.652C188.578 255.114 188.455 255.278 188.283 255.454C188.111 255.629 187.881 255.778 187.595 255.901C187.309 256.025 186.959 256.086 186.547 256.086ZM186.713 255.107C187.144 255.107 187.507 255.023 187.803 254.854C188.101 254.684 188.326 254.466 188.477 254.198C188.631 253.93 188.708 253.649 188.708 253.353V252.356C188.661 252.411 188.56 252.462 188.403 252.508C188.249 252.551 188.071 252.59 187.867 252.624C187.667 252.655 187.472 252.682 187.281 252.707C187.093 252.728 186.941 252.747 186.824 252.762C186.541 252.799 186.276 252.859 186.03 252.942C185.787 253.022 185.59 253.144 185.439 253.307C185.291 253.467 185.218 253.686 185.218 253.963C185.218 254.341 185.358 254.627 185.638 254.821C185.921 255.012 186.279 255.107 186.713 255.107ZM194.666 256.068C194.002 256.068 193.429 255.911 192.949 255.597C192.469 255.283 192.1 254.85 191.841 254.3C191.582 253.749 191.453 253.119 191.453 252.411C191.453 251.691 191.586 251.056 191.85 250.505C192.118 249.951 192.49 249.518 192.967 249.208C193.448 248.894 194.008 248.737 194.648 248.737C195.146 248.737 195.596 248.829 195.996 249.014C196.396 249.198 196.724 249.457 196.979 249.789C197.235 250.122 197.393 250.509 197.455 250.953H196.365C196.282 250.629 196.097 250.343 195.811 250.094C195.528 249.842 195.146 249.715 194.666 249.715C194.242 249.715 193.869 249.826 193.549 250.048C193.232 250.266 192.984 250.576 192.806 250.976C192.63 251.373 192.543 251.839 192.543 252.374C192.543 252.922 192.629 253.399 192.801 253.806C192.977 254.212 193.223 254.527 193.54 254.752C193.86 254.977 194.235 255.089 194.666 255.089C194.949 255.089 195.206 255.04 195.437 254.941C195.668 254.843 195.863 254.701 196.024 254.517C196.184 254.332 196.297 254.11 196.365 253.852H197.455C197.393 254.27 197.241 254.647 196.998 254.983C196.758 255.315 196.439 255.58 196.042 255.777C195.648 255.971 195.189 256.068 194.666 256.068ZM202.131 248.829V249.752H198.456V248.829H202.131ZM199.527 247.13H200.617V253.889C200.617 254.196 200.662 254.427 200.751 254.581C200.843 254.732 200.96 254.834 201.102 254.886C201.246 254.935 201.399 254.96 201.559 254.96C201.679 254.96 201.777 254.954 201.854 254.941C201.931 254.926 201.993 254.914 202.039 254.904L202.26 255.883C202.187 255.911 202.083 255.938 201.951 255.966C201.819 255.997 201.651 256.012 201.448 256.012C201.14 256.012 200.839 255.946 200.543 255.814C200.251 255.681 200.008 255.48 199.814 255.209C199.623 254.938 199.527 254.597 199.527 254.184V247.13ZM208.666 250.417L207.687 250.694C207.626 250.531 207.535 250.372 207.415 250.219C207.298 250.062 207.138 249.932 206.935 249.831C206.731 249.729 206.471 249.678 206.154 249.678C205.72 249.678 205.359 249.778 205.07 249.979C204.783 250.175 204.64 250.426 204.64 250.731C204.64 251.002 204.739 251.216 204.936 251.373C205.133 251.53 205.44 251.66 205.859 251.765L206.911 252.024C207.545 252.177 208.018 252.413 208.329 252.73C208.64 253.044 208.795 253.449 208.795 253.944C208.795 254.35 208.678 254.713 208.444 255.034C208.213 255.354 207.89 255.606 207.475 255.791C207.059 255.975 206.576 256.068 206.025 256.068C205.302 256.068 204.703 255.911 204.229 255.597C203.755 255.283 203.455 254.824 203.329 254.221L204.363 253.963C204.462 254.344 204.648 254.63 204.922 254.821C205.199 255.012 205.56 255.107 206.007 255.107C206.514 255.107 206.918 255 207.216 254.784C207.518 254.566 207.669 254.304 207.669 253.999C207.669 253.753 207.582 253.547 207.41 253.381C207.238 253.212 206.973 253.085 206.616 253.002L205.434 252.725C204.785 252.571 204.308 252.333 204.003 252.01C203.702 251.684 203.551 251.276 203.551 250.786C203.551 250.386 203.663 250.032 203.888 249.725C204.115 249.417 204.425 249.175 204.816 249C205.21 248.824 205.656 248.737 206.154 248.737C206.856 248.737 207.407 248.891 207.807 249.198C208.21 249.506 208.496 249.912 208.666 250.417Z" fill="#ECECEC"/>
<mask id="path-27-inside-8_2131_959" fill="white">
<path d="M330.64 250.92C330.64 245.397 335.117 240.92 340.64 240.92H360.64C366.163 240.92 370.64 245.397 370.64 250.92C370.64 256.443 366.163 260.92 360.64 260.92H340.64C335.117 260.92 330.64 256.443 330.64 250.92Z"/>
</mask>
<path d="M330.64 250.92C330.64 245.397 335.117 240.92 340.64 240.92H360.64C366.163 240.92 370.64 245.397 370.64 250.92C370.64 256.443 366.163 260.92 360.64 260.92H340.64C335.117 260.92 330.64 256.443 330.64 250.92Z" fill="#4F46E5"/>
<path d="M330.64 250.92M370.64 250.92M370.64 250.92M330.64 250.92M340.64 240.92V241.56H360.64V240.92V240.28H340.64V240.92ZM370.64 250.92M360.64 260.92V260.28H340.64V260.92V261.56H360.64V260.92ZM330.64 250.92M340.64 260.92V260.28C335.471 260.28 331.28 256.089 331.28 250.92H330.64H330C330 256.796 334.764 261.56 340.64 261.56V260.92ZM370.64 250.92H370C370 256.089 365.809 260.28 360.64 260.28V260.92V261.56C366.516 261.56 371.28 256.796 371.28 250.92H370.64ZM360.64 240.92V241.56C365.809 241.56 370 245.751 370 250.92H370.64H371.28C371.28 245.044 366.516 240.28 360.64 240.28V240.92ZM340.64 240.92V240.28C334.764 240.28 330 245.044 330 250.92H330.64H331.28C331.28 245.751 335.471 241.56 340.64 241.56V240.92Z" fill="#5C64F2" fill-opacity="0.4" mask="url(#path-27-inside-8_2131_959)"/>
<g filter="url(#filter2_d_2131_959)">
<path d="M353.28 251.28C353.28 247.414 356.414 244.28 360.28 244.28C364.146 244.28 367.28 247.414 367.28 251.28C367.28 255.146 364.146 258.28 360.28 258.28C356.414 258.28 353.28 255.146 353.28 251.28Z" fill="white"/>
</g>
<mask id="path-30-inside-9_2131_959" fill="white">
<path d="M63.64 275.56H390.64V326.56H63.64V275.56Z"/>
</mask>
<path d="M390.64 326.56V325.56H63.64V326.56V327.56H390.64V326.56Z" fill="white" fill-opacity="0.06" mask="url(#path-30-inside-9_2131_959)"/>
<path d="M86.2437 305.56L84.0832 298.469H85.2281L86.7608 303.898H86.8346L88.3488 298.469H89.5122L91.0079 303.88H91.0818L92.6144 298.469H93.7593L91.5988 305.56H90.5278L88.9767 300.113H88.8659L87.3147 305.56H86.2437ZM95.1997 305.56V298.469H96.2522V299.54H96.3261C96.4554 299.189 96.6893 298.905 97.0278 298.686C97.3663 298.468 97.748 298.358 98.1727 298.358C98.2527 298.358 98.3527 298.36 98.4728 298.363C98.5928 298.366 98.6836 298.371 98.7451 298.377V299.485C98.7082 299.476 98.6236 299.462 98.4912 299.443C98.362 299.422 98.225 299.411 98.0804 299.411C97.7357 299.411 97.4279 299.483 97.1571 299.628C96.8893 299.769 96.6769 299.966 96.52 300.219C96.3661 300.468 96.2892 300.753 96.2892 301.073V305.56H95.1997ZM100.037 305.56V298.469H101.126V305.56H100.037ZM100.591 297.287C100.378 297.287 100.195 297.215 100.041 297.07C99.8904 296.926 99.815 296.752 99.815 296.549C99.815 296.346 99.8904 296.172 100.041 296.027C100.195 295.882 100.378 295.81 100.591 295.81C100.803 295.81 100.985 295.882 101.135 296.027C101.289 296.172 101.366 296.346 101.366 296.549C101.366 296.752 101.289 296.926 101.135 297.07C100.985 297.215 100.803 297.287 100.591 297.287ZM106.205 298.469V299.392H102.531V298.469H106.205ZM103.602 296.77H104.691V303.529C104.691 303.837 104.736 304.067 104.825 304.221C104.917 304.372 105.034 304.474 105.176 304.526C105.321 304.575 105.473 304.6 105.633 304.6C105.753 304.6 105.851 304.594 105.928 304.581C106.005 304.566 106.067 304.554 106.113 304.544L106.335 305.523C106.261 305.551 106.158 305.579 106.025 305.606C105.893 305.637 105.725 305.652 105.522 305.652C105.214 305.652 104.913 305.586 104.617 305.454C104.325 305.322 104.082 305.12 103.888 304.849C103.697 304.578 103.602 304.237 103.602 303.824V296.77ZM110.741 305.708C110.058 305.708 109.468 305.557 108.973 305.255C108.481 304.951 108.1 304.526 107.833 303.981C107.568 303.433 107.436 302.796 107.436 302.07C107.436 301.344 107.568 300.704 107.833 300.15C108.1 299.592 108.473 299.159 108.95 298.848C109.43 298.534 109.99 298.377 110.63 298.377C111 298.377 111.364 298.438 111.724 298.561C112.084 298.685 112.412 298.885 112.708 299.162C113.003 299.436 113.239 299.799 113.414 300.251C113.589 300.704 113.677 301.261 113.677 301.922V302.384H108.211V301.442H112.569C112.569 301.042 112.489 300.685 112.329 300.371C112.172 300.057 111.947 299.809 111.655 299.628C111.366 299.446 111.024 299.356 110.63 299.356C110.196 299.356 109.821 299.463 109.504 299.679C109.19 299.891 108.948 300.168 108.779 300.51C108.61 300.851 108.525 301.217 108.525 301.608V302.236C108.525 302.772 108.617 303.226 108.802 303.598C108.99 303.967 109.25 304.249 109.582 304.443C109.915 304.634 110.301 304.729 110.741 304.729C111.027 304.729 111.286 304.689 111.517 304.609C111.751 304.526 111.952 304.403 112.121 304.24C112.291 304.074 112.421 303.867 112.514 303.621L113.566 303.917C113.456 304.274 113.269 304.588 113.008 304.858C112.746 305.126 112.423 305.335 112.038 305.486C111.654 305.634 111.221 305.708 110.741 305.708ZM116.128 305.634C115.901 305.634 115.705 305.552 115.542 305.389C115.379 305.226 115.298 305.031 115.298 304.803C115.298 304.575 115.379 304.38 115.542 304.217C115.705 304.054 115.901 303.972 116.128 303.972C116.356 303.972 116.552 304.054 116.715 304.217C116.878 304.38 116.959 304.575 116.959 304.803C116.959 304.954 116.921 305.092 116.844 305.218C116.77 305.345 116.67 305.446 116.544 305.523C116.421 305.597 116.282 305.634 116.128 305.634ZM116.128 300.371C115.901 300.371 115.705 300.29 115.542 300.126C115.379 299.963 115.298 299.768 115.298 299.54C115.298 299.312 115.379 299.117 115.542 298.954C115.705 298.791 115.901 298.709 116.128 298.709C116.356 298.709 116.552 298.791 116.715 298.954C116.878 299.117 116.959 299.312 116.959 299.54C116.959 299.691 116.921 299.829 116.844 299.956C116.77 300.082 116.67 300.183 116.544 300.26C116.421 300.334 116.282 300.371 116.128 300.371ZM123.937 300.057L122.959 300.334C122.897 300.171 122.806 300.013 122.686 299.859C122.569 299.702 122.409 299.572 122.206 299.471C122.003 299.369 121.743 299.319 121.426 299.319C120.992 299.319 120.63 299.419 120.341 299.619C120.055 299.816 119.912 300.066 119.912 300.371C119.912 300.642 120.01 300.856 120.207 301.013C120.404 301.17 120.712 301.301 121.13 301.405L122.183 301.664C122.817 301.818 123.289 302.053 123.6 302.37C123.911 302.684 124.067 303.089 124.067 303.584C124.067 303.99 123.95 304.354 123.716 304.674C123.485 304.994 123.162 305.246 122.746 305.431C122.331 305.615 121.848 305.708 121.297 305.708C120.573 305.708 119.975 305.551 119.501 305.237C119.027 304.923 118.727 304.464 118.601 303.861L119.635 303.603C119.733 303.984 119.919 304.271 120.193 304.461C120.47 304.652 120.832 304.748 121.278 304.748C121.786 304.748 122.189 304.64 122.488 304.424C122.789 304.206 122.94 303.944 122.94 303.64C122.94 303.393 122.854 303.187 122.682 303.021C122.509 302.852 122.245 302.726 121.888 302.642L120.706 302.365C120.056 302.212 119.579 301.973 119.275 301.65C118.973 301.324 118.822 300.916 118.822 300.427C118.822 300.026 118.935 299.673 119.159 299.365C119.387 299.057 119.696 298.815 120.087 298.64C120.481 298.465 120.927 298.377 121.426 298.377C122.128 298.377 122.678 298.531 123.079 298.838C123.482 299.146 123.768 299.552 123.937 300.057ZM128.68 305.708C127.996 305.708 127.407 305.557 126.911 305.255C126.419 304.951 126.039 304.526 125.771 303.981C125.506 303.433 125.374 302.796 125.374 302.07C125.374 301.344 125.506 300.704 125.771 300.15C126.039 299.592 126.411 299.159 126.888 298.848C127.368 298.534 127.929 298.377 128.569 298.377C128.938 298.377 129.303 298.438 129.663 298.561C130.023 298.685 130.351 298.885 130.646 299.162C130.942 299.436 131.177 299.799 131.352 300.251C131.528 300.704 131.616 301.261 131.616 301.922V302.384H126.15V301.442H130.508C130.508 301.042 130.428 300.685 130.268 300.371C130.111 300.057 129.886 299.809 129.594 299.628C129.304 299.446 128.963 299.356 128.569 299.356C128.135 299.356 127.759 299.463 127.442 299.679C127.128 299.891 126.887 300.168 126.718 300.51C126.548 300.851 126.464 301.217 126.464 301.608V302.236C126.464 302.772 126.556 303.226 126.741 303.598C126.928 303.967 127.188 304.249 127.521 304.443C127.853 304.634 128.239 304.729 128.68 304.729C128.966 304.729 129.224 304.689 129.455 304.609C129.689 304.526 129.891 304.403 130.06 304.24C130.229 304.074 130.36 303.867 130.452 303.621L131.505 303.917C131.394 304.274 131.208 304.588 130.946 304.858C130.685 305.126 130.361 305.335 129.977 305.486C129.592 305.634 129.16 305.708 128.68 305.708ZM138.296 300.057L137.317 300.334C137.255 300.171 137.165 300.013 137.045 299.859C136.928 299.702 136.768 299.572 136.564 299.471C136.361 299.369 136.101 299.319 135.784 299.319C135.35 299.319 134.989 299.419 134.699 299.619C134.413 299.816 134.27 300.066 134.27 300.371C134.27 300.642 134.369 300.856 134.566 301.013C134.762 301.17 135.07 301.301 135.489 301.405L136.541 301.664C137.175 301.818 137.648 302.053 137.959 302.37C138.269 302.684 138.425 303.089 138.425 303.584C138.425 303.99 138.308 304.354 138.074 304.674C137.843 304.994 137.52 305.246 137.105 305.431C136.689 305.615 136.206 305.708 135.655 305.708C134.932 305.708 134.333 305.551 133.859 305.237C133.385 304.923 133.085 304.464 132.959 303.861L133.993 303.603C134.092 303.984 134.278 304.271 134.552 304.461C134.829 304.652 135.19 304.748 135.637 304.748C136.144 304.748 136.548 304.64 136.846 304.424C137.148 304.206 137.298 303.944 137.298 303.64C137.298 303.393 137.212 303.187 137.04 303.021C136.868 302.852 136.603 302.726 136.246 302.642L135.064 302.365C134.415 302.212 133.938 301.973 133.633 301.65C133.331 301.324 133.181 300.916 133.181 300.427C133.181 300.026 133.293 299.673 133.518 299.365C133.745 299.057 134.055 298.815 134.446 298.64C134.839 298.465 135.286 298.377 135.784 298.377C136.486 298.377 137.037 298.531 137.437 298.838C137.84 299.146 138.126 299.552 138.296 300.057ZM145.088 300.057L144.109 300.334C144.047 300.171 143.957 300.013 143.837 299.859C143.72 299.702 143.56 299.572 143.356 299.471C143.153 299.369 142.893 299.319 142.576 299.319C142.142 299.319 141.781 299.419 141.491 299.619C141.205 299.816 141.062 300.066 141.062 300.371C141.062 300.642 141.161 300.856 141.358 301.013C141.554 301.17 141.862 301.301 142.281 301.405L143.333 301.664C143.967 301.818 144.44 302.053 144.751 302.37C145.061 302.684 145.217 303.089 145.217 303.584C145.217 303.99 145.1 304.354 144.866 304.674C144.635 304.994 144.312 305.246 143.897 305.431C143.481 305.615 142.998 305.708 142.447 305.708C141.724 305.708 141.125 305.551 140.651 305.237C140.177 304.923 139.877 304.464 139.751 303.861L140.785 303.603C140.884 303.984 141.07 304.271 141.344 304.461C141.621 304.652 141.982 304.748 142.429 304.748C142.936 304.748 143.34 304.64 143.638 304.424C143.94 304.206 144.09 303.944 144.09 303.64C144.09 303.393 144.004 303.187 143.832 303.021C143.66 302.852 143.395 302.726 143.038 302.642L141.856 302.365C141.207 302.212 140.73 301.973 140.425 301.65C140.123 301.324 139.973 300.916 139.973 300.427C139.973 300.026 140.085 299.673 140.31 299.365C140.537 299.057 140.847 298.815 141.237 298.64C141.631 298.465 142.078 298.377 142.576 298.377C143.278 298.377 143.829 298.531 144.229 298.838C144.632 299.146 144.918 299.552 145.088 300.057ZM146.857 305.56V298.469H147.946V305.56H146.857ZM147.411 297.287C147.199 297.287 147.015 297.215 146.862 297.07C146.711 296.926 146.635 296.752 146.635 296.549C146.635 296.346 146.711 296.172 146.862 296.027C147.015 295.882 147.199 295.81 147.411 295.81C147.623 295.81 147.805 295.882 147.956 296.027C148.11 296.172 148.186 296.346 148.186 296.549C148.186 296.752 148.11 296.926 147.956 297.07C147.805 297.215 147.623 297.287 147.411 297.287ZM152.823 305.708C152.182 305.708 151.621 305.555 151.138 305.251C150.657 304.946 150.282 304.52 150.011 303.972C149.743 303.424 149.609 302.784 149.609 302.052C149.609 301.313 149.743 300.668 150.011 300.117C150.282 299.566 150.657 299.139 151.138 298.834C151.621 298.529 152.182 298.377 152.823 298.377C153.463 298.377 154.023 298.529 154.503 298.834C154.986 299.139 155.362 299.566 155.629 300.117C155.9 300.668 156.036 301.313 156.036 302.052C156.036 302.784 155.9 303.424 155.629 303.972C155.362 304.52 154.986 304.946 154.503 305.251C154.023 305.555 153.463 305.708 152.823 305.708ZM152.823 304.729C153.309 304.729 153.709 304.604 154.023 304.355C154.337 304.106 154.569 303.778 154.72 303.372C154.871 302.966 154.946 302.525 154.946 302.052C154.946 301.578 154.871 301.136 154.72 300.727C154.569 300.317 154.337 299.986 154.023 299.734C153.709 299.482 153.309 299.356 152.823 299.356C152.336 299.356 151.936 299.482 151.622 299.734C151.308 299.986 151.076 300.317 150.925 300.727C150.774 301.136 150.699 301.578 150.699 302.052C150.699 302.525 150.774 302.966 150.925 303.372C151.076 303.778 151.308 304.106 151.622 304.355C151.936 304.604 152.336 304.729 152.823 304.729ZM158.788 301.294V305.56H157.699V298.469H158.751V299.577H158.844C159.01 299.217 159.262 298.928 159.601 298.709C159.939 298.488 160.376 298.377 160.912 298.377C161.392 298.377 161.812 298.475 162.172 298.672C162.532 298.866 162.812 299.162 163.012 299.559C163.212 299.953 163.312 300.451 163.312 301.054V305.56H162.223V301.128C162.223 300.571 162.078 300.137 161.789 299.826C161.5 299.512 161.103 299.356 160.598 299.356C160.25 299.356 159.939 299.431 159.665 299.582C159.394 299.733 159.181 299.953 159.024 300.242C158.867 300.531 158.788 300.882 158.788 301.294ZM170.326 300.057L169.347 300.334C169.286 300.171 169.195 300.013 169.075 299.859C168.958 299.702 168.798 299.572 168.595 299.471C168.392 299.369 168.132 299.319 167.815 299.319C167.381 299.319 167.019 299.419 166.73 299.619C166.443 299.816 166.3 300.066 166.3 300.371C166.3 300.642 166.399 300.856 166.596 301.013C166.793 301.17 167.101 301.301 167.519 301.405L168.572 301.664C169.206 301.818 169.678 302.053 169.989 302.37C170.3 302.684 170.455 303.089 170.455 303.584C170.455 303.99 170.338 304.354 170.104 304.674C169.874 304.994 169.55 305.246 169.135 305.431C168.719 305.615 168.236 305.708 167.685 305.708C166.962 305.708 166.363 305.551 165.889 305.237C165.416 304.923 165.115 304.464 164.989 303.861L166.023 303.603C166.122 303.984 166.308 304.271 166.582 304.461C166.859 304.652 167.221 304.748 167.667 304.748C168.175 304.748 168.578 304.64 168.876 304.424C169.178 304.206 169.329 303.944 169.329 303.64C169.329 303.393 169.243 303.187 169.07 303.021C168.898 302.852 168.633 302.726 168.276 302.642L167.094 302.365C166.445 302.212 165.968 301.973 165.663 301.65C165.362 301.324 165.211 300.916 165.211 300.427C165.211 300.026 165.323 299.673 165.548 299.365C165.776 299.057 166.085 298.815 166.476 298.64C166.87 298.465 167.316 298.377 167.815 298.377C168.516 298.377 169.067 298.531 169.467 298.838C169.87 299.146 170.157 299.552 170.326 300.057Z" fill="#8E8F96"/>
<mask id="path-33-inside-10_2131_959" fill="white">
<path d="M330.64 300.56C330.64 295.037 335.117 290.56 340.64 290.56H360.64C366.163 290.56 370.64 295.037 370.64 300.56C370.64 306.083 366.163 310.56 360.64 310.56H340.64C335.117 310.56 330.64 306.083 330.64 300.56Z"/>
</mask>
<path d="M330.64 300.56C330.64 295.037 335.117 290.56 340.64 290.56H360.64C366.163 290.56 370.64 295.037 370.64 300.56C370.64 306.083 366.163 310.56 360.64 310.56H340.64C335.117 310.56 330.64 306.083 330.64 300.56Z" fill="#27272A"/>
<path d="M330.64 300.56M370.64 300.56M370.64 300.56M330.64 300.56M340.64 290.56V291.2H360.64V290.56V289.92H340.64V290.56ZM370.64 300.56M360.64 310.56V309.92H340.64V310.56V311.2H360.64V310.56ZM330.64 300.56M340.64 310.56V309.92C335.471 309.92 331.28 305.729 331.28 300.56H330.64H330C330 306.436 334.764 311.2 340.64 311.2V310.56ZM370.64 300.56H370C370 305.729 365.809 309.92 360.64 309.92V310.56V311.2C366.516 311.2 371.28 306.436 371.28 300.56H370.64ZM360.64 290.56V291.2C365.809 291.2 370 295.391 370 300.56H370.64H371.28C371.28 294.684 366.516 289.92 360.64 289.92V290.56ZM340.64 290.56V289.92C334.764 289.92 330 294.684 330 300.56H330.64H331.28C331.28 295.391 335.471 291.2 340.64 291.2V290.56Z" fill="white" fill-opacity="0.03" mask="url(#path-33-inside-10_2131_959)"/>
<g filter="url(#filter3_d_2131_959)">
<path d="M333.28 300.92C333.28 297.054 336.414 293.92 340.28 293.92C344.146 293.92 347.28 297.054 347.28 300.92C347.28 304.786 344.146 307.92 340.28 307.92C336.414 307.92 333.28 304.786 333.28 300.92Z" fill="#71717A"/>
</g>
<path d="M86.7238 355.726C86.2745 355.726 85.8667 355.642 85.5005 355.472C85.1342 355.3 84.8434 355.052 84.6279 354.729C84.4125 354.403 84.3048 354.009 84.3048 353.547C84.3048 353.141 84.3848 352.812 84.5448 352.559C84.7049 352.304 84.9188 352.104 85.1865 351.959C85.4543 351.815 85.7497 351.707 86.0729 351.636C86.3991 351.562 86.7269 351.504 87.0562 351.461C87.4871 351.405 87.8364 351.364 88.1041 351.336C88.375 351.305 88.572 351.254 88.6951 351.184C88.8212 351.113 88.8843 350.99 88.8843 350.814V350.777C88.8843 350.322 88.7597 349.968 88.5104 349.716C88.2642 349.463 87.8903 349.337 87.3886 349.337C86.8685 349.337 86.4607 349.451 86.1652 349.679C85.8698 349.906 85.662 350.15 85.542 350.408L84.5079 350.039C84.6926 349.608 84.9388 349.272 85.2465 349.032C85.5574 348.789 85.8959 348.62 86.2622 348.525C86.6315 348.426 86.9947 348.377 87.3517 348.377C87.5794 348.377 87.841 348.405 88.1365 348.46C88.435 348.512 88.7228 348.621 88.9997 348.788C89.2798 348.954 89.5122 349.205 89.6968 349.54C89.8815 349.876 89.9738 350.325 89.9738 350.888V355.56H88.8843V354.6H88.8289C88.7551 354.754 88.632 354.918 88.4596 355.094C88.2873 355.269 88.058 355.418 87.7718 355.542C87.4855 355.665 87.1362 355.726 86.7238 355.726ZM86.89 354.748C87.3209 354.748 87.684 354.663 87.9795 354.494C88.278 354.324 88.5027 354.106 88.6535 353.838C88.8074 353.57 88.8843 353.289 88.8843 352.993V351.996C88.8382 352.052 88.7366 352.102 88.5796 352.148C88.4258 352.192 88.2473 352.23 88.0441 352.264C87.8441 352.295 87.6487 352.322 87.4578 352.347C87.2701 352.369 87.1178 352.387 87.0008 352.402C86.7177 352.439 86.453 352.499 86.2068 352.582C85.9636 352.662 85.7667 352.784 85.6159 352.947C85.4681 353.107 85.3943 353.326 85.3943 353.603C85.3943 353.981 85.5343 354.267 85.8144 354.461C86.0975 354.652 86.4561 354.748 86.89 354.748ZM94.6399 355.708C94.049 355.708 93.5274 355.559 93.0749 355.26C92.6225 354.958 92.2686 354.534 92.0132 353.986C91.7577 353.435 91.63 352.784 91.63 352.033C91.63 351.288 91.7577 350.642 92.0132 350.094C92.2686 349.546 92.6241 349.123 93.0796 348.825C93.535 348.526 94.0613 348.377 94.6584 348.377C95.12 348.377 95.4847 348.454 95.7525 348.608C96.0233 348.758 96.2295 348.931 96.3711 349.125C96.5158 349.316 96.6281 349.472 96.7081 349.596H96.8004V346.106H97.8899V355.56H96.8374V354.471H96.7081C96.6281 354.6 96.5142 354.763 96.3665 354.96C96.2188 355.154 96.0079 355.328 95.734 355.482C95.4601 355.632 95.0954 355.708 94.6399 355.708ZM94.7877 354.729C95.2247 354.729 95.594 354.615 95.8956 354.387C96.1972 354.157 96.4265 353.838 96.5835 353.432C96.7404 353.023 96.8189 352.55 96.8189 352.015C96.8189 351.485 96.742 351.022 96.5881 350.625C96.4342 350.225 96.2065 349.914 95.9048 349.693C95.6032 349.468 95.2308 349.356 94.7877 349.356C94.326 349.356 93.9413 349.474 93.6335 349.711C93.3288 349.945 93.0996 350.263 92.9457 350.667C92.7949 351.067 92.7195 351.516 92.7195 352.015C92.7195 352.519 92.7964 352.978 92.9503 353.39C93.1073 353.8 93.3381 354.126 93.6428 354.369C93.9505 354.609 94.3322 354.729 94.7877 354.729ZM100.037 355.56V348.469H101.089V349.577H101.181C101.329 349.199 101.568 348.905 101.897 348.695C102.226 348.483 102.622 348.377 103.083 348.377C103.551 348.377 103.941 348.483 104.251 348.695C104.565 348.905 104.81 349.199 104.985 349.577H105.059C105.241 349.211 105.513 348.92 105.876 348.705C106.24 348.486 106.675 348.377 107.183 348.377C107.817 348.377 108.335 348.575 108.739 348.972C109.142 349.366 109.343 349.98 109.343 350.814V355.56H108.254V350.814C108.254 350.291 108.111 349.917 107.825 349.693C107.538 349.468 107.201 349.356 106.814 349.356C106.315 349.356 105.929 349.506 105.655 349.808C105.381 350.106 105.244 350.485 105.244 350.944V355.56H104.136V350.704C104.136 350.3 104.005 349.976 103.744 349.729C103.482 349.48 103.145 349.356 102.733 349.356C102.449 349.356 102.185 349.431 101.939 349.582C101.695 349.733 101.498 349.942 101.348 350.21C101.2 350.474 101.126 350.78 101.126 351.128V355.56H100.037ZM111.335 355.56V348.469H112.425V355.56H111.335ZM111.889 347.287C111.677 347.287 111.494 347.215 111.34 347.07C111.189 346.926 111.114 346.752 111.114 346.549C111.114 346.346 111.189 346.172 111.34 346.027C111.494 345.882 111.677 345.81 111.889 345.81C112.102 345.81 112.283 345.882 112.434 346.027C112.588 346.172 112.665 346.346 112.665 346.549C112.665 346.752 112.588 346.926 112.434 347.07C112.283 347.215 112.102 347.287 111.889 347.287ZM115.51 351.294V355.56H114.42V348.469H115.473V349.577H115.565C115.731 349.217 115.984 348.928 116.322 348.709C116.661 348.488 117.098 348.377 117.633 348.377C118.114 348.377 118.534 348.475 118.894 348.672C119.254 348.866 119.534 349.162 119.734 349.559C119.934 349.953 120.034 350.451 120.034 351.054V355.56H118.945V351.128C118.945 350.571 118.8 350.137 118.511 349.826C118.221 349.512 117.824 349.356 117.32 349.356C116.972 349.356 116.661 349.431 116.387 349.582C116.116 349.733 115.902 349.953 115.745 350.242C115.588 350.531 115.51 350.882 115.51 351.294ZM122.819 355.634C122.591 355.634 122.396 355.552 122.233 355.389C122.069 355.226 121.988 355.031 121.988 354.803C121.988 354.575 122.069 354.38 122.233 354.217C122.396 354.054 122.591 353.972 122.819 353.972C123.047 353.972 123.242 354.054 123.405 354.217C123.568 354.38 123.65 354.575 123.65 354.803C123.65 354.954 123.611 355.092 123.534 355.218C123.461 355.345 123.361 355.446 123.234 355.523C123.111 355.597 122.973 355.634 122.819 355.634ZM122.819 350.371C122.591 350.371 122.396 350.29 122.233 350.126C122.069 349.963 121.988 349.768 121.988 349.54C121.988 349.312 122.069 349.117 122.233 348.954C122.396 348.791 122.591 348.709 122.819 348.709C123.047 348.709 123.242 348.791 123.405 348.954C123.568 349.117 123.65 349.312 123.65 349.54C123.65 349.691 123.611 349.829 123.534 349.956C123.461 350.082 123.361 350.183 123.234 350.26C123.111 350.334 122.973 350.371 122.819 350.371ZM130.074 352.661V348.469H131.163V355.56H130.074V354.36H130C129.834 354.72 129.575 355.026 129.224 355.278C128.873 355.528 128.43 355.652 127.895 355.652C127.452 355.652 127.058 355.555 126.713 355.362C126.368 355.165 126.097 354.869 125.9 354.475C125.703 354.078 125.605 353.578 125.605 352.975V348.469H126.694V352.901C126.694 353.418 126.839 353.83 127.128 354.138C127.421 354.446 127.793 354.6 128.246 354.6C128.516 354.6 128.792 354.531 129.072 354.392C129.355 354.254 129.592 354.041 129.783 353.755C129.977 353.469 130.074 353.104 130.074 352.661ZM138.181 350.057L137.203 350.334C137.141 350.171 137.05 350.013 136.93 349.859C136.813 349.702 136.653 349.572 136.45 349.471C136.247 349.369 135.987 349.319 135.67 349.319C135.236 349.319 134.874 349.419 134.585 349.619C134.299 349.816 134.156 350.066 134.156 350.371C134.156 350.642 134.254 350.856 134.451 351.013C134.648 351.17 134.956 351.301 135.375 351.405L136.427 351.664C137.061 351.818 137.534 352.053 137.844 352.37C138.155 352.684 138.311 353.089 138.311 353.584C138.311 353.99 138.194 354.354 137.96 354.674C137.729 354.994 137.406 355.246 136.99 355.431C136.575 355.615 136.092 355.708 135.541 355.708C134.818 355.708 134.219 355.551 133.745 355.237C133.271 354.923 132.971 354.464 132.845 353.861L133.879 353.603C133.977 353.984 134.164 354.271 134.437 354.461C134.714 354.652 135.076 354.748 135.522 354.748C136.03 354.748 136.433 354.64 136.732 354.424C137.033 354.206 137.184 353.944 137.184 353.64C137.184 353.393 137.098 353.187 136.926 353.021C136.753 352.852 136.489 352.726 136.132 352.642L134.95 352.365C134.3 352.212 133.823 351.973 133.519 351.65C133.217 351.324 133.066 350.916 133.066 350.427C133.066 350.026 133.179 349.673 133.403 349.365C133.631 349.057 133.94 348.815 134.331 348.64C134.725 348.465 135.171 348.377 135.67 348.377C136.372 348.377 136.923 348.531 137.323 348.838C137.726 349.146 138.012 349.552 138.181 350.057ZM142.924 355.708C142.24 355.708 141.651 355.557 141.156 355.255C140.663 354.951 140.283 354.526 140.015 353.981C139.751 353.433 139.618 352.796 139.618 352.07C139.618 351.344 139.751 350.704 140.015 350.15C140.283 349.592 140.655 349.159 141.132 348.848C141.613 348.534 142.173 348.377 142.813 348.377C143.182 348.377 143.547 348.438 143.907 348.561C144.267 348.685 144.595 348.885 144.89 349.162C145.186 349.436 145.421 349.799 145.597 350.251C145.772 350.704 145.86 351.261 145.86 351.922V352.384H140.394V351.442H144.752C144.752 351.042 144.672 350.685 144.512 350.371C144.355 350.057 144.13 349.809 143.838 349.628C143.548 349.446 143.207 349.356 142.813 349.356C142.379 349.356 142.003 349.463 141.686 349.679C141.373 349.891 141.131 350.168 140.962 350.51C140.792 350.851 140.708 351.217 140.708 351.608V352.236C140.708 352.772 140.8 353.226 140.985 353.598C141.172 353.967 141.433 354.249 141.765 354.443C142.097 354.634 142.484 354.729 142.924 354.729C143.21 354.729 143.468 354.689 143.699 354.609C143.933 354.526 144.135 354.403 144.304 354.24C144.473 354.074 144.604 353.867 144.696 353.621L145.749 353.917C145.638 354.274 145.452 354.588 145.19 354.858C144.929 355.126 144.606 355.335 144.221 355.486C143.836 355.634 143.404 355.708 142.924 355.708ZM147.517 355.56V348.469H148.57V349.54H148.643C148.773 349.189 149.007 348.905 149.345 348.686C149.684 348.468 150.065 348.358 150.49 348.358C150.57 348.358 150.67 348.36 150.79 348.363C150.91 348.366 151.001 348.371 151.063 348.377V349.485C151.026 349.476 150.941 349.462 150.809 349.443C150.679 349.422 150.542 349.411 150.398 349.411C150.053 349.411 149.745 349.483 149.474 349.628C149.207 349.769 148.994 349.966 148.837 350.219C148.683 350.468 148.607 350.753 148.607 351.073V355.56H147.517ZM157.377 350.057L156.398 350.334C156.336 350.171 156.246 350.013 156.126 349.859C156.009 349.702 155.849 349.572 155.646 349.471C155.442 349.369 155.182 349.319 154.865 349.319C154.431 349.319 154.07 349.419 153.78 349.619C153.494 349.816 153.351 350.066 153.351 350.371C153.351 350.642 153.45 350.856 153.647 351.013C153.844 351.17 154.151 351.301 154.57 351.405L155.622 351.664C156.256 351.818 156.729 352.053 157.04 352.37C157.351 352.684 157.506 353.089 157.506 353.584C157.506 353.99 157.389 354.354 157.155 354.674C156.924 354.994 156.601 355.246 156.186 355.431C155.77 355.615 155.287 355.708 154.736 355.708C154.013 355.708 153.414 355.551 152.94 355.237C152.466 354.923 152.166 354.464 152.04 353.861L153.074 353.603C153.173 353.984 153.359 354.271 153.633 354.461C153.91 354.652 154.271 354.748 154.718 354.748C155.225 354.748 155.629 354.64 155.927 354.424C156.229 354.206 156.38 353.944 156.38 353.64C156.38 353.393 156.293 353.187 156.121 353.021C155.949 352.852 155.684 352.726 155.327 352.642L154.145 352.365C153.496 352.212 153.019 351.973 152.714 351.65C152.412 351.324 152.262 350.916 152.262 350.427C152.262 350.026 152.374 349.673 152.599 349.365C152.826 349.057 153.136 348.815 153.527 348.64C153.92 348.465 154.367 348.377 154.865 348.377C155.567 348.377 156.118 348.531 156.518 348.838C156.921 349.146 157.207 349.552 157.377 350.057Z" fill="#8E8F96"/>
<mask id="path-37-inside-11_2131_959" fill="white">
<path d="M328.64 350.56C328.64 345.037 333.117 340.56 338.64 340.56H358.64C364.163 340.56 368.64 345.037 368.64 350.56C368.64 356.083 364.163 360.56 358.64 360.56H338.64C333.117 360.56 328.64 356.083 328.64 350.56Z"/>
</mask>
<path d="M328.64 350.56C328.64 345.037 333.117 340.56 338.64 340.56H358.64C364.163 340.56 368.64 345.037 368.64 350.56C368.64 356.083 364.163 360.56 358.64 360.56H338.64C333.117 360.56 328.64 356.083 328.64 350.56Z" fill="#27272A"/>
<path d="M328.64 350.56M368.64 350.56M368.64 350.56M328.64 350.56M338.64 340.56V341.2H358.64V340.56V339.92H338.64V340.56ZM368.64 350.56M358.64 360.56V359.92H338.64V360.56V361.2H358.64V360.56ZM328.64 350.56M338.64 360.56V359.92C333.471 359.92 329.28 355.729 329.28 350.56H328.64H328C328 356.436 332.764 361.2 338.64 361.2V360.56ZM368.64 350.56H368C368 355.729 363.809 359.92 358.64 359.92V360.56V361.2C364.516 361.2 369.28 356.436 369.28 350.56H368.64ZM358.64 340.56V341.2C363.809 341.2 368 345.391 368 350.56H368.64H369.28C369.28 344.684 364.516 339.92 358.64 339.92V340.56ZM338.64 340.56V339.92C332.764 339.92 328 344.684 328 350.56H328.64H329.28C329.28 345.391 333.471 341.2 338.64 341.2V340.56Z" fill="white" fill-opacity="0.03" mask="url(#path-37-inside-11_2131_959)"/>
<g filter="url(#filter4_d_2131_959)">
<path d="M331.28 350.92C331.28 347.054 334.414 343.92 338.28 343.92C342.146 343.92 345.28 347.054 345.28 350.92C345.28 354.786 342.146 357.92 338.28 357.92C334.414 357.92 331.28 354.786 331.28 350.92Z" fill="#71717A"/>
</g>
</g>
<defs>
<filter id="filter0_d_2131_959" x="349.28" y="142" width="20" height="20" filterUnits="userSpaceOnUse" color-interpolation-filters="sRGB">
<feFlood flood-opacity="0" result="BackgroundImageFix"/>
<feColorMatrix in="SourceAlpha" type="matrix" values="0 0 0 0 0 0 0 0 0 0 0 0 0 0 0 0 0 0 127 0" result="hardAlpha"/>
<feOffset dy="1"/>
<feGaussianBlur stdDeviation="1.5"/>
<feComposite in2="hardAlpha" operator="out"/>
<feColorMatrix type="matrix" values="0 0 0 0 0 0 0 0 0 0 0 0 0 0 0 0 0 0 0.4 0"/>
<feBlend mode="normal" in2="BackgroundImageFix" result="effect1_dropShadow_2131_959"/>
<feBlend mode="normal" in="SourceGraphic" in2="effect1_dropShadow_2131_959" result="shape"/>
</filter>
<filter id="filter1_d_2131_959" x="350.28" y="192.64" width="20" height="20" filterUnits="userSpaceOnUse" color-interpolation-filters="sRGB">
<feFlood flood-opacity="0" result="BackgroundImageFix"/>
<feColorMatrix in="SourceAlpha" type="matrix" values="0 0 0 0 0 0 0 0 0 0 0 0 0 0 0 0 0 0 127 0" result="hardAlpha"/>
<feOffset dy="1"/>
<feGaussianBlur stdDeviation="1.5"/>
<feComposite in2="hardAlpha" operator="out"/>
<feColorMatrix type="matrix" values="0 0 0 0 0 0 0 0 0 0 0 0 0 0 0 0 0 0 0.4 0"/>
<feBlend mode="normal" in2="BackgroundImageFix" result="effect1_dropShadow_2131_959"/>
<feBlend mode="normal" in="SourceGraphic" in2="effect1_dropShadow_2131_959" result="shape"/>
</filter>
<filter id="filter2_d_2131_959" x="350.28" y="242.28" width="20" height="20" filterUnits="userSpaceOnUse" color-interpolation-filters="sRGB">
<feFlood flood-opacity="0" result="BackgroundImageFix"/>
<feColorMatrix in="SourceAlpha" type="matrix" values="0 0 0 0 0 0 0 0 0 0 0 0 0 0 0 0 0 0 127 0" result="hardAlpha"/>
<feOffset dy="1"/>
<feGaussianBlur stdDeviation="1.5"/>
<feComposite in2="hardAlpha" operator="out"/>
<feColorMatrix type="matrix" values="0 0 0 0 0 0 0 0 0 0 0 0 0 0 0 0 0 0 0.4 0"/>
<feBlend mode="normal" in2="BackgroundImageFix" result="effect1_dropShadow_2131_959"/>
<feBlend mode="normal" in="SourceGraphic" in2="effect1_dropShadow_2131_959" result="shape"/>
</filter>
<filter id="filter3_d_2131_959" x="330.28" y="291.92" width="20" height="20" filterUnits="userSpaceOnUse" color-interpolation-filters="sRGB">
<feFlood flood-opacity="0" result="BackgroundImageFix"/>
<feColorMatrix in="SourceAlpha" type="matrix" values="0 0 0 0 0 0 0 0 0 0 0 0 0 0 0 0 0 0 127 0" result="hardAlpha"/>
<feOffset dy="1"/>
<feGaussianBlur stdDeviation="1.5"/>
<feComposite in2="hardAlpha" operator="out"/>
<feColorMatrix type="matrix" values="0 0 0 0 0 0 0 0 0 0 0 0 0 0 0 0 0 0 0.4 0"/>
<feBlend mode="normal" in2="BackgroundImageFix" result="effect1_dropShadow_2131_959"/>
<feBlend mode="normal" in="SourceGraphic" in2="effect1_dropShadow_2131_959" result="shape"/>
</filter>
<filter id="filter4_d_2131_959" x="328.28" y="341.92" width="20" height="20" filterUnits="userSpaceOnUse" color-interpolation-filters="sRGB">
<feFlood flood-opacity="0" result="BackgroundImageFix"/>
<feColorMatrix in="SourceAlpha" type="matrix" values="0 0 0 0 0 0 0 0 0 0 0 0 0 0 0 0 0 0 127 0" result="hardAlpha"/>
<feOffset dy="1"/>
<feGaussianBlur stdDeviation="1.5"/>
<feComposite in2="hardAlpha" operator="out"/>
<feColorMatrix type="matrix" values="0 0 0 0 0 0 0 0 0 0 0 0 0 0 0 0 0 0 0.4 0"/>
<feBlend mode="normal" in2="BackgroundImageFix" result="effect1_dropShadow_2131_959"/>
<feBlend mode="normal" in="SourceGraphic" in2="effect1_dropShadow_2131_959" result="shape"/>
</filter>
<clipPath id="clip0_2131_959">
<rect width="391" height="378" rx="6" fill="white"/>
</clipPath>
<clipPath id="clip1_2131_959">
<path d="M39 57C39 45.9543 47.9543 37 59 37H391V378H39V57Z" fill="white"/>
</clipPath>
</defs>
</svg>
