<svg xmlns="http://www.w3.org/2000/svg" width="391" height="378" fill="none" viewBox="0 0 391 378"><g clip-path="url(#a)"><path fill="#423d35" d="M0 2a4 4 0 0 1 4-4h383a4 4 0 0 1 4 4v372a4 4 0 0 1-4 4H4a4 4 0 0 1-4-4z"/><g clip-path="url(#b)"><path fill="#14120b" d="M39 57c0-11.046 8.954-20 20-20h332v341H39z"/><path fill="#1b1913" d="M39 37h352v32H39z"/><mask id="c" fill="#fff"><path d="M39 37h941v32H39z"/></mask><path fill="#edecec" fill-opacity=".08" d="M980 69v-.8H39v1.6h941z" mask="url(#c)"/><path fill="#edecec" fill-opacity=".2" d="M47 52.6a5 5 0 1 1 10 0 5 5 0 0 1-10 0m16 0a5 5 0 1 1 10 0 5 5 0 0 1-10 0m16 0a5 5 0 1 1 10 0 5 5 0 0 1-10 0"/><path fill="#14120b" d="M39 69h362v261H39z"/><path fill="#ececec" d="M64.598 112V97.454h5.185q1.69 0 2.805.583 1.122.583 1.676 1.612.555 1.023.554 2.365 0 1.335-.56 2.351-.555 1.008-1.677 1.57-1.115.561-2.805.561h-3.928v-1.889h3.729q1.065 0 1.733-.306.674-.305.987-.888.312-.582.312-1.399 0-.824-.32-1.427-.312-.604-.986-.924-.667-.327-1.755-.326h-2.755V112zm7.18-6.562L75.372 112h-2.5l-3.523-6.562zm9.599 6.782q-1.535 0-2.678-.703t-1.775-1.967q-.633-1.265-.633-2.955 0-1.697.633-2.969.631-1.27 1.775-1.974 1.143-.703 2.678-.703t2.677.703 1.776 1.974q.632 1.272.632 2.969 0 1.69-.632 2.955-.632 1.264-1.776 1.967t-2.677.703m.007-1.782q.994 0 1.647-.526.654-.525.966-1.399a5.6 5.6 0 0 0 .32-1.925 5.6 5.6 0 0 0-.32-1.918q-.312-.88-.966-1.413t-1.647-.533q-1.002 0-1.662.533-.654.532-.973 1.413a5.7 5.7 0 0 0-.313 1.918q0 1.051.313 1.925.32.873.973 1.399.66.525 1.662.526m9.172-12.984V112h-2.124V97.454zm7.158 14.766q-1.611 0-2.777-.689a4.67 4.67 0 0 1-1.79-1.953q-.624-1.264-.624-2.962 0-1.676.625-2.954.631-1.279 1.761-1.996 1.137-.717 2.656-.717a5.4 5.4 0 0 1 1.79.305 4.3 4.3 0 0 1 1.555.959q.69.653 1.087 1.698.398 1.036.398 2.521v.753h-8.672v-1.591h6.591q0-.838-.341-1.485a2.57 2.57 0 0 0-.959-1.029q-.61-.377-1.434-.377-.895 0-1.563.44-.66.433-1.023 1.137a3.3 3.3 0 0 0-.355 1.513v1.243q0 1.094.384 1.86.39.767 1.086 1.172.697.398 1.627.398.604 0 1.1-.171.498-.177.86-.525t.554-.859l2.01.362a3.64 3.64 0 0 1-.867 1.555 4.2 4.2 0 0 1-1.555 1.03q-.93.362-2.124.362m11.7-.22V97.454h5.185q1.698 0 2.813.618 1.114.618 1.669 1.69.554 1.066.554 2.401 0 1.342-.561 2.415-.555 1.066-1.677 1.69-1.114.618-2.805.618h-3.565v-1.86h3.366q1.073 0 1.74-.37a2.32 2.32 0 0 0 .98-1.022q.313-.646.313-1.471 0-.824-.313-1.463a2.24 2.24 0 0 0-.987-1.001q-.667-.363-1.761-.362h-2.756V112zm16.788.22q-1.613 0-2.777-.689a4.7 4.7 0 0 1-1.79-1.953q-.625-1.264-.625-2.962 0-1.676.625-2.954.633-1.279 1.762-1.996 1.136-.717 2.656-.717.923 0 1.79.305a4.3 4.3 0 0 1 1.555.959q.688.653 1.087 1.698.397 1.036.397 2.521v.753h-8.672v-1.591h6.591q0-.838-.341-1.485a2.57 2.57 0 0 0-.958-1.029q-.612-.377-1.435-.377-.895 0-1.563.44-.66.433-1.022 1.137a3.3 3.3 0 0 0-.355 1.513v1.243q0 1.094.383 1.86.391.767 1.087 1.172.696.398 1.626.398.605 0 1.101-.171.498-.177.859-.525.363-.349.554-.859l2.01.362a3.6 3.6 0 0 1-.866 1.555q-.618.66-1.556 1.03-.93.362-2.123.362m6.636-.22v-10.909h2.053v1.733h.114a2.64 2.64 0 0 1 1.051-1.385 3 3 0 0 1 1.719-.511 9 9 0 0 1 .902.049v2.032a4 4 0 0 0-.455-.079 4.4 4.4 0 0 0-.653-.049q-.753 0-1.343.319a2.38 2.38 0 0 0-1.264 2.138V112zm7.276 0v-10.909h2.039v1.775h.135a2.8 2.8 0 0 1 1.115-1.406q.774-.511 1.853-.511 1.094 0 1.833.511.746.512 1.101 1.406h.113a3.1 3.1 0 0 1 1.243-1.392q.852-.525 2.031-.525 1.485 0 2.422.93.945.931.945 2.806V112h-2.124v-7.116q0-1.108-.603-1.606-.604-.497-1.442-.497-1.037 0-1.612.639-.576.633-.576 1.627V112h-2.116v-7.251q0-.888-.554-1.428t-1.442-.54q-.603 0-1.115.32a2.35 2.35 0 0 0-.817.873q-.305.561-.305 1.3V112zm17.276 0v-10.909h2.124V112zm1.073-12.592a1.35 1.35 0 0 1-.952-.37 1.2 1.2 0 0 1-.391-.894q0-.526.391-.895.397-.377.952-.377t.944.377q.398.369.398.895 0 .517-.398.894-.39.37-.944.37m11.682 4.346-1.924.341a2.3 2.3 0 0 0-.384-.703 1.9 1.9 0 0 0-.696-.547q-.441-.213-1.101-.213-.901 0-1.506.405-.603.397-.603 1.03 0 .546.405.88.404.334 1.306.547l1.733.398q1.506.349 2.245 1.072.738.725.738 1.883a2.86 2.86 0 0 1-.568 1.747q-.561.76-1.569 1.193-1.002.433-2.323.433-1.832 0-2.99-.781-1.158-.788-1.42-2.237l2.052-.313q.192.802.788 1.215.597.405 1.556.405 1.044 0 1.669-.434.625-.44.625-1.072 0-.512-.384-.86-.376-.348-1.157-.525l-1.847-.405q-1.527-.348-2.258-1.108-.725-.76-.725-1.925 0-.966.54-1.69t1.491-1.129q.953-.412 2.181-.412 1.769 0 2.784.767 1.015.76 1.342 2.038m10.323 0-1.925.341a2.3 2.3 0 0 0-.383-.703 1.9 1.9 0 0 0-.696-.547q-.441-.213-1.101-.213-.902 0-1.506.405-.603.397-.604 1.03 0 .546.405.88t1.307.547l1.733.398q1.506.349 2.244 1.072.74.725.739 1.883a2.86 2.86 0 0 1-.568 1.747q-.56.76-1.57 1.193-1.001.433-2.322.433-1.833 0-2.99-.781-1.158-.788-1.421-2.237l2.053-.313q.191.802.788 1.215.596.405 1.556.405 1.044 0 1.669-.434.625-.44.625-1.072 0-.512-.384-.86-.376-.348-1.158-.525l-1.846-.405q-1.527-.348-2.259-1.108-.724-.76-.724-1.925 0-.966.54-1.69t1.491-1.129q.952-.412 2.18-.412 1.768 0 2.785.767 1.015.76 1.342 2.038m2.148 8.246v-10.909h2.123V112zm1.072-12.592q-.553 0-.951-.37a1.2 1.2 0 0 1-.391-.894q0-.526.391-.895.398-.377.951-.377.554 0 .945.377.398.369.398.895 0 .517-.398.894-.39.37-.945.37m8.103 12.812q-1.534 0-2.677-.703t-1.776-1.967q-.632-1.265-.632-2.955 0-1.697.632-2.969.633-1.27 1.776-1.974 1.143-.703 2.677-.703t2.678.703q1.143.704 1.776 1.974.632 1.272.632 2.969 0 1.69-.632 2.955-.633 1.264-1.776 1.967t-2.678.703m.008-1.782q.994 0 1.647-.526.654-.525.966-1.399a5.6 5.6 0 0 0 .32-1.925 5.6 5.6 0 0 0-.32-1.918q-.312-.88-.966-1.413t-1.647-.533q-1.002 0-1.662.533-.654.532-.973 1.413a5.7 5.7 0 0 0-.313 1.918q0 1.051.313 1.925.32.873.973 1.399.66.525 1.662.526m9.172-4.915V112h-2.124v-10.909h2.038v1.775h.135a3.13 3.13 0 0 1 1.179-1.392q.81-.525 2.039-.525 1.114 0 1.953.469.838.461 1.3 1.377.46.916.461 2.266V112h-2.123v-6.683q0-1.187-.618-1.854-.618-.675-1.698-.675-.738 0-1.314.32a2.3 2.3 0 0 0-.902.937q-.326.612-.326 1.478m17.604-1.769-1.925.341a2.3 2.3 0 0 0-.383-.703 1.9 1.9 0 0 0-.696-.547q-.441-.213-1.101-.213-.902 0-1.506.405-.603.397-.604 1.03 0 .546.405.88t1.307.547l1.733.398q1.506.349 2.244 1.072.74.725.739 1.883a2.86 2.86 0 0 1-.568 1.747q-.56.76-1.57 1.193-1.001.433-2.322.433-1.833 0-2.99-.781-1.158-.788-1.421-2.237l2.053-.313q.191.802.788 1.215.597.405 1.556.405 1.044 0 1.669-.434.625-.44.625-1.072 0-.512-.384-.86-.377-.348-1.158-.525l-1.846-.405q-1.527-.348-2.259-1.108-.724-.76-.724-1.925 0-.966.54-1.69t1.491-1.129q.952-.412 2.181-.412 1.768 0 2.784.767 1.015.76 1.342 2.038"/></g><mask id="d" fill="#fff"><path d="M63 139c0-7.732 6.268-14 14-14h314v253H63z"/></mask><path fill="#000" fill-opacity=".25" d="M63 139c0-7.732 6.268-14 14-14h314v253H63z"/><path fill="#fff" fill-opacity=".06" d="M62.36 139c0-8.085 6.555-14.64 14.64-14.64h314v1.28H77c-7.379 0-13.36 5.981-13.36 13.36zM391 378H63zm-328.64 0V139c0-8.085 6.555-14.64 14.64-14.64v1.28c-7.379 0-13.36 5.981-13.36 13.36v239zM391 125v253z" mask="url(#d)"/><mask id="e" fill="#fff"><path d="M63.64 125.64h326v50.64h-326z"/></mask><path fill="#fff" fill-opacity=".06" d="M389.64 176.28v-.64h-326v1.28h326z" mask="url(#e)"/><path fill="#ececec" d="M84.568 155.64v-7.091h1.334v1.127h.074q.195-.573.683-.901a1.96 1.96 0 0 1 1.117-.332 6 6 0 0 1 .587.032v1.321a2 2 0 0 0-.296-.051 3 3 0 0 0-.424-.032q-.49 0-.873.207a1.55 1.55 0 0 0-.822 1.39v4.33zm7.791.143q-1.047 0-1.805-.448a3.03 3.03 0 0 1-1.163-1.269q-.406-.822-.406-1.925 0-1.09.406-1.921a3.15 3.15 0 0 1 1.145-1.297q.739-.466 1.726-.466.6 0 1.164.198.563.199 1.01.624.45.425.707 1.103.258.674.259 1.639v.489h-5.637v-1.034h4.284q0-.545-.222-.965a1.67 1.67 0 0 0-.623-.669 1.74 1.74 0 0 0-.932-.245q-.582 0-1.016.286a1.9 1.9 0 0 0-.665.739q-.23.452-.23.983v.808q0 .71.249 1.21.253.498.706.761.453.26 1.057.259.392 0 .716-.111.323-.116.558-.341t.36-.559l1.307.235a2.36 2.36 0 0 1-.563 1.011 2.7 2.7 0 0 1-1.011.67 3.8 3.8 0 0 1-1.38.235m6.638.014q-.675 0-1.219-.249a2.05 2.05 0 0 1-.863-.734q-.314-.48-.314-1.177 0-.601.23-.988.231-.389.624-.614a3.3 3.3 0 0 1 .877-.342 9 9 0 0 1 .988-.175l1.034-.12q.397-.051.577-.162t.18-.36v-.032q0-.606-.342-.938-.337-.332-1.006-.332-.697 0-1.099.309-.397.306-.549.679l-1.297-.295q.23-.647.674-1.044a2.7 2.7 0 0 1 1.03-.581 4 4 0 0 1 1.223-.185q.424 0 .9.101.48.097.895.361.42.263.688.752.268.484.268 1.26v4.709h-1.348v-.969h-.055q-.135.268-.402.526a2.2 2.2 0 0 1-.688.429q-.42.171-1.006.171m.3-1.108q.572 0 .978-.226.411-.227.624-.591.217-.369.217-.789v-.914q-.075.073-.287.138-.207.06-.475.106l-.522.079-.424.055a3.4 3.4 0 0 0-.734.171q-.328.12-.527.346-.194.222-.194.591 0 .512.379.776.378.258.965.258m7.692 1.09a2.76 2.76 0 0 1-1.533-.439q-.67-.442-1.052-1.26-.38-.822-.379-1.971 0-1.15.383-1.967.388-.817 1.062-1.251.675-.434 1.528-.434.66 0 1.062.221.406.217.628.508.227.291.351.513h.083v-3.513h1.38v9.454h-1.348v-1.103h-.115a3.6 3.6 0 0 1-.36.517 2 2 0 0 1-.637.508q-.407.217-1.053.217m.305-1.178q.595 0 1.006-.313.415-.32.628-.882.217-.564.217-1.311 0-.74-.212-1.293a1.9 1.9 0 0 0-.624-.863q-.41-.31-1.015-.31-.624 0-1.039.324a2 2 0 0 0-.628.881 3.6 3.6 0 0 0-.208 1.261q0 .711.213 1.278.212.568.628.901.42.327 1.034.327m6.088 1.127a.9.9 0 0 1-.651-.268.9.9 0 0 1-.273-.655q0-.379.273-.647a.9.9 0 0 1 .651-.272q.378 0 .651.272a.88.88 0 0 1 .272.647.9.9 0 0 1-.129.466.95.95 0 0 1-.333.332.9.9 0 0 1-.461.125m0-5.161a.9.9 0 0 1-.651-.273.9.9 0 0 1-.273-.651q0-.378.273-.646a.9.9 0 0 1 .651-.272q.378 0 .651.272a.88.88 0 0 1 .272.646q0 .254-.129.467a.95.95 0 0 1-.333.332.9.9 0 0 1-.461.125m2.772 5.073v-7.091h1.334v1.127h.074q.194-.573.683-.901a1.96 1.96 0 0 1 1.117-.332 6 6 0 0 1 .587.032v1.321a2 2 0 0 0-.296-.051 3 3 0 0 0-.425-.032q-.49 0-.872.207a1.55 1.55 0 0 0-.822 1.39v4.33zm4.989 0v-7.091h1.38v7.091zm.697-8.185a.88.88 0 0 1-.618-.24.78.78 0 0 1-.254-.582q0-.34.254-.581a.87.87 0 0 1 .618-.245q.36 0 .614.245.26.24.259.581a.77.77 0 0 1-.259.582.86.86 0 0 1-.614.24m7.854 2.825-1.251.222a1.5 1.5 0 0 0-.249-.457 1.24 1.24 0 0 0-.453-.356q-.286-.138-.715-.138-.586 0-.979.263-.392.258-.392.67 0 .355.263.572t.849.355l1.127.259q.978.226 1.458.697t.48 1.223q0 .638-.369 1.136-.364.494-1.02.776-.65.28-1.51.281-1.191 0-1.943-.508-.753-.512-.923-1.454l1.334-.203q.125.522.512.79.388.263 1.011.263.679 0 1.085-.282.406-.286.406-.697a.73.73 0 0 0-.249-.559q-.245-.225-.753-.341l-1.2-.263q-.993-.226-1.468-.721-.471-.494-.471-1.251 0-.627.351-1.098.35-.471.97-.734.618-.268 1.417-.268 1.149 0 1.809.498.66.495.873 1.325m2.926 2.955-.01-1.685h.241l2.825-3.001h1.652l-3.222 3.416h-.217zm-1.27 2.405v-9.454h1.38v9.454zm4.478 0-2.539-3.37.951-.965 3.282 4.335zm6.454-4.593v1.195h-4.192v-1.195zm4.896 4.736q-1.049 0-1.805-.448a3.03 3.03 0 0 1-1.164-1.269q-.406-.822-.406-1.925 0-1.09.406-1.921a3.16 3.16 0 0 1 1.145-1.297q.739-.466 1.727-.466.6 0 1.163.198.564.199 1.011.624.448.425.706 1.103.26.674.259 1.639v.489h-5.637v-1.034h4.284q0-.545-.221-.965a1.7 1.7 0 0 0-.623-.669 1.75 1.75 0 0 0-.933-.245 1.8 1.8 0 0 0-1.016.286 1.9 1.9 0 0 0-.664.739 2.1 2.1 0 0 0-.231.983v.808q0 .71.249 1.21.254.498.706.761a2.1 2.1 0 0 0 1.058.259q.392 0 .715-.111.324-.116.559-.341t.36-.559l1.306.235a2.35 2.35 0 0 1-.563 1.011q-.402.43-1.011.67a3.8 3.8 0 0 1-1.38.235m10.436-7.234-2.571 7.091h-1.477l-2.576-7.091h1.482l1.796 5.457h.073l1.792-5.457zm4.113 7.234q-1.049 0-1.805-.448a3.03 3.03 0 0 1-1.164-1.269q-.406-.822-.406-1.925 0-1.09.406-1.921a3.16 3.16 0 0 1 1.145-1.297q.738-.466 1.727-.466.6 0 1.163.198.563.199 1.011.624t.706 1.103q.26.674.259 1.639v.489h-5.637v-1.034h4.284q0-.545-.221-.965a1.7 1.7 0 0 0-.624-.669 1.74 1.74 0 0 0-.932-.245 1.8 1.8 0 0 0-1.016.286 1.9 1.9 0 0 0-.665.739q-.23.452-.23.983v.808q0 .71.249 1.21.254.498.706.761.453.26 1.057.259.393 0 .716-.111.323-.116.559-.341t.36-.559l1.306.235a2.36 2.36 0 0 1-.563 1.011q-.402.43-1.011.67a3.8 3.8 0 0 1-1.38.235m5.954-4.353v4.21H166.3v-7.091h1.325v1.154h.088q.245-.563.766-.904.527-.342 1.325-.342.725 0 1.27.305.545.3.845.895t.3 1.473v4.51h-1.381v-4.344q0-.771-.401-1.205-.402-.438-1.104-.438-.48 0-.854.207a1.5 1.5 0 0 0-.586.61q-.213.396-.212.96m9.699-2.881v1.108h-3.873v-1.108zm-2.835-1.699h1.381v6.708q0 .401.12.605.12.198.309.272.194.069.42.069.167 0 .291-.023.125-.022.194-.037l.249 1.141q-.12.046-.341.092a2.7 2.7 0 0 1-.554.055 2.4 2.4 0 0 1-1.016-.193 1.75 1.75 0 0 1-.762-.628q-.291-.425-.291-1.067zm9.561 3.43-1.251.222a1.5 1.5 0 0 0-.249-.457 1.24 1.24 0 0 0-.453-.356q-.285-.138-.715-.138-.586 0-.979.263-.392.258-.392.67 0 .355.263.572t.849.355l1.127.259q.978.226 1.458.697.481.471.481 1.223 0 .638-.37 1.136-.365.494-1.02.776-.65.28-1.51.281-1.19 0-1.943-.508-.753-.512-.923-1.454l1.334-.203q.125.522.512.79.388.263 1.011.263.679 0 1.085-.282.406-.286.406-.697a.73.73 0 0 0-.249-.559q-.245-.225-.752-.341l-1.201-.263q-.992-.226-1.468-.721-.471-.494-.471-1.251 0-.627.351-1.098.35-.471.97-.734.618-.268 1.417-.268 1.149 0 1.81.498.66.495.872 1.325"/><mask id="f" fill="#fff"><path d="M329.64 150.64c0-5.523 4.477-10 10-10h20c5.523 0 10 4.477 10 10s-4.477 10-10 10h-20c-5.523 0-10-4.477-10-10"/></mask><path fill="#4f46e5" d="M329.64 150.64c0-5.523 4.477-10 10-10h20c5.523 0 10 4.477 10 10s-4.477 10-10 10h-20c-5.523 0-10-4.477-10-10"/><path fill="#5c64f2" fill-opacity=".4" d="M339.64 140.64v.64h20V140h-20zm20 20V160h-20v1.28h20zm-20 0V160a9.36 9.36 0 0 1-9.36-9.36H329c0 5.876 4.764 10.64 10.64 10.64zm30-10H369a9.36 9.36 0 0 1-9.36 9.36v1.28c5.876 0 10.64-4.764 10.64-10.64zm-10-10v.64a9.36 9.36 0 0 1 9.36 9.36h1.28c0-5.876-4.764-10.64-10.64-10.64zm-20 0V140c-5.876 0-10.64 4.764-10.64 10.64h1.28a9.36 9.36 0 0 1 9.36-9.36z" mask="url(#f)"/><g filter="url(#g)"><path fill="#fff" d="M352.28 151a7 7 0 1 1 14 0 7 7 0 0 1-14 0"/></g><mask id="h" fill="#fff"><path d="M63.64 176.28h327v50.64h-327z"/></mask><path fill="#fff" fill-opacity=".06" d="M390.64 226.92v-.64h-327v1.28h327z" mask="url(#h)"/><path fill="#ececec" d="m86.244 206.28-2.16-7.091h1.144l1.533 5.429h.074l1.514-5.429h1.163l1.496 5.41h.074l1.532-5.41h1.145l-2.16 7.091h-1.071l-1.551-5.448h-.111l-1.551 5.448zm8.956 0v-7.091h1.052v1.071h.074a1.7 1.7 0 0 1 .702-.854q.507-.328 1.145-.328.12 0 .3.005.18.004.272.014v1.108a3 3 0 0 0-.254-.042 2.5 2.5 0 0 0-.41-.032q-.518 0-.924.217-.402.211-.637.591a1.6 1.6 0 0 0-.23.854v4.487zm4.837 0v-7.091h1.089v7.091zm.554-8.273a.77.77 0 0 1-.55-.217.7.7 0 0 1-.226-.522q0-.305.226-.521a.77.77 0 0 1 .55-.217q.319 0 .544.217a.7.7 0 0 1 .231.521.7.7 0 0 1-.231.522.76.76 0 0 1-.544.217m5.614 1.182v.923h-3.674v-.923zm-2.603-1.699h1.089v6.759q0 .46.134.692a.7.7 0 0 0 .351.305q.217.074.457.074.18 0 .295-.019l.185-.037.222.979a2 2 0 0 1-.31.083q-.198.046-.503.046a2.2 2.2 0 0 1-.905-.198 1.8 1.8 0 0 1-.729-.605q-.286-.407-.286-1.025zm7.139 8.938q-1.025 0-1.768-.453a3.03 3.03 0 0 1-1.14-1.274q-.397-.822-.397-1.911 0-1.09.397-1.921.401-.835 1.117-1.302.72-.47 1.68-.47.555 0 1.094.184.54.185.984.6.443.41.706 1.09.263.678.263 1.671v.462h-5.466v-.942h4.358q0-.6-.24-1.071a1.8 1.8 0 0 0-.674-.743 1.9 1.9 0 0 0-1.025-.273q-.65 0-1.126.323-.471.32-.725.831a2.45 2.45 0 0 0-.254 1.099v.628q0 .803.277 1.362.282.554.78.845.5.285 1.159.286.43 0 .776-.12.35-.124.604-.37.254-.249.393-.618l1.052.295q-.166.536-.558.942a2.7 2.7 0 0 1-.97.628 3.6 3.6 0 0 1-1.297.222m5.387-.074a.8.8 0 0 1-.586-.245.8.8 0 0 1-.244-.586q0-.342.244-.587a.8.8 0 0 1 .586-.244.8.8 0 0 1 .587.244.8.8 0 0 1 .244.587q0 .225-.115.415a.9.9 0 0 1-.3.305.8.8 0 0 1-.416.111m0-5.263a.8.8 0 0 1-.586-.245.8.8 0 0 1-.244-.586q0-.342.244-.586a.8.8 0 0 1 .586-.245q.342 0 .587.245a.8.8 0 0 1 .244.586.86.86 0 0 1-.415.72.8.8 0 0 1-.416.111m2.787 5.189v-7.091h1.052v1.071h.074q.194-.527.702-.854a2.06 2.06 0 0 1 1.145-.328q.12 0 .3.005.18.004.272.014v1.108a3 3 0 0 0-.254-.042 2.5 2.5 0 0 0-.411-.032q-.516 0-.923.217-.402.211-.637.591a1.6 1.6 0 0 0-.231.854v4.487zm4.836 0v-7.091h1.09v7.091zm.554-8.273a.77.77 0 0 1-.549-.217.7.7 0 0 1-.226-.522q0-.305.226-.521a.77.77 0 0 1 .549-.217q.319 0 .545.217a.7.7 0 0 1 .231.521.7.7 0 0 1-.231.522.76.76 0 0 1-.545.217m7.554 2.77-.979.277a1.8 1.8 0 0 0-.272-.476 1.3 1.3 0 0 0-.48-.387q-.304-.153-.78-.153-.651 0-1.085.3-.429.296-.429.753 0 .406.295.642.296.235.923.392l1.053.258q.95.231 1.417.707.466.47.466 1.214 0 .609-.35 1.089-.346.48-.97.758-.623.276-1.45.277-1.084 0-1.795-.471t-.901-1.376l1.035-.259q.147.573.558.859.416.286 1.085.286.762 0 1.21-.323.452-.327.452-.785a.82.82 0 0 0-.259-.618q-.258-.255-.794-.379l-1.181-.277q-.975-.23-1.432-.715-.452-.49-.452-1.224 0-.6.337-1.062.342-.461.928-.724.59-.263 1.339-.263 1.052 0 1.652.461.606.462.859 1.219m2.785 2.918-.018-1.348h.221l3.102-3.158h1.348l-3.305 3.342h-.092zm-1.016 2.585v-9.455h1.09v9.455zm4.506 0-2.77-3.509.776-.757 3.379 4.266zm6.031-4.561v1.015h-4.136v-1.015zm6.94-.942-.978.277a1.8 1.8 0 0 0-.273-.476 1.3 1.3 0 0 0-.48-.387q-.304-.153-.78-.153-.651 0-1.085.3-.429.296-.429.753 0 .406.295.642.296.235.923.392l1.053.258q.95.231 1.417.707.466.47.466 1.214 0 .609-.35 1.089-.346.48-.97.758-.623.276-1.449.277-1.085 0-1.796-.471t-.9-1.376l1.034-.259q.147.573.558.859.416.286 1.085.286.762 0 1.21-.323.452-.327.452-.785a.82.82 0 0 0-.258-.618q-.259-.255-.795-.379l-1.181-.277q-.975-.23-1.431-.715-.453-.49-.453-1.224 0-.6.337-1.062.342-.461.928-.724.59-.263 1.339-.263 1.052 0 1.653.461.604.462.858 1.219m4.65 5.651q-.997 0-1.717-.471a3.07 3.07 0 0 1-1.108-1.298q-.388-.826-.388-1.888 0-1.08.397-1.906.402-.831 1.117-1.298.72-.47 1.681-.47.748 0 1.348.277.6.276.983.775.383.498.476 1.163h-1.09a1.7 1.7 0 0 0-.554-.858q-.425-.38-1.145-.379a1.9 1.9 0 0 0-1.117.333 2.15 2.15 0 0 0-.743.928q-.263.595-.263 1.398 0 .822.258 1.431.264.61.739.947.48.337 1.126.337.424 0 .771-.148a1.58 1.58 0 0 0 .928-1.089h1.09a2.53 2.53 0 0 1-1.413 1.925q-.591.291-1.376.291m7.262 0q-.96 0-1.685-.458a3.1 3.1 0 0 1-1.127-1.278q-.4-.822-.401-1.921 0-1.107.401-1.934a3.1 3.1 0 0 1 1.127-1.283q.725-.457 1.685-.457t1.68.457q.725.456 1.127 1.283.406.827.406 1.934 0 1.1-.406 1.921a3.06 3.06 0 0 1-1.127 1.278q-.72.458-1.68.458m0-.979q.729 0 1.2-.374.47-.374.697-.983.226-.61.226-1.321 0-.71-.226-1.325a2.23 2.23 0 0 0-.697-.992q-.471-.38-1.2-.379-.729 0-1.2.379a2.2 2.2 0 0 0-.697.992q-.227.614-.227 1.325 0 .71.227 1.321.226.61.697.983.471.374 1.2.374m4.876.831v-7.091h1.053v1.071h.073q.195-.527.702-.854.508-.328 1.145-.328.12 0 .3.005.18.004.272.014v1.108a3 3 0 0 0-.253-.042 2.5 2.5 0 0 0-.411-.032q-.517 0-.924.217-.401.211-.637.591-.23.373-.23.854v4.487zm7.594.148q-1.024 0-1.768-.453a3.04 3.04 0 0 1-1.14-1.274q-.397-.822-.397-1.911 0-1.09.397-1.921.402-.835 1.117-1.302.72-.47 1.68-.47.555 0 1.094.184.54.185.984.6.443.41.706 1.09.263.678.263 1.671v.462h-5.466v-.942h4.358q0-.6-.24-1.071a1.8 1.8 0 0 0-.674-.743 1.9 1.9 0 0 0-1.025-.273q-.65 0-1.126.323-.471.32-.725.831a2.45 2.45 0 0 0-.254 1.099v.628q0 .803.277 1.362.282.554.78.845.5.285 1.159.286.43 0 .776-.12.35-.124.604-.37.255-.249.393-.618l1.052.295q-.166.536-.558.942a2.7 2.7 0 0 1-.97.628 3.6 3.6 0 0 1-1.297.222m9.616-5.651-.978.277a1.8 1.8 0 0 0-.273-.476 1.3 1.3 0 0 0-.48-.387q-.304-.153-.78-.153-.651 0-1.085.3-.429.296-.429.753 0 .406.295.642.296.235.923.392l1.053.258q.95.231 1.417.707.467.47.467 1.214 0 .609-.351 1.089-.346.48-.97.758-.623.276-1.449.277-1.085 0-1.796-.471t-.9-1.376l1.034-.259q.147.573.558.859.416.286 1.085.286.762 0 1.21-.323.452-.327.452-.785a.82.82 0 0 0-.258-.618q-.259-.255-.794-.379l-1.182-.277q-.975-.23-1.431-.715-.453-.49-.453-1.224 0-.6.337-1.062.342-.461.928-.724.59-.263 1.339-.263 1.053 0 1.653.461.604.462.858 1.219"/><mask id="i" fill="#fff"><path d="M330.64 201.28c0-5.523 4.477-10 10-10h20c5.523 0 10 4.477 10 10s-4.477 10-10 10h-20c-5.523 0-10-4.477-10-10"/></mask><path fill="#4f46e5" d="M330.64 201.28c0-5.523 4.477-10 10-10h20c5.523 0 10 4.477 10 10s-4.477 10-10 10h-20c-5.523 0-10-4.477-10-10"/><path fill="#5c64f2" fill-opacity=".4" d="M340.64 191.28v.64h20v-1.28h-20zm20 20v-.64h-20v1.28h20zm-20 0v-.64a9.36 9.36 0 0 1-9.36-9.36H330c0 5.876 4.764 10.64 10.64 10.64zm30-10H370a9.36 9.36 0 0 1-9.36 9.36v1.28c5.876 0 10.64-4.764 10.64-10.64zm-10-10v.64a9.36 9.36 0 0 1 9.36 9.36h1.28c0-5.877-4.764-10.64-10.64-10.64zm-20 0v-.64c-5.876 0-10.64 4.763-10.64 10.64h1.28a9.36 9.36 0 0 1 9.36-9.36z" mask="url(#i)"/><g filter="url(#j)"><path fill="#fff" d="M353.28 201.64a7 7 0 1 1 14 0 7 7 0 0 1-14 0"/></g><mask id="k" fill="#fff"><path d="M63.64 226.92h327v48.64h-327z"/></mask><path fill="#fff" fill-opacity=".06" d="M390.64 275.56v-.64h-327v1.28h327z" mask="url(#k)"/><path fill="#ececec" d="M84.637 255.92v-7.091h1.053v1.071h.074q.194-.526.701-.854.508-.328 1.145-.328.12 0 .3.005t.273.014v1.108a3 3 0 0 0-.254-.042 2.6 2.6 0 0 0-.411-.032q-.518 0-.923.217-.401.211-.638.591-.23.374-.23.854v4.487zm7.594.148q-1.024 0-1.768-.453a3.03 3.03 0 0 1-1.14-1.274q-.397-.822-.397-1.911 0-1.09.397-1.921.402-.836 1.117-1.301.72-.471 1.68-.471.554 0 1.095.184.54.185.983.6.442.412.706 1.09t.263 1.671v.462h-5.466v-.942h4.358q0-.6-.24-1.071a1.8 1.8 0 0 0-.674-.743 1.9 1.9 0 0 0-1.024-.273q-.651 0-1.127.324a2.1 2.1 0 0 0-.725.83q-.254.513-.254 1.099v.628q0 .804.277 1.362.282.554.78.845.5.286 1.16.286.428 0 .775-.12a1.7 1.7 0 0 0 .605-.369q.254-.25.392-.619l1.053.295q-.166.535-.559.942a2.7 2.7 0 0 1-.97.628 3.6 3.6 0 0 1-1.297.222m6.68.018q-.674 0-1.223-.254a2.1 2.1 0 0 1-.873-.743q-.323-.489-.323-1.182 0-.609.24-.988.24-.382.642-.6t.886-.323q.49-.11.984-.176.646-.082 1.048-.124.405-.047.591-.152.189-.106.189-.37v-.037q0-.683-.374-1.062-.369-.378-1.122-.378-.78 0-1.223.342-.444.34-.623.729l-1.035-.369q.277-.647.739-1.007a2.8 2.8 0 0 1 1.016-.508q.553-.147 1.09-.147.341 0 .784.083.447.078.863.328.42.25.697.752.277.503.277 1.348v4.672h-1.089v-.96h-.056a1.9 1.9 0 0 1-.369.494 2.1 2.1 0 0 1-.688.447q-.429.185-1.048.185m.166-.979q.646 0 1.09-.253a1.73 1.73 0 0 0 .905-1.501v-.997q-.07.083-.305.152a5 5 0 0 1-.535.116 25 25 0 0 1-1.044.138 4 4 0 0 0-.794.18 1.4 1.4 0 0 0-.59.365q-.222.24-.222.656 0 .567.42.858.425.286 1.076.286m7.75.961q-.885 0-1.565-.448-.678-.452-1.061-1.274-.384-.827-.384-1.953 0-1.117.384-1.939.383-.822 1.066-1.27.684-.447 1.579-.447.692 0 1.094.231.406.226.619.517.216.285.337.47h.092v-3.49h1.089v9.455h-1.052v-1.09h-.129q-.12.195-.342.49a2 2 0 0 1-.632.521q-.411.227-1.095.227m.148-.979q.655 0 1.108-.342.453-.346.688-.955.235-.615.235-1.418 0-.794-.23-1.389-.231-.6-.684-.933-.452-.337-1.117-.337-.692 0-1.154.356a2.13 2.13 0 0 0-.688.955 3.8 3.8 0 0 0-.226 1.348q0 .758.231 1.376.236.615.692.979.462.36 1.145.36m6.043.905a.8.8 0 0 1-.586-.245.8.8 0 0 1-.245-.586.8.8 0 0 1 .245-.586.8.8 0 0 1 .586-.245q.342 0 .586.245a.8.8 0 0 1 .245.586.8.8 0 0 1-.115.415.9.9 0 0 1-.3.305.8.8 0 0 1-.416.111m0-5.263a.8.8 0 0 1-.586-.245.8.8 0 0 1-.245-.586.8.8 0 0 1 .245-.586.8.8 0 0 1 .586-.245.8.8 0 0 1 .586.245.8.8 0 0 1 .245.586.8.8 0 0 1-.115.416.9.9 0 0 1-.3.304.8.8 0 0 1-.416.111m2.786 5.189v-7.091h1.053v1.108h.092q.222-.568.716-.882.493-.318 1.186-.318.702 0 1.168.318.471.314.734.882h.074q.272-.549.817-.873.545-.327 1.306-.327.951 0 1.556.595.605.591.605 1.842v4.746h-1.09v-4.746q0-.785-.429-1.122a1.6 1.6 0 0 0-1.011-.337q-.748 0-1.159.453-.41.447-.41 1.135v4.617h-1.108v-4.857q0-.604-.393-.974-.392-.374-1.011-.374-.425 0-.794.227-.365.226-.591.627a1.86 1.86 0 0 0-.221.919v4.432zm14.18.148q-.96 0-1.685-.457a3.1 3.1 0 0 1-1.127-1.279q-.401-.822-.401-1.921 0-1.107.401-1.934a3.1 3.1 0 0 1 1.127-1.283q.725-.457 1.685-.457t1.68.457q.725.456 1.126 1.283.407.827.407 1.934 0 1.1-.407 1.921a3.06 3.06 0 0 1-1.126 1.279q-.72.457-1.68.457m0-.979q.729 0 1.2-.374.47-.374.697-.983.226-.61.226-1.321 0-.71-.226-1.325a2.23 2.23 0 0 0-.697-.992q-.471-.379-1.2-.379-.73 0-1.201.379a2.23 2.23 0 0 0-.697.992q-.226.615-.226 1.325t.226 1.321q.226.61.697.983.47.374 1.201.374m7.553.979q-.886 0-1.565-.448-.678-.452-1.061-1.274-.384-.827-.384-1.953 0-1.117.384-1.939.383-.822 1.066-1.27.684-.447 1.579-.447.692 0 1.094.231.406.226.619.517.216.285.337.47h.092v-3.49h1.089v9.455h-1.052v-1.09h-.129q-.12.195-.342.49a2 2 0 0 1-.633.521q-.41.227-1.094.227m.148-.979q.655 0 1.108-.342.453-.346.688-.955.235-.615.235-1.418 0-.794-.23-1.389-.231-.6-.684-.933-.452-.337-1.117-.337-.692 0-1.154.356a2.13 2.13 0 0 0-.688.955 3.8 3.8 0 0 0-.226 1.348q0 .758.231 1.376.236.615.692.979.462.36 1.145.36m8.222.979q-1.025 0-1.768-.453a3.03 3.03 0 0 1-1.14-1.274q-.397-.822-.397-1.911 0-1.09.397-1.921a3.1 3.1 0 0 1 1.117-1.301q.72-.471 1.68-.471.555 0 1.094.184.54.185.984.6.443.412.706 1.09t.263 1.671v.462h-5.466v-.942h4.358q0-.6-.24-1.071a1.8 1.8 0 0 0-.674-.743 1.9 1.9 0 0 0-1.025-.273q-.65 0-1.126.324a2.1 2.1 0 0 0-.725.83 2.45 2.45 0 0 0-.254 1.099v.628q0 .804.277 1.362.282.554.78.845.5.286 1.159.286.43 0 .776-.12.35-.125.604-.369.254-.25.393-.619l1.052.295q-.166.535-.558.942a2.7 2.7 0 0 1-.97.628 3.6 3.6 0 0 1-1.297.222m5.683-9.603v9.455h-1.09v-9.455zm6.058 4.894v1.015h-4.136v-1.015zm4.004 4.727q-.675 0-1.224-.254a2.1 2.1 0 0 1-.872-.743q-.324-.489-.323-1.182 0-.609.24-.988.24-.382.641-.6t.887-.323q.49-.11.983-.176.646-.082 1.048-.124.406-.047.591-.152.189-.106.189-.37v-.037q0-.683-.374-1.062-.369-.378-1.122-.378-.78 0-1.223.342-.443.34-.623.729l-1.034-.369q.277-.647.738-1.007.467-.364 1.016-.508a4.2 4.2 0 0 1 1.089-.147q.342 0 .785.083.448.078.863.328.421.25.698.752.276.503.277 1.348v4.672h-1.09v-.96h-.055a1.9 1.9 0 0 1-.37.494 2.1 2.1 0 0 1-.688.447q-.429.185-1.047.185m.166-.979q.647 0 1.089-.253a1.73 1.73 0 0 0 .905-1.501v-.997q-.07.083-.305.152a5 5 0 0 1-.535.116 26 26 0 0 1-1.043.138 4 4 0 0 0-.794.18 1.36 1.36 0 0 0-.591.365q-.222.24-.222.656 0 .567.42.858.425.286 1.076.286m5.072.813v-7.091h1.053v1.071h.074q.194-.526.701-.854.508-.328 1.145-.328.12 0 .3.005t.273.014v1.108a3 3 0 0 0-.254-.042 2.6 2.6 0 0 0-.411-.032q-.518 0-.924.217-.401.211-.637.591a1.6 1.6 0 0 0-.23.854v4.487zm8.365-7.091v.923h-3.675v-.923zm-2.604-1.699h1.09v6.759q0 .46.134.692a.7.7 0 0 0 .351.305q.216.074.457.074.18 0 .295-.019l.185-.037.221.979a2 2 0 0 1-.309.083q-.198.046-.503.046a2.2 2.2 0 0 1-.905-.198 1.8 1.8 0 0 1-.729-.605q-.287-.406-.287-1.025zm4.243 8.79v-7.091h1.089v7.091zm.554-8.273a.77.77 0 0 1-.549-.217.7.7 0 0 1-.227-.521q0-.305.227-.522a.77.77 0 0 1 .549-.217q.318 0 .545.217a.7.7 0 0 1 .231.522.7.7 0 0 1-.231.521.76.76 0 0 1-.545.217m5.689 1.182v.923h-3.823v-.923zm-2.678 7.091v-8.07q0-.609.286-1.015a1.8 1.8 0 0 1 .744-.61q.457-.203.964-.203.402 0 .656.065t.378.12l-.313.942a5 5 0 0 0-.231-.07 1.4 1.4 0 0 0-.379-.041q-.54 0-.78.272-.235.273-.235.799v7.811zm6.088.166q-.674 0-1.223-.254a2.1 2.1 0 0 1-.873-.743q-.323-.489-.323-1.182 0-.609.24-.988.24-.382.642-.6a3.4 3.4 0 0 1 .886-.323q.49-.11.983-.176.647-.082 1.048-.124.406-.047.591-.152.19-.106.19-.37v-.037q0-.683-.374-1.062-.37-.378-1.122-.378-.78 0-1.224.342-.443.34-.623.729l-1.034-.369q.277-.647.739-1.007a2.8 2.8 0 0 1 1.015-.508q.555-.147 1.09-.147.341 0 .785.083.447.078.863.328.42.25.697.752.277.503.277 1.348v4.672h-1.089v-.96h-.056a2 2 0 0 1-.369.494 2.1 2.1 0 0 1-.688.447q-.43.185-1.048.185m.166-.979q.646 0 1.09-.253.447-.254.674-.656a1.67 1.67 0 0 0 .231-.845v-.997q-.07.083-.305.152a5 5 0 0 1-.536.116 25 25 0 0 1-1.043.138 4 4 0 0 0-.794.18q-.364.12-.591.365-.221.24-.221.656 0 .567.42.858.424.286 1.075.286m7.953.961q-.996 0-1.717-.471a3.1 3.1 0 0 1-1.108-1.297q-.388-.827-.388-1.889 0-1.08.397-1.906.402-.832 1.117-1.297.721-.471 1.681-.471.748 0 1.348.277t.983.775.476 1.164h-1.09a1.7 1.7 0 0 0-.554-.859q-.425-.379-1.145-.379-.637 0-1.117.333a2.16 2.16 0 0 0-.743.928q-.263.595-.263 1.398 0 .822.258 1.432.264.609.739.946.48.337 1.126.337.424 0 .771-.148a1.6 1.6 0 0 0 .587-.424q.24-.278.341-.665h1.09a2.54 2.54 0 0 1-.457 1.131q-.36.498-.956.794-.591.291-1.376.291m7.465-7.239v.923h-3.675v-.923zm-2.604-1.699h1.09v6.759q0 .46.134.692a.7.7 0 0 0 .351.305q.217.074.457.074.18 0 .295-.019l.185-.037.221.979a2 2 0 0 1-.309.083q-.198.046-.503.046a2.2 2.2 0 0 1-.905-.198 1.8 1.8 0 0 1-.729-.605q-.287-.406-.287-1.025zm9.139 3.287-.979.277a1.8 1.8 0 0 0-.272-.475 1.3 1.3 0 0 0-.48-.388q-.306-.153-.781-.153-.65 0-1.084.301-.43.294-.43.752 0 .406.296.642.295.235.923.392l1.052.259q.951.23 1.418.706.466.471.466 1.214 0 .609-.351 1.09-.346.48-.969.757-.624.276-1.45.277-1.085 0-1.796-.471t-.9-1.376l1.034-.258q.148.571.559.858.415.286 1.085.286.761 0 1.209-.323.453-.327.453-.785a.83.83 0 0 0-.259-.618q-.258-.254-.794-.379l-1.182-.277q-.973-.23-1.431-.715-.452-.489-.452-1.224 0-.6.337-1.061.341-.462.928-.725.591-.263 1.338-.263 1.053 0 1.653.461.604.462.859 1.219"/><mask id="l" fill="#fff"><path d="M330.64 250.92c0-5.523 4.477-10 10-10h20c5.523 0 10 4.477 10 10s-4.477 10-10 10h-20c-5.523 0-10-4.477-10-10"/></mask><path fill="#4f46e5" d="M330.64 250.92c0-5.523 4.477-10 10-10h20c5.523 0 10 4.477 10 10s-4.477 10-10 10h-20c-5.523 0-10-4.477-10-10"/><path fill="#5c64f2" fill-opacity=".4" d="M340.64 240.92v.64h20v-1.28h-20zm20 20v-.64h-20v1.28h20zm-20 0v-.64a9.36 9.36 0 0 1-9.36-9.36H330c0 5.876 4.764 10.64 10.64 10.64zm30-10H370a9.36 9.36 0 0 1-9.36 9.36v1.28c5.876 0 10.64-4.764 10.64-10.64zm-10-10v.64a9.36 9.36 0 0 1 9.36 9.36h1.28c0-5.876-4.764-10.64-10.64-10.64zm-20 0v-.64c-5.876 0-10.64 4.764-10.64 10.64h1.28a9.36 9.36 0 0 1 9.36-9.36z" mask="url(#l)"/><g filter="url(#m)"><path fill="#fff" d="M353.28 251.28a7 7 0 1 1 14 0 7 7 0 0 1-14 0"/></g><mask id="n" fill="#fff"><path d="M63.64 275.56h327v51h-327z"/></mask><path fill="#fff" fill-opacity=".06" d="M390.64 326.56v-1h-327v2h327z" mask="url(#n)"/><path fill="#8e8f96" d="m86.244 305.56-2.16-7.091h1.144l1.533 5.429h.074l1.514-5.429h1.163l1.496 5.411h.074l1.532-5.411h1.145l-2.16 7.091h-1.071l-1.551-5.447h-.111l-1.551 5.447zm8.956 0v-7.091h1.052v1.071h.074q.194-.526.702-.854a2.07 2.07 0 0 1 1.145-.328q.12 0 .3.005t.272.014v1.108a4 4 0 0 0-.254-.042 2.6 2.6 0 0 0-.41-.032q-.518 0-.924.217-.402.212-.637.591-.23.374-.23.854v4.487zm4.837 0v-7.091h1.089v7.091zm.554-8.273a.77.77 0 0 1-.55-.217.7.7 0 0 1-.226-.521.7.7 0 0 1 .226-.522.77.77 0 0 1 .55-.217q.319 0 .544.217a.7.7 0 0 1 .231.522.7.7 0 0 1-.231.521.76.76 0 0 1-.544.217m5.614 1.182v.923h-3.674v-.923zm-2.603-1.699h1.089v6.759q0 .462.134.692a.7.7 0 0 0 .351.305q.217.074.457.074.18 0 .295-.019l.185-.037.222.979a2 2 0 0 1-.31.083q-.198.046-.503.046a2.2 2.2 0 0 1-.905-.198 1.8 1.8 0 0 1-.729-.605q-.286-.406-.286-1.025zm7.139 8.938q-1.025 0-1.768-.453a3.03 3.03 0 0 1-1.14-1.274q-.397-.822-.397-1.911t.397-1.92q.401-.836 1.117-1.302.72-.471 1.68-.471.555 0 1.094.184.54.186.984.601.443.411.706 1.089.263.68.263 1.671v.462h-5.466v-.942h4.358q0-.6-.24-1.071a1.8 1.8 0 0 0-.674-.743q-.434-.272-1.025-.272-.65 0-1.126.323a2.1 2.1 0 0 0-.725.831 2.44 2.44 0 0 0-.254 1.098v.628q0 .804.277 1.362.282.554.78.845.5.286 1.159.286.43 0 .776-.12.35-.125.604-.369.254-.25.393-.619l1.052.296q-.166.536-.558.941a2.7 2.7 0 0 1-.97.628 3.6 3.6 0 0 1-1.297.222m5.387-.074a.8.8 0 0 1-.586-.245.8.8 0 0 1-.244-.586q0-.342.244-.586a.8.8 0 0 1 .586-.245q.342 0 .587.245a.8.8 0 0 1 .244.586.86.86 0 0 1-.415.72.8.8 0 0 1-.416.111m0-5.263a.8.8 0 0 1-.586-.245.8.8 0 0 1-.244-.586q0-.342.244-.586a.8.8 0 0 1 .586-.245q.342 0 .587.245a.8.8 0 0 1 .244.586.8.8 0 0 1-.115.416.9.9 0 0 1-.3.304.8.8 0 0 1-.416.111m7.809-.314-.978.277a1.8 1.8 0 0 0-.273-.475 1.3 1.3 0 0 0-.48-.388q-.304-.152-.78-.152-.651 0-1.085.3-.429.295-.429.752 0 .407.295.642.296.236.923.392l1.053.259q.95.23 1.417.706.467.471.467 1.214 0 .61-.351 1.09-.346.48-.97.757-.623.276-1.449.277-1.085 0-1.796-.471t-.9-1.376l1.034-.258q.147.572.558.858.416.287 1.085.287.762 0 1.21-.324.452-.327.452-.784a.83.83 0 0 0-.258-.619q-.259-.253-.794-.379l-1.182-.277q-.975-.23-1.431-.715-.453-.49-.453-1.223 0-.6.337-1.062a2.3 2.3 0 0 1 .928-.725q.59-.263 1.339-.263 1.052 0 1.653.461.605.462.858 1.219m4.743 5.651q-1.025 0-1.769-.453a3.03 3.03 0 0 1-1.14-1.274q-.397-.822-.397-1.911t.397-1.92a3.13 3.13 0 0 1 1.117-1.302q.72-.471 1.681-.471.554 0 1.094.184.54.186.983.601.444.411.706 1.089.264.68.264 1.671v.462h-5.466v-.942h4.358q0-.6-.24-1.071a1.8 1.8 0 0 0-.674-.743q-.434-.272-1.025-.272-.651 0-1.127.323a2.1 2.1 0 0 0-.724.831q-.255.511-.254 1.098v.628q0 .804.277 1.362.28.554.78.845.498.286 1.159.286.429 0 .775-.12.351-.125.605-.369.254-.25.392-.619l1.053.296a2.3 2.3 0 0 1-.559.941 2.7 2.7 0 0 1-.969.628 3.6 3.6 0 0 1-1.297.222m9.616-5.651-.979.277a1.8 1.8 0 0 0-.272-.475 1.3 1.3 0 0 0-.481-.388q-.304-.152-.78-.152-.65 0-1.085.3-.429.295-.429.752 0 .407.296.642.294.236.923.392l1.052.259q.951.23 1.418.706.466.471.466 1.214 0 .61-.351 1.09-.346.48-.969.757-.624.276-1.45.277-1.085 0-1.796-.471t-.9-1.376l1.034-.258q.148.572.559.858.415.287 1.085.287.761 0 1.209-.324.452-.327.452-.784a.83.83 0 0 0-.258-.619q-.258-.253-.794-.379l-1.182-.277q-.973-.23-1.431-.715-.453-.49-.452-1.223 0-.6.337-1.062.341-.462.928-.725a3.3 3.3 0 0 1 1.338-.263q1.053 0 1.653.461.604.462.859 1.219m6.792 0-.979.277a1.8 1.8 0 0 0-.272-.475 1.3 1.3 0 0 0-.481-.388q-.305-.152-.78-.152-.65 0-1.085.3-.429.295-.429.752 0 .407.296.642.294.236.923.392l1.052.259q.951.23 1.418.706.466.471.466 1.214 0 .61-.351 1.09-.346.48-.969.757-.624.276-1.45.277-1.085 0-1.796-.471t-.9-1.376l1.034-.258q.148.572.559.858.415.287 1.085.287.761 0 1.209-.324.452-.327.452-.784a.83.83 0 0 0-.258-.619q-.258-.253-.794-.379l-1.182-.277q-.974-.23-1.431-.715-.452-.49-.452-1.223 0-.6.337-1.062.341-.462.927-.725a3.3 3.3 0 0 1 1.339-.263q1.053 0 1.653.461.604.462.859 1.219m1.769 5.503v-7.091h1.089v7.091zm.554-8.273a.77.77 0 0 1-.549-.217.7.7 0 0 1-.227-.521q0-.305.227-.522a.77.77 0 0 1 .549-.217q.318 0 .545.217a.7.7 0 0 1 .23.522.7.7 0 0 1-.23.521.76.76 0 0 1-.545.217m5.412 8.421q-.961 0-1.685-.457a3.1 3.1 0 0 1-1.127-1.279q-.402-.822-.402-1.92 0-1.109.402-1.935a3.1 3.1 0 0 1 1.127-1.283q.724-.457 1.685-.457.96 0 1.68.457.725.457 1.126 1.283.407.826.407 1.935 0 1.098-.407 1.92a3.06 3.06 0 0 1-1.126 1.279q-.72.457-1.68.457m0-.979q.729 0 1.2-.374.47-.374.697-.983.226-.61.226-1.32t-.226-1.325a2.23 2.23 0 0 0-.697-.993q-.471-.378-1.2-.378-.73 0-1.201.378a2.23 2.23 0 0 0-.697.993 3.8 3.8 0 0 0-.226 1.325q0 .71.226 1.32t.697.983q.47.374 1.201.374m5.965-3.435v4.266h-1.089v-7.091h1.052v1.108h.093q.249-.54.757-.868.507-.332 1.311-.332.72 0 1.26.295.54.291.84.887.3.59.3 1.495v4.506h-1.089v-4.432q0-.835-.434-1.302-.433-.47-1.191-.47a1.9 1.9 0 0 0-.933.226 1.6 1.6 0 0 0-.641.66q-.236.434-.236 1.052m11.538-1.237-.979.277a1.8 1.8 0 0 0-.272-.475 1.3 1.3 0 0 0-.48-.388q-.304-.152-.78-.152-.651 0-1.085.3-.43.295-.43.752 0 .407.296.642t.923.392l1.053.259q.95.23 1.417.706.466.471.466 1.214 0 .61-.351 1.09-.346.48-.969.757-.624.276-1.45.277-1.085 0-1.796-.471-.71-.471-.9-1.376l1.034-.258q.148.572.559.858.416.287 1.085.287.762 0 1.209-.324.453-.327.453-.784a.82.82 0 0 0-.259-.619q-.258-.253-.794-.379l-1.182-.277q-.974-.23-1.431-.715-.452-.49-.452-1.223 0-.6.337-1.062a2.3 2.3 0 0 1 .928-.725q.59-.263 1.339-.263 1.052 0 1.652.461.605.462.859 1.219"/><mask id="o" fill="#fff"><path d="M330.64 300.56c0-5.523 4.477-10 10-10h20c5.523 0 10 4.477 10 10s-4.477 10-10 10h-20c-5.523 0-10-4.477-10-10"/></mask><path fill="#27272a" d="M330.64 300.56c0-5.523 4.477-10 10-10h20c5.523 0 10 4.477 10 10s-4.477 10-10 10h-20c-5.523 0-10-4.477-10-10"/><path fill="#fff" fill-opacity=".03" d="M340.64 290.56v.64h20v-1.28h-20zm20 20v-.64h-20v1.28h20zm-20 0v-.64a9.36 9.36 0 0 1-9.36-9.36H330c0 5.876 4.764 10.64 10.64 10.64zm30-10H370a9.36 9.36 0 0 1-9.36 9.36v1.28c5.876 0 10.64-4.764 10.64-10.64zm-10-10v.64a9.36 9.36 0 0 1 9.36 9.36h1.28c0-5.876-4.764-10.64-10.64-10.64zm-20 0v-.64c-5.876 0-10.64 4.764-10.64 10.64h1.28a9.36 9.36 0 0 1 9.36-9.36z" mask="url(#o)"/><g filter="url(#p)"><path fill="#71717a" d="M333.28 300.92a7 7 0 1 1 14 0 7 7 0 0 1-14 0"/></g><path fill="#8e8f96" d="M86.724 355.726a2.9 2.9 0 0 1-1.224-.254 2.1 2.1 0 0 1-.872-.743q-.323-.489-.323-1.182 0-.609.24-.988.24-.382.641-.6.402-.216.887-.323.49-.11.983-.175.646-.083 1.048-.125.407-.047.591-.152.19-.106.19-.37v-.037q0-.683-.375-1.061-.37-.38-1.121-.379-.78 0-1.224.342-.443.341-.623.729l-1.034-.369q.276-.647.739-1.007.465-.364 1.015-.507.555-.148 1.09-.148.341 0 .784.083.449.078.864.328.42.25.697.752.276.504.277 1.348v4.672h-1.09v-.96h-.055a2 2 0 0 1-.37.494 2.2 2.2 0 0 1-.687.448q-.43.184-1.048.184m.166-.978q.646 0 1.09-.254a1.73 1.73 0 0 0 .904-1.501v-.997q-.069.084-.304.152a5 5 0 0 1-.536.116 25 25 0 0 1-1.043.138 4 4 0 0 0-.794.18 1.4 1.4 0 0 0-.591.365q-.222.24-.222.656 0 .567.42.858.425.287 1.076.287m7.75.96q-.887 0-1.565-.448-.679-.453-1.062-1.274-.383-.827-.383-1.953 0-1.117.383-1.939.384-.822 1.067-1.269.682-.448 1.578-.448.693 0 1.094.231.407.225.62.517.216.286.336.471h.092v-3.49h1.09v9.454h-1.053v-1.089h-.129q-.12.194-.341.489a2 2 0 0 1-.633.522q-.411.225-1.094.226m.148-.979q.655 0 1.108-.342.451-.345.688-.955.235-.614.235-1.417 0-.795-.23-1.39-.232-.6-.684-.932-.453-.337-1.117-.337-.693 0-1.154.355a2.13 2.13 0 0 0-.688.956q-.227.6-.227 1.348 0 .757.231 1.375.236.615.693.979.462.36 1.145.36m5.249.831v-7.091h1.052v1.108h.092q.222-.567.716-.882.494-.318 1.186-.318.703 0 1.168.318.471.315.734.882h.074q.273-.55.817-.872.546-.328 1.307-.328.95 0 1.556.595.604.591.604 1.842v4.746h-1.089v-4.746q0-.785-.429-1.121a1.6 1.6 0 0 0-1.011-.337q-.748 0-1.159.452-.411.447-.411 1.136v4.616h-1.108v-4.856q0-.605-.392-.975-.393-.373-1.011-.373-.426 0-.794.226-.366.226-.591.628-.222.396-.222.918v4.432zm11.298 0v-7.091h1.09v7.091zm.554-8.273a.77.77 0 0 1-.549-.217.7.7 0 0 1-.226-.521q0-.305.226-.522a.77.77 0 0 1 .549-.217q.319 0 .545.217a.7.7 0 0 1 .231.522.7.7 0 0 1-.231.521.76.76 0 0 1-.545.217m3.621 4.007v4.266h-1.09v-7.091h1.053v1.108h.092a2.03 2.03 0 0 1 .757-.868q.508-.332 1.311-.332.721 0 1.261.295.54.291.84.887.3.59.3 1.495v4.506h-1.089v-4.432q0-.835-.434-1.302-.435-.47-1.191-.47a1.9 1.9 0 0 0-.933.226 1.6 1.6 0 0 0-.642.66q-.235.434-.235 1.052m7.309 4.34a.8.8 0 0 1-.586-.245.8.8 0 0 1-.245-.586q0-.342.245-.586a.8.8 0 0 1 .586-.245.8.8 0 0 1 .586.245.8.8 0 0 1 .245.586.8.8 0 0 1-.116.415.84.84 0 0 1-.3.305.8.8 0 0 1-.415.111m0-5.263a.8.8 0 0 1-.586-.245.8.8 0 0 1-.245-.586q0-.342.245-.586a.8.8 0 0 1 .586-.245.8.8 0 0 1 .586.245.8.8 0 0 1 .245.586.8.8 0 0 1-.116.416.85.85 0 0 1-.3.304.8.8 0 0 1-.415.111m7.255 2.29v-4.192h1.089v7.091h-1.089v-1.2H130a2.3 2.3 0 0 1-.776.918q-.526.375-1.329.374a2.4 2.4 0 0 1-1.182-.29 2.04 2.04 0 0 1-.813-.887q-.295-.595-.295-1.5v-4.506h1.089v4.432q0 .775.434 1.237.439.462 1.118.462.405 0 .826-.208.424-.207.711-.637.291-.43.291-1.094m8.107-2.604-.978.277a1.8 1.8 0 0 0-.273-.475 1.3 1.3 0 0 0-.48-.388q-.304-.152-.78-.152-.651 0-1.085.3-.429.295-.429.752 0 .407.295.642t.924.392l1.052.259q.951.23 1.417.706.467.471.467 1.214 0 .61-.351 1.09-.346.48-.97.757-.623.276-1.449.277-1.085 0-1.796-.471t-.9-1.376l1.034-.258q.148.572.558.858.416.287 1.085.287.762 0 1.21-.324.452-.327.452-.784a.83.83 0 0 0-.258-.619q-.259-.253-.794-.379l-1.182-.277q-.975-.23-1.431-.715-.453-.49-.453-1.223 0-.6.337-1.062a2.3 2.3 0 0 1 .928-.725q.59-.263 1.339-.263 1.053 0 1.653.461.605.462.858 1.219m4.743 5.651q-1.026 0-1.768-.453a3.03 3.03 0 0 1-1.141-1.274q-.397-.822-.397-1.911t.397-1.92a3.13 3.13 0 0 1 1.117-1.302q.721-.471 1.681-.471.554 0 1.094.184.54.186.983.601.444.411.707 1.089.263.68.263 1.671v.462h-5.466v-.942h4.358q0-.6-.24-1.071a1.8 1.8 0 0 0-.674-.743q-.434-.272-1.025-.272-.651 0-1.127.323a2.1 2.1 0 0 0-.724.831q-.254.511-.254 1.098v.628q0 .804.277 1.362.281.554.78.845.498.286 1.159.286.429 0 .775-.12.351-.125.605-.369.254-.25.392-.619l1.053.296a2.3 2.3 0 0 1-.559.941 2.7 2.7 0 0 1-.969.628 3.6 3.6 0 0 1-1.297.222m4.593-.148v-7.091h1.053v1.071h.073q.195-.526.702-.854a2.07 2.07 0 0 1 1.145-.328q.12 0 .3.005t.273.014v1.108a4 4 0 0 0-.254-.042 2.6 2.6 0 0 0-.411-.032q-.518 0-.924.217-.401.212-.637.591a1.6 1.6 0 0 0-.23.854v4.487zm9.86-5.503-.979.277a1.8 1.8 0 0 0-.272-.475 1.3 1.3 0 0 0-.48-.388q-.306-.152-.781-.152-.65 0-1.085.3-.429.295-.429.752 0 .407.296.642.295.236.923.392l1.052.259q.951.23 1.418.706.466.471.466 1.214 0 .61-.351 1.09-.346.48-.969.757-.624.276-1.45.277-1.085 0-1.796-.471t-.9-1.376l1.034-.258q.148.572.559.858.415.287 1.085.287.761 0 1.209-.324.453-.327.453-.784a.83.83 0 0 0-.259-.619q-.258-.253-.794-.379l-1.182-.277q-.973-.23-1.431-.715-.452-.49-.452-1.223 0-.6.337-1.062.341-.462.928-.725a3.3 3.3 0 0 1 1.338-.263q1.053 0 1.653.461.604.462.859 1.219"/><mask id="q" fill="#fff"><path d="M328.64 350.56c0-5.523 4.477-10 10-10h20c5.523 0 10 4.477 10 10s-4.477 10-10 10h-20c-5.523 0-10-4.477-10-10"/></mask><path fill="#27272a" d="M328.64 350.56c0-5.523 4.477-10 10-10h20c5.523 0 10 4.477 10 10s-4.477 10-10 10h-20c-5.523 0-10-4.477-10-10"/><path fill="#fff" fill-opacity=".03" d="M338.64 340.56v.64h20v-1.28h-20zm20 20v-.64h-20v1.28h20zm-20 0v-.64a9.36 9.36 0 0 1-9.36-9.36H328c0 5.876 4.764 10.64 10.64 10.64zm30-10H368a9.36 9.36 0 0 1-9.36 9.36v1.28c5.876 0 10.64-4.764 10.64-10.64zm-10-10v.64a9.36 9.36 0 0 1 9.36 9.36h1.28c0-5.876-4.764-10.64-10.64-10.64zm-20 0v-.64c-5.876 0-10.64 4.764-10.64 10.64h1.28a9.36 9.36 0 0 1 9.36-9.36z" mask="url(#q)"/><g filter="url(#r)"><path fill="#71717a" d="M331.28 350.92a7 7 0 1 1 14 0 7 7 0 0 1-14 0"/></g></g><defs><filter id="g" width="20" height="20" x="349.28" y="142" color-interpolation-filters="sRGB" filterUnits="userSpaceOnUse"><feFlood flood-opacity="0" result="BackgroundImageFix"/><feColorMatrix in="SourceAlpha" result="hardAlpha" values="0 0 0 0 0 0 0 0 0 0 0 0 0 0 0 0 0 0 127 0"/><feOffset dy="1"/><feGaussianBlur stdDeviation="1.5"/><feComposite in2="hardAlpha" operator="out"/><feColorMatrix values="0 0 0 0 0 0 0 0 0 0 0 0 0 0 0 0 0 0 0.4 0"/><feBlend in2="BackgroundImageFix" result="effect1_dropShadow_2131_959"/><feBlend in="SourceGraphic" in2="effect1_dropShadow_2131_959" result="shape"/></filter><filter id="j" width="20" height="20" x="350.28" y="192.64" color-interpolation-filters="sRGB" filterUnits="userSpaceOnUse"><feFlood flood-opacity="0" result="BackgroundImageFix"/><feColorMatrix in="SourceAlpha" result="hardAlpha" values="0 0 0 0 0 0 0 0 0 0 0 0 0 0 0 0 0 0 127 0"/><feOffset dy="1"/><feGaussianBlur stdDeviation="1.5"/><feComposite in2="hardAlpha" operator="out"/><feColorMatrix values="0 0 0 0 0 0 0 0 0 0 0 0 0 0 0 0 0 0 0.4 0"/><feBlend in2="BackgroundImageFix" result="effect1_dropShadow_2131_959"/><feBlend in="SourceGraphic" in2="effect1_dropShadow_2131_959" result="shape"/></filter><filter id="m" width="20" height="20" x="350.28" y="242.28" color-interpolation-filters="sRGB" filterUnits="userSpaceOnUse"><feFlood flood-opacity="0" result="BackgroundImageFix"/><feColorMatrix in="SourceAlpha" result="hardAlpha" values="0 0 0 0 0 0 0 0 0 0 0 0 0 0 0 0 0 0 127 0"/><feOffset dy="1"/><feGaussianBlur stdDeviation="1.5"/><feComposite in2="hardAlpha" operator="out"/><feColorMatrix values="0 0 0 0 0 0 0 0 0 0 0 0 0 0 0 0 0 0 0.4 0"/><feBlend in2="BackgroundImageFix" result="effect1_dropShadow_2131_959"/><feBlend in="SourceGraphic" in2="effect1_dropShadow_2131_959" result="shape"/></filter><filter id="p" width="20" height="20" x="330.28" y="291.92" color-interpolation-filters="sRGB" filterUnits="userSpaceOnUse"><feFlood flood-opacity="0" result="BackgroundImageFix"/><feColorMatrix in="SourceAlpha" result="hardAlpha" values="0 0 0 0 0 0 0 0 0 0 0 0 0 0 0 0 0 0 127 0"/><feOffset dy="1"/><feGaussianBlur stdDeviation="1.5"/><feComposite in2="hardAlpha" operator="out"/><feColorMatrix values="0 0 0 0 0 0 0 0 0 0 0 0 0 0 0 0 0 0 0.4 0"/><feBlend in2="BackgroundImageFix" result="effect1_dropShadow_2131_959"/><feBlend in="SourceGraphic" in2="effect1_dropShadow_2131_959" result="shape"/></filter><filter id="r" width="20" height="20" x="328.28" y="341.92" color-interpolation-filters="sRGB" filterUnits="userSpaceOnUse"><feFlood flood-opacity="0" result="BackgroundImageFix"/><feColorMatrix in="SourceAlpha" result="hardAlpha" values="0 0 0 0 0 0 0 0 0 0 0 0 0 0 0 0 0 0 127 0"/><feOffset dy="1"/><feGaussianBlur stdDeviation="1.5"/><feComposite in2="hardAlpha" operator="out"/><feColorMatrix values="0 0 0 0 0 0 0 0 0 0 0 0 0 0 0 0 0 0 0.4 0"/><feBlend in2="BackgroundImageFix" result="effect1_dropShadow_2131_959"/><feBlend in="SourceGraphic" in2="effect1_dropShadow_2131_959" result="shape"/></filter><clipPath id="a"><rect width="391" height="378" fill="#fff" rx="6"/></clipPath><clipPath id="b"><path fill="#fff" d="M39 57c0-11.046 8.954-20 20-20h332v341H39z"/></clipPath></defs></svg>