<svg xmlns="http://www.w3.org/2000/svg" width="518" height="307" fill="none" viewBox="0 0 518 307"><path fill="#17150e" d="M0 24h518v277a6 6 0 0 1-6 6H6a6 6 0 0 1-6-6z"/><mask id="a" fill="#fff"><path d="M181 59h337v248H181z"/></mask><path fill="#13110b" d="M181 59h337v248H181z"/><path fill="#fff" fill-opacity=".03" d="M181 59v-1h-1v1zm0 0v1h337v-2H181zm0 248h1V59h-2v248z" mask="url(#a)"/><mask id="b" fill="#fff"><path d="M0 183.319h373V307H0z"/></mask><path fill="#1f1d17" d="M0 183.319h373V307H0z"/><path fill="#fff" fill-opacity=".03" d="M373 183.319h1v-1h-1zm-373 0v1h373v-2H0zm373 0h-1V307h2V183.319z" mask="url(#b)"/><path fill="#ececec" fill-opacity=".9" d="m208.504 104-4.971-18.182h2.237l3.8 14.808h.177l3.871-14.808h2.486l3.87 14.808h.178l3.8-14.808h2.237L221.217 104h-2.272l-4.013-14.489h-.142L210.777 104zm21.489-8.203V104h-2.095V85.818h2.095v6.676h.178a3.85 3.85 0 0 1 1.438-1.678q.967-.63 2.575-.63 1.394 0 2.441.56 1.047.55 1.625 1.695.585 1.136.586 2.894V104h-2.096v-8.523q0-1.624-.843-2.512-.835-.897-2.317-.897-1.03 0-1.847.435-.807.435-1.278 1.27-.462.834-.462 2.024m12.787 13.317q-.533 0-.95-.089-.418-.08-.577-.16l.532-1.847q.763.196 1.35.143.585-.054 1.039-.524.46-.462.843-1.501l.391-1.065-5.043-13.707h2.273l3.764 10.866h.142l3.764-10.866h2.273l-5.788 15.625q-.391 1.056-.968 1.749a3.64 3.64 0 0 1-1.341 1.038q-.754.338-1.704.338M261.907 104h-2.308l6.676-18.182h2.273L275.224 104h-2.308l-5.433-15.305h-.142zm.853-7.102h9.304v1.953h-9.304zm16.748-11.08V104h-2.202V85.818zm15.201 18.466q-1.917 0-3.302-.905-1.386-.906-2.131-2.495-.746-1.59-.746-3.631 0-2.077.764-3.667.772-1.598 2.148-2.494 1.386-.906 3.232-.906 1.438 0 2.592.533t1.891 1.491q.737.96.915 2.237h-2.096q-.24-.931-1.065-1.65-.816-.729-2.202-.729-1.225 0-2.148.64-.915.63-1.429 1.784-.506 1.145-.506 2.69 0 1.58.497 2.752.506 1.172 1.42 1.82.924.648 2.166.648.817 0 1.483-.284t1.127-.817.657-1.278h2.096a4.9 4.9 0 0 1-.879 2.175q-.693.959-1.838 1.527-1.137.56-2.646.559m11.688.036q-1.296 0-2.352-.489a4.03 4.03 0 0 1-1.678-1.429q-.622-.94-.622-2.273 0-1.171.462-1.9a3.26 3.26 0 0 1 1.234-1.154 6.5 6.5 0 0 1 1.704-.621 21 21 0 0 1 1.891-.337 85 85 0 0 1 2.016-.24q.781-.09 1.136-.293.364-.204.364-.71v-.071q0-1.314-.719-2.042-.711-.728-2.157-.728-1.501 0-2.353.657t-1.199 1.402l-1.988-.71q.532-1.243 1.42-1.935a5.3 5.3 0 0 1 1.953-.977 8 8 0 0 1 2.096-.284q.657 0 1.509.16.86.15 1.66.63.808.48 1.341 1.447t.532 2.593V104h-2.095v-1.847h-.107q-.213.444-.71.95-.496.507-1.323.861-.825.356-2.015.356m.32-1.882q1.242 0 2.095-.489.861-.488 1.296-1.26a3.2 3.2 0 0 0 .444-1.625v-1.918q-.133.16-.586.293a10 10 0 0 1-1.03.222q-.576.09-1.127.16-.541.062-.879.107a8 8 0 0 0-1.527.346q-.702.231-1.136.701-.427.462-.427 1.261 0 1.092.808 1.651.817.55 2.069.551m11.099-6.641V104h-2.095V90.364h2.024v2.13h.178a3.9 3.9 0 0 1 1.456-1.669q.976-.639 2.521-.639 1.385 0 2.424.568 1.038.56 1.616 1.705.576 1.136.577 2.876V104h-2.095v-8.523q0-1.607-.835-2.503-.834-.906-2.29-.906-1.003 0-1.794.435-.781.435-1.234 1.27-.453.834-.453 2.024m13.59-9.979v6.25h-1.953v-6.25zm8.912 4.546v1.775h-7.067v-1.775zm-5.007-3.267h2.095v12.997q0 .887.257 1.331.267.436.675.586a2.7 2.7 0 0 0 .879.142q.346 0 .568-.035l.355-.071.426 1.882a4 4 0 0 1-.594.16 4.4 4.4 0 0 1-.968.089 4.2 4.2 0 0 1-1.74-.382 3.46 3.46 0 0 1-1.403-1.163q-.55-.781-.55-1.971zM204.918 134v-13.636h2.024v2.059h.142q.372-1.012 1.349-1.642a3.97 3.97 0 0 1 2.202-.63q.23 0 .577.008.346.009.524.027v2.131a6 6 0 0 0-.488-.08 5 5 0 0 0-.791-.062q-.993 0-1.775.417a3.15 3.15 0 0 0-1.225 1.136q-.444.72-.444 1.643V134zm13.854.284q-1.971 0-3.401-.87-1.42-.88-2.192-2.45-.764-1.58-.764-3.676 0-2.094.764-3.693.773-1.607 2.148-2.503 1.385-.906 3.232-.906 1.065 0 2.104.355a5.2 5.2 0 0 1 1.891 1.154q.852.79 1.358 2.095t.506 3.214v.888h-10.511v-1.811h8.38q0-1.154-.461-2.06a3.5 3.5 0 0 0-1.297-1.429q-.834-.524-1.97-.524-1.252 0-2.167.622a4.1 4.1 0 0 0-1.393 1.598 4.7 4.7 0 0 0-.489 2.113v1.207q0 1.545.533 2.619.541 1.065 1.5 1.625.96.55 2.229.55a4.5 4.5 0 0 0 1.491-.231q.675-.24 1.163-.71.489-.48.755-1.19l2.024.568a4.5 4.5 0 0 1-1.074 1.812q-.755.772-1.865 1.207-1.109.426-2.494.426m11.173-.284-4.155-13.636h2.201l2.948 10.44h.142l2.912-10.44h2.237l2.877 10.404h.142l2.947-10.404h2.202L240.243 134h-2.06l-2.983-10.476h-.213L232.004 134zm16.473 0v-13.636h2.024v2.059h.142q.372-1.012 1.349-1.642a3.97 3.97 0 0 1 2.202-.63q.23 0 .577.008.346.009.524.027v2.131a6 6 0 0 0-.488-.08 5 5 0 0 0-.791-.062q-.993 0-1.775.417a3.15 3.15 0 0 0-1.225 1.136q-.444.72-.444 1.643V134zm8.551 0v-13.636h2.096V134zm1.066-15.909a1.5 1.5 0 0 1-1.057-.417 1.34 1.34 0 0 1-.435-1.004q0-.585.435-1.003a1.5 1.5 0 0 1 1.057-.417q.612 0 1.047.417.444.418.444 1.003 0 .586-.444 1.004-.435.417-1.047.417m10.047 2.273v1.775h-7.066v-1.775zm-5.007-3.267h2.095v12.997q0 .887.258 1.331.265.435.675.586a2.7 2.7 0 0 0 .879.142q.346 0 .568-.035l.355-.071.426 1.882q-.213.08-.595.16a4.4 4.4 0 0 1-.968.089 4.2 4.2 0 0 1-1.74-.382 3.46 3.46 0 0 1-1.402-1.163q-.55-.781-.551-1.971zm12.98 17.187q-1.97 0-3.4-.87-1.42-.88-2.193-2.45-.764-1.58-.764-3.676 0-2.094.764-3.693.772-1.607 2.148-2.503 1.386-.906 3.232-.906 1.065 0 2.104.355a5.2 5.2 0 0 1 1.891 1.154q.852.79 1.358 2.095t.506 3.214v.888H269.19v-1.811h8.38q0-1.154-.461-2.06a3.5 3.5 0 0 0-1.296-1.429q-.836-.524-1.971-.524-1.253 0-2.166.622a4.1 4.1 0 0 0-1.394 1.598 4.7 4.7 0 0 0-.488 2.113v1.207q0 1.545.532 2.619.541 1.065 1.501 1.625.959.55 2.228.55a4.5 4.5 0 0 0 1.491-.231q.675-.24 1.163-.71.488-.48.755-1.19l2.024.568a4.5 4.5 0 0 1-1.074 1.812 5.25 5.25 0 0 1-1.864 1.207q-1.11.426-2.495.426m17.951-.284-4.971-18.182h2.237l3.8 14.808h.177l3.871-14.808h2.486l3.87 14.808h.178l3.8-14.808h2.237L304.719 134h-2.272l-4.013-14.489h-.142L294.279 134zm19.394 0v-13.636h2.095V134zm1.065-15.909a1.5 1.5 0 0 1-1.056-.417 1.34 1.34 0 0 1-.435-1.004q0-.585.435-1.003a1.5 1.5 0 0 1 1.056-.417q.613 0 1.048.417.444.418.444 1.003 0 .586-.444 1.004a1.46 1.46 0 0 1-1.048.417m6.213 7.706V134h-2.095v-13.636h2.024v2.13h.177a3.9 3.9 0 0 1 1.456-1.669q.977-.639 2.522-.639 1.385 0 2.423.568 1.039.56 1.616 1.705.577 1.136.577 2.876V134h-2.095v-8.523q0-1.607-.835-2.503-.834-.906-2.29-.906-1.004 0-1.793.435-.782.435-1.234 1.27-.453.834-.453 2.024m16.928 8.487q-1.705 0-3.01-.861-1.305-.87-2.042-2.45-.737-1.59-.737-3.756 0-2.148.737-3.728t2.051-2.442 3.036-.861q1.332 0 2.104.444.782.435 1.19.994.417.55.648.906h.178v-6.712h2.095V134h-2.024v-2.095h-.249q-.231.372-.657.941-.426.56-1.216 1.003-.79.435-2.104.435m.284-1.882q1.26 0 2.131-.657.87-.666 1.322-1.838.453-1.18.453-2.725 0-1.527-.444-2.672-.444-1.155-1.314-1.794-.87-.648-2.148-.648-1.332 0-2.22.684-.878.675-1.322 1.837-.435 1.155-.435 2.593 0 1.455.444 2.645.452 1.181 1.331 1.883.888.692 2.202.692m14.884 1.882q-1.846 0-3.241-.879-1.385-.879-2.166-2.459-.772-1.58-.772-3.693 0-2.132.772-3.72.781-1.589 2.166-2.468 1.395-.879 3.241-.879t3.231.879q1.395.88 2.167 2.468.78 1.589.781 3.72 0 2.113-.781 3.693-.772 1.58-2.167 2.459-1.385.879-3.231.879m0-1.882q1.402 0 2.308-.719.906-.72 1.341-1.891a7.2 7.2 0 0 0 .435-2.539q0-1.368-.435-2.548-.435-1.181-1.341-1.909t-2.308-.728q-1.403 0-2.308.728-.906.728-1.341 1.909a7.3 7.3 0 0 0-.435 2.548q0 1.367.435 2.539.435 1.171 1.341 1.891.905.719 2.308.719M362.027 134l-4.155-13.636h2.202l2.947 10.44h.142l2.912-10.44h2.237l2.877 10.404h.142l2.947-10.404h2.202L372.325 134h-2.06l-2.983-10.476h-.213L364.086 134zm26.132-10.582-1.882.532a3.5 3.5 0 0 0-.524-.914 2.54 2.54 0 0 0-.923-.746q-.586-.293-1.501-.293-1.251 0-2.086.577-.826.568-.826 1.447 0 .781.568 1.234t1.776.755l2.024.497q1.829.444 2.726 1.358.896.906.896 2.335 0 1.173-.674 2.095-.666.924-1.865 1.456-1.198.534-2.787.533-2.086 0-3.454-.905-1.366-.906-1.731-2.646l1.989-.497q.284 1.1 1.074 1.651.798.55 2.086.551 1.465 0 2.326-.622.87-.63.87-1.509 0-.71-.497-1.19-.496-.488-1.527-.728l-2.273-.532q-1.873-.444-2.752-1.377-.87-.94-.87-2.352 0-1.154.648-2.042.657-.888 1.785-1.394 1.136-.506 2.574-.506 2.025 0 3.178.888 1.164.888 1.652 2.344m11.668 5.468v-.106q.018-1.696.355-2.699t.959-1.625a7.7 7.7 0 0 1 1.491-1.145q.524-.32.941-.755.417-.443.657-1.02.249-.577.249-1.279 0-.87-.409-1.509a2.74 2.74 0 0 0-1.092-.986 3.3 3.3 0 0 0-1.518-.346q-.728 0-1.402.302-.675.302-1.128.95t-.524 1.696h-2.237q.071-1.51.781-2.584a4.7 4.7 0 0 1 1.891-1.642q1.182-.568 2.619-.568 1.563 0 2.717.621a4.45 4.45 0 0 1 1.793 1.705q.639 1.082.639 2.468 0 .977-.301 1.766a4.4 4.4 0 0 1-.853 1.412q-.55.621-1.331 1.101-.781.488-1.252 1.03a3.25 3.25 0 0 0-.684 1.269q-.213.737-.231 1.838v.106zm1.136 5.256q-.657 0-1.127-.47a1.54 1.54 0 0 1-.471-1.128q0-.657.471-1.127a1.54 1.54 0 0 1 1.127-.471q.657 0 1.128.471.47.47.47 1.127 0 .435-.222.799a1.65 1.65 0 0 1-.577.586 1.5 1.5 0 0 1-.799.213"/><path stroke="#fff" stroke-opacity=".15" d="M123.5 191.18v109.531"/><path fill="#ececec" d="m18 206.319-1.815-6.546h1.04l1.274 5.069h.061l1.326-5.069h1.03l1.326 5.072h.06l1.273-5.072h1.041l-1.818 6.546h-.994l-1.377-4.903h-.052l-1.377 4.903zm7.44 0v-4.909h.956v4.909zm.483-5.667a.6.6 0 0 1-.428-.166.54.54 0 0 1-.176-.403q0-.237.176-.403a.6.6 0 0 1 .428-.169q.25 0 .425.169a.53.53 0 0 1 .179.403q0 .234-.18.403a.6.6 0 0 1-.424.166m2.714 2.752v2.915h-.956v-4.909h.918v.799h.06q.17-.39.531-.627.365-.236.917-.236.502 0 .88.211.376.207.584.62.208.411.208 1.019v3.123h-.956v-3.008q0-.534-.278-.834-.278-.303-.764-.304-.331 0-.591.144-.256.144-.406.422a1.4 1.4 0 0 0-.147.665m6.261 3.01q-.594 0-1.061-.303a2.1 2.1 0 0 1-.729-.873q-.261-.569-.262-1.364 0-.797.266-1.362.267-.566.735-.866.465-.3 1.057-.3.457 0 .736.153.28.15.434.352.157.201.243.354h.058v-2.432h.955v6.546h-.933v-.764h-.08q-.085.156-.25.358a1.4 1.4 0 0 1-.44.351q-.281.15-.729.15m.211-.815q.412 0 .697-.217.288-.22.434-.61.15-.39.15-.908 0-.511-.146-.895a1.3 1.3 0 0 0-.432-.597 1.13 1.13 0 0 0-.703-.215q-.431 0-.72.224a1.37 1.37 0 0 0-.434.611 2.5 2.5 0 0 0-.144.872q0 .492.148.885.146.393.434.624.291.226.716.226m5.653.819q-.69 0-1.205-.317a2.13 2.13 0 0 1-.799-.885q-.284-.568-.284-1.33t.284-1.336a2.13 2.13 0 0 1 .8-.888q.514-.316 1.204-.316t1.205.316.799.888q.284.573.284 1.336 0 .762-.284 1.33-.285.569-.8.885-.514.317-1.204.317m.003-.803q.448 0 .742-.236.294-.237.434-.63a2.5 2.5 0 0 0 .144-.866q0-.47-.144-.863a1.4 1.4 0 0 0-.434-.636q-.294-.24-.742-.239-.45 0-.748.239a1.43 1.43 0 0 0-.437.636q-.141.393-.141.863 0 .473.14.866.144.393.438.63.298.236.748.236m4.267.704-1.445-4.909h.988l.962 3.605h.048l.965-3.605h.988l.958 3.589h.048l.956-3.589h.987l-1.44 4.909h-.976l-.997-3.545h-.073l-.997 3.545zm10.041-3.711-.866.153a1 1 0 0 0-.173-.316.86.86 0 0 0-.313-.246 1.1 1.1 0 0 0-.495-.096q-.406 0-.678.182-.272.18-.272.464 0 .246.183.396.182.15.588.246l.78.179q.677.156 1.01.483.332.325.332.847 0 .441-.256.786a1.7 1.7 0 0 1-.706.537q-.45.195-1.045.195-.825 0-1.346-.352a1.5 1.5 0 0 1-.639-1.007l.924-.14a.88.88 0 0 0 .354.546q.27.183.7.182.47 0 .751-.195.282-.197.282-.482a.5.5 0 0 0-.173-.387q-.17-.156-.52-.236l-.832-.183q-.687-.156-1.016-.498-.326-.342-.326-.866 0-.435.243-.761a1.6 1.6 0 0 1 .67-.508q.429-.185.982-.185.795 0 1.253.345.457.342.604.917m5.596 3.81q-.712 0-1.227-.323a2.14 2.14 0 0 1-.786-.898 3 3 0 0 1-.275-1.311q0-.747.281-1.32t.793-.898q.51-.322 1.205-.322.56 0 .997.207.438.205.706.576.272.37.323.866h-.93a1.1 1.1 0 0 0-.352-.595q-.271-.249-.728-.249-.4 0-.7.211a1.36 1.36 0 0 0-.464.594q-.166.384-.166.908 0 .537.163.927t.46.604q.3.214.707.214.27 0 .492-.099a1 1 0 0 0 .374-.291q.153-.189.214-.454h.93a1.8 1.8 0 0 1-.31.85q-.26.375-.694.589a2.3 2.3 0 0 1-1.013.214m5.107 0q-.69 0-1.205-.317a2.13 2.13 0 0 1-.8-.885q-.284-.568-.284-1.33t.285-1.336a2.13 2.13 0 0 1 .799-.888q.514-.316 1.205-.316.69 0 1.205.316.514.316.799.888.284.573.284 1.336 0 .762-.284 1.33-.285.569-.8.885-.514.317-1.204.317m.003-.803q.447 0 .741-.236.294-.237.435-.63a2.5 2.5 0 0 0 .144-.866q0-.47-.144-.863a1.4 1.4 0 0 0-.435-.636q-.294-.24-.741-.239-.45 0-.748.239a1.43 1.43 0 0 0-.438.636q-.14.393-.14.863 0 .473.14.866.144.393.438.63.297.236.748.236m5.19.799q-.595 0-1.062-.303a2.1 2.1 0 0 1-.728-.873q-.263-.569-.263-1.364 0-.797.266-1.362.269-.566.735-.866.467-.3 1.058-.3.457 0 .735.153.28.15.434.352.157.201.243.354h.058v-2.432h.956v6.546h-.934v-.764h-.08q-.086.156-.249.358a1.4 1.4 0 0 1-.44.351q-.282.15-.73.15m.21-.815q.412 0 .697-.217.288-.22.435-.61.15-.39.15-.908 0-.511-.147-.895a1.3 1.3 0 0 0-.431-.597 1.14 1.14 0 0 0-.704-.215q-.43 0-.719.224a1.37 1.37 0 0 0-.434.611 2.5 2.5 0 0 0-.144.872q0 .492.147.885t.434.624q.291.226.716.226m5.701.819q-.725 0-1.25-.31a2.1 2.1 0 0 1-.805-.879q-.28-.57-.281-1.333 0-.754.281-1.33.285-.574.793-.898.511-.322 1.195-.322.416 0 .805.137t.7.431.49.764q.178.467.178 1.135v.339h-3.902v-.716h2.966a1.4 1.4 0 0 0-.153-.668 1.16 1.16 0 0 0-1.078-.633q-.402 0-.703.198a1.33 1.33 0 0 0-.46.512 1.5 1.5 0 0 0-.16.68v.56q0 .492.173.837.176.345.489.527.314.18.732.179.27 0 .495-.076.224-.081.387-.237a1 1 0 0 0 .25-.387l.904.163q-.11.4-.39.7a1.9 1.9 0 0 1-.7.464q-.42.162-.956.163m3.243-.099v-6.546h.956v2.432h.058q.082-.153.24-.354.156-.202.434-.352.278-.153.735-.153.594 0 1.061.3t.732.866q.268.565.268 1.362 0 .795-.265 1.364-.266.566-.728.873a1.9 1.9 0 0 1-1.058.303q-.449 0-.732-.15a1.4 1.4 0 0 1-.441-.351 3 3 0 0 1-.246-.358h-.08v.764zm.937-2.455q0 .518.15.908t.435.61q.285.217.696.217.43 0 .716-.226.288-.231.435-.624.15-.393.15-.885 0-.486-.147-.872a1.34 1.34 0 0 0-.434-.611q-.288-.224-.72-.224-.414 0-.703.215-.284.213-.431.597a2.5 2.5 0 0 0-.147.895m6.05 2.563q-.468 0-.845-.172a1.43 1.43 0 0 1-.597-.508q-.218-.333-.218-.815 0-.415.16-.684t.432-.425q.27-.157.607-.237t.684-.121l.716-.084q.274-.034.4-.111.123-.078.124-.25v-.022q0-.418-.237-.649-.232-.23-.696-.23-.483 0-.761.214-.275.211-.38.47l-.898-.205q.16-.447.466-.722.31-.277.713-.403a2.8 2.8 0 0 1 .847-.127q.294 0 .623.07.332.067.62.249.291.182.476.521.186.336.186.873v3.26h-.933v-.672h-.039a1.4 1.4 0 0 1-.278.365 1.5 1.5 0 0 1-.476.297 1.8 1.8 0 0 1-.697.118m.207-.767q.396 0 .677-.156.285-.157.432-.409.15-.256.15-.547v-.633a.5.5 0 0 1-.198.096 3 3 0 0 1-.33.074l-.36.054-.294.038a2.4 2.4 0 0 0-.509.119.9.9 0 0 0-.364.239.6.6 0 0 0-.134.409q0 .355.262.537.262.18.668.179m7.166-3.052-.866.153a1 1 0 0 0-.173-.316.86.86 0 0 0-.313-.246 1.1 1.1 0 0 0-.495-.096q-.406 0-.678.182-.27.18-.271.464 0 .246.182.396.181.15.588.246l.78.179q.677.156 1.01.483.332.325.332.847 0 .441-.256.786a1.7 1.7 0 0 1-.706.537q-.45.195-1.045.195-.825 0-1.346-.352a1.5 1.5 0 0 1-.639-1.007l.924-.14a.88.88 0 0 0 .355.546q.268.183.7.182.47 0 .75-.195.282-.197.282-.482a.5.5 0 0 0-.173-.387q-.17-.156-.52-.236l-.832-.183q-.686-.156-1.016-.498-.326-.342-.326-.866 0-.435.243-.761a1.6 1.6 0 0 1 .671-.508q.429-.185.981-.185.795 0 1.253.345.457.342.604.917m3.263 3.81q-.725 0-1.25-.31a2.1 2.1 0 0 1-.806-.879q-.28-.57-.28-1.333 0-.754.28-1.33.285-.574.793-.898.512-.322 1.195-.322.416 0 .806.137t.7.431.489.764q.179.467.179 1.135v.339h-3.903v-.716h2.966q0-.377-.153-.668a1.16 1.16 0 0 0-1.077-.633q-.403 0-.703.198-.297.195-.46.512-.16.312-.16.68v.56q0 .492.172.837.175.345.49.527.312.18.731.179.272 0 .495-.076.224-.081.387-.237t.25-.387l.904.163q-.109.4-.39.7a1.9 1.9 0 0 1-.7.464q-.419.162-.955.163"/><path fill="#6b6b70" d="M16.562 214.816q-.01-.43.127-.706a.93.93 0 0 1 .372-.407 1 1 0 0 1 .515-.134q.249 0 .46.106.21.105.482.343.17.147.276.214.106.065.239.065a.39.39 0 0 0 .32-.149q.122-.152.117-.448h.63q.01.433-.13.709a.9.9 0 0 1-.373.407 1 1 0 0 1-.512.132 1 1 0 0 1-.463-.107q-.21-.11-.48-.343a2 2 0 0 0-.278-.214.44.44 0 0 0-.236-.064.41.41 0 0 0-.318.139q-.125.137-.12.457zm6.27 2.054q-.466 0-.84-.179a1.53 1.53 0 0 1-.592-.497 1.3 1.3 0 0 1-.236-.721h.746a.75.75 0 0 0 .29.539.98.98 0 0 0 .632.211.96.96 0 0 0 .878-.509 1.1 1.1 0 0 0 .131-.545q0-.31-.134-.554a1 1 0 0 0-.37-.383 1.04 1.04 0 0 0-.537-.141q-.232 0-.465.079a1.1 1.1 0 0 0-.378.209l-.703-.105.286-2.565h2.799v.659h-2.16l-.162 1.424h.03q.149-.144.395-.241.249-.097.532-.097a1.56 1.56 0 0 1 1.402.825q.21.381.209.875.002.495-.224.883-.224.387-.622.611a1.8 1.8 0 0 1-.907.222m4.433.015q-.589-.003-1.007-.311-.417-.309-.639-.898-.22-.588-.22-1.419 0-.828.22-1.414.224-.587.642-.895.42-.308 1.004-.308t1.002.31q.417.309.639.895.223.584.223 1.412 0 .832-.22 1.422-.222.587-.64.897-.417.309-1.004.309m0-.664q.517 0 .808-.505.293-.505.293-1.459 0-.635-.134-1.071-.132-.441-.38-.666a.83.83 0 0 0-.587-.229q-.514 0-.808.507-.293.507-.296 1.459 0 .636.132 1.076.134.438.38.664a.85.85 0 0 0 .592.224m2.816-4.512h.932l1.62 3.958h.06l1.621-3.958h.932v5.091h-.73v-3.684h-.048l-1.501 3.677h-.607l-1.501-3.679h-.047v3.686h-.731zm8.818 0v5.091h-.743v-5.091zm1 5.091v-3.818h.743v3.818zm.375-4.407a.47.47 0 0 1-.333-.13.42.42 0 0 1-.136-.313q0-.184.136-.313a.47.47 0 0 1 .333-.132q.195 0 .331.132.14.13.14.313a.42.42 0 0 1-.14.313.46.46 0 0 1-.33.13m2.111 2.14v2.267h-.743v-3.818h.714v.621h.047q.132-.303.413-.487.282-.184.713-.184.39 0 .683.164.294.162.455.482.162.322.162.793v2.429h-.743v-2.339q0-.415-.216-.649-.217-.236-.595-.236a.9.9 0 0 0-.46.112.8.8 0 0 0-.315.328 1.1 1.1 0 0 0-.114.517m5.086 2.344q-.564 0-.971-.241a1.63 1.63 0 0 1-.627-.684 2.3 2.3 0 0 1-.219-1.036q0-.587.219-1.034a1.7 1.7 0 0 1 .617-.699q.398-.25.93-.251.322 0 .626.107a1.5 1.5 0 0 1 .924.93q.14.363.14.882v.264h-3.036v-.557h2.307q0-.294-.12-.52a.9.9 0 0 0-.837-.492 1 1 0 0 0-.547.154 1.03 1.03 0 0 0-.358.398 1.15 1.15 0 0 0-.124.529v.435q0 .384.134.652a.97.97 0 0 0 .38.41q.245.14.57.139.211 0 .385-.06a.8.8 0 0 0 .301-.183.8.8 0 0 0 .194-.301l.703.127a1.3 1.3 0 0 1-.303.544 1.5 1.5 0 0 1-.544.36 2 2 0 0 1-.744.127m5.324-2.963-.673.119a.8.8 0 0 0-.135-.246.7.7 0 0 0-.243-.191.9.9 0 0 0-.385-.075.93.93 0 0 0-.527.142q-.212.14-.212.36a.38.38 0 0 0 .142.309q.142.117.457.191l.607.139q.527.122.785.376a.88.88 0 0 1 .259.658q0 .344-.199.612-.196.265-.55.417a2 2 0 0 1-.812.152q-.641 0-1.047-.273a1.16 1.16 0 0 1-.497-.783l.719-.11a.7.7 0 0 0 .276.425q.208.142.544.142.365 0 .584-.152.219-.153.219-.375a.39.39 0 0 0-.134-.301q-.132-.121-.406-.184l-.646-.141q-.535-.123-.79-.388a.94.94 0 0 1-.254-.674q0-.337.189-.591t.522-.396q.333-.144.763-.144.62 0 .975.269.354.266.47.713m4.353 2.963q-.537 0-.937-.246a1.66 1.66 0 0 1-.622-.689 2.3 2.3 0 0 1-.22-1.034q0-.594.22-1.039a1.66 1.66 0 0 1 .622-.691q.4-.246.937-.246t.937.246.622.691q.22.445.22 1.039 0 .592-.22 1.034a1.66 1.66 0 0 1-.622.689q-.401.246-.937.246m.002-.624a.9.9 0 0 0 .577-.184q.229-.184.338-.489.112-.306.112-.674a2 2 0 0 0-.112-.671 1.1 1.1 0 0 0-.338-.495.88.88 0 0 0-.576-.186.9.9 0 0 0-.582.186 1.1 1.1 0 0 0-.34.495q-.11.305-.11.671 0 .368.11.674.11.305.34.489a.9.9 0 0 0 .581.184m4.425-3.271v.596H59.42v-.596zm-1.567 3.818v-4.261q0-.357.157-.594a.96.96 0 0 1 .415-.355q.26-.12.562-.119.224 0 .383.037.16.035.236.064l-.174.602-.134-.035a.8.8 0 0 0-.2-.022q-.27 0-.387.134-.114.135-.114.388v4.161zm5.794.077q-.554 0-.954-.251a1.67 1.67 0 0 1-.612-.698 2.3 2.3 0 0 1-.214-1.02q0-.581.22-1.026.217-.448.616-.699.397-.25.937-.251.435 0 .775.162.34.159.55.447t.25.674h-.723a.87.87 0 0 0-.273-.463q-.21-.193-.567-.193a.92.92 0 0 0-.544.164 1.05 1.05 0 0 0-.36.462q-.13.298-.13.706 0 .418.127.721.126.303.358.47a.92.92 0 0 0 .55.166q.21 0 .382-.077a.8.8 0 0 0 .29-.226.86.86 0 0 0 .167-.353h.724a1.39 1.39 0 0 1-.78 1.119 1.75 1.75 0 0 1-.789.166m3.972 0q-.537 0-.937-.246a1.66 1.66 0 0 1-.622-.689 2.3 2.3 0 0 1-.22-1.034q0-.594.22-1.039a1.66 1.66 0 0 1 .622-.691q.4-.246.937-.246t.937.246.622.691q.22.445.22 1.039 0 .592-.22 1.034a1.66 1.66 0 0 1-.622.689q-.401.246-.937.246m.002-.624a.9.9 0 0 0 .577-.184q.229-.184.338-.489a2 2 0 0 0 .112-.674q0-.365-.112-.671a1.1 1.1 0 0 0-.338-.495.88.88 0 0 0-.576-.186.9.9 0 0 0-.582.186 1.1 1.1 0 0 0-.34.495q-.11.305-.11.671 0 .368.11.674.11.305.34.489a.9.9 0 0 0 .582.184m4.037.622q-.463 0-.826-.237a1.6 1.6 0 0 1-.566-.678q-.204-.442-.204-1.062 0-.618.206-1.059.21-.44.572-.673.363-.234.823-.234.355 0 .572.119.218.117.338.274.12.156.189.276h.044v-1.892h.743v5.091h-.725v-.594h-.062a2 2 0 0 1-.194.278 1.1 1.1 0 0 1-.344.274 1.2 1.2 0 0 1-.566.117m.164-.634a.87.87 0 0 0 .542-.169 1.05 1.05 0 0 0 .338-.475q.117-.303.117-.706a2 2 0 0 0-.115-.696 1 1 0 0 0-.335-.465.9.9 0 0 0-.547-.166.9.9 0 0 0-.56.174q-.223.174-.338.474a2 2 0 0 0-.111.679q0 .383.114.689t.338.484q.225.177.557.177m4.434.636q-.564 0-.972-.241a1.63 1.63 0 0 1-.626-.684 2.3 2.3 0 0 1-.22-1.036q0-.587.22-1.034a1.7 1.7 0 0 1 .616-.699q.397-.25.93-.251.323 0 .626.107a1.5 1.5 0 0 1 .925.93q.14.363.139.882v.264h-3.035v-.557h2.307q0-.294-.12-.52a.9.9 0 0 0-.837-.492 1 1 0 0 0-.547.154 1.03 1.03 0 0 0-.358.398 1.15 1.15 0 0 0-.124.529v.435q0 .384.134.652a.97.97 0 0 0 .38.41q.243.14.57.139.21 0 .385-.06a.8.8 0 0 0 .3-.183.8.8 0 0 0 .194-.301l.704.127a1.3 1.3 0 0 1-.303.544 1.5 1.5 0 0 1-.545.36 2 2 0 0 1-.743.127"/><path fill="#ececec" d="M22.156 276.32h-.998a1.52 1.52 0 0 0-.597-.975 1.6 1.6 0 0 0-.508-.255 2 2 0 0 0-.592-.087q-.566 0-1.013.285-.444.284-.703.834-.256.55-.256 1.342 0 .8.256 1.349.26.55.706.831.448.282 1.007.281.31 0 .588-.083.282-.086.508-.252a1.55 1.55 0 0 0 .604-.962l.997.003a2.7 2.7 0 0 1-.31.888 2.5 2.5 0 0 1-.584.697 2.7 2.7 0 0 1-.812.451q-.457.16-.997.16a2.87 2.87 0 0 1-1.515-.403 2.8 2.8 0 0 1-1.049-1.16q-.38-.755-.38-1.8 0-1.048.384-1.799a2.8 2.8 0 0 1 1.048-1.157 2.84 2.84 0 0 1 1.512-.406q.52 0 .971.15.455.147.815.435.361.285.598.697.237.409.32.936m2.06-2.128v6.545h-.955v-6.545zm2.714 6.654q-.466 0-.843-.173a1.4 1.4 0 0 1-.598-.508q-.217-.332-.217-.815 0-.415.16-.684t.43-.425q.273-.156.608-.237.336-.08.684-.121l.716-.083q.274-.036.4-.112.124-.077.124-.249v-.023q0-.418-.236-.648-.234-.231-.697-.231-.483 0-.76.215-.275.21-.381.469l-.898-.204q.16-.447.466-.722.31-.279.713-.403a2.8 2.8 0 0 1 .847-.128q.294 0 .623.07.333.067.62.25.291.182.477.521.185.335.185.872v3.26h-.933v-.671h-.039a1.4 1.4 0 0 1-.278.364 1.5 1.5 0 0 1-.476.297 1.8 1.8 0 0 1-.697.119m.208-.767q.396 0 .678-.157.285-.156.431-.409.15-.256.15-.547v-.632a.5.5 0 0 1-.198.096 3 3 0 0 1-.329.073l-.361.054-.294.039a2.4 2.4 0 0 0-.508.118.86.86 0 0 0-.365.24.6.6 0 0 0-.134.409q0 .354.262.537.263.179.668.179m6.598-1.378v-2.873h.958v4.909h-.94v-.85h-.05q-.17.393-.544.655-.37.26-.923.259-.474 0-.838-.208-.36-.21-.569-.623-.204-.413-.204-1.02v-3.122h.955v3.007q0 .502.279.799a.94.94 0 0 0 .722.298q.269 0 .533-.135.27-.134.445-.405.18-.273.175-.691m4.08 2.132q-.594 0-1.061-.304a2.07 2.07 0 0 1-.729-.872q-.261-.569-.262-1.365 0-.795.265-1.361a2.04 2.04 0 0 1 .736-.867q.465-.3 1.057-.3.457 0 .735.153.282.151.435.352.157.202.243.355h.058v-2.432h.955v6.545h-.933v-.764h-.08q-.085.157-.25.358a1.4 1.4 0 0 1-.44.352q-.281.15-.729.15m.211-.815q.412 0 .697-.217.288-.22.434-.611.15-.39.15-.907 0-.512-.146-.895a1.3 1.3 0 0 0-.432-.598 1.13 1.13 0 0 0-.703-.214q-.431 0-.72.224a1.36 1.36 0 0 0-.434.61 2.5 2.5 0 0 0-.144.873q0 .492.147.885t.435.623q.291.227.716.227m5.7.818q-.725 0-1.249-.31a2.1 2.1 0 0 1-.805-.879q-.281-.568-.281-1.333 0-.754.28-1.329a2.2 2.2 0 0 1 .794-.898q.51-.323 1.195-.323.415 0 .805.137.39.138.7.432t.49.764q.177.466.178 1.134v.339h-3.902v-.716h2.966q0-.377-.154-.668a1.16 1.16 0 0 0-.431-.463 1.2 1.2 0 0 0-.646-.17 1.25 1.25 0 0 0-.703.199q-.297.195-.46.511-.16.314-.16.681v.559q0 .492.173.837.175.346.489.528.312.179.731.179.273 0 .496-.077.224-.08.387-.236.162-.157.249-.387l.904.163a1.64 1.64 0 0 1-.39.7 1.9 1.9 0 0 1-.7.463q-.418.163-.955.163m11.312-3.372q0 1.049-.384 1.803a2.8 2.8 0 0 1-1.051 1.157 2.86 2.86 0 0 1-1.512.403 2.9 2.9 0 0 1-1.518-.403 2.8 2.8 0 0 1-1.048-1.16q-.384-.755-.384-1.8 0-1.048.383-1.799a2.8 2.8 0 0 1 1.049-1.157 2.86 2.86 0 0 1 1.518-.406q.847 0 1.512.406.667.402 1.051 1.157.384.751.384 1.799m-.978 0q0-.798-.26-1.345-.255-.55-.702-.831a1.8 1.8 0 0 0-1.007-.285 1.83 1.83 0 0 0-1.01.285q-.444.28-.703.831-.255.546-.256 1.345 0 .8.256 1.349.258.546.703.831.444.282 1.01.281.562 0 1.007-.281.447-.285.703-.831.258-.55.259-1.349m2.132 5.114v-6.75h.933v.796h.08q.084-.154.24-.355.157-.2.435-.352.278-.153.735-.153.594 0 1.06.3.468.3.733.867.268.566.268 1.361 0 .796-.265 1.365-.266.566-.729.872a1.9 1.9 0 0 1-1.058.304q-.447 0-.731-.15a1.4 1.4 0 0 1-.442-.352 2.6 2.6 0 0 1-.246-.358h-.057v2.605zm.937-4.295q0 .517.15.907t.434.611q.285.217.697.217.428 0 .716-.227.288-.23.435-.623.15-.393.15-.885 0-.486-.147-.873a1.33 1.33 0 0 0-.435-.61q-.287-.224-.719-.224-.415 0-.703.214-.284.214-.431.598a2.5 2.5 0 0 0-.147.895m7.728.418v-2.873h.958v4.909h-.94v-.85h-.05q-.17.393-.544.655-.37.26-.923.259-.474 0-.838-.208-.36-.21-.569-.623-.204-.413-.204-1.02v-3.122h.956v3.007q0 .502.277.799a.94.94 0 0 0 .723.298q.269 0 .534-.135a1.1 1.1 0 0 0 .444-.405q.18-.273.176-.691m5.921-1.675-.866.154a1 1 0 0 0-.173-.317.86.86 0 0 0-.313-.246 1.1 1.1 0 0 0-.495-.095q-.406 0-.678.182-.271.178-.272.463 0 .246.183.396.181.151.588.247l.78.178q.677.157 1.01.483t.332.847q0 .441-.256.786a1.7 1.7 0 0 1-.706.537q-.45.195-1.045.195-.825 0-1.346-.351a1.5 1.5 0 0 1-.639-1.007l.924-.141a.9.9 0 0 0 .355.547q.267.182.7.182.47 0 .75-.195.282-.198.282-.483a.5.5 0 0 0-.173-.386q-.17-.157-.52-.237l-.832-.182q-.687-.156-1.016-.499-.326-.342-.326-.866 0-.435.243-.76.243-.327.671-.509a2.5 2.5 0 0 1 .981-.185q.795 0 1.253.345.457.342.604.917m3.378 2.433v-.799l2.829-4.468h.63v1.176h-.4l-2.023 3.202v.051h3.877v.838zm3.104 1.278v-1.521l.006-.365v-4.659h.936v6.545zm3.319.061a.62.62 0 0 1-.451-.186.62.62 0 0 1-.189-.453q0-.262.189-.448a.6.6 0 0 1 .45-.188q.263 0 .451.188a.6.6 0 0 1 .189.448q0 .175-.09.322a.66.66 0 0 1-.23.23.6.6 0 0 1-.32.087m3.898.029q-.687 0-1.215-.237a2 2 0 0 1-.82-.652 1.57 1.57 0 0 1-.295-.946 1.67 1.67 0 0 1 .646-1.349q.3-.236.67-.3v-.038a1.32 1.32 0 0 1-.782-.525 1.53 1.53 0 0 1-.291-.933 1.53 1.53 0 0 1 .265-.895 1.85 1.85 0 0 1 .745-.623 2.5 2.5 0 0 1 1.077-.227q.597 0 1.068.23.472.227.744.623.272.394.275.892a1.55 1.55 0 0 1-.3.933 1.33 1.33 0 0 1-.774.525v.038q.368.064.662.3.297.234.473.585.179.348.182.764a1.6 1.6 0 0 1-.3.946 2 2 0 0 1-.825.652q-.525.237-1.205.237m0-.809q.405 0 .703-.134.297-.138.46-.381.163-.245.166-.575a1.1 1.1 0 0 0-.178-.604 1.2 1.2 0 0 0-.47-.412 1.5 1.5 0 0 0-.681-.15q-.387 0-.687.15t-.473.412a1.06 1.06 0 0 0-.17.604q-.003.33.157.575.163.243.463.381.3.134.71.134m0-3.046q.325 0 .579-.131a.99.99 0 0 0 .546-.911 1 1 0 0 0-.147-.537.94.94 0 0 0-.393-.354 1.3 1.3 0 0 0-.585-.128q-.339 0-.594.128a.94.94 0 0 0-.394.354 1 1 0 0 0-.137.537q-.003.313.14.547a1 1 0 0 0 .397.364q.255.13.588.131"/><path fill="#6b6b70" d="M18.108 290.247q-.555 0-.955-.251a1.66 1.66 0 0 1-.611-.698 2.3 2.3 0 0 1-.214-1.019q0-.582.219-1.027.219-.447.616-.698.398-.251.938-.251.435 0 .775.161.34.159.55.448.21.288.25.673h-.723a.86.86 0 0 0-.273-.462q-.211-.194-.567-.194a.93.93 0 0 0-.544.164 1.06 1.06 0 0 0-.36.462 1.8 1.8 0 0 0-.13.706q0 .418.127.721.126.303.358.47a.92.92 0 0 0 .549.167.9.9 0 0 0 .383-.077.8.8 0 0 0 .29-.227.84.84 0 0 0 .167-.353h.724a1.4 1.4 0 0 1-.242.662 1.4 1.4 0 0 1-.539.457 1.75 1.75 0 0 1-.788.166m3.972 0q-.537 0-.937-.246a1.66 1.66 0 0 1-.622-.688 2.3 2.3 0 0 1-.221-1.034q0-.595.221-1.039.222-.445.621-.691.4-.246.938-.246t.937.246.621.691.221 1.039q0 .591-.22 1.034a1.66 1.66 0 0 1-.622.688q-.401.246-.937.246m.002-.623a.9.9 0 0 0 .577-.184 1.1 1.1 0 0 0 .338-.49 2 2 0 0 0 .112-.674q0-.365-.112-.671a1.1 1.1 0 0 0-.338-.495.88.88 0 0 0-.577-.186.9.9 0 0 0-.582.186 1.1 1.1 0 0 0-.34.495q-.11.306-.11.671 0 .368.11.674.112.306.34.49a.9.9 0 0 0 .582.184m3.35-1.721v2.267h-.743v-3.818h.713v.622h.048a1.1 1.1 0 0 1 .412-.488q.284-.183.714-.183.39 0 .683.164.294.16.455.482.162.32.162.793v2.428h-.743v-2.339q0-.414-.217-.649-.216-.236-.594-.236a.94.94 0 0 0-.46.112.8.8 0 0 0-.315.328 1.1 1.1 0 0 0-.115.517m5.223-1.551v.597h-2.086v-.597zm-1.526-.915h.743v3.612q0 .216.065.326.064.106.166.147a.8.8 0 0 0 .383.024l.104-.019.135.614a1.4 1.4 0 0 1-.482.079 1.3 1.3 0 0 1-.548-.104.94.94 0 0 1-.41-.338 1 1 0 0 1-.156-.575zm3.953 4.81q-.564 0-.972-.241a1.63 1.63 0 0 1-.627-.683 2.3 2.3 0 0 1-.218-1.037q0-.587.218-1.034.222-.447.617-.698.398-.251.93-.251.323 0 .626.106.303.108.544.336t.38.594q.14.363.14.883v.263h-3.035v-.557h2.307q0-.293-.12-.519a.9.9 0 0 0-.837-.492.97.97 0 0 0-.547.154 1.03 1.03 0 0 0-.358.397 1.15 1.15 0 0 0-.125.53v.435q0 .382.135.651a.97.97 0 0 0 .38.41q.243.14.57.139.21 0 .384-.059a.8.8 0 0 0 .495-.485l.704.127a1.3 1.3 0 0 1-.304.544 1.5 1.5 0 0 1-.544.361 2 2 0 0 1-.743.126m2.96-3.895.843 1.487.85-1.487h.813l-1.19 1.909 1.2 1.909h-.813l-.86-1.426-.858 1.426h-.815l1.188-1.909-1.173-1.909zm5.051 0v.597h-2.085v-.597zm-1.526-.915h.743v3.612q0 .216.065.326.065.106.167.147a.8.8 0 0 0 .383.024l.104-.019.134.614a1.4 1.4 0 0 1-.482.079 1.3 1.3 0 0 1-.547-.104.94.94 0 0 1-.41-.338 1 1 0 0 1-.157-.575zm5.029 4.733-1.124-3.818h.768l.749 2.804h.037l.75-2.804h.769l.746 2.792h.037l.743-2.792h.768l-1.12 3.818h-.759l-.776-2.756h-.057l-.775 2.756zm4.949 0v-3.818h.743v3.818zm.375-4.407a.47.47 0 0 1-.333-.129.42.42 0 0 1-.137-.313q0-.184.137-.314a.47.47 0 0 1 .333-.131q.195 0 .33.131.14.13.14.314a.42.42 0 0 1-.14.313.46.46 0 0 1-.33.129m2.111 2.14v2.267h-.743v-3.818H52v.622h.047q.132-.304.413-.488.284-.183.713-.183.39 0 .684.164.294.16.455.482.161.32.161.793v2.428h-.743v-2.339q0-.414-.216-.649t-.594-.236a.94.94 0 0 0-.46.112.8.8 0 0 0-.316.328 1.1 1.1 0 0 0-.114.517m4.87 2.342q-.463 0-.826-.236a1.6 1.6 0 0 1-.566-.679q-.204-.443-.204-1.061 0-.62.206-1.059.21-.44.572-.674.363-.233.823-.233.355 0 .571.119.22.117.338.273.123.158.19.276h.044v-1.891h.743v5.09h-.726v-.594h-.062q-.066.122-.194.279a1.1 1.1 0 0 1-.343.273 1.2 1.2 0 0 1-.566.117m.164-.634a.86.86 0 0 0 .542-.169q.223-.171.338-.475.117-.303.117-.706a2 2 0 0 0-.115-.696 1 1 0 0 0-.335-.465.9.9 0 0 0-.547-.166.9.9 0 0 0-.56.174q-.223.174-.338.475-.111.3-.111.678 0 .383.114.689a1.1 1.1 0 0 0 .338.485q.225.176.557.176m4.397.636q-.537 0-.938-.246a1.66 1.66 0 0 1-.621-.688 2.3 2.3 0 0 1-.221-1.034q0-.595.22-1.039.222-.445.622-.691t.938-.246q.536 0 .937.246.4.246.621.691.222.444.221 1.039 0 .591-.22 1.034a1.66 1.66 0 0 1-.622.688q-.401.246-.937.246m.002-.623a.9.9 0 0 0 .577-.184 1.1 1.1 0 0 0 .338-.49 2 2 0 0 0 .112-.674q0-.365-.112-.671a1.1 1.1 0 0 0-.338-.495.88.88 0 0 0-.577-.186.9.9 0 0 0-.582.186q-.228.188-.34.495-.11.306-.11.671 0 .368.11.674.111.306.34.49a.9.9 0 0 0 .582.184m3.319.546-1.124-3.818h.768l.748 2.804h.038l.75-2.804h.768l.746 2.792h.037l.744-2.792h.768l-1.121 3.818h-.758l-.776-2.756h-.057l-.776 2.756zm-47.539-41.776v5.091H16.5v-5.091zm2.111 5.176q-.363 0-.656-.135a1.1 1.1 0 0 1-.465-.395 1.13 1.13 0 0 1-.17-.634q0-.322.125-.532a.9.9 0 0 1 .336-.33q.21-.123.472-.184a5 5 0 0 1 .532-.095l.557-.064a.9.9 0 0 0 .31-.087q.098-.06.098-.194v-.018q0-.326-.184-.504-.182-.18-.542-.179-.375 0-.592.166a.9.9 0 0 0-.296.366l-.698-.159a1.34 1.34 0 0 1 .363-.562q.24-.216.554-.313.313-.1.659-.1.229 0 .484.055.26.052.483.194.226.141.37.405.144.26.144.679v2.535h-.726v-.522h-.03q-.071.145-.216.283-.144.14-.37.232t-.542.092m.162-.597q.307 0 .527-.122a.85.85 0 0 0 .335-.318.83.83 0 0 0 .117-.425v-.492a.4.4 0 0 1-.154.074 2 2 0 0 1-.256.058l-.281.042-.229.03a2 2 0 0 0-.395.092.7.7 0 0 0-.283.186.47.47 0 0 0-.105.318q0 .276.204.418a.9.9 0 0 0 .52.139m2.712.512v-3.818h.719v.606h.04a.92.92 0 0 1 .367-.484q.267-.18.602-.179a3 3 0 0 1 .316.017v.711a1 1 0 0 0-.16-.027 1.5 1.5 0 0 0-.228-.018 1 1 0 0 0-.47.112.83.83 0 0 0-.443.748v2.332zm4.15 1.511q-.454 0-.782-.119a1.5 1.5 0 0 1-.532-.316 1.3 1.3 0 0 1-.308-.43l.638-.263q.067.11.18.231a.9.9 0 0 0 .308.211q.196.087.504.087.423 0 .699-.206.276-.204.276-.651v-.751h-.047q-.068.122-.194.271a1.1 1.1 0 0 1-.344.259 1.3 1.3 0 0 1-.569.109q-.452 0-.815-.211a1.5 1.5 0 0 1-.572-.629q-.209-.418-.209-1.027t.207-1.044q.209-.435.572-.666.362-.234.822-.234.356 0 .575.12.218.116.34.273.125.156.191.276h.055v-.619h.729v3.903q0 .492-.23.808-.228.315-.618.467-.388.151-.875.151m-.007-2.185a.94.94 0 0 0 .542-.149.93.93 0 0 0 .338-.432q.117-.283.117-.679 0-.386-.114-.678a1 1 0 0 0-.336-.458.9.9 0 0 0-.547-.166.9.9 0 0 0-.559.174q-.224.171-.338.467a1.9 1.9 0 0 0-.112.661q0 .375.115.659a.97.97 0 0 0 .337.442q.227.159.557.159m4.373.751q-.564 0-.972-.241a1.63 1.63 0 0 1-.626-.684 2.3 2.3 0 0 1-.22-1.036q0-.587.22-1.034a1.7 1.7 0 0 1 .616-.699q.398-.25.93-.251.323 0 .626.107a1.5 1.5 0 0 1 .925.93q.14.363.139.882v.264h-3.035v-.557h2.307q0-.294-.12-.52a.9.9 0 0 0-.837-.492 1 1 0 0 0-.547.154 1.03 1.03 0 0 0-.358.398 1.15 1.15 0 0 0-.125.53v.435q0 .382.135.651a.97.97 0 0 0 .38.41q.244.14.57.139.21 0 .385-.059a.8.8 0 0 0 .3-.184.8.8 0 0 0 .194-.301l.704.127a1.3 1.3 0 0 1-.303.544 1.5 1.5 0 0 1-.545.36 2 2 0 0 1-.743.127m5.324-2.963-.674.119a.8.8 0 0 0-.134-.246.7.7 0 0 0-.244-.191.9.9 0 0 0-.385-.075.93.93 0 0 0-.527.142q-.21.14-.211.36 0 .192.141.309.142.116.458.191l.606.139q.528.123.786.376a.88.88 0 0 1 .258.658q0 .344-.199.612-.195.265-.549.418a2 2 0 0 1-.813.151q-.64 0-1.046-.273a1.16 1.16 0 0 1-.497-.783l.718-.11a.7.7 0 0 0 .276.425q.209.142.544.142.366 0 .584-.152.22-.153.22-.375a.4.4 0 0 0-.135-.301q-.132-.121-.405-.184l-.647-.141q-.535-.123-.79-.388a.94.94 0 0 1-.253-.674q0-.338.188-.591.189-.254.522-.396.334-.144.764-.144.618 0 .974.269.356.266.47.713m2.674-.932v.597h-2.086v-.597zm-1.526-.915h.743v3.612q0 .216.064.326.066.107.167.146.105.038.226.038.09 0 .157-.013l.104-.02.135.614a1.5 1.5 0 0 1-.482.08 1.3 1.3 0 0 1-.548-.105.93.93 0 0 1-.41-.338 1 1 0 0 1-.156-.574zm5.809 4.81q-.555 0-.955-.251a1.66 1.66 0 0 1-.611-.698 2.3 2.3 0 0 1-.214-1.02q0-.581.219-1.026.219-.448.616-.699.398-.25.938-.251.435 0 .775.162.34.159.55.447t.25.674h-.723a.87.87 0 0 0-.273-.462q-.212-.195-.567-.194a.92.92 0 0 0-.544.164 1.05 1.05 0 0 0-.36.462q-.13.298-.13.706 0 .417.127.721.126.303.358.47a.92.92 0 0 0 .549.166q.21 0 .383-.077a.8.8 0 0 0 .29-.226.85.85 0 0 0 .167-.353h.724a1.4 1.4 0 0 1-.242.661 1.4 1.4 0 0 1-.54.458 1.75 1.75 0 0 1-.787.166m3.972 0q-.537 0-.937-.246a1.66 1.66 0 0 1-.622-.688 2.3 2.3 0 0 1-.221-1.035q0-.594.221-1.039a1.66 1.66 0 0 1 .621-.691q.4-.246.938-.246t.937.246.621.691.221 1.039q0 .593-.22 1.035a1.66 1.66 0 0 1-.622.688q-.401.246-.937.246m.002-.624a.9.9 0 0 0 .577-.184q.228-.184.338-.489a2 2 0 0 0 .112-.674q0-.365-.112-.671a1.1 1.1 0 0 0-.338-.495.88.88 0 0 0-.577-.186.9.9 0 0 0-.582.186 1.1 1.1 0 0 0-.34.495q-.11.305-.11.671 0 .368.11.674.112.305.34.489a.9.9 0 0 0 .582.184m3.35-1.72v2.267h-.743v-3.818h.713v.621h.048q.132-.303.412-.487.284-.183.714-.184.39 0 .683.164.294.162.455.483t.162.792v2.429h-.743v-2.339q0-.415-.217-.649-.216-.236-.594-.236a.9.9 0 0 0-.46.112.8.8 0 0 0-.315.328 1.1 1.1 0 0 0-.115.517m5.223-1.551v.597h-2.086v-.597zm-1.526-.915h.743v3.612q0 .216.065.326.064.107.166.146.105.038.226.038.09 0 .157-.013l.104-.02.135.614a1.5 1.5 0 0 1-.482.08 1.3 1.3 0 0 1-.547-.105.93.93 0 0 1-.41-.338 1 1 0 0 1-.157-.574zm3.953 4.81q-.564 0-.972-.241a1.63 1.63 0 0 1-.627-.684 2.3 2.3 0 0 1-.218-1.036q0-.587.218-1.034a1.7 1.7 0 0 1 .617-.699q.398-.25.93-.251.323 0 .626.107a1.5 1.5 0 0 1 .925.93q.14.363.139.882v.264h-3.035v-.557h2.307q0-.294-.12-.52a.9.9 0 0 0-.837-.492 1 1 0 0 0-.547.154 1.03 1.03 0 0 0-.358.398 1.15 1.15 0 0 0-.125.53v.435q0 .382.135.651a.97.97 0 0 0 .38.41q.243.14.57.139.21 0 .385-.059a.8.8 0 0 0 .3-.184.8.8 0 0 0 .194-.301l.704.127a1.3 1.3 0 0 1-.304.544 1.5 1.5 0 0 1-.544.36 2 2 0 0 1-.743.127m2.96-3.895.843 1.486.85-1.486h.813l-1.19 1.909 1.2 1.909h-.813l-.86-1.427-.858 1.427h-.815l1.188-1.909-1.173-1.909zm5.051 0v.597h-2.085v-.597zm-1.526-.915h.744v3.612q0 .216.064.326.065.107.167.146.105.038.226.038a1 1 0 0 0 .156-.013l.105-.02.134.614a1.5 1.5 0 0 1-.482.08 1.3 1.3 0 0 1-.547-.105.93.93 0 0 1-.41-.338 1 1 0 0 1-.157-.574zm5.029 4.733-1.124-3.818h.769l.748 2.804h.037l.75-2.804h.769l.746 2.791h.037l.743-2.791h.768l-1.12 3.818h-.759l-.776-2.757h-.057l-.775 2.757zm4.949 0v-3.818h.743v3.818zm.375-4.407a.47.47 0 0 1-.333-.129.42.42 0 0 1-.137-.314q0-.184.137-.313a.47.47 0 0 1 .333-.132q.195 0 .33.132.14.13.14.313a.42.42 0 0 1-.14.314.46.46 0 0 1-.33.129m2.111 2.14v2.267h-.743v-3.818h.713v.621h.047q.132-.303.413-.487.284-.183.713-.184.39 0 .684.164.293.162.455.483t.161.792v2.429h-.743v-2.339q0-.415-.216-.649-.216-.236-.594-.236a.9.9 0 0 0-.46.112.8.8 0 0 0-.316.328 1.1 1.1 0 0 0-.114.517m4.87 2.342q-.463 0-.826-.236-.36-.24-.566-.679-.204-.442-.204-1.062 0-.618.206-1.058.21-.44.572-.674.363-.234.823-.234.355 0 .571.12.22.116.338.273.123.156.19.276h.044v-1.892h.743v5.091h-.725v-.594h-.063a2 2 0 0 1-.194.278 1.1 1.1 0 0 1-.343.274 1.2 1.2 0 0 1-.566.117m.164-.634a.87.87 0 0 0 .542-.169 1.05 1.05 0 0 0 .338-.475q.117-.304.117-.706a2 2 0 0 0-.115-.696 1 1 0 0 0-.335-.465.9.9 0 0 0-.547-.166.9.9 0 0 0-.56.174q-.223.174-.338.474a2 2 0 0 0-.112.679q0 .383.115.689.114.305.338.484.225.177.557.177m4.397.636q-.537 0-.938-.246a1.66 1.66 0 0 1-.621-.688 2.3 2.3 0 0 1-.221-1.035q0-.594.22-1.039a1.66 1.66 0 0 1 .622-.691q.4-.246.938-.246.536 0 .937.246.4.246.621.691.222.445.221 1.039 0 .593-.22 1.035a1.66 1.66 0 0 1-.622.688q-.401.246-.937.246m.002-.624a.9.9 0 0 0 .577-.184q.228-.184.338-.489a2 2 0 0 0 .112-.674q0-.365-.112-.671a1.1 1.1 0 0 0-.338-.495.88.88 0 0 0-.577-.186.9.9 0 0 0-.582.186 1.1 1.1 0 0 0-.34.495q-.11.305-.11.671 0 .368.11.674.112.305.34.489a.9.9 0 0 0 .582.184m3.319.547-1.124-3.818h.768l.748 2.804h.037l.751-2.804h.768l.746 2.791h.037l.744-2.791h.768l-1.121 3.818h-.758l-.776-2.757h-.057l-.776 2.757z"/><path fill="#3a362b" d="M124 203.233h197v12.723a3 3 0 0 1-3 3H124zm0 33.541h31v9.722a6 6 0 0 1-6 6h-19a6 6 0 0 1-6-6z"/><path fill="#3a362b" d="M124 236.774h31v12.722a3 3 0 0 1-3 3h-28zm0 35.637h9v12.722a3 3 0 0 1-3 3h-6z"/><path stroke="#fff" stroke-opacity=".15" d="M123.5 191.18v109.531"/><path fill="#ececec" d="M21.149 238.526a2 2 0 0 0-.25-.521 1.6 1.6 0 0 0-.856-.649 2 2 0 0 0-.598-.086q-.552 0-.997.284-.444.285-.703.835-.256.546-.256 1.339 0 .796.26 1.345.258.55.709.834.45.285 1.026.285.532 0 .93-.217.4-.218.616-.614.221-.4.221-.94l.256.048h-1.873v-.815h2.573v.745q0 .825-.352 1.432a2.4 2.4 0 0 1-.965.933q-.614.329-1.406.329-.89 0-1.56-.409a2.77 2.77 0 0 1-1.042-1.16q-.374-.755-.374-1.79 0-.783.218-1.406.216-.623.61-1.058.396-.438.93-.668a2.9 2.9 0 0 1 1.173-.233q.53 0 .988.156.46.157.818.445.36.286.597.684a2.5 2.5 0 0 1 .32.872zm4.35 4.577q-.725 0-1.25-.31a2.1 2.1 0 0 1-.805-.879q-.28-.569-.28-1.333 0-.754.28-1.329a2.2 2.2 0 0 1 .793-.899q.511-.322 1.195-.322.416 0 .806.137.39.138.7.432t.489.763q.179.467.179 1.135v.339h-3.903v-.716h2.966q0-.377-.153-.668a1.16 1.16 0 0 0-1.077-.633q-.403 0-.704.198-.297.195-.46.512-.16.312-.16.68v.56q0 .492.173.837.175.345.49.527.312.18.731.179.271 0 .495-.076.224-.08.387-.237t.25-.387l.904.163q-.11.4-.39.7a1.9 1.9 0 0 1-.7.464q-.42.162-.956.163m3.167-.099v-4.909h.917v.799h.06q.154-.406.503-.633.348-.23.834-.23.492 0 .824.23.336.23.496.633h.05q.177-.393.56-.627.383-.236.914-.236.669 0 1.09.418.425.418.425 1.263v3.292h-.956v-3.203q0-.498-.271-.722a1 1 0 0 0-.649-.224q-.467 0-.725.288-.26.283-.26.732v3.129h-.952v-3.263q0-.4-.249-.643-.25-.243-.649-.243a.93.93 0 0 0-.502.144 1.06 1.06 0 0 0-.367.393 1.2 1.2 0 0 0-.138.585v3.027zm7.954 0v-4.909h.956v4.909zm.483-5.667a.6.6 0 0 1-.429-.166.54.54 0 0 1-.175-.403q0-.236.175-.402a.6.6 0 0 1 .428-.17.6.6 0 0 1 .426.17q.179.166.179.402 0 .234-.18.403a.6.6 0 0 1-.425.166m2.714 2.752v2.915h-.956v-4.909h.917v.799h.061q.17-.39.53-.627.366-.236.918-.236.501 0 .879.211.377.207.585.62.208.411.208 1.019v3.123h-.956v-3.008q0-.534-.278-.834-.278-.304-.764-.304-.333 0-.591.144-.256.144-.406.422a1.4 1.4 0 0 0-.147.665m4.423 2.915v-4.909h.956v4.909zm.483-5.667a.6.6 0 0 1-.429-.166.54.54 0 0 1-.175-.403q0-.236.175-.402a.6.6 0 0 1 .429-.17.6.6 0 0 1 .425.17q.179.166.179.402 0 .234-.18.403a.6.6 0 0 1-.424.166m6.406 5.756q-.658 0-1.176-.227a2 2 0 0 1-.815-.629 1.67 1.67 0 0 1-.32-.94h1.004a.87.87 0 0 0 .195.505q.18.211.466.326a1.7 1.7 0 0 0 .64.115q.387 0 .684-.134.3-.135.47-.374a.96.96 0 0 0 .169-.559q0-.33-.17-.579-.165-.252-.489-.396a1.9 1.9 0 0 0-.773-.144h-.553v-.805h.553q.364 0 .64-.132a1.04 1.04 0 0 0 .434-.364 1 1 0 0 0 .157-.553 1 1 0 0 0-.138-.527.9.9 0 0 0-.383-.355 1.25 1.25 0 0 0-.582-.128q-.32 0-.598.119a1.1 1.1 0 0 0-.447.332.85.85 0 0 0-.186.514h-.955q.015-.53.313-.933.3-.402.793-.629a2.6 2.6 0 0 1 1.093-.227q.63 0 1.086.246.46.243.71.649.252.405.25.888.002.55-.308.933a1.5 1.5 0 0 1-.818.515v.051q.652.1 1.01.518.36.419.358 1.038.003.54-.3.969-.3.428-.822.674a2.8 2.8 0 0 1-1.192.243m5.993-.089v-6.546h2.334q.763 0 1.265.278.502.279.751.761.25.48.25 1.08 0 .604-.253 1.087a1.83 1.83 0 0 1-.754.76q-.502.279-1.263.279h-1.604v-.838h1.515q.483 0 .783-.166.3-.17.44-.46.142-.291.142-.662a1.5 1.5 0 0 0-.141-.658 1 1 0 0 0-.444-.451q-.3-.163-.793-.163h-1.24v5.699zm5.68 0v-4.909h.924v.779h.051q.135-.396.473-.623.342-.23.774-.23a4 4 0 0 1 .406.022v.914a2 2 0 0 0-.205-.035 2 2 0 0 0-.294-.022q-.339 0-.604.144a1.07 1.07 0 0 0-.569.962v2.998zm5.347.099q-.69 0-1.205-.317a2.13 2.13 0 0 1-.8-.885q-.284-.568-.284-1.33t.285-1.335.799-.889 1.205-.316 1.205.316.799.889q.285.571.284 1.335 0 .762-.284 1.33t-.8.885q-.513.317-1.204.317m.003-.802q.447 0 .741-.237t.435-.63a2.5 2.5 0 0 0 .144-.866q0-.47-.144-.863a1.4 1.4 0 0 0-.435-.636q-.294-.239-.741-.239-.45 0-.748.239a1.43 1.43 0 0 0-.438.636q-.14.393-.14.863 0 .474.14.866.144.393.438.63.297.237.748.237"/><path fill="#6b6b70" d="M162.523 240.972v5.091h-.922v-4.194h-.03l-1.191.761v-.845l1.266-.813zm3.174 5.188q-.613 0-1.054-.311-.437-.313-.673-.902-.234-.592-.234-1.424.003-.834.236-1.417.237-.587.674-.895.44-.309 1.051-.309.612 0 1.052.309.44.308.674.895.236.586.236 1.417 0 .835-.236 1.426-.234.59-.674.9-.437.31-1.052.311m0-.778q.478 0 .754-.47.278-.472.278-1.389 0-.607-.127-1.02-.127-.412-.358-.621a.78.78 0 0 0-.547-.211q-.474 0-.75.472-.276.47-.279 1.38-.002.609.122 1.024.127.414.358.626a.8.8 0 0 0 .549.209m2.837-4.41h1.129l1.511 3.689h.06l1.511-3.689h1.129v5.091h-.885v-3.498h-.047l-1.407 3.483h-.662l-1.406-3.49h-.048v3.505h-.885zm9.947 1.273v.696h-2.195v-.696zm-1.653-.915h.9v3.585q0 .181.055.278a.3.3 0 0 0 .149.129.6.6 0 0 0 .204.035 1 1 0 0 0 .263-.035l.152.704a2 2 0 0 1-.206.054q-.132.03-.324.035a1.5 1.5 0 0 1-.609-.102.95.95 0 0 1-.43-.353 1.06 1.06 0 0 1-.154-.596zm4.03 4.808q-.56 0-.969-.247a1.67 1.67 0 0 1-.637-.688 2.3 2.3 0 0 1-.223-1.034q0-.592.223-1.037a1.67 1.67 0 0 1 .637-.691q.41-.246.969-.246.56 0 .97.246t.634.691q.226.445.226 1.037t-.226 1.034a1.66 1.66 0 0 1-.634.688 1.84 1.84 0 0 1-.97.247m.005-.721a.78.78 0 0 0 .507-.167 1 1 0 0 0 .304-.452q.102-.284.102-.632 0-.35-.102-.634a1 1 0 0 0-.304-.454.77.77 0 0 0-.507-.169.8.8 0 0 0-.517.169 1 1 0 0 0-.306.454 1.9 1.9 0 0 0-.099.634q0 .348.099.632.102.283.306.452.207.167.517.167m3.409-.552-.003-1.086h.145l1.372-1.534h1.051l-1.688 1.879h-.186zm-.82 1.198v-5.091h.899v5.091zm2.396 0-1.243-1.738.607-.633 1.712 2.371zm3.122.075q-.574 0-.992-.239a1.6 1.6 0 0 1-.639-.681q-.223-.442-.223-1.042 0-.588.223-1.034.227-.447.632-.696.405-.25.952-.251.353 0 .666.114.316.112.557.348.243.236.383.602.139.363.139.865v.276h-3.13v-.607h2.267a.96.96 0 0 0-.112-.459.8.8 0 0 0-.305-.321.86.86 0 0 0-.453-.117.9.9 0 0 0-.484.134.9.9 0 0 0-.326.348 1 1 0 0 0-.117.47v.53q0 .333.122.571a.87.87 0 0 0 .34.363q.219.125.513.125.195 0 .355-.055a.8.8 0 0 0 .276-.167.7.7 0 0 0 .176-.271l.841.095a1.3 1.3 0 0 1-.304.582 1.5 1.5 0 0 1-.566.382q-.346.135-.791.135m3.359-2.312v2.237h-.9v-3.818h.86v.649h.045q.132-.321.42-.51.29-.189.718-.189.395 0 .689.169.296.17.457.49.165.32.162.778v2.431h-.9v-2.292q0-.383-.199-.599-.196-.216-.544-.216a.84.84 0 0 0-.42.104.73.73 0 0 0-.286.296 1 1 0 0 0-.102.47m6.384-.572-.821.09a.66.66 0 0 0-.35-.411.85.85 0 0 0-.353-.067.87.87 0 0 0-.473.122q-.189.121-.186.316a.33.33 0 0 0 .122.271q.127.103.417.171l.652.139q.541.117.805.371.266.253.269.664-.003.36-.212.636a1.35 1.35 0 0 1-.574.427 2.2 2.2 0 0 1-.845.155q-.701 0-1.129-.294a1.18 1.18 0 0 1-.509-.823l.877-.084q.06.258.254.39a.9.9 0 0 0 .504.132q.321 0 .515-.132.196-.132.196-.325 0-.165-.126-.271-.125-.108-.388-.164l-.652-.137q-.55-.115-.812-.385a.95.95 0 0 1-.261-.692.98.98 0 0 1 .191-.611q.196-.26.544-.403.35-.144.808-.144.672 0 1.057.286.387.286.48.773m130.507-38.181q.365.003.711.129.348.124.626.408.279.28.443.753.164.472.164 1.168.002.657-.139 1.174a2.6 2.6 0 0 1-.401.87 1.8 1.8 0 0 1-.629.542 1.8 1.8 0 0 1-.827.186 1.9 1.9 0 0 1-.856-.189 1.6 1.6 0 0 1-.599-.517 1.64 1.64 0 0 1-.28-.751h.907a.86.86 0 0 0 .283.483.84.84 0 0 0 .545.176q.529 0 .815-.46.286-.459.286-1.278h-.035a1.3 1.3 0 0 1-.316.378 1.55 1.55 0 0 1-.957.326 1.54 1.54 0 0 1-1.369-.8 1.74 1.74 0 0 1-.209-.853q0-.498.229-.892.23-.398.643-.627a1.9 1.9 0 0 1 .965-.226m.002.746a.92.92 0 0 0-.822.484 1 1 0 0 0-.122.495q.002.272.122.492a.93.93 0 0 0 .33.351.9.9 0 0 0 .482.129.92.92 0 0 0 .679-.291 1 1 0 0 0 .276-.688.98.98 0 0 0-.46-.838.9.9 0 0 0-.485-.134m4.651 4.511q-.613 0-1.054-.31-.437-.314-.673-.903-.234-.591-.234-1.424.002-.833.236-1.417.237-.586.674-.895.44-.308 1.051-.308t1.052.308q.44.309.673.895.237.586.237 1.417 0 .835-.237 1.427-.233.589-.673.9-.437.31-1.052.31m0-.778q.477 0 .753-.47.279-.472.279-1.389 0-.606-.127-1.019t-.358-.622a.78.78 0 0 0-.547-.211q-.475 0-.75.472-.276.47-.279 1.38a3.6 3.6 0 0 0 .122 1.024q.126.416.358.626t.549.209m4.669.778q-.613 0-1.054-.31-.437-.314-.673-.903-.234-.591-.234-1.424.002-.833.236-1.417.236-.586.674-.895.44-.308 1.051-.308t1.052.308q.44.309.673.895.237.586.236 1.417 0 .835-.236 1.427-.233.589-.673.9-.438.31-1.052.31m0-.778q.477 0 .753-.47.279-.472.279-1.389 0-.606-.127-1.019t-.358-.622a.78.78 0 0 0-.547-.211q-.474 0-.751.472-.275.47-.278 1.38a3.6 3.6 0 0 0 .122 1.024q.127.416.358.626t.549.209m2.837-4.41h1.129l1.511 3.689h.06l1.511-3.689h1.129v5.091h-.885v-3.497h-.048l-1.407 3.482h-.661l-1.407-3.49h-.047v3.505h-.885zm-12.01 9.273v.696h-2.195v-.696zm-1.653-.915h.9v3.585q0 .182.054.278a.3.3 0 0 0 .15.13.6.6 0 0 0 .203.034 1 1 0 0 0 .155-.012q.072-.012.109-.022l.152.703a1.7 1.7 0 0 1-.53.09 1.5 1.5 0 0 1-.609-.102.95.95 0 0 1-.43-.353 1.05 1.05 0 0 1-.154-.597zm4.03 4.808q-.56 0-.969-.246a1.67 1.67 0 0 1-.637-.689 2.26 2.26 0 0 1-.224-1.034q0-.591.224-1.036.226-.445.637-.691.41-.246.969-.246.56 0 .969.246.41.246.634.691.227.445.227 1.036 0 .592-.227 1.034-.223.443-.634.689a1.85 1.85 0 0 1-.969.246m.005-.721a.78.78 0 0 0 .507-.166q.204-.17.303-.453.102-.283.102-.631 0-.35-.102-.634a1 1 0 0 0-.303-.455.77.77 0 0 0-.507-.169.8.8 0 0 0-.517.169 1 1 0 0 0-.306.455q-.099.283-.099.634 0 .348.099.631.102.284.306.453.206.166.517.166m3.409-.552-.003-1.086h.144l1.372-1.534h1.052l-1.688 1.879h-.186zm-.821 1.198v-5.091h.9v5.091zm2.397 0-1.243-1.737.606-.634 1.713 2.371zm3.122.075q-.575 0-.992-.239a1.6 1.6 0 0 1-.639-.681 2.3 2.3 0 0 1-.224-1.041q0-.59.224-1.034.226-.448.631-.696a1.77 1.77 0 0 1 .953-.251q.353 0 .666.114.315.111.557.348.244.236.382.601.14.363.14.865v.276h-3.13v-.606h2.267a1 1 0 0 0-.112-.46.8.8 0 0 0-.306-.321.86.86 0 0 0-.452-.117.87.87 0 0 0-.485.135.9.9 0 0 0-.325.348 1 1 0 0 0-.117.47v.529q0 .333.122.572a.87.87 0 0 0 .34.363q.22.124.512.124.197 0 .356-.055a.8.8 0 0 0 .276-.166.7.7 0 0 0 .176-.271l.84.094a1.3 1.3 0 0 1-.303.582 1.5 1.5 0 0 1-.567.383 2.2 2.2 0 0 1-.79.134m3.359-2.312v2.237h-.9v-3.818h.86v.649h.045q.132-.321.42-.51.29-.188.718-.188.395 0 .689.169.295.168.457.489.164.32.162.778v2.431h-.9v-2.292q0-.382-.199-.599-.196-.216-.544-.216a.84.84 0 0 0-.421.105.7.7 0 0 0-.285.295 1 1 0 0 0-.102.47m6.383-.572-.82.09a.7.7 0 0 0-.122-.234.6.6 0 0 0-.229-.176.8.8 0 0 0-.353-.067.87.87 0 0 0-.472.121q-.189.123-.186.316a.33.33 0 0 0 .122.271q.126.105.417.172l.651.139q.543.117.806.37.266.253.268.664-.002.36-.211.636a1.36 1.36 0 0 1-.574.428 2.2 2.2 0 0 1-.845.154q-.702 0-1.129-.293a1.18 1.18 0 0 1-.51-.823l.878-.085a.62.62 0 0 0 .253.391.9.9 0 0 0 .505.131q.32 0 .515-.131.196-.132.196-.326 0-.164-.127-.271-.124-.107-.388-.164l-.651-.137q-.549-.114-.813-.385a.95.95 0 0 1-.261-.691.98.98 0 0 1 .192-.612q.196-.261.544-.402.35-.144.808-.144.671 0 1.056.285.389.287.48.773m-208.077 62.233v5.091h-.922v-4.193h-.03l-1.191.76v-.845l1.266-.813zm1.342 0h1.129l1.511 3.689h.06l1.511-3.689h1.129v5.091h-.885v-3.497h-.047l-1.407 3.482h-.661l-1.407-3.49h-.048v3.505h-.885zm9.947 1.273v.696h-2.195v-.696zm-1.653-.915h.9v3.585q0 .181.055.278a.3.3 0 0 0 .149.129.6.6 0 0 0 .204.035 1 1 0 0 0 .263-.035l.152.704a2 2 0 0 1-.206.054q-.132.03-.324.035a1.5 1.5 0 0 1-.609-.102.95.95 0 0 1-.43-.353 1.06 1.06 0 0 1-.154-.596zm4.03 4.808q-.56 0-.969-.246a1.67 1.67 0 0 1-.636-.689 2.25 2.25 0 0 1-.224-1.034q0-.592.224-1.037.225-.444.636-.691.41-.246.969-.246.56 0 .97.246t.634.691q.226.445.226 1.037t-.226 1.034a1.66 1.66 0 0 1-.634.689 1.85 1.85 0 0 1-.97.246m.005-.721a.77.77 0 0 0 .507-.167q.204-.168.304-.452.102-.284.102-.632 0-.35-.102-.633a1 1 0 0 0-.304-.455.76.76 0 0 0-.507-.169.8.8 0 0 0-.517.169 1 1 0 0 0-.305.455q-.1.283-.1.633 0 .348.1.632t.305.452q.207.167.517.167m3.409-.552-.003-1.086h.145l1.372-1.534h1.051l-1.688 1.879h-.186zm-.82 1.198v-5.091h.9v5.091zm2.396 0-1.243-1.738.607-.633 1.712 2.371zm3.122.075q-.574 0-.992-.239a1.63 1.63 0 0 1-.639-.681q-.223-.442-.223-1.042 0-.588.223-1.034.227-.447.632-.696.405-.25.952-.251.352 0 .666.114.316.112.557.349.243.235.383.601.14.363.139.865v.276h-3.13v-.606h2.267a1 1 0 0 0-.111-.46.8.8 0 0 0-.306-.321.86.86 0 0 0-.453-.117.9.9 0 0 0-.484.134.9.9 0 0 0-.326.348q-.114.215-.117.47v.53q0 .333.122.571a.87.87 0 0 0 .34.363q.219.125.513.125.196 0 .355-.055a.8.8 0 0 0 .276-.167.7.7 0 0 0 .176-.271l.841.095a1.3 1.3 0 0 1-.304.582 1.5 1.5 0 0 1-.566.382q-.346.135-.791.135m3.359-2.312v2.237h-.9v-3.818h.86v.649h.045q.132-.321.42-.51.29-.189.719-.189.395 0 .688.169.296.17.457.49.165.32.162.778v2.431h-.9v-2.292q0-.383-.199-.599-.196-.216-.544-.216a.84.84 0 0 0-.42.104.73.73 0 0 0-.286.296 1 1 0 0 0-.102.47m6.384-.572-.821.09a.66.66 0 0 0-.35-.411.85.85 0 0 0-.353-.067.87.87 0 0 0-.473.122q-.188.122-.186.316a.33.33 0 0 0 .122.271q.127.104.417.171l.652.139q.541.117.805.371.266.253.269.664-.002.36-.212.636a1.36 1.36 0 0 1-.574.428 2.2 2.2 0 0 1-.845.154q-.701 0-1.129-.294a1.18 1.18 0 0 1-.509-.823l.877-.084q.06.258.254.39a.9.9 0 0 0 .504.132q.321 0 .515-.132.196-.132.196-.325 0-.165-.126-.271-.125-.107-.388-.164l-.651-.137q-.55-.115-.813-.385a.95.95 0 0 1-.261-.691.98.98 0 0 1 .191-.612q.196-.26.544-.403.35-.144.808-.144.672 0 1.057.286.387.286.48.773"/><path fill="#3a362b" d="M124 203.233h197v12.723a3 3 0 0 1-3 3H124zm0 33.541h31v9.722a6 6 0 0 1-6 6h-19a6 6 0 0 1-6-6z"/><path fill="#3a362b" d="M124 236.774h31v12.722a3 3 0 0 1-3 3h-28zm0 35.637h9v12.722a3 3 0 0 1-3 3h-6z"/><mask id="c" fill="#fff"><path d="M408 236.774h110V301a6 6 0 0 1-6 6H408z"/></mask><path fill="#1c1a14" d="M408 236.774h110V301a6 6 0 0 1-6 6H408z"/><path fill="#fff" fill-opacity=".03" d="M407 235.774h111v2H409zM518 307H408zm-111 0v-71.226l2 2V307zm111-70.226V307z" mask="url(#c)"/><path fill="#ececec" fill-opacity=".9" d="M434.847 278.934q-1.097 0-1.96-.378-.858-.378-1.358-1.049a2.8 2.8 0 0 1-.533-1.566h1.673q.031.484.325.841.298.352.777.544.48.19 1.066.191.644 0 1.14-.223.5-.224.783-.624.282-.404.282-.932 0-.548-.282-.964-.278-.42-.815-.66-.533-.24-1.289-.24h-.922v-1.342h.922q.606 0 1.065-.219a1.74 1.74 0 0 0 .724-.607q.261-.394.261-.922 0-.506-.229-.878a1.53 1.53 0 0 0-.639-.592 2.1 2.1 0 0 0-.969-.213q-.534 0-.996.197a1.84 1.84 0 0 0-.746.554 1.42 1.42 0 0 0-.309.858h-1.593q.027-.884.522-1.556a3.4 3.4 0 0 1 1.321-1.049 4.3 4.3 0 0 1 1.822-.378q1.049 0 1.811.41.767.405 1.183 1.081.42.677.415 1.481.006.916-.511 1.556-.512.64-1.364.857v.085q1.087.166 1.683.863.602.699.597 1.732.005.9-.501 1.614-.5.713-1.369 1.123-.868.405-1.987.405m8.918 0q-1.097 0-1.96-.378-.858-.378-1.358-1.049a2.8 2.8 0 0 1-.533-1.566h1.673q.031.484.325.841.298.352.777.544.48.19 1.066.191.644 0 1.14-.223.5-.224.783-.624.282-.404.282-.932 0-.548-.282-.964-.278-.42-.815-.66-.534-.24-1.289-.24h-.922v-1.342h.922q.606 0 1.065-.219a1.74 1.74 0 0 0 .724-.607q.261-.394.261-.922 0-.506-.229-.878a1.53 1.53 0 0 0-.639-.592 2.1 2.1 0 0 0-.969-.213q-.534 0-.997.197a1.85 1.85 0 0 0-.745.554 1.42 1.42 0 0 0-.309.858h-1.593q.027-.884.522-1.556a3.4 3.4 0 0 1 1.321-1.049 4.3 4.3 0 0 1 1.822-.378q1.049 0 1.811.41.767.405 1.182 1.081.422.677.416 1.481.006.916-.511 1.556-.512.64-1.364.857v.085q1.086.166 1.683.863.602.699.597 1.732.004.9-.501 1.614-.5.713-1.369 1.123-.868.405-1.987.405m8.918.032q-1.262-.005-2.157-.666-.895-.66-1.369-1.923t-.474-3.041q0-1.774.474-3.031.48-1.257 1.374-1.918.9-.66 2.152-.66t2.147.666q.894.66 1.369 1.917.479 1.252.479 3.026 0 1.784-.474 3.047-.474 1.257-1.369 1.923-.895.66-2.152.66m0-1.422q1.108 0 1.731-1.081.629-1.081.629-3.127 0-1.359-.288-2.296-.282-.942-.815-1.427a1.78 1.78 0 0 0-1.257-.49q-1.103 0-1.731 1.086t-.634 3.127q0 1.364.282 2.306.288.937.815 1.423.528.479 1.268.479m7.662-9.668h1.87l2.85 4.959h.117l2.85-4.959h1.869l-3.957 6.626v4.283h-1.641v-4.283zm12.411 11.074q-1.209 0-2.083-.516a3.5 3.5 0 0 1-1.342-1.465q-.469-.949-.469-2.221 0-1.258.469-2.216a3.63 3.63 0 0 1 1.321-1.497q.852-.538 1.992-.538.692 0 1.343.229.65.229 1.166.719.517.49.815 1.273.298.778.298 1.891v.565h-6.503v-1.194h4.943q0-.629-.256-1.113a1.93 1.93 0 0 0-.719-.772 2 2 0 0 0-1.076-.283 2.1 2.1 0 0 0-1.172.331q-.495.324-.767.852a2.45 2.45 0 0 0-.266 1.135v.932q0 .82.287 1.395.294.576.815.879.522.299 1.22.299.453 0 .826-.128.372-.133.644-.394t.416-.645l1.507.272a2.7 2.7 0 0 1-.65 1.166 3.14 3.14 0 0 1-1.166.773q-.697.271-1.593.271m6.909.016q-.779 0-1.407-.287a2.4 2.4 0 0 1-.996-.847q-.362-.554-.362-1.359 0-.692.266-1.14.267-.447.719-.708a3.8 3.8 0 0 1 1.013-.394q.558-.133 1.139-.203l1.194-.138q.458-.058.665-.187.208-.127.208-.415v-.037q0-.698-.394-1.082-.389-.383-1.161-.383-.804 0-1.268.357-.458.351-.634.783l-1.497-.341q.267-.746.778-1.204a3.2 3.2 0 0 1 1.188-.671 4.6 4.6 0 0 1 1.412-.213q.489 0 1.038.117.555.112 1.034.415a2.3 2.3 0 0 1 .793.869q.309.559.309 1.454v5.433h-1.555v-1.118h-.064a2.3 2.3 0 0 1-.464.607 2.4 2.4 0 0 1-.793.495q-.484.197-1.161.197m.346-1.278q.66 0 1.129-.261.474-.26.719-.682.25-.426.251-.911v-1.055q-.085.086-.331.16-.24.069-.548.123-.31.048-.602.09l-.49.064a4 4 0 0 0-.847.197 1.5 1.5 0 0 0-.608.4q-.223.256-.223.682 0 .59.437.895.437.298 1.113.298m5.063 1.097v-8.182h1.539v1.3h.085q.224-.66.789-1.039a2.26 2.26 0 0 1 1.289-.383 7 7 0 0 1 .676.037v1.524a3 3 0 0 0-.341-.059 3 3 0 0 0-.49-.037q-.564 0-1.007.239a1.78 1.78 0 0 0-.948 1.604v4.996zm11.137-6.184-1.443.256a1.7 1.7 0 0 0-.288-.528 1.4 1.4 0 0 0-.522-.41q-.33-.16-.825-.16-.677 0-1.13.304-.452.298-.452.772 0 .41.303.661.304.25.98.41l1.3.298q1.13.26 1.683.805.554.543.554 1.411 0 .735-.426 1.31-.42.57-1.177.895-.751.325-1.742.325-1.375 0-2.242-.586-.868-.59-1.066-1.678l1.54-.234q.144.602.591.911.447.303 1.166.304.784 0 1.252-.325.47-.331.469-.805a.84.84 0 0 0-.288-.644q-.282-.262-.868-.394l-1.385-.304q-1.145-.261-1.694-.831-.543-.57-.543-1.444 0-.724.405-1.267.405-.544 1.118-.847.714-.309 1.636-.309 1.326 0 2.088.575.762.57 1.006 1.529"/><mask id="d" fill="#fff"><path d="M0 6a6 6 0 0 1 6-6h506a6 6 0 0 1 6 6v18H0z"/></mask><path fill="#13110b" d="M0 6a6 6 0 0 1 6-6h506a6 6 0 0 1 6 6v18H0z"/><path fill="#fff" fill-opacity=".09" d="M0 0h518zm518 24.64H0v-1.28h518zM0 24V0zM518 0v24z" mask="url(#d)"/><path fill="#edecec" fill-opacity=".2" d="M8 11.68a5 5 0 1 1 10 0 5 5 0 0 1-10 0m16 0a5 5 0 1 1 10 0 5 5 0 0 1-10 0m16 0a5 5 0 1 1 10 0 5 5 0 0 1-10 0"/></svg>