<svg xmlns="http://www.w3.org/2000/svg" width="510" height="357" fill="none" viewBox="0 0 510 357"><path fill="#14120b" d="M0 26h510v325a6 6 0 0 1-6 6H6a6 6 0 0 1-6-6z"/><path fill="#555" d="M20.3 50.68v-1.572q-1.128-.096-1.776-.72-.636-.636-.66-1.668h1.08q0 .588.348.96.36.372 1.008.456v-3.144l-.324-.096q-.9-.276-1.392-.924-.48-.648-.48-1.524 0-.96.588-1.584.6-.624 1.608-.72V38.56h.72v1.572q.996.096 1.596.72t.612 1.608h-1.08q0-.564-.3-.912-.288-.36-.828-.444v2.976l.48.156q.876.276 1.356.936t.48 1.548q0 .984-.636 1.632-.624.648-1.68.756v1.572zm-1.116-8.328q0 .54.288.936t.828.564v-2.748q-.528.084-.828.408-.288.324-.288.84m1.836 5.784q.588-.096.912-.456t.324-.936q0-.528-.288-.912-.276-.396-.804-.564l-.144-.048zm54.083-2.616v-.96h4.98v.96zm-6.06 0v-.96h4.98v.96zM16.76 137.16v-1.2h7.68v1.2zm7.195 0v-1.2h7.68v1.2zm7.196 0v-1.2h7.68v1.2zm7.195 0v-1.2h7.68v1.2zm7.195 0v-1.2h7.68v1.2zm7.196 0v-1.2h7.68v1.2zm7.195 0v-1.2h7.68v1.2zm7.195 0v-1.2h7.68v1.2zm7.196 0v-1.2h7.68v1.2zm7.195 0v-1.2h7.68v1.2zm7.195 0v-1.2h7.68v1.2zm7.195 0v-1.2h7.68v1.2zm7.196 0v-1.2h7.68v1.2zm7.195 0v-1.2h7.68v1.2zm7.195 0v-1.2h7.68v1.2zm7.196 0v-1.2h7.68v1.2zm7.195 0v-1.2h7.68v1.2zm7.195 0v-1.2h7.68v1.2zm7.196 0v-1.2h7.68v1.2zm7.195 0v-1.2h7.68v1.2zm7.195 0v-1.2h7.68v1.2zm7.196 0v-1.2h7.68v1.2zm7.195 0v-1.2h7.68v1.2zm7.195 0v-1.2h7.68v1.2zm7.195 0v-1.2h7.681v1.2zm7.196 0v-1.2h7.68v1.2zm7.195 0v-1.2h7.68v1.2zm7.195 0v-1.2h7.68v1.2zm7.196 0v-1.2h7.68v1.2zm7.195 0v-1.2h7.68v1.2zm7.195 0v-1.2h7.68v1.2zm7.196 0v-1.2h7.68v1.2zm7.195 0v-1.2h7.68v1.2zm7.195 0v-1.2h7.68v1.2zm7.196 0v-1.2h7.68v1.2zm7.195 0v-1.2h7.68v1.2zm-251.836 105v-1.2h7.68v1.2zm7.195 0v-1.2h7.68v1.2zm7.196 0v-1.2h7.68v1.2zm7.195 0v-1.2h7.68v1.2zm7.195 0v-1.2h7.68v1.2zm7.196 0v-1.2h7.68v1.2zm7.195 0v-1.2h7.68v1.2zm7.195 0v-1.2h7.68v1.2zm7.196 0v-1.2h7.68v1.2zm7.195 0v-1.2h7.68v1.2zm7.195 0v-1.2h7.68v1.2zm7.195 0v-1.2h7.68v1.2zm7.196 0v-1.2h7.68v1.2zm7.195 0v-1.2h7.68v1.2zm7.195 0v-1.2h7.68v1.2zm7.196 0v-1.2h7.68v1.2zm7.195 0v-1.2h7.68v1.2zm7.195 0v-1.2h7.68v1.2zm7.196 0v-1.2h7.68v1.2zm7.195 0v-1.2h7.68v1.2zm7.195 0v-1.2h7.68v1.2zm7.196 0v-1.2h7.68v1.2zm7.195 0v-1.2h7.68v1.2zm7.195 0v-1.2h7.68v1.2zm7.195 0v-1.2h7.681v1.2zm7.196 0v-1.2h7.68v1.2zm7.195 0v-1.2h7.68v1.2zm7.195 0v-1.2h7.68v1.2zm7.196 0v-1.2h7.68v1.2zm7.195 0v-1.2h7.68v1.2zm7.195 0v-1.2h7.68v1.2zm7.196 0v-1.2h7.68v1.2zm7.195 0v-1.2h7.68v1.2zm7.195 0v-1.2h7.68v1.2zm7.196 0v-1.2h7.68v1.2zm7.195 0v-1.2h7.68v1.2z"/><path fill="#e8e8f0" d="M32.459 49v-8.76h1.296v4.812h1.164l1.704-2.652h1.452l-2.028 3.168L38.17 49h-1.488l-1.752-2.832h-1.176V49zm9.727.108q-1.224 0-1.956-.708-.72-.708-.72-1.932v-1.536q0-1.236.72-1.932.72-.708 1.956-.708t1.956.708q.72.696.72 1.932v1.536q0 1.224-.732 1.932-.72.708-1.944.708m0-1.14q.648 0 1.008-.36.372-.372.372-1.056v-1.704q0-.684-.372-1.044-.36-.372-1.008-.372t-1.02.372q-.36.36-.36 1.044v1.704q0 .684.36 1.056.372.36 1.02.36m6.931 1.14q-1.14 0-1.788-.516t-.648-1.44h1.284q0 .42.3.66.3.228.852.228h.528q.564 0 .876-.228.312-.24.312-.672 0-.756-.804-.864l-1.74-.24q-.732-.096-1.128-.576-.396-.492-.396-1.272 0-.9.6-1.392.612-.504 1.728-.504h.54q1.032 0 1.668.492.648.492.684 1.296H50.69a.69.69 0 0 0-.312-.528q-.276-.216-.744-.216h-.54q-.516 0-.804.228a.74.74 0 0 0-.276.6q0 .624.684.72l1.632.216q1.764.24 1.764 2.028 0 .948-.636 1.464t-1.812.516zm8.12-.108q-.876 0-1.392-.504t-.516-1.368v-3.552h-1.86V42.4h1.86v-1.86h1.296v1.86h2.664v1.176h-2.664v3.54q0 .312.18.516.18.192.492.192h1.932V49zm75.908-4.92v-.96h5.16v.96zm0 2.88V46h5.16v.96z"/><path fill="#eab308" d="M85.454 49.12q-1.2 0-1.92-.672t-.72-1.848v-1.8q0-1.176.72-1.848t1.92-.672q1.14 0 1.836.612.708.612.744 1.668h-1.08q-.036-.636-.432-.972-.396-.348-1.068-.348-.708 0-1.14.408-.42.396-.42 1.14V46.6q0 .744.42 1.152.432.408 1.14.408.672 0 1.068-.348t.432-.972h1.08q-.036 1.056-.744 1.668-.696.612-1.836.612m8.06-.12q-.877 0-1.405-.504-.516-.516-.516-1.356v-5.916h-2.28v-.984h3.36v6.9q0 .408.228.648.228.228.612.228h2.04V49zm6.222.12q-1.14 0-1.824-.672-.684-.684-.684-1.848v-4.2h1.08v4.2q0 .72.384 1.152.384.42 1.044.42.672 0 1.056-.42.396-.432.396-1.152v-4.2h1.08v4.2q0 1.164-.696 1.848-.696.672-1.836.672m6.944-.024q-1.104 0-1.716-.492-.6-.504-.6-1.416h1.08q0 .456.324.72.324.252.912.252h.528q.6 0 .924-.264.336-.264.336-.744 0-.852-.78-.96l-1.824-.264q-.672-.096-1.044-.552-.372-.468-.372-1.224 0-.864.588-1.356.6-.492 1.644-.492h.528q.96 0 1.56.48.612.468.66 1.236h-1.092a.76.76 0 0 0-.336-.576q-.3-.228-.792-.228h-.528q-.552 0-.864.252a.83.83 0 0 0-.312.684q0 .696.636.792l1.704.24q1.68.24 1.68 1.968 0 .924-.612 1.44-.6.504-1.704.504zm8.119-.096q-.816 0-1.308-.468-.492-.48-.492-1.272v-3.876h-1.896V42.4h1.896v-1.86h1.08v1.86h2.7v.984h-2.7v3.876a.8.8 0 0 0 .192.552.7.7 0 0 0 .528.204h1.92V49zm6.535.12q-1.164 0-1.884-.696-.708-.708-.708-1.944v-1.56q0-1.236.708-1.932.72-.708 1.884-.708.78 0 1.356.312.588.312.912.876t.324 1.332v1.176h-4.128v.624q0 .732.42 1.164.42.42 1.116.42.6 0 .984-.228.396-.24.48-.636h1.08q-.108.828-.804 1.32-.696.48-1.74.48m-1.536-3.984h3.072V44.8q0-.78-.408-1.2-.396-.432-1.128-.432t-1.14.432q-.396.42-.396 1.2zM126.274 49v-6.6h1.08v1.26h.024q.084-.636.54-1.008t1.224-.372q1.032 0 1.584.624.564.612.564 1.752v.564h-1.08v-.564q0-1.44-1.404-1.44-.708 0-1.08.408t-.372 1.176V49z"/><path fill="#22c55e" d="M140.424 51.16V42.4h1.08v1.26h.012q.084-.648.564-1.008.48-.372 1.224-.372.996 0 1.584.66.588.648.588 1.788v1.932q0 1.14-.588 1.8t-1.584.66q-.744 0-1.224-.372a1.47 1.47 0 0 1-.564-1.008h-.036l.024 1.5v1.92zm2.52-2.976q.684 0 1.068-.36t.384-1.164v-1.92q0-.816-.384-1.164-.384-.36-1.068-.36-.66 0-1.056.42-.384.42-.384 1.164v1.8q0 .744.384 1.164.396.42 1.056.42m4.916.816v-6.6h1.08v1.26h.024q.084-.636.54-1.008t1.224-.372q1.032 0 1.584.624.564.612.564 1.752v.564h-1.08v-.564q0-1.44-1.404-1.44-.708 0-1.08.408t-.372 1.176V49zm9.451.096q-1.188 0-1.896-.696-.696-.696-.696-1.944v-1.512q0-1.26.696-1.944.696-.696 1.896-.696t1.896.696q.696.684.696 1.944v1.512q0 1.248-.708 1.944-.696.696-1.884.696m0-.96q.708 0 1.104-.396.408-.396.408-1.164v-1.752q0-.768-.408-1.164-.396-.396-1.104-.396-.696 0-1.104.396t-.408 1.164v1.752q0 .768.408 1.164t1.104.396m6.811.984q-.984 0-1.584-.66-.588-.66-.588-1.788V44.74q0-1.14.588-1.8t1.584-.66q.744 0 1.224.372.492.372.588 1.008h.012l-.024-1.5v-1.92h1.08V49h-1.08v-1.26h-.012q-.084.648-.564 1.02-.48.36-1.224.36m.36-.936q.672 0 1.056-.42t.384-1.164v-1.8q0-.744-.384-1.164t-1.056-.42q-.684 0-1.068.36-.384.348-.384 1.164v1.92q0 .804.384 1.164t1.068.36m5.3-2.664v-.96h3.84v.96zm9.211 3.6q-1.2 0-1.92-.672t-.72-1.848v-1.8q0-1.176.72-1.848t1.92-.672q1.14 0 1.836.612.708.612.744 1.668h-1.08q-.036-.636-.432-.972-.396-.348-1.068-.348-.708 0-1.14.408-.42.396-.42 1.14V46.6q0 .744.42 1.152.432.408 1.14.408.672 0 1.068-.348t.432-.972h1.08q-.036 1.056-.744 1.668-.696.612-1.836.612m8.059-.12q-.876 0-1.404-.504-.516-.516-.516-1.356v-5.916h-2.28v-.984h3.36v6.9q0 .408.228.648.228.228.612.228h2.04V49zm6.224.12q-1.14 0-1.825-.672-.683-.684-.683-1.848v-4.2h1.08v4.2q0 .72.384 1.152.384.42 1.044.42.672 0 1.056-.42.396-.432.396-1.152v-4.2h1.08v4.2q0 1.164-.696 1.848-.696.672-1.836.672m6.943-.024q-1.104 0-1.716-.492-.6-.504-.6-1.416h1.08q0 .456.324.72.324.252.912.252h.528q.6 0 .924-.264.336-.264.336-.744 0-.852-.78-.96l-1.824-.264q-.672-.096-1.044-.552-.372-.468-.372-1.224 0-.864.588-1.356.6-.492 1.644-.492h.528q.96 0 1.56.48.612.468.66 1.236h-1.092a.76.76 0 0 0-.336-.576q-.3-.228-.792-.228h-.528q-.552 0-.864.252a.83.83 0 0 0-.312.684q0 .696.636.792l1.704.24q1.68.24 1.68 1.968 0 .924-.612 1.44-.6.504-1.704.504zm8.119-.096q-.816 0-1.308-.468-.492-.48-.492-1.272v-3.876h-1.896V42.4h1.896v-1.86h1.08v1.86h2.7v.984h-2.7v3.876a.8.8 0 0 0 .192.552.7.7 0 0 0 .528.204h1.92V49zm6.535.12q-1.164 0-1.884-.696-.708-.708-.708-1.944v-1.56q0-1.236.708-1.932.72-.708 1.884-.708.78 0 1.356.312.588.312.912.876t.324 1.332v1.176h-4.128v.624q0 .732.42 1.164.42.42 1.116.42.6 0 .984-.228.396-.24.48-.636h1.08q-.108.828-.804 1.32-.696.48-1.74.48m-1.536-3.984h3.072V44.8q0-.78-.408-1.2-.396-.432-1.128-.432t-1.14.432q-.396.42-.396 1.2zM219.813 49v-6.6h1.08v1.26h.024q.084-.636.54-1.008t1.224-.372q1.032 0 1.584.624.564.612.564 1.752v.564h-1.08v-.564q0-1.44-1.404-1.44-.708 0-1.08.408t-.372 1.176V49z"/><path fill="#ececec" d="M37.014 87v-8.727h5.411v1.133H38.33v2.66h3.708v1.129H38.33V87zm9.205.132q-.92 0-1.606-.422a2.85 2.85 0 0 1-1.066-1.18q-.38-.759-.379-1.773 0-1.019.38-1.781a2.84 2.84 0 0 1 1.065-1.185q.685-.422 1.606-.422t1.607.422 1.065 1.185.38 1.781q0 1.014-.38 1.773t-1.065 1.18-1.607.422m.004-1.07q.597 0 .989-.315.391-.315.58-.84.19-.524.191-1.154 0-.627-.191-1.15a1.87 1.87 0 0 0-.58-.849q-.391-.32-.989-.32-.6 0-.997.32a1.9 1.9 0 0 0-.584.848q-.187.525-.187 1.15 0 .631.187 1.156.192.524.584.84.397.314.997.314m8.616-1.776v-3.832h1.278V87h-1.253v-1.133h-.068q-.226.523-.724.873-.495.345-1.232.345-.63 0-1.116-.277a1.95 1.95 0 0 1-.759-.83q-.273-.55-.273-1.36v-4.163h1.275v4.01q0 .668.37 1.065.371.396.963.396.359 0 .712-.179a1.5 1.5 0 0 0 .592-.541q.24-.363.235-.92m4.264-1.172V87H57.83v-6.546h1.223v1.066h.081a1.87 1.87 0 0 1 .708-.835q.485-.315 1.223-.316.669 0 1.171.282.504.276.78.826.277.55.277 1.36V87h-1.274v-4.01q0-.711-.37-1.112-.371-.405-1.02-.405-.442 0-.787.192a1.4 1.4 0 0 0-.542.562q-.195.367-.196.887m8.348 4.014q-.793 0-1.414-.405-.618-.409-.972-1.163-.35-.76-.35-1.82t.354-1.815q.359-.755.98-1.155.623-.4 1.41-.4.61 0 .981.204.375.2.58.469.209.268.323.473h.077v-3.243h1.274V87H69.45v-1.019h-.107q-.114.21-.332.478a1.85 1.85 0 0 1-.588.469q-.375.2-.972.2m.282-1.087q.55 0 .929-.29.382-.294.58-.814.2-.52.2-1.21 0-.681-.197-1.193a1.75 1.75 0 0 0-.575-.797q-.38-.285-.937-.285-.576 0-.96.298-.382.298-.579.814a3.3 3.3 0 0 0-.192 1.163q0 .657.197 1.18.195.525.58.832.387.302.954.302M75.67 87v-.954l2.954-3.06q.473-.5.78-.874.31-.38.464-.72.153-.341.153-.724 0-.435-.204-.75a1.34 1.34 0 0 0-.558-.49 1.8 1.8 0 0 0-.797-.175q-.469 0-.819.192a1.3 1.3 0 0 0-.536.54 1.7 1.7 0 0 0-.188.819h-1.257q0-.797.367-1.394.366-.596 1.005-.924.639-.333 1.453-.333.823 0 1.45.328.63.324.983.887.354.559.354 1.261 0 .486-.183.95-.18.465-.626 1.036-.448.567-1.245 1.377l-1.734 1.815v.064h3.929V87zm13.31.132q-.921 0-1.607-.422a2.85 2.85 0 0 1-1.065-1.18q-.38-.759-.38-1.773 0-1.019.38-1.781a2.84 2.84 0 0 1 1.065-1.185q.686-.422 1.607-.422t1.606.422 1.066 1.185.379 1.781q0 1.014-.38 1.773-.378.758-1.065 1.18t-1.606.422m.004-1.07q.596 0 .989-.315.391-.315.58-.84a3.3 3.3 0 0 0 .191-1.154q0-.627-.192-1.15a1.87 1.87 0 0 0-.58-.849q-.39-.32-.988-.32-.6 0-.997.32a1.9 1.9 0 0 0-.584.848q-.187.525-.187 1.15 0 .631.187 1.156.192.524.584.84.397.314.997.314m9.846-5.608L96.457 87h-1.363l-2.378-6.546h1.368l1.657 5.038h.069l1.653-5.038zm3.796 6.678q-.968 0-1.666-.413a2.8 2.8 0 0 1-1.074-1.172q-.375-.759-.375-1.777 0-1.005.375-1.773.38-.766 1.057-1.197.681-.43 1.593-.43.555 0 1.074.183.52.183.933.575t.652 1.018q.239.623.239 1.513v.452h-5.203v-.955h3.954q0-.503-.204-.89a1.55 1.55 0 0 0-.575-.618 1.6 1.6 0 0 0-.861-.226q-.537 0-.938.264-.396.26-.613.682a2 2 0 0 0-.213.908v.745q0 .657.23 1.117.234.46.652.703.417.239.976.239.362 0 .66-.103a1.37 1.37 0 0 0 .848-.831l1.206.218q-.145.532-.52.933-.37.396-.933.618a3.5 3.5 0 0 1-1.274.217m4.222-.132v-6.546h1.231v1.04h.068q.18-.528.631-.83a1.8 1.8 0 0 1 1.031-.308 6 6 0 0 1 .542.03v1.22a2 2 0 0 0-.273-.048 3 3 0 0 0-.392-.03q-.452 0-.806.192a1.43 1.43 0 0 0-.758 1.283V87zm8.075-4.24v1.104h-3.869V82.76zm1.698 6.694v-9h1.244v1.062h.107a3.5 3.5 0 0 1 .32-.473q.208-.27.579-.47.37-.203.98-.204.793 0 1.415.4.622.402.976 1.156.358.755.358 1.815t-.354 1.82q-.353.753-.971 1.163-.619.405-1.411.405-.597 0-.976-.2a1.85 1.85 0 0 1-.588-.47 3.6 3.6 0 0 1-.328-.477h-.077v3.474zm1.249-5.727q0 .69.2 1.21t.58.814q.378.29.929.29.57 0 .954-.302.384-.307.58-.831.2-.525.2-1.18 0-.648-.196-1.164a1.8 1.8 0 0 0-.58-.814q-.383-.298-.958-.298-.555 0-.938.285-.38.285-.575.797-.196.512-.196 1.193M124.028 87v-6.546h1.232v1.04h.068q.179-.528.631-.83a1.8 1.8 0 0 1 1.031-.308 5 5 0 0 1 .541.03v1.22a2 2 0 0 0-.272-.048 3 3 0 0 0-.393-.03q-.451 0-.805.192a1.42 1.42 0 0 0-.758 1.283V87zm7.129.132q-.921 0-1.607-.422a2.85 2.85 0 0 1-1.065-1.18q-.38-.759-.38-1.773 0-1.019.38-1.781a2.84 2.84 0 0 1 1.065-1.185q.686-.422 1.607-.422t1.606.422q.687.422 1.065 1.185.38.762.38 1.781 0 1.014-.38 1.773-.378.758-1.065 1.18t-1.606.422m.004-1.07q.596 0 .989-.315.391-.315.579-.84.192-.524.192-1.154 0-.627-.192-1.15a1.9 1.9 0 0 0-.579-.849q-.393-.32-.989-.32-.601 0-.997.32a1.9 1.9 0 0 0-.584.848q-.188.525-.188 1.15 0 .631.188 1.156.191.524.584.84.396.314.997.314m9.846-5.608L138.633 87h-1.363l-2.378-6.546h1.368l1.657 5.038h.068l1.654-5.038zM142.204 87v-6.546h1.274V87zm.644-7.555a.8.8 0 0 1-.571-.222.72.72 0 0 1-.235-.537q0-.316.235-.537a.8.8 0 0 1 .571-.226q.332 0 .566.226.24.222.239.537a.71.71 0 0 1-.239.537.8.8 0 0 1-.566.222m7.249 2.608-1.155.204a1.4 1.4 0 0 0-.23-.422 1.14 1.14 0 0 0-.417-.328 1.5 1.5 0 0 0-.661-.128q-.542 0-.903.243-.363.24-.362.618 0 .328.243.529.242.2.784.328l1.039.238q.904.21 1.347.644t.443 1.129q0 .588-.341 1.048-.336.456-.942.716-.6.26-1.393.26-1.1 0-1.794-.469-.695-.472-.852-1.342l1.231-.187q.116.48.473.728.359.243.933.243.627 0 1.002-.26.375-.264.375-.643a.67.67 0 0 0-.23-.516q-.226-.21-.695-.315l-1.108-.243q-.916-.21-1.355-.665-.435-.456-.435-1.155 0-.579.324-1.014.325-.435.895-.677a3.3 3.3 0 0 1 1.308-.248q1.062 0 1.671.46.61.457.805 1.224M151.626 87v-6.546h1.274V87zm.644-7.555a.8.8 0 0 1-.571-.222.72.72 0 0 1-.235-.537q0-.316.235-.537a.8.8 0 0 1 .571-.226q.332 0 .566.226a.7.7 0 0 1 .239.537q0 .31-.239.537a.8.8 0 0 1-.566.222m5.101 7.687q-.92 0-1.606-.422a2.84 2.84 0 0 1-1.065-1.18q-.38-.759-.38-1.773 0-1.019.38-1.781a2.84 2.84 0 0 1 1.065-1.185q.686-.422 1.606-.422.921 0 1.607.422t1.065 1.185q.38.762.38 1.781 0 1.014-.38 1.773t-1.065 1.18q-.686.422-1.607.422m.005-1.07q.596 0 .988-.315.393-.315.58-.84.192-.524.192-1.154 0-.627-.192-1.15a1.87 1.87 0 0 0-.58-.849q-.392-.32-.988-.32-.601 0-.997.32a1.9 1.9 0 0 0-.584.848q-.188.525-.188 1.15 0 .631.188 1.156.191.524.584.84.396.314.997.314m5.743-2.948V87h-1.274v-6.546h1.223v1.066h.081q.225-.52.707-.835.486-.315 1.223-.316.67 0 1.172.282.503.276.78.826t.277 1.36V87h-1.274v-4.01q0-.711-.371-1.112-.371-.405-1.018-.405-.444 0-.789.192a1.4 1.4 0 0 0-.541.562q-.196.367-.196.887m8.719 4.018q-.968 0-1.666-.413a2.8 2.8 0 0 1-1.074-1.172q-.375-.759-.375-1.777 0-1.005.375-1.773.379-.766 1.056-1.197.682-.43 1.594-.43.554 0 1.074.183t.933.575q.414.391.652 1.018.239.623.239 1.513v.452h-5.203v-.955h3.954q0-.503-.204-.89a1.55 1.55 0 0 0-.575-.618 1.6 1.6 0 0 0-.861-.226q-.537 0-.938.264-.397.26-.613.682a2 2 0 0 0-.213.908v.745q0 .657.23 1.117.234.46.652.703.417.239.975.239.363 0 .661-.103a1.37 1.37 0 0 0 .848-.831l1.206.218q-.145.532-.52.933-.37.396-.933.618a3.5 3.5 0 0 1-1.274.217m6.672-.004q-.792 0-1.415-.405-.618-.409-.971-1.163-.35-.76-.35-1.82t.354-1.815q.357-.755.98-1.155t1.41-.4q.61 0 .981.204.375.2.579.469.209.268.324.473h.077v-3.243h1.274V87h-1.244v-1.019h-.107q-.116.21-.332.478a1.85 1.85 0 0 1-.588.469q-.375.2-.972.2m.281-1.087q.55 0 .929-.29.384-.294.58-.814.2-.52.2-1.21 0-.681-.196-1.193a1.75 1.75 0 0 0-.575-.797q-.38-.285-.938-.285-.575 0-.959.298a1.83 1.83 0 0 0-.579.814 3.3 3.3 0 0 0-.192 1.163q0 .657.196 1.18.196.525.58.832.387.302.954.302m9.375.959-1.926-6.546h1.317l1.282 4.807h.064l1.287-4.806h1.317l1.279 4.785h.063l1.275-4.785h1.316L193.518 87h-1.299l-1.33-4.726h-.098L189.462 87zm11.041.132q-.92 0-1.606-.422a2.83 2.83 0 0 1-1.065-1.18q-.38-.759-.38-1.773 0-1.019.38-1.781a2.83 2.83 0 0 1 1.065-1.185q.686-.422 1.606-.422.921 0 1.607.422t1.065 1.185q.38.762.38 1.781 0 1.014-.38 1.773t-1.065 1.18q-.686.422-1.607.422m.005-1.07q.596 0 .988-.315.393-.315.58-.84.192-.524.192-1.154 0-.627-.192-1.15a1.87 1.87 0 0 0-.58-.849q-.392-.32-.988-.32-.601 0-.998.32a1.9 1.9 0 0 0-.583.848q-.188.525-.188 1.15 0 .631.188 1.156.192.524.583.84.397.314.998.314m4.469.938v-6.546h1.231v1.04h.068q.18-.528.631-.83a1.8 1.8 0 0 1 1.031-.308 6 6 0 0 1 .542.03v1.22a2 2 0 0 0-.273-.048 3 3 0 0 0-.392-.03q-.452 0-.806.192a1.43 1.43 0 0 0-.758 1.283V87zm5.777-2.22-.008-1.556h.221l2.608-2.77h1.526l-2.975 3.154h-.2zM208.286 87v-8.727h1.274V87zm4.134 0-2.344-3.11.878-.891 3.03 4.001zm3.82-8.727V87h-1.274v-8.727zm4.471 8.86q-.92 0-1.606-.423a2.84 2.84 0 0 1-1.066-1.18q-.379-.759-.379-1.773 0-1.019.379-1.781a2.84 2.84 0 0 1 1.066-1.185q.686-.422 1.606-.422t1.607.422 1.065 1.185q.38.762.379 1.781 0 1.014-.379 1.773-.38.758-1.065 1.18-.686.422-1.607.422m.005-1.07q.596 0 .988-.316.393-.315.58-.84.191-.524.191-1.154 0-.627-.191-1.15a1.87 1.87 0 0 0-.58-.849q-.392-.32-.988-.32-.601 0-.998.32a1.9 1.9 0 0 0-.583.848q-.188.525-.188 1.15 0 .631.188 1.156.191.524.583.84.397.314.998.314m6.373 1.082q-.621 0-1.125-.23a1.9 1.9 0 0 1-.796-.678q-.29-.442-.29-1.086 0-.555.213-.912.213-.359.575-.567a3 3 0 0 1 .81-.316q.447-.105.912-.161l.954-.111q.367-.047.533-.15.166-.1.166-.332v-.03q0-.558-.315-.865-.312-.306-.929-.306-.643 0-1.014.285-.368.281-.507.626l-1.198-.272a2.3 2.3 0 0 1 .622-.963q.414-.371.951-.537.537-.17 1.129-.17.392 0 .831.093.443.09.827.333.387.242.634.694.248.447.248 1.163V87h-1.245v-.895h-.051a1.8 1.8 0 0 1-.371.486q-.246.239-.635.396a2.5 2.5 0 0 1-.929.158m.277-1.023q.53 0 .904-.209.379-.208.575-.545.2-.34.2-.729v-.843q-.067.067-.264.127-.192.056-.439.098-.246.039-.481.073l-.392.05a3.2 3.2 0 0 0-.678.159q-.302.11-.486.32-.179.203-.179.545 0 .473.35.715.35.24.89.24m7.101 1.006q-.792 0-1.415-.405-.618-.409-.971-1.163-.35-.76-.35-1.82t.354-1.815q.358-.755.98-1.155t1.41-.4q.61 0 .981.204.375.2.579.469.209.268.324.473h.077v-3.243h1.274V87h-1.244v-1.019h-.107q-.115.21-.332.478a1.85 1.85 0 0 1-.588.469q-.375.2-.972.2m.281-1.087q.55 0 .929-.29.384-.294.58-.814.2-.52.2-1.21 0-.681-.196-1.193a1.75 1.75 0 0 0-.575-.797q-.38-.285-.938-.285-.575 0-.959.298a1.83 1.83 0 0 0-.579.814 3.3 3.3 0 0 0-.192 1.163q0 .657.196 1.18.196.525.58.832.387.302.954.302m9.685-3.988-1.155.204a1.4 1.4 0 0 0-.23-.422 1.14 1.14 0 0 0-.417-.328 1.5 1.5 0 0 0-.661-.128q-.542 0-.903.243-.363.24-.362.618 0 .328.242.529.243.2.785.328l1.039.238q.904.21 1.347.644t.443 1.129q0 .588-.341 1.048-.336.456-.942.716-.6.26-1.393.26-1.1 0-1.794-.469-.695-.472-.852-1.342l1.231-.187q.116.48.473.728.359.243.933.243.627 0 1.002-.26.375-.264.375-.643a.67.67 0 0 0-.23-.516q-.226-.21-.695-.315l-1.108-.243q-.916-.21-1.355-.665-.435-.456-.435-1.155 0-.579.324-1.014a2.1 2.1 0 0 1 .895-.677 3.3 3.3 0 0 1 1.308-.248q1.062 0 1.671.46.61.457.805 1.224M19.761 124.145q-.622 0-1.125-.23a1.9 1.9 0 0 1-.796-.678q-.29-.442-.29-1.086 0-.555.213-.912.213-.359.575-.567.362-.209.81-.315a8 8 0 0 1 .912-.162l.954-.111q.367-.047.533-.149.165-.103.166-.333v-.03q0-.558-.315-.865-.311-.306-.93-.306-.642 0-1.014.285-.366.281-.507.626l-1.197-.272q.214-.597.622-.963.414-.37.95-.537a3.7 3.7 0 0 1 1.13-.171q.392 0 .83.094.444.09.827.332.388.243.635.695.247.447.247 1.163V124h-1.244v-.895h-.051a1.8 1.8 0 0 1-.37.486 2 2 0 0 1-.636.396 2.5 2.5 0 0 1-.929.158m.277-1.023q.53 0 .904-.209.379-.209.575-.545.2-.34.2-.729v-.844a.65.65 0 0 1-.264.128q-.192.056-.439.098l-.481.073-.392.051a3 3 0 0 0-.678.158q-.303.11-.486.319-.179.205-.179.546 0 .473.35.716.35.238.89.238m8.797-1.836v-3.831h1.278V124H28.86v-1.134h-.068q-.226.525-.724.874-.494.345-1.232.345a2.2 2.2 0 0 1-1.116-.277 1.94 1.94 0 0 1-.759-.831q-.272-.549-.272-1.359v-4.163h1.274v4.009q0 .67.37 1.066.372.396.964.396.357 0 .711-.179a1.5 1.5 0 0 0 .593-.541q.238-.363.234-.92m6.046-3.831v1.022h-3.576v-1.022zm-2.617-1.569h1.274v6.192q0 .37.111.558.111.184.286.252.178.064.387.064.154 0 .269-.022l.179-.034.23 1.053a2.5 2.5 0 0 1-.827.136 2.2 2.2 0 0 1-.937-.179 1.6 1.6 0 0 1-.703-.579q-.27-.393-.269-.985zm5.44 4.228V124h-1.273v-8.727h1.257v3.247h.08q.231-.528.704-.84.472-.31 1.236-.311.673 0 1.176.277.507.278.784.827.282.546.281 1.364V124h-1.274v-4.01q0-.72-.37-1.116-.372-.4-1.032-.401-.45 0-.81.192a1.4 1.4 0 0 0-.558.562q-.2.367-.2.887m9.802-.354v1.104h-3.87v-1.104zm6.603-.707-1.155.204a1.4 1.4 0 0 0-.23-.422 1.14 1.14 0 0 0-.417-.328 1.5 1.5 0 0 0-.661-.128q-.54 0-.904.243-.361.239-.362.618a.65.65 0 0 0 .243.528q.243.2.784.329l1.04.238q.903.209 1.347.644.443.434.443 1.129 0 .588-.341 1.048-.336.456-.942.716-.6.26-1.393.26-1.1 0-1.794-.469-.695-.472-.853-1.342l1.232-.187q.115.481.473.728.358.243.933.243.627 0 1.002-.26.375-.264.375-.643a.67.67 0 0 0-.23-.516q-.227-.209-.695-.315l-1.108-.243q-.915-.209-1.355-.665-.435-.456-.435-1.155 0-.579.324-1.014a2.1 2.1 0 0 1 .895-.678 3.3 3.3 0 0 1 1.308-.247q1.061 0 1.67.461.61.456.806 1.223m4.35 5.079q-.967 0-1.666-.413a2.8 2.8 0 0 1-1.074-1.172q-.375-.759-.375-1.777 0-1.006.375-1.773.38-.766 1.057-1.197.681-.43 1.593-.431.555 0 1.074.184.52.183.933.575t.652 1.018q.24.622.239 1.513v.452h-5.203v-.955h3.955q0-.503-.205-.89a1.54 1.54 0 0 0-.575-.618 1.6 1.6 0 0 0-.861-.226q-.536 0-.938.264a1.8 1.8 0 0 0-.613.682 2 2 0 0 0-.213.908v.745q0 .657.23 1.117.234.46.652.703.417.239.976.239.361 0 .66-.103.298-.106.516-.315.217-.209.332-.516l1.206.218q-.145.532-.52.933-.37.396-.933.618a3.5 3.5 0 0 1-1.274.217m4.22-.132v-6.545h1.231v1.039h.069q.178-.528.63-.831a1.8 1.8 0 0 1 1.031-.306 5 5 0 0 1 .542.029v1.219a2 2 0 0 0-.273-.047q-.195-.03-.392-.03-.452 0-.806.192a1.43 1.43 0 0 0-.758 1.283V124zm10.404-6.545L70.71 124h-1.363l-2.378-6.545h1.368l1.657 5.036h.069l1.653-5.036zM74.282 124v-6.545h1.275V124zm.644-7.555a.8.8 0 0 1-.571-.222.72.72 0 0 1-.235-.537q0-.315.235-.537a.8.8 0 0 1 .57-.226.8.8 0 0 1 .568.226q.238.222.238.537 0 .31-.238.537a.8.8 0 0 1-.567.222m5.102 7.687q-.951 0-1.637-.43a2.85 2.85 0 0 1-1.048-1.198q-.366-.762-.366-1.747 0-.997.375-1.76.375-.766 1.056-1.197.682-.43 1.607-.431.745 0 1.33.277.584.273.941.767.363.495.43 1.155h-1.24a1.5 1.5 0 0 0-.468-.792q-.363-.333-.972-.333-.533 0-.933.281a1.8 1.8 0 0 0-.618.793q-.222.511-.222 1.21 0 .716.218 1.236t.614.805q.4.286.941.286.362 0 .656-.132.3-.136.5-.388a1.46 1.46 0 0 0 .285-.605h1.24a2.4 2.4 0 0 1-.414 1.133q-.345.499-.924.785-.576.285-1.351.285m6.872 0q-.967 0-1.666-.413a2.8 2.8 0 0 1-1.074-1.172q-.375-.759-.375-1.777 0-1.006.375-1.773.38-.766 1.057-1.197.682-.43 1.594-.431.553 0 1.074.184.519.183.933.575.413.392.652 1.018.239.622.239 1.513v.452h-5.204v-.955h3.955q0-.503-.205-.89a1.54 1.54 0 0 0-.575-.618 1.6 1.6 0 0 0-.86-.226q-.538 0-.938.264a1.8 1.8 0 0 0-.614.682 2 2 0 0 0-.213.908v.745q0 .657.23 1.117.234.46.652.703.418.239.976.239.363 0 .66-.103.3-.106.516-.315.218-.209.332-.516l1.206.218q-.145.532-.52.933-.37.396-.933.618a3.5 3.5 0 0 1-1.274.217m7.769-3.754q0-1.602.422-2.949a8.8 8.8 0 0 1 1.231-2.484h1.168q-.315.422-.588 1.035-.273.614-.478 1.347-.204.728-.32 1.512a10.5 10.5 0 0 0 .086 3.593q.2 1.04.541 1.93t.759 1.453h-1.168a8.8 8.8 0 0 1-1.231-2.484q-.422-1.347-.422-2.953m4.164 6.077v-9h1.244v1.061h.107q.11-.205.32-.473.208-.269.579-.469.37-.205.98-.205.793 0 1.415.401.622.4.976 1.155.357.754.358 1.815 0 1.06-.354 1.82-.354.753-.971 1.163-.618.405-1.411.405-.597 0-.976-.2a1.9 1.9 0 0 1-.588-.469 3.6 3.6 0 0 1-.328-.477h-.077v3.473zm1.249-5.728q0 .69.2 1.211.2.519.58.813.379.29.928.29.571 0 .955-.302.384-.308.58-.831.2-.525.2-1.181 0-.648-.196-1.163a1.8 1.8 0 0 0-.58-.814q-.383-.298-.959-.298-.553 0-.937.285a1.75 1.75 0 0 0-.575.797 3.3 3.3 0 0 0-.196 1.193m6.157 3.273v-6.545h1.232v1.039h.068q.179-.528.631-.831a1.8 1.8 0 0 1 1.031-.306 5 5 0 0 1 .541.029v1.219a2 2 0 0 0-.273-.047q-.195-.03-.392-.03a1.66 1.66 0 0 0-.805.192 1.43 1.43 0 0 0-.759 1.283V124zm7.129.132q-.921 0-1.607-.422a2.84 2.84 0 0 1-1.065-1.18q-.38-.759-.38-1.773 0-1.019.38-1.781a2.84 2.84 0 0 1 1.065-1.185q.686-.422 1.607-.422t1.606.422 1.065 1.185q.38.762.38 1.781 0 1.014-.38 1.773a2.84 2.84 0 0 1-1.065 1.18q-.686.422-1.606.422m.004-1.07q.597 0 .988-.315.393-.315.58-.839a3.3 3.3 0 0 0 .192-1.155q0-.627-.192-1.151a1.87 1.87 0 0 0-.58-.848q-.391-.32-.988-.319-.601 0-.997.319a1.9 1.9 0 0 0-.584.848q-.188.524-.188 1.151 0 .63.188 1.155.192.524.584.839.396.315.997.315m6.919 1.066q-.792 0-1.415-.405-.618-.41-.971-1.163-.35-.76-.35-1.82t.354-1.815q.358-.755.98-1.155a2.55 2.55 0 0 1 1.411-.401q.61 0 .98.205.375.2.579.469.21.268.324.473h.077v-3.243h1.274V124h-1.244v-1.018h-.107a3.3 3.3 0 0 1-.332.477 1.9 1.9 0 0 1-.588.469q-.375.2-.972.2m.281-1.087q.55 0 .929-.29.384-.294.58-.813.2-.52.2-1.211 0-.681-.196-1.193a1.75 1.75 0 0 0-.575-.797q-.379-.285-.938-.285-.575 0-.958.298-.384.298-.58.814a3.3 3.3 0 0 0-.192 1.163q0 .656.196 1.181.196.523.58.831.388.302.954.302m7.231-2.663q0 1.606-.422 2.953a8.8 8.8 0 0 1-1.231 2.484h-1.168a5.4 5.4 0 0 0 .588-1.035q.273-.614.477-1.342.205-.734.32-1.518.115-.783.115-1.542 0-1.01-.2-2.05a11.4 11.4 0 0 0-.542-1.93q-.34-.89-.758-1.453h1.168q.809 1.137 1.231 2.484t.422 2.949M17.857 230.455v-9H19.1v1.061h.106q.11-.205.32-.473.209-.269.58-.469.37-.204.98-.205.792 0 1.414.401.622.4.976 1.155.358.755.358 1.815t-.354 1.82q-.354.753-.971 1.163-.618.405-1.41.405-.598 0-.976-.2a1.9 1.9 0 0 1-.588-.469 3.6 3.6 0 0 1-.329-.477h-.076v3.473zm1.248-5.728q0 .69.2 1.211.2.519.58.813.379.29.929.29.57 0 .954-.302.384-.308.58-.831.2-.524.2-1.181 0-.647-.196-1.163a1.8 1.8 0 0 0-.58-.814q-.383-.298-.958-.298-.555 0-.938.285a1.76 1.76 0 0 0-.575.797q-.195.512-.196 1.193m8.063 3.418q-.622 0-1.125-.23a1.9 1.9 0 0 1-.797-.678q-.29-.442-.29-1.086 0-.555.213-.912.213-.359.575-.567a3 3 0 0 1 .81-.315q.447-.107.912-.162l.954-.111q.367-.047.533-.149.166-.103.166-.333v-.03q0-.558-.315-.865-.31-.306-.929-.306-.643 0-1.014.285-.368.281-.507.626l-1.198-.272a2.3 2.3 0 0 1 .622-.963q.414-.37.95-.537a3.7 3.7 0 0 1 1.13-.171q.392 0 .83.094.444.09.828.332.387.243.635.695.247.447.247 1.163V228h-1.245v-.895h-.05a1.8 1.8 0 0 1-.372.486 2 2 0 0 1-.634.396 2.5 2.5 0 0 1-.93.158m.277-1.023q.528 0 .903-.209.38-.209.575-.545.2-.34.2-.729v-.844a.65.65 0 0 1-.264.128q-.192.056-.439.098-.247.039-.481.073l-.392.051a3 3 0 0 0-.678.158q-.302.11-.485.319-.18.205-.18.546 0 .473.35.716.35.238.89.238m5.22 3.333q-.285 0-.519-.047a1.7 1.7 0 0 1-.35-.094l.307-1.044q.35.093.622.081a.75.75 0 0 0 .482-.205q.213-.191.375-.626l.158-.435-2.395-6.63h1.364l1.657 5.079h.068l1.658-5.079h1.368l-2.698 7.419q-.187.51-.477.865a1.9 1.9 0 0 1-.69.537 2.3 2.3 0 0 1-.93.179M38.658 228v-6.545h1.223v1.065h.081q.205-.541.67-.844.464-.307 1.111-.307.657 0 1.1.307.447.307.66.844h.069q.234-.525.745-.835.512-.316 1.22-.316.89 0 1.452.559.567.558.567 1.683V228h-1.274v-4.27q0-.665-.362-.963a1.32 1.32 0 0 0-.865-.298q-.623 0-.968.383-.345.38-.345.976V228h-1.27v-4.351q0-.532-.332-.856-.333-.324-.865-.324-.363 0-.67.192a1.4 1.4 0 0 0-.49.524 1.6 1.6 0 0 0-.182.779V228zm13.427.132q-.967 0-1.666-.413a2.8 2.8 0 0 1-1.074-1.172q-.375-.759-.375-1.777 0-1.006.375-1.773.38-.766 1.057-1.197.681-.43 1.593-.431.555 0 1.074.184.52.183.933.575t.652 1.018q.24.622.239 1.513v.452H49.69v-.955h3.955q0-.503-.205-.89a1.54 1.54 0 0 0-.575-.618 1.6 1.6 0 0 0-.861-.226q-.536 0-.938.264a1.8 1.8 0 0 0-.613.682 2 2 0 0 0-.213.908v.745q0 .657.23 1.117.234.46.652.703.417.239.976.239.361 0 .66-.103.298-.106.516-.315.217-.209.332-.516l1.206.218q-.145.532-.52.933-.37.396-.933.618a3.5 3.5 0 0 1-1.274.217m5.496-4.018V228h-1.274v-6.545h1.223v1.065h.08q.227-.52.708-.835.486-.316 1.223-.316.67 0 1.172.282.502.276.78.826.276.55.277 1.36V228h-1.274v-4.01q0-.711-.371-1.112-.37-.405-1.019-.405-.443 0-.788.192a1.4 1.4 0 0 0-.541.562q-.196.367-.196.887m8.953-2.659v1.022h-3.575v-1.022zm-2.617-1.569h1.275v6.192q0 .37.11.558a.58.58 0 0 0 .286.252q.18.063.388.064.153 0 .268-.022l.18-.034.23 1.053a2.5 2.5 0 0 1-.827.136 2.2 2.2 0 0 1-.938-.179 1.6 1.6 0 0 1-.703-.579q-.269-.393-.269-.985zm7.66 3.874v1.104h-3.869v-1.104zm3.118 4.24-1.927-6.545h1.317l1.283 4.806h.064l1.287-4.806h1.316l1.279 4.785h.064l1.274-4.785h1.317L80.046 228h-1.3l-1.33-4.726h-.097L75.989 228zm11.04.132q-.92 0-1.606-.422a2.84 2.84 0 0 1-1.065-1.18q-.38-.759-.38-1.773 0-1.019.38-1.781a2.84 2.84 0 0 1 1.065-1.185q.686-.422 1.607-.422t1.606.422q.687.421 1.066 1.185.379.762.379 1.781 0 1.014-.38 1.773a2.84 2.84 0 0 1-1.065 1.18q-.686.422-1.606.422m.005-1.07q.596 0 .989-.315.391-.315.58-.839.19-.525.19-1.155a3.3 3.3 0 0 0-.19-1.151 1.9 1.9 0 0 0-.58-.848q-.392-.32-.989-.319-.6 0-.997.319a1.9 1.9 0 0 0-.584.848q-.187.524-.187 1.151 0 .63.187 1.155.192.524.584.839.396.315.997.315m4.47.938v-6.545h1.23v1.039h.069q.18-.528.63-.831a1.8 1.8 0 0 1 1.032-.306 5 5 0 0 1 .54.029v1.219a2 2 0 0 0-.272-.047q-.195-.03-.392-.03-.452 0-.805.192a1.43 1.43 0 0 0-.759 1.283V228zm5.776-2.22-.008-1.556h.221l2.609-2.769h1.525l-2.974 3.153h-.2zM94.814 228v-8.727h1.274V228zm4.133 0-2.344-3.111.878-.89 3.03 4.001zm5.098.132q-.968 0-1.666-.413a2.8 2.8 0 0 1-1.074-1.172q-.375-.759-.375-1.777 0-1.006.375-1.773.38-.766 1.057-1.197.681-.43 1.593-.431.555 0 1.074.184.52.183.933.575t.652 1.018q.239.622.239 1.513v.452h-5.203v-.955h3.954q0-.503-.204-.89a1.54 1.54 0 0 0-.575-.618 1.6 1.6 0 0 0-.861-.226q-.537 0-.938.264a1.8 1.8 0 0 0-.613.682 2 2 0 0 0-.213.908v.745q0 .657.23 1.117.234.46.652.703.417.239.976.239.362 0 .66-.103a1.37 1.37 0 0 0 .848-.831l1.206.218q-.145.532-.52.933-.37.396-.933.618a3.5 3.5 0 0 1-1.274.217m4.222-.132v-6.545h1.231v1.039h.068q.18-.528.631-.831a1.8 1.8 0 0 1 1.031-.306 5 5 0 0 1 .542.029v1.219a2 2 0 0 0-.273-.047 3 3 0 0 0-.392-.03q-.452 0-.806.192-.349.188-.554.524a1.4 1.4 0 0 0-.204.759V228zm8.152-3.622q0-1.602.422-2.949a8.8 8.8 0 0 1 1.231-2.484h1.168a5.3 5.3 0 0 0-.588 1.035 10 10 0 0 0-.478 1.347q-.204.728-.319 1.512a10.5 10.5 0 0 0 .085 3.593q.2 1.04.541 1.93.34.89.759 1.453h-1.168a8.8 8.8 0 0 1-1.231-2.484q-.422-1.347-.422-2.953m4.164 6.077v-9h1.244v1.061h.107q.11-.205.32-.473.208-.269.579-.469.37-.204.98-.205.793 0 1.415.401.622.4.976 1.155.357.755.358 1.815 0 1.06-.354 1.82-.354.753-.971 1.163-.618.405-1.411.405-.597 0-.976-.2a1.9 1.9 0 0 1-.588-.469 3.6 3.6 0 0 1-.328-.477h-.077v3.473zm1.249-5.728q0 .69.2 1.211.2.519.58.813.379.29.928.29.571 0 .955-.302.384-.308.58-.831.2-.524.2-1.181 0-.647-.196-1.163a1.8 1.8 0 0 0-.58-.814q-.383-.298-.959-.298-.553 0-.937.285a1.75 1.75 0 0 0-.575.797 3.3 3.3 0 0 0-.196 1.193m6.157 3.273v-6.545h1.232v1.039h.068q.179-.528.631-.831a1.8 1.8 0 0 1 1.031-.306 5 5 0 0 1 .541.029v1.219a2 2 0 0 0-.273-.047q-.195-.03-.392-.03a1.66 1.66 0 0 0-.805.192 1.43 1.43 0 0 0-.759 1.283V228zm7.129.132q-.921 0-1.607-.422a2.84 2.84 0 0 1-1.065-1.18q-.38-.759-.38-1.773 0-1.019.38-1.781a2.84 2.84 0 0 1 1.065-1.185q.686-.422 1.607-.422t1.606.422q.686.421 1.065 1.185.38.762.38 1.781 0 1.014-.38 1.773a2.84 2.84 0 0 1-1.065 1.18q-.686.422-1.606.422m.004-1.07q.597 0 .988-.315.393-.315.58-.839a3.3 3.3 0 0 0 .192-1.155q0-.627-.192-1.151a1.87 1.87 0 0 0-.58-.848q-.391-.32-.988-.319-.601 0-.997.319a1.9 1.9 0 0 0-.584.848q-.188.524-.188 1.151 0 .63.188 1.155.191.524.584.839.396.315.997.315m6.919 1.066q-.792 0-1.415-.405-.618-.41-.971-1.163-.35-.76-.35-1.82t.354-1.815q.358-.755.98-1.155a2.55 2.55 0 0 1 1.411-.401q.61 0 .98.205.375.2.579.469.21.268.324.473h.077v-3.243h1.274V228h-1.244v-1.018h-.107a3.3 3.3 0 0 1-.332.477 1.9 1.9 0 0 1-.588.469q-.375.2-.972.2m.281-1.087q.55 0 .929-.29.384-.294.58-.813.2-.52.2-1.211 0-.681-.196-1.193a1.75 1.75 0 0 0-.575-.797q-.379-.285-.938-.285-.575 0-.958.298-.384.298-.58.814a3.3 3.3 0 0 0-.192 1.163q0 .656.196 1.181.196.523.58.831.388.302.954.302m7.231-2.663q0 1.606-.422 2.953a8.8 8.8 0 0 1-1.231 2.484h-1.168a5.4 5.4 0 0 0 .588-1.035q.273-.614.477-1.342.205-.733.32-1.518.115-.783.115-1.542 0-1.01-.2-2.05a11.4 11.4 0 0 0-.542-1.93q-.34-.89-.758-1.453h1.168q.809 1.137 1.231 2.484t.422 2.949M70.583 336l-2.268-3.96v-.528h.264q.636 0 1.068-.12.444-.12.696-.396t.3-.756h-2.328v-.768h2.316a1.44 1.44 0 0 0-.336-.72 1.44 1.44 0 0 0-.684-.42q-.42-.132-1.032-.132h-.264v-.768h4.968v.768h-2.268q.276.228.456.54t.228.732h1.584v.768h-1.56q-.084.876-.672 1.368-.576.48-1.536.612l2.292 3.78zm7.251.12q-.852 0-1.512-.324a2.54 2.54 0 0 1-1.02-.9 2.54 2.54 0 0 1-.36-1.356q0-.816.468-1.416t1.236-.744v-.036a1.7 1.7 0 0 1-1.056-.66 2 2 0 0 1-.396-1.236q0-.684.324-1.212a2.2 2.2 0 0 1 .936-.816q.6-.3 1.38-.3t1.38.3q.6.288.936.816t.336 1.212q0 .708-.408 1.236a1.7 1.7 0 0 1-1.056.66v.036q.768.144 1.236.744t.468 1.416q0 .768-.372 1.356-.36.576-1.02.9-.648.324-1.5.324m0-5.244q.612 0 .984-.36.384-.372.384-.96 0-.6-.384-.96-.372-.372-.984-.372t-.996.372q-.372.36-.372.96 0 .588.372.96.384.36.996.36m0 4.116q.708 0 1.152-.408.456-.42.456-1.092 0-.684-.456-1.104-.444-.42-1.152-.42t-1.164.42q-.444.42-.444 1.104 0 .672.444 1.092.456.408 1.164.408m5.996 2.928.648-3.672h1.512l-.876 3.672zm5.839-1.92v-1.176h2.328v-6.384l-2.34 1.728v-1.464l2.004-1.464h1.632v7.584h1.884V336zm7.195 0v-1.176h2.328v-6.384l-2.34 1.728v-1.464l2.004-1.464h1.632v7.584h1.884V336zm9.752.12q-1.248 0-1.98-.708t-.732-1.896v-3.804q0-1.176.732-1.884t1.98-.708 1.98.708.732 1.884v3.804q0 .792-.336 1.38-.336.576-.948.9-.6.324-1.428.324m0-1.116q.672 0 1.068-.408.408-.408.408-1.08v-3.804q0-.66-.408-1.068-.396-.408-1.068-.408t-1.08.408q-.396.408-.396 1.068v3.804q0 .672.396 1.08.408.408 1.08.408m0-2.688a.8.8 0 0 1-.552-.192q-.204-.192-.204-.54 0-.336.204-.516a.8.8 0 0 1 .552-.192q.336 0 .54.192.216.18.216.516 0 .348-.216.54-.204.192-.54.192m4.411 5.004 4.224-11.28h1.356l-4.224 11.28zm7.015-1.32v-6.6h1.104v.924h.024q.048-.468.348-.756t.756-.288q.432 0 .732.276.312.264.432.72.072-.456.372-.72.3-.276.768-.276.612 0 .996.48.396.468.396 1.212V336h-1.176v-4.968q0-.36-.168-.564a.56.56 0 0 0-.468-.216q-.3 0-.468.204-.156.204-.156.564V336h-1.056v-4.968q0-.36-.168-.564a.53.53 0 0 0-.456-.216q-.3 0-.468.204t-.168.564V336zm10.16.108q-1.224 0-1.956-.708-.72-.708-.72-1.932v-1.536q0-1.236.72-1.932.72-.708 1.956-.708t1.956.708q.72.696.72 1.932v1.536q0 1.224-.732 1.932-.72.708-1.944.708m0-1.14q.648 0 1.008-.36.372-.372.372-1.056v-1.704q0-.684-.372-1.044-.36-.372-1.008-.372t-1.02.372q-.36.36-.36 1.044v1.704q0 .684.36 1.056.372.36 1.02.36m13.85 2.352v-11.28h1.08v11.28z"/><path fill="#ececec" fill-opacity=".6" d="M18.232 158v-6.05h.99v1.155h.022q.076-.584.495-.924.418-.34 1.122-.341.946 0 1.452.572.517.56.517 1.606v.517h-.99v-.517q0-1.32-1.287-1.32-.65 0-.99.374t-.341 1.078V158zm8.664.11q-1.067 0-1.727-.638-.65-.65-.65-1.782v-1.43q0-1.133.65-1.771.66-.65 1.727-.649.714 0 1.243.286.539.286.836.803t.297 1.221v1.078h-3.784v.572q0 .67.385 1.067.384.385 1.023.385.55 0 .902-.209.363-.22.44-.583h.99a1.7 1.7 0 0 1-.737 1.21q-.639.44-1.595.44m-1.408-3.652h2.816v-.308q0-.715-.374-1.1-.363-.396-1.034-.396-.672 0-1.045.396-.363.385-.363 1.1zm9.301 5.522v-1.76l.022-1.375h-.033a1.34 1.34 0 0 1-.517.924q-.44.34-1.122.341-.912 0-1.452-.605t-.539-1.65v-1.771q0-1.045.54-1.639.55-.605 1.451-.605.683 0 1.122.341.44.33.517.924h.011v-1.155h.99v8.03zm-1.32-2.728q.617 0 .968-.385.352-.385.352-1.067v-1.65q0-.682-.352-1.067-.351-.385-.968-.385-.627 0-.979.319-.352.32-.352 1.023v1.87q0 .703.352 1.023t.98.319m6.607.858q-1.045 0-1.672-.616-.627-.627-.627-1.694v-3.85h.99v3.85q0 .66.352 1.056.353.385.957.385.615 0 .968-.385.363-.396.363-1.056v-3.85h.99v3.85q0 1.067-.638 1.694-.637.616-1.683.616m6.607 0q-1.068 0-1.727-.638-.65-.65-.65-1.782v-1.43q0-1.133.65-1.771.66-.65 1.727-.649.715 0 1.243.286.54.286.836.803.297.518.297 1.221v1.078h-3.784v.572q0 .67.385 1.067.386.385 1.023.385.55 0 .902-.209.363-.22.44-.583h.99a1.7 1.7 0 0 1-.737 1.21q-.638.44-1.595.44m-1.408-3.652h2.816v-.308q0-.715-.374-1.1-.363-.396-1.034-.396t-1.045.396q-.363.385-.363 1.1zm7.761 3.63q-1.012 0-1.572-.451-.55-.462-.55-1.298h.99q0 .418.296.66.297.231.836.231h.484q.551 0 .847-.242.309-.242.309-.682 0-.781-.715-.88l-1.672-.242q-.616-.088-.958-.506-.34-.429-.34-1.122 0-.792.538-1.243.551-.451 1.507-.451h.484q.88 0 1.43.44.561.43.605 1.133h-1a.7.7 0 0 0-.309-.528q-.275-.209-.726-.209h-.484q-.505 0-.791.231a.76.76 0 0 0-.286.627q0 .638.582.726l1.563.22q1.54.22 1.54 1.804 0 .847-.561 1.32-.55.462-1.562.462zM60.48 158q-.747 0-1.199-.429-.45-.44-.45-1.166v-3.553H57.09v-.902h1.738v-1.705h.99v1.705h2.475v.902H59.82v3.553q0 .308.176.506a.65.65 0 0 0 .484.187h1.76V158zm5.99-4.532q-.45 0-.681-.22t-.231-.594q0-.373.23-.594.232-.22.683-.22.45 0 .682.22.23.22.23.594 0 .373-.23.594t-.682.22m0 4.642q-.45 0-.681-.22t-.231-.594.23-.594q.232-.22.683-.22.45 0 .682.22.23.22.23.594t-.23.594-.682.22M77.31 158v-.913l2.673-2.86q.584-.616.825-1.1.243-.484.242-.946 0-.66-.385-1.045-.373-.396-1.023-.396-.67 0-1.067.407-.385.396-.385 1.078h-.99q.033-1.09.693-1.727.66-.638 1.75-.638 1.11 0 1.76.627.66.627.66 1.705 0 .572-.32 1.21-.307.638-1.067 1.43l-2.167 2.266h3.652V158zm8.95.11q-.406 0-.66-.242a.85.85 0 0 1-.242-.627q0-.406.242-.66.254-.253.66-.253t.649.253q.253.254.253.66a.83.83 0 0 1-.253.627q-.242.242-.649.242m6.596 0q-1.11 0-1.771-.638-.65-.649-.65-1.727v-3.52q0-1.078.65-1.716.66-.65 1.77-.649 1.112 0 1.76.649.66.638.66 1.716v3.52q0 .716-.296 1.254-.297.528-.847.825-.54.286-1.276.286m0-.847q.66 0 1.056-.418.407-.43.407-1.1v-3.52q0-.67-.407-1.089-.396-.429-1.056-.429t-1.067.429q-.396.418-.396 1.089v3.52q0 .67.396 1.1.407.418 1.067.418m0-2.673a.7.7 0 0 1-.484-.165q-.176-.165-.176-.473 0-.297.176-.451a.7.7 0 0 1 .484-.165q.297 0 .473.165.186.154.187.451 0 .308-.187.473a.66.66 0 0 1-.473.165m13.279 3.52q-1.1 0-1.738-.616t-.638-1.694v-3.63q0-1.078.638-1.694t1.738-.616q1.078 0 1.716.627.638.617.638 1.683h-.99q0-.682-.363-1.045-.352-.374-1.001-.374-.65 0-1.023.374-.363.363-.363 1.045v3.63q0 .683.363 1.056.373.363 1.023.363t1.001-.363q.363-.373.363-1.056h.99q0 1.067-.638 1.694-.638.616-1.716.616m4.22-.11v-8.03h2.585q1.122 0 1.782.649.67.638.671 1.716 0 1.078-.671 1.727-.66.638-1.782.638h-1.595v3.3zm.99-4.191h1.595q.649 0 1.034-.396.396-.407.396-1.078 0-.682-.396-1.078-.385-.396-1.034-.396h-1.595zm7.894 4.301q-1.122 0-1.716-.616-.594-.627-.594-1.694v-5.83h.99v5.83q0 .66.319 1.045.33.385 1.001.385.66 0 .99-.385t.33-1.045v-5.83h.99v5.83q0 1.078-.594 1.694-.583.616-1.716.616m10.716 1.1 3.905-10.34h1.045L131 159.21zm16.766-1.21v-1.76h-3.63v-1.551l2.926-4.719h1.122l-3.058 4.939v.429h2.64v-1.958h.99V158zm5.496.11q-.406 0-.66-.242a.85.85 0 0 1-.242-.627q0-.406.242-.66.254-.253.66-.253t.649.253q.253.254.253.66a.83.83 0 0 1-.253.627q-.242.242-.649.242m6.596 0q-1.111 0-1.771-.638-.65-.649-.649-1.727v-3.52q0-1.078.649-1.716.66-.65 1.771-.649 1.11 0 1.76.649.66.638.66 1.716v3.52q0 .716-.297 1.254a2.1 2.1 0 0 1-.847.825q-.54.286-1.276.286m0-.847q.66 0 1.056-.418.407-.43.407-1.1v-3.52q0-.67-.407-1.089-.396-.429-1.056-.429t-1.067.429q-.396.418-.396 1.089v3.52q0 .67.396 1.1.407.418 1.067.418m0-2.673a.7.7 0 0 1-.484-.165q-.176-.165-.176-.473 0-.297.176-.451a.7.7 0 0 1 .484-.165q.296 0 .473.165.186.154.187.451 0 .308-.187.473a.67.67 0 0 1-.473.165m13.235 3.52q-1.1 0-1.738-.616t-.638-1.694v-3.63q0-1.078.638-1.694.639-.616 1.738-.616 1.078 0 1.716.627.638.617.638 1.683h-.99q0-.682-.363-1.045-.351-.374-1.001-.374-.648 0-1.023.363-.363.363-.363 1.045v3.641q0 .683.363 1.056.375.374 1.023.374.65 0 1.001-.374.363-.373.363-1.056v-1.1h-1.628v-.902h2.618v2.002q0 1.067-.638 1.694-.638.616-1.716.616m4.187-.11v-.902h2.145v-4.246h-1.925v-.902h2.915v5.148h2.035V158zm2.53-7.139q-.363 0-.572-.187a.65.65 0 0 1-.209-.506q0-.33.209-.517.209-.198.572-.198t.572.198q.209.187.209.517 0 .319-.209.506t-.572.187M19.772 175.11q-.934 0-1.485-.517-.55-.528-.55-1.375 0-.56.253-.979t.704-.649q.45-.242 1.034-.242h1.87v-.473q0-1.177-1.287-1.177-.572 0-.924.209t-.374.583h-.99q.055-.715.66-1.177.615-.473 1.628-.473 1.1 0 1.683.528.594.528.594 1.474V175h-.979v-1.1h-.022a1.3 1.3 0 0 1-.561.891q-.473.32-1.254.319m.242-.836q.726 0 1.155-.352.429-.353.429-.957v-.847h-1.76q-.485 0-.792.297-.297.286-.297.77 0 .506.33.803.34.286.935.286m6.97.836q-1.1 0-1.76-.616t-.66-1.694v-1.65q0-1.078.66-1.694t1.76-.616q1.044 0 1.683.561.648.561.682 1.529h-.99q-.033-.584-.396-.891-.363-.32-.98-.319-.648 0-1.044.374-.385.363-.385 1.045v1.661q0 .683.385 1.056.396.374 1.045.374.616 0 .979-.319.363-.32.396-.891h.99q-.034.968-.682 1.529-.639.561-1.683.561m7.112-.11q-.747 0-1.199-.429-.45-.44-.45-1.166v-3.553h-1.739v-.902h1.738v-1.705h.99v1.705h2.475v.902h-2.475v3.553q.001.308.176.506a.65.65 0 0 0 .484.187h1.76V175zm5.98.11q-1.045 0-1.672-.616-.627-.627-.627-1.694v-3.85h.99v3.85q0 .66.352 1.056.353.385.957.385.615 0 .968-.385.363-.396.363-1.056v-3.85h.99v3.85q0 1.067-.638 1.694-.637.616-1.683.616m6.079 0q-.935 0-1.485-.517-.55-.528-.55-1.375 0-.56.253-.979t.704-.649q.45-.242 1.034-.242h1.87v-.473q0-1.177-1.287-1.177-.573 0-.924.209-.353.209-.374.583h-.99q.055-.715.66-1.177.615-.473 1.628-.473 1.1 0 1.683.528.594.528.594 1.474V175h-.98v-1.1h-.021a1.3 1.3 0 0 1-.561.891q-.473.32-1.254.319m.242-.836q.726 0 1.155-.352.429-.353.429-.957v-.847h-1.76q-.485 0-.792.297-.297.286-.297.77 0 .506.33.803.34.286.935.286m7.761.726q-.803 0-1.287-.462-.473-.473-.473-1.243v-5.423h-2.09v-.902h3.08v6.325q0 .374.21.594.209.209.56.209h1.87V175zm5.716-4.532q-.45 0-.682-.22-.23-.22-.23-.594 0-.373.23-.594.231-.22.682-.22.45 0 .682.22.231.22.231.594 0 .373-.23.594-.232.22-.683.22m0 4.642q-.45 0-.682-.22-.23-.22-.23-.594 0-.373.23-.594.231-.22.682-.22.45 0 .682.22.231.22.231.594t-.23.594-.683.22m13.192 0q-1.111 0-1.771-.638-.65-.649-.65-1.727v-3.52q0-1.078.65-1.716.66-.65 1.77-.649 1.112 0 1.76.649.66.638.66 1.716v3.52q0 .716-.296 1.254-.297.528-.847.825-.54.286-1.276.286m0-.847q.66 0 1.056-.418.407-.43.407-1.1v-3.52q0-.67-.407-1.089-.396-.429-1.056-.429t-1.067.429q-.396.418-.396 1.089v3.52q0 .67.396 1.1.407.418 1.067.418m0-2.673a.7.7 0 0 1-.484-.165q-.176-.165-.176-.473 0-.297.176-.451a.7.7 0 0 1 .484-.165q.296 0 .473.165.186.154.187.451 0 .308-.187.473a.66.66 0 0 1-.473.165m6.595 3.52q-.407 0-.66-.242a.85.85 0 0 1-.242-.627q0-.406.242-.66.253-.253.66-.253t.65.253q.252.254.252.66a.83.83 0 0 1-.253.627q-.241.242-.649.242m7.696-.11v-1.76h-3.63v-1.551l2.926-4.719h1.122l-3.058 4.939v.429h2.64v-1.958h.99V175zm12.18.11q-1.1 0-1.739-.616-.638-.616-.638-1.694v-3.63q0-1.078.638-1.694.639-.616 1.738-.616 1.078 0 1.716.627.639.617.638 1.683h-.99q0-.682-.363-1.045-.351-.374-1-.374-.65 0-1.024.374-.363.363-.363 1.045v3.63q0 .683.363 1.056.374.363 1.023.363.65 0 1.001-.363.363-.373.363-1.056h.99q0 1.067-.638 1.694-.638.616-1.716.616m4.219-.11v-8.03h2.585q1.122 0 1.782.649.67.638.671 1.716 0 1.078-.671 1.727-.66.638-1.782.638h-1.595v3.3zm.99-4.191h1.595q.649 0 1.034-.396.396-.407.396-1.078 0-.682-.396-1.078-.385-.396-1.034-.396h-1.595zm7.894 4.301q-1.122 0-1.716-.616-.594-.627-.594-1.694v-5.83h.99v5.83q0 .66.319 1.045.33.385 1.001.385.66 0 .99-.385t.33-1.045v-5.83h.99v5.83q0 1.078-.594 1.694-.583.616-1.716.616m10.716 1.1 3.905-10.34h1.045l-3.905 10.34zm13.357-1.21v-.902h2.178v-6.27l-2.178 1.628v-1.133l1.815-1.353h1.353v7.128h1.782V175zm8.905.11q-.406 0-.66-.242a.85.85 0 0 1-.242-.627q0-.406.242-.66.254-.253.66-.253.408 0 .649.253.253.254.253.66a.83.83 0 0 1-.253.627q-.241.242-.649.242m4.242-.11v-.913l2.673-2.86q.583-.616.825-1.1t.242-.946q0-.66-.385-1.045-.374-.396-1.023-.396-.67 0-1.067.407-.385.396-.385 1.078h-.99q.033-1.09.693-1.727.66-.638 1.749-.638 1.111 0 1.76.627.66.627.66 1.705 0 .572-.319 1.21-.308.638-1.067 1.43l-2.167 2.266h3.652V175zm15.589.11q-1.1 0-1.738-.616t-.638-1.694v-3.63q0-1.078.638-1.694.639-.616 1.738-.616 1.078 0 1.716.627.638.617.638 1.683h-.99q0-.682-.363-1.045-.351-.374-1.001-.374-.648 0-1.023.363-.363.363-.363 1.045v3.641q0 .683.363 1.056.375.374 1.023.374.65 0 1.001-.374.363-.373.363-1.056v-1.1h-1.628v-.902h2.618v2.002q0 1.067-.638 1.694-.638.616-1.716.616m4.187-.11v-.902h2.145v-4.246h-1.925v-.902h2.915v5.148h2.035V175zm2.53-7.139q-.362 0-.572-.187a.65.65 0 0 1-.209-.506q0-.33.209-.517.21-.198.572-.198.363 0 .572.198.21.187.209.517a.64.64 0 0 1-.209.506q-.209.187-.572.187M18.232 264v-6.05h.99v1.155h.022q.076-.584.495-.924.418-.34 1.122-.341.946 0 1.452.572.517.56.517 1.606v.517h-.99v-.517q0-1.32-1.287-1.32-.65 0-.99.374t-.341 1.078V264zm8.664.11q-1.067 0-1.727-.638-.65-.65-.65-1.782v-1.43q0-1.133.65-1.771.66-.65 1.727-.649.714 0 1.243.286.539.286.836.803t.297 1.221v1.078h-3.784v.572q0 .67.385 1.067.384.385 1.023.385.55 0 .902-.209.363-.22.44-.583h.99a1.7 1.7 0 0 1-.737 1.21q-.639.44-1.595.44m-1.408-3.652h2.816v-.308q0-.715-.374-1.1-.363-.396-1.034-.396-.672 0-1.045.396-.363.385-.363 1.1zm9.301 5.522v-1.76l.022-1.375h-.033a1.34 1.34 0 0 1-.517.924q-.44.34-1.122.341-.912 0-1.452-.605t-.539-1.65v-1.771q0-1.045.54-1.639.55-.605 1.451-.605.683 0 1.122.341.44.33.517.924h.011v-1.155h.99v8.03zm-1.32-2.728q.617 0 .968-.385.352-.385.352-1.067v-1.65q0-.682-.352-1.067-.351-.385-.968-.385-.627 0-.979.319-.352.32-.352 1.023v1.87q0 .704.352 1.023.352.32.98.319m6.607.858q-1.045 0-1.672-.616-.627-.627-.627-1.694v-3.85h.99v3.85q0 .66.352 1.056.353.385.957.385.615 0 .968-.385.363-.396.363-1.056v-3.85h.99v3.85q0 1.067-.638 1.694-.637.616-1.683.616m6.607 0q-1.068 0-1.727-.638-.65-.65-.65-1.782v-1.43q0-1.133.65-1.771.66-.65 1.727-.649.715 0 1.243.286.54.286.836.803.297.518.297 1.221v1.078h-3.784v.572q0 .67.385 1.067.386.385 1.023.385.55 0 .902-.209.363-.22.44-.583h.99a1.7 1.7 0 0 1-.737 1.21q-.638.44-1.595.44m-1.408-3.652h2.816v-.308q0-.715-.374-1.1-.363-.396-1.034-.396t-1.045.396q-.363.385-.363 1.1zm7.761 3.63q-1.012 0-1.572-.451-.55-.462-.55-1.298h.99q0 .419.296.66.297.231.836.231h.484q.551 0 .847-.242.309-.242.309-.682 0-.781-.715-.88l-1.672-.242q-.616-.088-.958-.506-.34-.429-.34-1.122 0-.792.538-1.243.551-.451 1.507-.451h.484q.88 0 1.43.44.561.43.605 1.133h-1a.7.7 0 0 0-.309-.528q-.275-.209-.726-.209h-.484q-.505 0-.791.231a.76.76 0 0 0-.286.627q0 .637.582.726l1.563.22q1.54.22 1.54 1.804 0 .848-.561 1.32-.55.462-1.562.462zM60.48 264q-.747 0-1.199-.429-.45-.44-.45-1.166v-3.553H57.09v-.902h1.738v-1.705h.99v1.705h2.475v.902H59.82v3.553q0 .308.176.506a.65.65 0 0 0 .484.187h1.76V264zm5.99-4.532q-.45 0-.681-.22t-.231-.594.23-.594q.232-.22.683-.22.45 0 .682.22.23.22.23.594t-.23.594-.682.22m0 4.642q-.45 0-.681-.22t-.231-.594.23-.594q.232-.22.683-.22.45 0 .682.22.23.22.23.594 0 .373-.23.594t-.682.22m14.292-.11v-1.76h-3.63v-1.551l2.926-4.719h1.122l-3.058 4.939v.429h2.64v-1.958h.99V264zm5.496.11q-.406 0-.66-.242a.85.85 0 0 1-.242-.627q0-.406.242-.66.254-.253.66-.253t.649.253q.253.254.253.66a.83.83 0 0 1-.253.627q-.242.242-.649.242m6.596 0q-1.11 0-1.771-.638-.65-.649-.65-1.727v-3.52q0-1.078.65-1.716.66-.65 1.77-.649 1.112 0 1.76.649.66.638.66 1.716v3.52q0 .715-.296 1.254-.297.528-.847.825-.54.286-1.276.286m0-.847q.66 0 1.056-.418.407-.43.407-1.1v-3.52q0-.67-.407-1.089-.396-.429-1.056-.429t-1.067.429q-.396.419-.396 1.089v3.52q0 .67.396 1.1.407.418 1.067.418m0-2.673a.7.7 0 0 1-.484-.165q-.176-.165-.176-.473 0-.297.176-.451a.7.7 0 0 1 .484-.165q.297 0 .473.165.186.154.187.451 0 .308-.187.473a.66.66 0 0 1-.473.165m13.279 3.52q-1.1 0-1.738-.616t-.638-1.694v-3.63q0-1.078.638-1.694t1.738-.616q1.078 0 1.716.627.638.616.638 1.683h-.99q0-.682-.363-1.045-.352-.374-1.001-.374-.65 0-1.023.374-.363.363-.363 1.045v3.63q0 .683.363 1.056.373.363 1.023.363t1.001-.363q.363-.374.363-1.056h.99q0 1.067-.638 1.694-.638.616-1.716.616m4.22-.11v-8.03h2.585q1.122 0 1.782.649.67.638.671 1.716 0 1.078-.671 1.727-.66.638-1.782.638h-1.595v3.3zm.99-4.191h1.595q.649 0 1.034-.396.396-.407.396-1.078 0-.682-.396-1.078-.385-.396-1.034-.396h-1.595zm7.894 4.301q-1.122 0-1.716-.616-.594-.627-.594-1.694v-5.83h.99v5.83q0 .66.319 1.045.33.385 1.001.385.66 0 .99-.385t.33-1.045v-5.83h.99v5.83q0 1.078-.594 1.694-.583.616-1.716.616m10.716 1.1 3.905-10.34h1.045L131 265.21zm15.666-1.1q-.759 0-1.342-.297a2.27 2.27 0 0 1-.913-.825 2.4 2.4 0 0 1-.319-1.232q0-.759.429-1.309.44-.55 1.166-.671v-.033a1.7 1.7 0 0 1-1.001-.627 1.83 1.83 0 0 1-.374-1.133q0-.627.297-1.1.297-.484.825-.748a2.7 2.7 0 0 1 1.232-.275q.704 0 1.232.275.528.264.825.748.297.473.297 1.1 0 .638-.374 1.133a1.7 1.7 0 0 1-1.001.627v.033a1.78 1.78 0 0 1 1.155.671q.44.55.44 1.309 0 .693-.33 1.232a2.2 2.2 0 0 1-.902.825q-.571.297-1.342.297m0-4.752q.617 0 .99-.363.375-.363.374-.946 0-.583-.374-.946t-.99-.363q-.605 0-.99.363-.374.363-.374.946t.374.946q.385.363.99.363m0 3.861q.705 0 1.144-.407.44-.418.44-1.078 0-.671-.44-1.078-.44-.418-1.144-.418-.703 0-1.144.418-.44.407-.44 1.078 0 .66.44 1.078.44.407 1.144.407m6.596.891q-.406 0-.66-.242a.85.85 0 0 1-.242-.627q0-.406.242-.66.254-.253.66-.253t.649.253q.253.254.253.66a.83.83 0 0 1-.253.627q-.242.242-.649.242m6.596 0q-1.111 0-1.771-.638-.65-.649-.649-1.727v-3.52q0-1.078.649-1.716.66-.65 1.771-.649 1.11 0 1.76.649.66.638.66 1.716v3.52q0 .715-.297 1.254a2.1 2.1 0 0 1-.847.825q-.54.286-1.276.286m0-.847q.66 0 1.056-.418.407-.43.407-1.1v-3.52q0-.67-.407-1.089-.396-.429-1.056-.429t-1.067.429q-.396.419-.396 1.089v3.52q0 .67.396 1.1.407.418 1.067.418m0-2.673a.7.7 0 0 1-.484-.165q-.176-.165-.176-.473 0-.297.176-.451a.7.7 0 0 1 .484-.165q.296 0 .473.165.186.154.187.451 0 .308-.187.473a.67.67 0 0 1-.473.165m13.235 3.52q-1.1 0-1.738-.616t-.638-1.694v-3.63q0-1.078.638-1.694.639-.616 1.738-.616 1.078 0 1.716.627.638.616.638 1.683h-.99q0-.682-.363-1.045-.351-.374-1.001-.374-.648 0-1.023.363-.363.363-.363 1.045v3.641q0 .683.363 1.056.375.374 1.023.374.65 0 1.001-.374.363-.374.363-1.056v-1.1h-1.628v-.902h2.618v2.002q0 1.067-.638 1.694-.638.616-1.716.616m4.187-.11v-.902h2.145v-4.246h-1.925v-.902h2.915v5.148h2.035V264zm2.53-7.139q-.363 0-.572-.187a.65.65 0 0 1-.209-.506q0-.33.209-.517.209-.198.572-.198t.572.198q.209.187.209.517 0 .319-.209.506t-.572.187M19.772 281.11q-.934 0-1.485-.517-.55-.528-.55-1.375 0-.56.253-.979t.704-.649q.45-.242 1.034-.242h1.87v-.473q0-1.177-1.287-1.177-.572 0-.924.209t-.374.583h-.99q.055-.715.66-1.177.615-.473 1.628-.473 1.1 0 1.683.528.594.528.594 1.474V281h-.979v-1.1h-.022a1.3 1.3 0 0 1-.561.891q-.473.32-1.254.319m.242-.836q.726 0 1.155-.352t.429-.957v-.847h-1.76q-.485 0-.792.297-.297.286-.297.77 0 .506.33.803.34.286.935.286m6.97.836q-1.1 0-1.76-.616t-.66-1.694v-1.65q0-1.078.66-1.694t1.76-.616q1.044 0 1.683.561.648.561.682 1.529h-.99q-.033-.584-.396-.891-.363-.32-.98-.319-.648 0-1.044.374-.385.363-.385 1.045v1.661q0 .683.385 1.056.396.374 1.045.374.616 0 .979-.319.363-.32.396-.891h.99q-.034.968-.682 1.529-.639.561-1.683.561m7.112-.11q-.747 0-1.199-.429-.45-.44-.45-1.166v-3.553h-1.739v-.902h1.738v-1.705h.99v1.705h2.475v.902h-2.475v3.553q.001.308.176.506a.65.65 0 0 0 .484.187h1.76V281zm5.98.11q-1.045 0-1.672-.616-.627-.627-.627-1.694v-3.85h.99v3.85q0 .66.352 1.056.353.385.957.385.615 0 .968-.385.363-.396.363-1.056v-3.85h.99v3.85q0 1.067-.638 1.694-.637.616-1.683.616m6.079 0q-.935 0-1.485-.517-.55-.528-.55-1.375 0-.56.253-.979t.704-.649q.45-.242 1.034-.242h1.87v-.473q0-1.177-1.287-1.177-.573 0-.924.209-.353.209-.374.583h-.99q.055-.715.66-1.177.615-.473 1.628-.473 1.1 0 1.683.528.594.528.594 1.474V281h-.98v-1.1h-.021a1.3 1.3 0 0 1-.561.891q-.473.32-1.254.319m.242-.836q.726 0 1.155-.352t.429-.957v-.847h-1.76q-.485 0-.792.297-.297.286-.297.77 0 .506.33.803.34.286.935.286m7.761.726q-.803 0-1.287-.462-.473-.473-.473-1.243v-5.423h-2.09v-.902h3.08v6.325q0 .373.21.594.209.209.56.209h1.87V281zm5.716-4.532q-.45 0-.682-.22-.23-.22-.23-.594t.23-.594q.231-.22.682-.22.45 0 .682.22.231.22.231.594t-.23.594-.683.22m0 4.642q-.45 0-.682-.22-.23-.22-.23-.594t.23-.594q.231-.22.682-.22.45 0 .682.22.231.22.231.594 0 .373-.23.594-.232.22-.683.22m13.192 0q-1.111 0-1.771-.638-.65-.649-.65-1.727v-3.52q0-1.078.65-1.716.66-.65 1.77-.649 1.112 0 1.76.649.66.638.66 1.716v3.52q0 .715-.296 1.254-.297.528-.847.825-.54.286-1.276.286m0-.847q.66 0 1.056-.418.407-.43.407-1.1v-3.52q0-.67-.407-1.089-.396-.429-1.056-.429t-1.067.429q-.396.419-.396 1.089v3.52q0 .67.396 1.1.407.418 1.067.418m0-2.673a.7.7 0 0 1-.484-.165q-.176-.165-.176-.473 0-.297.176-.451a.7.7 0 0 1 .484-.165q.296 0 .473.165.186.154.187.451 0 .308-.187.473a.66.66 0 0 1-.473.165m6.595 3.52q-.407 0-.66-.242a.85.85 0 0 1-.242-.627q0-.406.242-.66.253-.253.66-.253t.65.253q.252.254.252.66a.83.83 0 0 1-.253.627q-.241.242-.649.242m6.596 0q-.759 0-1.342-.297a2.26 2.26 0 0 1-.913-.825 2.37 2.37 0 0 1-.319-1.232q0-.759.429-1.309.44-.55 1.166-.671v-.033a1.7 1.7 0 0 1-1.001-.627 1.83 1.83 0 0 1-.374-1.133q0-.627.297-1.1.297-.484.825-.748.54-.275 1.232-.275.704 0 1.232.275.528.264.825.748.297.473.297 1.1 0 .638-.374 1.133-.374.485-1.001.627v.033a1.78 1.78 0 0 1 1.155.671q.44.55.44 1.309 0 .693-.33 1.232a2.2 2.2 0 0 1-.902.825q-.572.297-1.342.297m0-4.752q.615 0 .99-.363.374-.363.374-.946t-.374-.946q-.375-.363-.99-.363-.605 0-.99.363-.374.363-.374.946t.374.946q.386.363.99.363m0 3.861q.704 0 1.144-.407.44-.418.44-1.078 0-.671-.44-1.078-.44-.418-1.144-.418t-1.144.418q-.44.407-.44 1.078 0 .66.44 1.078.44.407 1.144.407m13.28.891q-1.1 0-1.739-.616-.638-.616-.638-1.694v-3.63q0-1.078.638-1.694.639-.616 1.738-.616 1.078 0 1.716.627.639.616.638 1.683h-.99q0-.682-.363-1.045-.351-.374-1-.374-.65 0-1.024.374-.363.363-.363 1.045v3.63q0 .683.363 1.056.374.363 1.023.363.65 0 1.001-.363.363-.374.363-1.056h.99q0 1.067-.638 1.694-.638.616-1.716.616m4.219-.11v-8.03h2.585q1.122 0 1.782.649.67.638.671 1.716 0 1.078-.671 1.727-.66.638-1.782.638h-1.595v3.3zm.99-4.191h1.595q.649 0 1.034-.396.396-.407.396-1.078 0-.682-.396-1.078-.385-.396-1.034-.396h-1.595zm7.894 4.301q-1.122 0-1.716-.616-.594-.627-.594-1.694v-5.83h.99v5.83q0 .66.319 1.045.33.385 1.001.385.66 0 .99-.385t.33-1.045v-5.83h.99v5.83q0 1.078-.594 1.694-.583.616-1.716.616m10.716 1.1 3.905-10.34h1.045l-3.905 10.34zm13.313-1.21v-.913l2.673-2.86q.582-.616.825-1.1.242-.484.242-.946 0-.66-.385-1.045-.375-.396-1.023-.396-.671 0-1.067.407-.385.396-.385 1.078h-.99q.033-1.09.693-1.727.66-.638 1.749-.638 1.11 0 1.76.627.66.627.66 1.705 0 .572-.319 1.21-.309.638-1.067 1.43l-2.167 2.266h3.652V281zm8.949.11q-.406 0-.66-.242a.85.85 0 0 1-.242-.627q0-.406.242-.66.254-.253.66-.253.408 0 .649.253.253.254.253.66a.83.83 0 0 1-.253.627q-.241.242-.649.242m4.286-.11v-.902h2.178v-6.27l-2.178 1.628v-1.133l1.815-1.353h1.353v7.128h1.782V281zm15.545.11q-1.1 0-1.738-.616t-.638-1.694v-3.63q0-1.078.638-1.694.639-.616 1.738-.616 1.078 0 1.716.627.638.616.638 1.683h-.99q0-.682-.363-1.045-.351-.374-1.001-.374-.648 0-1.023.363-.363.363-.363 1.045v3.641q0 .683.363 1.056.375.374 1.023.374.65 0 1.001-.374.363-.374.363-1.056v-1.1h-1.628v-.902h2.618v2.002q0 1.067-.638 1.694-.638.616-1.716.616m4.187-.11v-.902h2.145v-4.246h-1.925v-.902h2.915v5.148h2.035V281zm2.53-7.139q-.362 0-.572-.187a.65.65 0 0 1-.209-.506q0-.33.209-.517.21-.198.572-.198.363 0 .572.198.21.187.209.517a.64.64 0 0 1-.209.506q-.209.187-.572.187M154.499 336v-8.76h2.7q.78 0 1.368.324.588.312.912.876t.324 1.32q0 .888-.456 1.524t-1.212.888l1.788 3.828h-1.188l-1.716-3.72h-1.452V336zm1.068-4.692h1.632q.672 0 1.08-.42.408-.432.408-1.128 0-.708-.408-1.128t-1.08-.42h-1.632zm8.599 4.812q-1.14 0-1.824-.672-.684-.684-.684-1.848v-4.2h1.08v4.2q0 .72.384 1.152.384.42 1.044.42.672 0 1.056-.42.396-.432.396-1.152v-4.2h1.08v4.2q0 1.164-.696 1.848-.696.672-1.836.672m4.711-.12v-6.6h1.08v1.26h.012q.084-.66.54-1.02t1.212-.36q.996 0 1.584.612t.588 1.668V336h-1.08v-4.248q0-.756-.384-1.152-.372-.408-1.02-.408-.672 0-1.068.42-.384.42-.384 1.188v4.2zm15.867 0v-4.716h-1.92v-.984h1.92v-1.38q0-.78.492-1.224.492-.456 1.356-.456h1.932v.984h-1.932q-.768 0-.768.696v1.38h2.7v.984h-2.7V336zm5.635 0v-.984h2.34v-4.632h-2.1v-.984h3.18v5.616h2.22V336zm2.76-7.788q-.396 0-.624-.204a.7.7 0 0 1-.228-.552q0-.36.228-.564.228-.216.624-.216t.624.216q.228.204.228.564a.7.7 0 0 1-.228.552q-.228.204-.624.204m4.016 7.788 2.34-3.396-2.196-3.204h1.272l1.308 2.04q.084.132.156.288.084.156.132.252.036-.096.108-.252.084-.156.168-.288l1.308-2.04h1.272l-2.196 3.216 2.328 3.384h-1.272l-1.416-2.16a3 3 0 0 1-.168-.3 3 3 0 0 0-.132-.288q-.048.108-.144.288a2 2 0 0 1-.18.3l-1.416 2.16zm17.486.12q-1.2 0-1.92-.672t-.72-1.848v-1.8q0-1.176.72-1.848t1.92-.672q1.14 0 1.836.612.708.612.744 1.668h-1.08q-.036-.636-.432-.972-.396-.348-1.068-.348-.708 0-1.14.408-.42.396-.42 1.14v1.812q0 .744.42 1.152.432.408 1.14.408.672 0 1.068-.348t.432-.972h1.08q-.036 1.056-.744 1.668-.696.612-1.836.612m7.1-.024q-1.188 0-1.896-.696-.696-.696-.696-1.944v-1.512q0-1.26.696-1.944.696-.696 1.896-.696t1.896.696q.696.684.696 1.944v1.512q0 1.248-.708 1.944-.696.696-1.884.696m0-.96q.708 0 1.104-.396.408-.396.408-1.164v-1.752q0-.768-.408-1.164-.396-.396-1.104-.396-.696 0-1.104.396t-.408 1.164v1.752q0 .768.408 1.164t1.104.396m4.315.864v-6.6h.936v.876h.024q.06-.444.348-.72.3-.276.756-.276a1.1 1.1 0 0 1 .732.252q.3.252.432.684h.012q.084-.432.372-.684.3-.252.756-.252.636 0 1.008.48.384.468.384 1.224V336h-1.008v-5.028q0-.396-.192-.624a.64.64 0 0 0-.528-.24.64.64 0 0 0-.516.228q-.192.228-.192.624V336h-.888v-5.028q0-.396-.192-.624a.63.63 0 0 0-.516-.24q-.336 0-.528.228t-.192.624V336zm7.195 0v-6.6h.936v.876h.024q.06-.444.348-.72.3-.276.756-.276a1.1 1.1 0 0 1 .732.252q.3.252.432.684h.012q.084-.432.372-.684.3-.252.756-.252.636 0 1.008.48.384.468.384 1.224V336h-1.008v-5.028q0-.396-.192-.624a.64.64 0 0 0-.528-.24.64.64 0 0 0-.516.228q-.192.228-.192.624V336h-.888v-5.028q0-.396-.192-.624a.63.63 0 0 0-.516-.24q-.336 0-.528.228t-.192.624V336zm9.5.12q-1.02 0-1.62-.564-.6-.576-.6-1.5 0-.612.276-1.068t.768-.708a2.35 2.35 0 0 1 1.128-.264h2.04v-.516q0-1.284-1.404-1.284-.624 0-1.008.228t-.408.636h-1.08q.06-.78.72-1.284.672-.516 1.776-.516 1.2 0 1.836.576.648.576.648 1.608V336h-1.068v-1.2h-.024a1.4 1.4 0 0 1-.612.972q-.516.348-1.368.348m.264-.912q.792 0 1.26-.384t.468-1.044v-.924h-1.92q-.528 0-.864.324-.324.312-.324.84 0 .552.36.876.372.312 1.02.312m5.011.792v-6.6h1.08v1.26h.012q.084-.66.54-1.02t1.212-.36q.996 0 1.584.612t.588 1.668V336h-1.08v-4.248q0-.756-.384-1.152-.372-.408-1.02-.408-.672 0-1.068.42-.384.42-.384 1.188v4.2zm9.307.12q-.984 0-1.584-.66-.588-.66-.588-1.788v-1.932q0-1.14.588-1.8t1.584-.66q.744 0 1.224.372.492.372.588 1.008h.012l-.024-1.5v-1.92h1.08V336h-1.08v-1.26h-.012q-.084.648-.564 1.02-.48.36-1.224.36m.36-.936q.672 0 1.056-.42t.384-1.164v-1.8q0-.744-.384-1.164t-1.056-.42q-.684 0-1.068.36-.384.348-.384 1.164v1.92q0 .804.384 1.164t1.068.36m6.956.912q-1.104 0-1.716-.492-.6-.504-.6-1.416h1.08q0 .456.324.72.324.252.912.252h.528q.6 0 .924-.264.336-.264.336-.744 0-.852-.78-.96l-1.824-.264q-.672-.096-1.044-.552-.372-.468-.372-1.224 0-.864.588-1.356.6-.492 1.644-.492h.528q.96 0 1.56.48.612.468.66 1.236h-1.092a.76.76 0 0 0-.336-.576q-.3-.228-.792-.228h-.528q-.552 0-.864.252a.83.83 0 0 0-.312.684q0 .696.636.792l1.704.24q1.68.24 1.68 1.968 0 .924-.612 1.44-.6.504-1.704.504zm15.314-.096q-.816 0-1.308-.468-.492-.48-.492-1.272v-3.876h-1.896v-.984h1.896v-1.86h1.08v1.86h2.7v.984h-2.7v3.876a.8.8 0 0 0 .192.552.7.7 0 0 0 .528.204h1.92V336zm6.535.096q-1.188 0-1.896-.696-.696-.696-.696-1.944v-1.512q0-1.26.696-1.944.696-.696 1.896-.696t1.896.696q.696.684.696 1.944v1.512q0 1.248-.708 1.944-.696.696-1.884.696m0-.96q.708 0 1.104-.396.408-.396.408-1.164v-1.752q0-.768-.408-1.164-.396-.396-1.104-.396-.696 0-1.104.396t-.408 1.164v1.752q0 .768.408 1.164t1.104.396m12.135.864v-6.6h1.08v1.26h.024q.084-.636.54-1.008t1.224-.372q1.032 0 1.584.624.564.612.564 1.752v.564h-1.08v-.564q0-1.44-1.404-1.44-.708 0-1.08.408t-.372 1.176v4.2zm9.451.12q-1.164 0-1.884-.696-.708-.708-.708-1.944v-1.56q0-1.236.708-1.932.72-.708 1.884-.708.78 0 1.356.312.588.312.912.876t.324 1.332v1.176h-4.128v.624q0 .732.42 1.164.42.42 1.116.42.6 0 .984-.228.396-.24.48-.636h1.08q-.108.828-.804 1.32-.696.48-1.74.48m-1.536-3.984h3.072v-.336q0-.78-.408-1.2-.396-.432-1.128-.432t-1.14.432q-.396.42-.396 1.2zm8.828 3.984q-1.2 0-1.92-.672t-.72-1.848v-1.8q0-1.176.72-1.848t1.92-.672q1.14 0 1.836.612.708.612.744 1.668h-1.08q-.036-.636-.432-.972-.396-.348-1.068-.348-.708 0-1.14.408-.42.396-.42 1.14v1.812q0 .744.42 1.152.432.408 1.14.408.672 0 1.068-.348t.432-.972h1.08q-.036 1.056-.744 1.668-.696.612-1.836.612m8.059-.12q-.876 0-1.404-.504-.516-.516-.516-1.356v-5.916h-2.28v-.984h3.36v6.9q0 .408.228.648.228.228.612.228h2.04V336zm5.659.12q-1.02 0-1.62-.564-.6-.576-.6-1.5 0-.612.276-1.068t.768-.708a2.35 2.35 0 0 1 1.128-.264h2.04v-.516q0-1.284-1.404-1.284-.624 0-1.008.228t-.408.636h-1.08q.06-.78.72-1.284.672-.516 1.776-.516 1.2 0 1.836.576.648.576.648 1.608V336h-1.068v-1.2h-.024a1.4 1.4 0 0 1-.612.972q-.516.348-1.368.348m.264-.912q.792 0 1.26-.384t.468-1.044v-.924h-1.92q-.528 0-.864.324-.324.312-.324.84 0 .552.36.876.372.312 1.02.312m4.928.792v-.984h2.34v-4.632h-2.1v-.984h3.18v5.616h2.22V336zm2.76-7.788q-.396 0-.624-.204a.7.7 0 0 1-.228-.552q0-.36.228-.564.228-.216.624-.216t.624.216q.228.204.228.564a.7.7 0 0 1-.228.552q-.228.204-.624.204m4.135 7.788v-6.6h.936v.876h.024q.06-.444.348-.72.3-.276.756-.276a1.1 1.1 0 0 1 .732.252q.3.252.432.684h.012q.084-.432.372-.684.3-.252.756-.252.636 0 1.008.48.384.468.384 1.224V336h-1.008v-5.028q0-.396-.192-.624a.64.64 0 0 0-.528-.24.64.64 0 0 0-.516.228q-.192.228-.192.624V336h-.888v-5.028q0-.396-.192-.624a.63.63 0 0 0-.516-.24q-.336 0-.528.228t-.192.624V336z"/><path fill="#cf2d56" fill-opacity=".8" d="m18.331 192-.99-6.05h.858l.616 4.268q.033.242.066.539.033.286.044.473.023-.187.044-.473.033-.297.077-.539l.759-4.268h.99l.759 4.268q.044.242.077.539.045.286.055.473l.055-.473q.033-.297.066-.539l.638-4.268h.814L22.225 192h-1.089l-.693-4.18a48 48 0 0 1-.088-.649 25 25 0 0 0-.055-.539 9 9 0 0 1-.055.539q-.044.341-.099.649L19.42 192zm8.037.11q-.936 0-1.485-.517-.55-.528-.55-1.375 0-.56.253-.979.252-.418.704-.649.45-.242 1.034-.242h1.87v-.473q0-1.177-1.287-1.177-.573 0-.924.209-.353.209-.374.583h-.99q.054-.715.66-1.177.615-.473 1.628-.473 1.1 0 1.683.528.594.528.594 1.474V192h-.98v-1.1h-.021a1.3 1.3 0 0 1-.561.891q-.474.32-1.254.319m.242-.836q.726 0 1.155-.352.429-.353.429-.957v-.847h-1.76q-.485 0-.792.297-.297.286-.297.77 0 .506.33.803.34.286.935.286m6.64.814q-1.013 0-1.574-.451-.55-.462-.55-1.298h.99q0 .418.297.66.297.231.836.231h.484q.551 0 .847-.242.309-.242.308-.682 0-.781-.715-.88l-1.672-.242q-.616-.088-.957-.506-.34-.429-.34-1.122 0-.792.538-1.243.551-.451 1.507-.451h.484q.88 0 1.43.44.561.43.605 1.133h-1a.7.7 0 0 0-.309-.528q-.274-.209-.726-.209h-.484q-.505 0-.792.231a.76.76 0 0 0-.286.627q0 .638.583.726l1.562.22q1.54.22 1.54 1.804 0 .847-.56 1.32-.55.462-1.563.462zm7.442-.088q-.748 0-1.199-.429-.45-.44-.45-1.166v-3.553h-1.739v-.902h1.738v-1.705h.99v1.705h2.475v.902h-2.475v3.553q0 .308.176.506a.65.65 0 0 0 .484.187h1.76V192zm5.99.11q-1.065 0-1.726-.638-.65-.65-.65-1.782v-1.43q0-1.133.65-1.771.66-.65 1.727-.649.715 0 1.243.286.54.286.836.803.297.518.297 1.221v1.078h-3.784v.572q0 .67.385 1.067.386.385 1.023.385.55 0 .902-.209.363-.22.44-.583h.99a1.7 1.7 0 0 1-.737 1.21q-.638.44-1.595.44m-1.407-3.652h2.816v-.308q0-.715-.374-1.1-.363-.396-1.034-.396t-1.045.396q-.363.385-.363 1.1zm8.004-.99q-.452 0-.683-.22-.23-.22-.23-.594 0-.373.23-.594.232-.22.683-.22.45 0 .681.22t.231.594q0 .373-.23.594-.232.22-.682.22m0 4.642q-.452 0-.683-.22-.23-.22-.23-.594 0-.373.23-.594.232-.22.683-.22.45 0 .681.22t.231.594-.23.594q-.232.22-.682.22m12.839-.11-2.08-3.63v-.484h.243q.583 0 .979-.11.407-.11.638-.363.231-.254.275-.693H64.04v-.704h2.123a1.3 1.3 0 0 0-.308-.66 1.33 1.33 0 0 0-.627-.385 3.2 3.2 0 0 0-.946-.121h-.242v-.704h4.554v.704h-2.08a1.8 1.8 0 0 1 .419.495q.165.286.209.671h1.452v.704h-1.43q-.077.802-.616 1.254-.528.44-1.408.561l2.1 3.465zm6.526.11q-1.111 0-1.76-.616-.65-.627-.65-1.694h.99q.001.66.386 1.045t1.045.385 1.045-.385.385-1.045v-.55q0-.66-.385-1.045t-1.045-.385h-.87v-.858l1.97-2.09h-3.3v-.902h4.422v.924l-1.936 2.057q.99.077 1.562.693.572.605.572 1.606v.55q0 1.067-.66 1.694-.65.616-1.771.616m5.727 1.65.605-3.366h1.188l-.77 3.366zm7.52-1.65q-1.112 0-1.76-.616-.65-.627-.65-1.694h.99q0 .66.385 1.045t1.045.385 1.045-.385.385-1.045v-.495q0-.66-.374-1.045t-1.012-.385h-2.189v-3.905h4.28v.902H84.68l.022 2.101H86q1.11 0 1.716.616.606.605.605 1.716v.495q0 1.067-.66 1.694-.649.616-1.77.616m4.351-.11v-.902h2.178v-6.27l-2.178 1.628v-1.133l1.815-1.353h1.353v7.128h1.782V192zm10.006 0v-1.76h-3.63v-1.551l2.926-4.719h1.122l-3.058 4.939v.429h2.64v-1.958h.99V192zm3.02 1.21 3.905-10.34h1.045l-3.905 10.34zm6.431-1.21v-6.05h.858v.803h.022q.055-.406.319-.66a.98.98 0 0 1 .693-.253q.396 0 .671.231t.396.627h.011q.077-.396.341-.627.275-.231.693-.231.584 0 .924.44.352.429.352 1.122V192h-.924v-4.609q0-.363-.176-.572a.59.59 0 0 0-.484-.22.59.59 0 0 0-.473.209q-.176.209-.176.572V192h-.814v-4.609q0-.363-.176-.572a.57.57 0 0 0-.473-.22.6.6 0 0 0-.484.209q-.176.209-.176.572V192zm9.236.088q-1.09 0-1.738-.638-.638-.638-.638-1.782v-1.386q0-1.155.638-1.782.637-.638 1.738-.638t1.738.638q.638.627.638 1.782v1.386q0 1.144-.649 1.782-.638.638-1.727.638m0-.88q.648 0 1.012-.363.374-.363.374-1.067v-1.606q0-.704-.374-1.067-.364-.363-1.012-.363-.639 0-1.012.363-.374.363-.374 1.067v1.606q0 .704.374 1.067.373.363 1.012.363M18.331 298l-.99-6.05h.858l.616 4.268q.033.242.066.539.033.286.044.473.023-.187.044-.473.033-.297.077-.539l.759-4.268h.99l.759 4.268q.044.242.077.539.045.286.055.473l.055-.473q.033-.297.066-.539l.638-4.268h.814L22.225 298h-1.089l-.693-4.18a48 48 0 0 1-.088-.649 25 25 0 0 0-.055-.539 9 9 0 0 1-.055.539q-.044.341-.099.649L19.42 298zm8.037.11q-.936 0-1.485-.517-.55-.528-.55-1.375 0-.56.253-.979.252-.418.704-.649.45-.242 1.034-.242h1.87v-.473q0-1.177-1.287-1.177-.573 0-.924.209-.353.209-.374.583h-.99q.054-.715.66-1.177.615-.473 1.628-.473 1.1 0 1.683.528.594.528.594 1.474V298h-.98v-1.1h-.021a1.3 1.3 0 0 1-.561.891q-.474.32-1.254.319m.242-.836q.726 0 1.155-.352t.429-.957v-.847h-1.76q-.485 0-.792.297-.297.286-.297.77 0 .506.33.803.34.286.935.286m6.64.814q-1.013 0-1.574-.451-.55-.462-.55-1.298h.99q0 .419.297.66.297.231.836.231h.484q.551 0 .847-.242.309-.242.308-.682 0-.781-.715-.88l-1.672-.242q-.616-.088-.957-.506-.34-.429-.34-1.122 0-.792.538-1.243.551-.451 1.507-.451h.484q.88 0 1.43.44.561.43.605 1.133h-1a.7.7 0 0 0-.309-.528q-.274-.209-.726-.209h-.484q-.505 0-.792.231a.76.76 0 0 0-.286.627q0 .637.583.726l1.562.22q1.54.22 1.54 1.804 0 .848-.56 1.32-.55.462-1.563.462zm7.442-.088q-.748 0-1.199-.429-.45-.44-.45-1.166v-3.553h-1.739v-.902h1.738v-1.705h.99v1.705h2.475v.902h-2.475v3.553q0 .308.176.506a.65.65 0 0 0 .484.187h1.76V298zm5.99.11q-1.065 0-1.726-.638-.65-.65-.65-1.782v-1.43q0-1.133.65-1.771.66-.65 1.727-.649.715 0 1.243.286.54.286.836.803.297.518.297 1.221v1.078h-3.784v.572q0 .67.385 1.067.386.385 1.023.385.55 0 .902-.209.363-.22.44-.583h.99a1.7 1.7 0 0 1-.737 1.21q-.638.44-1.595.44m-1.407-3.652h2.816v-.308q0-.715-.374-1.1-.363-.396-1.034-.396t-1.045.396q-.363.385-.363 1.1zm8.004-.99q-.452 0-.683-.22-.23-.22-.23-.594t.23-.594.683-.22.681.22q.231.22.231.594t-.23.594q-.232.22-.682.22m0 4.642q-.452 0-.683-.22-.23-.22-.23-.594t.23-.594.683-.22.681.22q.231.22.231.594 0 .373-.23.594-.232.22-.682.22m12.839-.11-2.08-3.63v-.484h.243q.583 0 .979-.11.407-.11.638-.363t.275-.693H64.04v-.704h2.123a1.3 1.3 0 0 0-.308-.66 1.33 1.33 0 0 0-.627-.385 3.2 3.2 0 0 0-.946-.121h-.242v-.704h4.554v.704h-2.08a1.8 1.8 0 0 1 .419.495q.165.286.209.671h1.452v.704h-1.43q-.077.803-.616 1.254-.528.44-1.408.561l2.1 3.465zm7.747 0v-1.76h-3.63v-1.551l2.926-4.719h1.122l-3.058 4.939v.429h2.64v-1.958h.99V298zm4.506 1.76.605-3.366h1.188l-.77 3.366zm7.52-1.65q-1.112 0-1.76-.616-.65-.627-.65-1.694h.99q0 .66.385 1.045t1.045.385 1.045-.385.385-1.045v-.495q0-.66-.374-1.045t-1.012-.385h-2.189v-3.905h4.28v.902H84.68l.022 2.101H86q1.11 0 1.716.616.606.605.605 1.716v.495q0 1.067-.66 1.694-.649.616-1.77.616m5.506-.11 1.98-3.443-.033-.022q-.11.176-.407.286a2 2 0 0 1-.649.099q-.693 0-1.221-.308a2.27 2.27 0 0 1-.814-.869q-.297-.55-.297-1.276 0-.781.33-1.364t.913-.913 1.342-.33q.78 0 1.364.33.583.319.913.902.33.572.33 1.331 0 .528-.198 1.089a7.6 7.6 0 0 1-.539 1.155L92.552 298zm1.155-3.85q.716 0 1.155-.473.45-.473.451-1.232 0-.76-.451-1.232-.44-.473-1.155-.473t-1.166.473q-.44.473-.44 1.232 0 .76.44 1.232.451.473 1.166.473m6.607 3.96q-.77 0-1.364-.319a2.4 2.4 0 0 1-.913-.902q-.33-.583-.33-1.342 0-.528.198-1.078.198-.561.539-1.166l1.859-3.333h1.1l-1.98 3.443.033.022a.9.9 0 0 1 .429-.286q.286-.099.627-.099.715 0 1.243.319.539.308.836.858.308.55.308 1.276 0 .77-.33 1.364-.33.583-.913.913-.573.33-1.342.33m-.011-.88q.714 0 1.155-.473.45-.473.451-1.232 0-.76-.451-1.232-.441-.473-1.155-.473-.716 0-1.166.473-.44.473-.44 1.232 0 .76.44 1.232.45.473 1.166.473m4.12 1.98 3.905-10.34h1.045l-3.905 10.34zm6.431-1.21v-6.05h.858v.803h.022q.055-.406.319-.66a.98.98 0 0 1 .693-.253q.396 0 .671.231t.396.627h.011q.077-.396.341-.627.275-.231.693-.231.584 0 .924.44.352.429.352 1.122V298h-.924v-4.609q0-.363-.176-.572a.59.59 0 0 0-.484-.22.59.59 0 0 0-.473.209q-.176.209-.176.572V298h-.814v-4.609q0-.363-.176-.572a.57.57 0 0 0-.473-.22.6.6 0 0 0-.484.209q-.176.209-.176.572V298zm9.236.088q-1.09 0-1.738-.638-.638-.637-.638-1.782v-1.386q0-1.155.638-1.782.637-.638 1.738-.638t1.738.638q.638.627.638 1.782v1.386q0 1.144-.649 1.782-.638.638-1.727.638m0-.88q.648 0 1.012-.363.374-.363.374-1.067v-1.606q0-.704-.374-1.067-.364-.363-1.012-.363-.639 0-1.012.363-.374.363-.374 1.067v1.606q0 .704.374 1.067.373.363 1.012.363M18.452 336l-1.08-6.6h.936l.672 4.656q.036.264.072.588.036.312.048.516.024-.204.048-.516.036-.324.084-.588l.828-4.656h1.08l.828 4.656q.048.264.084.588.048.312.06.516l.06-.516q.036-.324.072-.588l.696-4.656h.888L22.7 336h-1.188l-.756-4.56q-.048-.336-.096-.708a27 27 0 0 0-.06-.588 10 10 0 0 1-.06.588q-.048.372-.108.708L19.64 336zm8.767.12q-1.02 0-1.62-.564-.6-.576-.6-1.5 0-.612.276-1.068t.768-.708a2.35 2.35 0 0 1 1.128-.264h2.04v-.516q0-1.284-1.404-1.284-.624 0-1.008.228t-.408.636h-1.08q.06-.78.72-1.284.672-.516 1.776-.516 1.2 0 1.836.576.648.576.648 1.608V336h-1.068v-1.2H29.2a1.4 1.4 0 0 1-.612.972q-.516.348-1.368.348m.264-.912q.792 0 1.26-.384t.468-1.044v-.924h-1.92q-.528 0-.864.324-.324.312-.324.84 0 .552.36.876.372.312 1.02.312m7.244.888q-1.104 0-1.716-.492-.6-.504-.6-1.416h1.08q0 .456.324.72.324.252.912.252h.528q.6 0 .924-.264.336-.264.336-.744 0-.852-.78-.96l-1.824-.264q-.672-.096-1.044-.552-.372-.468-.372-1.224 0-.864.588-1.356.6-.492 1.644-.492h.528q.96 0 1.56.48.612.468.66 1.236h-1.092a.76.76 0 0 0-.336-.576q-.3-.228-.792-.228h-.528q-.552 0-.864.252a.83.83 0 0 0-.312.684q0 .696.636.792l1.704.24q1.68.24 1.68 1.968 0 .924-.612 1.44-.6.504-1.704.504zm8.119-.096q-.816 0-1.308-.468-.492-.48-.492-1.272v-3.876H39.15v-.984h1.896v-1.86h1.08v1.86h2.7v.984h-2.7v3.876a.8.8 0 0 0 .192.552.7.7 0 0 0 .528.204h1.92V336zm6.535.12q-1.164 0-1.884-.696-.708-.708-.708-1.944v-1.56q0-1.236.708-1.932.72-.708 1.884-.708.78 0 1.356.312.588.312.912.876t.324 1.332v1.176h-4.128v.624q0 .732.42 1.164.42.42 1.116.42.6 0 .984-.228.396-.24.48-.636h1.08q-.108.828-.804 1.32-.696.48-1.74.48m-1.536-3.984h3.072v-.336q0-.78-.408-1.2-.396-.432-1.128-.432t-1.14.432q-.396.42-.396 1.2zm8.732-1.08q-.492 0-.744-.24t-.252-.648.252-.648.744-.24.744.24.252.648-.252.648-.744.24m0 5.064q-.492 0-.744-.24t-.252-.648.252-.648.744-.24.744.24.252.648-.252.648-.744.24"/><path fill="#3fb950" d="M26.817 80.176A.6.6 0 0 1 27 80.6a.6.6 0 0 1-.183.424l-6.052 5.8a.64.64 0 0 1-.442.176.64.64 0 0 1-.442-.175l-2.713-2.6a.587.587 0 0 1 .015-.835.64.64 0 0 1 .87-.014l2.27 2.176 5.61-5.377a.64.64 0 0 1 .442-.175.64.64 0 0 1 .442.175"/><mask id="a" fill="#fff"><path d="M0 9a9 9 0 0 1 9-9h492a9 9 0 0 1 9 9v17H0z"/></mask><path fill="#1b1913" d="M0 9a9 9 0 0 1 9-9h492a9 9 0 0 1 9 9v17H0z"/><path fill="#fff" fill-opacity=".06" d="M0 0h510zm510 27H0v-2h510zM0 26V0zM510 0v26z" mask="url(#a)"/><path fill="#edecec" fill-opacity=".2" d="M8 12.5a5 5 0 1 1 10 0 5 5 0 0 1-10 0m16 0a5 5 0 1 1 10 0 5 5 0 0 1-10 0m16 0a5 5 0 1 1 10 0 5 5 0 0 1-10 0"/></svg>