<svg xmlns="http://www.w3.org/2000/svg" width="510" height="239" fill="none" viewBox="0 0 510 239"><path fill="#14120b" d="M0 26h510v207a6 6 0 0 1-6 6H6a6 6 0 0 1-6-6z"/><path fill="#ececec" fill-opacity=".6" d="m21.13 59 1.431-8.727h1.023L22.152 59zm-3.951-2.335.166-1.023h6.614l-.166 1.023zM18.061 59l1.432-8.727h1.023L19.084 59zm-.375-5.37.166-1.022h6.614l-.166 1.023zm12.892 5.515q-.622 0-1.125-.23a1.9 1.9 0 0 1-.797-.678q-.29-.442-.29-1.086 0-.555.213-.912.213-.358.575-.567.363-.209.81-.316.447-.106.912-.161l.955-.111q.366-.046.532-.15.166-.1.166-.332v-.03q0-.558-.315-.865-.31-.306-.929-.306-.643 0-1.014.285a1.53 1.53 0 0 0-.507.627l-1.198-.273q.214-.597.623-.963.413-.37.95-.537.536-.17 1.13-.17.391 0 .83.093.444.09.827.332.387.243.635.695.246.447.247 1.163V59h-1.244v-.895h-.052a1.8 1.8 0 0 1-.37.486q-.248.238-.635.396a2.5 2.5 0 0 1-.93.158m.277-1.023q.528 0 .903-.209.38-.208.576-.545.2-.34.2-.729v-.844a.7.7 0 0 1-.264.128 4 4 0 0 1-.44.098q-.247.039-.48.073l-.393.05a3 3 0 0 0-.678.159q-.302.11-.485.32-.18.204-.18.545 0 .473.35.715.35.24.89.24m8.796-1.837v-3.83h1.279V59h-1.253v-1.133h-.068q-.225.523-.725.873-.495.345-1.231.345-.63 0-1.117-.277a1.95 1.95 0 0 1-.758-.83q-.273-.55-.273-1.36v-4.163h1.274v4.01q0 .667.37 1.065.372.396.964.396.358 0 .712-.179a1.5 1.5 0 0 0 .592-.541q.239-.362.234-.92m6.046-3.83v1.022H42.12v-1.022zm-2.616-1.569h1.274v6.192q0 .37.11.558a.58.58 0 0 0 .286.252q.18.064.388.064.153 0 .268-.022l.18-.034.23 1.053a2.5 2.5 0 0 1-.827.136 2.2 2.2 0 0 1-.938-.179 1.6 1.6 0 0 1-.703-.58q-.268-.39-.268-.984zm5.44 4.228V59h-1.274v-8.727h1.257v3.247h.081a1.9 1.9 0 0 1 .703-.84q.474-.31 1.236-.31.674 0 1.176.276.508.277.784.827.282.546.282 1.364V59H51.49v-4.01q0-.72-.371-1.116-.37-.402-1.032-.401-.45 0-.81.192a1.4 1.4 0 0 0-.557.562q-.2.367-.2.887m9.801-.354v1.104h-3.869V54.76zm6.603-.707-1.154.204a1.4 1.4 0 0 0-.23-.422 1.14 1.14 0 0 0-.418-.328 1.5 1.5 0 0 0-.66-.128q-.542 0-.904.243-.362.24-.362.618 0 .328.243.529.243.2.784.328l1.04.238q.902.21 1.346.644t.443 1.129q0 .588-.34 1.048-.338.456-.942.716-.601.26-1.394.26-1.099 0-1.794-.469-.694-.472-.852-1.342l1.231-.187q.116.48.473.728.358.243.934.243.626 0 1.001-.26.375-.264.375-.643a.67.67 0 0 0-.23-.516q-.225-.21-.695-.315l-1.108-.243q-.915-.21-1.355-.665-.435-.456-.434-1.155 0-.579.323-1.014.325-.435.895-.677.571-.248 1.309-.248 1.06 0 1.67.46.61.456.805 1.224m4.35 5.08q-.967 0-1.666-.414a2.8 2.8 0 0 1-1.074-1.172q-.375-.759-.375-1.777 0-1.006.375-1.773.38-.766 1.057-1.197.681-.43 1.594-.43.554 0 1.074.183a2.6 2.6 0 0 1 .933.575q.413.391.652 1.018.239.623.239 1.513v.452H66.88v-.955h3.955a1.9 1.9 0 0 0-.205-.89 1.55 1.55 0 0 0-.575-.618 1.6 1.6 0 0 0-.86-.226q-.538 0-.938.264-.396.26-.614.682a2 2 0 0 0-.213.908v.745q0 .657.23 1.117.234.46.652.703.418.239.976.239.363 0 .66-.103.3-.106.516-.315a1.4 1.4 0 0 0 .332-.516l1.206.218q-.145.533-.52.933a2.5 2.5 0 0 1-.933.618 3.5 3.5 0 0 1-1.274.217M73.497 59v-6.545h1.232v1.04h.068q.18-.53.63-.832a1.8 1.8 0 0 1 1.032-.306 5 5 0 0 1 .541.03v1.218a2 2 0 0 0-.273-.047q-.195-.03-.392-.03-.451 0-.805.192a1.43 1.43 0 0 0-.759 1.283V59zm10.404-6.545L81.528 59h-1.364l-2.378-6.545h1.368l1.658 5.037h.068l1.653-5.037zM85.1 59v-6.545h1.274V59zm.643-7.555a.8.8 0 0 1-.57-.222.72.72 0 0 1-.235-.537q0-.316.234-.537.24-.226.571-.226.332 0 .567.226.239.222.239.537 0 .311-.24.537a.8.8 0 0 1-.566.222m5.102 7.687q-.95 0-1.636-.43a2.85 2.85 0 0 1-1.049-1.198q-.366-.762-.366-1.747 0-.997.375-1.76.375-.766 1.057-1.197.681-.43 1.606-.43.746 0 1.33.276.584.273.942.767.362.495.43 1.155h-1.24a1.5 1.5 0 0 0-.469-.792q-.362-.333-.971-.333-.533 0-.934.281-.396.278-.617.793-.222.511-.222 1.21 0 .717.217 1.236.218.52.614.806.4.285.942.285.362 0 .656-.132.299-.136.498-.388a1.46 1.46 0 0 0 .286-.605h1.24a2.4 2.4 0 0 1-.413 1.133 2.4 2.4 0 0 1-.925.785q-.576.285-1.35.285m6.873 0q-.967 0-1.667-.413a2.8 2.8 0 0 1-1.073-1.172q-.375-.759-.375-1.777 0-1.006.375-1.773.379-.766 1.056-1.197.682-.43 1.594-.43.554 0 1.074.183a2.6 2.6 0 0 1 .933.575q.414.391.652 1.018.239.623.239 1.513v.452h-5.203v-.955h3.954a1.9 1.9 0 0 0-.204-.89 1.55 1.55 0 0 0-.576-.618 1.6 1.6 0 0 0-.86-.226q-.536 0-.938.264-.396.26-.613.682a2 2 0 0 0-.214.908v.745q0 .657.23 1.117.235.46.653.703.417.239.975.239.363 0 .66-.103.3-.106.517-.315a1.4 1.4 0 0 0 .332-.516l1.206.218q-.145.533-.52.933a2.5 2.5 0 0 1-.933.618 3.5 3.5 0 0 1-1.274.217m7.768-3.754q0-1.602.422-2.949a8.8 8.8 0 0 1 1.231-2.484h1.168q-.315.42-.588 1.035-.273.614-.477 1.347-.205.729-.32 1.513a10.5 10.5 0 0 0 .085 3.592q.2 1.04.542 1.93.34.89.758 1.453h-1.168a8.8 8.8 0 0 1-1.231-2.484q-.422-1.347-.422-2.953m4.165 6.077v-9h1.244v1.06H111q.111-.204.32-.472.208-.27.58-.47.37-.204.98-.204.793 0 1.414.4.622.402.976 1.156.358.754.358 1.815t-.353 1.82q-.354.753-.972 1.163-.618.405-1.411.405-.596 0-.975-.2a1.9 1.9 0 0 1-.589-.47 3.6 3.6 0 0 1-.328-.477h-.076v3.474zm1.248-5.728q0 .69.2 1.21t.58.814q.379.29.929.29.572 0 .954-.302.384-.307.58-.831.2-.525.2-1.18 0-.649-.196-1.164a1.8 1.8 0 0 0-.579-.814q-.384-.298-.959-.298-.554 0-.938.285-.378.285-.575.797t-.196 1.193M117.056 59v-6.545h1.231v1.04h.068q.18-.53.631-.832a1.8 1.8 0 0 1 1.031-.306 6 6 0 0 1 .542.03v1.218a2 2 0 0 0-.273-.047 3 3 0 0 0-.392-.03q-.452 0-.806.192a1.43 1.43 0 0 0-.758 1.283V59zm7.128.132q-.92 0-1.607-.422a2.85 2.85 0 0 1-1.065-1.18q-.38-.759-.379-1.773 0-1.019.379-1.781a2.84 2.84 0 0 1 1.065-1.185q.686-.422 1.607-.422t1.606.422q.687.422 1.066 1.185.38.762.379 1.781 0 1.014-.379 1.773-.38.758-1.066 1.18-.685.422-1.606.422m.004-1.07q.596 0 .989-.315.391-.315.579-.84.192-.524.192-1.154 0-.627-.192-1.15a1.9 1.9 0 0 0-.579-.849q-.392-.32-.989-.32-.6 0-.997.32a1.9 1.9 0 0 0-.584.848q-.187.525-.187 1.15 0 .631.187 1.156.192.524.584.84.397.315.997.315m6.92 1.066q-.793 0-1.415-.405-.618-.409-.972-1.163-.35-.76-.349-1.82 0-1.06.353-1.815.359-.754.981-1.155.622-.4 1.41-.4.61 0 .98.204.375.2.58.469.209.268.324.473h.076v-3.243h1.274V59h-1.244v-1.019H133q-.115.21-.333.478a1.85 1.85 0 0 1-.588.469q-.375.2-.971.2m.281-1.087q.55 0 .929-.29.384-.294.579-.813.201-.52.201-1.21a3.3 3.3 0 0 0-.196-1.194 1.76 1.76 0 0 0-.576-.797q-.379-.285-.937-.285-.575 0-.959.298t-.58.814a3.3 3.3 0 0 0-.191 1.163q0 .657.196 1.18.196.525.579.832.388.302.955.302m7.23-2.663q0 1.605-.422 2.953a8.8 8.8 0 0 1-1.231 2.484h-1.168q.317-.42.588-1.035.273-.614.478-1.343.204-.732.319-1.517t.115-1.542q0-1.01-.2-2.05a11.5 11.5 0 0 0-.541-1.93q-.34-.89-.759-1.453h1.168q.81 1.137 1.231 2.484t.422 2.949m16.404-.618v1.104h-12V54.76zm8.938-.707-1.155.204a1.4 1.4 0 0 0-.23-.422 1.15 1.15 0 0 0-.418-.328 1.5 1.5 0 0 0-.66-.128q-.541 0-.904.243-.362.24-.362.618 0 .328.243.529.243.2.784.328l1.04.238q.903.21 1.346.644t.443 1.129q0 .588-.34 1.048-.337.456-.942.716-.601.26-1.394.26-1.1 0-1.794-.469-.695-.472-.852-1.342l1.232-.187q.114.48.473.728.357.243.933.243.626 0 1.001-.26.375-.264.375-.643a.67.67 0 0 0-.23-.516q-.225-.21-.695-.315l-1.107-.243q-.916-.21-1.356-.665-.434-.456-.434-1.155 0-.579.324-1.014t.894-.677a3.3 3.3 0 0 1 1.309-.248q1.06 0 1.67.46.61.456.806 1.224m3.433 5.092q-.623 0-1.125-.23a1.9 1.9 0 0 1-.797-.678q-.29-.442-.289-1.086 0-.555.213-.912.213-.358.575-.567t.81-.316.911-.161l.955-.111q.366-.046.533-.15.166-.1.166-.332v-.03q0-.558-.315-.865-.312-.306-.929-.306-.643 0-1.015.285a1.53 1.53 0 0 0-.507.627l-1.197-.273a2.3 2.3 0 0 1 .622-.963q.414-.37.95-.537.537-.17 1.13-.17.392 0 .83.093.444.09.827.332.388.243.635.695.247.447.247 1.163V59h-1.244v-.895h-.051a1.8 1.8 0 0 1-.371.486q-.247.238-.635.396a2.5 2.5 0 0 1-.929.158m.277-1.023q.529 0 .904-.209a1.47 1.47 0 0 0 .575-.545q.2-.34.2-.729v-.844q-.067.069-.264.128-.192.056-.439.098l-.482.073-.392.05a3 3 0 0 0-.677.159 1.16 1.16 0 0 0-.486.32q-.179.204-.179.545 0 .473.35.715.348.24.89.24m10.015-5.667L175.313 59h-1.364l-2.378-6.545h1.368l1.658 5.037h.068l1.654-5.037zm3.796 6.677q-.967 0-1.666-.413a2.8 2.8 0 0 1-1.074-1.172q-.375-.759-.375-1.777 0-1.006.375-1.773.38-.766 1.057-1.197.682-.43 1.594-.43.554 0 1.074.183.519.183.933.575.413.391.652 1.018.238.623.238 1.513v.452h-5.203v-.955h3.955q0-.503-.205-.89a1.55 1.55 0 0 0-.575-.618 1.6 1.6 0 0 0-.861-.226q-.537 0-.937.264-.396.26-.614.682a2 2 0 0 0-.213.908v.745q0 .657.23 1.117.234.46.652.703.418.239.976.239.363 0 .661-.103.297-.106.515-.315.217-.21.333-.516l1.206.218q-.145.533-.52.933a2.5 2.5 0 0 1-.934.618 3.5 3.5 0 0 1-1.274.217m12.797-6.763-.298 1.053h-5.587l.298-1.053zM191.56 59l-3.051-3.703-.008-.831h1.512q.567 0 .959-.175.393-.174.597-.507.204-.336.204-.818 0-.716-.426-1.138-.425-.422-1.334-.422h-1.619l.311-1.133h1.308q1.058 0 1.743.336.687.337 1.023.934.337.596.337 1.376 0 .695-.277 1.257-.278.562-.882.916-.606.354-1.59.414l-.038.008 2.787 3.414V59zm2.723-8.727-.302 1.06-4.466-.025.302-1.035zm4.228 8.846q-.878 0-1.569-.302a2.66 2.66 0 0 1-1.086-.84 2.23 2.23 0 0 1-.426-1.253h1.338q.025.388.26.674.238.28.622.434t.852.154q.516 0 .912-.18.4-.178.626-.498.226-.324.226-.745 0-.44-.226-.772a1.47 1.47 0 0 0-.652-.528q-.425-.192-1.031-.192h-.737v-1.074h.737q.486 0 .853-.175.37-.174.579-.485.209-.315.209-.738 0-.405-.183-.703-.18-.302-.512-.473a1.66 1.66 0 0 0-.775-.17q-.426 0-.797.157-.366.154-.597.444a1.14 1.14 0 0 0-.247.686h-1.274q.02-.708.418-1.245a2.7 2.7 0 0 1 1.056-.839 3.4 3.4 0 0 1 1.458-.303q.838 0 1.449.328.613.324.946.866.336.54.332 1.184.004.734-.409 1.245-.409.511-1.091.686v.068q.87.132 1.347.69.481.558.477 1.385.004.72-.401 1.291-.4.57-1.095.9-.695.323-1.589.323m6.113-1.312-.064.464q-.064.511-.218 1.066-.149.558-.311 1.035a29 29 0 0 1-.26.759h-.903l.153-.716q.099-.447.192-1.002.094-.553.141-1.129l.042-.477zm4.522 1.312a3.3 3.3 0 0 1-1.44-.306 2.6 2.6 0 0 1-1.015-.853 2.26 2.26 0 0 1-.404-1.236h1.278q.046.563.499.925.451.362 1.082.362.503 0 .891-.23.391-.234.613-.643.226-.41.226-.933a1.94 1.94 0 0 0-.23-.95 1.7 1.7 0 0 0-.635-.657 1.8 1.8 0 0 0-.92-.243q-.397 0-.797.137-.4.136-.648.357l-1.206-.178.49-4.398h4.798v1.129h-3.703l-.277 2.442h.051q.256-.247.678-.414.426-.165.912-.166a2.67 2.67 0 0 1 2.403 1.415q.363.653.358 1.5a2.9 2.9 0 0 1-.383 1.513 2.8 2.8 0 0 1-1.066 1.048q-.677.38-1.555.38m7.872-8.846V59h-1.321v-7.406h-.051l-2.088 1.363v-1.261l2.177-1.423zm2.177 7.022V56.23l3.772-5.957h.839v1.568h-.533l-2.697 4.27v.068h5.169v1.116zM223.333 59v-2.028l.009-.486v-6.213h1.248V59zm7.238-9.136-2.812 10.449h-1.138l2.812-10.45zM231.653 59v-6.545h1.223v1.065h.081q.206-.54.669-.844.465-.307 1.113-.307.656 0 1.099.307.448.307.661.844h.068q.235-.525.745-.835.512-.315 1.219-.316.89 0 1.453.559.567.558.567 1.683V59h-1.274v-4.27q0-.664-.362-.963a1.32 1.32 0 0 0-.865-.298q-.623 0-.968.383-.345.38-.345.976V59h-1.27v-4.35q0-.534-.332-.857-.333-.324-.865-.324-.363 0-.669.191-.303.188-.49.525a1.6 1.6 0 0 0-.183.78V59zm13.363.132q-.92 0-1.607-.422a2.85 2.85 0 0 1-1.065-1.18q-.38-.759-.379-1.773 0-1.019.379-1.781a2.84 2.84 0 0 1 1.065-1.185q.686-.422 1.607-.422t1.607.422 1.065 1.185q.38.762.379 1.781 0 1.014-.379 1.773-.38.758-1.065 1.18-.686.422-1.607.422m.004-1.07q.597 0 .989-.315t.579-.84q.192-.524.192-1.154 0-.627-.192-1.15a1.9 1.9 0 0 0-.579-.849q-.392-.32-.989-.32-.6 0-.997.32a1.9 1.9 0 0 0-.584.848q-.187.525-.187 1.15 0 .631.187 1.156.192.524.584.84.397.315.997.315"/><path fill="#22c55e" fill-opacity=".8" d="M18.163 79v-8.03h.99v4.477h1.166l1.76-2.497h1.133l-2.035 2.882L23.245 79H22.09l-1.76-2.695h-1.177V79zm8.84.11q-1.045 0-1.672-.616-.627-.627-.627-1.694v-3.85h.99v3.85q0 .682.352 1.067.352.374.957.374.615 0 .968-.374.363-.385.363-1.067v-3.85h.99v3.85q0 1.067-.638 1.694-.637.615-1.683.616m6.959 0q-.75 0-1.2-.396-.45-.407-.45-1.1l.198.231h-.198V79h-.99v-8.03h.99v1.76l-.022 1.375h.22l-.198.231q0-.682.45-1.089.463-.407 1.2-.407.912 0 1.463.605.55.605.55 1.65v1.771q0 1.035-.55 1.639t-1.463.605m-.33-.858q.627 0 .99-.374.363-.375.363-1.078v-1.65q0-.705-.363-1.078t-.99-.374q-.605 0-.968.385-.352.385-.352 1.067v1.65q0 .682.352 1.067.362.385.968.385m6.573.858q-.714 0-1.254-.286a2.07 2.07 0 0 1-.825-.803 2.5 2.5 0 0 1-.286-1.221v-1.65q0-.704.286-1.221a2.07 2.07 0 0 1 .825-.803q.54-.285 1.254-.286.715 0 1.243.286.54.285.825.803.297.517.297 1.221v1.067h-3.762v.583q0 .715.363 1.1.363.374 1.034.374.573 0 .924-.198a.87.87 0 0 0 .43-.616h.99q-.1.76-.749 1.21-.638.44-1.595.44m1.397-3.553v-.407q0-.715-.363-1.1-.352-.385-1.034-.385-.67 0-1.034.385-.363.385-.363 1.1v.319h2.871zm5.243 3.553q-.726 0-1.276-.275a2 2 0 0 1-.836-.792q-.297-.528-.297-1.243v-1.65q0-.726.297-1.243a2 2 0 0 1 .836-.792q.55-.275 1.276-.275 1.046 0 1.683.561.638.561.671 1.529h-.99q-.033-.584-.396-.891-.352-.32-.968-.319-.649 0-1.034.374-.385.363-.385 1.045V76.8q0 .682.385 1.056t1.034.374q.615 0 .968-.319.363-.32.396-.891h.99q-.033.968-.671 1.529-.637.561-1.683.561m7.212-.11q-.782 0-1.221-.418-.43-.418-.43-1.177v-3.553h-1.704v-.902h1.705v-1.705h.99v1.705h2.42v.902h-2.42v3.553q0 .693.66.693h1.65V79zm6.76 0q-.528 0-.924-.209a1.5 1.5 0 0 1-.616-.594 1.8 1.8 0 0 1-.22-.902v-5.423h-2.035v-.902h3.025v6.325q0 .374.21.594.209.21.56.209h1.925V79zm12.18.088q-.615 0-1.078-.187a1.84 1.84 0 0 1-.726-.55 1.7 1.7 0 0 1-.32-.836h.99a.77.77 0 0 0 .353.506q.297.187.78.187h.463q.582 0 .869-.231a.8.8 0 0 0 .286-.638q0-.385-.264-.605-.253-.231-.76-.308l-.813-.132q-.891-.154-1.331-.55-.43-.407-.43-1.177 0-.814.518-1.254.516-.45 1.55-.451h.419q.87 0 1.397.407.528.407.638 1.1h-.99a.7.7 0 0 0-.33-.451q-.264-.176-.715-.176h-.418q-.562 0-.825.209-.253.21-.253.627 0 .375.22.55t.693.253l.814.132q.98.154 1.419.572.45.418.45 1.21 0 .836-.538 1.32-.529.473-1.606.473zm6.782.022q-.714 0-1.254-.286a2.07 2.07 0 0 1-.825-.803 2.5 2.5 0 0 1-.285-1.221v-1.65q0-.704.285-1.221a2.07 2.07 0 0 1 .825-.803q.54-.285 1.254-.286.716 0 1.243.286.54.285.825.803.298.517.297 1.221v1.067h-3.762v.583q0 .715.364 1.1.362.374 1.034.374.57 0 .924-.198a.87.87 0 0 0 .428-.616h.99q-.099.76-.748 1.21-.637.44-1.594.44m1.398-3.553v-.407q0-.715-.364-1.1-.351-.385-1.034-.385-.67 0-1.033.385-.364.385-.364 1.1v.319h2.871zM87.035 79q-.78 0-1.22-.418-.43-.418-.43-1.177v-3.553H83.68v-.902h1.705v-1.705h.99v1.705h2.42v.902h-2.42v3.553q0 .693.66.693h1.65V79zm10.453 0v-6.05h.968v1.155h.23l-.318.715q0-.98.418-1.474.428-.506 1.265-.506.957 0 1.518.605.572.594.572 1.617v.363h-.99v-.275q0-.716-.352-1.089-.341-.385-.98-.385-.626 0-.99.385-.351.386-.351 1.089V79zm8.674.11q-.714 0-1.254-.286a2.07 2.07 0 0 1-.825-.803 2.5 2.5 0 0 1-.286-1.221v-1.65q0-.704.286-1.221a2.07 2.07 0 0 1 .825-.803q.54-.285 1.254-.286.715 0 1.243.286.54.285.825.803.297.517.297 1.221v1.067h-3.762v.583q0 .715.363 1.1.363.374 1.034.374.573 0 .924-.198a.87.87 0 0 0 .429-.616h.99q-.099.76-.748 1.21-.638.44-1.595.44m1.397-3.553v-.407q0-.715-.363-1.1-.351-.385-1.034-.385-.67 0-1.034.385-.363.385-.363 1.1v.319h2.871zm5.012 3.531q-.616 0-1.078-.187a1.8 1.8 0 0 1-.726-.55 1.7 1.7 0 0 1-.319-.836h.99a.77.77 0 0 0 .352.506q.297.187.781.187h.462q.583 0 .869-.231a.8.8 0 0 0 .286-.638q0-.385-.264-.605-.254-.231-.759-.308l-.814-.132q-.891-.154-1.331-.55-.429-.407-.429-1.177 0-.814.517-1.254.517-.45 1.551-.451h.418q.869 0 1.397.407t.638 1.1h-.99a.7.7 0 0 0-.33-.451q-.264-.176-.715-.176h-.418q-.561 0-.825.209-.253.21-.253.627 0 .375.22.55t.693.253l.814.132q.98.154 1.419.572.451.418.451 1.21 0 .836-.539 1.32-.528.473-1.606.473zm6.783 0q-.726 0-1.254-.275a2 2 0 0 1-.825-.792q-.286-.528-.286-1.243v-1.606q0-.726.286-1.243.297-.517.825-.792t1.254-.275 1.254.275.814.792q.297.517.297 1.232v1.617q0 .715-.297 1.243a1.93 1.93 0 0 1-.814.792q-.528.275-1.254.275m0-.88q.648 0 1.012-.363.363-.363.363-1.067v-1.606q0-.704-.363-1.067-.364-.363-1.012-.363-.639 0-1.012.363-.363.363-.363 1.067v1.606q0 .705.363 1.067.373.363 1.012.363m6.584.902q-1.044 0-1.672-.616-.627-.627-.627-1.694v-3.85h.99v3.85q0 .682.352 1.067.353.374.957.374.617 0 .968-.374.363-.385.363-1.067v-3.85h.99v3.85q0 1.067-.638 1.694-.638.615-1.683.616m4.528-.11v-6.05h.968v1.155h.231l-.319.715q0-.98.418-1.474.43-.506 1.265-.506.957 0 1.518.605.572.594.572 1.617v.363h-.99v-.275q0-.716-.352-1.089-.341-.385-.979-.385-.627 0-.99.385-.352.386-.352 1.089V79zm8.719.11q-.726 0-1.276-.275a2 2 0 0 1-.836-.792q-.297-.528-.297-1.243v-1.65q0-.726.297-1.243t.836-.792q.55-.275 1.276-.275 1.044 0 1.683.561.638.561.671 1.529h-.99q-.033-.584-.396-.891-.353-.32-.968-.319-.65 0-1.034.374-.385.363-.385 1.045V76.8q0 .682.385 1.056.384.374 1.034.374.615 0 .968-.319.363-.32.396-.891h.99q-.033.968-.671 1.529-.639.561-1.683.561m6.552 0q-.715 0-1.254-.286a2.07 2.07 0 0 1-.825-.803q-.286-.528-.286-1.221v-1.65q0-.704.286-1.221a2.07 2.07 0 0 1 .825-.803q.538-.285 1.254-.286.715 0 1.243.286.538.285.825.803.297.517.297 1.221v1.067h-3.762v.583q0 .715.363 1.1.363.374 1.034.374.571 0 .924-.198a.88.88 0 0 0 .429-.616h.99q-.1.76-.748 1.21-.638.44-1.595.44m1.397-3.553v-.407q0-.715-.363-1.1-.353-.385-1.034-.385-.672 0-1.034.385-.363.385-.363 1.1v.319h2.871zm5.011 3.531q-.615 0-1.078-.187a1.85 1.85 0 0 1-.726-.55 1.7 1.7 0 0 1-.319-.836h.99a.78.78 0 0 0 .352.506q.298.187.781.187h.462q.584 0 .869-.231a.8.8 0 0 0 .286-.638q0-.385-.264-.605-.252-.231-.759-.308l-.814-.132q-.89-.154-1.331-.55-.429-.407-.429-1.177 0-.814.517-1.254.518-.45 1.551-.451h.418q.87 0 1.397.407.528.407.638 1.1h-.99a.7.7 0 0 0-.33-.451q-.264-.176-.715-.176h-.418q-.561 0-.825.209-.252.21-.253.627 0 .375.22.55t.693.253l.814.132q.98.154 1.419.572.451.418.451 1.21 0 .836-.539 1.32-.528.473-1.606.473zm13.027.022q-.903 0-1.463-.605-.55-.605-.55-1.639v-1.771q0-1.046.55-1.65.55-.605 1.463-.605.747 0 1.199.407.45.407.451 1.089l-.198-.231h.22l-.022-1.375v-1.76h.99V79h-.99v-1.155h-.198l.198-.231q0 .693-.451 1.1-.452.396-1.199.396m.33-.858q.615 0 .968-.385.352-.385.352-1.067v-1.65q0-.682-.352-1.067-.353-.385-.968-.385-.627 0-.99.374-.363.375-.363 1.078v1.65q0 .705.363 1.078t.99.374m6.617.858q-.714 0-1.254-.286a2.07 2.07 0 0 1-.825-.803 2.5 2.5 0 0 1-.286-1.221v-1.65q0-.704.286-1.221a2.07 2.07 0 0 1 .825-.803q.54-.285 1.254-.286.715 0 1.243.286.54.285.825.803.297.517.297 1.221v1.067h-3.762v.583q0 .715.363 1.1.363.374 1.034.374.573 0 .924-.198a.87.87 0 0 0 .429-.616h.99q-.099.76-.748 1.21-.638.44-1.595.44m1.397-3.553v-.407q0-.715-.363-1.1-.351-.385-1.034-.385-.67 0-1.034.385-.363.385-.363 1.1v.319h2.871zm2.911 5.423v-8.03h.99v1.155h.198l-.198.231q0-.693.451-1.089.462-.407 1.21-.407.913 0 1.452.605.55.594.55 1.639v1.771q0 .693-.253 1.199a1.8 1.8 0 0 1-.693.781q-.44.275-1.056.275-.737 0-1.199-.407t-.462-1.089l.198.231h-.22l.022 1.375v1.76zm2.321-2.728q.627 0 .979-.374.363-.375.363-1.078v-1.65q0-.705-.363-1.078-.352-.374-.979-.374-.605 0-.968.385t-.363 1.067v1.65q0 .682.363 1.067t.968.385m7.388.748q-.528 0-.924-.209a1.5 1.5 0 0 1-.616-.594 1.8 1.8 0 0 1-.22-.902v-5.423h-2.035v-.902h3.025v6.325q0 .374.209.594.209.21.561.209h1.925V79zm5.77.088q-.726 0-1.254-.275a2 2 0 0 1-.825-.792q-.285-.528-.286-1.243v-1.606q0-.726.286-1.243.297-.517.825-.792t1.254-.275 1.254.275q.529.275.814.792.297.517.297 1.232v1.617q0 .715-.297 1.243-.285.517-.814.792t-1.254.275m0-.88q.65 0 1.012-.363.363-.363.363-1.067v-1.606q0-.704-.363-1.067t-1.012-.363q-.637 0-1.012.363-.363.363-.363 1.067v1.606q0 .705.363 1.067.375.363 1.012.363m5.254 2.772.891-2.354-2.244-5.676h1.1l1.408 3.74q.077.187.143.451l.11.429.11-.429a5 5 0 0 1 .132-.451l1.32-3.74h1.067l-2.981 8.03zm5.364-1.98v-6.05h.869v.726h.198l-.154.264q0-.506.264-.803.275-.297.737-.297.506 0 .781.374t.275 1.056l-.297-.594h.462l-.209.264q0-.506.275-.803.286-.297.748-.297.572 0 .88.429.32.43.319 1.133V79h-.913v-4.609q0-.375-.165-.583-.155-.21-.462-.209a.59.59 0 0 0-.473.209q-.165.198-.165.572V79h-.792v-4.609q0-.385-.176-.583-.165-.21-.473-.209-.308 0-.462.209-.154.198-.154.572V79zm9.17.11q-.715 0-1.254-.286a2.07 2.07 0 0 1-.825-.803q-.286-.528-.286-1.221v-1.65q0-.704.286-1.221a2.07 2.07 0 0 1 .825-.803q.538-.285 1.254-.286.714 0 1.243.286.538.285.825.803.297.517.297 1.221v1.067h-3.762v.583q0 .715.363 1.1.363.374 1.034.374.571 0 .924-.198a.88.88 0 0 0 .429-.616h.99q-.1.76-.748 1.21-.638.44-1.595.44m1.397-3.553v-.407q0-.715-.363-1.1-.353-.385-1.034-.385-.672 0-1.034.385-.363.385-.363 1.1v.319h2.871zm2.91 3.443v-6.05h.99v1.155h.209l-.209.231q0-.715.429-1.1.429-.396 1.188-.396.913 0 1.452.561.54.561.539 1.529V79h-.99v-3.96q0-.65-.352-.99-.34-.352-.935-.352-.615 0-.979.374-.351.375-.352 1.078V79zm9.544 0q-.781 0-1.221-.418-.429-.418-.429-1.177v-3.553h-1.705v-.902h1.705v-1.705h.99v1.705h2.42v.902h-2.42v3.553q0 .693.66.693h1.65V79zm3.461 1.21 3.905-10.34h1.045l-3.905 10.34zm8.542-1.1q-.957 0-1.507-.484-.55-.495-.55-1.331 0-.847.55-1.331t1.485-.484h1.87v-.605q0-.561-.341-.858-.33-.308-.946-.308-.539 0-.902.231a.82.82 0 0 0-.418.605h-.99q.1-.78.737-1.243.639-.462 1.595-.462 1.046 0 1.65.539.606.54.605 1.463V79h-.968v-1.155h-.165l.165-.165q0 .66-.517 1.045-.506.385-1.353.385m.242-.781q.705 0 1.155-.352t.451-.902v-.858h-1.848q-.495 0-.781.275t-.286.748q0 .506.341.803.353.285.968.286m6.871.781q-1.045 0-1.672-.616-.627-.627-.627-1.694v-3.85h.99v3.85q0 .682.352 1.067.352.374.957.374.616 0 .968-.374.363-.385.363-1.067v-3.85h.99v3.85q0 1.067-.638 1.694-.637.615-1.683.616m7.267-.11q-.781 0-1.221-.418-.429-.418-.429-1.177v-3.553h-1.705v-.902h1.705v-1.705h.99v1.705h2.42v.902h-2.42v3.553q0 .693.66.693h1.65V79zm3.647 0v-8.03h.99v3.135h.209l-.209.231q0-.715.429-1.1.429-.396 1.188-.396.913 0 1.452.561.54.561.539 1.529V79h-.99v-3.96q0-.649-.352-1.001-.34-.363-.935-.363-.616 0-.979.385-.351.386-.352 1.089V79zm7.124-3.19v-.88h3.52v.88zm8.169 3.278q-.616 0-1.078-.187a1.8 1.8 0 0 1-.726-.55 1.7 1.7 0 0 1-.319-.836h.99a.77.77 0 0 0 .352.506q.297.187.781.187h.462q.583 0 .869-.231a.8.8 0 0 0 .286-.638q0-.385-.264-.605-.254-.231-.759-.308l-.814-.132q-.891-.154-1.331-.55-.429-.407-.429-1.177 0-.814.517-1.254.518-.45 1.551-.451h.418q.869 0 1.397.407t.638 1.1h-.99a.7.7 0 0 0-.33-.451q-.264-.176-.715-.176h-.418q-.561 0-.825.209-.253.21-.253.627 0 .375.22.55t.693.253l.814.132q.98.154 1.419.572.451.418.451 1.21 0 .836-.539 1.32-.528.473-1.606.473zm6.783.022q-.715 0-1.254-.286a2.07 2.07 0 0 1-.825-.803q-.286-.528-.286-1.221v-1.65q0-.704.286-1.221a2.07 2.07 0 0 1 .825-.803q.538-.285 1.254-.286.714 0 1.243.286.538.285.825.803.297.517.297 1.221v1.067h-3.762v.583q0 .715.363 1.1.363.374 1.034.374.572 0 .924-.198a.88.88 0 0 0 .429-.616h.99q-.1.76-.748 1.21-.638.44-1.595.44m1.397-3.553v-.407q0-.715-.363-1.1-.353-.385-1.034-.385-.671 0-1.034.385t-.363 1.1v.319h2.871zM282.167 79v-6.05h.968v1.155h.231l-.319.715q0-.98.418-1.474.43-.506 1.265-.506.957 0 1.518.605.573.594.572 1.617v.363h-.99v-.275q0-.716-.352-1.089-.34-.385-.979-.385-.627 0-.99.385-.351.386-.352 1.089V79zm8.004 0-2.024-6.05h1.012l1.342 4.07a18 18 0 0 1 .363 1.221l.154-.517.209-.704 1.309-4.07h1.001L291.513 79zm4.902 0v-.902h2.145v-4.246h-1.87v-.902h2.86v5.148h2.035V79zm2.53-7.139q-.363 0-.572-.187a.64.64 0 0 1-.209-.506q0-.33.209-.517.209-.198.572-.198t.572.198q.209.187.209.517 0 .319-.209.506-.21.187-.572.187m6.474 7.249q-.726 0-1.276-.275a2 2 0 0 1-.836-.792q-.297-.528-.297-1.243v-1.65q0-.726.297-1.243t.836-.792q.55-.275 1.276-.275 1.045 0 1.683.561t.671 1.529h-.99q-.033-.584-.396-.891-.351-.32-.968-.319-.648 0-1.034.374-.385.363-.385 1.045V76.8q0 .682.385 1.056.386.374 1.034.374.617 0 .968-.319.363-.32.396-.891h.99q-.032.968-.671 1.529-.638.561-1.683.561m6.552 0q-.715 0-1.254-.286a2.07 2.07 0 0 1-.825-.803q-.286-.528-.286-1.221v-1.65q0-.704.286-1.221a2.07 2.07 0 0 1 .825-.803q.538-.285 1.254-.286.715 0 1.243.286.538.285.825.803.297.517.297 1.221v1.067h-3.762v.583q0 .715.363 1.1.363.374 1.034.374.572 0 .924-.198a.87.87 0 0 0 .429-.616h.99q-.099.76-.748 1.21-.638.44-1.595.44m1.397-3.553v-.407q0-.715-.363-1.1-.352-.385-1.034-.385-.67 0-1.034.385-.363.385-.363 1.1v.319h2.871zm10.035.253v-.88h3.52v.88zm6.067 3.19v-6.05h.99v1.155h.209l-.209.231q0-.715.429-1.1.429-.396 1.188-.396.913 0 1.452.561.54.561.539 1.529V79h-.99v-3.96q0-.65-.352-.99-.34-.352-.935-.352-.616 0-.979.374-.351.375-.352 1.078V79zm13.192 1.98v-8.03h.99v1.155h.198l-.198.231q0-.693.451-1.089.462-.407 1.21-.407.912 0 1.452.605.55.594.55 1.639v1.771q0 .693-.253 1.199a1.8 1.8 0 0 1-.693.781q-.441.275-1.056.275-.738 0-1.199-.407t-.462-1.089l.198.231h-.22l.022 1.375v1.76zm2.321-2.728q.627 0 .979-.374.363-.375.363-1.078v-1.65q0-.705-.363-1.078-.352-.374-.979-.374-.606 0-.968.385-.363.385-.363 1.067v1.65q0 .682.363 1.067t.968.385m4.483.748v-6.05h.968v1.155h.231l-.319.715q0-.98.418-1.474.43-.506 1.265-.506.957 0 1.518.605.572.594.572 1.617v.363h-.99v-.275q0-.716-.352-1.089-.34-.385-.979-.385-.627 0-.99.385-.351.386-.352 1.089V79zm8.675.088q-.726 0-1.254-.275a2 2 0 0 1-.825-.792q-.286-.528-.286-1.243v-1.606q0-.726.286-1.243.297-.517.825-.792t1.254-.275 1.254.275.814.792q.297.517.297 1.232v1.617q0 .715-.297 1.243a1.93 1.93 0 0 1-.814.792q-.528.275-1.254.275m0-.88q.65 0 1.012-.363.363-.363.363-1.067v-1.606q0-.704-.363-1.067t-1.012-.363q-.638 0-1.012.363-.363.363-.363 1.067v1.606q0 .705.363 1.067.374.363 1.012.363m6.244.902q-.902 0-1.463-.605-.55-.605-.55-1.639v-1.771q0-1.046.55-1.65.55-.605 1.463-.605.747 0 1.199.407.45.407.451 1.089l-.198-.231h.22l-.022-1.375v-1.76h.99V79h-.99v-1.155h-.198l.198-.231q0 .693-.451 1.1-.452.396-1.199.396m.33-.858q.615 0 .968-.385.351-.385.352-1.067v-1.65q0-.682-.352-1.067-.353-.385-.968-.385-.627 0-.99.374-.363.375-.363 1.078v1.65q0 .705.363 1.078t.99.374m14.643 1.958-3.905-10.34h1.045l3.905 10.34zm-274.659 12.6v-.88h4.565v.88zm-5.555 0v-.88h4.565v.88zM110.68 96v-6.05h.968v1.155h.231l-.319.715q0-.98.418-1.474.43-.506 1.265-.506.957 0 1.518.605.572.594.572 1.617v.363h-.99v-.275q0-.716-.352-1.089-.341-.385-.979-.385-.627 0-.99.385-.352.386-.352 1.089V96zm8.675.11q-.716 0-1.254-.286a2.07 2.07 0 0 1-.825-.803q-.286-.528-.286-1.221v-1.65q0-.704.286-1.221a2.07 2.07 0 0 1 .825-.803q.538-.286 1.254-.286.715 0 1.243.286.538.285.825.803.297.517.297 1.221v1.067h-3.762v.583q0 .715.363 1.1.362.375 1.034.374.571 0 .924-.198a.88.88 0 0 0 .429-.616h.99q-.1.76-.748 1.21-.639.44-1.595.44m1.397-3.553v-.407q0-.715-.363-1.1-.353-.385-1.034-.385-.671 0-1.034.385t-.363 1.1v.319h2.871zm6.496 5.423v-1.76l.022-1.375h-.22l.198-.231q0 .682-.451 1.089-.45.407-1.199.407-.912 0-1.452-.605-.528-.605-.528-1.65v-1.771q0-1.045.539-1.639.54-.605 1.441-.605.749 0 1.199.407.451.396.451 1.089l-.198-.231h.198V89.95h.99v8.03zm-1.32-2.728q.617 0 .968-.385.352-.385.352-1.067v-1.65q0-.682-.352-1.067-.351-.385-.968-.385-.627 0-.979.374-.34.375-.341 1.078v1.65q0 .705.341 1.078.352.374.979.374m6.607.858q-1.045 0-1.672-.616-.627-.627-.627-1.694v-3.85h.99v3.85q0 .682.352 1.067.353.374.957.374.616 0 .968-.374.363-.385.363-1.067v-3.85h.99v3.85q0 1.067-.638 1.694-.637.615-1.683.616m6.607 0q-.715 0-1.254-.286a2.07 2.07 0 0 1-.825-.803q-.286-.528-.286-1.221v-1.65q0-.704.286-1.221a2.07 2.07 0 0 1 .825-.803q.538-.286 1.254-.286.715 0 1.243.286.538.285.825.803.297.517.297 1.221v1.067h-3.762v.583q0 .715.363 1.1.363.375 1.034.374.571 0 .924-.198a.88.88 0 0 0 .429-.616h.99q-.1.76-.748 1.21-.638.44-1.595.44m1.397-3.553v-.407q0-.715-.363-1.1-.353-.385-1.034-.385-.672 0-1.034.385-.363.385-.363 1.1v.319h2.871zm5.012 3.531q-.616 0-1.078-.187a1.8 1.8 0 0 1-.726-.55 1.7 1.7 0 0 1-.319-.836h.99a.77.77 0 0 0 .352.506q.297.187.781.187h.462q.582 0 .869-.231a.8.8 0 0 0 .286-.638q0-.385-.264-.605-.254-.231-.759-.308l-.814-.132q-.891-.154-1.331-.55-.429-.407-.429-1.177 0-.814.517-1.254.516-.45 1.551-.451h.418q.869 0 1.397.407t.638 1.1h-.99a.7.7 0 0 0-.33-.451q-.264-.176-.715-.176h-.418q-.561 0-.825.209-.253.21-.253.627 0 .375.22.55.219.176.693.253l.814.132q.978.154 1.419.572.45.418.451 1.21 0 .835-.539 1.32-.529.473-1.606.473zm7.442-.088q-.78 0-1.221-.418-.429-.418-.429-1.177v-3.553h-1.705v-.902h1.705v-1.705h.99v1.705h2.42v.902h-2.42v3.553q0 .693.66.693h1.65V96zm5.749.088q-.616 0-1.078-.187a1.8 1.8 0 0 1-.726-.55 1.7 1.7 0 0 1-.319-.836h.99a.77.77 0 0 0 .352.506q.297.187.781.187h.462q.583 0 .869-.231a.8.8 0 0 0 .286-.638q0-.385-.264-.605-.254-.231-.759-.308l-.814-.132q-.891-.154-1.331-.55-.429-.407-.429-1.177 0-.814.517-1.254.518-.45 1.551-.451h.418q.869 0 1.397.407t.638 1.1h-.99a.7.7 0 0 0-.33-.451q-.264-.176-.715-.176h-.418q-.561 0-.825.209-.253.21-.253.627 0 .375.22.55t.693.253l.814.132q.98.154 1.419.572.451.418.451 1.21 0 .835-.539 1.32-.528.473-1.606.473zm4.418-4.598v-.88h4.73v.88zm0 2.64v-.88h4.73v.88zm9.004 1.98q-.726 0-1.276-.275a2 2 0 0 1-.836-.792q-.297-.528-.297-1.243v-1.65q0-.726.297-1.243t.836-.792q.55-.275 1.276-.275 1.046 0 1.683.561.639.561.671 1.529h-.99q-.033-.584-.396-.891-.351-.32-.968-.319-.648 0-1.034.374-.385.363-.385 1.045V93.8q0 .683.385 1.056.386.374 1.034.374.617 0 .968-.319.363-.32.396-.891h.99q-.032.968-.671 1.529-.638.561-1.683.561m4.264 1.87v-8.03h.99v1.155h.198l-.198.231q0-.693.451-1.089.462-.407 1.21-.407.913 0 1.452.605.55.594.55 1.639v1.771q0 .693-.253 1.199a1.8 1.8 0 0 1-.693.781q-.44.275-1.056.275-.737 0-1.199-.407t-.462-1.089l.198.231h-.22l.022 1.375v1.76zm2.321-2.728q.627 0 .979-.374.363-.375.363-1.078v-1.65q0-.705-.363-1.078-.352-.374-.979-.374-.605 0-.968.385t-.363 1.067v1.65q0 .682.363 1.067t.968.385m6.552.858q-1.045 0-1.672-.616-.627-.627-.627-1.694v-3.85h.99v3.85q0 .682.352 1.067.351.374.957.374.615 0 .968-.374.363-.385.363-1.067v-3.85h.99v3.85q0 1.067-.638 1.694-.639.615-1.683.616m4.241-4.62v-.88h4.73v.88zm0 2.64v-.88h4.73v.88zm8.961 1.98q-.736 0-1.287-.286a2.1 2.1 0 0 1-.836-.825q-.297-.54-.297-1.254v-3.52q0-.726.297-1.254t.836-.814q.55-.297 1.287-.297.748 0 1.287.297.539.285.836.814t.297 1.254v3.52q0 .716-.297 1.254-.297.528-.847.825-.539.285-1.276.286m0-.847q.66 0 1.056-.418.407-.43.407-1.1v-3.52q0-.67-.407-1.089-.396-.429-1.056-.429t-1.067.429q-.396.418-.396 1.089v3.52q0 .67.396 1.1.407.418 1.067.418m0-2.629a.66.66 0 0 1-.484-.187.7.7 0 0 1-.176-.495.64.64 0 0 1 .176-.473.66.66 0 0 1 .484-.187q.297 0 .473.187a.62.62 0 0 1 .187.473q0 .308-.187.495a.62.62 0 0 1-.473.187m6.596 3.476q-.418 0-.671-.242-.242-.242-.242-.649 0-.429.242-.682.253-.253.671-.253t.66.253q.253.253.253.682 0 .407-.253.649-.242.242-.66.242m6.574 0q-.98 0-1.606-.506t-.737-1.364h.99q.054.473.407.737.351.253.957.253.692 0 1.034-.374.352-.374.352-1.056v-.781q0-.683-.352-1.056-.342-.374-1.023-.374a1.24 1.24 0 0 0-.748.231 1.24 1.24 0 0 0-.462.594h-.99l.055-4.444h4.224v.902h-3.267l-.033 2.673h.308l-.308.286q0-.517.407-.814.417-.297 1.111-.297.978-.011 1.518.605.55.605.55 1.694v.781q0 1.067-.627 1.694-.627.615-1.76.616m5.132 1.65.88-3.421h1.43l-1.43 3.421zm5.507-1.76v-6.05h.869v.726h.198l-.154.264q0-.506.264-.803.275-.297.737-.297.506 0 .781.374t.275 1.056l-.297-.594h.462l-.209.264q0-.506.275-.803.286-.297.748-.297.572 0 .88.429.32.43.319 1.133V96h-.913v-4.609q0-.375-.165-.583-.155-.21-.462-.209a.59.59 0 0 0-.473.209q-.165.198-.165.572V96h-.792v-4.609q0-.385-.176-.583-.165-.21-.473-.209-.308 0-.462.209-.154.198-.154.572V96zm9.17.11q-.716 0-1.254-.286a2.07 2.07 0 0 1-.825-.803q-.286-.528-.286-1.221v-1.65q0-.704.286-1.221a2.07 2.07 0 0 1 .825-.803q.538-.286 1.254-.286.714 0 1.243.286.538.285.825.803.297.517.297 1.221v1.067h-3.762v.583q0 .715.363 1.1.363.375 1.034.374.572 0 .924-.198a.88.88 0 0 0 .429-.616h.99q-.1.76-.748 1.21-.638.44-1.595.44m1.397-3.553v-.407q0-.715-.363-1.1-.353-.385-1.034-.385-.672 0-1.034.385-.363.385-.363 1.1v.319h2.871zM235.502 96v-6.05h.869v.726h.198l-.154.264q0-.506.264-.803.275-.297.737-.297.507 0 .781.374.276.374.275 1.056l-.297-.594h.462l-.209.264q0-.506.275-.803.286-.297.748-.297.573 0 .88.429.32.43.319 1.133V96h-.913v-4.609q0-.375-.165-.583-.153-.21-.462-.209a.59.59 0 0 0-.473.209q-.165.198-.165.572V96h-.792v-4.609q0-.385-.176-.583-.165-.21-.473-.209-.308 0-.462.209-.153.198-.154.572V96zm9.17.088q-.726 0-1.254-.275a2 2 0 0 1-.825-.792q-.286-.528-.286-1.243v-1.606q0-.726.286-1.243.297-.517.825-.792t1.254-.275 1.254.275.814.792q.297.517.297 1.232v1.617q0 .715-.297 1.243a1.93 1.93 0 0 1-.814.792q-.528.275-1.254.275m0-.88q.65 0 1.012-.363.363-.363.363-1.067v-1.606q0-.704-.363-1.067t-1.012-.363q-.638 0-1.012.363-.363.363-.363 1.067v1.606q0 .705.363 1.067.374.363 1.012.363m4.517.792v-6.05h.968v1.155h.231l-.319.715q0-.98.418-1.474.429-.506 1.265-.506.957 0 1.518.605.572.594.572 1.617v.363h-.99v-.275q0-.716-.352-1.089-.342-.385-.979-.385-.627 0-.99.385-.352.386-.352 1.089V96zm7.332 1.98.891-2.354-2.244-5.676h1.1l1.408 3.74q.078.187.143.451l.11.429.11-.429a5 5 0 0 1 .132-.451l1.32-3.74h1.067l-2.981 8.03zm5.573-6.49v-.88h4.73v.88zm0 2.64v-.88h4.73v.88zm6.651 1.87v-.902h2.178v-6.303l-2.178 1.628v-1.1l1.815-1.353h1.353v7.128h1.782V96zm8.906.11q-.419 0-.671-.242-.243-.242-.242-.649 0-.429.242-.682.252-.253.671-.253.417 0 .66.253.252.253.253.682 0 .407-.253.649-.243.242-.66.242m6.573 0q-.978 0-1.606-.506-.627-.506-.737-1.364h.99q.056.473.407.737.352.253.957.253.693 0 1.034-.374.352-.374.352-1.056v-.781q0-.683-.352-1.056-.34-.374-1.023-.374-.429 0-.748.231a1.25 1.25 0 0 0-.462.594h-.99l.055-4.444h4.224v.902h-3.267l-.033 2.673h.308l-.308.286q0-.517.407-.814.418-.297 1.111-.297.98-.011 1.518.605.55.605.55 1.694v.781q0 1.067-.627 1.694-.627.615-1.76.616m6.662 0q-.726 0-1.265-.275a2 2 0 0 1-.825-.792q-.286-.528-.286-1.243v-3.63q0-.726.286-1.243.297-.517.825-.792.539-.275 1.265-.275t1.254.286q.528.275.814.792t.286 1.232h-.99q0-.682-.363-1.045-.352-.374-1.001-.374-.65 0-1.023.363-.363.363-.363 1.045V93.8q0 .683.363 1.056.373.374 1.023.374t1.001-.374q.363-.374.363-1.056v-.99h-1.628v-.902h2.618V93.8q0 .704-.286 1.232a2 2 0 0 1-.814.803q-.528.275-1.254.275m4.187-.11v-.902h2.145v-4.246h-1.87v-.902h2.86v5.148h2.035V96zm2.53-7.139q-.363 0-.572-.187a.64.64 0 0 1-.209-.506q0-.33.209-.517.209-.198.572-.198t.572.198q.209.187.209.517 0 .319-.209.506-.21.187-.572.187"/><path fill="#ececec" fill-opacity=".6" d="m21.13 132 1.431-8.727h1.023L22.152 132zm-3.951-2.335.166-1.023h6.614l-.166 1.023zm.882 2.335 1.432-8.727h1.023L19.084 132zm-.375-5.369.166-1.023h6.614l-.166 1.023zm10.987 7.824v-9h1.244v1.061h.107q.11-.205.32-.473.209-.269.579-.469.37-.205.98-.205.793 0 1.415.401.622.4.976 1.155.357.754.358 1.815 0 1.06-.354 1.82-.354.753-.972 1.163-.618.405-1.41.405-.597 0-.976-.2a1.9 1.9 0 0 1-.588-.469 3.6 3.6 0 0 1-.328-.477h-.077v3.473zm1.249-5.728q0 .69.2 1.211.2.519.58.813.378.29.928.29.572 0 .955-.302.384-.308.58-.831.2-.524.2-1.181 0-.648-.196-1.163a1.8 1.8 0 0 0-.58-.814q-.383-.298-.959-.298-.553 0-.937.285a1.76 1.76 0 0 0-.576.797q-.195.512-.195 1.193m8.062 3.418q-.622 0-1.125-.23a1.9 1.9 0 0 1-.797-.678q-.29-.442-.29-1.086 0-.555.213-.912.213-.359.576-.567a3 3 0 0 1 .81-.315q.447-.107.911-.162l.955-.111q.367-.047.532-.149.167-.103.167-.333v-.03q0-.558-.316-.865-.31-.306-.929-.306-.644 0-1.014.285-.366.281-.507.626l-1.197-.272q.214-.597.622-.963.413-.37.95-.537a3.7 3.7 0 0 1 1.13-.171q.391 0 .83.094.443.09.827.332.388.243.635.695.247.447.247 1.163V132H39.97v-.895h-.051a1.8 1.8 0 0 1-.371.486 2 2 0 0 1-.635.396 2.5 2.5 0 0 1-.929.158m.277-1.023q.528 0 .903-.209.38-.209.576-.545.2-.34.2-.729v-.844a.65.65 0 0 1-.264.128q-.192.056-.44.098-.246.039-.48.073l-.393.051a3 3 0 0 0-.677.158q-.303.11-.486.319-.18.205-.179.546 0 .473.35.716.349.238.89.238m5.221 3.333q-.285 0-.52-.047a1.7 1.7 0 0 1-.35-.094l.308-1.044q.35.093.622.081a.75.75 0 0 0 .481-.205q.213-.191.375-.626l.158-.435-2.395-6.63h1.364l1.657 5.079h.069l1.657-5.079h1.368l-2.697 7.419q-.187.51-.477.865a1.9 1.9 0 0 1-.69.537 2.3 2.3 0 0 1-.93.179M49.474 132v-6.545h1.223v1.065h.08q.205-.541.67-.844.465-.306 1.112-.307.656 0 1.1.307.447.307.66.844h.068q.234-.525.746-.835.51-.316 1.219-.316.89 0 1.453.559.566.558.566 1.683V132h-1.274v-4.27q0-.665-.362-.963a1.32 1.32 0 0 0-.865-.298q-.622 0-.967.383-.346.38-.346.976V132h-1.27v-4.351q0-.532-.332-.856t-.865-.324q-.361 0-.669.192a1.4 1.4 0 0 0-.49.524 1.6 1.6 0 0 0-.183.779V132zm13.426.132q-.967 0-1.666-.413a2.8 2.8 0 0 1-1.074-1.172q-.375-.759-.375-1.777 0-1.006.375-1.773.38-.766 1.057-1.197.682-.43 1.594-.431.553 0 1.074.184.519.183.933.575.413.392.652 1.018.239.622.239 1.513v.452h-5.204v-.955h3.955q0-.503-.205-.89a1.54 1.54 0 0 0-.575-.618 1.6 1.6 0 0 0-.86-.226q-.538 0-.938.264a1.8 1.8 0 0 0-.614.682 2 2 0 0 0-.213.908v.745q0 .657.23 1.117.234.46.652.703.418.239.976.239.363 0 .66-.103.3-.107.516-.315.218-.209.332-.516l1.206.218q-.145.532-.52.933-.37.396-.933.618a3.5 3.5 0 0 1-1.274.217m5.496-4.018V132h-1.274v-6.545h1.223v1.065h.081q.225-.52.707-.835.486-.316 1.224-.316.669 0 1.171.282.504.276.78.826.277.55.277 1.36V132h-1.274v-4.01q0-.711-.37-1.112-.371-.405-1.02-.405-.442 0-.788.192a1.4 1.4 0 0 0-.54.562q-.197.367-.197.887m8.953-2.659v1.022h-3.575v-1.022zm-2.616-1.569h1.274v6.192q0 .37.11.558a.58.58 0 0 0 .286.252q.18.064.388.064.154 0 .269-.022l.179-.034.23 1.053a2.5 2.5 0 0 1-.827.136 2.2 2.2 0 0 1-.938-.179 1.6 1.6 0 0 1-.703-.579q-.268-.393-.268-.985zm7.66 3.874v1.104h-3.87v-1.104zM85.51 132l-1.926-6.545H84.9l1.282 4.806h.064l1.287-4.806h1.317l1.278 4.785h.064l1.274-4.785h1.317L90.862 132h-1.3l-1.329-4.726h-.098L86.805 132zm11.041.132q-.92 0-1.606-.422a2.84 2.84 0 0 1-1.066-1.18q-.38-.759-.379-1.773 0-1.019.38-1.781a2.84 2.84 0 0 1 1.065-1.185q.686-.422 1.606-.422.921 0 1.607.422t1.065 1.185q.38.762.38 1.781 0 1.014-.38 1.773a2.84 2.84 0 0 1-1.065 1.18q-.686.422-1.607.422m.004-1.07q.597 0 .989-.315t.58-.839q.19-.525.191-1.155a3.3 3.3 0 0 0-.191-1.151 1.9 1.9 0 0 0-.58-.848q-.391-.32-.989-.319-.6 0-.997.319a1.9 1.9 0 0 0-.584.848q-.187.524-.187 1.151 0 .63.187 1.155.192.524.584.839.396.315.997.315m4.47.938v-6.545h1.231v1.039h.068q.18-.528.631-.831a1.8 1.8 0 0 1 1.031-.306 5 5 0 0 1 .541.029v1.219a2 2 0 0 0-.272-.047 3 3 0 0 0-.392-.03q-.453 0-.806.192-.349.188-.554.524a1.4 1.4 0 0 0-.204.759V132zm5.777-2.22-.009-1.556h.222l2.608-2.769h1.525l-2.974 3.153h-.2zM105.63 132v-8.727h1.274V132zm4.133 0-2.343-3.111.878-.89 3.029 4.001zm5.098.132q-.967 0-1.666-.413a2.8 2.8 0 0 1-1.074-1.172q-.375-.759-.375-1.777 0-1.006.375-1.773.38-.766 1.057-1.197.681-.43 1.594-.431.553 0 1.074.184.519.183.933.575.413.392.652 1.018.238.622.238 1.513v.452h-5.203v-.955h3.955a1.9 1.9 0 0 0-.205-.89 1.54 1.54 0 0 0-.575-.618 1.6 1.6 0 0 0-.861-.226q-.537 0-.937.264a1.77 1.77 0 0 0-.614.682 2 2 0 0 0-.213.908v.745q0 .657.23 1.117.235.46.652.703.418.239.976.239.362 0 .66-.103a1.36 1.36 0 0 0 .848-.831l1.206.218a2.2 2.2 0 0 1-.519.933q-.372.396-.934.618a3.5 3.5 0 0 1-1.274.217m4.222-.132v-6.545h1.232v1.039h.068q.178-.528.63-.831a1.8 1.8 0 0 1 1.032-.306 5 5 0 0 1 .541.029v1.219a2 2 0 0 0-.273-.047q-.195-.03-.392-.03a1.66 1.66 0 0 0-.805.192 1.43 1.43 0 0 0-.759 1.283V132zm8.152-3.622q0-1.602.422-2.949a8.8 8.8 0 0 1 1.231-2.484h1.168a5.4 5.4 0 0 0-.588 1.035 10 10 0 0 0-.477 1.347q-.205.728-.32 1.512a10.5 10.5 0 0 0 .085 3.593q.2 1.04.542 1.93.34.89.758 1.453h-1.168a8.8 8.8 0 0 1-1.231-2.484q-.422-1.347-.422-2.953m4.165 6.077v-9h1.244v1.061h.106q.111-.205.32-.473.208-.269.58-.469.37-.205.98-.205.792 0 1.414.401.622.4.976 1.155.358.754.358 1.815t-.353 1.82q-.354.753-.972 1.163-.618.405-1.411.405-.596 0-.975-.2a1.9 1.9 0 0 1-.589-.469 3.6 3.6 0 0 1-.328-.477h-.076v3.473zm1.248-5.728q0 .69.2 1.211.2.519.58.813.379.29.929.29.571 0 .954-.302.384-.308.58-.831.2-.524.2-1.181 0-.648-.196-1.163a1.8 1.8 0 0 0-.579-.814q-.384-.298-.959-.298-.554 0-.938.285a1.76 1.76 0 0 0-.575.797 3.3 3.3 0 0 0-.196 1.193m6.158 3.273v-6.545h1.231v1.039h.068q.18-.528.631-.831a1.8 1.8 0 0 1 1.031-.306 5 5 0 0 1 .542.029v1.219a2 2 0 0 0-.273-.047 3 3 0 0 0-.392-.03q-.452 0-.806.192-.349.188-.554.524a1.4 1.4 0 0 0-.204.759V132zm7.128.132q-.92 0-1.607-.422a2.84 2.84 0 0 1-1.065-1.18q-.38-.759-.379-1.773 0-1.019.379-1.781a2.84 2.84 0 0 1 1.065-1.185q.686-.422 1.607-.422t1.606.422q.687.422 1.066 1.185.38.762.379 1.781 0 1.014-.379 1.773a2.84 2.84 0 0 1-1.066 1.18q-.685.422-1.606.422m.004-1.07q.596 0 .989-.315.392-.315.579-.839a3.3 3.3 0 0 0 .192-1.155q0-.627-.192-1.151a1.9 1.9 0 0 0-.579-.848q-.393-.32-.989-.319-.6 0-.997.319a1.9 1.9 0 0 0-.584.848q-.187.524-.187 1.151 0 .63.187 1.155.192.524.584.839.397.315.997.315m6.92 1.066q-.793 0-1.415-.405-.618-.41-.972-1.163-.35-.76-.349-1.82 0-1.06.353-1.815.359-.755.981-1.155a2.55 2.55 0 0 1 1.41-.401q.61 0 .98.205.375.2.58.469.209.268.324.473h.076v-3.243h1.274V132h-1.244v-1.018h-.106a3.4 3.4 0 0 1-.333.477 1.9 1.9 0 0 1-.588.469q-.375.2-.971.2m.281-1.087q.55 0 .929-.29.384-.294.579-.813.201-.52.201-1.211a3.3 3.3 0 0 0-.196-1.193 1.76 1.76 0 0 0-.576-.797q-.379-.285-.937-.285-.575 0-.959.298t-.58.814a3.3 3.3 0 0 0-.191 1.163q0 .656.196 1.181.196.523.579.831.388.302.955.302m7.23-2.663q0 1.606-.422 2.953a8.8 8.8 0 0 1-1.231 2.484h-1.168q.317-.421.588-1.035.273-.614.478-1.342.204-.733.319-1.518a10.6 10.6 0 0 0-.085-3.592 11.5 11.5 0 0 0-.541-1.93q-.34-.89-.759-1.453h1.168q.81 1.137 1.231 2.484t.422 2.949m16.404-.618v1.104h-12v-1.104zm8.938-.707-1.155.204a1.4 1.4 0 0 0-.23-.422 1.15 1.15 0 0 0-.418-.328 1.5 1.5 0 0 0-.66-.128q-.541 0-.904.243-.362.239-.362.618a.65.65 0 0 0 .243.528q.243.2.784.329l1.04.238q.903.209 1.346.644.444.434.443 1.129 0 .588-.34 1.048-.338.456-.942.716-.601.26-1.394.26-1.1 0-1.794-.469-.695-.472-.852-1.342l1.232-.187q.114.481.473.728.357.243.933.243.626 0 1.001-.26.375-.264.375-.643a.67.67 0 0 0-.23-.516q-.225-.209-.695-.315l-1.107-.243q-.916-.209-1.356-.665-.434-.456-.434-1.155 0-.579.324-1.014t.894-.678a3.3 3.3 0 0 1 1.309-.247q1.06 0 1.67.461.61.456.806 1.223m3.433 5.092q-.623 0-1.125-.23a1.9 1.9 0 0 1-.797-.678q-.29-.442-.289-1.086 0-.555.213-.912.212-.359.575-.567.362-.209.81-.315.447-.107.911-.162l.955-.111q.366-.047.533-.149.166-.103.166-.333v-.03q0-.558-.315-.865-.312-.306-.929-.306-.643 0-1.015.285-.366.281-.507.626l-1.197-.272q.213-.597.622-.963a2.5 2.5 0 0 1 .95-.537 3.7 3.7 0 0 1 1.13-.171q.392 0 .83.094.444.09.827.332.388.243.635.695.247.447.247 1.163V132h-1.244v-.895h-.051a1.8 1.8 0 0 1-.371.486 2 2 0 0 1-.635.396 2.5 2.5 0 0 1-.929.158m.277-1.023q.528 0 .904-.209a1.47 1.47 0 0 0 .575-.545q.2-.34.2-.729v-.844q-.068.07-.264.128-.192.056-.439.098l-.482.073-.392.051a3 3 0 0 0-.677.158q-.303.11-.486.319-.179.205-.179.546 0 .473.35.716.348.238.89.238m10.015-5.667L197.063 132h-1.364l-2.378-6.545h1.368l1.658 5.036h.068l1.654-5.036zm3.796 6.677q-.967 0-1.666-.413a2.8 2.8 0 0 1-1.074-1.172q-.375-.759-.375-1.777 0-1.006.375-1.773.38-.766 1.057-1.197.682-.43 1.594-.431.554 0 1.074.184.519.183.933.575.413.392.652 1.018.238.622.238 1.513v.452h-5.203v-.955h3.955a1.9 1.9 0 0 0-.205-.89 1.54 1.54 0 0 0-.575-.618 1.6 1.6 0 0 0-.861-.226q-.537 0-.937.264a1.8 1.8 0 0 0-.614.682 2 2 0 0 0-.213.908v.745q0 .657.23 1.117.234.46.652.703.418.239.976.239.363 0 .661-.103.297-.107.515-.315a1.4 1.4 0 0 0 .333-.516l1.206.218q-.145.532-.52.933-.372.396-.934.618a3.5 3.5 0 0 1-1.274.217m12.797-6.763-.298 1.053h-5.587l.298-1.053zM213.31 132l-3.051-3.703-.008-.831h1.512q.567 0 .959-.175a1.3 1.3 0 0 0 .597-.507q.204-.336.204-.818 0-.716-.426-1.138-.425-.422-1.334-.422h-1.619l.311-1.133h1.308q1.058 0 1.743.336.687.337 1.023.934.337.596.337 1.376 0 .695-.277 1.257a2.17 2.17 0 0 1-.882.916q-.606.354-1.59.414l-.038.008 2.787 3.414V132zm2.723-8.727-.302 1.061-4.466-.026.302-1.035zm1.006 7.022v-1.065l3.771-5.957h.84v1.568h-.533l-2.697 4.27v.068h5.169v1.116zm4.138 1.705v-2.028l.008-.486v-6.213h1.249V132zm5.243-1.193-.063.464a8 8 0 0 1-.218 1.066 16 16 0 0 1-.311 1.035q-.158.477-.26.759h-.903l.153-.716q.098-.448.192-1.002.093-.553.141-1.129l.042-.477zm4.523 1.312a3.3 3.3 0 0 1-1.441-.307 2.6 2.6 0 0 1-1.014-.852 2.25 2.25 0 0 1-.405-1.236h1.279q.047.563.498.925.452.363 1.083.362.503 0 .89-.23.393-.234.614-.643.226-.41.226-.933 0-.533-.23-.951a1.7 1.7 0 0 0-.635-.656 1.8 1.8 0 0 0-.921-.243 2.5 2.5 0 0 0-.796.136 1.9 1.9 0 0 0-.648.358l-1.206-.179.49-4.397h4.798v1.129h-3.703l-.277 2.442h.051q.256-.248.678-.414.426-.165.912-.166a2.7 2.7 0 0 1 1.419.379q.626.38.984 1.036.363.653.358 1.5a2.9 2.9 0 0 1-.383 1.513 2.8 2.8 0 0 1-1.066 1.048q-.677.38-1.555.379m7.463-8.966q.583.005 1.15.213.567.21 1.023.682.46.474.733 1.279.276.801.281 1.994 0 1.147-.23 2.041-.23.89-.661 1.504-.426.615-1.035.934a2.9 2.9 0 0 1-1.372.319q-.78 0-1.385-.307a2.6 2.6 0 0 1-.985-.848 2.8 2.8 0 0 1-.473-1.252h1.3q.128.563.52.912.396.345 1.023.345.959 0 1.495-.835.537-.84.542-2.344h-.069a2.4 2.4 0 0 1-.553.63 2.5 2.5 0 0 1-.738.41 2.6 2.6 0 0 1-.873.144q-.755 0-1.372-.37a2.74 2.74 0 0 1-.985-1.019 2.95 2.95 0 0 1-.366-1.478q0-.828.375-1.5a2.8 2.8 0 0 1 1.057-1.066q.681-.396 1.598-.388m.004 1.108q-.499 0-.899.248a1.75 1.75 0 0 0-.627.66q-.23.413-.23.92t.222.921q.225.41.613.652.393.239.895.239.375 0 .699-.145t.567-.401q.243-.26.379-.588a1.8 1.8 0 0 0 .136-.69q0-.482-.23-.895a1.8 1.8 0 0 0-.622-.665 1.63 1.63 0 0 0-.903-.256m7.769 7.858a3.5 3.5 0 0 1-1.15-.213 2.7 2.7 0 0 1-1.023-.682q-.46-.477-.737-1.282-.273-.806-.273-2.012 0-1.141.226-2.028.23-.887.66-1.496.43-.614 1.04-.933a2.9 2.9 0 0 1 1.368-.32q.78 0 1.385.307t.98.848q.38.542.482 1.232h-1.3a1.68 1.68 0 0 0-.524-.891q-.392-.345-1.023-.345-.959 0-1.496.835-.532.835-.537 2.323h.064q.227-.372.554-.631.333-.264.742-.405a2.6 2.6 0 0 1 .869-.145q.759 0 1.372.371.618.366.985 1.014.366.648.366 1.483t-.379 1.513q-.375.678-1.057 1.074-.681.392-1.594.383m-.004-1.108q.503 0 .899-.247a1.8 1.8 0 0 0 .627-.665q.23-.417.23-.933 0-.502-.226-.916a1.7 1.7 0 0 0-.614-.656 1.63 1.63 0 0 0-.886-.243q-.38 0-.703.145-.32.145-.563.4a2 2 0 0 0-.383.588 1.89 1.89 0 0 0 .089 1.603q.23.417.627.673.4.252.903.251m7.927-8.147-2.812 10.448h-1.138l2.812-10.448zm1.083 9.136v-6.545h1.223v1.065h.081q.204-.541.669-.844.464-.306 1.112-.307.656 0 1.099.307.448.307.661.844h.068q.234-.525.746-.835.512-.316 1.218-.316.891 0 1.454.559.566.558.566 1.683V132h-1.274v-4.27q0-.665-.362-.963a1.32 1.32 0 0 0-.865-.298q-.622 0-.967.383-.346.38-.346.976V132h-1.269v-4.351q0-.532-.333-.856-.332-.324-.865-.324a1.24 1.24 0 0 0-.669.192 1.4 1.4 0 0 0-.49.524 1.6 1.6 0 0 0-.183.779V132zm13.362.132q-.92 0-1.606-.422a2.84 2.84 0 0 1-1.066-1.18q-.379-.759-.379-1.773 0-1.019.379-1.781a2.83 2.83 0 0 1 1.066-1.185q.686-.422 1.606-.422t1.607.422 1.065 1.185q.38.762.379 1.781 0 1.014-.379 1.773a2.84 2.84 0 0 1-1.065 1.18q-.687.422-1.607.422m.004-1.07q.597 0 .989-.315t.58-.839a3.3 3.3 0 0 0 .191-1.155q0-.627-.191-1.151a1.9 1.9 0 0 0-.58-.848q-.392-.32-.989-.319-.6 0-.997.319a1.9 1.9 0 0 0-.583.848q-.188.524-.188 1.151 0 .63.188 1.155.191.524.583.839.397.315.997.315"/><path fill="#22c55e" fill-opacity=".8" d="M17.568 152v-8.03h.99v4.477h1.166l1.76-2.497h1.132l-2.035 2.882L22.65 152h-1.155l-1.76-2.695h-1.177V152zm8.84.11q-1.046 0-1.673-.616-.627-.627-.627-1.694v-3.85h.99v3.85q0 .682.352 1.067.352.374.957.374.615 0 .968-.374.363-.385.363-1.067v-3.85h.99v3.85q0 1.067-.638 1.694-.637.616-1.683.616m6.958 0q-.748 0-1.2-.396-.45-.407-.45-1.1l.198.231h-.198V152h-.99v-8.03h.99v1.76l-.022 1.375h.22l-.198.231q0-.683.45-1.089.463-.407 1.2-.407.912 0 1.463.605.55.604.55 1.65v1.771q0 1.034-.55 1.639t-1.463.605m-.33-.858q.627 0 .99-.374t.363-1.078v-1.65q0-.704-.363-1.078t-.99-.374q-.606 0-.968.385-.352.385-.352 1.067v1.65q0 .682.352 1.067.363.385.968.385m6.574.858q-.715 0-1.254-.286a2.07 2.07 0 0 1-.825-.803 2.5 2.5 0 0 1-.286-1.221v-1.65q0-.703.286-1.221a2.07 2.07 0 0 1 .825-.803q.539-.286 1.254-.286.714 0 1.243.286.538.286.825.803.297.518.297 1.221v1.067h-3.762v.583q0 .715.363 1.1.362.374 1.034.374.57 0 .924-.198a.87.87 0 0 0 .429-.616h.99q-.1.759-.748 1.21-.639.44-1.595.44m1.397-3.553v-.407q0-.715-.363-1.1-.353-.385-1.034-.385-.672 0-1.034.385-.363.385-.363 1.1v.319h2.87zm5.242 3.553q-.727 0-1.276-.275a2 2 0 0 1-.836-.792q-.297-.528-.297-1.243v-1.65q0-.726.297-1.243t.836-.792q.55-.275 1.276-.275 1.046 0 1.683.561.64.561.671 1.529h-.99q-.033-.584-.396-.891-.351-.32-.968-.319-.648 0-1.034.374-.384.363-.385 1.045v1.661q0 .683.385 1.056.386.374 1.034.374.616 0 .968-.319.363-.32.396-.891h.99q-.033.968-.67 1.529-.639.561-1.684.561m7.212-.11q-.78 0-1.221-.418-.429-.418-.429-1.177v-3.553h-1.705v-.902h1.705v-1.705h.99v1.705h2.42v.902H52.8v3.553q0 .693.66.693h1.65V152zm6.76 0q-.527 0-.923-.209a1.5 1.5 0 0 1-.616-.594 1.8 1.8 0 0 1-.22-.902v-5.423h-2.035v-.902h3.025v6.325q0 .374.209.594.209.209.56.209h1.926V152zm12.18.088q-.615 0-1.078-.187a1.84 1.84 0 0 1-.726-.55 1.7 1.7 0 0 1-.319-.836h.99a.77.77 0 0 0 .352.506q.297.187.781.187h.462q.583 0 .87-.231a.8.8 0 0 0 .285-.638q0-.385-.264-.605-.254-.231-.759-.308l-.814-.132q-.891-.154-1.33-.55-.43-.407-.43-1.177 0-.815.517-1.254.517-.451 1.551-.451h.418q.87 0 1.397.407.528.407.638 1.1h-.99a.7.7 0 0 0-.33-.451q-.264-.176-.715-.176h-.418q-.561 0-.825.209-.253.209-.253.627 0 .374.22.55t.693.253l.814.132q.98.154 1.42.572.45.418.45 1.21 0 .835-.539 1.32-.528.473-1.606.473zm6.783.022q-.716 0-1.254-.286a2.07 2.07 0 0 1-.825-.803 2.5 2.5 0 0 1-.286-1.221v-1.65q0-.703.286-1.221a2.07 2.07 0 0 1 .825-.803q.54-.286 1.254-.286.715 0 1.243.286.54.286.825.803.297.518.297 1.221v1.067h-3.762v.583q0 .715.363 1.1.363.374 1.034.374.572 0 .924-.198a.87.87 0 0 0 .429-.616h.99q-.1.759-.748 1.21-.638.44-1.595.44m1.397-3.553v-.407q0-.715-.363-1.1-.353-.385-1.034-.385-.67 0-1.034.385-.363.385-.363 1.1v.319h2.87zM86.439 152q-.78 0-1.22-.418-.43-.418-.43-1.177v-3.553h-1.704v-.902h1.705v-1.705h.99v1.705h2.42v.902h-2.42v3.553q0 .693.66.693h1.65V152zm10.453 0v-6.05h.968v1.155h.23l-.318.715q0-.98.418-1.474.43-.506 1.265-.506.957 0 1.518.605.572.594.572 1.617v.363h-.99v-.275q0-.715-.352-1.089-.34-.385-.98-.385-.626 0-.99.385-.351.386-.351 1.089V152zm8.675.11q-.716 0-1.254-.286a2.07 2.07 0 0 1-.825-.803q-.286-.528-.286-1.221v-1.65q0-.703.286-1.221a2.07 2.07 0 0 1 .825-.803q.538-.286 1.254-.286.715 0 1.243.286.538.286.825.803.297.518.297 1.221v1.067h-3.762v.583q0 .715.363 1.1.362.374 1.034.374.572 0 .924-.198a.88.88 0 0 0 .429-.616h.99q-.1.759-.748 1.21-.638.44-1.595.44m1.397-3.553v-.407q0-.715-.363-1.1-.353-.385-1.034-.385-.671 0-1.034.385t-.363 1.1v.319h2.871zm5.011 3.531q-.615 0-1.078-.187a1.85 1.85 0 0 1-.726-.55 1.7 1.7 0 0 1-.319-.836h.99a.78.78 0 0 0 .352.506q.297.187.781.187h.462q.584 0 .869-.231a.8.8 0 0 0 .286-.638q0-.385-.264-.605-.252-.231-.759-.308l-.814-.132q-.89-.154-1.331-.55-.429-.407-.429-1.177 0-.815.517-1.254.517-.451 1.551-.451h.418q.87 0 1.397.407.528.407.638 1.1h-.99a.7.7 0 0 0-.33-.451q-.264-.176-.715-.176h-.418q-.561 0-.825.209-.253.209-.253.627 0 .374.22.55t.693.253l.814.132q.98.154 1.419.572.451.418.451 1.21 0 .835-.539 1.32-.528.473-1.606.473zm6.783 0q-.726 0-1.254-.275a2 2 0 0 1-.825-.792q-.286-.528-.286-1.243v-1.606q0-.726.286-1.243.297-.518.825-.792.528-.275 1.254-.275t1.254.275q.528.274.814.792.297.517.297 1.232v1.617q0 .715-.297 1.243a1.93 1.93 0 0 1-.814.792q-.528.275-1.254.275m0-.88q.65 0 1.012-.363.363-.363.363-1.067v-1.606q0-.704-.363-1.067t-1.012-.363q-.638 0-1.012.363-.363.363-.363 1.067v1.606q0 .704.363 1.067.374.363 1.012.363m6.585.902q-1.045 0-1.672-.616-.627-.627-.627-1.694v-3.85h.99v3.85q0 .682.352 1.067.351.374.957.374.615 0 .968-.374.363-.385.363-1.067v-3.85h.99v3.85q0 1.067-.638 1.694-.639.616-1.683.616m4.527-.11v-6.05h.968v1.155h.231l-.319.715q0-.98.418-1.474.43-.506 1.265-.506.957 0 1.518.605.572.594.572 1.617v.363h-.99v-.275q0-.715-.352-1.089-.34-.385-.979-.385-.627 0-.99.385-.352.386-.352 1.089V152zm8.719.11q-.726 0-1.276-.275a2 2 0 0 1-.836-.792q-.297-.528-.297-1.243v-1.65q0-.726.297-1.243t.836-.792q.55-.275 1.276-.275 1.046 0 1.683.561.638.561.671 1.529h-.99q-.033-.584-.396-.891-.352-.32-.968-.319-.649 0-1.034.374-.385.363-.385 1.045v1.661q0 .683.385 1.056.385.374 1.034.374.616 0 .968-.319.363-.32.396-.891h.99q-.033.968-.671 1.529-.637.561-1.683.561m6.552 0q-.715 0-1.254-.286a2.07 2.07 0 0 1-.825-.803q-.286-.528-.286-1.221v-1.65q0-.703.286-1.221a2.07 2.07 0 0 1 .825-.803q.538-.286 1.254-.286.715 0 1.243.286.538.286.825.803.297.518.297 1.221v1.067h-3.762v.583q0 .715.363 1.1.363.374 1.034.374.571 0 .924-.198a.88.88 0 0 0 .429-.616h.99q-.1.759-.748 1.21-.638.44-1.595.44m1.397-3.553v-.407q0-.715-.363-1.1-.353-.385-1.034-.385-.672 0-1.034.385-.363.385-.363 1.1v.319h2.871zm5.012 3.531q-.616 0-1.078-.187a1.8 1.8 0 0 1-.726-.55 1.7 1.7 0 0 1-.319-.836h.99a.77.77 0 0 0 .352.506q.297.187.781.187h.462q.582 0 .869-.231a.8.8 0 0 0 .286-.638q0-.385-.264-.605-.254-.231-.759-.308l-.814-.132q-.891-.154-1.331-.55-.429-.407-.429-1.177 0-.815.517-1.254.516-.451 1.551-.451h.418q.869 0 1.397.407t.638 1.1h-.99a.7.7 0 0 0-.33-.451q-.264-.176-.715-.176h-.418q-.561 0-.825.209-.253.209-.253.627 0 .374.22.55.219.176.693.253l.814.132q.978.154 1.419.572.45.418.451 1.21 0 .835-.539 1.32-.529.473-1.606.473zm13.026.022q-.902 0-1.463-.605-.55-.605-.55-1.639v-1.771q0-1.046.55-1.65.55-.605 1.463-.605.748 0 1.199.407t.451 1.089l-.198-.231h.22l-.022-1.375v-1.76h.99V152h-.99v-1.155h-.198l.198-.231q0 .693-.451 1.1-.451.396-1.199.396m.33-.858q.616 0 .968-.385t.352-1.067v-1.65q0-.682-.352-1.067t-.968-.385q-.627 0-.99.374t-.363 1.078v1.65q0 .704.363 1.078t.99.374m6.618.858q-.716 0-1.254-.286a2.07 2.07 0 0 1-.825-.803q-.286-.528-.286-1.221v-1.65q0-.703.286-1.221a2.07 2.07 0 0 1 .825-.803q.538-.286 1.254-.286.714 0 1.243.286.538.286.825.803.297.518.297 1.221v1.067h-3.762v.583q0 .715.363 1.1.363.374 1.034.374.572 0 .924-.198a.88.88 0 0 0 .429-.616h.99q-.1.759-.748 1.21-.638.44-1.595.44m1.397-3.553v-.407q0-.715-.363-1.1-.353-.385-1.034-.385-.672 0-1.034.385-.363.385-.363 1.1v.319h2.871zm2.91 5.423v-8.03h.99v1.155h.198l-.198.231q0-.693.451-1.089.463-.407 1.21-.407.913 0 1.452.605.55.594.55 1.639v1.771q0 .693-.253 1.199a1.8 1.8 0 0 1-.693.781q-.44.275-1.056.275-.737 0-1.199-.407t-.462-1.089l.198.231h-.22l.022 1.375v1.76zm2.321-2.728q.628 0 .979-.374.363-.374.363-1.078v-1.65q0-.704-.363-1.078-.351-.374-.979-.374-.605 0-.968.385t-.363 1.067v1.65q0 .682.363 1.067t.968.385m7.388.748q-.528 0-.924-.209a1.5 1.5 0 0 1-.616-.594 1.8 1.8 0 0 1-.22-.902v-5.423h-2.035v-.902h3.025v6.325q0 .374.209.594.208.209.561.209h1.925V152zm5.771.088q-.726 0-1.254-.275a2 2 0 0 1-.825-.792q-.286-.528-.286-1.243v-1.606q0-.726.286-1.243.297-.518.825-.792.528-.275 1.254-.275t1.254.275q.528.274.814.792.297.517.297 1.232v1.617q0 .715-.297 1.243a1.93 1.93 0 0 1-.814.792q-.528.275-1.254.275m0-.88q.649 0 1.012-.363t.363-1.067v-1.606q0-.704-.363-1.067t-1.012-.363q-.639 0-1.012.363-.363.363-.363 1.067v1.606q0 .704.363 1.067.373.363 1.012.363m5.253 2.772.891-2.354-2.244-5.676h1.1l1.408 3.74q.077.187.143.451l.11.429.11-.429a5 5 0 0 1 .132-.451l1.32-3.74h1.067l-2.981 8.03zm5.364-1.98v-6.05h.869v.726h.198l-.154.264q0-.506.264-.803.275-.297.737-.297.506 0 .781.374.275.373.275 1.056l-.297-.594h.462l-.209.264q0-.506.275-.803.286-.297.748-.297.572 0 .88.429.32.43.319 1.133V152h-.913v-4.609q0-.374-.165-.583-.155-.209-.462-.209a.59.59 0 0 0-.473.209q-.165.198-.165.572V152h-.792v-4.609q0-.385-.176-.583-.165-.209-.473-.209t-.462.209q-.154.198-.154.572V152zm9.17.11q-.716 0-1.254-.286a2.07 2.07 0 0 1-.825-.803q-.286-.528-.286-1.221v-1.65q0-.703.286-1.221a2.07 2.07 0 0 1 .825-.803q.538-.286 1.254-.286.715 0 1.243.286.538.286.825.803.297.518.297 1.221v1.067h-3.762v.583q0 .715.363 1.1.363.374 1.034.374.571 0 .924-.198a.87.87 0 0 0 .429-.616h.99a1.69 1.69 0 0 1-.748 1.21q-.638.44-1.595.44m1.397-3.553v-.407q0-.715-.363-1.1-.352-.385-1.034-.385-.67 0-1.034.385-.363.385-.363 1.1v.319h2.871zm2.911 3.443v-6.05h.99v1.155h.209l-.209.231q0-.715.429-1.1.429-.396 1.188-.396.912 0 1.452.561t.539 1.529V152h-.99v-3.96q0-.65-.352-.99-.341-.352-.935-.352-.616 0-.979.374-.352.374-.352 1.078V152zm9.543 0q-.78 0-1.221-.418-.429-.418-.429-1.177v-3.553h-1.705v-.902h1.705v-1.705h.99v1.705h2.42v.902h-2.42v3.553q0 .693.66.693h1.65V152zm3.461 1.21 3.905-10.34h1.045l-3.905 10.34zm6.783.77v-8.03h.99v1.155h.198l-.198.231q0-.693.451-1.089.462-.407 1.21-.407.912 0 1.452.605.55.594.55 1.639v1.771q0 .693-.253 1.199a1.8 1.8 0 0 1-.693.781q-.441.275-1.056.275-.737 0-1.199-.407t-.462-1.089l.198.231h-.22l.022 1.375v1.76zm2.321-2.728q.627 0 .979-.374.363-.374.363-1.078v-1.65q0-.704-.363-1.078-.352-.374-.979-.374-.606 0-.968.385-.363.385-.363 1.067v1.65q0 .682.363 1.067.362.385.968.385m6.034.858q-.957 0-1.507-.484-.55-.495-.55-1.331 0-.847.55-1.331t1.485-.484h1.87v-.605q0-.561-.341-.858-.33-.308-.946-.308-.539 0-.902.231-.363.22-.418.605h-.99q.1-.781.737-1.243.639-.462 1.595-.462 1.046 0 1.65.539.606.539.605 1.463V152h-.968v-1.155h-.165l.165-.165q0 .66-.517 1.045-.506.385-1.353.385m.242-.781q.705 0 1.155-.352t.451-.902v-.858h-1.848q-.495 0-.781.275t-.286.748q0 .506.341.803.353.286.968.286m5.54 2.651.891-2.354-2.244-5.676h1.1l1.408 3.74q.077.187.143.451l.11.429.11-.429a5 5 0 0 1 .132-.451l1.32-3.74h1.067l-2.981 8.03zm5.364-1.98v-6.05h.869v.726h.198l-.154.264q0-.506.264-.803.275-.297.737-.297.505 0 .781.374.275.373.275 1.056l-.297-.594h.462l-.209.264q0-.506.275-.803.285-.297.748-.297.571 0 .88.429.318.43.319 1.133V152h-.913v-4.609q0-.374-.165-.583-.155-.209-.462-.209a.59.59 0 0 0-.473.209q-.165.198-.165.572V152h-.792v-4.609q0-.385-.176-.583-.165-.209-.473-.209-.309 0-.462.209-.154.198-.154.572V152zm9.169.11q-.714 0-1.254-.286a2.07 2.07 0 0 1-.825-.803 2.5 2.5 0 0 1-.286-1.221v-1.65q0-.703.286-1.221a2.07 2.07 0 0 1 .825-.803q.54-.286 1.254-.286.715 0 1.243.286.54.286.825.803.297.518.297 1.221v1.067h-3.762v.583q0 .715.363 1.1.363.374 1.034.374.573 0 .924-.198a.87.87 0 0 0 .429-.616h.99a1.69 1.69 0 0 1-.748 1.21q-.638.44-1.595.44m1.397-3.553v-.407q0-.715-.363-1.1-.351-.385-1.034-.385-.67 0-1.034.385-.363.385-.363 1.1v.319h2.871zm2.911 3.443v-6.05h.99v1.155h.209l-.209.231q0-.715.429-1.1.429-.396 1.188-.396.913 0 1.452.561.54.561.539 1.529V152h-.99v-3.96q0-.65-.352-.99-.34-.352-.935-.352-.616 0-.979.374-.351.374-.352 1.078V152zm9.544 0q-.781 0-1.221-.418-.429-.418-.429-1.177v-3.553h-1.705v-.902h1.705v-1.705h.99v1.705h2.42v.902h-2.42v3.553q0 .693.66.693h1.65V152zm4.176-3.19v-.88h3.52v.88zm6.408 3.19-.968-6.05h.88l.605 4.29q.033.241.066.528.045.274.066.462.023-.188.066-.462.055-.287.088-.528l.671-4.29h.946l.671 4.29q.033.241.077.528.056.274.077.462.023-.188.066-.462.055-.287.088-.528l.627-4.29h.836l-1.012 6.05h-1.089l-.649-4.18a16 16 0 0 0-.099-.616 11 11 0 0 1-.077-.484q-.021.176-.066.484-.043.308-.099.616l-.682 4.18zm8.543.088q-.726 0-1.254-.275a2 2 0 0 1-.825-.792q-.286-.528-.286-1.243v-1.606q0-.726.286-1.243.297-.518.825-.792.528-.275 1.254-.275t1.254.275q.528.274.814.792.297.517.297 1.232v1.617q0 .715-.297 1.243a1.93 1.93 0 0 1-.814.792q-.528.275-1.254.275m0-.88q.65 0 1.012-.363.363-.363.363-1.067v-1.606q0-.704-.363-1.067t-1.012-.363q-.638 0-1.012.363-.363.363-.363 1.067v1.606q0 .704.363 1.067.374.363 1.012.363m4.517.792v-6.05h.968v1.155h.231l-.319.715q0-.98.418-1.474.428-.506 1.265-.506.957 0 1.518.605.572.594.572 1.617v.363h-.99v-.275q0-.715-.352-1.089-.342-.385-.979-.385-.627 0-.99.385-.352.386-.352 1.089V152zm6.419 0v-8.03h.99v4.477h1.166l1.76-2.497h1.133l-2.035 2.882L312.86 152h-1.155l-1.76-2.695h-1.177V152zm8.851.11q-.715 0-1.254-.286a2.07 2.07 0 0 1-.825-.803q-.286-.528-.286-1.221v-1.65q0-.703.286-1.221a2.07 2.07 0 0 1 .825-.803q.538-.286 1.254-.286.715 0 1.243.286.538.286.825.803.297.518.297 1.221v1.067h-3.762v.583q0 .715.363 1.1.363.374 1.034.374.572 0 .924-.198a.87.87 0 0 0 .429-.616h.99a1.69 1.69 0 0 1-.748 1.21q-.638.44-1.595.44m1.397-3.553v-.407q0-.715-.363-1.1-.352-.385-1.034-.385-.67 0-1.034.385-.363.385-.363 1.1v.319h2.871zm3.12 3.443v-6.05h.968v1.155h.231l-.319.715q0-.98.418-1.474.428-.506 1.265-.506.957 0 1.518.605.572.594.572 1.617v.363h-.99v-.275q0-.715-.352-1.089-.342-.385-.979-.385-.627 0-.99.385-.352.386-.352 1.089V152zm13.51-3.19v-.88h3.52v.88zm6.068 3.19v-6.05h.99v1.155h.209l-.209.231q0-.715.429-1.1.429-.396 1.188-.396.913 0 1.452.561t.539 1.529V152h-.99v-3.96q0-.65-.352-.99-.34-.352-.935-.352-.616 0-.979.374-.352.374-.352 1.078V152zm13.191 1.98v-8.03h.99v1.155h.198l-.198.231q0-.693.451-1.089.462-.407 1.21-.407.913 0 1.452.605.55.594.55 1.639v1.771q0 .693-.253 1.199a1.8 1.8 0 0 1-.693.781q-.44.275-1.056.275-.737 0-1.199-.407t-.462-1.089l.198.231h-.22l.022 1.375v1.76zm2.321-2.728q.628 0 .979-.374.363-.374.363-1.078v-1.65q0-.704-.363-1.078-.351-.374-.979-.374-.605 0-.968.385t-.363 1.067v1.65q0 .682.363 1.067t.968.385m4.484.748v-6.05h.968v1.155h.231l-.319.715q0-.98.418-1.474.43-.506 1.265-.506.957 0 1.518.605.572.594.572 1.617v.363h-.99v-.275q0-.715-.352-1.089-.341-.385-.979-.385-.627 0-.99.385-.352.386-.352 1.089V152zm8.675.088q-.726 0-1.254-.275a2 2 0 0 1-.825-.792q-.286-.528-.286-1.243v-1.606q0-.726.286-1.243.297-.518.825-.792.528-.275 1.254-.275t1.254.275q.528.274.814.792.297.517.297 1.232v1.617q0 .715-.297 1.243a1.93 1.93 0 0 1-.814.792q-.528.275-1.254.275m0-.88q.649 0 1.012-.363t.363-1.067v-1.606q0-.704-.363-1.067t-1.012-.363q-.639 0-1.012.363-.363.363-.363 1.067v1.606q0 .704.363 1.067.373.363 1.012.363m6.243.902q-.902 0-1.463-.605-.55-.605-.55-1.639v-1.771q0-1.046.55-1.65.55-.605 1.463-.605.749 0 1.199.407t.451 1.089l-.198-.231h.22l-.022-1.375v-1.76h.99V152h-.99v-1.155h-.198l.198-.231q0 .693-.451 1.1-.45.396-1.199.396m.33-.858q.617 0 .968-.385.352-.385.352-1.067v-1.65q0-.682-.352-1.067-.351-.385-.968-.385-.627 0-.99.374t-.363 1.078v1.65q0 .704.363 1.078t.99.374m14.644 1.958-3.905-10.34h1.045l3.905 10.34zm-281.255 12.6v-.88h4.565v.88zm-5.555 0v-.88h4.565v.88zm12.877 3.19v-6.05h.968v1.155h.231l-.319.715q0-.98.418-1.474.43-.506 1.265-.506.957 0 1.518.605.572.594.572 1.617v.363h-.99v-.275q0-.715-.352-1.089-.341-.385-.979-.385-.627 0-.99.385-.352.386-.352 1.089V169zm8.675.11q-.716 0-1.254-.286a2.07 2.07 0 0 1-.825-.803q-.286-.528-.286-1.221v-1.65q0-.703.286-1.221a2.07 2.07 0 0 1 .825-.803q.538-.286 1.254-.286.715 0 1.243.286.538.286.825.803.297.518.297 1.221v1.067h-3.762v.583q0 .715.363 1.1.362.374 1.034.374.571 0 .924-.198a.88.88 0 0 0 .429-.616h.99q-.1.759-.748 1.21-.639.44-1.595.44m1.397-3.553v-.407q0-.715-.363-1.1-.353-.385-1.034-.385-.671 0-1.034.385t-.363 1.1v.319h2.871zm6.496 5.423v-1.76l.022-1.375h-.22l.198-.231q0 .683-.451 1.089-.45.407-1.199.407-.912 0-1.452-.605-.528-.605-.528-1.65v-1.771q0-1.045.539-1.639.54-.605 1.441-.605.749 0 1.199.407.451.396.451 1.089l-.198-.231h.198v-1.155h.99v8.03zm-1.32-2.728q.617 0 .968-.385.352-.385.352-1.067v-1.65q0-.682-.352-1.067-.351-.385-.968-.385-.627 0-.979.374-.34.374-.341 1.078v1.65q0 .704.341 1.078.352.374.979.374m6.607.858q-1.045 0-1.672-.616-.627-.627-.627-1.694v-3.85h.99v3.85q0 .682.352 1.067.353.374.957.374.616 0 .968-.374.363-.385.363-1.067v-3.85h.99v3.85q0 1.067-.638 1.694-.637.616-1.683.616m6.607 0q-.715 0-1.254-.286a2.07 2.07 0 0 1-.825-.803q-.286-.528-.286-1.221v-1.65q0-.703.286-1.221a2.07 2.07 0 0 1 .825-.803q.538-.286 1.254-.286.715 0 1.243.286.538.286.825.803.297.518.297 1.221v1.067h-3.762v.583q0 .715.363 1.1.363.374 1.034.374.571 0 .924-.198a.88.88 0 0 0 .429-.616h.99q-.1.759-.748 1.21-.638.44-1.595.44m1.397-3.553v-.407q0-.715-.363-1.1-.353-.385-1.034-.385-.672 0-1.034.385-.363.385-.363 1.1v.319h2.871zm5.012 3.531q-.616 0-1.078-.187a1.8 1.8 0 0 1-.726-.55 1.7 1.7 0 0 1-.319-.836h.99a.77.77 0 0 0 .352.506q.297.187.781.187h.462q.582 0 .869-.231a.8.8 0 0 0 .286-.638q0-.385-.264-.605-.254-.231-.759-.308l-.814-.132q-.891-.154-1.331-.55-.429-.407-.429-1.177 0-.815.517-1.254.516-.451 1.551-.451h.418q.869 0 1.397.407t.638 1.1h-.99a.7.7 0 0 0-.33-.451q-.264-.176-.715-.176h-.418q-.561 0-.825.209-.253.209-.253.627 0 .374.22.55.219.176.693.253l.814.132q.978.154 1.419.572.45.418.451 1.21 0 .835-.539 1.32-.529.473-1.606.473zm7.442-.088q-.78 0-1.221-.418-.429-.418-.429-1.177v-3.553h-1.705v-.902h1.705v-1.705h.99v1.705h2.42v.902h-2.42v3.553q0 .693.66.693h1.65V169zm5.749.088q-.616 0-1.078-.187a1.8 1.8 0 0 1-.726-.55 1.7 1.7 0 0 1-.319-.836h.99a.77.77 0 0 0 .352.506q.297.187.781.187h.462q.583 0 .869-.231a.8.8 0 0 0 .286-.638q0-.385-.264-.605-.254-.231-.759-.308l-.814-.132q-.891-.154-1.331-.55-.429-.407-.429-1.177 0-.815.517-1.254.518-.451 1.551-.451h.418q.869 0 1.397.407t.638 1.1h-.99a.7.7 0 0 0-.33-.451q-.264-.176-.715-.176h-.418q-.561 0-.825.209-.253.209-.253.627 0 .374.22.55t.693.253l.814.132q.98.154 1.419.572.451.418.451 1.21 0 .835-.539 1.32-.528.473-1.606.473zm4.418-4.598v-.88h4.73v.88zm0 2.64v-.88h4.73v.88zm9.004 1.98q-.726 0-1.276-.275a2 2 0 0 1-.836-.792q-.297-.528-.297-1.243v-1.65q0-.726.297-1.243t.836-.792q.55-.275 1.276-.275 1.046 0 1.683.561.639.561.671 1.529h-.99q-.033-.584-.396-.891-.351-.32-.968-.319-.648 0-1.034.374-.385.363-.385 1.045v1.661q0 .683.385 1.056.386.374 1.034.374.617 0 .968-.319.363-.32.396-.891h.99q-.032.968-.671 1.529-.638.561-1.683.561m4.264 1.87v-8.03h.99v1.155h.198l-.198.231q0-.693.451-1.089.462-.407 1.21-.407.913 0 1.452.605.55.594.55 1.639v1.771q0 .693-.253 1.199a1.8 1.8 0 0 1-.693.781q-.44.275-1.056.275-.737 0-1.199-.407t-.462-1.089l.198.231h-.22l.022 1.375v1.76zm2.321-2.728q.627 0 .979-.374.363-.374.363-1.078v-1.65q0-.704-.363-1.078-.352-.374-.979-.374-.605 0-.968.385t-.363 1.067v1.65q0 .682.363 1.067t.968.385m6.552.858q-1.045 0-1.672-.616-.627-.627-.627-1.694v-3.85h.99v3.85q0 .682.352 1.067.351.374.957.374.615 0 .968-.374.363-.385.363-1.067v-3.85h.99v3.85q0 1.067-.638 1.694-.639.616-1.683.616m4.241-4.62v-.88h4.73v.88zm0 2.64v-.88h4.73v.88zm6.651 1.87v-.902h2.178v-6.303l-2.178 1.628v-1.1l1.815-1.353h1.353v7.128h1.782V169zm8.906.11q-.418 0-.671-.242-.242-.242-.242-.649 0-.429.242-.682.253-.253.671-.253t.66.253q.253.253.253.682 0 .407-.253.649-.242.242-.66.242m6.596 0q-.738 0-1.287-.286a2.1 2.1 0 0 1-.836-.825q-.297-.538-.297-1.254v-3.52q0-.726.297-1.254a2.03 2.03 0 0 1 .836-.814q.549-.297 1.287-.297.747 0 1.287.297.539.286.836.814t.297 1.254v3.52q0 .716-.297 1.254a2.1 2.1 0 0 1-.847.825q-.54.286-1.276.286m0-.847q.66 0 1.056-.418.407-.43.407-1.1v-3.52q0-.67-.407-1.089-.396-.429-1.056-.429t-1.067.429q-.396.418-.396 1.089v3.52q0 .67.396 1.1.407.418 1.067.418m0-2.629a.65.65 0 0 1-.484-.187.7.7 0 0 1-.176-.495q0-.297.176-.473a.65.65 0 0 1 .484-.187q.296 0 .473.187a.62.62 0 0 1 .187.473q0 .308-.187.495a.62.62 0 0 1-.473.187m5.11 5.126.88-3.421h1.43l-1.43 3.421zm5.507-1.76v-6.05h.869v.726h.198l-.154.264q0-.506.264-.803.275-.297.737-.297.506 0 .781.374.275.373.275 1.056l-.297-.594h.462l-.209.264q0-.506.275-.803.286-.297.748-.297.572 0 .88.429.32.43.319 1.133V169h-.913v-4.609q0-.374-.165-.583-.155-.209-.462-.209a.59.59 0 0 0-.473.209q-.165.198-.165.572V169h-.792v-4.609q0-.385-.176-.583-.165-.209-.473-.209t-.462.209q-.154.198-.154.572V169zm9.17.11q-.716 0-1.254-.286a2.07 2.07 0 0 1-.825-.803q-.286-.528-.286-1.221v-1.65q0-.703.286-1.221a2.07 2.07 0 0 1 .825-.803q.538-.286 1.254-.286.714 0 1.243.286.538.286.825.803.297.518.297 1.221v1.067h-3.762v.583q0 .715.363 1.1.363.374 1.034.374.572 0 .924-.198a.88.88 0 0 0 .429-.616h.99q-.1.759-.748 1.21-.638.44-1.595.44m1.397-3.553v-.407q0-.715-.363-1.1-.353-.385-1.034-.385-.672 0-1.034.385-.363.385-.363 1.1v.319h2.871zm2.624 3.443v-6.05h.869v.726h.198l-.154.264q0-.506.264-.803.275-.297.737-.297.507 0 .781.374.276.373.275 1.056l-.297-.594h.462l-.209.264q0-.506.275-.803.286-.297.748-.297.573 0 .88.429.32.43.319 1.133V169h-.913v-4.609q0-.374-.165-.583-.153-.209-.462-.209a.59.59 0 0 0-.473.209q-.165.198-.165.572V169h-.792v-4.609q0-.385-.176-.583-.165-.209-.473-.209t-.462.209q-.153.198-.154.572V169zm9.17.088q-.726 0-1.254-.275a2 2 0 0 1-.825-.792q-.286-.528-.286-1.243v-1.606q0-.726.286-1.243.297-.518.825-.792.528-.275 1.254-.275t1.254.275q.528.274.814.792.297.517.297 1.232v1.617q0 .715-.297 1.243a1.93 1.93 0 0 1-.814.792q-.528.275-1.254.275m0-.88q.65 0 1.012-.363.363-.363.363-1.067v-1.606q0-.704-.363-1.067t-1.012-.363q-.638 0-1.012.363-.363.363-.363 1.067v1.606q0 .704.363 1.067.374.363 1.012.363m4.517.792v-6.05h.968v1.155h.231l-.319.715q0-.98.418-1.474.429-.506 1.265-.506.957 0 1.518.605.572.594.572 1.617v.363h-.99v-.275q0-.715-.352-1.089-.342-.385-.979-.385-.627 0-.99.385-.352.386-.352 1.089V169zm7.332 1.98.891-2.354-2.244-5.676h1.1l1.408 3.74q.078.187.143.451l.11.429.11-.429a5 5 0 0 1 .132-.451l1.32-3.74h1.067l-2.981 8.03zm5.573-6.49v-.88h4.73v.88zm0 2.64v-.88h4.73v.88zm6.673 1.87v-1.012l2.453-2.607q.627-.67.913-1.188.286-.528.286-1.012 0-.67-.374-1.056-.363-.385-1.001-.385-.704 0-1.111.396-.396.396-.396 1.089h-.99q.023-.726.33-1.254.319-.538.869-.825.561-.286 1.298-.286.726 0 1.254.286.538.275.825.792t.286 1.232q0 .683-.363 1.353t-1.188 1.529l-1.98 2.046h3.663V169zm8.884.11q-.419 0-.671-.242-.243-.242-.242-.649 0-.429.242-.682.252-.253.671-.253.417 0 .66.253.252.253.253.682 0 .407-.253.649-.243.242-.66.242m6.573 0q-.978 0-1.606-.506-.627-.506-.737-1.364h.99q.056.473.407.737.352.253.957.253.693 0 1.034-.374.352-.373.352-1.056v-.781q0-.682-.352-1.056-.34-.374-1.023-.374-.429 0-.748.231a1.25 1.25 0 0 0-.462.594h-.99l.055-4.444h4.224v.902h-3.267l-.033 2.673h.308l-.308.286q0-.517.407-.814.418-.297 1.111-.297.98-.011 1.518.605.55.605.55 1.694v.781q0 1.067-.627 1.694-.627.616-1.76.616m6.662 0q-.726 0-1.265-.275a2 2 0 0 1-.825-.792q-.286-.528-.286-1.243v-3.63q0-.726.286-1.243.297-.518.825-.792.539-.275 1.265-.275t1.254.286q.528.275.814.792t.286 1.232h-.99q0-.682-.363-1.045-.352-.374-1.001-.374-.65 0-1.023.363-.363.363-.363 1.045v3.641q0 .683.363 1.056.373.374 1.023.374t1.001-.374q.363-.373.363-1.056v-.99h-1.628v-.902h2.618v1.892q0 .704-.286 1.232a2 2 0 0 1-.814.803q-.528.275-1.254.275m4.187-.11v-.902h2.145v-4.246h-1.87v-.902h2.86v5.148h2.035V169zm2.53-7.139q-.363 0-.572-.187a.64.64 0 0 1-.209-.506q0-.33.209-.517.209-.198.572-.198t.572.198q.209.187.209.517 0 .319-.209.506-.21.187-.572.187"/><path fill="#e8e8f0" fill-opacity=".6" d="m21.13 216 1.431-8.727h1.023L22.152 216zm-3.951-2.335.166-1.023h6.614l-.166 1.023zm.882 2.335 1.432-8.727h1.023L19.084 216zm-.375-5.369.166-1.023h6.614l-.166 1.023zm10.659-2.225v-1.133h6.754v1.133h-2.723V216h-1.312v-7.594zm9.952 7.726q-.92 0-1.606-.422a2.84 2.84 0 0 1-1.066-1.18q-.379-.759-.379-1.773 0-1.019.38-1.781a2.84 2.84 0 0 1 1.065-1.185q.686-.422 1.606-.422.921 0 1.607.422.685.421 1.065 1.185.38.762.38 1.781 0 1.014-.38 1.773a2.84 2.84 0 0 1-1.065 1.18q-.686.422-1.607.422m.005-1.07q.596 0 .988-.315t.58-.839q.192-.525.191-1.155a3.3 3.3 0 0 0-.191-1.151 1.9 1.9 0 0 0-.58-.848q-.391-.32-.989-.319-.6 0-.997.319a1.9 1.9 0 0 0-.584.848q-.186.524-.187 1.151 0 .63.188 1.155.191.524.583.839.397.315.997.315m7.524-5.607v1.022H42.25v-1.022zm-2.617-1.569h1.275v6.192q0 .37.11.558a.58.58 0 0 0 .286.252q.18.063.388.064.153 0 .268-.022l.18-.034.23 1.053a2.5 2.5 0 0 1-.827.136 2.2 2.2 0 0 1-.938-.179 1.6 1.6 0 0 1-.703-.579q-.269-.393-.269-.985zm5.931 8.259q-.622 0-1.125-.23a1.9 1.9 0 0 1-.797-.678q-.29-.442-.29-1.086 0-.555.214-.912.213-.359.575-.567a3 3 0 0 1 .81-.315 8 8 0 0 1 .912-.162l.954-.111q.366-.047.533-.149.165-.103.166-.333v-.03q0-.558-.315-.865-.311-.306-.93-.306-.642 0-1.014.285-.366.281-.507.626l-1.197-.272a2.3 2.3 0 0 1 .622-.963q.413-.37.95-.537a3.7 3.7 0 0 1 1.13-.171q.392 0 .83.094.444.09.827.332.388.243.635.695.247.447.247 1.163V216h-1.244v-.895h-.051a1.8 1.8 0 0 1-.37.486 2 2 0 0 1-.636.396 2.5 2.5 0 0 1-.929.158m.277-1.023q.528 0 .904-.209.379-.209.575-.545.2-.34.2-.729v-.844a.65.65 0 0 1-.264.128q-.192.056-.439.098l-.481.073-.392.051a3 3 0 0 0-.678.158q-.303.11-.486.319-.18.205-.179.546 0 .473.35.716.35.238.89.238m5.925-7.849V216h-1.274v-8.727zm4.89 8.727v-6.545h1.231v1.039h.068q.18-.528.63-.831a1.8 1.8 0 0 1 1.032-.306 5 5 0 0 1 .541.029v1.219a2 2 0 0 0-.272-.047q-.197-.03-.392-.03-.452 0-.806.192a1.43 1.43 0 0 0-.758 1.283V216zm7.192.132q-.967 0-1.667-.413a2.8 2.8 0 0 1-1.073-1.172q-.375-.759-.375-1.777 0-1.006.375-1.773.379-.766 1.056-1.197.682-.43 1.594-.431.554 0 1.074.184.52.183.933.575t.652 1.018q.24.622.239 1.513v.452h-5.203v-.955h3.954q0-.503-.204-.89a1.54 1.54 0 0 0-.575-.618 1.6 1.6 0 0 0-.861-.226q-.537 0-.938.264a1.8 1.8 0 0 0-.614.682 2 2 0 0 0-.212.908v.745q0 .657.23 1.117.234.46.652.703.417.239.975.239.363 0 .66-.103.3-.106.517-.315.216-.209.332-.516l1.206.218q-.145.532-.52.933-.37.396-.933.618a3.5 3.5 0 0 1-1.274.217m6.979 0q-.951 0-1.637-.43a2.85 2.85 0 0 1-1.048-1.198q-.366-.763-.366-1.747 0-.997.375-1.76.375-.766 1.056-1.197.682-.43 1.607-.431.745 0 1.33.277.584.273.941.767.363.495.43 1.155h-1.24a1.5 1.5 0 0 0-.468-.792q-.363-.333-.972-.333-.533 0-.933.281a1.8 1.8 0 0 0-.618.793q-.222.511-.222 1.21 0 .716.218 1.236t.614.805q.4.286.941.286.362 0 .656-.132.3-.136.5-.388a1.46 1.46 0 0 0 .285-.605h1.24a2.4 2.4 0 0 1-.414 1.133q-.345.499-.924.785-.576.285-1.351.285m5.325-8.859V216h-1.274v-8.727zm3.62 8.872q-.622 0-1.126-.23a1.9 1.9 0 0 1-.797-.678q-.29-.442-.29-1.086 0-.555.214-.912.213-.359.575-.567a3 3 0 0 1 .81-.315q.447-.107.912-.162l.954-.111q.367-.047.533-.149.166-.103.166-.333v-.03q0-.558-.315-.865-.311-.306-.93-.306-.642 0-1.014.285-.366.281-.507.626l-1.197-.272a2.3 2.3 0 0 1 .622-.963q.413-.37.95-.537a3.7 3.7 0 0 1 1.13-.171q.392 0 .83.094.444.09.827.332.388.243.635.695.247.447.247 1.163V216h-1.244v-.895h-.051a1.8 1.8 0 0 1-.37.486 2 2 0 0 1-.636.396 2.5 2.5 0 0 1-.929.158m.276-1.023q.53 0 .904-.209.378-.209.575-.545.2-.34.2-.729v-.844a.65.65 0 0 1-.264.128 4 4 0 0 1-.439.098l-.481.073-.392.051a3 3 0 0 0-.678.158q-.303.11-.486.319-.18.205-.179.546 0 .473.35.716.35.238.89.238m4.65.878v-6.545h1.275V216zm.644-7.555a.8.8 0 0 1-.571-.222.72.72 0 0 1-.234-.537q0-.315.234-.537.239-.226.571-.226a.8.8 0 0 1 .567.226q.238.222.238.537 0 .31-.238.537a.8.8 0 0 1-.567.222M91.263 216v-6.545h1.223v1.065h.08q.205-.541.67-.844.465-.307 1.112-.307.657 0 1.1.307.447.307.66.844h.068q.234-.525.746-.835.51-.316 1.219-.316.89 0 1.453.559.567.558.567 1.683V216h-1.275v-4.27q0-.665-.362-.963a1.32 1.32 0 0 0-.865-.298q-.622 0-.967.383-.345.38-.345.976V216h-1.27v-4.351q0-.532-.333-.856-.332-.324-.865-.324-.362 0-.669.192a1.4 1.4 0 0 0-.49.524 1.6 1.6 0 0 0-.183.779V216zm12.51.145q-.623 0-1.125-.23a1.9 1.9 0 0 1-.797-.678q-.29-.442-.29-1.086 0-.555.214-.912.212-.359.575-.567.362-.209.809-.315t.912-.162l.955-.111q.366-.047.533-.149.165-.103.166-.333v-.03q0-.558-.316-.865-.31-.306-.929-.306-.644 0-1.014.285-.366.281-.507.626l-1.197-.272q.213-.597.622-.963.413-.37.95-.537a3.7 3.7 0 0 1 1.129-.171q.393 0 .831.094.444.09.827.332.388.243.635.695.247.447.247 1.163V216h-1.244v-.895h-.051a1.8 1.8 0 0 1-.371.486 2 2 0 0 1-.635.396 2.5 2.5 0 0 1-.929.158m.277-1.023q.528 0 .903-.209.38-.209.576-.545.2-.34.2-.729v-.844q-.067.07-.264.128-.192.056-.439.098l-.482.073-.392.051a3 3 0 0 0-.677.158q-.303.11-.486.319-.179.205-.179.546 0 .473.349.716.35.238.891.238m4.753.878v-8.727h1.274v3.243h.076q.111-.205.32-.473.208-.269.58-.469.37-.204.98-.205.792 0 1.414.401.623.4.976 1.155.358.755.358 1.815t-.353 1.82q-.354.753-.972 1.163-.618.405-1.411.405-.596 0-.975-.2a1.9 1.9 0 0 1-.588-.469 3.5 3.5 0 0 1-.329-.477h-.106V216zm1.248-3.273q0 .69.2 1.211.2.519.58.813.379.29.929.29.572 0 .954-.302.384-.308.58-.831.2-.524.2-1.181 0-.647-.196-1.163a1.8 1.8 0 0 0-.579-.814q-.384-.298-.959-.298-.554 0-.938.285a1.76 1.76 0 0 0-.575.797 3.3 3.3 0 0 0-.196 1.193m7.435-5.454V216h-1.274v-8.727zm4.535 8.859q-.967 0-1.666-.413a2.8 2.8 0 0 1-1.074-1.172q-.375-.759-.375-1.777 0-1.006.375-1.773.38-.766 1.057-1.197.682-.43 1.594-.431.553 0 1.074.184.519.183.933.575.413.392.652 1.018.239.622.239 1.513v.452h-5.204v-.955h3.955a1.9 1.9 0 0 0-.205-.89 1.54 1.54 0 0 0-.575-.618 1.6 1.6 0 0 0-.861-.226q-.537 0-.937.264a1.8 1.8 0 0 0-.614.682 2 2 0 0 0-.213.908v.745q0 .657.23 1.117.235.46.652.703.418.239.976.239.363 0 .661-.103.297-.106.515-.315a1.4 1.4 0 0 0 .333-.516l1.206.218q-.145.532-.52.933-.371.396-.934.618a3.5 3.5 0 0 1-1.274.217m5.062-.051a.83.83 0 0 1-.601-.247.83.83 0 0 1-.252-.605q0-.35.252-.597a.82.82 0 0 1 .601-.251q.35 0 .601.251a.8.8 0 0 1 .251.597q0 .234-.119.43a.9.9 0 0 1-.307.307.8.8 0 0 1-.426.115m0-4.764a.82.82 0 0 1-.601-.252.82.82 0 0 1-.252-.601q0-.348.252-.596a.82.82 0 0 1 .601-.252.82.82 0 0 1 .601.252.8.8 0 0 1 .251.596q0 .235-.119.431a.9.9 0 0 1-.307.307.8.8 0 0 1-.426.115m11.134-1.948-.299 1.053h-5.586l.298-1.053zM135.498 216l-3.051-3.703-.009-.831h1.513q.566 0 .959-.175.392-.174.596-.507.205-.336.205-.818 0-.716-.426-1.138t-1.334-.422h-1.619l.311-1.133h1.308q1.058 0 1.743.336.686.337 1.023.934.336.596.336 1.376 0 .694-.277 1.257a2.15 2.15 0 0 1-.882.916q-.605.354-1.589.414l-.039.008 2.787 3.414V216zm2.723-8.727-.303 1.061-4.466-.026.303-1.035zm4.138 8.846q-.917 0-1.62-.315-.699-.315-1.095-.869a2.1 2.1 0 0 1-.392-1.262 2.22 2.22 0 0 1 .861-1.798 2 2 0 0 1 .895-.401v-.051a1.76 1.76 0 0 1-1.044-.699 2.04 2.04 0 0 1-.388-1.244 2.04 2.04 0 0 1 .354-1.193q.362-.528.993-.831.63-.303 1.436-.303.796 0 1.423.307.63.303.993.831.362.525.366 1.189a2.07 2.07 0 0 1-.4 1.244 1.77 1.77 0 0 1-1.031.699v.051q.489.086.882.401.396.31.63.78.239.464.243 1.018a2.14 2.14 0 0 1-.4 1.262q-.397.554-1.1.869-.699.315-1.606.315m0-1.078q.54 0 .937-.179.396-.183.614-.507.218-.328.221-.767a1.43 1.43 0 0 0-.238-.805 1.6 1.6 0 0 0-.627-.55 2 2 0 0 0-.907-.2 2 2 0 0 0-.917.2 1.6 1.6 0 0 0-.63.55 1.4 1.4 0 0 0-.226.805 1.35 1.35 0 0 0 .209.767q.218.324.618.507.4.18.946.179m0-4.061q.434 0 .771-.175.337-.174.528-.485.196-.312.201-.729a1.36 1.36 0 0 0-.196-.716 1.24 1.24 0 0 0-.525-.473 1.7 1.7 0 0 0-.779-.17q-.452 0-.793.17a1.25 1.25 0 0 0-.524.473 1.3 1.3 0 0 0-.183.716q-.005.417.187.729.192.31.529.485.34.175.784.175m6.05 3.827-.064.464a7.5 7.5 0 0 1-.218 1.066 26 26 0 0 1-.571 1.794h-.903l.153-.716q.099-.448.192-1.002.095-.553.141-1.129l.042-.477zm4.038-7.534V216h-1.321v-7.406h-.051l-2.088 1.363v-1.261l2.178-1.423zm5.672 0V216h-1.321v-7.406h-.051l-2.088 1.363v-1.261l2.178-1.423zm5.399 8.872q-1.01-.005-1.725-.533-.717-.528-1.096-1.538-.378-1.01-.379-2.433 0-1.42.379-2.425.384-1.006 1.1-1.534.72-.529 1.721-.529t1.718.533q.716.529 1.095 1.534.383 1.002.383 2.421 0 1.427-.379 2.437-.38 1.006-1.095 1.538-.715.53-1.722.529m0-1.138q.887 0 1.385-.865.504-.865.503-2.501 0-1.087-.23-1.837-.226-.755-.652-1.142a1.43 1.43 0 0 0-1.006-.392q-.882 0-1.384.869-.504.87-.508 2.502 0 1.09.226 1.845.23.75.652 1.138.423.383 1.014.383m8.049-8.143-2.812 10.448h-1.138l2.812-10.448zM172.65 216v-6.545h1.223v1.065h.08q.205-.541.67-.844.464-.307 1.112-.307.656 0 1.099.307.447.307.661.844h.068q.234-.525.746-.835.512-.316 1.218-.316.89 0 1.453.559.567.558.567 1.683V216h-1.274v-4.27q0-.665-.362-.963a1.32 1.32 0 0 0-.865-.298q-.622 0-.968.383-.345.38-.345.976V216h-1.27v-4.351q0-.532-.332-.856-.333-.324-.865-.324-.362 0-.669.192a1.4 1.4 0 0 0-.49.524 1.6 1.6 0 0 0-.183.779V216zm13.362.132q-.92 0-1.606-.422a2.84 2.84 0 0 1-1.066-1.18q-.38-.759-.379-1.773 0-1.019.379-1.781a2.83 2.83 0 0 1 1.066-1.185q.685-.422 1.606-.422.92 0 1.607.422.685.421 1.065 1.185.38.762.379 1.781 0 1.014-.379 1.773a2.84 2.84 0 0 1-1.065 1.18q-.686.422-1.607.422m.004-1.07q.597 0 .989-.315t.58-.839q.19-.525.191-1.155 0-.627-.191-1.151a1.9 1.9 0 0 0-.58-.848q-.392-.32-.989-.319-.6 0-.997.319a1.9 1.9 0 0 0-.584.848q-.187.524-.187 1.151 0 .63.187 1.155.192.524.584.839.397.315.997.315"/><mask id="a" fill="#fff"><path d="M0 9a9 9 0 0 1 9-9h492a9 9 0 0 1 9 9v17H0z"/></mask><path fill="#1b1913" d="M0 9a9 9 0 0 1 9-9h492a9 9 0 0 1 9 9v17H0z"/><path fill="#fff" fill-opacity=".06" d="M0 0h510zm510 27H0v-2h510zM0 26V0zM510 0v26z" mask="url(#a)"/><path fill="#edecec" fill-opacity=".2" d="M8 12.5a5 5 0 1 1 10 0 5 5 0 0 1-10 0m16 0a5 5 0 1 1 10 0 5 5 0 0 1-10 0m16 0a5 5 0 1 1 10 0 5 5 0 0 1-10 0"/></svg>