<svg width="378" height="378" viewBox="0 0 378 378" fill="none" xmlns="http://www.w3.org/2000/svg">
<rect width="378" height="378" rx="6" fill="#201E18"/>
<mask id="path-2-inside-1_2229_1298" fill="white">
<path d="M35 85C35 80.5817 38.5817 77 43 77H335C339.418 77 343 80.5817 343 85V154C343 158.418 339.418 162 335 162H43C38.5817 162 35 158.418 35 154V85Z"/>
</mask>
<path d="M35 85C35 80.5817 38.5817 77 43 77H335C339.418 77 343 80.5817 343 85V154C343 158.418 339.418 162 335 162H43C38.5817 162 35 158.418 35 154V85Z" fill="#1B1913"/>
<path d="M43 77V77.64H335V77V76.36H43V77ZM343 85H342.36V154H343H343.64V85H343ZM335 162V161.36H43V162V162.64H335V162ZM35 154H35.64V85H35H34.36V154H35ZM43 162V161.36C38.9352 161.36 35.64 158.065 35.64 154H35H34.36C34.36 158.772 38.2283 162.64 43 162.64V162ZM343 154H342.36C342.36 158.065 339.065 161.36 335 161.36V162V162.64C339.772 162.64 343.64 158.772 343.64 154H343ZM335 77V77.64C339.065 77.64 342.36 80.9352 342.36 85H343H343.64C343.64 80.2283 339.772 76.36 335 76.36V77ZM43 77V76.36C38.2283 76.36 34.36 80.2283 34.36 85H35H35.64C35.64 80.9352 38.9352 77.64 43 77.64V77Z" fill="#EDECEC" fill-opacity="0.06" mask="url(#path-2-inside-1_2229_1298)"/>
<path d="M51.9795 93.3015L48.9326 104.621H47.9355L50.9823 93.3015H51.9795ZM56.1516 103.347C55.4869 103.347 54.9144 103.19 54.4343 102.876C53.9542 102.562 53.5849 102.13 53.3263 101.579C53.0678 101.028 52.9386 100.399 52.9386 99.6907C52.9386 98.9705 53.0709 98.335 53.3356 97.7841C53.6033 97.2301 53.9757 96.7977 54.4528 96.4869C54.9329 96.1729 55.493 96.016 56.1332 96.016C56.6317 96.016 57.0811 96.1083 57.4812 96.293C57.8813 96.4776 58.209 96.7362 58.4645 97.0685C58.7199 97.4009 58.8784 97.7887 58.94 98.2319H57.8505C57.7674 97.9087 57.5827 97.6225 57.2965 97.3732C57.0134 97.1209 56.6317 96.9947 56.1516 96.9947C55.7269 96.9947 55.3545 97.1055 55.0344 97.3271C54.7174 97.5456 54.4697 97.8549 54.2912 98.255C54.1158 98.652 54.028 99.1183 54.028 99.6538C54.028 100.202 54.1142 100.679 54.2866 101.085C54.462 101.491 54.7082 101.807 55.0252 102.031C55.3453 102.256 55.7208 102.368 56.1516 102.368C56.4348 102.368 56.6918 102.319 56.9226 102.221C57.1534 102.122 57.3488 101.98 57.5089 101.796C57.6689 101.611 57.7828 101.39 57.8505 101.131H58.94C58.8784 101.55 58.7261 101.927 58.483 102.262C58.2429 102.594 57.9244 102.859 57.5273 103.056C57.1334 103.25 56.6748 103.347 56.1516 103.347ZM61.6222 98.9336V103.199H60.5327V93.7447H61.6222V97.2163H61.7145C61.8807 96.85 62.13 96.5592 62.4624 96.3438C62.7978 96.1252 63.2441 96.016 63.8011 96.016C64.2843 96.016 64.7075 96.1129 65.0707 96.3068C65.4338 96.4976 65.7154 96.7915 65.9155 97.1886C66.1186 97.5825 66.2202 98.0842 66.2202 98.6935V103.199H65.1307V98.7674C65.1307 98.2042 64.9845 97.7687 64.6921 97.4609C64.4028 97.1501 64.0012 96.9947 63.4872 96.9947C63.1302 96.9947 62.8101 97.0701 62.527 97.2209C62.2469 97.3717 62.0253 97.5917 61.8622 97.881C61.7022 98.1703 61.6222 98.5212 61.6222 98.9336ZM71.1863 103.347C70.5031 103.347 69.9137 103.196 69.4182 102.895C68.9258 102.59 68.5457 102.165 68.278 101.62C68.0133 101.073 67.8809 100.435 67.8809 99.7092C67.8809 98.9828 68.0133 98.3427 68.278 97.7887C68.5457 97.2317 68.9181 96.7977 69.3951 96.4869C69.8753 96.1729 70.4354 96.016 71.0755 96.016C71.4449 96.016 71.8096 96.0775 72.1697 96.2006C72.5297 96.3237 72.8575 96.5238 73.153 96.8008C73.4484 97.0747 73.6839 97.4379 73.8593 97.8903C74.0347 98.3427 74.1224 98.8997 74.1224 99.5614V100.023H68.6565V99.0813H73.0145C73.0145 98.6812 72.9344 98.3242 72.7744 98.0103C72.6174 97.6964 72.3928 97.4486 72.1004 97.267C71.8111 97.0855 71.4695 96.9947 71.0755 96.9947C70.6416 96.9947 70.2661 97.1024 69.9491 97.3178C69.6352 97.5302 69.3936 97.8072 69.2243 98.1488C69.0551 98.4904 68.9704 98.8567 68.9704 99.2475V99.8754C68.9704 100.411 69.0628 100.865 69.2474 101.237C69.4352 101.607 69.6952 101.888 70.0276 102.082C70.36 102.273 70.7462 102.368 71.1863 102.368C71.4726 102.368 71.7311 102.328 71.9619 102.248C72.1958 102.165 72.3974 102.042 72.5667 101.879C72.7359 101.713 72.8667 101.507 72.9591 101.26L74.0116 101.556C73.9008 101.913 73.7146 102.227 73.453 102.498C73.1914 102.765 72.8683 102.975 72.4836 103.125C72.0989 103.273 71.6665 103.347 71.1863 103.347ZM78.6604 103.347C77.9956 103.347 77.4232 103.19 76.9431 102.876C76.463 102.562 76.0937 102.13 75.8351 101.579C75.5766 101.028 75.4474 100.399 75.4474 99.6907C75.4474 98.9705 75.5797 98.335 75.8444 97.7841C76.1121 97.2301 76.4845 96.7977 76.9616 96.4869C77.4417 96.1729 78.0018 96.016 78.642 96.016C79.1405 96.016 79.5899 96.1083 79.99 96.293C80.3901 96.4776 80.7178 96.7362 80.9733 97.0685C81.2287 97.4009 81.3872 97.7887 81.4488 98.2319H80.3593C80.2762 97.9087 80.0915 97.6225 79.8053 97.3732C79.5222 97.1209 79.1405 96.9947 78.6604 96.9947C78.2357 96.9947 77.8633 97.1055 77.5432 97.3271C77.2262 97.5456 76.9785 97.8549 76.8 98.255C76.6246 98.652 76.5368 99.1183 76.5368 99.6538C76.5368 100.202 76.623 100.679 76.7954 101.085C76.9708 101.491 77.217 101.807 77.534 102.031C77.8541 102.256 78.2295 102.368 78.6604 102.368C78.9436 102.368 79.2005 102.319 79.4314 102.221C79.6622 102.122 79.8576 101.98 80.0177 101.796C80.1777 101.611 80.2916 101.39 80.3593 101.131H81.4488C81.3872 101.55 81.2349 101.927 80.9917 102.262C80.7517 102.594 80.4331 102.859 80.0361 103.056C79.6422 103.25 79.1836 103.347 78.6604 103.347ZM84.0571 100.614L84.0386 99.266H84.2602L87.3625 96.1083H88.7105L85.4051 99.4506H85.3128L84.0571 100.614ZM83.0415 103.199V93.7447H84.1309V103.199H83.0415ZM87.5471 103.199L84.7773 99.6907L85.5528 98.9336L88.9321 103.199H87.5471ZM93.5786 98.6381V99.6538H89.4422V98.6381H93.5786ZM98.4686 103.347C97.7853 103.347 97.196 103.196 96.7005 102.895C96.208 102.59 95.8279 102.165 95.5602 101.62C95.2955 101.073 95.1632 100.435 95.1632 99.7092C95.1632 98.9828 95.2955 98.3427 95.5602 97.7887C95.8279 97.2317 96.2003 96.7977 96.6774 96.4869C97.1575 96.1729 97.7176 96.016 98.3578 96.016C98.7271 96.016 99.0918 96.0775 99.4519 96.2006C99.812 96.3237 100.14 96.5238 100.435 96.8008C100.731 97.0747 100.966 97.4379 101.142 97.8903C101.317 98.3427 101.405 98.8997 101.405 99.5614V100.023H95.9387V99.0813H100.297C100.297 98.6812 100.217 98.3242 100.057 98.0103C99.8997 97.6964 99.675 97.4486 99.3826 97.267C99.0933 97.0855 98.7517 96.9947 98.3578 96.9947C97.9238 96.9947 97.5484 97.1024 97.2314 97.3178C96.9174 97.5302 96.6758 97.8072 96.5066 98.1488C96.3373 98.4904 96.2527 98.8567 96.2527 99.2475V99.8754C96.2527 100.411 96.345 100.865 96.5296 101.237C96.7174 101.607 96.9774 101.888 97.3098 102.082C97.6422 102.273 98.0285 102.368 98.4686 102.368C98.7548 102.368 99.0133 102.328 99.2441 102.248C99.478 102.165 99.6796 102.042 99.8489 101.879C100.018 101.713 100.149 101.507 100.241 101.26L101.294 101.556C101.183 101.913 100.997 102.227 100.735 102.498C100.474 102.765 100.151 102.975 99.7658 103.125C99.3811 103.273 98.9487 103.347 98.4686 103.347ZM105.924 106.006C105.398 106.006 104.945 105.938 104.567 105.803C104.188 105.671 103.873 105.495 103.621 105.277C103.371 105.061 103.173 104.83 103.025 104.584L103.893 103.975C103.991 104.104 104.116 104.252 104.267 104.418C104.418 104.587 104.624 104.733 104.885 104.857C105.15 104.983 105.496 105.046 105.924 105.046C106.497 105.046 106.969 104.907 107.341 104.63C107.714 104.353 107.9 103.919 107.9 103.328V101.888H107.808C107.728 102.017 107.614 102.177 107.466 102.368C107.321 102.556 107.112 102.724 106.838 102.871C106.567 103.016 106.201 103.088 105.74 103.088C105.167 103.088 104.653 102.953 104.198 102.682C103.745 102.411 103.387 102.017 103.122 101.5C102.86 100.983 102.73 100.355 102.73 99.6168C102.73 98.8905 102.857 98.258 103.113 97.7195C103.368 97.1778 103.724 96.7592 104.179 96.4638C104.635 96.1652 105.161 96.016 105.758 96.016C106.22 96.016 106.586 96.0929 106.857 96.2468C107.131 96.3976 107.34 96.57 107.485 96.7638C107.632 96.9547 107.746 97.1116 107.826 97.2347H107.937V96.1083H108.99V103.402C108.99 104.012 108.851 104.507 108.574 104.889C108.3 105.274 107.931 105.555 107.466 105.734C107.004 105.915 106.49 106.006 105.924 106.006ZM105.887 102.11C106.324 102.11 106.694 102.01 106.995 101.81C107.297 101.61 107.526 101.322 107.683 100.946C107.84 100.571 107.918 100.122 107.918 99.5984C107.918 99.0875 107.842 98.6366 107.688 98.2457C107.534 97.8549 107.306 97.5487 107.004 97.3271C106.703 97.1055 106.33 96.9947 105.887 96.9947C105.426 96.9947 105.041 97.1116 104.733 97.3455C104.428 97.5794 104.199 97.8933 104.045 98.2873C103.894 98.6812 103.819 99.1183 103.819 99.5984C103.819 100.091 103.896 100.526 104.05 100.905C104.207 101.28 104.438 101.576 104.742 101.791C105.05 102.004 105.432 102.11 105.887 102.11ZM110.984 103.199V96.1083H112.036V97.1793H112.11C112.24 96.8285 112.473 96.5438 112.812 96.3253C113.151 96.1068 113.532 95.9975 113.957 95.9975C114.037 95.9975 114.137 95.9991 114.257 96.0021C114.377 96.0052 114.468 96.0098 114.529 96.016V97.1239C114.492 97.1147 114.408 97.1009 114.275 97.0824C114.146 97.0608 114.009 97.0501 113.865 97.0501C113.52 97.0501 113.212 97.1224 112.941 97.267C112.673 97.4086 112.461 97.6056 112.304 97.858C112.15 98.1072 112.073 98.3919 112.073 98.712V103.199H110.984ZM118.578 103.347C117.895 103.347 117.305 103.196 116.81 102.895C116.317 102.59 115.937 102.165 115.67 101.62C115.405 101.073 115.273 100.435 115.273 99.7092C115.273 98.9828 115.405 98.3427 115.67 97.7887C115.937 97.2317 116.31 96.7977 116.787 96.4869C117.267 96.1729 117.827 96.016 118.467 96.016C118.836 96.016 119.201 96.0775 119.561 96.2006C119.921 96.3237 120.249 96.5238 120.545 96.8008C120.84 97.0747 121.075 97.4379 121.251 97.8903C121.426 98.3427 121.514 98.8997 121.514 99.5614V100.023H116.048V99.0813H120.406C120.406 98.6812 120.326 98.3242 120.166 98.0103C120.009 97.6964 119.784 97.4486 119.492 97.267C119.203 97.0855 118.861 96.9947 118.467 96.9947C118.033 96.9947 117.658 97.1024 117.341 97.3178C117.027 97.5302 116.785 97.8072 116.616 98.1488C116.447 98.4904 116.362 98.8567 116.362 99.2475V99.8754C116.362 100.411 116.454 100.865 116.639 101.237C116.827 101.607 117.087 101.888 117.419 102.082C117.752 102.273 118.138 102.368 118.578 102.368C118.864 102.368 119.123 102.328 119.354 102.248C119.587 102.165 119.789 102.042 119.958 101.879C120.128 101.713 120.258 101.507 120.351 101.26L121.403 101.556C121.292 101.913 121.106 102.227 120.845 102.498C120.583 102.765 120.26 102.975 119.875 103.125C119.49 103.273 119.058 103.347 118.578 103.347ZM128.194 97.6964L127.215 97.9734C127.154 97.8103 127.063 97.6518 126.943 97.4979C126.826 97.3409 126.666 97.2116 126.463 97.1101C126.26 97.0085 126 96.9577 125.683 96.9577C125.249 96.9577 124.887 97.0578 124.598 97.2578C124.312 97.4548 124.168 97.7056 124.168 98.0103C124.168 98.2811 124.267 98.495 124.464 98.652C124.661 98.8089 124.969 98.9397 125.387 99.0444L126.44 99.3029C127.074 99.4568 127.546 99.6922 127.857 100.009C128.168 100.323 128.323 100.728 128.323 101.223C128.323 101.63 128.206 101.993 127.972 102.313C127.742 102.633 127.418 102.885 127.003 103.07C126.588 103.255 126.104 103.347 125.553 103.347C124.83 103.347 124.232 103.19 123.758 102.876C123.284 102.562 122.984 102.104 122.857 101.5L123.892 101.242C123.99 101.623 124.176 101.91 124.45 102.1C124.727 102.291 125.089 102.387 125.535 102.387C126.043 102.387 126.446 102.279 126.744 102.064C127.046 101.845 127.197 101.583 127.197 101.279C127.197 101.033 127.111 100.826 126.938 100.66C126.766 100.491 126.501 100.365 126.144 100.282L124.963 100.005C124.313 99.8507 123.836 99.6122 123.531 99.2891C123.23 98.9628 123.079 98.555 123.079 98.0657C123.079 97.6656 123.191 97.3117 123.416 97.0039C123.644 96.6961 123.953 96.4545 124.344 96.2791C124.738 96.1037 125.184 96.016 125.683 96.016C126.384 96.016 126.935 96.1699 127.335 96.4776C127.739 96.7854 128.025 97.1916 128.194 97.6964ZM134.986 97.6964L134.007 97.9734C133.946 97.8103 133.855 97.6518 133.735 97.4979C133.618 97.3409 133.458 97.2116 133.255 97.1101C133.052 97.0085 132.792 96.9577 132.475 96.9577C132.041 96.9577 131.679 97.0578 131.39 97.2578C131.104 97.4548 130.96 97.7056 130.96 98.0103C130.96 98.2811 131.059 98.495 131.256 98.652C131.453 98.8089 131.761 98.9397 132.179 99.0444L133.232 99.3029C133.866 99.4568 134.338 99.6922 134.649 100.009C134.96 100.323 135.115 100.728 135.115 101.223C135.115 101.63 134.998 101.993 134.764 102.313C134.534 102.633 134.21 102.885 133.795 103.07C133.38 103.255 132.896 103.347 132.345 103.347C131.622 103.347 131.024 103.19 130.55 102.876C130.076 102.562 129.776 102.104 129.649 101.5L130.684 101.242C130.782 101.623 130.968 101.91 131.242 102.1C131.519 102.291 131.881 102.387 132.327 102.387C132.835 102.387 133.238 102.279 133.536 102.064C133.838 101.845 133.989 101.583 133.989 101.279C133.989 101.033 133.903 100.826 133.73 100.66C133.558 100.491 133.293 100.365 132.936 100.282L131.755 100.005C131.105 99.8507 130.628 99.6122 130.323 99.2891C130.022 98.9628 129.871 98.555 129.871 98.0657C129.871 97.6656 129.983 97.3117 130.208 97.0039C130.436 96.6961 130.745 96.4545 131.136 96.2791C131.53 96.1037 131.976 96.016 132.475 96.016C133.176 96.016 133.727 96.1699 134.127 96.4776C134.531 96.7854 134.817 97.1916 134.986 97.6964Z" fill="#C9A227"/>
<g opacity="0.6">
<path d="M125.643 145.891C125.523 145.891 125.417 145.845 125.33 145.758L121.767 142.111C121.688 142.029 121.642 141.927 121.642 141.812C121.642 141.573 121.822 141.389 122.061 141.389C122.181 141.389 122.287 141.435 122.36 141.508L125.643 144.86L128.921 141.508C128.999 141.435 129.105 141.389 129.22 141.389C129.46 141.389 129.639 141.573 129.639 141.812C129.639 141.927 129.593 142.029 129.515 142.107L125.951 145.758C125.873 145.845 125.758 145.891 125.643 145.891Z" fill="#EDECEC" fill-opacity="0.6"/>
</g>
<g clip-path="url(#clip0_2229_1298)">
<mask id="path-7-inside-2_2229_1298" fill="white">
<path d="M49.1699 119.64C49.1699 115.221 52.7516 111.64 57.1699 111.64H321.17C325.588 111.64 329.17 115.221 329.17 119.64V293.64C329.17 298.058 325.588 301.64 321.17 301.64H57.1699C52.7516 301.64 49.1699 298.058 49.1699 293.64V119.64Z"/>
</mask>
<path d="M49.1699 119.64C49.1699 115.221 52.7516 111.64 57.1699 111.64H321.17C325.588 111.64 329.17 115.221 329.17 119.64V293.64C329.17 298.058 325.588 301.64 321.17 301.64H57.1699C52.7516 301.64 49.1699 298.058 49.1699 293.64V119.64Z" fill="#1B1913"/>
<path d="M67.5287 127.279C67.5287 128.123 67.3763 128.852 67.0716 129.467C66.767 130.081 66.349 130.555 65.8177 130.889C65.2865 131.222 64.6797 131.389 63.9974 131.389C63.3151 131.389 62.7084 131.222 62.1771 130.889C61.6459 130.555 61.2279 130.081 60.9232 129.467C60.6185 128.852 60.4662 128.123 60.4662 127.279C60.4662 126.436 60.6185 125.706 60.9232 125.092C61.2279 124.477 61.6459 124.003 62.1771 123.67C62.7084 123.337 63.3151 123.17 63.9974 123.17C64.6797 123.17 65.2865 123.337 65.8177 123.67C66.349 124.003 66.767 124.477 67.0716 125.092C67.3763 125.706 67.5287 126.436 67.5287 127.279ZM66.5912 127.279C66.5912 126.587 66.4753 126.002 66.2435 125.525C66.0143 125.049 65.7032 124.688 65.3099 124.443C64.9193 124.199 64.4818 124.076 63.9974 124.076C63.513 124.076 63.0742 124.199 62.681 124.443C62.2904 124.688 61.9792 125.049 61.7474 125.525C61.5183 126.002 61.4037 126.587 61.4037 127.279C61.4037 127.972 61.5183 128.557 61.7474 129.033C61.9792 129.51 62.2904 129.87 62.681 130.115C63.0742 130.36 63.513 130.482 63.9974 130.482C64.4818 130.482 64.9193 130.36 65.3099 130.115C65.7032 129.87 66.0143 129.51 66.2435 129.033C66.4753 128.557 66.5912 127.972 66.5912 127.279ZM72.8622 128.826V125.279H73.7841V131.279H72.8622V130.264H72.7997C72.6591 130.568 72.4404 130.827 72.1435 131.041C71.8466 131.252 71.4716 131.357 71.0185 131.357C70.6435 131.357 70.3101 131.275 70.0185 131.111C69.7268 130.945 69.4976 130.695 69.331 130.361C69.1643 130.025 69.081 129.602 69.081 129.092V125.279H70.0029V129.029C70.0029 129.467 70.1252 129.816 70.37 130.076C70.6174 130.337 70.9325 130.467 71.3154 130.467C71.5445 130.467 71.7776 130.408 72.0146 130.291C72.2542 130.174 72.4547 129.994 72.6161 129.752C72.7802 129.51 72.8622 129.201 72.8622 128.826ZM78.1304 125.279V126.061H75.021V125.279H78.1304ZM75.9272 123.842H76.8491V129.561C76.8491 129.821 76.8869 130.016 76.9624 130.146C77.0405 130.274 77.1395 130.36 77.2593 130.404C77.3817 130.446 77.5106 130.467 77.646 130.467C77.7475 130.467 77.8309 130.462 77.896 130.451C77.9611 130.438 78.0132 130.428 78.0522 130.42L78.2397 131.248C78.1772 131.271 78.09 131.295 77.978 131.318C77.866 131.344 77.7241 131.357 77.5522 131.357C77.2918 131.357 77.0366 131.301 76.7866 131.189C76.5392 131.077 76.3335 130.907 76.1694 130.678C76.008 130.449 75.9272 130.16 75.9272 129.811V123.842ZM79.8194 131.279V123.279H80.7413V126.232H80.8194C80.8871 126.128 80.9808 125.995 81.1006 125.834C81.223 125.67 81.3975 125.524 81.6241 125.396C81.8532 125.266 82.1631 125.201 82.5538 125.201C83.059 125.201 83.5043 125.327 83.8897 125.58C84.2751 125.833 84.5759 126.191 84.792 126.654C85.0082 127.118 85.1163 127.665 85.1163 128.295C85.1163 128.93 85.0082 129.481 84.792 129.947C84.5759 130.411 84.2764 130.77 83.8936 131.025C83.5108 131.278 83.0694 131.404 82.5694 131.404C82.184 131.404 81.8754 131.34 81.6436 131.213C81.4118 131.083 81.2334 130.936 81.1084 130.771C80.9834 130.605 80.8871 130.467 80.8194 130.357H80.71V131.279H79.8194ZM80.7256 128.279C80.7256 128.732 80.792 129.132 80.9248 129.479C81.0577 129.822 81.2517 130.092 81.5069 130.287C81.7621 130.48 82.0746 130.576 82.4444 130.576C82.8298 130.576 83.1514 130.475 83.4092 130.271C83.6696 130.066 83.865 129.79 83.9952 129.443C84.128 129.094 84.1944 128.706 84.1944 128.279C84.1944 127.857 84.1293 127.477 83.9991 127.139C83.8715 126.798 83.6775 126.528 83.417 126.33C83.1592 126.13 82.835 126.029 82.4444 126.029C82.0694 126.029 81.7543 126.124 81.4991 126.314C81.2439 126.502 81.0512 126.765 80.9209 127.104C80.7907 127.439 80.7256 127.831 80.7256 128.279ZM89.0123 131.404C88.4706 131.404 87.9954 131.275 87.5865 131.018C87.1803 130.76 86.8626 130.399 86.6334 129.936C86.4068 129.472 86.2936 128.93 86.2936 128.311C86.2936 127.686 86.4068 127.14 86.6334 126.674C86.8626 126.208 87.1803 125.846 87.5865 125.588C87.9954 125.33 88.4706 125.201 89.0123 125.201C89.554 125.201 90.0279 125.33 90.4342 125.588C90.843 125.846 91.1607 126.208 91.3873 126.674C91.6165 127.14 91.7311 127.686 91.7311 128.311C91.7311 128.93 91.6165 129.472 91.3873 129.936C91.1607 130.399 90.843 130.76 90.4342 131.018C90.0279 131.275 89.554 131.404 89.0123 131.404ZM89.0123 130.576C89.4238 130.576 89.7623 130.471 90.0279 130.26C90.2936 130.049 90.4902 129.771 90.6178 129.428C90.7454 129.084 90.8092 128.712 90.8092 128.311C90.8092 127.91 90.7454 127.536 90.6178 127.189C90.4902 126.843 90.2936 126.563 90.0279 126.35C89.7623 126.136 89.4238 126.029 89.0123 126.029C88.6009 126.029 88.2623 126.136 87.9967 126.35C87.7311 126.563 87.5344 126.843 87.4068 127.189C87.2792 127.536 87.2154 127.91 87.2154 128.311C87.2154 128.712 87.2792 129.084 87.4068 129.428C87.5344 129.771 87.7311 130.049 87.9967 130.26C88.2623 130.471 88.6009 130.576 89.0123 130.576ZM96.9679 128.826V125.279H97.8898V131.279H96.9679V130.264H96.9054C96.7648 130.568 96.5461 130.827 96.2492 131.041C95.9523 131.252 95.5773 131.357 95.1242 131.357C94.7492 131.357 94.4159 131.275 94.1242 131.111C93.8325 130.945 93.6034 130.695 93.4367 130.361C93.27 130.025 93.1867 129.602 93.1867 129.092V125.279H94.1086V129.029C94.1086 129.467 94.231 129.816 94.4757 130.076C94.7231 130.337 95.0383 130.467 95.4211 130.467C95.6502 130.467 95.8833 130.408 96.1203 130.291C96.3599 130.174 96.5604 129.994 96.7218 129.752C96.8859 129.51 96.9679 129.201 96.9679 128.826ZM100.549 127.67V131.279H99.6267V125.279H100.517V126.217H100.595C100.736 125.912 100.95 125.667 101.236 125.482C101.523 125.295 101.892 125.201 102.345 125.201C102.752 125.201 103.107 125.285 103.412 125.451C103.717 125.615 103.954 125.865 104.123 126.201C104.292 126.535 104.377 126.956 104.377 127.467V131.279H103.455V127.529C103.455 127.058 103.332 126.691 103.088 126.428C102.843 126.162 102.507 126.029 102.08 126.029C101.786 126.029 101.523 126.093 101.291 126.221C101.062 126.348 100.881 126.535 100.748 126.779C100.615 127.024 100.549 127.321 100.549 127.67ZM108.375 131.404C107.875 131.404 107.434 131.278 107.051 131.025C106.668 130.77 106.369 130.411 106.153 129.947C105.936 129.481 105.828 128.93 105.828 128.295C105.828 127.665 105.936 127.118 106.153 126.654C106.369 126.191 106.67 125.833 107.055 125.58C107.44 125.327 107.886 125.201 108.391 125.201C108.782 125.201 109.09 125.266 109.317 125.396C109.546 125.524 109.72 125.67 109.84 125.834C109.963 125.995 110.058 126.128 110.125 126.232H110.203V123.279H111.125V131.279H110.235V130.357H110.125C110.058 130.467 109.961 130.605 109.836 130.771C109.711 130.936 109.533 131.083 109.301 131.213C109.069 131.34 108.761 131.404 108.375 131.404ZM108.5 130.576C108.87 130.576 109.183 130.48 109.438 130.287C109.693 130.092 109.887 129.822 110.02 129.479C110.153 129.132 110.219 128.732 110.219 128.279C110.219 127.831 110.154 127.439 110.024 127.104C109.894 126.765 109.701 126.502 109.446 126.314C109.19 126.124 108.875 126.029 108.5 126.029C108.11 126.029 107.784 126.13 107.524 126.33C107.266 126.528 107.072 126.798 106.942 127.139C106.814 127.477 106.75 127.857 106.75 128.279C106.75 128.706 106.815 129.094 106.946 129.443C107.078 129.79 107.274 130.066 107.532 130.271C107.792 130.475 108.115 130.576 108.5 130.576ZM118.57 131.404C118.007 131.404 117.523 131.271 117.117 131.006C116.71 130.74 116.398 130.374 116.179 129.908C115.96 129.442 115.851 128.91 115.851 128.311C115.851 127.701 115.963 127.163 116.187 126.697C116.413 126.229 116.729 125.863 117.132 125.6C117.538 125.334 118.012 125.201 118.554 125.201C118.976 125.201 119.356 125.279 119.695 125.436C120.033 125.592 120.311 125.811 120.527 126.092C120.743 126.373 120.877 126.701 120.929 127.076H120.007C119.937 126.803 119.781 126.561 119.538 126.35C119.299 126.136 118.976 126.029 118.57 126.029C118.21 126.029 117.895 126.123 117.624 126.311C117.356 126.495 117.147 126.757 116.996 127.096C116.847 127.432 116.773 127.826 116.773 128.279C116.773 128.743 116.846 129.146 116.992 129.49C117.14 129.834 117.348 130.101 117.617 130.291C117.887 130.481 118.205 130.576 118.57 130.576C118.809 130.576 119.027 130.535 119.222 130.451C119.417 130.368 119.583 130.248 119.718 130.092C119.854 129.936 119.95 129.748 120.007 129.529H120.929C120.877 129.883 120.748 130.202 120.542 130.486C120.339 130.768 120.07 130.992 119.734 131.158C119.4 131.322 119.012 131.404 118.57 131.404ZM124.091 131.42C123.711 131.42 123.366 131.348 123.056 131.205C122.746 131.059 122.5 130.85 122.317 130.576C122.135 130.3 122.044 129.967 122.044 129.576C122.044 129.232 122.112 128.954 122.247 128.74C122.382 128.524 122.563 128.355 122.79 128.232C123.017 128.11 123.267 128.019 123.54 127.959C123.816 127.896 124.093 127.847 124.372 127.811C124.737 127.764 125.032 127.729 125.259 127.705C125.488 127.679 125.655 127.636 125.759 127.576C125.866 127.516 125.919 127.412 125.919 127.264V127.232C125.919 126.847 125.813 126.548 125.603 126.334C125.394 126.12 125.078 126.014 124.653 126.014C124.213 126.014 123.868 126.11 123.618 126.303C123.368 126.495 123.192 126.701 123.091 126.92L122.216 126.607C122.372 126.243 122.58 125.959 122.841 125.756C123.104 125.55 123.39 125.407 123.7 125.326C124.013 125.243 124.32 125.201 124.622 125.201C124.815 125.201 125.036 125.225 125.286 125.271C125.539 125.316 125.782 125.408 126.017 125.549C126.254 125.689 126.45 125.902 126.606 126.186C126.763 126.469 126.841 126.85 126.841 127.326V131.279H125.919V130.467H125.872C125.81 130.597 125.705 130.736 125.56 130.885C125.414 131.033 125.22 131.16 124.978 131.264C124.735 131.368 124.44 131.42 124.091 131.42ZM124.231 130.592C124.596 130.592 124.903 130.52 125.153 130.377C125.406 130.234 125.596 130.049 125.724 129.822C125.854 129.596 125.919 129.357 125.919 129.107V128.264C125.88 128.311 125.794 128.354 125.661 128.393C125.531 128.429 125.38 128.462 125.208 128.49C125.039 128.516 124.873 128.54 124.712 128.561C124.553 128.579 124.424 128.594 124.325 128.607C124.086 128.639 123.862 128.689 123.653 128.76C123.448 128.827 123.281 128.93 123.153 129.068C123.028 129.204 122.966 129.389 122.966 129.623C122.966 129.943 123.084 130.186 123.321 130.35C123.561 130.511 123.864 130.592 124.231 130.592ZM129.494 123.279V131.279H128.572V123.279H129.494ZM132.152 123.279V131.279H131.231V123.279H132.152ZM138.139 126.623L137.311 126.857C137.259 126.719 137.182 126.585 137.081 126.455C136.982 126.322 136.846 126.213 136.674 126.127C136.503 126.041 136.283 125.998 136.014 125.998C135.647 125.998 135.341 126.083 135.096 126.252C134.854 126.419 134.733 126.631 134.733 126.889C134.733 127.118 134.816 127.299 134.983 127.432C135.15 127.564 135.41 127.675 135.764 127.764L136.655 127.982C137.191 128.113 137.591 128.312 137.854 128.58C138.117 128.846 138.249 129.188 138.249 129.607C138.249 129.951 138.15 130.258 137.952 130.529C137.757 130.8 137.483 131.014 137.132 131.17C136.78 131.326 136.371 131.404 135.905 131.404C135.293 131.404 134.786 131.271 134.385 131.006C133.984 130.74 133.73 130.352 133.624 129.842L134.499 129.623C134.582 129.946 134.74 130.188 134.971 130.35C135.206 130.511 135.512 130.592 135.889 130.592C136.319 130.592 136.66 130.501 136.913 130.318C137.168 130.133 137.296 129.912 137.296 129.654C137.296 129.446 137.223 129.271 137.077 129.131C136.931 128.988 136.707 128.881 136.405 128.811L135.405 128.576C134.855 128.446 134.452 128.244 134.194 127.971C133.939 127.695 133.811 127.35 133.811 126.936C133.811 126.597 133.906 126.298 134.096 126.037C134.289 125.777 134.551 125.572 134.882 125.424C135.215 125.275 135.592 125.201 136.014 125.201C136.608 125.201 137.074 125.331 137.413 125.592C137.754 125.852 137.996 126.196 138.139 126.623Z" fill="#EDECEC" fill-opacity="0.6"/>
<path d="M61.8099 152.279C61.8099 147.861 65.3916 144.279 69.8099 144.279H81.8099C86.2282 144.279 89.8099 147.861 89.8099 152.279V164.279C89.8099 168.698 86.2282 172.279 81.8099 172.279H69.8099C65.3916 172.279 61.8099 168.698 61.8099 164.279V152.279Z" fill="#201E18"/>
<g clip-path="url(#clip1_2229_1298)">
<path fill-rule="evenodd" clip-rule="evenodd" d="M73.6805 150.279C72.7978 150.28 72.0834 150.996 72.0841 151.879C72.0834 152.762 72.7985 153.478 73.6812 153.479H75.2782V151.88C75.2789 150.997 74.5639 150.281 73.6805 150.279C73.6812 150.279 73.6812 150.279 73.6805 150.279ZM73.6805 154.546H69.423C68.5403 154.547 67.8253 155.263 67.8259 156.146C67.8246 157.028 68.5396 157.745 69.4223 157.746H73.6805C74.5632 157.745 75.2782 157.029 75.2776 156.146C75.2782 155.263 74.5632 154.547 73.6805 154.546Z" fill="#36C5F0"/>
<path fill-rule="evenodd" clip-rule="evenodd" d="M83.7939 156.146C83.7946 155.263 83.0796 154.547 82.1969 154.546C81.3142 154.547 80.5992 155.263 80.5998 156.146V157.746H82.1969C83.0796 157.745 83.7946 157.029 83.7939 156.146ZM79.5358 156.146V151.879C79.5364 150.997 78.822 150.281 77.9394 150.279C77.0567 150.28 76.3416 150.996 76.3423 151.879V156.146C76.341 157.028 77.056 157.745 77.9387 157.746C78.8214 157.745 79.5364 157.029 79.5358 156.146Z" fill="#2EB67D"/>
<path fill-rule="evenodd" clip-rule="evenodd" d="M77.9387 166.279C78.8214 166.278 79.5364 165.562 79.5358 164.679C79.5364 163.796 78.8214 163.08 77.9387 163.079H76.3416V164.679C76.341 165.561 77.056 166.278 77.9387 166.279ZM77.9387 162.012H82.1969C83.0796 162.011 83.7946 161.295 83.7939 160.412C83.7952 159.529 83.0802 158.813 82.1975 158.812H77.9393C77.0567 158.812 76.3416 159.529 76.3423 160.411C76.3416 161.295 77.056 162.011 77.9387 162.012Z" fill="#ECB22E"/>
<path fill-rule="evenodd" clip-rule="evenodd" d="M67.8259 160.412C67.8253 161.295 68.5403 162.011 69.423 162.012C70.3057 162.011 71.0207 161.295 71.02 160.412V158.812H69.423C68.5403 158.813 67.8253 159.529 67.8259 160.412ZM72.0841 160.412V164.679C72.0828 165.562 72.7978 166.278 73.6805 166.279C74.5632 166.279 75.2782 165.562 75.2776 164.679V160.413C75.2789 159.531 74.5639 158.814 73.6812 158.813C72.7978 158.813 72.0834 159.529 72.0841 160.412Z" fill="#E01E5A"/>
</g>
<g clip-path="url(#clip2_2229_1298)">
<path d="M106.125 156.063C106.07 155.596 105.845 155.232 105.451 154.974C105.057 154.715 104.574 154.586 104.002 154.586C103.583 154.586 103.217 154.654 102.903 154.789C102.592 154.925 102.349 155.111 102.174 155.348C102.001 155.585 101.915 155.854 101.915 156.156C101.915 156.408 101.975 156.625 102.095 156.807C102.218 156.985 102.375 157.134 102.566 157.254C102.757 157.371 102.957 157.468 103.166 157.545C103.375 157.619 103.568 157.679 103.743 157.725L104.703 157.984C104.95 158.048 105.224 158.138 105.525 158.252C105.83 158.365 106.121 158.521 106.398 158.718C106.678 158.912 106.909 159.161 107.09 159.466C107.272 159.77 107.362 160.144 107.362 160.588C107.362 161.098 107.229 161.56 106.961 161.972C106.696 162.385 106.308 162.713 105.797 162.956C105.29 163.199 104.673 163.32 103.946 163.32C103.269 163.32 102.683 163.211 102.187 162.993C101.695 162.774 101.307 162.47 101.024 162.079C100.744 161.688 100.585 161.234 100.549 160.717H101.73C101.761 161.074 101.881 161.369 102.09 161.603C102.303 161.834 102.571 162.006 102.894 162.12C103.22 162.231 103.571 162.286 103.946 162.286C104.383 162.286 104.776 162.216 105.123 162.074C105.471 161.929 105.747 161.729 105.95 161.474C106.153 161.215 106.255 160.914 106.255 160.569C106.255 160.255 106.167 160 105.991 159.803C105.816 159.606 105.585 159.446 105.299 159.323C105.013 159.2 104.703 159.092 104.371 158.999L103.208 158.667C102.469 158.455 101.884 158.152 101.453 157.758C101.023 157.364 100.807 156.848 100.807 156.211C100.807 155.682 100.95 155.22 101.236 154.826C101.526 154.429 101.913 154.121 102.4 153.903C102.889 153.681 103.435 153.57 104.039 153.57C104.648 153.57 105.19 153.68 105.664 153.898C106.138 154.114 106.513 154.409 106.79 154.785C107.07 155.16 107.218 155.586 107.233 156.063H106.125ZM110.187 153.7V163.154H109.097V153.7H110.187ZM114.269 163.32C113.819 163.32 113.412 163.236 113.045 163.067C112.679 162.894 112.388 162.646 112.173 162.323C111.957 161.997 111.85 161.603 111.85 161.142C111.85 160.735 111.93 160.406 112.09 160.154C112.25 159.898 112.464 159.698 112.731 159.553C112.999 159.409 113.295 159.301 113.618 159.23C113.944 159.156 114.272 159.098 114.601 159.055C115.032 158.999 115.381 158.958 115.649 158.93C115.92 158.899 116.117 158.849 116.24 158.778C116.366 158.707 116.429 158.584 116.429 158.409V158.372C116.429 157.916 116.305 157.562 116.055 157.31C115.809 157.057 115.435 156.931 114.934 156.931C114.413 156.931 114.006 157.045 113.71 157.273C113.415 157.501 113.207 157.744 113.087 158.002L112.053 157.633C112.237 157.202 112.484 156.867 112.791 156.627C113.102 156.383 113.441 156.214 113.807 156.119C114.176 156.02 114.54 155.971 114.897 155.971C115.124 155.971 115.386 155.999 115.681 156.054C115.98 156.106 116.268 156.216 116.545 156.382C116.825 156.548 117.057 156.799 117.242 157.134C117.426 157.47 117.519 157.919 117.519 158.482V163.154H116.429V162.194H116.374C116.3 162.348 116.177 162.513 116.005 162.688C115.832 162.863 115.603 163.013 115.317 163.136C115.03 163.259 114.681 163.32 114.269 163.32ZM114.435 162.342C114.866 162.342 115.229 162.257 115.524 162.088C115.823 161.919 116.048 161.7 116.198 161.432C116.352 161.165 116.429 160.883 116.429 160.588V159.59C116.383 159.646 116.282 159.697 116.125 159.743C115.971 159.786 115.792 159.824 115.589 159.858C115.389 159.889 115.194 159.917 115.003 159.941C114.815 159.963 114.663 159.981 114.546 159.997C114.263 160.034 113.998 160.094 113.752 160.177C113.509 160.257 113.312 160.378 113.161 160.541C113.013 160.701 112.939 160.92 112.939 161.197C112.939 161.575 113.079 161.862 113.359 162.056C113.642 162.246 114.001 162.342 114.435 162.342ZM122.388 163.302C121.723 163.302 121.151 163.145 120.671 162.831C120.191 162.517 119.821 162.085 119.563 161.534C119.304 160.983 119.175 160.354 119.175 159.646C119.175 158.926 119.307 158.29 119.572 157.739C119.84 157.185 120.212 156.753 120.689 156.442C121.169 156.128 121.729 155.971 122.369 155.971C122.868 155.971 123.317 156.063 123.718 156.248C124.118 156.433 124.445 156.691 124.701 157.024C124.956 157.356 125.115 157.744 125.176 158.187H124.087C124.004 157.864 123.819 157.578 123.533 157.328C123.25 157.076 122.868 156.95 122.388 156.95C121.963 156.95 121.591 157.061 121.271 157.282C120.954 157.501 120.706 157.81 120.528 158.21C120.352 158.607 120.264 159.073 120.264 159.609C120.264 160.157 120.351 160.634 120.523 161.04C120.698 161.446 120.945 161.762 121.262 161.986C121.582 162.211 121.957 162.323 122.388 162.323C122.671 162.323 122.928 162.274 123.159 162.176C123.39 162.077 123.585 161.936 123.745 161.751C123.905 161.566 124.019 161.345 124.087 161.086H125.176C125.115 161.505 124.962 161.882 124.719 162.217C124.479 162.55 124.161 162.814 123.764 163.011C123.37 163.205 122.911 163.302 122.388 163.302ZM127.785 160.569L127.766 159.221H127.988L131.09 156.063H132.438L129.133 159.406H129.04L127.785 160.569ZM126.769 163.154V153.7H127.858V163.154H126.769ZM131.275 163.154L128.505 159.646L129.28 158.889L132.66 163.154H131.275ZM139.103 163.154L136.943 156.063H138.087L139.62 161.492H139.694L141.208 156.063H142.372L143.867 161.474H143.941L145.474 156.063H146.619L144.458 163.154H143.387L141.836 157.707H141.725L140.174 163.154H139.103ZM150.791 163.302C150.108 163.302 149.518 163.151 149.023 162.85C148.53 162.545 148.15 162.12 147.882 161.575C147.618 161.028 147.485 160.391 147.485 159.664C147.485 158.938 147.618 158.298 147.882 157.744C148.15 157.187 148.523 156.753 149 156.442C149.48 156.128 150.04 155.971 150.68 155.971C151.049 155.971 151.414 156.033 151.774 156.156C152.134 156.279 152.462 156.479 152.757 156.756C153.053 157.03 153.288 157.393 153.464 157.845C153.639 158.298 153.727 158.855 153.727 159.517V159.978H148.261V159.036H152.619C152.619 158.636 152.539 158.279 152.379 157.965C152.222 157.651 151.997 157.404 151.705 157.222C151.416 157.041 151.074 156.95 150.68 156.95C150.246 156.95 149.871 157.057 149.554 157.273C149.24 157.485 148.998 157.762 148.829 158.104C148.66 158.445 148.575 158.812 148.575 159.203V159.83C148.575 160.366 148.667 160.82 148.852 161.192C149.04 161.562 149.3 161.843 149.632 162.037C149.964 162.228 150.351 162.323 150.791 162.323C151.077 162.323 151.336 162.283 151.566 162.203C151.8 162.12 152.002 161.997 152.171 161.834C152.34 161.668 152.471 161.462 152.564 161.215L153.616 161.511C153.505 161.868 153.319 162.182 153.058 162.453C152.796 162.72 152.473 162.93 152.088 163.08C151.703 163.228 151.271 163.302 150.791 163.302ZM155.532 163.154V153.7H156.621V157.19H156.714C156.794 157.067 156.905 156.91 157.046 156.719C157.191 156.525 157.397 156.353 157.665 156.202C157.936 156.048 158.302 155.971 158.763 155.971C159.361 155.971 159.887 156.12 160.342 156.419C160.798 156.717 161.153 157.141 161.409 157.688C161.664 158.236 161.792 158.883 161.792 159.627C161.792 160.378 161.664 161.029 161.409 161.58C161.153 162.128 160.799 162.553 160.347 162.854C159.895 163.153 159.373 163.302 158.782 163.302C158.326 163.302 157.962 163.227 157.688 163.076C157.414 162.922 157.203 162.748 157.055 162.554C156.908 162.357 156.794 162.194 156.714 162.065H156.585V163.154H155.532ZM156.603 159.609C156.603 160.144 156.681 160.617 156.838 161.026C156.995 161.432 157.225 161.751 157.526 161.982C157.828 162.209 158.197 162.323 158.634 162.323C159.09 162.323 159.47 162.203 159.774 161.963C160.082 161.72 160.313 161.394 160.467 160.985C160.624 160.572 160.702 160.114 160.702 159.609C160.702 159.11 160.625 158.661 160.472 158.261C160.321 157.858 160.091 157.539 159.784 157.305C159.479 157.068 159.096 156.95 158.634 156.95C158.191 156.95 157.819 157.062 157.517 157.287C157.215 157.508 156.988 157.819 156.834 158.219C156.68 158.616 156.603 159.079 156.603 159.609ZM164.548 158.889V163.154H163.458V153.7H164.548V157.171H164.64C164.806 156.805 165.056 156.514 165.388 156.299C165.724 156.08 166.17 155.971 166.727 155.971C167.21 155.971 167.633 156.068 167.996 156.262C168.36 156.453 168.641 156.747 168.841 157.144C169.044 157.538 169.146 158.039 169.146 158.649V163.154H168.056V158.722C168.056 158.159 167.91 157.724 167.618 157.416C167.329 157.105 166.927 156.95 166.413 156.95C166.056 156.95 165.736 157.025 165.453 157.176C165.173 157.327 164.951 157.547 164.788 157.836C164.628 158.125 164.548 158.476 164.548 158.889ZM174.02 163.302C173.38 163.302 172.818 163.15 172.335 162.845C171.855 162.54 171.479 162.114 171.208 161.566C170.941 161.018 170.807 160.378 170.807 159.646C170.807 158.907 170.941 158.262 171.208 157.711C171.479 157.161 171.855 156.733 172.335 156.428C172.818 156.123 173.38 155.971 174.02 155.971C174.66 155.971 175.22 156.123 175.7 156.428C176.183 156.733 176.559 157.161 176.827 157.711C177.097 158.262 177.233 158.907 177.233 159.646C177.233 160.378 177.097 161.018 176.827 161.566C176.559 162.114 176.183 162.54 175.7 162.845C175.22 163.15 174.66 163.302 174.02 163.302ZM174.02 162.323C174.506 162.323 174.906 162.199 175.22 161.949C175.534 161.7 175.766 161.372 175.917 160.966C176.068 160.56 176.143 160.12 176.143 159.646C176.143 159.172 176.068 158.73 175.917 158.321C175.766 157.912 175.534 157.581 175.22 157.328C174.906 157.076 174.506 156.95 174.02 156.95C173.534 156.95 173.133 157.076 172.82 157.328C172.506 157.581 172.273 157.912 172.122 158.321C171.972 158.73 171.896 159.172 171.896 159.646C171.896 160.12 171.972 160.56 172.122 160.966C172.273 161.372 172.506 161.7 172.82 161.949C173.133 162.199 173.534 162.323 174.02 162.323ZM181.777 163.302C181.136 163.302 180.575 163.15 180.092 162.845C179.612 162.54 179.236 162.114 178.965 161.566C178.697 161.018 178.564 160.378 178.564 159.646C178.564 158.907 178.697 158.262 178.965 157.711C179.236 157.161 179.612 156.733 180.092 156.428C180.575 156.123 181.136 155.971 181.777 155.971C182.417 155.971 182.977 156.123 183.457 156.428C183.94 156.733 184.316 157.161 184.583 157.711C184.854 158.262 184.99 158.907 184.99 159.646C184.99 160.378 184.854 161.018 184.583 161.566C184.316 162.114 183.94 162.54 183.457 162.845C182.977 163.15 182.417 163.302 181.777 163.302ZM181.777 162.323C182.263 162.323 182.663 162.199 182.977 161.949C183.291 161.7 183.523 161.372 183.674 160.966C183.825 160.56 183.9 160.12 183.9 159.646C183.9 159.172 183.825 158.73 183.674 158.321C183.523 157.912 183.291 157.581 182.977 157.328C182.663 157.076 182.263 156.95 181.777 156.95C181.29 156.95 180.89 157.076 180.576 157.328C180.262 157.581 180.03 157.912 179.879 158.321C179.728 158.73 179.653 159.172 179.653 159.646C179.653 160.12 179.728 160.56 179.879 160.966C180.03 161.372 180.262 161.7 180.576 161.949C180.89 162.199 181.29 162.323 181.777 162.323ZM187.668 160.569L187.65 159.221H187.872L190.974 156.063H192.322L189.016 159.406H188.924L187.668 160.569ZM186.653 163.154V153.7H187.742V163.154H186.653ZM191.158 163.154L188.389 159.646L189.164 158.889L192.543 163.154H191.158Z" fill="#EDECEC"/>
</g>
<g clip-path="url(#clip3_2229_1298)">
<path d="M62.4378 188.84V187.825H69.5287V188.84H66.5557V197.279H65.4108V188.84H62.4378ZM73.0926 197.427C72.4094 197.427 71.82 197.276 71.3245 196.975C70.8321 196.67 70.452 196.245 70.1842 195.7C69.9195 195.153 69.7872 194.516 69.7872 193.789C69.7872 193.063 69.9195 192.423 70.1842 191.869C70.452 191.312 70.8244 190.878 71.3014 190.567C71.7815 190.253 72.3416 190.096 72.9818 190.096C73.3511 190.096 73.7158 190.158 74.0759 190.281C74.436 190.404 74.7638 190.604 75.0592 190.881C75.3547 191.155 75.5901 191.518 75.7655 191.97C75.941 192.423 76.0287 192.98 76.0287 193.642V194.103H70.5628V193.161H74.9207C74.9207 192.761 74.8407 192.404 74.6807 192.09C74.5237 191.776 74.299 191.529 74.0067 191.347C73.7174 191.166 73.3757 191.075 72.9818 191.075C72.5478 191.075 72.1724 191.182 71.8554 191.398C71.5415 191.61 71.2999 191.887 71.1306 192.229C70.9613 192.57 70.8767 192.937 70.8767 193.328V193.955C70.8767 194.491 70.969 194.945 71.1537 195.317C71.3414 195.687 71.6015 195.968 71.9339 196.162C72.2662 196.353 72.6525 196.448 73.0926 196.448C73.3788 196.448 73.6373 196.408 73.8682 196.328C74.1021 196.245 74.3036 196.122 74.4729 195.959C74.6422 195.793 74.773 195.587 74.8653 195.34L75.9179 195.636C75.8071 195.993 75.6209 196.307 75.3593 196.578C75.0977 196.845 74.7745 197.055 74.3898 197.205C74.0051 197.353 73.5727 197.427 73.0926 197.427ZM78.7755 187.825V197.279H77.686V187.825H78.7755ZM83.744 197.427C83.0607 197.427 82.4713 197.276 81.9758 196.975C81.4834 196.67 81.1033 196.245 80.8356 195.7C80.5709 195.153 80.4386 194.516 80.4386 193.789C80.4386 193.063 80.5709 192.423 80.8356 191.869C81.1033 191.312 81.4757 190.878 81.9528 190.567C82.4329 190.253 82.993 190.096 83.6332 190.096C84.0025 190.096 84.3672 190.158 84.7273 190.281C85.0874 190.404 85.4151 190.604 85.7106 190.881C86.006 191.155 86.2415 191.518 86.4169 191.97C86.5923 192.423 86.68 192.98 86.68 193.642V194.103H81.2141V193.161H85.5721C85.5721 192.761 85.4921 192.404 85.332 192.09C85.1751 191.776 84.9504 191.529 84.658 191.347C84.3687 191.166 84.0271 191.075 83.6332 191.075C83.1992 191.075 82.8237 191.182 82.5067 191.398C82.1928 191.61 81.9512 191.887 81.782 192.229C81.6127 192.57 81.528 192.937 81.528 193.328V193.955C81.528 194.491 81.6204 194.945 81.805 195.317C81.9928 195.687 82.2528 195.968 82.5852 196.162C82.9176 196.353 83.3039 196.448 83.744 196.448C84.0302 196.448 84.2887 196.408 84.5195 196.328C84.7534 196.245 84.955 196.122 85.1243 195.959C85.2936 195.793 85.4244 195.587 85.5167 195.34L86.5692 195.636C86.4584 195.993 86.2722 196.307 86.0106 196.578C85.749 196.845 85.4259 197.055 85.0412 197.205C84.6565 197.353 84.2241 197.427 83.744 197.427ZM88.3374 197.279V190.188H89.3899V191.296H89.4822C89.63 190.918 89.8685 190.624 90.1978 190.415C90.5271 190.202 90.9226 190.096 91.3842 190.096C91.852 190.096 92.2414 190.202 92.5522 190.415C92.8661 190.624 93.1108 190.918 93.2862 191.296H93.3601C93.5417 190.93 93.814 190.639 94.1772 190.424C94.5404 190.205 94.9758 190.096 95.4837 190.096C96.1177 190.096 96.6362 190.295 97.0394 190.692C97.4426 191.086 97.6442 191.7 97.6442 192.534V197.279H96.5547V192.534C96.5547 192.01 96.4116 191.636 96.1254 191.412C95.8391 191.187 95.5021 191.075 95.1143 191.075C94.6158 191.075 94.2295 191.226 93.9556 191.527C93.6817 191.826 93.5447 192.204 93.5447 192.663V197.279H92.4368V192.423C92.4368 192.02 92.306 191.695 92.0444 191.449C91.7828 191.199 91.4458 191.075 91.0334 191.075C90.7502 191.075 90.4856 191.15 90.2393 191.301C89.9962 191.452 89.7992 191.661 89.6484 191.929C89.5007 192.193 89.4268 192.5 89.4268 192.847V197.279H88.3374ZM102.609 197.427C101.926 197.427 101.337 197.276 100.841 196.975C100.349 196.67 99.9686 196.245 99.7008 195.7C99.4361 195.153 99.3038 194.516 99.3038 193.789C99.3038 193.063 99.4361 192.423 99.7008 191.869C99.9686 191.312 100.341 190.878 100.818 190.567C101.298 190.253 101.858 190.096 102.498 190.096C102.868 190.096 103.232 190.158 103.593 190.281C103.953 190.404 104.28 190.604 104.576 190.881C104.871 191.155 105.107 191.518 105.282 191.97C105.458 192.423 105.545 192.98 105.545 193.642V194.103H100.079V193.161H104.437C104.437 192.761 104.357 192.404 104.197 192.09C104.04 191.776 103.816 191.529 103.523 191.347C103.234 191.166 102.892 191.075 102.498 191.075C102.064 191.075 101.689 191.182 101.372 191.398C101.058 191.61 100.816 191.887 100.647 192.229C100.478 192.57 100.393 192.937 100.393 193.328V193.955C100.393 194.491 100.486 194.945 100.67 195.317C100.858 195.687 101.118 195.968 101.45 196.162C101.783 196.353 102.169 196.448 102.609 196.448C102.895 196.448 103.154 196.408 103.385 196.328C103.619 196.245 103.82 196.122 103.99 195.959C104.159 195.793 104.29 195.587 104.382 195.34L105.434 195.636C105.324 195.993 105.137 196.307 104.876 196.578C104.614 196.845 104.291 197.055 103.906 197.205C103.522 197.353 103.089 197.427 102.609 197.427ZM110.286 190.188V191.112H106.612V190.188H110.286ZM107.683 188.49H108.772V195.248C108.772 195.556 108.817 195.787 108.906 195.941C108.998 196.091 109.115 196.193 109.257 196.245C109.402 196.294 109.554 196.319 109.714 196.319C109.834 196.319 109.932 196.313 110.009 196.301C110.086 196.285 110.148 196.273 110.194 196.264L110.416 197.242C110.342 197.27 110.239 197.298 110.106 197.325C109.974 197.356 109.806 197.372 109.603 197.372C109.295 197.372 108.994 197.305 108.698 197.173C108.406 197.041 108.163 196.839 107.969 196.568C107.778 196.298 107.683 195.956 107.683 195.544V188.49ZM111.925 197.279V190.188H112.978V191.259H113.052C113.181 190.909 113.415 190.624 113.753 190.405C114.092 190.187 114.474 190.078 114.898 190.078C114.978 190.078 115.078 190.079 115.198 190.082C115.318 190.085 115.409 190.09 115.471 190.096V191.204C115.434 191.195 115.349 191.181 115.217 191.162C115.088 191.141 114.951 191.13 114.806 191.13C114.461 191.13 114.153 191.202 113.883 191.347C113.615 191.489 113.403 191.686 113.246 191.938C113.092 192.187 113.015 192.472 113.015 192.792V197.279H111.925ZM117.68 199.938C117.495 199.938 117.33 199.923 117.186 199.892C117.041 199.865 116.941 199.837 116.886 199.809L117.163 198.849C117.427 198.917 117.661 198.941 117.864 198.923C118.067 198.904 118.248 198.814 118.404 198.65C118.565 198.49 118.711 198.23 118.843 197.87L119.046 197.316L116.424 190.188H117.606L119.563 195.839H119.637L121.594 190.188H122.776L119.766 198.313C119.631 198.68 119.463 198.983 119.263 199.223C119.063 199.466 118.831 199.646 118.566 199.763C118.304 199.88 118.009 199.938 117.68 199.938ZM131.213 187.382L128.166 198.701H127.169L130.216 187.382H131.213ZM138.247 197.445C137.798 197.445 137.39 197.361 137.024 197.192C136.658 197.019 136.367 196.771 136.151 196.448C135.936 196.122 135.828 195.728 135.828 195.267C135.828 194.86 135.908 194.531 136.068 194.279C136.228 194.023 136.442 193.823 136.71 193.678C136.978 193.534 137.273 193.426 137.596 193.355C137.923 193.281 138.25 193.223 138.58 193.18C139.011 193.124 139.36 193.083 139.628 193.055C139.898 193.024 140.095 192.974 140.218 192.903C140.345 192.832 140.408 192.709 140.408 192.534V192.497C140.408 192.041 140.283 191.687 140.034 191.435C139.788 191.182 139.414 191.056 138.912 191.056C138.392 191.056 137.984 191.17 137.689 191.398C137.393 191.626 137.185 191.869 137.065 192.127L136.031 191.758C136.216 191.327 136.462 190.992 136.77 190.752C137.081 190.508 137.419 190.339 137.786 190.244C138.155 190.145 138.518 190.096 138.875 190.096C139.103 190.096 139.364 190.124 139.66 190.179C139.958 190.231 140.246 190.341 140.523 190.507C140.803 190.673 141.036 190.924 141.22 191.259C141.405 191.595 141.497 192.044 141.497 192.607V197.279H140.408V196.319H140.352C140.278 196.473 140.155 196.638 139.983 196.813C139.811 196.988 139.581 197.138 139.295 197.261C139.009 197.384 138.66 197.445 138.247 197.445ZM138.413 196.467C138.844 196.467 139.207 196.382 139.503 196.213C139.801 196.044 140.026 195.825 140.177 195.557C140.331 195.29 140.408 195.008 140.408 194.713V193.715C140.362 193.771 140.26 193.822 140.103 193.868C139.949 193.911 139.771 193.949 139.568 193.983C139.368 194.014 139.172 194.042 138.981 194.066C138.794 194.088 138.641 194.106 138.524 194.122C138.241 194.159 137.976 194.219 137.73 194.302C137.487 194.382 137.29 194.503 137.139 194.666C136.992 194.826 136.918 195.045 136.918 195.322C136.918 195.7 137.058 195.987 137.338 196.181C137.621 196.371 137.979 196.467 138.413 196.467ZM144.575 193.014V197.279H143.486V190.188H144.538V191.296H144.631C144.797 190.936 145.049 190.647 145.388 190.428C145.726 190.207 146.163 190.096 146.699 190.096C147.179 190.096 147.599 190.195 147.959 190.392C148.319 190.585 148.599 190.881 148.799 191.278C148.999 191.672 149.099 192.17 149.099 192.774V197.279H148.01V192.847C148.01 192.29 147.865 191.856 147.576 191.546C147.287 191.232 146.89 191.075 146.385 191.075C146.037 191.075 145.726 191.15 145.452 191.301C145.182 191.452 144.968 191.672 144.811 191.961C144.654 192.25 144.575 192.601 144.575 193.014ZM153.177 197.445C152.728 197.445 152.32 197.361 151.954 197.192C151.587 197.019 151.296 196.771 151.081 196.448C150.866 196.122 150.758 195.728 150.758 195.267C150.758 194.86 150.838 194.531 150.998 194.279C151.158 194.023 151.372 193.823 151.64 193.678C151.907 193.534 152.203 193.426 152.526 193.355C152.852 193.281 153.18 193.223 153.509 193.18C153.94 193.124 154.29 193.083 154.557 193.055C154.828 193.024 155.025 192.974 155.148 192.903C155.274 192.832 155.337 192.709 155.337 192.534V192.497C155.337 192.041 155.213 191.687 154.964 191.435C154.717 191.182 154.343 191.056 153.842 191.056C153.322 191.056 152.914 191.17 152.618 191.398C152.323 191.626 152.115 191.869 151.995 192.127L150.961 191.758C151.146 191.327 151.392 190.992 151.7 190.752C152.011 190.508 152.349 190.339 152.715 190.244C153.085 190.145 153.448 190.096 153.805 190.096C154.033 190.096 154.294 190.124 154.59 190.179C154.888 190.231 155.176 190.341 155.453 190.507C155.733 190.673 155.965 190.924 156.15 191.259C156.335 191.595 156.427 192.044 156.427 192.607V197.279H155.337V196.319H155.282C155.208 196.473 155.085 196.638 154.913 196.813C154.74 196.988 154.511 197.138 154.225 197.261C153.939 197.384 153.589 197.445 153.177 197.445ZM153.343 196.467C153.774 196.467 154.137 196.382 154.433 196.213C154.731 196.044 154.956 195.825 155.107 195.557C155.261 195.29 155.337 195.008 155.337 194.713V193.715C155.291 193.771 155.19 193.822 155.033 193.868C154.879 193.911 154.7 193.949 154.497 193.983C154.297 194.014 154.102 194.042 153.911 194.066C153.723 194.088 153.571 194.106 153.454 194.122C153.171 194.159 152.906 194.219 152.66 194.302C152.417 194.382 152.22 194.503 152.069 194.666C151.921 194.826 151.847 195.045 151.847 195.322C151.847 195.7 151.987 195.987 152.267 196.181C152.551 196.371 152.909 196.467 153.343 196.467ZM159.505 187.825V197.279H158.415V187.825H159.505ZM162.202 199.938C162.017 199.938 161.853 199.923 161.708 199.892C161.564 199.865 161.464 199.837 161.408 199.809L161.685 198.849C161.95 198.917 162.184 198.941 162.387 198.923C162.59 198.904 162.77 198.814 162.927 198.65C163.087 198.49 163.233 198.23 163.365 197.87L163.569 197.316L160.946 190.188H162.128L164.086 195.839H164.16L166.117 190.188H167.299L164.289 198.313C164.153 198.68 163.986 198.983 163.786 199.223C163.586 199.466 163.353 199.646 163.089 199.763C162.827 199.88 162.531 199.938 162.202 199.938ZM171.821 190.188V191.112H168.146V190.188H171.821ZM169.217 188.49H170.306V195.248C170.306 195.556 170.351 195.787 170.44 195.941C170.533 196.091 170.65 196.193 170.791 196.245C170.936 196.294 171.088 196.319 171.248 196.319C171.368 196.319 171.467 196.313 171.544 196.301C171.621 196.285 171.682 196.273 171.728 196.264L171.95 197.242C171.876 197.27 171.773 197.298 171.641 197.325C171.508 197.356 171.34 197.372 171.137 197.372C170.83 197.372 170.528 197.305 170.233 197.173C169.94 197.041 169.697 196.839 169.503 196.568C169.312 196.298 169.217 195.956 169.217 195.544V188.49ZM173.459 197.279V190.188H174.549V197.279H173.459ZM174.013 189.007C173.801 189.007 173.618 188.934 173.464 188.79C173.313 188.645 173.238 188.471 173.238 188.268C173.238 188.065 173.313 187.891 173.464 187.746C173.618 187.602 173.801 187.529 174.013 187.529C174.226 187.529 174.407 187.602 174.558 187.746C174.712 187.891 174.789 188.065 174.789 188.268C174.789 188.471 174.712 188.645 174.558 188.79C174.407 188.934 174.226 189.007 174.013 189.007ZM179.425 197.427C178.76 197.427 178.188 197.27 177.708 196.956C177.228 196.642 176.858 196.21 176.6 195.659C176.341 195.108 176.212 194.479 176.212 193.771C176.212 193.051 176.344 192.415 176.609 191.864C176.877 191.31 177.249 190.878 177.726 190.567C178.206 190.253 178.766 190.096 179.407 190.096C179.905 190.096 180.355 190.188 180.755 190.373C181.155 190.558 181.482 190.816 181.738 191.149C181.993 191.481 182.152 191.869 182.213 192.312H181.124C181.041 191.989 180.856 191.703 180.57 191.453C180.287 191.201 179.905 191.075 179.425 191.075C179 191.075 178.628 191.186 178.308 191.407C177.991 191.626 177.743 191.935 177.565 192.335C177.389 192.732 177.301 193.198 177.301 193.734C177.301 194.282 177.388 194.759 177.56 195.165C177.735 195.571 177.982 195.887 178.299 196.111C178.619 196.336 178.994 196.448 179.425 196.448C179.708 196.448 179.965 196.399 180.196 196.301C180.427 196.202 180.622 196.061 180.782 195.876C180.942 195.691 181.056 195.47 181.124 195.211H182.213C182.152 195.63 182 196.007 181.756 196.342C181.516 196.675 181.198 196.939 180.801 197.136C180.407 197.33 179.948 197.427 179.425 197.427ZM188.829 191.776L187.85 192.053C187.789 191.89 187.698 191.732 187.578 191.578C187.461 191.421 187.301 191.292 187.098 191.19C186.895 191.089 186.634 191.038 186.317 191.038C185.884 191.038 185.522 191.138 185.233 191.338C184.946 191.535 184.803 191.786 184.803 192.09C184.803 192.361 184.902 192.575 185.099 192.732C185.296 192.889 185.603 193.02 186.022 193.124L187.075 193.383C187.709 193.537 188.181 193.772 188.492 194.089C188.803 194.403 188.958 194.808 188.958 195.303C188.958 195.71 188.841 196.073 188.607 196.393C188.376 196.713 188.053 196.965 187.638 197.15C187.222 197.335 186.739 197.427 186.188 197.427C185.465 197.427 184.866 197.27 184.392 196.956C183.918 196.642 183.618 196.184 183.492 195.58L184.526 195.322C184.625 195.704 184.811 195.99 185.085 196.181C185.362 196.371 185.723 196.467 186.17 196.467C186.678 196.467 187.081 196.359 187.379 196.144C187.681 195.925 187.832 195.664 187.832 195.359C187.832 195.113 187.745 194.906 187.573 194.74C187.401 194.571 187.136 194.445 186.779 194.362L185.597 194.085C184.948 193.931 184.471 193.692 184.166 193.369C183.865 193.043 183.714 192.635 183.714 192.146C183.714 191.746 183.826 191.392 184.051 191.084C184.279 190.776 184.588 190.535 184.979 190.359C185.373 190.184 185.819 190.096 186.317 190.096C187.019 190.096 187.57 190.25 187.97 190.558C188.373 190.865 188.66 191.272 188.829 191.776Z" fill="#EDECEC" fill-opacity="0.2"/>
</g>
<g clip-path="url(#clip4_2229_1298)">
<path d="M65.8724 225.529H62.9548V216.075H66.0017C66.9188 216.075 67.7036 216.264 68.3561 216.643C69.0085 217.018 69.5087 217.558 69.8564 218.263C70.2042 218.965 70.3781 219.805 70.3781 220.784C70.3781 221.768 70.2027 222.616 69.8518 223.327C69.501 224.035 68.9901 224.58 68.3192 224.961C67.6482 225.34 66.8326 225.529 65.8724 225.529ZM64.0997 224.514H65.7986C66.5803 224.514 67.2281 224.363 67.7421 224.061C68.2561 223.76 68.6392 223.33 68.8916 222.773C69.144 222.216 69.2701 221.553 69.2701 220.784C69.2701 220.02 69.1455 219.363 68.8962 218.812C68.6469 218.258 68.2745 217.834 67.779 217.538C67.2835 217.24 66.6665 217.09 65.9278 217.09H64.0997V224.514ZM74.2375 225.695C73.7881 225.695 73.3804 225.611 73.0141 225.442C72.6479 225.269 72.357 225.021 72.1416 224.698C71.9262 224.372 71.8184 223.978 71.8184 223.517C71.8184 223.11 71.8985 222.781 72.0585 222.529C72.2185 222.273 72.4324 222.073 72.7002 221.928C72.9679 221.784 73.2634 221.676 73.5866 221.605C73.9128 221.531 74.2406 221.473 74.5699 221.43C75.0007 221.374 75.35 221.333 75.6178 221.305C75.8886 221.274 76.0856 221.224 76.2087 221.153C76.3349 221.082 76.398 220.959 76.398 220.784V220.747C76.398 220.291 76.2733 219.937 76.0241 219.685C75.7778 219.432 75.4039 219.306 74.9023 219.306C74.3821 219.306 73.9743 219.42 73.6789 219.648C73.3834 219.876 73.1757 220.119 73.0557 220.377L72.0216 220.008C72.2062 219.577 72.4524 219.242 72.7602 219.002C73.071 218.758 73.4096 218.589 73.7758 218.494C74.1451 218.395 74.5083 218.346 74.8653 218.346C75.0931 218.346 75.3547 218.374 75.6501 218.429C75.9487 218.481 76.2364 218.591 76.5134 218.757C76.7935 218.923 77.0258 219.174 77.2105 219.509C77.3951 219.845 77.4875 220.294 77.4875 220.857V225.529H76.398V224.569H76.3426C76.2687 224.723 76.1456 224.888 75.9733 225.063C75.8009 225.238 75.5716 225.388 75.2854 225.511C74.9992 225.634 74.6499 225.695 74.2375 225.695ZM74.4037 224.717C74.8345 224.717 75.1977 224.632 75.4932 224.463C75.7917 224.294 76.0164 224.075 76.1672 223.807C76.321 223.54 76.398 223.258 76.398 222.963V221.965C76.3518 222.021 76.2503 222.072 76.0933 222.118C75.9394 222.161 75.7609 222.199 75.5578 222.233C75.3577 222.264 75.1623 222.292 74.9715 222.316C74.7838 222.338 74.6314 222.356 74.5145 222.372C74.2313 222.409 73.9666 222.469 73.7204 222.552C73.4773 222.632 73.2803 222.753 73.1295 222.916C72.9818 223.076 72.9079 223.295 72.9079 223.572C72.9079 223.95 73.048 224.237 73.328 224.431C73.6112 224.621 73.9697 224.717 74.4037 224.717ZM82.5598 218.438V219.362H78.8851V218.438H82.5598ZM79.9561 216.74H81.0456V223.498C81.0456 223.806 81.0903 224.037 81.1795 224.191C81.2718 224.341 81.3888 224.443 81.5304 224.495C81.675 224.544 81.8274 224.569 81.9874 224.569C82.1074 224.569 82.2059 224.563 82.2828 224.551C82.3598 224.535 82.4213 224.523 82.4675 224.514L82.6891 225.492C82.6152 225.52 82.5121 225.548 82.3798 225.575C82.2475 225.606 82.0797 225.622 81.8766 225.622C81.5688 225.622 81.2672 225.555 80.9718 225.423C80.6794 225.291 80.4363 225.089 80.2424 224.818C80.0515 224.548 79.9561 224.206 79.9561 223.794V216.74ZM86.2853 225.695C85.836 225.695 85.4282 225.611 85.062 225.442C84.6957 225.269 84.4049 225.021 84.1894 224.698C83.974 224.372 83.8663 223.978 83.8663 223.517C83.8663 223.11 83.9463 222.781 84.1064 222.529C84.2664 222.273 84.4803 222.073 84.748 221.928C85.0158 221.784 85.3113 221.676 85.6344 221.605C85.9606 221.531 86.2884 221.473 86.6177 221.43C87.0486 221.374 87.3979 221.333 87.6657 221.305C87.9365 221.274 88.1335 221.224 88.2566 221.153C88.3827 221.082 88.4458 220.959 88.4458 220.784V220.747C88.4458 220.291 88.3212 219.937 88.0719 219.685C87.8257 219.432 87.4518 219.306 86.9501 219.306C86.43 219.306 86.0222 219.42 85.7267 219.648C85.4313 219.876 85.2235 220.119 85.1035 220.377L84.0694 220.008C84.2541 219.577 84.5003 219.242 84.8081 219.002C85.1189 218.758 85.4574 218.589 85.8237 218.494C86.193 218.395 86.5562 218.346 86.9132 218.346C87.1409 218.346 87.4025 218.374 87.698 218.429C87.9965 218.481 88.2843 218.591 88.5613 218.757C88.8413 218.923 89.0737 219.174 89.2583 219.509C89.443 219.845 89.5353 220.294 89.5353 220.857V225.529H88.4458V224.569H88.3904C88.3166 224.723 88.1935 224.888 88.0211 225.063C87.8488 225.238 87.6195 225.388 87.3333 225.511C87.047 225.634 86.6977 225.695 86.2853 225.695ZM86.4515 224.717C86.8824 224.717 87.2456 224.632 87.541 224.463C87.8395 224.294 88.0642 224.075 88.215 223.807C88.3689 223.54 88.4458 223.258 88.4458 222.963V221.965C88.3997 222.021 88.2981 222.072 88.1412 222.118C87.9873 222.161 87.8088 222.199 87.6056 222.233C87.4056 222.264 87.2102 222.292 87.0193 222.316C86.8316 222.338 86.6793 222.356 86.5623 222.372C86.2792 222.409 86.0145 222.469 85.7683 222.552C85.5251 222.632 85.3282 222.753 85.1774 222.916C85.0296 223.076 84.9558 223.295 84.9558 223.572C84.9558 223.95 85.0958 224.237 85.3759 224.431C85.659 224.621 86.0176 224.717 86.4515 224.717ZM94.2014 225.677C93.6105 225.677 93.0889 225.528 92.6364 225.229C92.184 224.928 91.8301 224.503 91.5747 223.955C91.3192 223.404 91.1915 222.753 91.1915 222.002C91.1915 221.258 91.3192 220.611 91.5747 220.063C91.8301 219.516 92.1856 219.092 92.6411 218.794C93.0966 218.495 93.6228 218.346 94.2199 218.346C94.6815 218.346 95.0462 218.423 95.314 218.577C95.5848 218.728 95.791 218.9 95.9326 219.094C96.0773 219.285 96.1896 219.442 96.2696 219.565H96.3619V216.075H97.4514V225.529H96.3989V224.44H96.2696C96.1896 224.569 96.0757 224.732 95.928 224.929C95.7803 225.123 95.5695 225.297 95.2955 225.451C95.0216 225.602 94.6569 225.677 94.2014 225.677ZM94.3492 224.698C94.7862 224.698 95.1555 224.584 95.4571 224.357C95.7587 224.126 95.988 223.807 96.145 223.401C96.3019 222.992 96.3804 222.519 96.3804 221.984C96.3804 221.454 96.3035 220.991 96.1496 220.594C95.9957 220.194 95.768 219.883 95.4663 219.662C95.1647 219.437 94.7923 219.325 94.3492 219.325C93.8875 219.325 93.5028 219.443 93.195 219.68C92.8904 219.914 92.6611 220.233 92.5072 220.636C92.3564 221.036 92.281 221.485 92.281 221.984C92.281 222.489 92.3579 222.947 92.5118 223.36C92.6688 223.769 92.8996 224.095 93.2043 224.338C93.512 224.578 93.8937 224.698 94.3492 224.698ZM102.479 225.677C101.839 225.677 101.277 225.525 100.794 225.22C100.314 224.915 99.9382 224.489 99.6673 223.941C99.3996 223.393 99.2657 222.753 99.2657 222.021C99.2657 221.282 99.3996 220.637 99.6673 220.086C99.9382 219.536 100.314 219.108 100.794 218.803C101.277 218.498 101.839 218.346 102.479 218.346C103.119 218.346 103.679 218.498 104.159 218.803C104.642 219.108 105.018 219.536 105.286 220.086C105.556 220.637 105.692 221.282 105.692 222.021C105.692 222.753 105.556 223.393 105.286 223.941C105.018 224.489 104.642 224.915 104.159 225.22C103.679 225.525 103.119 225.677 102.479 225.677ZM102.479 224.698C102.965 224.698 103.365 224.574 103.679 224.324C103.993 224.075 104.225 223.747 104.376 223.341C104.527 222.935 104.602 222.495 104.602 222.021C104.602 221.547 104.527 221.105 104.376 220.696C104.225 220.287 103.993 219.956 103.679 219.703C103.365 219.451 102.965 219.325 102.479 219.325C101.993 219.325 101.592 219.451 101.278 219.703C100.965 219.956 100.732 220.287 100.581 220.696C100.431 221.105 100.355 221.547 100.355 222.021C100.355 222.495 100.431 222.935 100.581 223.341C100.732 223.747 100.965 224.075 101.278 224.324C101.592 224.574 101.993 224.698 102.479 224.698ZM110.217 228.336C109.691 228.336 109.238 228.268 108.86 228.133C108.481 228.001 108.166 227.825 107.914 227.607C107.664 227.391 107.466 227.16 107.318 226.914L108.186 226.305C108.284 226.434 108.409 226.582 108.56 226.748C108.711 226.917 108.917 227.064 109.178 227.187C109.443 227.313 109.789 227.376 110.217 227.376C110.79 227.376 111.262 227.237 111.634 226.96C112.007 226.683 112.193 226.249 112.193 225.659V224.218H112.101C112.021 224.347 111.907 224.508 111.759 224.698C111.614 224.886 111.405 225.054 111.131 225.202C110.86 225.346 110.494 225.419 110.032 225.419C109.46 225.419 108.946 225.283 108.491 225.012C108.038 224.741 107.68 224.347 107.415 223.83C107.153 223.313 107.023 222.686 107.023 221.947C107.023 221.221 107.15 220.588 107.406 220.05C107.661 219.508 108.017 219.089 108.472 218.794C108.928 218.495 109.454 218.346 110.051 218.346C110.513 218.346 110.879 218.423 111.15 218.577C111.424 218.728 111.633 218.9 111.778 219.094C111.925 219.285 112.039 219.442 112.119 219.565H112.23V218.438H113.282V225.732C113.282 226.342 113.144 226.837 112.867 227.219C112.593 227.604 112.224 227.885 111.759 228.064C111.297 228.245 110.783 228.336 110.217 228.336ZM110.18 224.44C110.617 224.44 110.987 224.34 111.288 224.14C111.59 223.94 111.819 223.652 111.976 223.276C112.133 222.901 112.211 222.452 112.211 221.928C112.211 221.418 112.135 220.967 111.981 220.576C111.827 220.185 111.599 219.879 111.297 219.657C110.996 219.436 110.623 219.325 110.18 219.325C109.719 219.325 109.334 219.442 109.026 219.676C108.721 219.91 108.492 220.223 108.338 220.617C108.187 221.011 108.112 221.448 108.112 221.928C108.112 222.421 108.189 222.856 108.343 223.235C108.5 223.61 108.731 223.906 109.035 224.121C109.343 224.334 109.725 224.44 110.18 224.44Z" fill="#EDECEC" fill-opacity="0.2"/>
</g>
<g clip-path="url(#clip5_2229_1298)">
<path d="M63.3426 253.779H62.1423L65.6139 244.325H66.7957L70.2673 253.779H69.067L66.2417 245.82H66.1679L63.3426 253.779ZM63.7858 250.086H68.6238V251.102H63.7858V250.086ZM72.6817 249.514V253.779H71.5922V246.688H72.6448V247.796H72.7371C72.9033 247.436 73.1557 247.147 73.4942 246.928C73.8328 246.707 74.2698 246.596 74.8053 246.596C75.2854 246.596 75.7055 246.695 76.0656 246.892C76.4257 247.085 76.7058 247.381 76.9058 247.778C77.1058 248.172 77.2059 248.67 77.2059 249.274V253.779H76.1164V249.347C76.1164 248.79 75.9717 248.356 75.6824 248.046C75.3931 247.732 74.9961 247.575 74.4914 247.575C74.1436 247.575 73.8328 247.65 73.5589 247.801C73.288 247.952 73.0741 248.172 72.9172 248.461C72.7602 248.75 72.6817 249.101 72.6817 249.514ZM81.2834 253.945C80.834 253.945 80.4263 253.861 80.06 253.692C79.6938 253.519 79.4029 253.271 79.1875 252.948C78.9721 252.622 78.8643 252.228 78.8643 251.767C78.8643 251.36 78.9444 251.031 79.1044 250.779C79.2644 250.523 79.4783 250.323 79.7461 250.178C80.0138 250.034 80.3093 249.926 80.6325 249.855C80.9587 249.781 81.2865 249.723 81.6158 249.68C82.0466 249.624 82.3959 249.583 82.6637 249.555C82.9345 249.524 83.1315 249.474 83.2546 249.403C83.3808 249.332 83.4439 249.209 83.4439 249.034V248.997C83.4439 248.541 83.3192 248.187 83.07 247.935C82.8237 247.682 82.4498 247.556 81.9481 247.556C81.428 247.556 81.0202 247.67 80.7248 247.898C80.4293 248.126 80.2216 248.369 80.1016 248.627L79.0675 248.258C79.2521 247.827 79.4983 247.492 79.8061 247.252C80.1169 247.008 80.4555 246.839 80.8217 246.744C81.191 246.645 81.5542 246.596 81.9112 246.596C82.139 246.596 82.4006 246.624 82.696 246.679C82.9946 246.731 83.2823 246.841 83.5593 247.007C83.8394 247.173 84.0717 247.424 84.2564 247.759C84.441 248.095 84.5334 248.544 84.5334 249.107V253.779H83.4439V252.819H83.3885C83.3146 252.973 83.1915 253.138 83.0192 253.313C82.8468 253.488 82.6175 253.638 82.3313 253.761C82.0451 253.884 81.6958 253.945 81.2834 253.945ZM81.4496 252.967C81.8804 252.967 82.2436 252.882 82.5391 252.713C82.8376 252.544 83.0623 252.325 83.2131 252.057C83.3669 251.79 83.4439 251.508 83.4439 251.213V250.215C83.3977 250.271 83.2962 250.322 83.1392 250.368C82.9853 250.411 82.8068 250.449 82.6037 250.483C82.4036 250.514 82.2082 250.542 82.0174 250.566C81.8297 250.588 81.6773 250.606 81.5604 250.622C81.2772 250.659 81.0125 250.719 80.7663 250.802C80.5232 250.882 80.3262 251.003 80.1754 251.166C80.0277 251.326 79.9538 251.545 79.9538 251.822C79.9538 252.2 80.0939 252.487 80.3739 252.681C80.6571 252.871 81.0156 252.967 81.4496 252.967ZM87.6114 244.325V253.779H86.5219V244.325H87.6114ZM90.3086 256.438C90.1239 256.438 89.9593 256.423 89.8146 256.392C89.67 256.365 89.57 256.337 89.5146 256.309L89.7915 255.349C90.0562 255.417 90.2901 255.441 90.4932 255.423C90.6964 255.404 90.8764 255.314 91.0334 255.15C91.1934 254.99 91.3396 254.73 91.4719 254.37L91.6751 253.816L89.0529 246.688H90.2347L92.1921 252.339H92.266L94.2234 246.688H95.4052L92.3952 254.813C92.2598 255.18 92.0921 255.483 91.892 255.723C91.692 255.966 91.4596 256.146 91.195 256.263C90.9334 256.38 90.6379 256.438 90.3086 256.438ZM99.927 246.688V247.612H96.2523V246.688H99.927ZM97.3233 244.99H98.4128V251.748C98.4128 252.056 98.4574 252.287 98.5467 252.441C98.639 252.591 98.756 252.693 98.8975 252.745C99.0422 252.794 99.1945 252.819 99.3546 252.819C99.4746 252.819 99.5731 252.813 99.65 252.801C99.727 252.785 99.7885 252.773 99.8347 252.764L100.056 253.742C99.9824 253.77 99.8793 253.798 99.747 253.825C99.6146 253.856 99.4469 253.872 99.2438 253.872C98.936 253.872 98.6344 253.805 98.339 253.673C98.0466 253.541 97.8034 253.339 97.6095 253.068C97.4187 252.798 97.3233 252.456 97.3233 252.044V244.99ZM101.566 253.779V246.688H102.655V253.779H101.566ZM102.12 245.507C101.907 245.507 101.724 245.434 101.57 245.29C101.42 245.145 101.344 244.971 101.344 244.768C101.344 244.565 101.42 244.391 101.57 244.246C101.724 244.102 101.907 244.029 102.12 244.029C102.332 244.029 102.514 244.102 102.665 244.246C102.818 244.391 102.895 244.565 102.895 244.768C102.895 244.971 102.818 245.145 102.665 245.29C102.514 245.434 102.332 245.507 102.12 245.507ZM107.532 253.927C106.867 253.927 106.294 253.77 105.814 253.456C105.334 253.142 104.965 252.71 104.706 252.159C104.448 251.608 104.318 250.979 104.318 250.271C104.318 249.551 104.451 248.915 104.715 248.364C104.983 247.81 105.356 247.378 105.833 247.067C106.313 246.753 106.873 246.596 107.513 246.596C108.012 246.596 108.461 246.688 108.861 246.873C109.261 247.058 109.589 247.316 109.844 247.649C110.1 247.981 110.258 248.369 110.32 248.812H109.23C109.147 248.489 108.963 248.203 108.676 247.953C108.393 247.701 108.012 247.575 107.532 247.575C107.107 247.575 106.734 247.686 106.414 247.907C106.097 248.126 105.85 248.435 105.671 248.835C105.496 249.232 105.408 249.698 105.408 250.234C105.408 250.782 105.494 251.259 105.666 251.665C105.842 252.071 106.088 252.387 106.405 252.611C106.725 252.836 107.101 252.948 107.532 252.948C107.815 252.948 108.072 252.899 108.302 252.801C108.533 252.702 108.729 252.561 108.889 252.376C109.049 252.191 109.163 251.97 109.23 251.711H110.32C110.258 252.13 110.106 252.507 109.863 252.842C109.623 253.175 109.304 253.439 108.907 253.636C108.513 253.83 108.055 253.927 107.532 253.927ZM116.935 248.276L115.957 248.553C115.895 248.39 115.804 248.232 115.684 248.078C115.567 247.921 115.407 247.792 115.204 247.69C115.001 247.589 114.741 247.538 114.424 247.538C113.99 247.538 113.628 247.638 113.339 247.838C113.053 248.035 112.91 248.286 112.91 248.59C112.91 248.861 113.008 249.075 113.205 249.232C113.402 249.389 113.71 249.52 114.128 249.624L115.181 249.883C115.815 250.037 116.287 250.272 116.598 250.589C116.909 250.903 117.065 251.308 117.065 251.803C117.065 252.21 116.948 252.573 116.714 252.893C116.483 253.213 116.16 253.465 115.744 253.65C115.329 253.835 114.846 253.927 114.295 253.927C113.571 253.927 112.973 253.77 112.499 253.456C112.025 253.142 111.725 252.684 111.599 252.08L112.633 251.822C112.731 252.204 112.917 252.49 113.191 252.681C113.468 252.871 113.83 252.967 114.276 252.967C114.784 252.967 115.187 252.859 115.486 252.644C115.787 252.425 115.938 252.164 115.938 251.859C115.938 251.613 115.852 251.406 115.68 251.24C115.507 251.071 115.243 250.945 114.886 250.862L113.704 250.585C113.054 250.431 112.577 250.192 112.273 249.869C111.971 249.543 111.82 249.135 111.82 248.646C111.82 248.246 111.933 247.892 112.157 247.584C112.385 247.276 112.694 247.035 113.085 246.859C113.479 246.684 113.925 246.596 114.424 246.596C115.126 246.596 115.677 246.75 116.077 247.058C116.48 247.365 116.766 247.772 116.935 248.276ZM125.703 243.882L122.656 255.201H121.659L124.706 243.882H125.703ZM133.735 246.688V247.612H130.06V246.688H133.735ZM131.131 244.99H132.22V251.748C132.22 252.056 132.265 252.287 132.354 252.441C132.447 252.591 132.564 252.693 132.705 252.745C132.85 252.794 133.002 252.819 133.162 252.819C133.282 252.819 133.381 252.813 133.458 252.801C133.535 252.785 133.596 252.773 133.642 252.764L133.864 253.742C133.79 253.77 133.687 253.798 133.555 253.825C133.422 253.856 133.255 253.872 133.051 253.872C132.744 253.872 132.442 253.805 132.147 253.673C131.854 253.541 131.611 253.339 131.417 253.068C131.226 252.798 131.131 252.456 131.131 252.044V244.99ZM135.373 253.779V246.688H136.426V247.759H136.5C136.629 247.409 136.863 247.124 137.202 246.905C137.54 246.687 137.922 246.578 138.346 246.578C138.427 246.578 138.527 246.579 138.647 246.582C138.767 246.585 138.857 246.59 138.919 246.596V247.704C138.882 247.695 138.797 247.681 138.665 247.662C138.536 247.641 138.399 247.63 138.254 247.63C137.909 247.63 137.602 247.702 137.331 247.847C137.063 247.989 136.851 248.186 136.694 248.438C136.54 248.687 136.463 248.972 136.463 249.292V253.779H135.373ZM142.297 253.945C141.848 253.945 141.44 253.861 141.074 253.692C140.707 253.519 140.417 253.271 140.201 252.948C139.986 252.622 139.878 252.228 139.878 251.767C139.878 251.36 139.958 251.031 140.118 250.779C140.278 250.523 140.492 250.323 140.76 250.178C141.028 250.034 141.323 249.926 141.646 249.855C141.972 249.781 142.3 249.723 142.629 249.68C143.06 249.624 143.41 249.583 143.677 249.555C143.948 249.524 144.145 249.474 144.268 249.403C144.394 249.332 144.458 249.209 144.458 249.034V248.997C144.458 248.541 144.333 248.187 144.084 247.935C143.837 247.682 143.463 247.556 142.962 247.556C142.442 247.556 142.034 247.67 141.738 247.898C141.443 248.126 141.235 248.369 141.115 248.627L140.081 248.258C140.266 247.827 140.512 247.492 140.82 247.252C141.131 247.008 141.469 246.839 141.835 246.744C142.205 246.645 142.568 246.596 142.925 246.596C143.153 246.596 143.414 246.624 143.71 246.679C144.008 246.731 144.296 246.841 144.573 247.007C144.853 247.173 145.085 247.424 145.27 247.759C145.455 248.095 145.547 248.544 145.547 249.107V253.779H144.458V252.819H144.402C144.328 252.973 144.205 253.138 144.033 253.313C143.86 253.488 143.631 253.638 143.345 253.761C143.059 253.884 142.709 253.945 142.297 253.945ZM142.463 252.967C142.894 252.967 143.257 252.882 143.553 252.713C143.851 252.544 144.076 252.325 144.227 252.057C144.381 251.79 144.458 251.508 144.458 251.213V250.215C144.411 250.271 144.31 250.322 144.153 250.368C143.999 250.411 143.82 250.449 143.617 250.483C143.417 250.514 143.222 250.542 143.031 250.566C142.843 250.588 142.691 250.606 142.574 250.622C142.291 250.659 142.026 250.719 141.78 250.802C141.537 250.882 141.34 251.003 141.189 251.166C141.041 251.326 140.968 251.545 140.968 251.822C140.968 252.2 141.108 252.487 141.388 252.681C141.671 252.871 142.029 252.967 142.463 252.967ZM150.416 253.927C149.752 253.927 149.179 253.77 148.699 253.456C148.219 253.142 147.85 252.71 147.591 252.159C147.332 251.608 147.203 250.979 147.203 250.271C147.203 249.551 147.336 248.915 147.6 248.364C147.868 247.81 148.24 247.378 148.717 247.067C149.198 246.753 149.758 246.596 150.398 246.596C150.896 246.596 151.346 246.688 151.746 246.873C152.146 247.058 152.474 247.316 152.729 247.649C152.985 247.981 153.143 248.369 153.205 248.812H152.115C152.032 248.489 151.847 248.203 151.561 247.953C151.278 247.701 150.896 247.575 150.416 247.575C149.992 247.575 149.619 247.686 149.299 247.907C148.982 248.126 148.734 248.435 148.556 248.835C148.38 249.232 148.293 249.698 148.293 250.234C148.293 250.782 148.379 251.259 148.551 251.665C148.727 252.071 148.973 252.387 149.29 252.611C149.61 252.836 149.985 252.948 150.416 252.948C150.699 252.948 150.956 252.899 151.187 252.801C151.418 252.702 151.613 252.561 151.774 252.376C151.934 252.191 152.047 251.97 152.115 251.711H153.205C153.143 252.13 152.991 252.507 152.748 252.842C152.508 253.175 152.189 253.439 151.792 253.636C151.398 253.83 150.939 253.927 150.416 253.927ZM155.813 251.194L155.794 249.846H156.016L159.118 246.688H160.466L157.161 250.031H157.069L155.813 251.194ZM154.797 253.779V244.325H155.887V253.779H154.797ZM159.303 253.779L156.533 250.271L157.309 249.514L160.688 253.779H159.303ZM161.869 253.779V246.688H162.958V253.779H161.869ZM162.423 245.507C162.21 245.507 162.027 245.434 161.873 245.29C161.722 245.145 161.647 244.971 161.647 244.768C161.647 244.565 161.722 244.391 161.873 244.246C162.027 244.102 162.21 244.029 162.423 244.029C162.635 244.029 162.817 244.102 162.967 244.246C163.121 244.391 163.198 244.565 163.198 244.768C163.198 244.971 163.121 245.145 162.967 245.29C162.817 245.434 162.635 245.507 162.423 245.507ZM166.043 249.514V253.779H164.954V246.688H166.006V247.796H166.098C166.265 247.436 166.517 247.147 166.856 246.928C167.194 246.707 167.631 246.596 168.167 246.596C168.647 246.596 169.067 246.695 169.427 246.892C169.787 247.085 170.067 247.381 170.267 247.778C170.467 248.172 170.567 248.67 170.567 249.274V253.779H169.478V249.347C169.478 248.79 169.333 248.356 169.044 248.046C168.754 247.732 168.357 247.575 167.853 247.575C167.505 247.575 167.194 247.65 166.92 247.801C166.649 247.952 166.435 248.172 166.278 248.461C166.122 248.75 166.043 249.101 166.043 249.514ZM175.42 256.586C174.894 256.586 174.442 256.518 174.063 256.383C173.684 256.251 173.369 256.075 173.117 255.857C172.867 255.641 172.669 255.41 172.521 255.164L173.389 254.555C173.488 254.684 173.612 254.832 173.763 254.998C173.914 255.167 174.12 255.314 174.382 255.437C174.646 255.563 174.992 255.626 175.42 255.626C175.993 255.626 176.465 255.487 176.838 255.21C177.21 254.933 177.396 254.499 177.396 253.909V252.468H177.304C177.224 252.597 177.11 252.758 176.962 252.948C176.818 253.136 176.608 253.304 176.334 253.452C176.064 253.596 175.697 253.669 175.236 253.669C174.663 253.669 174.149 253.533 173.694 253.262C173.241 252.991 172.883 252.597 172.618 252.08C172.356 251.563 172.226 250.936 172.226 250.197C172.226 249.471 172.353 248.838 172.609 248.3C172.864 247.758 173.22 247.339 173.675 247.044C174.131 246.745 174.657 246.596 175.254 246.596C175.716 246.596 176.082 246.673 176.353 246.827C176.627 246.978 176.836 247.15 176.981 247.344C177.128 247.535 177.242 247.692 177.322 247.815H177.433V246.688H178.486V253.982C178.486 254.592 178.347 255.087 178.07 255.469C177.796 255.854 177.427 256.135 176.962 256.314C176.501 256.495 175.987 256.586 175.42 256.586ZM175.383 252.69C175.82 252.69 176.19 252.59 176.491 252.39C176.793 252.19 177.022 251.902 177.179 251.526C177.336 251.151 177.415 250.702 177.415 250.178C177.415 249.668 177.338 249.217 177.184 248.826C177.03 248.435 176.802 248.129 176.501 247.907C176.199 247.686 175.827 247.575 175.383 247.575C174.922 247.575 174.537 247.692 174.229 247.926C173.925 248.16 173.695 248.473 173.541 248.867C173.391 249.261 173.315 249.698 173.315 250.178C173.315 250.671 173.392 251.106 173.546 251.485C173.703 251.86 173.934 252.156 174.238 252.371C174.546 252.584 174.928 252.69 175.383 252.69Z" fill="#EDECEC" fill-opacity="0.2"/>
</g>
<g clip-path="url(#clip6_2229_1298)">
<path d="M62.9548 282.029V272.575H68.6608V273.59H64.0997V276.785H68.3653V277.801H64.0997V281.014H68.7346V282.029H62.9548ZM71.3891 274.938L73.088 277.838L74.7868 274.938H76.0425L73.7527 278.484L76.0425 282.029H74.7868L73.088 279.278L71.3891 282.029H70.1334L72.3863 278.484L70.1334 274.938H71.3891ZM80.6809 274.938V275.862H77.0062V274.938H80.6809ZM78.0772 273.24H79.1667V279.998C79.1667 280.306 79.2113 280.537 79.3006 280.691C79.3929 280.841 79.5099 280.943 79.6515 280.995C79.7961 281.044 79.9484 281.069 80.1085 281.069C80.2285 281.069 80.327 281.063 80.4039 281.051C80.4809 281.035 80.5424 281.023 80.5886 281.014L80.8102 281.992C80.7363 282.02 80.6332 282.048 80.5009 282.075C80.3685 282.106 80.2008 282.122 79.9977 282.122C79.6899 282.122 79.3883 282.055 79.0929 281.923C78.8005 281.791 78.5573 281.589 78.3635 281.318C78.1726 281.048 78.0772 280.706 78.0772 280.294V273.24ZM85.2166 282.177C84.5334 282.177 83.944 282.026 83.4485 281.725C82.9561 281.42 82.576 280.995 82.3082 280.45C82.0436 279.903 81.9112 279.266 81.9112 278.539C81.9112 277.813 82.0436 277.173 82.3082 276.619C82.576 276.062 82.9484 275.628 83.4254 275.317C83.9055 275.003 84.4657 274.846 85.1058 274.846C85.4751 274.846 85.8398 274.908 86.1999 275.031C86.56 275.154 86.8878 275.354 87.1832 275.631C87.4787 275.905 87.7141 276.268 87.8896 276.72C88.065 277.173 88.1527 277.73 88.1527 278.392V278.853H82.6868V277.911H87.0447C87.0447 277.511 86.9647 277.154 86.8047 276.84C86.6477 276.526 86.4231 276.279 86.1307 276.097C85.8414 275.916 85.4998 275.825 85.1058 275.825C84.6719 275.825 84.2964 275.932 83.9794 276.148C83.6655 276.36 83.4239 276.637 83.2546 276.979C83.0853 277.32 83.0007 277.687 83.0007 278.078V278.705C83.0007 279.241 83.093 279.695 83.2777 280.067C83.4654 280.437 83.7255 280.718 84.0579 280.912C84.3903 281.103 84.7765 281.198 85.2166 281.198C85.5028 281.198 85.7614 281.158 85.9922 281.078C86.2261 280.995 86.4277 280.872 86.5969 280.709C86.7662 280.543 86.897 280.337 86.9893 280.09L88.0419 280.386C87.9311 280.743 87.7449 281.057 87.4833 281.328C87.2217 281.595 86.8986 281.805 86.5138 281.955C86.1291 282.103 85.6967 282.177 85.2166 282.177ZM89.81 282.029V274.938H90.8626V276.009H90.9364C91.0657 275.659 91.2996 275.374 91.6381 275.155C91.9767 274.937 92.3583 274.828 92.783 274.828C92.863 274.828 92.9631 274.829 93.0831 274.832C93.2031 274.835 93.2939 274.84 93.3555 274.846V275.954C93.3185 275.945 93.2339 275.931 93.1016 275.912C92.9723 275.891 92.8353 275.88 92.6907 275.88C92.346 275.88 92.0382 275.952 91.7674 276.097C91.4996 276.239 91.2873 276.436 91.1303 276.688C90.9764 276.937 90.8995 277.222 90.8995 277.542V282.029H89.81ZM95.7364 277.764V282.029H94.6469V274.938H95.6995V276.046H95.7918C95.958 275.686 96.2104 275.397 96.5489 275.178C96.8875 274.957 97.3245 274.846 97.86 274.846C98.3401 274.846 98.7602 274.945 99.1203 275.142C99.4804 275.335 99.7604 275.631 99.9605 276.028C100.161 276.422 100.261 276.92 100.261 277.524V282.029H99.1711V277.597C99.1711 277.04 99.0264 276.606 98.7371 276.296C98.4478 275.982 98.0508 275.825 97.5461 275.825C97.1983 275.825 96.8875 275.9 96.6135 276.051C96.3427 276.202 96.1288 276.422 95.9719 276.711C95.8149 277 95.7364 277.351 95.7364 277.764ZM104.338 282.195C103.889 282.195 103.481 282.111 103.115 281.942C102.748 281.769 102.458 281.521 102.242 281.198C102.027 280.872 101.919 280.478 101.919 280.017C101.919 279.61 101.999 279.281 102.159 279.029C102.319 278.773 102.533 278.573 102.801 278.428C103.069 278.284 103.364 278.176 103.687 278.105C104.013 278.031 104.341 277.973 104.67 277.93C105.101 277.874 105.451 277.833 105.718 277.805C105.989 277.774 106.186 277.724 106.309 277.653C106.435 277.582 106.499 277.459 106.499 277.284V277.247C106.499 276.791 106.374 276.437 106.125 276.185C105.878 275.932 105.504 275.806 105.003 275.806C104.483 275.806 104.075 275.92 103.779 276.148C103.484 276.376 103.276 276.619 103.156 276.877L102.122 276.508C102.307 276.077 102.553 275.742 102.861 275.502C103.172 275.258 103.51 275.089 103.876 274.994C104.246 274.895 104.609 274.846 104.966 274.846C105.194 274.846 105.455 274.874 105.751 274.929C106.049 274.981 106.337 275.091 106.614 275.257C106.894 275.423 107.126 275.674 107.311 276.009C107.496 276.345 107.588 276.794 107.588 277.357V282.029H106.499V281.069H106.443C106.369 281.223 106.246 281.388 106.074 281.563C105.902 281.738 105.672 281.888 105.386 282.011C105.1 282.134 104.75 282.195 104.338 282.195ZM104.504 281.217C104.935 281.217 105.298 281.132 105.594 280.963C105.892 280.794 106.117 280.575 106.268 280.307C106.422 280.04 106.499 279.758 106.499 279.463V278.465C106.452 278.521 106.351 278.572 106.194 278.618C106.04 278.661 105.862 278.699 105.658 278.733C105.458 278.764 105.263 278.792 105.072 278.816C104.884 278.838 104.732 278.856 104.615 278.872C104.332 278.909 104.067 278.969 103.821 279.052C103.578 279.132 103.381 279.253 103.23 279.416C103.082 279.576 103.009 279.795 103.009 280.072C103.009 280.45 103.149 280.737 103.429 280.931C103.712 281.121 104.07 281.217 104.504 281.217ZM110.666 272.575V282.029H109.577V272.575H110.666ZM116.318 282.029V274.938H117.37V276.046H117.463C117.61 275.668 117.849 275.374 118.178 275.165C118.508 274.952 118.903 274.846 119.365 274.846C119.833 274.846 120.222 274.952 120.533 275.165C120.847 275.374 121.091 275.668 121.267 276.046H121.341C121.522 275.68 121.795 275.389 122.158 275.174C122.521 274.955 122.956 274.846 123.464 274.846C124.098 274.846 124.617 275.045 125.02 275.442C125.423 275.836 125.625 276.45 125.625 277.284V282.029H124.535V277.284C124.535 276.76 124.392 276.386 124.106 276.162C123.82 275.937 123.483 275.825 123.095 275.825C122.596 275.825 122.21 275.976 121.936 276.277C121.662 276.576 121.525 276.954 121.525 277.413V282.029H120.417V277.173C120.417 276.77 120.286 276.445 120.025 276.199C119.763 275.949 119.426 275.825 119.014 275.825C118.731 275.825 118.466 275.9 118.22 276.051C117.977 276.202 117.78 276.411 117.629 276.679C117.481 276.943 117.407 277.25 117.407 277.597V282.029H116.318ZM130.59 282.177C129.906 282.177 129.317 282.026 128.822 281.725C128.329 281.42 127.949 280.995 127.681 280.45C127.417 279.903 127.284 279.266 127.284 278.539C127.284 277.813 127.417 277.173 127.681 276.619C127.949 276.062 128.321 275.628 128.798 275.317C129.279 275.003 129.839 274.846 130.479 274.846C130.848 274.846 131.213 274.908 131.573 275.031C131.933 275.154 132.261 275.354 132.556 275.631C132.852 275.905 133.087 276.268 133.263 276.72C133.438 277.173 133.526 277.73 133.526 278.392V278.853H128.06V277.911H132.418C132.418 277.511 132.338 277.154 132.178 276.84C132.021 276.526 131.796 276.279 131.504 276.097C131.214 275.916 130.873 275.825 130.479 275.825C130.045 275.825 129.669 275.932 129.352 276.148C129.039 276.36 128.797 276.637 128.628 276.979C128.458 277.32 128.374 277.687 128.374 278.078V278.705C128.374 279.241 128.466 279.695 128.651 280.067C128.838 280.437 129.099 280.718 129.431 280.912C129.763 281.103 130.15 281.198 130.59 281.198C130.876 281.198 131.134 281.158 131.365 281.078C131.599 280.995 131.801 280.872 131.97 280.709C132.139 280.543 132.27 280.337 132.362 280.09L133.415 280.386C133.304 280.743 133.118 281.057 132.856 281.328C132.595 281.595 132.272 281.805 131.887 281.955C131.502 282.103 131.07 282.177 130.59 282.177ZM138.267 274.938V275.862H134.592V274.938H138.267ZM135.663 273.24H136.753V279.998C136.753 280.306 136.797 280.537 136.887 280.691C136.979 280.841 137.096 280.943 137.237 280.995C137.382 281.044 137.534 281.069 137.694 281.069C137.814 281.069 137.913 281.063 137.99 281.051C138.067 281.035 138.128 281.023 138.175 281.014L138.396 281.992C138.322 282.02 138.219 282.048 138.087 282.075C137.954 282.106 137.787 282.122 137.584 282.122C137.276 282.122 136.974 282.055 136.679 281.923C136.386 281.791 136.143 281.589 135.949 281.318C135.759 281.048 135.663 280.706 135.663 280.294V273.24ZM139.906 282.029V274.938H140.958V276.009H141.032C141.161 275.659 141.395 275.374 141.734 275.155C142.072 274.937 142.454 274.828 142.879 274.828C142.959 274.828 143.059 274.829 143.179 274.832C143.299 274.835 143.39 274.84 143.451 274.846V275.954C143.414 275.945 143.33 275.931 143.197 275.912C143.068 275.891 142.931 275.88 142.786 275.88C142.442 275.88 142.134 275.952 141.863 276.097C141.595 276.239 141.383 276.436 141.226 276.688C141.072 276.937 140.995 277.222 140.995 277.542V282.029H139.906ZM144.743 282.029V274.938H145.832V282.029H144.743ZM145.297 273.757C145.084 273.757 144.901 273.684 144.747 273.54C144.596 273.395 144.521 273.221 144.521 273.018C144.521 272.815 144.596 272.641 144.747 272.496C144.901 272.352 145.084 272.279 145.297 272.279C145.509 272.279 145.691 272.352 145.841 272.496C145.995 272.641 146.072 272.815 146.072 273.018C146.072 273.221 145.995 273.395 145.841 273.54C145.691 273.684 145.509 273.757 145.297 273.757ZM150.708 282.177C150.043 282.177 149.471 282.02 148.991 281.706C148.511 281.392 148.142 280.96 147.883 280.409C147.624 279.858 147.495 279.229 147.495 278.521C147.495 277.801 147.628 277.165 147.892 276.614C148.16 276.06 148.532 275.628 149.009 275.317C149.49 275.003 150.05 274.846 150.69 274.846C151.188 274.846 151.638 274.938 152.038 275.123C152.438 275.308 152.766 275.566 153.021 275.899C153.277 276.231 153.435 276.619 153.497 277.062H152.407C152.324 276.739 152.139 276.453 151.853 276.203C151.57 275.951 151.188 275.825 150.708 275.825C150.284 275.825 149.911 275.936 149.591 276.157C149.274 276.376 149.026 276.685 148.848 277.085C148.672 277.482 148.585 277.948 148.585 278.484C148.585 279.032 148.671 279.509 148.843 279.915C149.019 280.321 149.265 280.637 149.582 280.861C149.902 281.086 150.277 281.198 150.708 281.198C150.991 281.198 151.248 281.149 151.479 281.051C151.71 280.952 151.905 280.811 152.066 280.626C152.226 280.441 152.339 280.22 152.407 279.961H153.497C153.435 280.38 153.283 280.757 153.04 281.092C152.8 281.425 152.481 281.689 152.084 281.886C151.69 282.08 151.231 282.177 150.708 282.177ZM160.112 276.526L159.133 276.803C159.072 276.64 158.981 276.482 158.861 276.328C158.744 276.171 158.584 276.042 158.381 275.94C158.178 275.839 157.918 275.788 157.601 275.788C157.167 275.788 156.805 275.888 156.516 276.088C156.23 276.285 156.086 276.536 156.086 276.84C156.086 277.111 156.185 277.325 156.382 277.482C156.579 277.639 156.887 277.77 157.305 277.874L158.358 278.133C158.992 278.287 159.464 278.522 159.775 278.839C160.086 279.153 160.241 279.558 160.241 280.053C160.241 280.46 160.124 280.823 159.89 281.143C159.66 281.463 159.336 281.715 158.921 281.9C158.506 282.085 158.022 282.177 157.471 282.177C156.748 282.177 156.15 282.02 155.676 281.706C155.202 281.392 154.902 280.934 154.775 280.33L155.809 280.072C155.908 280.454 156.094 280.74 156.368 280.931C156.645 281.121 157.007 281.217 157.453 281.217C157.961 281.217 158.364 281.109 158.662 280.894C158.964 280.675 159.115 280.414 159.115 280.109C159.115 279.863 159.029 279.656 158.856 279.49C158.684 279.321 158.419 279.195 158.062 279.112L156.881 278.835C156.231 278.681 155.754 278.442 155.449 278.119C155.148 277.793 154.997 277.385 154.997 276.896C154.997 276.496 155.109 276.142 155.334 275.834C155.562 275.526 155.871 275.285 156.262 275.109C156.656 274.934 157.102 274.846 157.601 274.846C158.302 274.846 158.853 275 159.253 275.308C159.657 275.615 159.943 276.022 160.112 276.526ZM170.56 276.526L169.582 276.803C169.52 276.64 169.429 276.482 169.309 276.328C169.192 276.171 169.032 276.042 168.829 275.94C168.626 275.839 168.366 275.788 168.049 275.788C167.615 275.788 167.253 275.888 166.964 276.088C166.678 276.285 166.535 276.536 166.535 276.84C166.535 277.111 166.633 277.325 166.83 277.482C167.027 277.639 167.335 277.77 167.753 277.874L168.806 278.133C169.44 278.287 169.912 278.522 170.223 278.839C170.534 279.153 170.69 279.558 170.69 280.053C170.69 280.46 170.573 280.823 170.339 281.143C170.108 281.463 169.785 281.715 169.369 281.9C168.954 282.085 168.471 282.177 167.92 282.177C167.196 282.177 166.598 282.02 166.124 281.706C165.65 281.392 165.35 280.934 165.224 280.33L166.258 280.072C166.356 280.454 166.542 280.74 166.816 280.931C167.093 281.121 167.455 281.217 167.901 281.217C168.409 281.217 168.812 281.109 169.111 280.894C169.412 280.675 169.563 280.414 169.563 280.109C169.563 279.863 169.477 279.656 169.305 279.49C169.132 279.321 168.868 279.195 168.511 279.112L167.329 278.835C166.679 278.681 166.202 278.442 165.898 278.119C165.596 277.793 165.445 277.385 165.445 276.896C165.445 276.496 165.558 276.142 165.782 275.834C166.01 275.526 166.319 275.285 166.71 275.109C167.104 274.934 167.55 274.846 168.049 274.846C168.751 274.846 169.302 275 169.702 275.308C170.105 275.615 170.391 276.022 170.56 276.526ZM175.303 282.177C174.619 282.177 174.03 282.026 173.534 281.725C173.042 281.42 172.662 280.995 172.394 280.45C172.129 279.903 171.997 279.266 171.997 278.539C171.997 277.813 172.129 277.173 172.394 276.619C172.662 276.062 173.034 275.628 173.511 275.317C173.991 275.003 174.552 274.846 175.192 274.846C175.561 274.846 175.926 274.908 176.286 275.031C176.646 275.154 176.974 275.354 177.269 275.631C177.565 275.905 177.8 276.268 177.975 276.72C178.151 277.173 178.239 277.73 178.239 278.392V278.853H172.773V277.911H177.131C177.131 277.511 177.051 277.154 176.891 276.84C176.734 276.526 176.509 276.279 176.217 276.097C175.927 275.916 175.586 275.825 175.192 275.825C174.758 275.825 174.382 275.932 174.065 276.148C173.751 276.36 173.51 276.637 173.341 276.979C173.171 277.32 173.087 277.687 173.087 278.078V278.705C173.087 279.241 173.179 279.695 173.364 280.067C173.551 280.437 173.811 280.718 174.144 280.912C174.476 281.103 174.862 281.198 175.303 281.198C175.589 281.198 175.847 281.158 176.078 281.078C176.312 280.995 176.514 280.872 176.683 280.709C176.852 280.543 176.983 280.337 177.075 280.09L178.128 280.386C178.017 280.743 177.831 281.057 177.569 281.328C177.308 281.595 176.984 281.805 176.6 281.955C176.215 282.103 175.783 282.177 175.303 282.177ZM179.896 282.029V274.938H180.949V276.009H181.022C181.152 275.659 181.386 275.374 181.724 275.155C182.063 274.937 182.444 274.828 182.869 274.828C182.949 274.828 183.049 274.829 183.169 274.832C183.289 274.835 183.38 274.84 183.441 274.846V275.954C183.404 275.945 183.32 275.931 183.187 275.912C183.058 275.891 182.921 275.88 182.777 275.88C182.432 275.88 182.124 275.952 181.853 276.097C181.586 276.239 181.373 276.436 181.216 276.688C181.062 276.937 180.985 277.222 180.985 277.542V282.029H179.896ZM190.747 274.938L188.125 282.029H187.017L184.395 274.938H185.577L187.534 280.589H187.608L189.565 274.938H190.747ZM192.185 282.029V274.938H193.274V282.029H192.185ZM192.739 273.757C192.527 273.757 192.344 273.684 192.19 273.54C192.039 273.395 191.963 273.221 191.963 273.018C191.963 272.815 192.039 272.641 192.19 272.496C192.344 272.352 192.527 272.279 192.739 272.279C192.951 272.279 193.133 272.352 193.284 272.496C193.438 272.641 193.515 272.815 193.515 273.018C193.515 273.221 193.438 273.395 193.284 273.54C193.133 273.684 192.951 273.757 192.739 273.757ZM198.151 282.177C197.486 282.177 196.913 282.02 196.433 281.706C195.953 281.392 195.584 280.96 195.325 280.409C195.067 279.858 194.938 279.229 194.938 278.521C194.938 277.801 195.07 277.165 195.335 276.614C195.602 276.06 195.975 275.628 196.452 275.317C196.932 275.003 197.492 274.846 198.132 274.846C198.631 274.846 199.08 274.938 199.48 275.123C199.88 275.308 200.208 275.566 200.464 275.899C200.719 276.231 200.877 276.619 200.939 277.062H199.85C199.766 276.739 199.582 276.453 199.296 276.203C199.012 275.951 198.631 275.825 198.151 275.825C197.726 275.825 197.354 275.936 197.033 276.157C196.716 276.376 196.469 276.685 196.29 277.085C196.115 277.482 196.027 277.948 196.027 278.484C196.027 279.032 196.113 279.509 196.286 279.915C196.461 280.321 196.707 280.637 197.024 280.861C197.344 281.086 197.72 281.198 198.151 281.198C198.434 281.198 198.691 281.149 198.922 281.051C199.152 280.952 199.348 280.811 199.508 280.626C199.668 280.441 199.782 280.22 199.85 279.961H200.939C200.877 280.38 200.725 280.757 200.482 281.092C200.242 281.425 199.923 281.689 199.526 281.886C199.132 282.08 198.674 282.177 198.151 282.177ZM205.505 282.177C204.821 282.177 204.232 282.026 203.737 281.725C203.244 281.42 202.864 280.995 202.596 280.45C202.332 279.903 202.199 279.266 202.199 278.539C202.199 277.813 202.332 277.173 202.596 276.619C202.864 276.062 203.236 275.628 203.714 275.317C204.194 275.003 204.754 274.846 205.394 274.846C205.763 274.846 206.128 274.908 206.488 275.031C206.848 275.154 207.176 275.354 207.471 275.631C207.767 275.905 208.002 276.268 208.178 276.72C208.353 277.173 208.441 277.73 208.441 278.392V278.853H202.975V277.911H207.333C207.333 277.511 207.253 277.154 207.093 276.84C206.936 276.526 206.711 276.279 206.419 276.097C206.129 275.916 205.788 275.825 205.394 275.825C204.96 275.825 204.584 275.932 204.267 276.148C203.954 276.36 203.712 276.637 203.543 276.979C203.373 277.32 203.289 277.687 203.289 278.078V278.705C203.289 279.241 203.381 279.695 203.566 280.067C203.754 280.437 204.014 280.718 204.346 280.912C204.678 281.103 205.065 281.198 205.505 281.198C205.791 281.198 206.049 281.158 206.28 281.078C206.514 280.995 206.716 280.872 206.885 280.709C207.054 280.543 207.185 280.337 207.277 280.09L208.33 280.386C208.219 280.743 208.033 281.057 207.771 281.328C207.51 281.595 207.187 281.805 206.802 281.955C206.417 282.103 205.985 282.177 205.505 282.177ZM215.121 276.526L214.142 276.803C214.081 276.64 213.99 276.482 213.87 276.328C213.753 276.171 213.593 276.042 213.39 275.94C213.187 275.839 212.926 275.788 212.609 275.788C212.176 275.788 211.814 275.888 211.525 276.088C211.238 276.285 211.095 276.536 211.095 276.84C211.095 277.111 211.194 277.325 211.391 277.482C211.588 277.639 211.895 277.77 212.314 277.874L213.367 278.133C214.001 278.287 214.473 278.522 214.784 278.839C215.095 279.153 215.25 279.558 215.25 280.053C215.25 280.46 215.133 280.823 214.899 281.143C214.668 281.463 214.345 281.715 213.93 281.9C213.514 282.085 213.031 282.177 212.48 282.177C211.757 282.177 211.158 282.02 210.684 281.706C210.21 281.392 209.91 280.934 209.784 280.33L210.818 280.072C210.917 280.454 211.103 280.74 211.377 280.931C211.654 281.121 212.015 281.217 212.462 281.217C212.97 281.217 213.373 281.109 213.671 280.894C213.973 280.675 214.124 280.414 214.124 280.109C214.124 279.863 214.037 279.656 213.865 279.49C213.693 279.321 213.428 279.195 213.071 279.112L211.889 278.835C211.24 278.681 210.763 278.442 210.458 278.119C210.157 277.793 210.006 277.385 210.006 276.896C210.006 276.496 210.118 276.142 210.343 275.834C210.571 275.526 210.88 275.285 211.271 275.109C211.665 274.934 212.111 274.846 212.609 274.846C213.311 274.846 213.862 275 214.262 275.308C214.665 275.615 214.952 276.022 215.121 276.526Z" fill="#EDECEC" fill-opacity="0.2"/>
</g>
</g>
<path d="M57.1699 111.64V112.28H321.17V111.64V111H57.1699V111.64ZM329.17 119.64H328.53V293.64H329.17H329.81V119.64H329.17ZM321.17 301.64V301H57.1699V301.64V302.28H321.17V301.64ZM49.1699 293.64H49.8099V119.64H49.1699H48.5299V293.64H49.1699ZM57.1699 301.64V301C53.1051 301 49.8099 297.704 49.8099 293.64H49.1699H48.5299C48.5299 298.411 52.3982 302.28 57.1699 302.28V301.64ZM329.17 293.64H328.53C328.53 297.704 325.235 301 321.17 301V301.64V302.28C325.942 302.28 329.81 298.411 329.81 293.64H329.17ZM321.17 111.64V112.28C325.235 112.28 328.53 115.575 328.53 119.64H329.17H329.81C329.81 114.868 325.942 111 321.17 111V111.64ZM57.1699 111.64V111C52.3982 111 48.5299 114.868 48.5299 119.64H49.1699H49.8099C49.8099 115.575 53.1051 112.28 57.1699 112.28V111.64Z" fill="#EDECEC" fill-opacity="0.06" mask="url(#path-7-inside-2_2229_1298)"/>
<defs>
<clipPath id="clip0_2229_1298">
<path d="M49.1699 119.64C49.1699 115.221 52.7516 111.64 57.1699 111.64H321.17C325.588 111.64 329.17 115.221 329.17 119.64V293.64C329.17 298.058 325.588 301.64 321.17 301.64H57.1699C52.7516 301.64 49.1699 298.058 49.1699 293.64V119.64Z" fill="white"/>
</clipPath>
<clipPath id="clip1_2229_1298">
<rect width="16" height="16" fill="white" transform="translate(67.8099 150.279)"/>
</clipPath>
<clipPath id="clip2_2229_1298">
<rect width="216.72" height="16.25" fill="white" transform="translate(99.8099 150.154)"/>
</clipPath>
<clipPath id="clip3_2229_1298">
<rect width="254.72" height="16.25" fill="white" transform="translate(61.8099 184.279)"/>
</clipPath>
<clipPath id="clip4_2229_1298">
<rect width="254.72" height="16.25" fill="white" transform="translate(61.8099 212.529)"/>
</clipPath>
<clipPath id="clip5_2229_1298">
<rect width="254.72" height="16.25" fill="white" transform="translate(61.8099 240.779)"/>
</clipPath>
<clipPath id="clip6_2229_1298">
<rect width="254.72" height="16.25" fill="white" transform="translate(61.8099 269.029)"/>
</clipPath>
</defs>
</svg>
