<svg width="378" height="378" viewBox="0 0 378 378" fill="none" xmlns="http://www.w3.org/2000/svg">
<rect width="378" height="378" rx="6" fill="#201E18"/>
<g filter="url(#filter0_dd_2229_1298)">
<mask id="path-2-inside-1_2229_1298" fill="white">
<path d="M41.83 74.3603C41.83 69.9421 45.4117 66.3604 49.83 66.3604H341.83C346.248 66.3604 349.83 69.9421 349.83 74.3604V143.64C349.83 148.059 346.248 151.64 341.83 151.64H49.83C45.4117 151.64 41.83 148.059 41.83 143.64V74.3603Z"/>
</mask>
<path d="M41.83 74.3603C41.83 69.9421 45.4117 66.3604 49.83 66.3604H341.83C346.248 66.3604 349.83 69.9421 349.83 74.3604V143.64C349.83 148.059 346.248 151.64 341.83 151.64H49.83C45.4117 151.64 41.83 148.059 41.83 143.64V74.3603Z" fill="#1B1913" shape-rendering="crispEdges"/>
<path d="M49.83 66.3604V67.0004H341.83V66.3604V65.7204H49.83V66.3604ZM349.83 74.3604H349.19V143.64H349.83H350.47V74.3604H349.83ZM341.83 151.64V151H49.83V151.64V152.28H341.83V151.64ZM41.83 143.64H42.47V74.3603H41.83H41.19V143.64H41.83ZM49.83 151.64V151C45.7652 151 42.47 147.705 42.47 143.64H41.83H41.19C41.19 148.412 45.0583 152.28 49.83 152.28V151.64ZM349.83 143.64H349.19C349.19 147.705 345.895 151 341.83 151V151.64V152.28C346.602 152.28 350.47 148.412 350.47 143.64H349.83ZM341.83 66.3604V67.0004C345.895 67.0004 349.19 70.2955 349.19 74.3604H349.83H350.47C350.47 69.5886 346.602 65.7204 341.83 65.7204V66.3604ZM49.83 66.3604V65.7204C45.0583 65.7204 41.19 69.5886 41.19 74.3603H41.83H42.47C42.47 70.2955 45.7652 67.0004 49.83 67.0004V66.3604Z" fill="#EDECEC" fill-opacity="0.06" mask="url(#path-2-inside-1_2229_1298)"/>
<path d="M58.8095 82.6618L55.7626 93.9814H54.7655L57.8123 82.6618H58.8095ZM62.9816 92.7073C62.3169 92.7073 61.7444 92.5503 61.2643 92.2364C60.7842 91.9225 60.4149 91.4901 60.1563 90.9392C59.8978 90.3883 59.7686 89.7589 59.7686 89.051C59.7686 88.3309 59.9009 87.6953 60.1656 87.1444C60.4333 86.5905 60.8057 86.1581 61.2828 85.8472C61.7629 85.5333 62.323 85.3763 62.9632 85.3763C63.4617 85.3763 63.9111 85.4687 64.3112 85.6533C64.7113 85.838 65.039 86.0965 65.2945 86.4289C65.5499 86.7613 65.7084 87.1491 65.77 87.5922H64.6805C64.5974 87.2691 64.4127 86.9829 64.1265 86.7336C63.8434 86.4812 63.4617 86.355 62.9816 86.355C62.5569 86.355 62.1845 86.4658 61.8644 86.6874C61.5474 86.9059 61.2997 87.2152 61.1212 87.6153C60.9458 88.0123 60.8581 88.4786 60.8581 89.0141C60.8581 89.5619 60.9442 90.039 61.1166 90.4452C61.292 90.8515 61.5382 91.1669 61.8552 91.3916C62.1753 91.6163 62.5508 91.7286 62.9816 91.7286C63.2648 91.7286 63.5218 91.6794 63.7526 91.5809C63.9834 91.4824 64.1788 91.3408 64.3389 91.1562C64.4989 90.9715 64.6128 90.7499 64.6805 90.4914H65.77C65.7084 90.9099 65.5561 91.287 65.313 91.6224C65.0729 91.9548 64.7544 92.2195 64.3573 92.4165C63.9634 92.6104 63.5048 92.7073 62.9816 92.7073ZM68.4522 88.2939V92.5596H67.3627V83.105H68.4522V86.5766H68.5445C68.7107 86.2104 68.96 85.9195 69.2924 85.7041C69.6278 85.4856 70.0741 85.3763 70.6311 85.3763C71.1143 85.3763 71.5375 85.4733 71.9007 85.6672C72.2638 85.858 72.5454 86.1519 72.7455 86.5489C72.9486 86.9429 73.0502 87.4445 73.0502 88.0539V92.5596H71.9607V88.1278C71.9607 87.5645 71.8145 87.1291 71.5221 86.8213C71.2328 86.5104 70.8312 86.355 70.3172 86.355C69.9602 86.355 69.6401 86.4304 69.357 86.5812C69.0769 86.732 68.8553 86.9521 68.6922 87.2414C68.5322 87.5307 68.4522 87.8815 68.4522 88.2939ZM78.0163 92.7073C77.3331 92.7073 76.7437 92.5565 76.2482 92.2549C75.7558 91.9502 75.3757 91.5255 75.108 90.9807C74.8433 90.4329 74.7109 89.7958 74.7109 89.0695C74.7109 88.3432 74.8433 87.703 75.108 87.1491C75.3757 86.592 75.7481 86.1581 76.2252 85.8472C76.7053 85.5333 77.2654 85.3763 77.9055 85.3763C78.2749 85.3763 78.6396 85.4379 78.9997 85.561C79.3597 85.6841 79.6875 85.8841 79.983 86.1611C80.2784 86.435 80.5139 86.7982 80.6893 87.2506C80.8647 87.703 80.9524 88.2601 80.9524 88.9218V89.3834H75.4865V88.4417H79.8445C79.8445 88.0416 79.7644 87.6846 79.6044 87.3706C79.4475 87.0567 79.2228 86.809 78.9304 86.6274C78.6411 86.4458 78.2995 86.355 77.9055 86.355C77.4716 86.355 77.0961 86.4627 76.7791 86.6782C76.4652 86.8905 76.2236 87.1675 76.0543 87.5091C75.8851 87.8508 75.8004 88.217 75.8004 88.6079V89.2357C75.8004 89.7712 75.8928 90.2252 76.0774 90.5976C76.2652 90.9669 76.5252 91.2485 76.8576 91.4424C77.19 91.6332 77.5762 91.7286 78.0163 91.7286C78.3026 91.7286 78.5611 91.6886 78.7919 91.6086C79.0258 91.5255 79.2274 91.4024 79.3967 91.2393C79.5659 91.0731 79.6967 90.8669 79.7891 90.6206L80.8416 90.9161C80.7308 91.2731 80.5446 91.587 80.283 91.8579C80.0214 92.1256 79.6983 92.3349 79.3136 92.4857C78.9289 92.6334 78.4965 92.7073 78.0163 92.7073ZM85.4904 92.7073C84.8256 92.7073 84.2532 92.5503 83.7731 92.2364C83.293 91.9225 82.9237 91.4901 82.6651 90.9392C82.4066 90.3883 82.2774 89.7589 82.2774 89.051C82.2774 88.3309 82.4097 87.6953 82.6744 87.1444C82.9421 86.5905 83.3145 86.1581 83.7916 85.8472C84.2717 85.5333 84.8318 85.3763 85.472 85.3763C85.9705 85.3763 86.4199 85.4687 86.82 85.6533C87.2201 85.838 87.5478 86.0965 87.8033 86.4289C88.0587 86.7613 88.2172 87.1491 88.2788 87.5922H87.1893C87.1062 87.2691 86.9215 86.9829 86.6353 86.7336C86.3522 86.4812 85.9705 86.355 85.4904 86.355C85.0657 86.355 84.6933 86.4658 84.3732 86.6874C84.0562 86.9059 83.8085 87.2152 83.63 87.6153C83.4546 88.0123 83.3668 88.4786 83.3668 89.0141C83.3668 89.5619 83.453 90.039 83.6254 90.4452C83.8008 90.8515 84.047 91.1669 84.364 91.3916C84.6841 91.6163 85.0595 91.7286 85.4904 91.7286C85.7736 91.7286 86.0305 91.6794 86.2614 91.5809C86.4922 91.4824 86.6876 91.3408 86.8477 91.1562C87.0077 90.9715 87.1216 90.7499 87.1893 90.4914H88.2788C88.2172 90.9099 88.0649 91.287 87.8217 91.6224C87.5817 91.9548 87.2631 92.2195 86.8661 92.4165C86.4722 92.6104 86.0136 92.7073 85.4904 92.7073ZM90.8871 89.9743L90.8686 88.6263H91.0902L94.1925 85.4687H95.5405L92.2351 88.811H92.1428L90.8871 89.9743ZM89.8715 92.5596V83.105H90.9609V92.5596H89.8715ZM94.3771 92.5596L91.6073 89.051L92.3828 88.2939L95.7621 92.5596H94.3771ZM100.409 87.9985V89.0141H96.2722V87.9985H100.409ZM105.299 92.7073C104.615 92.7073 104.026 92.5565 103.53 92.2549C103.038 91.9502 102.658 91.5255 102.39 90.9807C102.126 90.4329 101.993 89.7958 101.993 89.0695C101.993 88.3432 102.126 87.703 102.39 87.1491C102.658 86.592 103.03 86.1581 103.507 85.8472C103.987 85.5333 104.548 85.3763 105.188 85.3763C105.557 85.3763 105.922 85.4379 106.282 85.561C106.642 85.6841 106.97 85.8841 107.265 86.1611C107.561 86.435 107.796 86.7982 107.972 87.2506C108.147 87.703 108.235 88.2601 108.235 88.9218V89.3834H102.769V88.4417H107.127C107.127 88.0416 107.047 87.6846 106.887 87.3706C106.73 87.0567 106.505 86.809 106.213 86.6274C105.923 86.4458 105.582 86.355 105.188 86.355C104.754 86.355 104.378 86.4627 104.061 86.6782C103.747 86.8905 103.506 87.1675 103.337 87.5091C103.167 87.8508 103.083 88.217 103.083 88.6079V89.2357C103.083 89.7712 103.175 90.2252 103.36 90.5976C103.547 90.9669 103.807 91.2485 104.14 91.4424C104.472 91.6332 104.858 91.7286 105.299 91.7286C105.585 91.7286 105.843 91.6886 106.074 91.6086C106.308 91.5255 106.51 91.4024 106.679 91.2393C106.848 91.0731 106.979 90.8669 107.071 90.6206L108.124 90.9161C108.013 91.2731 107.827 91.587 107.565 91.8579C107.304 92.1256 106.981 92.3349 106.596 92.4857C106.211 92.6334 105.779 92.7073 105.299 92.7073ZM112.754 95.3664C112.228 95.3664 111.775 95.2987 111.397 95.1633C111.018 95.0309 110.703 94.8555 110.451 94.637C110.201 94.4215 110.003 94.1907 109.855 93.9445L110.723 93.3351C110.821 93.4644 110.946 93.6121 111.097 93.7783C111.248 93.9476 111.454 94.0938 111.715 94.2169C111.98 94.3431 112.326 94.4062 112.754 94.4062C113.327 94.4062 113.799 94.2677 114.171 93.9907C114.544 93.7137 114.73 93.2797 114.73 92.6888V91.2485H114.638C114.558 91.3778 114.444 91.5378 114.296 91.7286C114.151 91.9163 113.942 92.0841 113.668 92.2318C113.397 92.3765 113.031 92.4488 112.57 92.4488C111.997 92.4488 111.483 92.3134 111.028 92.0425C110.575 91.7717 110.217 91.3778 109.952 90.8607C109.69 90.3437 109.56 89.7158 109.56 88.9772C109.56 88.2509 109.687 87.6184 109.943 87.0798C110.198 86.5381 110.554 86.1196 111.009 85.8241C111.465 85.5256 111.991 85.3763 112.588 85.3763C113.05 85.3763 113.416 85.4533 113.687 85.6072C113.961 85.758 114.17 85.9303 114.315 86.1242C114.462 86.315 114.576 86.472 114.656 86.5951H114.767V85.4687H115.82V92.7627C115.82 93.3721 115.681 93.8676 115.404 94.2492C115.13 94.6339 114.761 94.9155 114.296 95.094C113.834 95.2756 113.32 95.3664 112.754 95.3664ZM112.717 91.4701C113.154 91.4701 113.524 91.3701 113.825 91.17C114.127 90.97 114.356 90.6822 114.513 90.3067C114.67 89.9313 114.748 89.4819 114.748 88.9587C114.748 88.4478 114.672 87.997 114.518 87.6061C114.364 87.2152 114.136 86.909 113.834 86.6874C113.533 86.4658 113.16 86.355 112.717 86.355C112.256 86.355 111.871 86.472 111.563 86.7059C111.258 86.9398 111.029 87.2537 110.875 87.6476C110.724 88.0416 110.649 88.4786 110.649 88.9587C110.649 89.4511 110.726 89.8866 110.88 90.2652C111.037 90.6407 111.268 90.9361 111.572 91.1515C111.88 91.3639 112.262 91.4701 112.717 91.4701ZM117.814 92.5596V85.4687H118.866V86.5397H118.94C119.07 86.1888 119.303 85.9041 119.642 85.6856C119.981 85.4671 120.362 85.3579 120.787 85.3579C120.867 85.3579 120.967 85.3594 121.087 85.3625C121.207 85.3656 121.298 85.3702 121.359 85.3763V86.4843C121.322 86.4751 121.238 86.4612 121.105 86.4427C120.976 86.4212 120.839 86.4104 120.695 86.4104C120.35 86.4104 120.042 86.4827 119.771 86.6274C119.503 86.769 119.291 86.9659 119.134 87.2183C118.98 87.4676 118.903 87.7523 118.903 88.0724V92.5596H117.814ZM125.408 92.7073C124.725 92.7073 124.135 92.5565 123.64 92.2549C123.147 91.9502 122.767 91.5255 122.5 90.9807C122.235 90.4329 122.103 89.7958 122.103 89.0695C122.103 88.3432 122.235 87.703 122.5 87.1491C122.767 86.592 123.14 86.1581 123.617 85.8472C124.097 85.5333 124.657 85.3763 125.297 85.3763C125.666 85.3763 126.031 85.4379 126.391 85.561C126.751 85.6841 127.079 85.8841 127.375 86.1611C127.67 86.435 127.905 86.7982 128.081 87.2506C128.256 87.703 128.344 88.2601 128.344 88.9218V89.3834H122.878V88.4417H127.236C127.236 88.0416 127.156 87.6846 126.996 87.3706C126.839 87.0567 126.614 86.809 126.322 86.6274C126.033 86.4458 125.691 86.355 125.297 86.355C124.863 86.355 124.488 86.4627 124.171 86.6782C123.857 86.8905 123.615 87.1675 123.446 87.5091C123.277 87.8508 123.192 88.217 123.192 88.6079V89.2357C123.192 89.7712 123.284 90.2252 123.469 90.5976C123.657 90.9669 123.917 91.2485 124.249 91.4424C124.582 91.6332 124.968 91.7286 125.408 91.7286C125.694 91.7286 125.953 91.6886 126.184 91.6086C126.417 91.5255 126.619 91.4024 126.788 91.2393C126.958 91.0731 127.088 90.8669 127.181 90.6206L128.233 90.9161C128.122 91.2731 127.936 91.587 127.675 91.8579C127.413 92.1256 127.09 92.3349 126.705 92.4857C126.32 92.6334 125.888 92.7073 125.408 92.7073ZM135.024 87.0567L134.045 87.3337C133.984 87.1706 133.893 87.0121 133.773 86.8582C133.656 86.7013 133.496 86.572 133.293 86.4704C133.09 86.3689 132.83 86.3181 132.513 86.3181C132.079 86.3181 131.717 86.4181 131.428 86.6182C131.142 86.8151 130.998 87.066 130.998 87.3706C130.998 87.6415 131.097 87.8554 131.294 88.0123C131.491 88.1693 131.799 88.3001 132.217 88.4047L133.27 88.6633C133.904 88.8171 134.376 89.0526 134.687 89.3696C134.998 89.6835 135.153 90.0882 135.153 90.5837C135.153 90.99 135.036 91.3531 134.802 91.6732C134.572 91.9933 134.248 92.2456 133.833 92.4303C133.418 92.615 132.934 92.7073 132.383 92.7073C131.66 92.7073 131.062 92.5503 130.588 92.2364C130.114 91.9225 129.814 91.4639 129.687 90.8607L130.722 90.6022C130.82 90.9838 131.006 91.27 131.28 91.4608C131.557 91.6517 131.919 91.7471 132.365 91.7471C132.873 91.7471 133.276 91.6394 133.574 91.4239C133.876 91.2054 134.027 90.9438 134.027 90.6391C134.027 90.3929 133.941 90.1867 133.768 90.0205C133.596 89.8512 133.331 89.7251 132.974 89.642L131.793 89.365C131.143 89.2111 130.666 88.9726 130.361 88.6494C130.06 88.3232 129.909 87.9154 129.909 87.426C129.909 87.026 130.021 86.672 130.246 86.3643C130.474 86.0565 130.783 85.8149 131.174 85.6395C131.568 85.464 132.014 85.3763 132.513 85.3763C133.214 85.3763 133.765 85.5302 134.165 85.838C134.569 86.1457 134.855 86.552 135.024 87.0567ZM141.816 87.0567L140.837 87.3337C140.776 87.1706 140.685 87.0121 140.565 86.8582C140.448 86.7013 140.288 86.572 140.085 86.4704C139.882 86.3689 139.622 86.3181 139.305 86.3181C138.871 86.3181 138.509 86.4181 138.22 86.6182C137.934 86.8151 137.79 87.066 137.79 87.3706C137.79 87.6415 137.889 87.8554 138.086 88.0123C138.283 88.1693 138.591 88.3001 139.009 88.4047L140.062 88.6633C140.696 88.8171 141.168 89.0526 141.479 89.3696C141.79 89.6835 141.945 90.0882 141.945 90.5837C141.945 90.99 141.828 91.3531 141.594 91.6732C141.364 91.9933 141.04 92.2456 140.625 92.4303C140.21 92.615 139.726 92.7073 139.175 92.7073C138.452 92.7073 137.854 92.5503 137.38 92.2364C136.906 91.9225 136.606 91.4639 136.479 90.8607L137.514 90.6022C137.612 90.9838 137.798 91.27 138.072 91.4608C138.349 91.6517 138.711 91.7471 139.157 91.7471C139.665 91.7471 140.068 91.6394 140.366 91.4239C140.668 91.2054 140.819 90.9438 140.819 90.6391C140.819 90.3929 140.733 90.1867 140.56 90.0205C140.388 89.8512 140.123 89.7251 139.766 89.642L138.585 89.365C137.935 89.2111 137.458 88.9726 137.153 88.6494C136.852 88.3232 136.701 87.9154 136.701 87.426C136.701 87.026 136.813 86.672 137.038 86.3643C137.266 86.0565 137.575 85.8149 137.966 85.6395C138.36 85.464 138.806 85.3763 139.305 85.3763C140.006 85.3763 140.557 85.5302 140.957 85.838C141.361 86.1457 141.647 86.552 141.816 87.0567Z" fill="#C9A227"/>
<g opacity="0.6">
<path d="M132.473 135.252C132.353 135.252 132.247 135.205 132.16 135.118L128.597 131.472C128.518 131.389 128.472 131.288 128.472 131.173C128.472 130.933 128.652 130.749 128.891 130.749C129.011 130.749 129.117 130.795 129.19 130.869L132.473 134.22L135.751 130.869C135.829 130.795 135.935 130.749 136.05 130.749C136.29 130.749 136.469 130.933 136.469 131.173C136.469 131.288 136.423 131.389 136.345 131.467L132.781 135.118C132.703 135.205 132.588 135.252 132.473 135.252Z" fill="#EDECEC" fill-opacity="0.6"/>
</g>
</g>
<g filter="url(#filter1_dd_2229_1298)">
<g clip-path="url(#clip0_2229_1298)">
<mask id="path-7-inside-2_2229_1298" fill="white">
<path d="M55.9999 109C55.9999 104.582 59.5816 101 63.9999 101H328C332.418 101 336 104.582 336 109V283C336 287.418 332.418 291 328 291H63.9999C59.5816 291 55.9999 287.418 55.9999 283V109Z"/>
</mask>
<path d="M55.9999 109C55.9999 104.582 59.5816 101 63.9999 101H328C332.418 101 336 104.582 336 109V283C336 287.418 332.418 291 328 291H63.9999C59.5816 291 55.9999 287.418 55.9999 283V109Z" fill="#1B1913"/>
<path d="M74.3587 116.64C74.3587 117.483 74.2063 118.213 73.9016 118.827C73.597 119.442 73.179 119.916 72.6477 120.249C72.1165 120.582 71.5097 120.749 70.8274 120.749C70.1451 120.749 69.5384 120.582 69.0071 120.249C68.4759 119.916 68.0579 119.442 67.7532 118.827C67.4485 118.213 67.2962 117.483 67.2962 116.64C67.2962 115.796 67.4485 115.067 67.7532 114.452C68.0579 113.838 68.4759 113.364 69.0071 113.03C69.5384 112.697 70.1451 112.53 70.8274 112.53C71.5097 112.53 72.1165 112.697 72.6477 113.03C73.179 113.364 73.597 113.838 73.9016 114.452C74.2063 115.067 74.3587 115.796 74.3587 116.64ZM73.4212 116.64C73.4212 115.947 73.3053 115.362 73.0735 114.886C72.8444 114.409 72.5332 114.049 72.1399 113.804C71.7493 113.559 71.3118 113.437 70.8274 113.437C70.343 113.437 69.9042 113.559 69.511 113.804C69.1204 114.049 68.8092 114.409 68.5774 114.886C68.3483 115.362 68.2337 115.947 68.2337 116.64C68.2337 117.332 68.3483 117.917 68.5774 118.394C68.8092 118.87 69.1204 119.231 69.511 119.476C69.9042 119.72 70.343 119.843 70.8274 119.843C71.3118 119.843 71.7493 119.72 72.1399 119.476C72.5332 119.231 72.8444 118.87 73.0735 118.394C73.3053 117.917 73.4212 117.332 73.4212 116.64ZM79.6922 118.187V114.64H80.6141V120.64H79.6922V119.624H79.6297C79.4891 119.929 79.2704 120.188 78.9735 120.401C78.6766 120.612 78.3016 120.718 77.8485 120.718C77.4735 120.718 77.1401 120.636 76.8485 120.472C76.5568 120.305 76.3276 120.055 76.161 119.722C75.9943 119.386 75.911 118.963 75.911 118.452V114.64H76.8329V118.39C76.8329 118.827 76.9553 119.176 77.2 119.437C77.4474 119.697 77.7625 119.827 78.1454 119.827C78.3745 119.827 78.6076 119.769 78.8446 119.651C79.0842 119.534 79.2847 119.354 79.4461 119.112C79.6102 118.87 79.6922 118.562 79.6922 118.187ZM84.9604 114.64V115.421H81.851V114.64H84.9604ZM82.7572 113.202H83.6791V118.921C83.6791 119.181 83.7169 119.377 83.7924 119.507C83.8705 119.634 83.9695 119.72 84.0893 119.765C84.2117 119.806 84.3406 119.827 84.476 119.827C84.5775 119.827 84.6609 119.822 84.726 119.812C84.7911 119.799 84.8432 119.788 84.8822 119.78L85.0697 120.608C85.0072 120.632 84.92 120.655 84.808 120.679C84.696 120.705 84.5541 120.718 84.3822 120.718C84.1218 120.718 83.8666 120.662 83.6166 120.55C83.3692 120.438 83.1635 120.267 82.9994 120.038C82.838 119.809 82.7572 119.52 82.7572 119.171V113.202ZM86.6494 120.64V112.64H87.5713V115.593H87.6494C87.7171 115.489 87.8108 115.356 87.9306 115.194C88.053 115.03 88.2275 114.884 88.4541 114.757C88.6832 114.627 88.9931 114.562 89.3838 114.562C89.889 114.562 90.3343 114.688 90.7197 114.94C91.1051 115.193 91.4059 115.551 91.622 116.015C91.8382 116.478 91.9463 117.025 91.9463 117.655C91.9463 118.291 91.8382 118.841 91.622 119.308C91.4059 119.771 91.1064 120.131 90.7236 120.386C90.3408 120.638 89.8994 120.765 89.3994 120.765C89.014 120.765 88.7054 120.701 88.4736 120.573C88.2418 120.443 88.0634 120.296 87.9384 120.132C87.8134 119.965 87.7171 119.827 87.6494 119.718H87.54V120.64H86.6494ZM87.5556 117.64C87.5556 118.093 87.622 118.493 87.7549 118.839C87.8877 119.183 88.0817 119.452 88.3369 119.647C88.5921 119.84 88.9046 119.937 89.2744 119.937C89.6598 119.937 89.9814 119.835 90.2392 119.632C90.4996 119.426 90.695 119.15 90.8252 118.804C90.958 118.455 91.0244 118.067 91.0244 117.64C91.0244 117.218 90.9593 116.838 90.8291 116.499C90.7015 116.158 90.5075 115.888 90.247 115.69C89.9892 115.49 89.665 115.39 89.2744 115.39C88.8994 115.39 88.5843 115.485 88.3291 115.675C88.0739 115.862 87.8812 116.125 87.7509 116.464C87.6207 116.8 87.5556 117.192 87.5556 117.64ZM95.8423 120.765C95.3006 120.765 94.8254 120.636 94.4165 120.378C94.0103 120.12 93.6926 119.759 93.4634 119.296C93.2368 118.832 93.1236 118.291 93.1236 117.671C93.1236 117.046 93.2368 116.5 93.4634 116.034C93.6926 115.568 94.0103 115.206 94.4165 114.948C94.8254 114.69 95.3006 114.562 95.8423 114.562C96.384 114.562 96.8579 114.69 97.2642 114.948C97.673 115.206 97.9907 115.568 98.2173 116.034C98.4465 116.5 98.5611 117.046 98.5611 117.671C98.5611 118.291 98.4465 118.832 98.2173 119.296C97.9907 119.759 97.673 120.12 97.2642 120.378C96.8579 120.636 96.384 120.765 95.8423 120.765ZM95.8423 119.937C96.2538 119.937 96.5923 119.831 96.8579 119.62C97.1236 119.409 97.3202 119.132 97.4478 118.788C97.5754 118.444 97.6392 118.072 97.6392 117.671C97.6392 117.27 97.5754 116.896 97.4478 116.55C97.3202 116.203 97.1236 115.924 96.8579 115.71C96.5923 115.496 96.2538 115.39 95.8423 115.39C95.4309 115.39 95.0923 115.496 94.8267 115.71C94.5611 115.924 94.3644 116.203 94.2368 116.55C94.1092 116.896 94.0454 117.27 94.0454 117.671C94.0454 118.072 94.1092 118.444 94.2368 118.788C94.3644 119.132 94.5611 119.409 94.8267 119.62C95.0923 119.831 95.4309 119.937 95.8423 119.937ZM103.798 118.187V114.64H104.72V120.64H103.798V119.624H103.735C103.595 119.929 103.376 120.188 103.079 120.401C102.782 120.612 102.407 120.718 101.954 120.718C101.579 120.718 101.246 120.636 100.954 120.472C100.663 120.305 100.433 120.055 100.267 119.722C100.1 119.386 100.017 118.963 100.017 118.452V114.64H100.939V118.39C100.939 118.827 101.061 119.176 101.306 119.437C101.553 119.697 101.868 119.827 102.251 119.827C102.48 119.827 102.713 119.769 102.95 119.651C103.19 119.534 103.39 119.354 103.552 119.112C103.716 118.87 103.798 118.562 103.798 118.187ZM107.379 117.03V120.64H106.457V114.64H107.347V115.577H107.425C107.566 115.272 107.78 115.028 108.066 114.843C108.353 114.655 108.722 114.562 109.175 114.562C109.582 114.562 109.937 114.645 110.242 114.812C110.547 114.976 110.784 115.226 110.953 115.562C111.122 115.895 111.207 116.317 111.207 116.827V120.64H110.285V116.89C110.285 116.418 110.162 116.051 109.918 115.788C109.673 115.522 109.337 115.39 108.91 115.39C108.616 115.39 108.353 115.453 108.121 115.581C107.892 115.709 107.711 115.895 107.578 116.14C107.445 116.384 107.379 116.681 107.379 117.03ZM115.205 120.765C114.705 120.765 114.264 120.638 113.881 120.386C113.498 120.131 113.199 119.771 112.983 119.308C112.766 118.841 112.658 118.291 112.658 117.655C112.658 117.025 112.766 116.478 112.983 116.015C113.199 115.551 113.5 115.193 113.885 114.94C114.27 114.688 114.716 114.562 115.221 114.562C115.612 114.562 115.92 114.627 116.147 114.757C116.376 114.884 116.55 115.03 116.67 115.194C116.793 115.356 116.888 115.489 116.955 115.593H117.033V112.64H117.955V120.64H117.065V119.718H116.955C116.888 119.827 116.791 119.965 116.666 120.132C116.541 120.296 116.363 120.443 116.131 120.573C115.899 120.701 115.591 120.765 115.205 120.765ZM115.33 119.937C115.7 119.937 116.013 119.84 116.268 119.647C116.523 119.452 116.717 119.183 116.85 118.839C116.983 118.493 117.049 118.093 117.049 117.64C117.049 117.192 116.984 116.8 116.854 116.464C116.724 116.125 116.531 115.862 116.276 115.675C116.02 115.485 115.705 115.39 115.33 115.39C114.94 115.39 114.614 115.49 114.354 115.69C114.096 115.888 113.902 116.158 113.772 116.499C113.644 116.838 113.58 117.218 113.58 117.64C113.58 118.067 113.645 118.455 113.776 118.804C113.908 119.15 114.104 119.426 114.362 119.632C114.622 119.835 114.945 119.937 115.33 119.937ZM125.4 120.765C124.837 120.765 124.353 120.632 123.947 120.366C123.54 120.101 123.228 119.735 123.009 119.269C122.79 118.802 122.681 118.27 122.681 117.671C122.681 117.062 122.793 116.524 123.017 116.058C123.243 115.589 123.559 115.223 123.962 114.96C124.368 114.694 124.842 114.562 125.384 114.562C125.806 114.562 126.186 114.64 126.525 114.796C126.863 114.952 127.141 115.171 127.357 115.452C127.573 115.733 127.707 116.062 127.759 116.437H126.837C126.767 116.163 126.611 115.921 126.368 115.71C126.129 115.496 125.806 115.39 125.4 115.39C125.04 115.39 124.725 115.483 124.454 115.671C124.186 115.856 123.977 116.118 123.826 116.456C123.677 116.792 123.603 117.187 123.603 117.64C123.603 118.103 123.676 118.507 123.822 118.851C123.97 119.194 124.178 119.461 124.447 119.651C124.717 119.841 125.035 119.937 125.4 119.937C125.639 119.937 125.857 119.895 126.052 119.812C126.247 119.728 126.413 119.608 126.548 119.452C126.684 119.296 126.78 119.108 126.837 118.89H127.759C127.707 119.244 127.578 119.563 127.372 119.847C127.169 120.128 126.9 120.352 126.564 120.519C126.23 120.683 125.842 120.765 125.4 120.765ZM130.921 120.78C130.541 120.78 130.196 120.709 129.886 120.565C129.576 120.42 129.33 120.21 129.147 119.937C128.965 119.66 128.874 119.327 128.874 118.937C128.874 118.593 128.942 118.314 129.077 118.101C129.212 117.884 129.393 117.715 129.62 117.593C129.847 117.47 130.097 117.379 130.37 117.319C130.646 117.257 130.923 117.207 131.202 117.171C131.567 117.124 131.862 117.089 132.089 117.065C132.318 117.039 132.485 116.996 132.589 116.937C132.696 116.877 132.749 116.772 132.749 116.624V116.593C132.749 116.207 132.643 115.908 132.433 115.694C132.224 115.481 131.908 115.374 131.483 115.374C131.043 115.374 130.698 115.47 130.448 115.663C130.198 115.856 130.022 116.062 129.921 116.28L129.046 115.968C129.202 115.603 129.41 115.319 129.671 115.116C129.934 114.91 130.22 114.767 130.53 114.687C130.843 114.603 131.15 114.562 131.452 114.562C131.645 114.562 131.866 114.585 132.116 114.632C132.369 114.676 132.612 114.769 132.847 114.909C133.084 115.05 133.28 115.262 133.436 115.546C133.593 115.83 133.671 116.21 133.671 116.687V120.64H132.749V119.827H132.702C132.64 119.957 132.535 120.097 132.39 120.245C132.244 120.394 132.05 120.52 131.808 120.624C131.565 120.728 131.27 120.78 130.921 120.78ZM131.061 119.952C131.426 119.952 131.733 119.881 131.983 119.737C132.236 119.594 132.426 119.409 132.554 119.183C132.684 118.956 132.749 118.718 132.749 118.468V117.624C132.71 117.671 132.624 117.714 132.491 117.753C132.361 117.789 132.21 117.822 132.038 117.851C131.869 117.877 131.703 117.9 131.542 117.921C131.383 117.939 131.254 117.955 131.155 117.968C130.916 117.999 130.692 118.05 130.483 118.12C130.278 118.188 130.111 118.291 129.983 118.429C129.858 118.564 129.796 118.749 129.796 118.983C129.796 119.304 129.914 119.546 130.151 119.71C130.391 119.871 130.694 119.952 131.061 119.952ZM136.324 112.64V120.64H135.402V112.64H136.324ZM138.982 112.64V120.64H138.061V112.64H138.982ZM144.969 115.983L144.141 116.218C144.089 116.08 144.012 115.946 143.911 115.815C143.812 115.683 143.676 115.573 143.504 115.487C143.333 115.401 143.113 115.358 142.844 115.358C142.477 115.358 142.171 115.443 141.926 115.612C141.684 115.779 141.563 115.991 141.563 116.249C141.563 116.478 141.646 116.659 141.813 116.792C141.98 116.925 142.24 117.035 142.594 117.124L143.485 117.343C144.021 117.473 144.421 117.672 144.684 117.94C144.947 118.206 145.079 118.549 145.079 118.968C145.079 119.312 144.98 119.619 144.782 119.89C144.587 120.16 144.313 120.374 143.962 120.53C143.61 120.687 143.201 120.765 142.735 120.765C142.123 120.765 141.616 120.632 141.215 120.366C140.814 120.101 140.56 119.713 140.454 119.202L141.329 118.983C141.412 119.306 141.57 119.549 141.801 119.71C142.036 119.871 142.342 119.952 142.719 119.952C143.149 119.952 143.49 119.861 143.743 119.679C143.998 119.494 144.126 119.272 144.126 119.015C144.126 118.806 144.053 118.632 143.907 118.491C143.761 118.348 143.537 118.241 143.235 118.171L142.235 117.937C141.685 117.806 141.282 117.604 141.024 117.331C140.769 117.055 140.641 116.71 140.641 116.296C140.641 115.957 140.736 115.658 140.926 115.397C141.119 115.137 141.381 114.933 141.712 114.784C142.045 114.636 142.422 114.562 142.844 114.562C143.438 114.562 143.904 114.692 144.243 114.952C144.584 115.213 144.826 115.556 144.969 115.983Z" fill="#EDECEC" fill-opacity="0.6"/>
<path d="M68.6399 141.64C68.6399 137.221 72.2216 133.64 76.6399 133.64H88.6399C93.0582 133.64 96.6399 137.221 96.6399 141.64V153.64C96.6399 158.058 93.0582 161.64 88.6399 161.64H76.6399C72.2216 161.64 68.6399 158.058 68.6399 153.64V141.64Z" fill="#201E18"/>
<g clip-path="url(#clip1_2229_1298)">
<path fill-rule="evenodd" clip-rule="evenodd" d="M80.5105 139.64C79.6278 139.64 78.9134 140.357 78.9141 141.239C78.9134 142.122 79.6285 142.838 80.5112 142.839H82.1082V141.24C82.1089 140.357 81.3939 139.641 80.5105 139.64C80.5112 139.64 80.5112 139.64 80.5105 139.64ZM80.5105 143.906H76.253C75.3703 143.907 74.6553 144.623 74.6559 145.506C74.6546 146.389 75.3696 147.105 76.2523 147.106H80.5105C81.3932 147.106 82.1082 146.389 82.1076 145.507C82.1082 144.623 81.3932 143.907 80.5105 143.906Z" fill="#36C5F0"/>
<path fill-rule="evenodd" clip-rule="evenodd" d="M90.624 145.506C90.6246 144.623 89.9096 143.907 89.0269 143.906C88.1442 143.907 87.4292 144.623 87.4298 145.506V147.106H89.0269C89.9096 147.106 90.6246 146.389 90.624 145.506ZM86.3658 145.506V141.239C86.3664 140.357 85.652 139.641 84.7694 139.64C83.8867 139.64 83.1716 140.357 83.1723 141.239V145.506C83.171 146.389 83.886 147.105 84.7687 147.106C85.6514 147.106 86.3664 146.389 86.3658 145.506Z" fill="#2EB67D"/>
<path fill-rule="evenodd" clip-rule="evenodd" d="M84.7687 155.639C85.6514 155.639 86.3664 154.922 86.3658 154.04C86.3664 153.157 85.6514 152.44 84.7687 152.44H83.1716V154.04C83.171 154.922 83.886 155.638 84.7687 155.639ZM84.7687 151.372H89.0269C89.9096 151.371 90.6246 150.655 90.6239 149.772C90.6253 148.89 89.9102 148.173 89.0275 148.172H84.7693C83.8867 148.173 83.1716 148.889 83.1723 149.772C83.1716 150.655 83.886 151.371 84.7687 151.372Z" fill="#ECB22E"/>
<path fill-rule="evenodd" clip-rule="evenodd" d="M74.6559 149.773C74.6553 150.655 75.3703 151.372 76.253 151.372C77.1357 151.372 77.8507 150.655 77.85 149.773V148.173H76.253C75.3703 148.174 74.6553 148.89 74.6559 149.773ZM78.9141 149.773V154.039C78.9128 154.922 79.6278 155.638 80.5105 155.64C81.3932 155.639 82.1082 154.923 82.1076 154.04V149.774C82.1089 148.891 81.3939 148.175 80.5112 148.174C79.6278 148.174 78.9134 148.89 78.9141 149.773Z" fill="#E01E5A"/>
</g>
<g clip-path="url(#clip2_2229_1298)">
<path d="M112.955 145.424C112.9 144.956 112.675 144.593 112.281 144.334C111.887 144.076 111.404 143.946 110.832 143.946C110.413 143.946 110.047 144.014 109.733 144.15C109.422 144.285 109.179 144.471 109.004 144.708C108.831 144.945 108.745 145.214 108.745 145.516C108.745 145.768 108.805 145.985 108.925 146.167C109.048 146.345 109.205 146.495 109.396 146.615C109.587 146.732 109.787 146.829 109.996 146.906C110.205 146.979 110.398 147.04 110.573 147.086L111.533 147.344C111.78 147.409 112.054 147.498 112.355 147.612C112.66 147.726 112.951 147.881 113.228 148.078C113.508 148.272 113.739 148.521 113.92 148.826C114.102 149.131 114.192 149.505 114.192 149.948C114.192 150.459 114.059 150.92 113.791 151.333C113.526 151.745 113.138 152.073 112.627 152.316C112.12 152.559 111.503 152.681 110.776 152.681C110.099 152.681 109.513 152.572 109.017 152.353C108.525 152.135 108.137 151.83 107.854 151.439C107.574 151.048 107.415 150.594 107.379 150.077H108.56C108.591 150.434 108.711 150.73 108.92 150.964C109.133 151.194 109.401 151.367 109.724 151.481C110.05 151.591 110.401 151.647 110.776 151.647C111.213 151.647 111.606 151.576 111.953 151.434C112.301 151.29 112.577 151.09 112.78 150.834C112.983 150.576 113.085 150.274 113.085 149.929C113.085 149.616 112.997 149.36 112.821 149.163C112.646 148.966 112.415 148.806 112.129 148.683C111.843 148.56 111.533 148.452 111.201 148.36L110.038 148.027C109.299 147.815 108.714 147.512 108.283 147.118C107.853 146.724 107.637 146.209 107.637 145.571C107.637 145.042 107.78 144.58 108.066 144.187C108.356 143.79 108.743 143.482 109.23 143.263C109.719 143.042 110.265 142.931 110.869 142.931C111.478 142.931 112.02 143.04 112.494 143.259C112.968 143.474 113.343 143.77 113.62 144.145C113.9 144.52 114.048 144.947 114.063 145.424H112.955ZM117.017 143.06V152.515H115.927V143.06H117.017ZM121.099 152.681C120.649 152.681 120.242 152.596 119.875 152.427C119.509 152.255 119.218 152.007 119.003 151.684C118.787 151.357 118.68 150.964 118.68 150.502C118.68 150.096 118.76 149.766 118.92 149.514C119.08 149.258 119.294 149.058 119.561 148.914C119.829 148.769 120.125 148.661 120.448 148.591C120.774 148.517 121.102 148.458 121.431 148.415C121.862 148.36 122.211 148.318 122.479 148.291C122.75 148.26 122.947 148.209 123.07 148.138C123.196 148.067 123.259 147.944 123.259 147.769V147.732C123.259 147.276 123.135 146.923 122.885 146.67C122.639 146.418 122.265 146.292 121.764 146.292C121.243 146.292 120.836 146.406 120.54 146.633C120.245 146.861 120.037 147.104 119.917 147.363L118.883 146.993C119.067 146.562 119.314 146.227 119.621 145.987C119.932 145.744 120.271 145.575 120.637 145.479C121.006 145.381 121.37 145.331 121.727 145.331C121.954 145.331 122.216 145.359 122.511 145.415C122.81 145.467 123.098 145.576 123.375 145.742C123.655 145.908 123.887 146.159 124.072 146.495C124.256 146.83 124.349 147.28 124.349 147.843V152.515H123.259V151.554H123.204C123.13 151.708 123.007 151.873 122.835 152.048C122.662 152.224 122.433 152.373 122.147 152.496C121.86 152.619 121.511 152.681 121.099 152.681ZM121.265 151.702C121.696 151.702 122.059 151.618 122.354 151.448C122.653 151.279 122.878 151.06 123.028 150.793C123.182 150.525 123.259 150.243 123.259 149.948V148.951C123.213 149.006 123.112 149.057 122.955 149.103C122.801 149.146 122.622 149.185 122.419 149.218C122.219 149.249 122.024 149.277 121.833 149.302C121.645 149.323 121.493 149.342 121.376 149.357C121.093 149.394 120.828 149.454 120.582 149.537C120.339 149.617 120.142 149.739 119.991 149.902C119.843 150.062 119.769 150.28 119.769 150.557C119.769 150.936 119.909 151.222 120.189 151.416C120.472 151.607 120.831 151.702 121.265 151.702ZM129.218 152.662C128.553 152.662 127.981 152.505 127.501 152.191C127.021 151.878 126.651 151.445 126.393 150.894C126.134 150.343 126.005 149.714 126.005 149.006C126.005 148.286 126.137 147.65 126.402 147.1C126.67 146.546 127.042 146.113 127.519 145.802C127.999 145.488 128.559 145.331 129.199 145.331C129.698 145.331 130.147 145.424 130.548 145.608C130.948 145.793 131.275 146.052 131.531 146.384C131.786 146.716 131.945 147.104 132.006 147.547H130.917C130.834 147.224 130.649 146.938 130.363 146.689C130.08 146.436 129.698 146.31 129.218 146.31C128.793 146.31 128.421 146.421 128.101 146.642C127.784 146.861 127.536 147.17 127.358 147.57C127.182 147.967 127.094 148.434 127.094 148.969C127.094 149.517 127.181 149.994 127.353 150.4C127.528 150.807 127.775 151.122 128.092 151.347C128.412 151.571 128.787 151.684 129.218 151.684C129.501 151.684 129.758 151.634 129.989 151.536C130.22 151.437 130.415 151.296 130.575 151.111C130.735 150.927 130.849 150.705 130.917 150.446H132.006C131.945 150.865 131.792 151.242 131.549 151.578C131.309 151.91 130.991 152.175 130.594 152.372C130.2 152.565 129.741 152.662 129.218 152.662ZM134.615 149.929L134.596 148.581H134.818L137.92 145.424H139.268L135.963 148.766H135.87L134.615 149.929ZM133.599 152.515V143.06H134.688V152.515H133.599ZM138.105 152.515L135.335 149.006L136.11 148.249L139.49 152.515H138.105ZM145.933 152.515L143.773 145.424H144.917L146.45 150.853H146.524L148.038 145.424H149.202L150.697 150.834H150.771L152.304 145.424H153.449L151.288 152.515H150.217L148.666 147.067H148.555L147.004 152.515H145.933ZM157.621 152.662C156.938 152.662 156.348 152.512 155.853 152.21C155.36 151.905 154.98 151.481 154.712 150.936C154.448 150.388 154.315 149.751 154.315 149.025C154.315 148.298 154.448 147.658 154.712 147.104C154.98 146.547 155.353 146.113 155.83 145.802C156.31 145.488 156.87 145.331 157.51 145.331C157.879 145.331 158.244 145.393 158.604 145.516C158.964 145.639 159.292 145.839 159.587 146.116C159.883 146.39 160.118 146.753 160.294 147.206C160.469 147.658 160.557 148.215 160.557 148.877V149.339H155.091V148.397H159.449C159.449 147.997 159.369 147.64 159.209 147.326C159.052 147.012 158.827 146.764 158.535 146.582C158.246 146.401 157.904 146.31 157.51 146.31C157.076 146.31 156.701 146.418 156.384 146.633C156.07 146.846 155.828 147.123 155.659 147.464C155.49 147.806 155.405 148.172 155.405 148.563V149.191C155.405 149.726 155.497 150.18 155.682 150.553C155.87 150.922 156.13 151.204 156.462 151.397C156.794 151.588 157.181 151.684 157.621 151.684C157.907 151.684 158.166 151.644 158.396 151.564C158.63 151.481 158.832 151.357 159.001 151.194C159.17 151.028 159.301 150.822 159.394 150.576L160.446 150.871C160.335 151.228 160.149 151.542 159.888 151.813C159.626 152.081 159.303 152.29 158.918 152.441C158.533 152.589 158.101 152.662 157.621 152.662ZM162.362 152.515V143.06H163.451V146.55H163.544C163.624 146.427 163.735 146.27 163.876 146.079C164.021 145.885 164.227 145.713 164.495 145.562C164.766 145.408 165.132 145.331 165.593 145.331C166.191 145.331 166.717 145.481 167.172 145.779C167.628 146.078 167.983 146.501 168.239 147.049C168.494 147.597 168.622 148.243 168.622 148.988C168.622 149.739 168.494 150.39 168.239 150.94C167.983 151.488 167.629 151.913 167.177 152.215C166.725 152.513 166.203 152.662 165.612 152.662C165.156 152.662 164.792 152.587 164.518 152.436C164.244 152.282 164.033 152.108 163.885 151.915C163.738 151.718 163.624 151.554 163.544 151.425H163.415V152.515H162.362ZM163.433 148.969C163.433 149.505 163.511 149.977 163.668 150.386C163.825 150.793 164.055 151.111 164.356 151.342C164.658 151.57 165.027 151.684 165.464 151.684C165.92 151.684 166.3 151.564 166.605 151.324C166.912 151.08 167.143 150.754 167.297 150.345C167.454 149.932 167.532 149.474 167.532 148.969C167.532 148.471 167.455 148.021 167.302 147.621C167.151 147.218 166.921 146.899 166.614 146.666C166.309 146.429 165.926 146.31 165.464 146.31C165.021 146.31 164.649 146.422 164.347 146.647C164.045 146.869 163.818 147.18 163.664 147.58C163.51 147.977 163.433 148.44 163.433 148.969ZM171.378 148.249V152.515H170.288V143.06H171.378V146.532H171.47C171.636 146.165 171.886 145.875 172.218 145.659C172.554 145.441 173 145.331 173.557 145.331C174.04 145.331 174.463 145.428 174.826 145.622C175.19 145.813 175.471 146.107 175.671 146.504C175.874 146.898 175.976 147.4 175.976 148.009V152.515H174.886V148.083C174.886 147.52 174.74 147.084 174.448 146.776C174.159 146.466 173.757 146.31 173.243 146.31C172.886 146.31 172.566 146.386 172.283 146.536C172.003 146.687 171.781 146.907 171.618 147.196C171.458 147.486 171.378 147.837 171.378 148.249ZM180.85 152.662C180.21 152.662 179.648 152.51 179.165 152.205C178.685 151.901 178.309 151.474 178.038 150.927C177.771 150.379 177.637 149.739 177.637 149.006C177.637 148.267 177.771 147.623 178.038 147.072C178.309 146.521 178.685 146.093 179.165 145.788C179.648 145.484 180.21 145.331 180.85 145.331C181.49 145.331 182.05 145.484 182.53 145.788C183.013 146.093 183.389 146.521 183.657 147.072C183.927 147.623 184.063 148.267 184.063 149.006C184.063 149.739 183.927 150.379 183.657 150.927C183.389 151.474 183.013 151.901 182.53 152.205C182.05 152.51 181.49 152.662 180.85 152.662ZM180.85 151.684C181.336 151.684 181.736 151.559 182.05 151.31C182.364 151.06 182.596 150.733 182.747 150.326C182.898 149.92 182.973 149.48 182.973 149.006C182.973 148.532 182.898 148.091 182.747 147.681C182.596 147.272 182.364 146.941 182.05 146.689C181.736 146.436 181.336 146.31 180.85 146.31C180.364 146.31 179.963 146.436 179.65 146.689C179.336 146.941 179.103 147.272 178.952 147.681C178.802 148.091 178.726 148.532 178.726 149.006C178.726 149.48 178.802 149.92 178.952 150.326C179.103 150.733 179.336 151.06 179.65 151.31C179.963 151.559 180.364 151.684 180.85 151.684ZM188.607 152.662C187.966 152.662 187.405 152.51 186.922 152.205C186.442 151.901 186.066 151.474 185.795 150.927C185.527 150.379 185.394 149.739 185.394 149.006C185.394 148.267 185.527 147.623 185.795 147.072C186.066 146.521 186.442 146.093 186.922 145.788C187.405 145.484 187.966 145.331 188.607 145.331C189.247 145.331 189.807 145.484 190.287 145.788C190.77 146.093 191.146 146.521 191.413 147.072C191.684 147.623 191.82 148.267 191.82 149.006C191.82 149.739 191.684 150.379 191.413 150.927C191.146 151.474 190.77 151.901 190.287 152.205C189.807 152.51 189.247 152.662 188.607 152.662ZM188.607 151.684C189.093 151.684 189.493 151.559 189.807 151.31C190.121 151.06 190.353 150.733 190.504 150.326C190.655 149.92 190.73 149.48 190.73 149.006C190.73 148.532 190.655 148.091 190.504 147.681C190.353 147.272 190.121 146.941 189.807 146.689C189.493 146.436 189.093 146.31 188.607 146.31C188.12 146.31 187.72 146.436 187.406 146.689C187.092 146.941 186.86 147.272 186.709 147.681C186.558 148.091 186.483 148.532 186.483 149.006C186.483 149.48 186.558 149.92 186.709 150.326C186.86 150.733 187.092 151.06 187.406 151.31C187.72 151.559 188.12 151.684 188.607 151.684ZM194.498 149.929L194.48 148.581H194.702L197.804 145.424H199.152L195.846 148.766H195.754L194.498 149.929ZM193.483 152.515V143.06H194.572V152.515H193.483ZM197.988 152.515L195.219 149.006L195.994 148.249L199.373 152.515H197.988Z" fill="#EDECEC"/>
</g>
<g clip-path="url(#clip3_2229_1298)">
<path d="M69.2678 178.201V177.185H76.3587V178.201H73.3857V186.64H72.2408V178.201H69.2678ZM79.9226 186.787C79.2394 186.787 78.65 186.637 78.1545 186.335C77.6621 186.03 77.282 185.606 77.0142 185.061C76.7495 184.513 76.6172 183.876 76.6172 183.15C76.6172 182.423 76.7495 181.783 77.0142 181.229C77.282 180.672 77.6544 180.238 78.1314 179.927C78.6115 179.613 79.1716 179.456 79.8118 179.456C80.1811 179.456 80.5458 179.518 80.9059 179.641C81.266 179.764 81.5938 179.964 81.8892 180.241C82.1847 180.515 82.4201 180.878 82.5955 181.331C82.771 181.783 82.8587 182.34 82.8587 183.002V183.464H77.3928V182.522H81.7507C81.7507 182.122 81.6707 181.765 81.5107 181.451C81.3537 181.137 81.129 180.889 80.8367 180.707C80.5474 180.526 80.2057 180.435 79.8118 180.435C79.3778 180.435 79.0024 180.543 78.6854 180.758C78.3715 180.971 78.1299 181.248 77.9606 181.589C77.7913 181.931 77.7067 182.297 77.7067 182.688V183.316C77.7067 183.851 77.799 184.305 77.9837 184.678C78.1714 185.047 78.4315 185.329 78.7639 185.522C79.0962 185.713 79.4825 185.809 79.9226 185.809C80.2088 185.809 80.4673 185.769 80.6982 185.689C80.9321 185.606 81.1336 185.482 81.3029 185.319C81.4722 185.153 81.603 184.947 81.6953 184.701L82.7479 184.996C82.6371 185.353 82.4509 185.667 82.1893 185.938C81.9277 186.206 81.6045 186.415 81.2198 186.566C80.8351 186.714 80.4027 186.787 79.9226 186.787ZM85.6055 177.185V186.64H84.516V177.185H85.6055ZM90.574 186.787C89.8907 186.787 89.3014 186.637 88.8058 186.335C88.3134 186.03 87.9333 185.606 87.6656 185.061C87.4009 184.513 87.2686 183.876 87.2686 183.15C87.2686 182.423 87.4009 181.783 87.6656 181.229C87.9333 180.672 88.3057 180.238 88.7828 179.927C89.2629 179.613 89.823 179.456 90.4632 179.456C90.8325 179.456 91.1972 179.518 91.5573 179.641C91.9174 179.764 92.2451 179.964 92.5406 180.241C92.836 180.515 93.0715 180.878 93.2469 181.331C93.4223 181.783 93.51 182.34 93.51 183.002V183.464H88.0441V182.522H92.4021C92.4021 182.122 92.3221 181.765 92.162 181.451C92.0051 181.137 91.7804 180.889 91.488 180.707C91.1987 180.526 90.8571 180.435 90.4632 180.435C90.0292 180.435 89.6537 180.543 89.3367 180.758C89.0228 180.971 88.7812 181.248 88.612 181.589C88.4427 181.931 88.3581 182.297 88.3581 182.688V183.316C88.3581 183.851 88.4504 184.305 88.635 184.678C88.8228 185.047 89.0828 185.329 89.4152 185.522C89.7476 185.713 90.1339 185.809 90.574 185.809C90.8602 185.809 91.1187 185.769 91.3495 185.689C91.5834 185.606 91.785 185.482 91.9543 185.319C92.1236 185.153 92.2544 184.947 92.3467 184.701L93.3992 184.996C93.2884 185.353 93.1023 185.667 92.8407 185.938C92.5791 186.206 92.2559 186.415 91.8712 186.566C91.4865 186.714 91.0541 186.787 90.574 186.787ZM95.1674 186.64V179.549H96.2199V180.657H96.3122C96.46 180.278 96.6985 179.984 97.0278 179.775C97.3571 179.563 97.7526 179.456 98.2142 179.456C98.682 179.456 99.0714 179.563 99.3822 179.775C99.6961 179.984 99.9408 180.278 100.116 180.657H100.19C100.372 180.29 100.644 180 101.007 179.784C101.37 179.566 101.806 179.456 102.314 179.456C102.948 179.456 103.466 179.655 103.869 180.052C104.273 180.446 104.474 181.06 104.474 181.894V186.64H103.385V181.894C103.385 181.371 103.242 180.997 102.955 180.772C102.669 180.547 102.332 180.435 101.944 180.435C101.446 180.435 101.06 180.586 100.786 180.888C100.512 181.186 100.375 181.565 100.375 182.023V186.64H99.2668V181.783C99.2668 181.38 99.136 181.055 98.8744 180.809C98.6128 180.56 98.2758 180.435 97.8634 180.435C97.5802 180.435 97.3156 180.511 97.0693 180.661C96.8262 180.812 96.6292 181.021 96.4784 181.289C96.3307 181.554 96.2568 181.86 96.2568 182.208V186.64H95.1674ZM109.439 186.787C108.756 186.787 108.167 186.637 107.671 186.335C107.179 186.03 106.799 185.606 106.531 185.061C106.266 184.513 106.134 183.876 106.134 183.15C106.134 182.423 106.266 181.783 106.531 181.229C106.799 180.672 107.171 180.238 107.648 179.927C108.128 179.613 108.688 179.456 109.328 179.456C109.698 179.456 110.062 179.518 110.423 179.641C110.783 179.764 111.11 179.964 111.406 180.241C111.701 180.515 111.937 180.878 112.112 181.331C112.288 181.783 112.375 182.34 112.375 183.002V183.464H106.909V182.522H111.267C111.267 182.122 111.187 181.765 111.027 181.451C110.87 181.137 110.646 180.889 110.353 180.707C110.064 180.526 109.722 180.435 109.328 180.435C108.894 180.435 108.519 180.543 108.202 180.758C107.888 180.971 107.646 181.248 107.477 181.589C107.308 181.931 107.223 182.297 107.223 182.688V183.316C107.223 183.851 107.316 184.305 107.5 184.678C107.688 185.047 107.948 185.329 108.28 185.522C108.613 185.713 108.999 185.809 109.439 185.809C109.725 185.809 109.984 185.769 110.215 185.689C110.449 185.606 110.65 185.482 110.82 185.319C110.989 185.153 111.12 184.947 111.212 184.701L112.264 184.996C112.154 185.353 111.967 185.667 111.706 185.938C111.444 186.206 111.121 186.415 110.736 186.566C110.352 186.714 109.919 186.787 109.439 186.787ZM117.116 179.549V180.472H113.442V179.549H117.116ZM114.513 177.85H115.602V184.608C115.602 184.916 115.647 185.147 115.736 185.301C115.828 185.452 115.945 185.553 116.087 185.606C116.232 185.655 116.384 185.679 116.544 185.679C116.664 185.679 116.762 185.673 116.839 185.661C116.916 185.646 116.978 185.633 117.024 185.624L117.246 186.603C117.172 186.63 117.069 186.658 116.936 186.686C116.804 186.717 116.636 186.732 116.433 186.732C116.125 186.732 115.824 186.666 115.528 186.533C115.236 186.401 114.993 186.2 114.799 185.929C114.608 185.658 114.513 185.316 114.513 184.904V177.85ZM118.755 186.64V179.549H119.808V180.62H119.882C120.011 180.269 120.245 179.984 120.583 179.766C120.922 179.547 121.304 179.438 121.728 179.438C121.808 179.438 121.908 179.439 122.028 179.443C122.148 179.446 122.239 179.45 122.301 179.456V180.564C122.264 180.555 122.179 180.541 122.047 180.523C121.918 180.501 121.781 180.491 121.636 180.491C121.291 180.491 120.983 180.563 120.713 180.707C120.445 180.849 120.233 181.046 120.076 181.298C119.922 181.548 119.845 181.832 119.845 182.152V186.64H118.755ZM124.51 189.299C124.325 189.299 124.16 189.283 124.016 189.253C123.871 189.225 123.771 189.197 123.716 189.169L123.993 188.209C124.257 188.277 124.491 188.302 124.694 188.283C124.897 188.265 125.078 188.174 125.234 188.011C125.395 187.851 125.541 187.591 125.673 187.231L125.876 186.677L123.254 179.549H124.436L126.393 185.199H126.467L128.424 179.549H129.606L126.596 187.674C126.461 188.04 126.293 188.343 126.093 188.583C125.893 188.826 125.661 189.006 125.396 189.123C125.134 189.24 124.839 189.299 124.51 189.299ZM138.043 176.742L134.996 188.062H133.999L137.046 176.742H138.043ZM145.077 186.806C144.628 186.806 144.22 186.721 143.854 186.552C143.488 186.38 143.197 186.132 142.981 185.809C142.766 185.482 142.658 185.089 142.658 184.627C142.658 184.221 142.738 183.891 142.898 183.639C143.058 183.383 143.272 183.183 143.54 183.039C143.808 182.894 144.103 182.786 144.426 182.716C144.753 182.642 145.08 182.583 145.41 182.54C145.841 182.485 146.19 182.443 146.458 182.416C146.728 182.385 146.925 182.334 147.048 182.263C147.175 182.192 147.238 182.069 147.238 181.894V181.857C147.238 181.401 147.113 181.048 146.864 180.795C146.618 180.543 146.244 180.417 145.742 180.417C145.222 180.417 144.814 180.531 144.519 180.758C144.223 180.986 144.015 181.229 143.895 181.488L142.861 181.118C143.046 180.687 143.292 180.352 143.6 180.112C143.911 179.869 144.249 179.7 144.616 179.604C144.985 179.506 145.348 179.456 145.705 179.456C145.933 179.456 146.194 179.484 146.49 179.54C146.788 179.592 147.076 179.701 147.353 179.867C147.633 180.033 147.866 180.284 148.05 180.62C148.235 180.955 148.327 181.405 148.327 181.968V186.64H147.238V185.679H147.182C147.108 185.833 146.985 185.998 146.813 186.173C146.641 186.349 146.411 186.498 146.125 186.621C145.839 186.744 145.49 186.806 145.077 186.806ZM145.243 185.827C145.674 185.827 146.037 185.743 146.333 185.573C146.631 185.404 146.856 185.185 147.007 184.918C147.161 184.65 147.238 184.368 147.238 184.073V183.076C147.192 183.131 147.09 183.182 146.933 183.228C146.779 183.271 146.601 183.31 146.398 183.343C146.198 183.374 146.002 183.402 145.811 183.427C145.624 183.448 145.471 183.467 145.354 183.482C145.071 183.519 144.806 183.579 144.56 183.662C144.317 183.742 144.12 183.864 143.969 184.027C143.822 184.187 143.748 184.405 143.748 184.682C143.748 185.061 143.888 185.347 144.168 185.541C144.451 185.732 144.809 185.827 145.243 185.827ZM151.405 182.374V186.64H150.316V179.549H151.368V180.657H151.461C151.627 180.297 151.879 180.007 152.218 179.789C152.556 179.567 152.993 179.456 153.529 179.456C154.009 179.456 154.429 179.555 154.789 179.752C155.149 179.946 155.429 180.241 155.629 180.638C155.829 181.032 155.929 181.531 155.929 182.134V186.64H154.84V182.208C154.84 181.651 154.695 181.217 154.406 180.906C154.117 180.592 153.72 180.435 153.215 180.435C152.867 180.435 152.556 180.511 152.282 180.661C152.012 180.812 151.798 181.032 151.641 181.321C151.484 181.611 151.405 181.962 151.405 182.374ZM160.007 186.806C159.558 186.806 159.15 186.721 158.784 186.552C158.417 186.38 158.126 186.132 157.911 185.809C157.696 185.482 157.588 185.089 157.588 184.627C157.588 184.221 157.668 183.891 157.828 183.639C157.988 183.383 158.202 183.183 158.47 183.039C158.737 182.894 159.033 182.786 159.356 182.716C159.682 182.642 160.01 182.583 160.339 182.54C160.77 182.485 161.12 182.443 161.387 182.416C161.658 182.385 161.855 182.334 161.978 182.263C162.104 182.192 162.167 182.069 162.167 181.894V181.857C162.167 181.401 162.043 181.048 161.794 180.795C161.547 180.543 161.173 180.417 160.672 180.417C160.152 180.417 159.744 180.531 159.448 180.758C159.153 180.986 158.945 181.229 158.825 181.488L157.791 181.118C157.976 180.687 158.222 180.352 158.53 180.112C158.841 179.869 159.179 179.7 159.545 179.604C159.915 179.506 160.278 179.456 160.635 179.456C160.863 179.456 161.124 179.484 161.42 179.54C161.718 179.592 162.006 179.701 162.283 179.867C162.563 180.033 162.795 180.284 162.98 180.62C163.165 180.955 163.257 181.405 163.257 181.968V186.64H162.167V185.679H162.112C162.038 185.833 161.915 185.998 161.743 186.173C161.57 186.349 161.341 186.498 161.055 186.621C160.769 186.744 160.419 186.806 160.007 186.806ZM160.173 185.827C160.604 185.827 160.967 185.743 161.263 185.573C161.561 185.404 161.786 185.185 161.937 184.918C162.091 184.65 162.167 184.368 162.167 184.073V183.076C162.121 183.131 162.02 183.182 161.863 183.228C161.709 183.271 161.53 183.31 161.327 183.343C161.127 183.374 160.932 183.402 160.741 183.427C160.553 183.448 160.401 183.467 160.284 183.482C160.001 183.519 159.736 183.579 159.49 183.662C159.247 183.742 159.05 183.864 158.899 184.027C158.751 184.187 158.677 184.405 158.677 184.682C158.677 185.061 158.817 185.347 159.097 185.541C159.381 185.732 159.739 185.827 160.173 185.827ZM166.335 177.185V186.64H165.245V177.185H166.335ZM169.032 189.299C168.847 189.299 168.683 189.283 168.538 189.253C168.394 189.225 168.294 189.197 168.238 189.169L168.515 188.209C168.78 188.277 169.014 188.302 169.217 188.283C169.42 188.265 169.6 188.174 169.757 188.011C169.917 187.851 170.063 187.591 170.195 187.231L170.399 186.677L167.776 179.549H168.958L170.916 185.199H170.99L172.947 179.549H174.129L171.119 187.674C170.983 188.04 170.816 188.343 170.616 188.583C170.416 188.826 170.183 189.006 169.919 189.123C169.657 189.24 169.361 189.299 169.032 189.299ZM178.651 179.549V180.472H174.976V179.549H178.651ZM176.047 177.85H177.136V184.608C177.136 184.916 177.181 185.147 177.27 185.301C177.363 185.452 177.48 185.553 177.621 185.606C177.766 185.655 177.918 185.679 178.078 185.679C178.198 185.679 178.297 185.673 178.374 185.661C178.451 185.646 178.512 185.633 178.558 185.624L178.78 186.603C178.706 186.63 178.603 186.658 178.471 186.686C178.338 186.717 178.17 186.732 177.967 186.732C177.66 186.732 177.358 186.666 177.063 186.533C176.77 186.401 176.527 186.2 176.333 185.929C176.142 185.658 176.047 185.316 176.047 184.904V177.85ZM180.289 186.64V179.549H181.379V186.64H180.289ZM180.843 178.367C180.631 178.367 180.448 178.295 180.294 178.15C180.143 178.005 180.068 177.831 180.068 177.628C180.068 177.425 180.143 177.251 180.294 177.107C180.448 176.962 180.631 176.89 180.843 176.89C181.056 176.89 181.237 176.962 181.388 177.107C181.542 177.251 181.619 177.425 181.619 177.628C181.619 177.831 181.542 178.005 181.388 178.15C181.237 178.295 181.056 178.367 180.843 178.367ZM186.255 186.787C185.59 186.787 185.018 186.63 184.538 186.316C184.058 186.003 183.688 185.57 183.43 185.019C183.171 184.468 183.042 183.839 183.042 183.131C183.042 182.411 183.174 181.775 183.439 181.225C183.707 180.671 184.079 180.238 184.556 179.927C185.036 179.613 185.596 179.456 186.237 179.456C186.735 179.456 187.185 179.549 187.585 179.733C187.985 179.918 188.312 180.177 188.568 180.509C188.823 180.841 188.982 181.229 189.043 181.672H187.954C187.871 181.349 187.686 181.063 187.4 180.814C187.117 180.561 186.735 180.435 186.255 180.435C185.83 180.435 185.458 180.546 185.138 180.767C184.821 180.986 184.573 181.295 184.395 181.695C184.219 182.092 184.131 182.559 184.131 183.094C184.131 183.642 184.218 184.119 184.39 184.525C184.565 184.932 184.812 185.247 185.129 185.472C185.449 185.696 185.824 185.809 186.255 185.809C186.538 185.809 186.795 185.759 187.026 185.661C187.257 185.562 187.452 185.421 187.612 185.236C187.772 185.052 187.886 184.83 187.954 184.571H189.043C188.982 184.99 188.83 185.367 188.586 185.703C188.346 186.035 188.028 186.3 187.631 186.497C187.237 186.69 186.778 186.787 186.255 186.787ZM195.659 181.137L194.68 181.414C194.619 181.251 194.528 181.092 194.408 180.938C194.291 180.781 194.131 180.652 193.928 180.551C193.725 180.449 193.464 180.398 193.147 180.398C192.714 180.398 192.352 180.498 192.063 180.698C191.776 180.895 191.633 181.146 191.633 181.451C191.633 181.722 191.732 181.935 191.929 182.092C192.126 182.249 192.433 182.38 192.852 182.485L193.905 182.743C194.539 182.897 195.011 183.133 195.322 183.45C195.633 183.764 195.788 184.168 195.788 184.664C195.788 185.07 195.671 185.433 195.437 185.753C195.206 186.073 194.883 186.326 194.468 186.51C194.052 186.695 193.569 186.787 193.018 186.787C192.295 186.787 191.696 186.63 191.222 186.316C190.748 186.003 190.448 185.544 190.322 184.941L191.356 184.682C191.455 185.064 191.641 185.35 191.915 185.541C192.192 185.732 192.553 185.827 193 185.827C193.508 185.827 193.911 185.719 194.209 185.504C194.511 185.285 194.662 185.024 194.662 184.719C194.662 184.473 194.575 184.267 194.403 184.101C194.231 183.931 193.966 183.805 193.609 183.722L192.427 183.445C191.778 183.291 191.301 183.053 190.996 182.729C190.695 182.403 190.544 181.995 190.544 181.506C190.544 181.106 190.656 180.752 190.881 180.444C191.109 180.137 191.418 179.895 191.809 179.72C192.203 179.544 192.649 179.456 193.147 179.456C193.849 179.456 194.4 179.61 194.8 179.918C195.203 180.226 195.49 180.632 195.659 181.137Z" fill="#EDECEC" fill-opacity="0.2"/>
</g>
<g clip-path="url(#clip4_2229_1298)">
<path d="M72.7024 214.89H69.7848V205.435H72.8317C73.7488 205.435 74.5336 205.624 75.1861 206.003C75.8386 206.378 76.3387 206.919 76.6864 207.623C77.0342 208.325 77.2081 209.165 77.2081 210.144C77.2081 211.129 77.0327 211.977 76.6818 212.688C76.331 213.395 75.8201 213.94 75.1492 214.322C74.4782 214.7 73.6627 214.89 72.7024 214.89ZM70.9297 213.874H72.6286C73.4103 213.874 74.0581 213.723 74.5721 213.422C75.0861 213.12 75.4692 212.691 75.7216 212.134C75.974 211.577 76.1002 210.913 76.1002 210.144C76.1002 209.381 75.9755 208.724 75.7262 208.173C75.4769 207.619 75.1045 207.194 74.609 206.899C74.1135 206.6 73.4965 206.451 72.7578 206.451H70.9297V213.874ZM81.0675 215.056C80.6181 215.056 80.2104 214.971 79.8441 214.802C79.4779 214.63 79.187 214.382 78.9716 214.059C78.7562 213.732 78.6484 213.339 78.6484 212.877C78.6484 212.471 78.7285 212.141 78.8885 211.889C79.0485 211.633 79.2624 211.433 79.5302 211.289C79.7979 211.144 80.0934 211.036 80.4166 210.966C80.7428 210.892 81.0706 210.833 81.3999 210.79C81.8307 210.735 82.1801 210.693 82.4478 210.666C82.7186 210.635 82.9156 210.584 83.0387 210.513C83.1649 210.442 83.228 210.319 83.228 210.144V210.107C83.228 209.651 83.1033 209.298 82.8541 209.045C82.6078 208.793 82.2339 208.667 81.7323 208.667C81.2121 208.667 80.8043 208.781 80.5089 209.008C80.2134 209.236 80.0057 209.479 79.8857 209.738L78.8516 209.368C79.0362 208.937 79.2824 208.602 79.5902 208.362C79.9011 208.119 80.2396 207.95 80.6058 207.854C80.9752 207.756 81.3383 207.706 81.6953 207.706C81.9231 207.706 82.1847 207.734 82.4801 207.79C82.7787 207.842 83.0664 207.951 83.3434 208.117C83.6235 208.283 83.8558 208.534 84.0405 208.87C84.2252 209.205 84.3175 209.655 84.3175 210.218V214.89H83.228V213.929H83.1726C83.0987 214.083 82.9756 214.248 82.8033 214.423C82.6309 214.599 82.4016 214.748 82.1154 214.871C81.8292 214.994 81.4799 215.056 81.0675 215.056ZM81.2337 214.077C81.6645 214.077 82.0277 213.993 82.3232 213.823C82.6217 213.654 82.8464 213.435 82.9972 213.168C83.1511 212.9 83.228 212.618 83.228 212.323V211.326C83.1818 211.381 83.0803 211.432 82.9233 211.478C82.7694 211.521 82.5909 211.56 82.3878 211.593C82.1877 211.624 81.9923 211.652 81.8015 211.677C81.6138 211.698 81.4614 211.717 81.3445 211.732C81.0613 211.769 80.7966 211.829 80.5504 211.912C80.3073 211.992 80.1103 212.114 79.9595 212.277C79.8118 212.437 79.7379 212.655 79.7379 212.932C79.7379 213.311 79.878 213.597 80.158 213.791C80.4412 213.982 80.7997 214.077 81.2337 214.077ZM89.3898 207.799V208.722H85.7151V207.799H89.3898ZM86.7861 206.1H87.8756V212.858C87.8756 213.166 87.9203 213.397 88.0095 213.551C88.1018 213.702 88.2188 213.803 88.3604 213.856C88.505 213.905 88.6574 213.929 88.8174 213.929C88.9374 213.929 89.0359 213.923 89.1128 213.911C89.1898 213.896 89.2513 213.883 89.2975 213.874L89.5191 214.853C89.4452 214.88 89.3421 214.908 89.2098 214.936C89.0775 214.967 88.9097 214.982 88.7066 214.982C88.3988 214.982 88.0972 214.916 87.8018 214.783C87.5094 214.651 87.2663 214.45 87.0724 214.179C86.8815 213.908 86.7861 213.566 86.7861 213.154V206.1ZM93.1153 215.056C92.666 215.056 92.2582 214.971 91.892 214.802C91.5257 214.63 91.2349 214.382 91.0195 214.059C90.804 213.732 90.6963 213.339 90.6963 212.877C90.6963 212.471 90.7763 212.141 90.9364 211.889C91.0964 211.633 91.3103 211.433 91.578 211.289C91.8458 211.144 92.1413 211.036 92.4644 210.966C92.7906 210.892 93.1184 210.833 93.4477 210.79C93.8786 210.735 94.2279 210.693 94.4957 210.666C94.7665 210.635 94.9635 210.584 95.0866 210.513C95.2128 210.442 95.2758 210.319 95.2758 210.144V210.107C95.2758 209.651 95.1512 209.298 94.9019 209.045C94.6557 208.793 94.2818 208.667 93.7801 208.667C93.26 208.667 92.8522 208.781 92.5567 209.008C92.2613 209.236 92.0535 209.479 91.9335 209.738L90.8994 209.368C91.0841 208.937 91.3303 208.602 91.6381 208.362C91.9489 208.119 92.2874 207.95 92.6537 207.854C93.023 207.756 93.3862 207.706 93.7432 207.706C93.9709 207.706 94.2325 207.734 94.528 207.79C94.8265 207.842 95.1143 207.951 95.3913 208.117C95.6713 208.283 95.9037 208.534 96.0883 208.87C96.273 209.205 96.3653 209.655 96.3653 210.218V214.89H95.2758V213.929H95.2204C95.1466 214.083 95.0235 214.248 94.8511 214.423C94.6788 214.599 94.4495 214.748 94.1633 214.871C93.8771 214.994 93.5277 215.056 93.1153 215.056ZM93.2815 214.077C93.7124 214.077 94.0756 213.993 94.371 213.823C94.6695 213.654 94.8942 213.435 95.045 213.168C95.1989 212.9 95.2758 212.618 95.2758 212.323V211.326C95.2297 211.381 95.1281 211.432 94.9712 211.478C94.8173 211.521 94.6388 211.56 94.4356 211.593C94.2356 211.624 94.0402 211.652 93.8494 211.677C93.6616 211.698 93.5093 211.717 93.3923 211.732C93.1092 211.769 92.8445 211.829 92.5983 211.912C92.3552 211.992 92.1582 212.114 92.0074 212.277C91.8596 212.437 91.7858 212.655 91.7858 212.932C91.7858 213.311 91.9258 213.597 92.2059 213.791C92.489 213.982 92.8476 214.077 93.2815 214.077ZM101.031 215.037C100.441 215.037 99.9189 214.888 99.4665 214.59C99.014 214.288 98.6601 213.863 98.4047 213.315C98.1492 212.765 98.0215 212.114 98.0215 211.363C98.0215 210.618 98.1492 209.972 98.4047 209.424C98.6601 208.876 99.0156 208.453 99.4711 208.154C99.9266 207.856 100.453 207.706 101.05 207.706C101.512 207.706 101.876 207.783 102.144 207.937C102.415 208.088 102.621 208.26 102.763 208.454C102.907 208.645 103.02 208.802 103.1 208.925H103.192V205.435H104.281V214.89H103.229V213.8H103.1C103.02 213.929 102.906 214.093 102.758 214.29C102.61 214.483 102.399 214.657 102.126 214.811C101.852 214.962 101.487 215.037 101.031 215.037ZM101.179 214.059C101.616 214.059 101.986 213.945 102.287 213.717C102.589 213.486 102.818 213.168 102.975 212.761C103.132 212.352 103.21 211.88 103.21 211.344C103.21 210.815 103.133 210.352 102.98 209.955C102.826 209.555 102.598 209.244 102.296 209.022C101.995 208.797 101.622 208.685 101.179 208.685C100.718 208.685 100.333 208.804 100.025 209.041C99.7204 209.274 99.4911 209.593 99.3372 209.996C99.1864 210.396 99.111 210.846 99.111 211.344C99.111 211.849 99.1879 212.307 99.3418 212.72C99.4988 213.129 99.7296 213.455 100.034 213.699C100.342 213.939 100.724 214.059 101.179 214.059ZM109.309 215.037C108.669 215.037 108.107 214.885 107.624 214.58C107.144 214.276 106.768 213.849 106.497 213.302C106.23 212.754 106.096 212.114 106.096 211.381C106.096 210.642 106.23 209.998 106.497 209.447C106.768 208.896 107.144 208.468 107.624 208.163C108.107 207.859 108.669 207.706 109.309 207.706C109.949 207.706 110.509 207.859 110.989 208.163C111.472 208.468 111.848 208.896 112.116 209.447C112.386 209.998 112.522 210.642 112.522 211.381C112.522 212.114 112.386 212.754 112.116 213.302C111.848 213.849 111.472 214.276 110.989 214.58C110.509 214.885 109.949 215.037 109.309 215.037ZM109.309 214.059C109.795 214.059 110.195 213.934 110.509 213.685C110.823 213.435 111.055 213.108 111.206 212.701C111.357 212.295 111.432 211.855 111.432 211.381C111.432 210.907 111.357 210.466 111.206 210.056C111.055 209.647 110.823 209.316 110.509 209.064C110.195 208.811 109.795 208.685 109.309 208.685C108.823 208.685 108.422 208.811 108.108 209.064C107.795 209.316 107.562 209.647 107.411 210.056C107.261 210.466 107.185 210.907 107.185 211.381C107.185 211.855 107.261 212.295 107.411 212.701C107.562 213.108 107.795 213.435 108.108 213.685C108.422 213.934 108.823 214.059 109.309 214.059ZM117.047 217.696C116.521 217.696 116.068 217.629 115.69 217.493C115.311 217.361 114.996 217.186 114.744 216.967C114.494 216.752 114.296 216.521 114.148 216.275L115.016 215.665C115.114 215.794 115.239 215.942 115.39 216.108C115.541 216.278 115.747 216.424 116.008 216.547C116.273 216.673 116.619 216.736 117.047 216.736C117.62 216.736 118.092 216.598 118.464 216.321C118.837 216.044 119.023 215.61 119.023 215.019V213.579H118.931C118.851 213.708 118.737 213.868 118.589 214.059C118.444 214.246 118.235 214.414 117.961 214.562C117.69 214.707 117.324 214.779 116.862 214.779C116.29 214.779 115.776 214.643 115.321 214.373C114.868 214.102 114.51 213.708 114.245 213.191C113.983 212.674 113.853 212.046 113.853 211.307C113.853 210.581 113.98 209.948 114.236 209.41C114.491 208.868 114.847 208.45 115.302 208.154C115.758 207.856 116.284 207.706 116.881 207.706C117.343 207.706 117.709 207.783 117.98 207.937C118.254 208.088 118.463 208.26 118.608 208.454C118.755 208.645 118.869 208.802 118.949 208.925H119.06V207.799H120.112V215.093C120.112 215.702 119.974 216.198 119.697 216.579C119.423 216.964 119.054 217.246 118.589 217.424C118.127 217.606 117.613 217.696 117.047 217.696ZM117.01 213.8C117.447 213.8 117.817 213.7 118.118 213.5C118.42 213.3 118.649 213.012 118.806 212.637C118.963 212.261 119.041 211.812 119.041 211.289C119.041 210.778 118.965 210.327 118.811 209.936C118.657 209.545 118.429 209.239 118.127 209.017C117.826 208.796 117.453 208.685 117.01 208.685C116.549 208.685 116.164 208.802 115.856 209.036C115.551 209.27 115.322 209.584 115.168 209.978C115.017 210.372 114.942 210.809 114.942 211.289C114.942 211.781 115.019 212.217 115.173 212.595C115.33 212.971 115.561 213.266 115.865 213.482C116.173 213.694 116.555 213.8 117.01 213.8Z" fill="#EDECEC" fill-opacity="0.2"/>
</g>
<g clip-path="url(#clip5_2229_1298)">
<path d="M70.1726 243.14H68.9723L72.4439 233.685H73.6257L77.0973 243.14H75.897L73.0717 235.181H72.9979L70.1726 243.14ZM70.6158 239.446H75.4538V240.462H70.6158V239.446ZM79.5117 238.874V243.14H78.4222V236.049H79.4748V237.157H79.5671C79.7333 236.797 79.9857 236.507 80.3242 236.289C80.6628 236.067 81.0998 235.956 81.6353 235.956C82.1154 235.956 82.5355 236.055 82.8956 236.252C83.2557 236.446 83.5358 236.741 83.7358 237.138C83.9359 237.532 84.0359 238.031 84.0359 238.634V243.14H82.9464V238.708C82.9464 238.151 82.8017 237.717 82.5124 237.406C82.2231 237.092 81.8261 236.935 81.3214 236.935C80.9736 236.935 80.6628 237.011 80.3889 237.161C80.118 237.312 79.9041 237.532 79.7472 237.821C79.5902 238.111 79.5117 238.462 79.5117 238.874ZM88.1134 243.306C87.664 243.306 87.2563 243.221 86.89 243.052C86.5238 242.88 86.2329 242.632 86.0175 242.309C85.8021 241.982 85.6943 241.589 85.6943 241.127C85.6943 240.721 85.7744 240.391 85.9344 240.139C86.0944 239.883 86.3083 239.683 86.5761 239.539C86.8438 239.394 87.1393 239.286 87.4625 239.216C87.7887 239.142 88.1165 239.083 88.4458 239.04C88.8766 238.985 89.2259 238.943 89.4937 238.916C89.7645 238.885 89.9615 238.834 90.0846 238.763C90.2108 238.692 90.2739 238.569 90.2739 238.394V238.357C90.2739 237.901 90.1492 237.548 89.9 237.295C89.6537 237.043 89.2798 236.917 88.7782 236.917C88.258 236.917 87.8502 237.031 87.5548 237.258C87.2593 237.486 87.0516 237.729 86.9316 237.988L85.8975 237.618C86.0821 237.187 86.3283 236.852 86.6361 236.612C86.9469 236.369 87.2855 236.2 87.6517 236.104C88.021 236.006 88.3842 235.956 88.7412 235.956C88.969 235.956 89.2306 235.984 89.526 236.04C89.8246 236.092 90.1123 236.201 90.3893 236.367C90.6694 236.533 90.9017 236.784 91.0864 237.12C91.271 237.455 91.3634 237.905 91.3634 238.468V243.14H90.2739V242.179H90.2185C90.1446 242.333 90.0215 242.498 89.8492 242.673C89.6768 242.849 89.4475 242.998 89.1613 243.121C88.8751 243.244 88.5258 243.306 88.1134 243.306ZM88.2796 242.327C88.7104 242.327 89.0736 242.243 89.3691 242.073C89.6676 241.904 89.8923 241.685 90.0431 241.418C90.1969 241.15 90.2739 240.868 90.2739 240.573V239.576C90.2277 239.631 90.1262 239.682 89.9692 239.728C89.8153 239.771 89.6368 239.81 89.4337 239.843C89.2336 239.874 89.0382 239.902 88.8474 239.927C88.6597 239.948 88.5073 239.967 88.3904 239.982C88.1072 240.019 87.8425 240.079 87.5963 240.162C87.3532 240.242 87.1562 240.364 87.0054 240.527C86.8577 240.687 86.7838 240.905 86.7838 241.182C86.7838 241.561 86.9239 241.847 87.2039 242.041C87.4871 242.232 87.8456 242.327 88.2796 242.327ZM94.4414 233.685V243.14H93.3519V233.685H94.4414ZM97.1386 245.799C96.9539 245.799 96.7893 245.783 96.6446 245.753C96.5 245.725 96.4 245.697 96.3446 245.669L96.6215 244.709C96.8862 244.777 97.1201 244.802 97.3233 244.783C97.5264 244.765 97.7064 244.674 97.8634 244.511C98.0234 244.351 98.1696 244.091 98.3019 243.731L98.5051 243.177L95.8829 236.049H97.0647L99.0221 241.699H99.096L101.053 236.049H102.235L99.2252 244.174C99.0898 244.54 98.9221 244.843 98.722 245.083C98.522 245.326 98.2896 245.506 98.025 245.623C97.7634 245.74 97.4679 245.799 97.1386 245.799ZM106.757 236.049V236.972H103.082V236.049H106.757ZM104.153 234.35H105.243V241.108C105.243 241.416 105.287 241.647 105.377 241.801C105.469 241.952 105.586 242.053 105.728 242.106C105.872 242.155 106.025 242.179 106.185 242.179C106.305 242.179 106.403 242.173 106.48 242.161C106.557 242.146 106.619 242.133 106.665 242.124L106.886 243.103C106.812 243.13 106.709 243.158 106.577 243.186C106.445 243.217 106.277 243.232 106.074 243.232C105.766 243.232 105.464 243.166 105.169 243.033C104.877 242.901 104.633 242.7 104.44 242.429C104.249 242.158 104.153 241.816 104.153 241.404V234.35ZM108.396 243.14V236.049H109.485V243.14H108.396ZM108.95 234.867C108.737 234.867 108.554 234.795 108.4 234.65C108.25 234.505 108.174 234.331 108.174 234.128C108.174 233.925 108.25 233.751 108.4 233.607C108.554 233.462 108.737 233.39 108.95 233.39C109.162 233.39 109.344 233.462 109.495 233.607C109.648 233.751 109.725 233.925 109.725 234.128C109.725 234.331 109.648 234.505 109.495 234.65C109.344 234.795 109.162 234.867 108.95 234.867ZM114.362 243.287C113.697 243.287 113.124 243.13 112.644 242.816C112.164 242.503 111.795 242.07 111.536 241.519C111.278 240.968 111.148 240.339 111.148 239.631C111.148 238.911 111.281 238.275 111.545 237.725C111.813 237.171 112.186 236.738 112.663 236.427C113.143 236.113 113.703 235.956 114.343 235.956C114.842 235.956 115.291 236.049 115.691 236.233C116.091 236.418 116.419 236.677 116.674 237.009C116.93 237.341 117.088 237.729 117.15 238.172H116.06C115.977 237.849 115.793 237.563 115.506 237.314C115.223 237.061 114.842 236.935 114.362 236.935C113.937 236.935 113.564 237.046 113.244 237.267C112.927 237.486 112.68 237.795 112.501 238.195C112.326 238.592 112.238 239.059 112.238 239.594C112.238 240.142 112.324 240.619 112.496 241.025C112.672 241.432 112.918 241.747 113.235 241.972C113.555 242.196 113.931 242.309 114.362 242.309C114.645 242.309 114.902 242.259 115.132 242.161C115.363 242.062 115.559 241.921 115.719 241.736C115.879 241.552 115.993 241.33 116.06 241.071H117.15C117.088 241.49 116.936 241.867 116.693 242.203C116.453 242.535 116.134 242.8 115.737 242.997C115.343 243.19 114.885 243.287 114.362 243.287ZM123.765 237.637L122.787 237.914C122.725 237.751 122.634 237.592 122.514 237.438C122.397 237.281 122.237 237.152 122.034 237.051C121.831 236.949 121.571 236.898 121.254 236.898C120.82 236.898 120.458 236.998 120.169 237.198C119.883 237.395 119.74 237.646 119.74 237.951C119.74 238.222 119.838 238.435 120.035 238.592C120.232 238.749 120.54 238.88 120.958 238.985L122.011 239.243C122.645 239.397 123.117 239.633 123.428 239.95C123.739 240.264 123.895 240.668 123.895 241.164C123.895 241.57 123.778 241.933 123.544 242.253C123.313 242.573 122.99 242.826 122.574 243.01C122.159 243.195 121.676 243.287 121.125 243.287C120.401 243.287 119.803 243.13 119.329 242.816C118.855 242.503 118.555 242.044 118.429 241.441L119.463 241.182C119.561 241.564 119.747 241.85 120.021 242.041C120.298 242.232 120.66 242.327 121.106 242.327C121.614 242.327 122.017 242.219 122.316 242.004C122.617 241.785 122.768 241.524 122.768 241.219C122.768 240.973 122.682 240.767 122.51 240.601C122.337 240.431 122.073 240.305 121.716 240.222L120.534 239.945C119.884 239.791 119.407 239.553 119.103 239.229C118.801 238.903 118.65 238.495 118.65 238.006C118.65 237.606 118.763 237.252 118.987 236.944C119.215 236.637 119.524 236.395 119.915 236.22C120.309 236.044 120.755 235.956 121.254 235.956C121.956 235.956 122.507 236.11 122.907 236.418C123.31 236.726 123.596 237.132 123.765 237.637ZM132.533 233.242L129.486 244.562H128.489L131.536 233.242H132.533ZM140.565 236.049V236.972H136.89V236.049H140.565ZM137.961 234.35H139.05V241.108C139.05 241.416 139.095 241.647 139.184 241.801C139.277 241.952 139.394 242.053 139.535 242.106C139.68 242.155 139.832 242.179 139.992 242.179C140.112 242.179 140.211 242.173 140.288 242.161C140.365 242.146 140.426 242.133 140.472 242.124L140.694 243.103C140.62 243.13 140.517 243.158 140.385 243.186C140.252 243.217 140.085 243.232 139.881 243.232C139.574 243.232 139.272 243.166 138.977 243.033C138.684 242.901 138.441 242.7 138.247 242.429C138.056 242.158 137.961 241.816 137.961 241.404V234.35ZM142.203 243.14V236.049H143.256V237.12H143.33C143.459 236.769 143.693 236.484 144.032 236.266C144.37 236.047 144.752 235.938 145.177 235.938C145.257 235.938 145.357 235.939 145.477 235.943C145.597 235.946 145.687 235.95 145.749 235.956V237.064C145.712 237.055 145.627 237.041 145.495 237.023C145.366 237.001 145.229 236.991 145.084 236.991C144.739 236.991 144.432 237.063 144.161 237.207C143.893 237.349 143.681 237.546 143.524 237.798C143.37 238.048 143.293 238.332 143.293 238.652V243.14H142.203ZM149.127 243.306C148.678 243.306 148.27 243.221 147.904 243.052C147.537 242.88 147.247 242.632 147.031 242.309C146.816 241.982 146.708 241.589 146.708 241.127C146.708 240.721 146.788 240.391 146.948 240.139C147.108 239.883 147.322 239.683 147.59 239.539C147.858 239.394 148.153 239.286 148.476 239.216C148.802 239.142 149.13 239.083 149.459 239.04C149.89 238.985 150.24 238.943 150.507 238.916C150.778 238.885 150.975 238.834 151.098 238.763C151.224 238.692 151.288 238.569 151.288 238.394V238.357C151.288 237.901 151.163 237.548 150.914 237.295C150.667 237.043 150.293 236.917 149.792 236.917C149.272 236.917 148.864 237.031 148.568 237.258C148.273 237.486 148.065 237.729 147.945 237.988L146.911 237.618C147.096 237.187 147.342 236.852 147.65 236.612C147.961 236.369 148.299 236.2 148.665 236.104C149.035 236.006 149.398 235.956 149.755 235.956C149.983 235.956 150.244 235.984 150.54 236.04C150.838 236.092 151.126 236.201 151.403 236.367C151.683 236.533 151.915 236.784 152.1 237.12C152.285 237.455 152.377 237.905 152.377 238.468V243.14H151.288V242.179H151.232C151.158 242.333 151.035 242.498 150.863 242.673C150.69 242.849 150.461 242.998 150.175 243.121C149.889 243.244 149.539 243.306 149.127 243.306ZM149.293 242.327C149.724 242.327 150.087 242.243 150.383 242.073C150.681 241.904 150.906 241.685 151.057 241.418C151.211 241.15 151.288 240.868 151.288 240.573V239.576C151.241 239.631 151.14 239.682 150.983 239.728C150.829 239.771 150.65 239.81 150.447 239.843C150.247 239.874 150.052 239.902 149.861 239.927C149.673 239.948 149.521 239.967 149.404 239.982C149.121 240.019 148.856 240.079 148.61 240.162C148.367 240.242 148.17 240.364 148.019 240.527C147.871 240.687 147.798 240.905 147.798 241.182C147.798 241.561 147.938 241.847 148.218 242.041C148.501 242.232 148.859 242.327 149.293 242.327ZM157.246 243.287C156.582 243.287 156.009 243.13 155.529 242.816C155.049 242.503 154.68 242.07 154.421 241.519C154.162 240.968 154.033 240.339 154.033 239.631C154.033 238.911 154.166 238.275 154.43 237.725C154.698 237.171 155.07 236.738 155.547 236.427C156.028 236.113 156.588 235.956 157.228 235.956C157.726 235.956 158.176 236.049 158.576 236.233C158.976 236.418 159.304 236.677 159.559 237.009C159.815 237.341 159.973 237.729 160.035 238.172H158.945C158.862 237.849 158.677 237.563 158.391 237.314C158.108 237.061 157.726 236.935 157.246 236.935C156.822 236.935 156.449 237.046 156.129 237.267C155.812 237.486 155.564 237.795 155.386 238.195C155.21 238.592 155.123 239.059 155.123 239.594C155.123 240.142 155.209 240.619 155.381 241.025C155.557 241.432 155.803 241.747 156.12 241.972C156.44 242.196 156.815 242.309 157.246 242.309C157.529 242.309 157.786 242.259 158.017 242.161C158.248 242.062 158.443 241.921 158.604 241.736C158.764 241.552 158.877 241.33 158.945 241.071H160.035C159.973 241.49 159.821 241.867 159.578 242.203C159.338 242.535 159.019 242.8 158.622 242.997C158.228 243.19 157.769 243.287 157.246 243.287ZM162.643 240.554L162.624 239.206H162.846L165.948 236.049H167.296L163.991 239.391H163.899L162.643 240.554ZM161.627 243.14V233.685H162.717V243.14H161.627ZM166.133 243.14L163.363 239.631L164.139 238.874L167.518 243.14H166.133ZM168.699 243.14V236.049H169.788V243.14H168.699ZM169.253 234.867C169.04 234.867 168.857 234.795 168.703 234.65C168.552 234.505 168.477 234.331 168.477 234.128C168.477 233.925 168.552 233.751 168.703 233.607C168.857 233.462 169.04 233.39 169.253 233.39C169.465 233.39 169.647 233.462 169.797 233.607C169.951 233.751 170.028 233.925 170.028 234.128C170.028 234.331 169.951 234.505 169.797 234.65C169.647 234.795 169.465 234.867 169.253 234.867ZM172.873 238.874V243.14H171.784V236.049H172.836V237.157H172.928C173.095 236.797 173.347 236.507 173.686 236.289C174.024 236.067 174.461 235.956 174.997 235.956C175.477 235.956 175.897 236.055 176.257 236.252C176.617 236.446 176.897 236.741 177.097 237.138C177.297 237.532 177.397 238.031 177.397 238.634V243.14H176.308V238.708C176.308 238.151 176.163 237.717 175.874 237.406C175.584 237.092 175.187 236.935 174.683 236.935C174.335 236.935 174.024 237.011 173.75 237.161C173.479 237.312 173.265 237.532 173.108 237.821C172.952 238.111 172.873 238.462 172.873 238.874ZM182.25 245.946C181.724 245.946 181.272 245.879 180.893 245.743C180.514 245.611 180.199 245.436 179.947 245.217C179.697 245.002 179.499 244.771 179.351 244.525L180.219 243.915C180.318 244.044 180.442 244.192 180.593 244.358C180.744 244.528 180.95 244.674 181.212 244.797C181.476 244.923 181.822 244.986 182.25 244.986C182.823 244.986 183.295 244.848 183.668 244.571C184.04 244.294 184.226 243.86 184.226 243.269V241.829H184.134C184.054 241.958 183.94 242.118 183.792 242.309C183.648 242.496 183.438 242.664 183.164 242.812C182.894 242.957 182.527 243.029 182.066 243.029C181.493 243.029 180.979 242.893 180.524 242.623C180.071 242.352 179.713 241.958 179.448 241.441C179.186 240.924 179.056 240.296 179.056 239.557C179.056 238.831 179.183 238.198 179.439 237.66C179.694 237.118 180.05 236.7 180.505 236.404C180.961 236.106 181.487 235.956 182.084 235.956C182.546 235.956 182.912 236.033 183.183 236.187C183.457 236.338 183.666 236.51 183.811 236.704C183.958 236.895 184.072 237.052 184.152 237.175H184.263V236.049H185.316V243.343C185.316 243.952 185.177 244.448 184.9 244.829C184.626 245.214 184.257 245.496 183.792 245.674C183.331 245.856 182.817 245.946 182.25 245.946ZM182.213 242.05C182.65 242.05 183.02 241.95 183.321 241.75C183.623 241.55 183.852 241.262 184.009 240.887C184.166 240.511 184.245 240.062 184.245 239.539C184.245 239.028 184.168 238.577 184.014 238.186C183.86 237.795 183.632 237.489 183.331 237.267C183.029 237.046 182.657 236.935 182.213 236.935C181.752 236.935 181.367 237.052 181.059 237.286C180.755 237.52 180.525 237.834 180.371 238.228C180.221 238.622 180.145 239.059 180.145 239.539C180.145 240.031 180.222 240.467 180.376 240.845C180.533 241.221 180.764 241.516 181.068 241.732C181.376 241.944 181.758 242.05 182.213 242.05Z" fill="#EDECEC" fill-opacity="0.2"/>
</g>
<g clip-path="url(#clip6_2229_1298)">
<path d="M69.7848 271.39V261.935H75.4908V262.951H70.9297V266.145H75.1953V267.161H70.9297V270.374H75.5646V271.39H69.7848ZM78.2191 264.299L79.918 267.198L81.6168 264.299H82.8725L80.5828 267.844L82.8725 271.39H81.6168L79.918 268.638L78.2191 271.39H76.9634L79.2163 267.844L76.9634 264.299H78.2191ZM87.5109 264.299V265.222H83.8362V264.299H87.5109ZM84.9072 262.6H85.9967V269.358C85.9967 269.666 86.0413 269.897 86.1306 270.051C86.2229 270.202 86.3399 270.303 86.4815 270.356C86.6261 270.405 86.7784 270.429 86.9385 270.429C87.0585 270.429 87.157 270.423 87.2339 270.411C87.3109 270.396 87.3724 270.383 87.4186 270.374L87.6402 271.353C87.5663 271.38 87.4632 271.408 87.3309 271.436C87.1985 271.467 87.0308 271.482 86.8277 271.482C86.5199 271.482 86.2183 271.416 85.9229 271.283C85.6305 271.151 85.3873 270.95 85.1935 270.679C85.0026 270.408 84.9072 270.066 84.9072 269.654V262.6ZM92.0466 271.537C91.3634 271.537 90.774 271.387 90.2785 271.085C89.7861 270.78 89.406 270.356 89.1382 269.811C88.8736 269.263 88.7412 268.626 88.7412 267.9C88.7412 267.173 88.8736 266.533 89.1382 265.979C89.406 265.422 89.7784 264.988 90.2554 264.677C90.7355 264.363 91.2957 264.206 91.9358 264.206C92.3051 264.206 92.6698 264.268 93.0299 264.391C93.39 264.514 93.7178 264.714 94.0132 264.991C94.3087 265.265 94.5441 265.628 94.7196 266.081C94.895 266.533 94.9827 267.09 94.9827 267.752V268.214H89.5168V267.272H93.8747C93.8747 266.872 93.7947 266.515 93.6347 266.201C93.4777 265.887 93.2531 265.639 92.9607 265.457C92.6714 265.276 92.3298 265.185 91.9358 265.185C91.5019 265.185 91.1264 265.293 90.8094 265.508C90.4955 265.721 90.2539 265.998 90.0846 266.339C89.9153 266.681 89.8307 267.047 89.8307 267.438V268.066C89.8307 268.601 89.923 269.055 90.1077 269.428C90.2954 269.797 90.5555 270.079 90.8879 270.272C91.2203 270.463 91.6065 270.559 92.0466 270.559C92.3328 270.559 92.5914 270.519 92.8222 270.439C93.0561 270.356 93.2577 270.232 93.4269 270.069C93.5962 269.903 93.727 269.697 93.8193 269.451L94.8719 269.746C94.7611 270.103 94.5749 270.417 94.3133 270.688C94.0517 270.956 93.7286 271.165 93.3438 271.316C92.9591 271.464 92.5267 271.537 92.0466 271.537ZM96.64 271.39V264.299H97.6926V265.37H97.7664C97.8957 265.019 98.1296 264.734 98.4681 264.516C98.8067 264.297 99.1883 264.188 99.613 264.188C99.693 264.188 99.7931 264.189 99.9131 264.193C100.033 264.196 100.124 264.2 100.185 264.206V265.314C100.149 265.305 100.064 265.291 99.9316 265.273C99.8023 265.251 99.6653 265.241 99.5207 265.241C99.176 265.241 98.8682 265.313 98.5974 265.457C98.3296 265.599 98.1173 265.796 97.9603 266.048C97.8064 266.298 97.7295 266.582 97.7295 266.902V271.39H96.64ZM102.566 267.124V271.39H101.477V264.299H102.529V265.407H102.622C102.788 265.047 103.04 264.757 103.379 264.539C103.717 264.317 104.154 264.206 104.69 264.206C105.17 264.206 105.59 264.305 105.95 264.502C106.31 264.696 106.59 264.991 106.79 265.388C106.991 265.782 107.091 266.281 107.091 266.884V271.39H106.001V266.958C106.001 266.401 105.856 265.967 105.567 265.656C105.278 265.342 104.881 265.185 104.376 265.185C104.028 265.185 103.717 265.261 103.444 265.411C103.173 265.562 102.959 265.782 102.802 266.071C102.645 266.361 102.566 266.712 102.566 267.124ZM111.168 271.556C110.719 271.556 110.311 271.471 109.945 271.302C109.578 271.13 109.288 270.882 109.072 270.559C108.857 270.232 108.749 269.839 108.749 269.377C108.749 268.971 108.829 268.641 108.989 268.389C109.149 268.133 109.363 267.933 109.631 267.789C109.899 267.644 110.194 267.536 110.517 267.466C110.843 267.392 111.171 267.333 111.5 267.29C111.931 267.235 112.281 267.193 112.548 267.166C112.819 267.135 113.016 267.084 113.139 267.013C113.265 266.942 113.329 266.819 113.329 266.644V266.607C113.329 266.151 113.204 265.798 112.955 265.545C112.708 265.293 112.334 265.167 111.833 265.167C111.313 265.167 110.905 265.281 110.609 265.508C110.314 265.736 110.106 265.979 109.986 266.238L108.952 265.868C109.137 265.437 109.383 265.102 109.691 264.862C110.002 264.619 110.34 264.45 110.706 264.354C111.076 264.256 111.439 264.206 111.796 264.206C112.024 264.206 112.285 264.234 112.581 264.29C112.879 264.342 113.167 264.451 113.444 264.617C113.724 264.783 113.956 265.034 114.141 265.37C114.326 265.705 114.418 266.155 114.418 266.718V271.39H113.329V270.429H113.273C113.199 270.583 113.076 270.748 112.904 270.923C112.732 271.099 112.502 271.248 112.216 271.371C111.93 271.494 111.58 271.556 111.168 271.556ZM111.334 270.577C111.765 270.577 112.128 270.493 112.424 270.323C112.722 270.154 112.947 269.935 113.098 269.668C113.252 269.4 113.329 269.118 113.329 268.823V267.826C113.282 267.881 113.181 267.932 113.024 267.978C112.87 268.021 112.692 268.06 112.488 268.093C112.288 268.124 112.093 268.152 111.902 268.177C111.714 268.198 111.562 268.217 111.445 268.232C111.162 268.269 110.897 268.329 110.651 268.412C110.408 268.492 110.211 268.614 110.06 268.777C109.912 268.937 109.839 269.155 109.839 269.432C109.839 269.811 109.979 270.097 110.259 270.291C110.542 270.482 110.9 270.577 111.334 270.577ZM117.496 261.935V271.39H116.407V261.935H117.496ZM123.148 271.39V264.299H124.2V265.407H124.293C124.44 265.028 124.679 264.734 125.008 264.525C125.338 264.313 125.733 264.206 126.195 264.206C126.663 264.206 127.052 264.313 127.363 264.525C127.677 264.734 127.921 265.028 128.097 265.407H128.171C128.352 265.04 128.625 264.75 128.988 264.534C129.351 264.316 129.786 264.206 130.294 264.206C130.928 264.206 131.447 264.405 131.85 264.802C132.253 265.196 132.455 265.81 132.455 266.644V271.39H131.365V266.644C131.365 266.121 131.222 265.747 130.936 265.522C130.65 265.297 130.313 265.185 129.925 265.185C129.426 265.185 129.04 265.336 128.766 265.638C128.492 265.936 128.355 266.315 128.355 266.773V271.39H127.247V266.533C127.247 266.13 127.116 265.805 126.855 265.559C126.593 265.31 126.256 265.185 125.844 265.185C125.561 265.185 125.296 265.261 125.05 265.411C124.807 265.562 124.61 265.771 124.459 266.039C124.311 266.304 124.237 266.61 124.237 266.958V271.39H123.148ZM137.42 271.537C136.736 271.537 136.147 271.387 135.652 271.085C135.159 270.78 134.779 270.356 134.511 269.811C134.247 269.263 134.114 268.626 134.114 267.9C134.114 267.173 134.247 266.533 134.511 265.979C134.779 265.422 135.151 264.988 135.628 264.677C136.109 264.363 136.669 264.206 137.309 264.206C137.678 264.206 138.043 264.268 138.403 264.391C138.763 264.514 139.091 264.714 139.386 264.991C139.682 265.265 139.917 265.628 140.093 266.081C140.268 266.533 140.356 267.09 140.356 267.752V268.214H134.89V267.272H139.248C139.248 266.872 139.168 266.515 139.008 266.201C138.851 265.887 138.626 265.639 138.334 265.457C138.044 265.276 137.703 265.185 137.309 265.185C136.875 265.185 136.499 265.293 136.182 265.508C135.869 265.721 135.627 265.998 135.458 266.339C135.288 266.681 135.204 267.047 135.204 267.438V268.066C135.204 268.601 135.296 269.055 135.481 269.428C135.668 269.797 135.929 270.079 136.261 270.272C136.593 270.463 136.98 270.559 137.42 270.559C137.706 270.559 137.964 270.519 138.195 270.439C138.429 270.356 138.631 270.232 138.8 270.069C138.969 269.903 139.1 269.697 139.192 269.451L140.245 269.746C140.134 270.103 139.948 270.417 139.686 270.688C139.425 270.956 139.102 271.165 138.717 271.316C138.332 271.464 137.9 271.537 137.42 271.537ZM145.097 264.299V265.222H141.422V264.299H145.097ZM142.493 262.6H143.583V269.358C143.583 269.666 143.627 269.897 143.717 270.051C143.809 270.202 143.926 270.303 144.067 270.356C144.212 270.405 144.364 270.429 144.524 270.429C144.644 270.429 144.743 270.423 144.82 270.411C144.897 270.396 144.958 270.383 145.005 270.374L145.226 271.353C145.152 271.38 145.049 271.408 144.917 271.436C144.784 271.467 144.617 271.482 144.414 271.482C144.106 271.482 143.804 271.416 143.509 271.283C143.216 271.151 142.973 270.95 142.779 270.679C142.589 270.408 142.493 270.066 142.493 269.654V262.6ZM146.736 271.39V264.299H147.788V265.37H147.862C147.991 265.019 148.225 264.734 148.564 264.516C148.902 264.297 149.284 264.188 149.709 264.188C149.789 264.188 149.889 264.189 150.009 264.193C150.129 264.196 150.22 264.2 150.281 264.206V265.314C150.244 265.305 150.16 265.291 150.027 265.273C149.898 265.251 149.761 265.241 149.616 265.241C149.272 265.241 148.964 265.313 148.693 265.457C148.425 265.599 148.213 265.796 148.056 266.048C147.902 266.298 147.825 266.582 147.825 266.902V271.39H146.736ZM151.573 271.39V264.299H152.662V271.39H151.573ZM152.127 263.117C151.914 263.117 151.731 263.045 151.577 262.9C151.426 262.755 151.351 262.581 151.351 262.378C151.351 262.175 151.426 262.001 151.577 261.857C151.731 261.712 151.914 261.64 152.127 261.64C152.339 261.64 152.521 261.712 152.671 261.857C152.825 262.001 152.902 262.175 152.902 262.378C152.902 262.581 152.825 262.755 152.671 262.9C152.521 263.045 152.339 263.117 152.127 263.117ZM157.538 271.537C156.873 271.537 156.301 271.38 155.821 271.066C155.341 270.753 154.972 270.32 154.713 269.769C154.454 269.218 154.325 268.589 154.325 267.881C154.325 267.161 154.458 266.525 154.722 265.975C154.99 265.421 155.362 264.988 155.839 264.677C156.32 264.363 156.88 264.206 157.52 264.206C158.018 264.206 158.468 264.299 158.868 264.483C159.268 264.668 159.596 264.927 159.851 265.259C160.107 265.591 160.265 265.979 160.327 266.422H159.237C159.154 266.099 158.969 265.813 158.683 265.564C158.4 265.311 158.018 265.185 157.538 265.185C157.114 265.185 156.741 265.296 156.421 265.517C156.104 265.736 155.856 266.045 155.678 266.445C155.502 266.842 155.415 267.309 155.415 267.844C155.415 268.392 155.501 268.869 155.673 269.275C155.849 269.682 156.095 269.997 156.412 270.222C156.732 270.446 157.107 270.559 157.538 270.559C157.821 270.559 158.078 270.509 158.309 270.411C158.54 270.312 158.735 270.171 158.896 269.986C159.056 269.802 159.169 269.58 159.237 269.321H160.327C160.265 269.74 160.113 270.117 159.87 270.453C159.63 270.785 159.311 271.05 158.914 271.247C158.52 271.44 158.061 271.537 157.538 271.537ZM166.942 265.887L165.963 266.164C165.902 266.001 165.811 265.842 165.691 265.688C165.574 265.531 165.414 265.402 165.211 265.301C165.008 265.199 164.748 265.148 164.431 265.148C163.997 265.148 163.635 265.248 163.346 265.448C163.06 265.645 162.916 265.896 162.916 266.201C162.916 266.472 163.015 266.685 163.212 266.842C163.409 266.999 163.717 267.13 164.135 267.235L165.188 267.493C165.822 267.647 166.294 267.883 166.605 268.2C166.916 268.514 167.071 268.918 167.071 269.414C167.071 269.82 166.954 270.183 166.72 270.503C166.49 270.823 166.166 271.076 165.751 271.26C165.336 271.445 164.852 271.537 164.301 271.537C163.578 271.537 162.98 271.38 162.506 271.066C162.032 270.753 161.732 270.294 161.605 269.691L162.639 269.432C162.738 269.814 162.924 270.1 163.198 270.291C163.475 270.482 163.837 270.577 164.283 270.577C164.791 270.577 165.194 270.469 165.492 270.254C165.794 270.035 165.945 269.774 165.945 269.469C165.945 269.223 165.859 269.017 165.686 268.851C165.514 268.681 165.249 268.555 164.892 268.472L163.711 268.195C163.061 268.041 162.584 267.803 162.279 267.479C161.978 267.153 161.827 266.745 161.827 266.256C161.827 265.856 161.939 265.502 162.164 265.194C162.392 264.887 162.701 264.645 163.092 264.47C163.486 264.294 163.932 264.206 164.431 264.206C165.132 264.206 165.683 264.36 166.083 264.668C166.487 264.976 166.773 265.382 166.942 265.887ZM177.39 265.887L176.412 266.164C176.35 266.001 176.259 265.842 176.139 265.688C176.022 265.531 175.862 265.402 175.659 265.301C175.456 265.199 175.196 265.148 174.879 265.148C174.445 265.148 174.083 265.248 173.794 265.448C173.508 265.645 173.365 265.896 173.365 266.201C173.365 266.472 173.463 266.685 173.66 266.842C173.857 266.999 174.165 267.13 174.583 267.235L175.636 267.493C176.27 267.647 176.742 267.883 177.053 268.2C177.364 268.514 177.52 268.918 177.52 269.414C177.52 269.82 177.403 270.183 177.169 270.503C176.938 270.823 176.615 271.076 176.199 271.26C175.784 271.445 175.301 271.537 174.75 271.537C174.026 271.537 173.428 271.38 172.954 271.066C172.48 270.753 172.18 270.294 172.054 269.691L173.088 269.432C173.186 269.814 173.372 270.1 173.646 270.291C173.923 270.482 174.285 270.577 174.731 270.577C175.239 270.577 175.642 270.469 175.941 270.254C176.242 270.035 176.393 269.774 176.393 269.469C176.393 269.223 176.307 269.017 176.135 268.851C175.962 268.681 175.698 268.555 175.341 268.472L174.159 268.195C173.509 268.041 173.032 267.803 172.728 267.479C172.426 267.153 172.275 266.745 172.275 266.256C172.275 265.856 172.388 265.502 172.612 265.194C172.84 264.887 173.149 264.645 173.54 264.47C173.934 264.294 174.38 264.206 174.879 264.206C175.581 264.206 176.132 264.36 176.532 264.668C176.935 264.976 177.221 265.382 177.39 265.887ZM182.133 271.537C181.449 271.537 180.86 271.387 180.364 271.085C179.872 270.78 179.492 270.356 179.224 269.811C178.959 269.263 178.827 268.626 178.827 267.9C178.827 267.173 178.959 266.533 179.224 265.979C179.492 265.422 179.864 264.988 180.341 264.677C180.821 264.363 181.382 264.206 182.022 264.206C182.391 264.206 182.756 264.268 183.116 264.391C183.476 264.514 183.804 264.714 184.099 264.991C184.395 265.265 184.63 265.628 184.805 266.081C184.981 266.533 185.069 267.09 185.069 267.752V268.214H179.603V267.272H183.961C183.961 266.872 183.881 266.515 183.721 266.201C183.564 265.887 183.339 265.639 183.047 265.457C182.757 265.276 182.416 265.185 182.022 265.185C181.588 265.185 181.212 265.293 180.895 265.508C180.581 265.721 180.34 265.998 180.171 266.339C180.001 266.681 179.917 267.047 179.917 267.438V268.066C179.917 268.601 180.009 269.055 180.194 269.428C180.381 269.797 180.641 270.079 180.974 270.272C181.306 270.463 181.692 270.559 182.133 270.559C182.419 270.559 182.677 270.519 182.908 270.439C183.142 270.356 183.344 270.232 183.513 270.069C183.682 269.903 183.813 269.697 183.905 269.451L184.958 269.746C184.847 270.103 184.661 270.417 184.399 270.688C184.138 270.956 183.814 271.165 183.43 271.316C183.045 271.464 182.613 271.537 182.133 271.537ZM186.726 271.39V264.299H187.779V265.37H187.852C187.982 265.019 188.216 264.734 188.554 264.516C188.893 264.297 189.274 264.188 189.699 264.188C189.779 264.188 189.879 264.189 189.999 264.193C190.119 264.196 190.21 264.2 190.271 264.206V265.314C190.234 265.305 190.15 265.291 190.017 265.273C189.888 265.251 189.751 265.241 189.607 265.241C189.262 265.241 188.954 265.313 188.683 265.457C188.416 265.599 188.203 265.796 188.046 266.048C187.892 266.298 187.815 266.582 187.815 266.902V271.39H186.726ZM197.577 264.299L194.955 271.39H193.847L191.225 264.299H192.407L194.364 269.949H194.438L196.395 264.299H197.577ZM199.015 271.39V264.299H200.105V271.39H199.015ZM199.569 263.117C199.357 263.117 199.174 263.045 199.02 262.9C198.869 262.755 198.793 262.581 198.793 262.378C198.793 262.175 198.869 262.001 199.02 261.857C199.174 261.712 199.357 261.64 199.569 261.64C199.781 261.64 199.963 261.712 200.114 261.857C200.268 262.001 200.345 262.175 200.345 262.378C200.345 262.581 200.268 262.755 200.114 262.9C199.963 263.045 199.781 263.117 199.569 263.117ZM204.981 271.537C204.316 271.537 203.743 271.38 203.263 271.066C202.783 270.753 202.414 270.32 202.155 269.769C201.897 269.218 201.768 268.589 201.768 267.881C201.768 267.161 201.9 266.525 202.165 265.975C202.432 265.421 202.805 264.988 203.282 264.677C203.762 264.363 204.322 264.206 204.962 264.206C205.461 264.206 205.91 264.299 206.31 264.483C206.71 264.668 207.038 264.927 207.294 265.259C207.549 265.591 207.707 265.979 207.769 266.422H206.68C206.596 266.099 206.412 265.813 206.126 265.564C205.842 265.311 205.461 265.185 204.981 265.185C204.556 265.185 204.184 265.296 203.863 265.517C203.546 265.736 203.299 266.045 203.12 266.445C202.945 266.842 202.857 267.309 202.857 267.844C202.857 268.392 202.943 268.869 203.116 269.275C203.291 269.682 203.537 269.997 203.854 270.222C204.174 270.446 204.55 270.559 204.981 270.559C205.264 270.559 205.521 270.509 205.752 270.411C205.982 270.312 206.178 270.171 206.338 269.986C206.498 269.802 206.612 269.58 206.68 269.321H207.769C207.707 269.74 207.555 270.117 207.312 270.453C207.072 270.785 206.753 271.05 206.356 271.247C205.962 271.44 205.504 271.537 204.981 271.537ZM212.335 271.537C211.651 271.537 211.062 271.387 210.567 271.085C210.074 270.78 209.694 270.356 209.426 269.811C209.162 269.263 209.029 268.626 209.029 267.9C209.029 267.173 209.162 266.533 209.426 265.979C209.694 265.422 210.066 264.988 210.544 264.677C211.024 264.363 211.584 264.206 212.224 264.206C212.593 264.206 212.958 264.268 213.318 264.391C213.678 264.514 214.006 264.714 214.301 264.991C214.597 265.265 214.832 265.628 215.008 266.081C215.183 266.533 215.271 267.09 215.271 267.752V268.214H209.805V267.272H214.163C214.163 266.872 214.083 266.515 213.923 266.201C213.766 265.887 213.541 265.639 213.249 265.457C212.959 265.276 212.618 265.185 212.224 265.185C211.79 265.185 211.414 265.293 211.097 265.508C210.784 265.721 210.542 265.998 210.373 266.339C210.203 266.681 210.119 267.047 210.119 267.438V268.066C210.119 268.601 210.211 269.055 210.396 269.428C210.584 269.797 210.844 270.079 211.176 270.272C211.508 270.463 211.895 270.559 212.335 270.559C212.621 270.559 212.879 270.519 213.11 270.439C213.344 270.356 213.546 270.232 213.715 270.069C213.884 269.903 214.015 269.697 214.107 269.451L215.16 269.746C215.049 270.103 214.863 270.417 214.601 270.688C214.34 270.956 214.017 271.165 213.632 271.316C213.247 271.464 212.815 271.537 212.335 271.537ZM221.951 265.887L220.972 266.164C220.911 266.001 220.82 265.842 220.7 265.688C220.583 265.531 220.423 265.402 220.22 265.301C220.017 265.199 219.756 265.148 219.439 265.148C219.006 265.148 218.644 265.248 218.355 265.448C218.068 265.645 217.925 265.896 217.925 266.201C217.925 266.472 218.024 266.685 218.221 266.842C218.418 266.999 218.725 267.13 219.144 267.235L220.197 267.493C220.831 267.647 221.303 267.883 221.614 268.2C221.925 268.514 222.08 268.918 222.08 269.414C222.08 269.82 221.963 270.183 221.729 270.503C221.498 270.823 221.175 271.076 220.76 271.26C220.344 271.445 219.861 271.537 219.31 271.537C218.587 271.537 217.988 271.38 217.514 271.066C217.04 270.753 216.74 270.294 216.614 269.691L217.648 269.432C217.747 269.814 217.933 270.1 218.207 270.291C218.484 270.482 218.845 270.577 219.292 270.577C219.8 270.577 220.203 270.469 220.501 270.254C220.803 270.035 220.954 269.774 220.954 269.469C220.954 269.223 220.867 269.017 220.695 268.851C220.523 268.681 220.258 268.555 219.901 268.472L218.719 268.195C218.07 268.041 217.593 267.803 217.288 267.479C216.987 267.153 216.836 266.745 216.836 266.256C216.836 265.856 216.948 265.502 217.173 265.194C217.401 264.887 217.71 264.645 218.101 264.47C218.495 264.294 218.941 264.206 219.439 264.206C220.141 264.206 220.692 264.36 221.092 264.668C221.495 264.976 221.782 265.382 221.951 265.887Z" fill="#EDECEC" fill-opacity="0.2"/>
</g>
</g>
<path d="M63.9999 101V101.64H328V101V100.36H63.9999V101ZM336 109H335.36V283H336H336.64V109H336ZM328 291V290.36H63.9999V291V291.64H328V291ZM55.9999 283H56.6399V109H55.9999H55.3599V283H55.9999ZM63.9999 291V290.36C59.9351 290.36 56.6399 287.065 56.6399 283H55.9999H55.3599C55.3599 287.772 59.2282 291.64 63.9999 291.64V291ZM336 283H335.36C335.36 287.065 332.065 290.36 328 290.36V291V291.64C332.772 291.64 336.64 287.772 336.64 283H336ZM328 101V101.64C332.065 101.64 335.36 104.935 335.36 109H336H336.64C336.64 104.228 332.772 100.36 328 100.36V101ZM63.9999 101V100.36C59.2282 100.36 55.3599 104.228 55.3599 109H55.9999H56.6399C56.6399 104.935 59.9351 101.64 63.9999 101.64V101Z" fill="#EDECEC" fill-opacity="0.06" mask="url(#path-7-inside-2_2229_1298)"/>
</g>
<defs>
<filter id="filter0_dd_2229_1298" x="29.83" y="64.3604" width="332" height="109.28" filterUnits="userSpaceOnUse" color-interpolation-filters="sRGB">
<feFlood flood-opacity="0" result="BackgroundImageFix"/>
<feColorMatrix in="SourceAlpha" type="matrix" values="0 0 0 0 0 0 0 0 0 0 0 0 0 0 0 0 0 0 127 0" result="hardAlpha"/>
<feMorphology radius="4" operator="erode" in="SourceAlpha" result="effect1_dropShadow_2229_1298"/>
<feOffset dy="4"/>
<feGaussianBlur stdDeviation="3"/>
<feComposite in2="hardAlpha" operator="out"/>
<feColorMatrix type="matrix" values="0 0 0 0 0 0 0 0 0 0 0 0 0 0 0 0 0 0 0.1 0"/>
<feBlend mode="normal" in2="BackgroundImageFix" result="effect1_dropShadow_2229_1298"/>
<feColorMatrix in="SourceAlpha" type="matrix" values="0 0 0 0 0 0 0 0 0 0 0 0 0 0 0 0 0 0 127 0" result="hardAlpha"/>
<feMorphology radius="3" operator="erode" in="SourceAlpha" result="effect2_dropShadow_2229_1298"/>
<feOffset dy="10"/>
<feGaussianBlur stdDeviation="7.5"/>
<feComposite in2="hardAlpha" operator="out"/>
<feColorMatrix type="matrix" values="0 0 0 0 0 0 0 0 0 0 0 0 0 0 0 0 0 0 0.1 0"/>
<feBlend mode="normal" in2="effect1_dropShadow_2229_1298" result="effect2_dropShadow_2229_1298"/>
<feBlend mode="normal" in="SourceGraphic" in2="effect2_dropShadow_2229_1298" result="shape"/>
</filter>
<filter id="filter1_dd_2229_1298" x="43.9999" y="99" width="304" height="214" filterUnits="userSpaceOnUse" color-interpolation-filters="sRGB">
<feFlood flood-opacity="0" result="BackgroundImageFix"/>
<feColorMatrix in="SourceAlpha" type="matrix" values="0 0 0 0 0 0 0 0 0 0 0 0 0 0 0 0 0 0 127 0" result="hardAlpha"/>
<feMorphology radius="4" operator="erode" in="SourceAlpha" result="effect1_dropShadow_2229_1298"/>
<feOffset dy="4"/>
<feGaussianBlur stdDeviation="3"/>
<feComposite in2="hardAlpha" operator="out"/>
<feColorMatrix type="matrix" values="0 0 0 0 0 0 0 0 0 0 0 0 0 0 0 0 0 0 0.1 0"/>
<feBlend mode="normal" in2="BackgroundImageFix" result="effect1_dropShadow_2229_1298"/>
<feColorMatrix in="SourceAlpha" type="matrix" values="0 0 0 0 0 0 0 0 0 0 0 0 0 0 0 0 0 0 127 0" result="hardAlpha"/>
<feMorphology radius="3" operator="erode" in="SourceAlpha" result="effect2_dropShadow_2229_1298"/>
<feOffset dy="10"/>
<feGaussianBlur stdDeviation="7.5"/>
<feComposite in2="hardAlpha" operator="out"/>
<feColorMatrix type="matrix" values="0 0 0 0 0 0 0 0 0 0 0 0 0 0 0 0 0 0 0.1 0"/>
<feBlend mode="normal" in2="effect1_dropShadow_2229_1298" result="effect2_dropShadow_2229_1298"/>
<feBlend mode="normal" in="SourceGraphic" in2="effect2_dropShadow_2229_1298" result="shape"/>
</filter>
<clipPath id="clip0_2229_1298">
<path d="M55.9999 109C55.9999 104.582 59.5816 101 63.9999 101H328C332.418 101 336 104.582 336 109V283C336 287.418 332.418 291 328 291H63.9999C59.5816 291 55.9999 287.418 55.9999 283V109Z" fill="white"/>
</clipPath>
<clipPath id="clip1_2229_1298">
<rect width="16" height="16" fill="white" transform="translate(74.6399 139.64)"/>
</clipPath>
<clipPath id="clip2_2229_1298">
<rect width="216.72" height="16.25" fill="white" transform="translate(106.64 139.515)"/>
</clipPath>
<clipPath id="clip3_2229_1298">
<rect width="254.72" height="16.25" fill="white" transform="translate(68.6399 173.64)"/>
</clipPath>
<clipPath id="clip4_2229_1298">
<rect width="254.72" height="16.25" fill="white" transform="translate(68.6399 201.89)"/>
</clipPath>
<clipPath id="clip5_2229_1298">
<rect width="254.72" height="16.25" fill="white" transform="translate(68.6399 230.14)"/>
</clipPath>
<clipPath id="clip6_2229_1298">
<rect width="254.72" height="16.25" fill="white" transform="translate(68.6399 258.39)"/>
</clipPath>
</defs>
</svg>
