<svg xmlns="http://www.w3.org/2000/svg" width="379" height="378" fill="none" viewBox="0 0 379 378"><rect width="378" height="378" fill="#2f2d27" rx="6"/><mask id="a" fill="#fff"><path d="M34 39a9 9 0 0 1 9-9h335.25v30.07H34z"/></mask><path fill="#1b1913" d="M34 39a9 9 0 0 1 9-9h335.25v30.07H34z"/><path fill="#fff" fill-opacity=".06" d="M34 30h344.25zm344.25 31.07H34v-2h344.25zM34 60.07V30zM378.25 30v30.07z" mask="url(#a)"/><path fill="#edecec" fill-opacity=".2" d="M42 44.535a5 5 0 1 1 10 0 5 5 0 0 1-10 0m16 0a5 5 0 1 1 10 0 5 5 0 0 1-10 0m16 0a5 5 0 1 1 10 0 5 5 0 0 1-10 0"/><mask id="b" fill="#fff"><path d="M34 39a9 9 0 0 1 9-9h335.25v30.07H34z"/></mask><path fill="#1b1913" d="M34 39a9 9 0 0 1 9-9h335.25v30.07H34z"/><path fill="#fff" fill-opacity=".06" d="M34 30h344.25zm344.25 31.07H34v-2h344.25zM34 60.07V30zM378.25 30v30.07z" mask="url(#b)"/><path fill="#edecec" fill-opacity=".2" d="M42 44.535a5 5 0 1 1 10 0 5 5 0 0 1-10 0m16 0a5 5 0 1 1 10 0 5 5 0 0 1-10 0m16 0a5 5 0 1 1 10 0 5 5 0 0 1-10 0"/><path fill="#14120b" d="M34.25 60.175h344v287h-338a6 6 0 0 1-6-6z"/><path fill="#34c759" d="M61.586 87.27q-1.104 0-1.716-.491-.6-.504-.6-1.416h1.08q0 .456.324.72.324.252.912.252h.528q.6 0 .924-.264.336-.264.336-.744 0-.852-.78-.96l-1.824-.264q-.672-.096-1.044-.552-.372-.468-.372-1.224 0-.864.588-1.356.6-.492 1.644-.492h.528q.96 0 1.56.48.612.468.66 1.236h-1.092a.76.76 0 0 0-.336-.576q-.3-.228-.792-.228h-.528q-.552 0-.864.252a.83.83 0 0 0-.312.684q0 .696.636.792l1.704.24q1.68.24 1.68 1.968 0 .924-.612 1.44-.6.504-1.704.504zm7.46.025q-1.165 0-1.885-.696-.708-.708-.708-1.944v-1.56q0-1.236.708-1.932.72-.708 1.884-.708.78 0 1.356.312.588.312.912.876t.324 1.332v1.176H67.51v.624q0 .732.42 1.164.42.42 1.116.42.6 0 .984-.228.396-.24.48-.636h1.08q-.108.828-.804 1.32-.696.48-1.74.48m-1.537-3.984h3.072v-.336q0-.78-.408-1.2-.396-.432-1.128-.432t-1.14.432q-.396.42-.396 1.2zm8.828 3.984q-1.2 0-1.92-.672t-.72-1.848v-1.8q0-1.176.72-1.848t1.92-.672q1.14 0 1.836.612.708.612.744 1.668h-1.08q-.036-.636-.432-.972-.396-.348-1.068-.348-.708 0-1.14.408-.42.396-.42 1.14v1.812q0 .744.42 1.152.432.408 1.14.408.672 0 1.068-.348t.432-.972h1.08q-.036 1.056-.744 1.668-.696.612-1.836.612m7.087 0q-1.14 0-1.824-.672-.684-.684-.684-1.848v-4.2h1.08v4.2q0 .72.384 1.152.384.42 1.044.42.672 0 1.056-.42.396-.432.396-1.152v-4.2h1.08v4.2q0 1.164-.696 1.848-.696.672-1.836.672m4.951-.12v-6.6h1.08v1.26h.024q.084-.636.54-1.008t1.224-.372q1.032 0 1.584.624.564.612.564 1.752v.564h-1.08v-.564q0-1.44-1.404-1.44-.708 0-1.08.408t-.372 1.176v4.2zm6.872 0v-.984h2.34v-4.632h-2.1v-.984h3.18v5.616h2.22v.984zm2.76-7.788q-.396 0-.624-.204a.7.7 0 0 1-.228-.552q0-.36.228-.564.228-.216.624-.216t.624.216q.228.204.228.564a.7.7 0 0 1-.228.552q-.228.204-.624.204m7.675 7.788q-.816 0-1.308-.468-.492-.48-.492-1.272v-3.876h-1.896v-.984h1.896v-1.86h1.08v1.86h2.7v.984h-2.7v3.876a.8.8 0 0 0 .192.552.7.7 0 0 0 .528.204h1.92v.984zm5.071 2.16.972-2.568-2.46-6.192h1.164l1.56 4.08q.096.24.18.504t.12.456a4 4 0 0 1 .12-.456q.084-.264.168-.504l1.452-4.08h1.14l-3.288 8.76zm8.756-2.04q-1.2 0-1.896-.672t-.696-1.848v-3.96q0-1.176.696-1.848t1.896-.672q1.176 0 1.872.684.696.672.696 1.836h-1.08q0-.744-.396-1.14-.384-.408-1.092-.408t-1.116.408q-.396.396-.396 1.14v3.96q0 .744.396 1.152.408.396 1.116.396t1.092-.396q.396-.408.396-1.152h1.08q0 1.164-.696 1.848-.696.672-1.872.672m7.099-.024q-1.188 0-1.896-.696-.696-.696-.696-1.944v-1.512q0-1.26.696-1.944.696-.696 1.896-.696t1.896.696q.696.684.696 1.944v1.512q0 1.248-.708 1.944-.696.696-1.884.696m0-.96q.708 0 1.104-.396.408-.396.408-1.164v-1.752q0-.768-.408-1.164-.396-.396-1.104-.396-.696 0-1.104.396t-.408 1.164v1.752q0 .768.408 1.164t1.104.396m4.699.864v-6.6h1.08v1.26h.012q.084-.66.54-1.02t1.212-.36q.996 0 1.584.612t.588 1.668v4.44h-1.08v-4.248q0-.756-.384-1.152-.372-.408-1.02-.408-.672 0-1.068.42-.384.42-.384 1.188v4.2zm10.351 0q-.816 0-1.308-.468-.492-.48-.492-1.272v-3.876h-1.896v-.984h1.896v-1.86h1.08v1.86h2.7v.984h-2.7v3.876a.8.8 0 0 0 .192.552.7.7 0 0 0 .528.204h1.92v.984zm6.536.12q-1.164 0-1.884-.696-.708-.708-.708-1.944v-1.56q0-1.236.708-1.932.72-.708 1.884-.708.78 0 1.356.312.588.312.912.876t.324 1.332v1.176h-4.128v.624q0 .732.42 1.164.42.42 1.116.42.6 0 .984-.228.396-.24.48-.636h1.08q-.108.828-.804 1.32-.696.48-1.74.48m-1.536-3.984h3.072v-.336q0-.78-.408-1.2-.396-.432-1.128-.432t-1.14.432q-.396.42-.396 1.2zm5.731 3.864 2.34-3.396-2.196-3.204h1.272l1.308 2.04q.084.132.156.288.084.156.132.252.036-.096.108-.252.084-.156.168-.288l1.308-2.04h1.272l-2.196 3.216 2.328 3.384h-1.272l-1.416-2.16a3 3 0 0 1-.168-.3 3 3 0 0 0-.132-.288q-.048.108-.144.288a2 2 0 0 1-.18.3l-1.416 2.16zm10.855 0q-.816 0-1.308-.468-.492-.48-.492-1.272v-3.876h-1.896v-.984h1.896v-1.86h1.08v1.86h2.7v.984h-2.7v3.876a.8.8 0 0 0 .192.552.7.7 0 0 0 .528.204h1.92v.984zm6.536-4.944q-.492 0-.744-.24t-.252-.648.252-.648.744-.24.744.24.252.648-.252.648-.744.24m0 5.064q-.492 0-.744-.24t-.252-.648.252-.648.744-.24.744.24.252.648-.252.648-.744.24"/><path fill="#b392f0" d="M79.344 114v-6.6h1.08v1.26h.024q.084-.636.54-1.008t1.224-.372q1.032 0 1.584.624.564.612.564 1.752v.564h-1.08v-.564q0-1.44-1.404-1.44-.708 0-1.08.408t-.372 1.176v4.2zm9.44.12q-1.14 0-1.825-.672-.684-.684-.684-1.848v-4.2h1.08v4.2q0 .72.384 1.152.384.42 1.044.42.672 0 1.056-.42.396-.432.396-1.152v-4.2h1.08v4.2q0 1.164-.696 1.848-.696.672-1.836.672m4.71-.12v-6.6h1.08v1.26h.013q.084-.66.54-1.02t1.212-.36q.996 0 1.584.612t.588 1.668V114h-1.08v-4.248q0-.756-.384-1.152-.372-.408-1.02-.408-.672 0-1.068.42-.384.42-.384 1.188v4.2zm6.692 0 2.28-8.76h1.452l2.268 8.76h-1.092l-.576-2.328h-2.652L101.29 114zm1.896-3.24h2.208l-.672-2.7q-.192-.768-.3-1.284a17 17 0 0 1-.132-.672q-.024.156-.132.672a32 32 0 0 1-.3 1.272zm8.035 3.336q-1.104 0-1.716-.492-.6-.504-.6-1.416h1.08q0 .456.324.72.324.252.912.252h.528q.6 0 .924-.264.336-.264.336-.744 0-.852-.78-.96l-1.824-.264q-.672-.096-1.044-.552-.372-.468-.372-1.224 0-.864.588-1.356.6-.492 1.644-.492h.528q.96 0 1.56.48.612.468.66 1.236h-1.092a.76.76 0 0 0-.336-.576q-.3-.228-.792-.228h-.528q-.552 0-.864.252a.83.83 0 0 0-.312.684q0 .696.636.792l1.704.24q1.68.24 1.68 1.968 0 .924-.612 1.44-.6.504-1.704.504zm4.94-.096v-8.76h1.44l2.676 7.5-.06-.732-.048-.924a38 38 0 0 1-.012-.924v-4.92h1.044V114h-1.44l-2.664-7.5q.024.288.048.732.024.432.036.924.024.48.024.924V114zm9.715.096q-1.188 0-1.896-.696-.696-.696-.696-1.944v-1.512q0-1.26.696-1.944.696-.696 1.896-.696t1.896.696q.696.684.696 1.944v1.512q0 1.248-.708 1.944-.696.696-1.884.696m0-.96q.708 0 1.104-.396.408-.396.408-1.164v-1.752q0-.768-.408-1.164-.396-.396-1.104-.396-.696 0-1.104.396t-.408 1.164v1.752q0 .768.408 1.164t1.104.396m4.699.864v-6.6h1.08v1.26h.012q.084-.66.54-1.02t1.212-.36q.996 0 1.584.612t.588 1.668V114h-1.08v-4.248q0-.756-.384-1.152-.372-.408-1.02-.408-.672 0-1.068.42-.384.42-.384 1.188v4.2zm7.208 0v-8.76h2.7q.78 0 1.368.324.588.312.912.876t.324 1.32q0 .888-.456 1.524t-1.212.888l1.788 3.828h-1.188l-1.716-3.72h-1.452V114zm1.068-4.692h1.632q.672 0 1.08-.42.408-.432.408-1.128 0-.708-.408-1.128t-1.08-.42h-1.632zm8.611 4.788q-1.188 0-1.896-.696-.696-.696-.696-1.944v-1.512q0-1.26.696-1.944.696-.696 1.896-.696t1.896.696q.696.684.696 1.944v1.512q0 1.248-.708 1.944-.696.696-1.884.696m0-.96q.708 0 1.104-.396.408-.396.408-1.164v-1.752q0-.768-.408-1.164-.396-.396-1.104-.396-.696 0-1.104.396t-.408 1.164v1.752q0 .768.408 1.164t1.104.396m7.195.96q-1.188 0-1.896-.696-.696-.696-.696-1.944v-1.512q0-1.26.696-1.944.696-.696 1.896-.696t1.896.696q.696.684.696 1.944v1.512q0 1.248-.708 1.944-.696.696-1.884.696m0-.96q.708 0 1.104-.396.408-.396.408-1.164v-1.752q0-.768-.408-1.164-.396-.396-1.104-.396-.696 0-1.104.396t-.408 1.164v1.752q0 .768.408 1.164t1.104.396m7.855.864q-.816 0-1.308-.468-.492-.48-.492-1.272v-3.876h-1.896v-.984h1.896v-1.86h1.08v1.86h2.7v.984h-2.7v3.876a.8.8 0 0 0 .192.552.7.7 0 0 0 .528.204h1.92V114z"/><path fill="#d4d4d8" d="M167.944 109.056q-.492 0-.744-.24t-.252-.648.252-.648.744-.24.744.24.252.648-.252.648-.744.24m0 5.064q-.492 0-.744-.24t-.252-.648.252-.648.744-.24.744.24.252.648-.252.648-.744.24"/><path fill="#3fb950" d="M182.994 114q-.816 0-1.308-.468-.492-.48-.492-1.272v-3.876h-1.896v-.984h1.896v-1.86h1.08v1.86h2.7v.984h-2.7v3.876a.8.8 0 0 0 .192.552.7.7 0 0 0 .528.204h1.92V114zm4.28 0v-6.6h1.08v1.26h.024q.084-.636.54-1.008t1.224-.372q1.032 0 1.584.624.564.612.564 1.752v.564h-1.08v-.564q0-1.44-1.404-1.44-.708 0-1.08.408t-.372 1.176v4.2zm9.439.12q-1.14 0-1.824-.672-.684-.684-.684-1.848v-4.2h1.08v4.2q0 .72.384 1.152.384.42 1.044.42.672 0 1.056-.42.396-.432.396-1.152v-4.2h1.08v4.2q0 1.164-.696 1.848-.696.672-1.836.672m7.207 0q-1.164 0-1.884-.696-.708-.708-.708-1.944v-1.56q0-1.236.708-1.932.72-.708 1.884-.708.78 0 1.356.312.588.312.912.876t.324 1.332v1.176h-4.128v.624q0 .732.42 1.164.42.42 1.116.42.6 0 .984-.228.396-.24.48-.636h1.08q-.108.828-.804 1.32-.696.48-1.74.48m-1.536-3.984h3.072v-.336q0-.78-.408-1.2-.396-.432-1.128-.432t-1.14.432q-.396.42-.396 1.2z"/><path fill="#b392f0" d="M79.344 137v-6.6h1.08v1.26h.024q.084-.636.54-1.008t1.224-.372q1.032 0 1.584.624.564.612.564 1.752v.564h-1.08v-.564q0-1.44-1.404-1.44-.708 0-1.08.408t-.372 1.176v4.2zm9.44.12q-1.14 0-1.825-.672-.684-.684-.684-1.848v-4.2h1.08v4.2q0 .72.384 1.152.384.42 1.044.42.672 0 1.056-.42.396-.432.396-1.152v-4.2h1.08v4.2q0 1.164-.696 1.848-.696.672-1.836.672m4.71-.12v-6.6h1.08v1.26h.013q.084-.66.54-1.02t1.212-.36q.996 0 1.584.612t.588 1.668V137h-1.08v-4.248q0-.756-.384-1.152-.372-.408-1.02-.408-.672 0-1.068.42-.384.42-.384 1.188v4.2zm6.692 0 2.28-8.76h1.452l2.268 8.76h-1.092l-.576-2.328h-2.652L101.29 137zm1.896-3.24h2.208l-.672-2.7q-.192-.768-.3-1.284a17 17 0 0 1-.132-.672q-.024.156-.132.672a32 32 0 0 1-.3 1.272zm8.035 3.336q-1.104 0-1.716-.492-.6-.504-.6-1.416h1.08q0 .456.324.72.324.252.912.252h.528q.6 0 .924-.264.336-.264.336-.744 0-.852-.78-.96l-1.824-.264q-.672-.096-1.044-.552-.372-.468-.372-1.224 0-.864.588-1.356.6-.492 1.644-.492h.528q.96 0 1.56.48.612.468.66 1.236h-1.092a.76.76 0 0 0-.336-.576q-.3-.228-.792-.228h-.528q-.552 0-.864.252a.83.83 0 0 0-.312.684q0 .696.636.792l1.704.24q1.68.24 1.68 1.968 0 .924-.612 1.44-.6.504-1.704.504zm7.46.024q-1.224 0-1.872-.672-.648-.684-.648-1.848v-6.36h1.08v6.36q0 .72.348 1.14.36.42 1.092.42.72 0 1.08-.42t.36-1.14v-6.36h1.08v6.36q0 1.176-.648 1.848-.636.672-1.872.672m6.931-.024q-1.104 0-1.716-.492-.6-.504-.6-1.416h1.08q0 .456.324.72.324.252.912.252h.528q.6 0 .924-.264.336-.264.336-.744 0-.852-.78-.96l-1.824-.264q-.672-.096-1.044-.552-.372-.468-.372-1.224 0-.864.588-1.356.6-.492 1.644-.492h.528q.96 0 1.56.48.612.468.66 1.236h-1.092a.76.76 0 0 0-.336-.576q-.3-.228-.792-.228h-.528q-.552 0-.864.252a.83.83 0 0 0-.312.684q0 .696.636.792l1.704.24q1.68.24 1.68 1.968 0 .924-.612 1.44-.6.504-1.704.504zm7.459.024q-1.164 0-1.884-.696-.708-.708-.708-1.944v-1.56q0-1.236.708-1.932.72-.708 1.884-.708.78 0 1.356.312.588.312.912.876t.324 1.332v1.176h-4.128v.624q0 .732.42 1.164.42.42 1.116.42.6 0 .984-.228.396-.24.48-.636h1.08q-.108.828-.804 1.32-.696.48-1.74.48m-1.536-3.984h3.072v-.336q0-.78-.408-1.2-.396-.432-1.128-.432t-1.14.432q-.396.42-.396 1.2zm6.476 3.864v-6.6h1.08v1.26h.024q.084-.636.54-1.008t1.224-.372q1.032 0 1.584.624.564.612.564 1.752v.564h-1.08v-.564q0-1.44-1.404-1.44-.708 0-1.08.408t-.372 1.176v4.2z"/><path fill="#d4d4d8" d="M146.358 132.056q-.492 0-.744-.24t-.252-.648.252-.648.744-.24.744.24.252.648-.252.648-.744.24m0 5.064q-.492 0-.744-.24t-.252-.648.252-.648.744-.24.744.24.252.648-.252.648-.744.24"/><path fill="#3fb950" d="M160.76 137.12q-.84 0-1.488-.348a2.6 2.6 0 0 1-.996-.984q-.36-.636-.36-1.464 0-.576.216-1.176.216-.612.588-1.272l2.028-3.636h1.2l-2.16 3.756.036.024a.97.97 0 0 1 .468-.312q.312-.108.684-.108.78 0 1.356.348.588.336.912.936.336.6.336 1.392 0 .84-.36 1.488a2.6 2.6 0 0 1-.996.996q-.624.36-1.464.36m-.012-.96q.78 0 1.26-.516.492-.516.492-1.344t-.492-1.344q-.48-.516-1.26-.516t-1.272.516q-.48.516-.48 1.344t.48 1.344q.492.516 1.272.516m7.124.96q-1.212 0-1.92-.672-.708-.684-.708-1.848h1.08q0 .72.42 1.14t1.14.42 1.14-.42.42-1.14v-.54q0-.72-.408-1.14t-1.104-.42h-2.388v-4.26h4.668v.984h-3.66l.024 2.292h1.416q1.212 0 1.872.672.66.66.66 1.872v.54q0 1.164-.72 1.848-.708.672-1.932.672m7.195 0q-1.212 0-1.92-.672-.708-.684-.708-1.848h1.08q0 .72.42 1.14t1.14.42 1.14-.42.42-1.14v-.54q0-.72-.408-1.14t-1.104-.42h-2.388v-4.26h4.668v.984h-3.66l.024 2.292h1.416q1.212 0 1.872.672.66.66.66 1.872v.54q0 1.164-.72 1.848-.708.672-1.932.672m7.135 0q-1.212 0-1.92-.672-.708-.684-.708-1.848h1.08q0 .72.42 1.14t1.14.42 1.14-.42.42-1.14v-.6q0-.72-.42-1.14t-1.14-.42h-.948v-.936l2.148-2.28h-3.6v-.984h4.824v1.008l-2.112 2.244q1.08.084 1.704.756.624.66.624 1.752v.6q0 1.164-.72 1.848-.708.672-1.932.672m8.528-.12v-1.92h-3.96v-1.692l3.192-5.148h1.224l-3.336 5.388v.468h2.88v-2.136h1.08V137z"/><path fill="#b392f0" d="M79.344 160v-6.6h1.08v1.26h.024q.084-.636.54-1.008t1.224-.372q1.032 0 1.584.624.564.612.564 1.752v.564h-1.08v-.564q0-1.44-1.404-1.44-.708 0-1.08.408t-.372 1.176v4.2zm9.451.12q-1.164 0-1.884-.696-.708-.708-.708-1.944v-1.56q0-1.236.708-1.932.72-.708 1.884-.708.78 0 1.356.312.588.312.912.876t.324 1.332v1.176H87.26v.624q0 .732.42 1.164.42.42 1.116.42.6 0 .984-.228.396-.24.48-.636h1.08q-.108.828-.804 1.32-.696.48-1.74.48m-1.536-3.984h3.072v-.336q0-.78-.408-1.2-.396-.432-1.128-.432t-1.14.432q-.396.42-.396 1.2zm8.156 3.984q-1.02 0-1.62-.564-.6-.576-.6-1.5 0-.612.276-1.068t.768-.708a2.35 2.35 0 0 1 1.128-.264h2.04v-.516q0-1.284-1.404-1.284-.624 0-1.008.228t-.408.636h-1.08q.06-.78.72-1.284.672-.516 1.776-.516 1.2 0 1.836.576.648.576.648 1.608V160H97.42v-1.2h-.024a1.4 1.4 0 0 1-.612.972q-.516.348-1.368.348m.264-.912q.792 0 1.26-.384t.468-1.044v-.924h-1.92q-.528 0-.864.324-.324.312-.324.84 0 .552.36.876.372.312 1.02.312m7.123.912q-.984 0-1.584-.66-.588-.66-.588-1.788v-1.932q0-1.14.588-1.8t1.584-.66q.744 0 1.224.372.492.372.588 1.008h.012l-.024-1.5v-1.92h1.08V160h-1.08v-1.26h-.012q-.084.648-.564 1.02-.48.36-1.224.36m.36-.936q.672 0 1.056-.42t.384-1.164v-1.8q0-.744-.384-1.164t-1.056-.42q-.684 0-1.068.36-.384.348-.384 1.164v1.92q0 .804.384 1.164t1.068.36m7.219.936q-1.176 0-1.86-.684t-.684-1.956v-3.72q0-1.272.684-1.956t1.86-.684 1.86.684.684 1.944v3.732q0 1.272-.684 1.956t-1.86.684m0-.972q.708 0 1.08-.396.384-.408.384-1.152v-3.96q0-.744-.384-1.14-.372-.408-1.08-.408-.696 0-1.08.408-.384.396-.384 1.14v3.96q0 .744.384 1.152.384.396 1.08.396m4.7.852v-6.6h1.08v1.26h.012q.084-.66.54-1.02t1.212-.36q.996 0 1.584.612t.588 1.668V160h-1.08v-4.248q0-.756-.384-1.152-.372-.408-1.02-.408-.672 0-1.068.42-.384.42-.384 1.188v4.2zm10.651 0q-.876 0-1.404-.504-.516-.516-.516-1.356v-5.916h-2.28v-.984h3.36v6.9q0 .408.228.648.228.228.612.228h2.04V160zm4.771 2.16.972-2.568-2.46-6.192h1.164l1.56 4.08q.096.24.18.504t.12.456a4 4 0 0 1 .12-.456q.084-.264.168-.504l1.452-4.08h1.14l-3.288 8.76zm6.176-2.16v-8.76h2.7q.78 0 1.368.324.588.312.912.876t.324 1.32q0 .888-.456 1.524t-1.212.888l1.788 3.828h-1.188l-1.716-3.72h-1.452V160zm1.068-4.692h1.632q.672 0 1.08-.42.408-.432.408-1.128 0-.708-.408-1.128t-1.08-.42h-1.632zm8.611 4.788q-1.188 0-1.896-.696-.696-.696-.696-1.944v-1.512q0-1.26.696-1.944.696-.696 1.896-.696t1.896.696q.696.684.696 1.944v1.512q0 1.248-.708 1.944-.696.696-1.884.696m0-.96q.708 0 1.104-.396.408-.396.408-1.164v-1.752q0-.768-.408-1.164-.396-.396-1.104-.396-.696 0-1.104.396t-.408 1.164v1.752q0 .768.408 1.164t1.104.396m7.195.96q-1.188 0-1.896-.696-.696-.696-.696-1.944v-1.512q0-1.26.696-1.944.696-.696 1.896-.696t1.896.696q.696.684.696 1.944v1.512q0 1.248-.708 1.944-.696.696-1.884.696m0-.96q.708 0 1.104-.396.408-.396.408-1.164v-1.752q0-.768-.408-1.164-.396-.396-1.104-.396-.696 0-1.104.396t-.408 1.164v1.752q0 .768.408 1.164t1.104.396m7.855.864q-.816 0-1.308-.468-.492-.48-.492-1.272v-3.876h-1.896v-.984h1.896v-1.86h1.08v1.86h2.7v.984h-2.7v3.876a.8.8 0 0 0 .192.552.7.7 0 0 0 .528.204h1.92V160zm4.076 0v-8.76h5.16v.984h-4.104v2.904h3.792v.984h-3.768V160zm7.075 0v-.984h2.34v-4.632h-2.1v-.984h3.18v5.616h2.22V160zm2.76-7.788q-.396 0-.624-.204a.7.7 0 0 1-.228-.552q0-.36.228-.564.228-.216.624-.216t.624.216q.228.204.228.564a.7.7 0 0 1-.228.552q-.228.204-.624.204m7.975 7.788q-.876 0-1.404-.504-.516-.516-.516-1.356v-5.916h-2.28v-.984h3.36v6.9q0 .408.228.648.228.228.612.228h2.04V160zm6.236.12q-1.164 0-1.884-.696-.708-.708-.708-1.944v-1.56q0-1.236.708-1.932.72-.708 1.884-.708.78 0 1.356.312.588.312.912.876t.324 1.332v1.176h-4.128v.624q0 .732.42 1.164.42.42 1.116.42.6 0 .984-.228.396-.24.48-.636h1.08q-.108.828-.804 1.32-.696.48-1.74.48m-1.536-3.984h3.072v-.336q0-.78-.408-1.2-.396-.432-1.128-.432t-1.14.432q-.396.42-.396 1.2zm8.467 3.96q-1.104 0-1.716-.492-.6-.504-.6-1.416h1.08q0 .456.324.72.324.252.912.252h.528q.6 0 .924-.264.336-.264.336-.744 0-.852-.78-.96l-1.824-.264q-.672-.096-1.044-.552-.372-.468-.372-1.224 0-.864.588-1.356.6-.492 1.644-.492h.528q.96 0 1.56.48.612.468.66 1.236h-1.092a.76.76 0 0 0-.336-.576q-.3-.228-.792-.228h-.528q-.552 0-.864.252a.83.83 0 0 0-.312.684q0 .696.636.792l1.704.24q1.68.24 1.68 1.968 0 .924-.612 1.44-.6.504-1.704.504zm5.995 2.064.972-2.568-2.46-6.192h1.164l1.56 4.08q.096.24.18.504t.12.456a4 4 0 0 1 .12-.456q.084-.264.168-.504l1.452-4.08h1.14l-3.288 8.76zm8.396-2.064q-1.104 0-1.716-.492-.6-.504-.6-1.416h1.08q0 .456.324.72.324.252.912.252h.528q.6 0 .924-.264.336-.264.336-.744 0-.852-.78-.96l-1.824-.264q-.672-.096-1.044-.552-.372-.468-.372-1.224 0-.864.588-1.356.6-.492 1.644-.492h.528q.96 0 1.56.48.612.468.66 1.236h-1.092a.76.76 0 0 0-.336-.576q-.3-.228-.792-.228h-.528q-.552 0-.864.252a.83.83 0 0 0-.312.684q0 .696.636.792l1.704.24q1.68.24 1.68 1.968 0 .924-.612 1.44-.6.504-1.704.504zm8.119-.096q-.816 0-1.308-.468-.492-.48-.492-1.272v-3.876h-1.896v-.984h1.896v-1.86h1.08v1.86h2.7v.984h-2.7v3.876a.8.8 0 0 0 .192.552.7.7 0 0 0 .528.204h1.92V160zm6.535.12q-1.164 0-1.884-.696-.708-.708-.708-1.944v-1.56q0-1.236.708-1.932.72-.708 1.884-.708.78 0 1.356.312.588.312.912.876t.324 1.332v1.176h-4.128v.624q0 .732.42 1.164.42.42 1.116.42.6 0 .984-.228.396-.24.48-.636h1.08q-.108.828-.804 1.32-.696.48-1.74.48m-1.536-3.984h3.072v-.336q0-.78-.408-1.2-.396-.432-1.128-.432t-1.14.432q-.396.42-.396 1.2zm5.852 3.864v-6.6h.936v.876h.024q.06-.444.348-.72.3-.276.756-.276a1.1 1.1 0 0 1 .732.252q.3.252.432.684h.012q.084-.432.372-.684.3-.252.756-.252.636 0 1.008.48.384.468.384 1.224V160h-1.008v-5.028q0-.396-.192-.624a.64.64 0 0 0-.528-.24.64.64 0 0 0-.516.228q-.192.228-.192.624V160h-.888v-5.028q0-.396-.192-.624a.63.63 0 0 0-.516-.24q-.336 0-.528.228t-.192.624V160z"/><path fill="#d4d4d8" d="M239.897 155.056q-.492 0-.744-.24t-.252-.648.252-.648.744-.24.744.24.252.648-.252.648-.744.24m0 5.064q-.492 0-.744-.24t-.252-.648.252-.648.744-.24.744.24.252.648-.252.648-.744.24"/><path fill="#3fb950" d="M254.948 160q-.816 0-1.308-.468-.492-.48-.492-1.272v-3.876h-1.896v-.984h1.896v-1.86h1.08v1.86h2.7v.984h-2.7v3.876a.8.8 0 0 0 .192.552.7.7 0 0 0 .528.204h1.92V160zm4.279 0v-6.6h1.08v1.26h.024q.084-.636.54-1.008t1.224-.372q1.032 0 1.584.624.564.612.564 1.752v.564h-1.08v-.564q0-1.44-1.404-1.44-.708 0-1.08.408t-.372 1.176v4.2zm9.439.12q-1.14 0-1.824-.672-.684-.684-.684-1.848v-4.2h1.08v4.2q0 .72.384 1.152.384.42 1.044.42.672 0 1.056-.42.396-.432.396-1.152v-4.2h1.08v4.2q0 1.164-.696 1.848-.696.672-1.836.672m7.207 0q-1.164 0-1.884-.696-.708-.708-.708-1.944v-1.56q0-1.236.708-1.932.72-.708 1.884-.708.78 0 1.356.312.588.312.912.876t.324 1.332v1.176h-4.128v.624q0 .732.42 1.164.42.42 1.116.42.6 0 .984-.228.396-.24.48-.636h1.08q-.108.828-.804 1.32-.696.48-1.74.48m-1.536-3.984h3.072v-.336q0-.78-.408-1.2-.396-.432-1.128-.432t-1.14.432q-.396.42-.396 1.2z"/><path fill="#b392f0" d="M81.024 183.12q-1.02 0-1.62-.564-.6-.576-.6-1.5 0-.612.276-1.068t.768-.708a2.35 2.35 0 0 1 1.128-.264h2.04v-.516q0-1.284-1.404-1.284-.624 0-1.008.228t-.408.636h-1.08q.06-.78.72-1.284.672-.516 1.776-.516 1.2 0 1.836.576.648.576.648 1.608V183h-1.068v-1.2h-.024a1.4 1.4 0 0 1-.612.972q-.516.348-1.368.348m.264-.912q.792 0 1.26-.384t.468-1.044v-.924h-1.92q-.528 0-.864.324-.324.312-.324.84 0 .552.36.876.372.312 1.02.312m8.467.792q-.876 0-1.404-.504-.516-.516-.516-1.356v-5.916h-2.28v-.984h3.36v6.9q0 .408.228.648.228.228.612.228h2.04V183zm7.196 0q-.876 0-1.404-.504-.516-.516-.516-1.356v-5.916h-2.28v-.984h3.36v6.9q0 .408.228.648.228.228.612.228h2.04V183zm6.235.096q-1.188 0-1.896-.696-.696-.696-.696-1.944v-1.512q0-1.26.696-1.944.696-.696 1.896-.696t1.896.696q.696.684.696 1.944v1.512q0 1.248-.708 1.944-.696.696-1.884.696m0-.96q.708 0 1.104-.396.408-.396.408-1.164v-1.752q0-.768-.408-1.164-.396-.396-1.104-.396-.696 0-1.104.396t-.408 1.164v1.752q0 .768.408 1.164t1.104.396m5.047.864-1.08-6.6h.936l.672 4.656q.036.264.072.588.036.312.048.516.024-.204.048-.516.036-.324.084-.588l.828-4.656h1.08l.828 4.656q.048.264.084.588.048.312.06.516l.06-.516q.036-.324.072-.588l.696-4.656h.888l-1.128 6.6h-1.188l-.756-4.56q-.048-.336-.096-.708a27 27 0 0 0-.06-.588 10 10 0 0 1-.06.588q-.048.372-.108.708l-.792 4.56zm6.848 0v-8.76h2.82q1.224 0 1.944.708.732.696.732 1.872t-.732 1.884q-.72.696-1.944.696h-1.74v3.6zm1.08-4.572h1.74q.708 0 1.128-.432.432-.444.432-1.176 0-.744-.432-1.176-.42-.432-1.128-.432h-1.74zm6.355 4.572v-6.6h1.08v1.26h.024q.084-.636.54-1.008t1.224-.372q1.032 0 1.584.624.564.612.564 1.752v.564h-1.08v-.564q0-1.44-1.404-1.44-.708 0-1.08.408t-.372 1.176v4.2zm6.871 0v-.984h2.34v-4.632h-2.1v-.984h3.18v5.616h2.22V183zm2.76-7.788q-.396 0-.624-.204a.7.7 0 0 1-.228-.552q0-.36.228-.564.228-.216.624-.216t.624.216q.228.204.228.564a.7.7 0 0 1-.228.552q-.228.204-.624.204m6.308 7.788-2.244-6.6h1.164l1.44 4.44q.132.396.228.768.096.36.144.564.06-.204.144-.564.084-.372.204-.768l1.44-4.44h1.14l-2.244 6.6zm5.323 0v-.984h2.34v-4.632h-2.1v-.984h3.18v5.616h2.22V183zm2.76-7.788q-.396 0-.624-.204a.7.7 0 0 1-.228-.552q0-.36.228-.564.228-.216.624-.216t.624.216q.228.204.228.564a.7.7 0 0 1-.228.552q-.228.204-.624.204m7.975 7.788q-.876 0-1.404-.504-.516-.516-.516-1.356v-5.916h-2.28v-.984h3.36v6.9q0 .408.228.648.228.228.612.228h2.04V183zm6.235.12q-1.164 0-1.884-.696-.708-.708-.708-1.944v-1.56q0-1.236.708-1.932.72-.708 1.884-.708.78 0 1.356.312.588.312.912.876t.324 1.332v1.176h-4.128v.624q0 .732.42 1.164.42.42 1.116.42.6 0 .984-.228.396-.24.48-.636h1.08q-.108.828-.804 1.32-.696.48-1.74.48m-1.536-3.984h3.072v-.336q0-.78-.408-1.2-.396-.432-1.128-.432t-1.14.432q-.396.42-.396 1.2zm7.064 6.024v-.984h1.86q.564 0 .888-.324.324-.312.324-.852v-.6l.024-1.08h-.036a1.32 1.32 0 0 1-.564.912q-.468.312-1.176.312-1.02 0-1.608-.648t-.588-1.776v-1.392q0-1.128.588-1.788t1.608-.66q.708 0 1.176.336t.564.924h.024v-1.14h1.068v6.6q0 .996-.624 1.572-.612.588-1.68.588zm1.644-3.516q.672 0 1.056-.42t.384-1.164v-1.26q0-.744-.384-1.164t-1.056-.42q-.684 0-1.068.396-.372.396-.372 1.068v1.5q0 .672.372 1.068.384.396 1.068.396m7.219 1.476q-1.164 0-1.884-.696-.708-.708-.708-1.944v-1.56q0-1.236.708-1.932.72-.708 1.884-.708.78 0 1.356.312.588.312.912.876t.324 1.332v1.176h-4.128v.624q0 .732.42 1.164.42.42 1.116.42.6 0 .984-.228.396-.24.48-.636h1.08q-.108.828-.804 1.32-.696.48-1.74.48m-1.536-3.984h3.072v-.336q0-.78-.408-1.2-.396-.432-1.128-.432t-1.14.432q-.396.42-.396 1.2zm6.331 3.864v-8.76h5.04v.984h-3.972v2.712h3.552v.96h-3.552v3.12h3.972V183zm9.332.096q-1.104 0-1.716-.492-.6-.504-.6-1.416h1.08q0 .456.324.72.324.252.912.252h.528q.6 0 .924-.264.336-.264.336-.744 0-.852-.78-.96l-1.824-.264q-.672-.096-1.044-.552-.372-.468-.372-1.224 0-.864.588-1.356.6-.492 1.644-.492h.528q.96 0 1.56.48.612.468.66 1.236h-1.092a.76.76 0 0 0-.336-.576q-.3-.228-.792-.228h-.528q-.552 0-.864.252a.83.83 0 0 0-.312.684q0 .696.636.792l1.704.24q1.68.24 1.68 1.968 0 .924-.612 1.44-.6.504-1.704.504zm7.555.024q-1.2 0-1.92-.672t-.72-1.848v-1.8q0-1.176.72-1.848t1.92-.672q1.14 0 1.836.612.708.612.744 1.668h-1.08q-.036-.636-.432-.972-.396-.348-1.068-.348-.708 0-1.14.408-.42.396-.42 1.14v1.812q0 .744.42 1.152.432.408 1.14.408.672 0 1.068-.348t.432-.972h1.08q-.036 1.056-.744 1.668-.696.612-1.836.612m6.523 0q-1.02 0-1.62-.564-.6-.576-.6-1.5 0-.612.276-1.068t.768-.708a2.35 2.35 0 0 1 1.128-.264h2.04v-.516q0-1.284-1.404-1.284-.624 0-1.008.228t-.408.636h-1.08q.06-.78.72-1.284.672-.516 1.776-.516 1.2 0 1.836.576.648.576.648 1.608V183h-1.068v-1.2h-.024a1.4 1.4 0 0 1-.612.972q-.516.348-1.368.348m.264-.912q.792 0 1.26-.384t.468-1.044v-.924h-1.92q-.528 0-.864.324-.324.312-.324.84 0 .552.36.876.372.312 1.02.312m8.468.792q-.876 0-1.404-.504-.516-.516-.516-1.356v-5.916h-2.28v-.984h3.36v6.9q0 .408.228.648.228.228.612.228h2.04V183zm5.659.12q-1.02 0-1.62-.564-.6-.576-.6-1.5 0-.612.276-1.068t.768-.708a2.35 2.35 0 0 1 1.128-.264h2.04v-.516q0-1.284-1.404-1.284-.624 0-1.008.228t-.408.636h-1.08q.06-.78.72-1.284.672-.516 1.776-.516 1.2 0 1.836.576.648.576.648 1.608V183h-1.068v-1.2h-.024a1.4 1.4 0 0 1-.612.972q-.516.348-1.368.348m.264-.912q.792 0 1.26-.384t.468-1.044v-.924h-1.92q-.528 0-.864.324-.324.312-.324.84 0 .552.36.876.372.312 1.02.312m8.167.792q-.816 0-1.308-.468-.492-.48-.492-1.272v-3.876h-1.896v-.984h1.896v-1.86h1.08v1.86h2.7v.984h-2.7v3.876a.8.8 0 0 0 .192.552.7.7 0 0 0 .528.204h1.92V183zm3.956 0v-.984h2.34v-4.632h-2.1v-.984h3.18v5.616h2.22V183zm2.76-7.788q-.396 0-.624-.204a.7.7 0 0 1-.228-.552q0-.36.228-.564.228-.216.624-.216t.624.216q.228.204.228.564a.7.7 0 0 1-.228.552q-.228.204-.624.204m7.015 7.884q-1.188 0-1.896-.696-.696-.696-.696-1.944v-1.512q0-1.26.696-1.944.696-.696 1.896-.696t1.896.696q.696.684.696 1.944v1.512q0 1.248-.708 1.944-.696.696-1.884.696m0-.96q.708 0 1.104-.396.408-.396.408-1.164v-1.752q0-.768-.408-1.164-.396-.396-1.104-.396-.696 0-1.104.396t-.408 1.164v1.752q0 .768.408 1.164t1.104.396m4.699.864v-6.6h1.08v1.26h.012q.084-.66.54-1.02t1.212-.36q.996 0 1.584.612t.588 1.668V183h-1.08v-4.248q0-.756-.384-1.152-.372-.408-1.02-.408-.672 0-1.068.42-.384.42-.384 1.188v4.2z"/><path fill="#d4d4d8" d="M254.288 178.056q-.492 0-.744-.24t-.252-.648.252-.648.744-.24.744.24.252.648-.252.648-.744.24m0 5.064q-.492 0-.744-.24t-.252-.648.252-.648.744-.24.744.24.252.648-.252.648-.744.24"/><path fill="#3fb950" d="M267.658 183v-4.716h-1.92v-.984h1.92v-1.38q0-.78.492-1.224.492-.456 1.356-.456h1.932v.984h-1.932q-.768 0-.768.696v1.38h2.7v.984h-2.7V183zm7.639.12q-1.02 0-1.62-.564-.6-.576-.6-1.5 0-.612.276-1.068t.768-.708a2.35 2.35 0 0 1 1.128-.264h2.04v-.516q0-1.284-1.404-1.284-.624 0-1.008.228t-.408.636h-1.08q.06-.78.72-1.284.672-.516 1.776-.516 1.2 0 1.836.576.648.576.648 1.608V183h-1.068v-1.2h-.024a1.4 1.4 0 0 1-.612.972q-.516.348-1.368.348m.264-.912q.792 0 1.26-.384t.468-1.044v-.924h-1.92q-.528 0-.864.324-.324.312-.324.84 0 .552.36.876.372.312 1.02.312m8.468.792q-.876 0-1.404-.504-.516-.516-.516-1.356v-5.916h-2.28v-.984h3.36v6.9q0 .408.228.648.228.228.612.228h2.04V183zm5.971.096q-1.104 0-1.716-.492-.6-.504-.6-1.416h1.08q0 .456.324.72.324.252.912.252h.528q.6 0 .924-.264.336-.264.336-.744 0-.852-.78-.96l-1.824-.264q-.672-.096-1.044-.552-.372-.468-.372-1.224 0-.864.588-1.356.6-.492 1.644-.492h.528q.96 0 1.56.48.612.468.66 1.236h-1.092a.76.76 0 0 0-.336-.576q-.3-.228-.792-.228H290q-.552 0-.864.252a.83.83 0 0 0-.312.684q0 .696.636.792l1.704.24q1.68.24 1.68 1.968 0 .924-.612 1.44-.6.504-1.704.504zm7.459.024q-1.164 0-1.884-.696-.708-.708-.708-1.944v-1.56q0-1.236.708-1.932.72-.708 1.884-.708.78 0 1.356.312.588.312.912.876t.324 1.332v1.176h-4.128v.624q0 .732.42 1.164.42.42 1.116.42.6 0 .984-.228.396-.24.48-.636h1.08q-.108.828-.804 1.32-.696.48-1.74.48m-1.536-3.984h3.072v-.336q0-.78-.408-1.2-.396-.432-1.128-.432t-1.14.432q-.396.42-.396 1.2z"/><path fill="#34c759" d="M81.696 206.12q-1.2 0-1.92-.672t-.72-1.848v-1.8q0-1.176.72-1.848t1.92-.672q1.14 0 1.836.612.708.612.744 1.668h-1.08q-.036-.636-.432-.972-.396-.348-1.068-.348-.708 0-1.14.408-.42.396-.42 1.14v1.812q0 .744.42 1.152.432.408 1.14.408.672 0 1.068-.348t.432-.972h1.08q-.036 1.056-.744 1.668-.696.612-1.836.612m6.523 0q-1.02 0-1.62-.564-.6-.576-.6-1.5 0-.612.276-1.068t.768-.708a2.35 2.35 0 0 1 1.128-.264h2.04v-.516q0-1.284-1.404-1.284-.624 0-1.008.228t-.408.636h-1.08q.06-.78.72-1.284.672-.516 1.776-.516 1.2 0 1.836.576.648.576.648 1.608V206h-1.068v-1.2H90.2a1.4 1.4 0 0 1-.612.972q-.516.348-1.368.348m.264-.912q.792 0 1.26-.384t.468-1.044v-.924h-1.92q-.528 0-.864.324-.324.312-.324.84 0 .552.36.876.372.312 1.02.312m5.012 2.952v-8.76h1.08v1.26h.012q.084-.648.564-1.008.48-.372 1.224-.372.996 0 1.584.66.588.648.588 1.788v1.932q0 1.14-.588 1.8t-1.584.66q-.744 0-1.224-.372a1.47 1.47 0 0 1-.564-1.008h-.036l.024 1.5v1.92zm2.52-2.976q.684 0 1.068-.36t.384-1.164v-1.92q0-.816-.384-1.164-.384-.36-1.068-.36-.66 0-1.056.42-.384.42-.384 1.164v1.8q0 .744.384 1.164.396.42 1.056.42m6.595.936q-1.02 0-1.62-.564-.6-.576-.6-1.5 0-.612.276-1.068t.768-.708a2.35 2.35 0 0 1 1.128-.264h2.04v-.516q0-1.284-1.404-1.284-.624 0-1.008.228t-.408.636h-1.08q.06-.78.72-1.284.672-.516 1.776-.516 1.2 0 1.836.576.648.576.648 1.608V206h-1.068v-1.2h-.024a1.4 1.4 0 0 1-.612.972q-.516.348-1.368.348m.264-.912q.792 0 1.26-.384t.468-1.044v-.924h-1.92q-.528 0-.864.324-.324.312-.324.84 0 .552.36.876.372.312 1.02.312m7.891.912q-.744 0-1.224-.36-.48-.372-.564-1.02h-.012V206h-1.08v-8.76h1.08v1.92l-.024 1.5h.012q.096-.636.576-1.008.492-.372 1.236-.372.996 0 1.584.66t.588 1.8v1.932q0 1.128-.588 1.788t-1.584.66m-.36-.936q.684 0 1.068-.36t.384-1.164v-1.92q0-.816-.384-1.164-.384-.36-1.068-.36-.66 0-1.056.42-.384.42-.384 1.164v1.8q0 .744.384 1.164.396.42 1.056.42m4.592.816v-.984h2.34v-4.632h-2.1v-.984h3.18v5.616h2.22V206zm2.76-7.788q-.396 0-.624-.204a.7.7 0 0 1-.228-.552q0-.36.228-.564.228-.216.624-.216t.624.216q.228.204.228.564a.7.7 0 0 1-.228.552q-.228.204-.624.204m7.975 7.788q-.876 0-1.404-.504-.516-.516-.516-1.356v-5.916h-2.28v-.984h3.36v6.9q0 .408.228.648.228.228.612.228h2.04V206zm3.655 0v-.984h2.34v-4.632h-2.1v-.984h3.18v5.616h2.22V206zm2.76-7.788q-.396 0-.624-.204a.7.7 0 0 1-.228-.552q0-.36.228-.564.228-.216.624-.216t.624.216q.228.204.228.564a.7.7 0 0 1-.228.552q-.228.204-.624.204m7.676 7.788q-.816 0-1.308-.468-.492-.48-.492-1.272v-3.876h-1.896v-.984h1.896v-1.86h1.08v1.86h2.7v.984h-2.7v3.876a.8.8 0 0 0 .192.552.7.7 0 0 0 .528.204h1.92V206zm3.955 0v-.984h2.34v-4.632h-2.1v-.984h3.18v5.616h2.22V206zm2.76-7.788q-.396 0-.624-.204a.7.7 0 0 1-.228-.552q0-.36.228-.564.228-.216.624-.216t.624.216q.228.204.228.564a.7.7 0 0 1-.228.552q-.228.204-.624.204m7.015 7.908q-1.164 0-1.884-.696-.708-.708-.708-1.944v-1.56q0-1.236.708-1.932.72-.708 1.884-.708.78 0 1.356.312.588.312.912.876t.324 1.332v1.176h-4.128v.624q0 .732.42 1.164.42.42 1.116.42.6 0 .984-.228.396-.24.48-.636h1.08q-.108.828-.804 1.32-.696.48-1.74.48m-1.536-3.984h3.072v-.336q0-.78-.408-1.2-.396-.432-1.128-.432t-1.14.432q-.396.42-.396 1.2zm8.467 3.96q-1.104 0-1.716-.492-.6-.504-.6-1.416h1.08q0 .456.324.72.324.252.912.252h.528q.6 0 .924-.264.336-.264.336-.744 0-.852-.78-.96l-1.824-.264q-.672-.096-1.044-.552-.372-.468-.372-1.224 0-.864.588-1.356.6-.492 1.644-.492h.528q.96 0 1.56.48.612.468.66 1.236h-1.092a.76.76 0 0 0-.336-.576q-.3-.228-.792-.228h-.528q-.552 0-.864.252a.83.83 0 0 0-.312.684q0 .696.636.792l1.704.24q1.68.24 1.68 1.968 0 .924-.612 1.44-.6.504-1.704.504zm7.46-5.04q-.492 0-.744-.24t-.252-.648.252-.648.744-.24.744.24.252.648-.252.648-.744.24m0 5.064q-.492 0-.744-.24t-.252-.648.252-.648.744-.24.744.24.252.648-.252.648-.744.24"/><path fill="#b392f0" d="M99.216 229.12q-.984 0-1.584-.66-.588-.66-.588-1.788v-1.932q0-1.14.588-1.8t1.584-.66q.744 0 1.224.372.492.372.588 1.008h.012l-.024-1.5v-1.92h1.08V229h-1.08v-1.26h-.012q-.084.648-.564 1.02-.48.36-1.224.36m.36-.936q.672 0 1.056-.42t.384-1.164v-1.8q0-.744-.384-1.164t-1.056-.42q-.684 0-1.068.36-.384.348-.384 1.164v1.92q0 .804.384 1.164t1.068.36m4.963.816v-6.6h1.08v1.26h.024q.084-.636.54-1.008t1.224-.372q1.032 0 1.584.624.564.612.564 1.752v.564h-1.08v-.564q0-1.44-1.404-1.44-.708 0-1.08.408t-.372 1.176v4.2zm9.452.096q-1.188 0-1.896-.696-.696-.696-.696-1.944v-1.512q0-1.26.696-1.944.696-.696 1.896-.696t1.896.696q.696.684.696 1.944v1.512q0 1.248-.708 1.944-.696.696-1.884.696m0-.96q.708 0 1.104-.396.408-.396.408-1.164v-1.752q0-.768-.408-1.164-.396-.396-1.104-.396-.696 0-1.104.396t-.408 1.164v1.752q0 .768.408 1.164t1.104.396m4.699 3.024v-8.76h1.08v1.26h.012q.084-.648.564-1.008.48-.372 1.224-.372.996 0 1.584.66.588.648.588 1.788v1.932q0 1.14-.588 1.8t-1.584.66q-.744 0-1.224-.372a1.47 1.47 0 0 1-.564-1.008h-.036l.024 1.5v1.92zm2.52-2.976q.684 0 1.068-.36t.384-1.164v-1.92q0-.816-.384-1.164-.384-.36-1.068-.36-.66 0-1.056.42-.384.42-.384 1.164v1.8q0 .744.384 1.164.396.42 1.056.42"/><path fill="#d4d4d8" d="M128.381 224.056q-.492 0-.744-.24t-.252-.648.252-.648.744-.24.744.24.252.648-.252.648-.744.24m0 5.064q-.492 0-.744-.24t-.252-.648.252-.648.744-.24.744.24.252.648-.252.648-.744.24m13.251 1.2v-11.28h2.94v.96h-1.86v9.36h1.86v.96zm42.512 0v-.96h1.86V220h-1.86v-.96h2.94v11.28z"/><path fill="#f97583" d="m148.179 223.84-.096-3.6h1.224l-.084 3.6zm2.544 0-.096-3.6h1.224l-.084 3.6zm3.44 5.16 2.28-8.76h1.452l2.268 8.76h-1.092l-.576-2.328h-2.652l-.576 2.328zm1.896-3.24h2.208l-.672-2.7q-.192-.768-.3-1.284a17 17 0 0 1-.132-.672q-.024.156-.132.672t-.301 1.272zm6.259 3.24v-8.76h1.08v7.776h3.96V229zm7.195 0v-8.76h1.08v7.776h3.96V229zm7.447-5.16-.096-3.6h1.224l-.084 3.6zm2.544 0-.096-3.6h1.224l-.084 3.6z"/><path fill="#6b6b70" fill-opacity=".2" d="M58.25 251.906v-.667h11.175v.667zm11.173 0v-.667h11.175v.667zm11.173 0v-.667h11.175v.667zm11.174 0v-.667h11.174v.667zm11.173 0v-.667h11.174v.667zm11.173 0v-.667h11.175v.667zm11.173 0v-.667h11.175v.667zm11.173 0v-.667h11.175v.667zm11.174 0v-.667h11.174v.667zm11.173 0v-.667h11.175v.667zm11.173 0v-.667h11.175v.667zm11.173 0v-.667h11.175v.667zm11.173 0v-.667h11.175v.667zm11.174 0v-.667h11.174v.667zm11.173 0v-.667h11.175v.667zm11.173 0v-.667h11.175v.667zm11.173 0v-.667h11.175v.667zm11.173 0v-.667h11.175v.667zm11.174 0v-.667h11.174v.667zm11.173 0v-.667h11.175v.667zm11.173 0v-.667h11.175v.667zm11.173 0v-.667h11.175v.667zm11.174 0v-.667h11.174v.667zm11.173 0v-.667h11.174v.667zm11.173 0v-.667h11.175v.667z"/><path fill="#05df72" d="m59.546 281.062.647-.664 2.25 2.216 4.654-4.637.664.665-5.318 5.301z"/><path fill="#d4d4d8" d="M80.173 276.273V285H79.15l-4.756-6.852h-.085V285h-1.057v-8.727h1.023l4.773 6.869h.085v-6.869zm4.637 8.863q-.886 0-1.555-.422a2.86 2.86 0 0 1-1.04-1.18q-.37-.759-.37-1.773 0-1.022.37-1.785.374-.764 1.04-1.185.669-.422 1.555-.422t1.551.422q.67.421 1.04 1.185.375.763.375 1.785 0 1.014-.375 1.773a2.8 2.8 0 0 1-1.04 1.18q-.665.423-1.551.422m0-.903q.673 0 1.108-.345t.643-.908q.21-.562.21-1.219 0-.656-.21-1.223a2.07 2.07 0 0 0-.643-.916q-.435-.35-1.108-.349-.673 0-1.108.349-.435.35-.643.916-.21.567-.21 1.223t.21 1.219.643.908 1.108.345m7.876.767v-6.545h.972v.988h.068q.18-.486.648-.788a1.9 1.9 0 0 1 1.056-.303 11 11 0 0 1 .529.017v1.023a3 3 0 0 0-.235-.038q-.178-.03-.379-.03-.477 0-.852.2a1.47 1.47 0 0 0-.801 1.334V285zm6.925.136q-.887 0-1.556-.422a2.86 2.86 0 0 1-1.04-1.18q-.37-.759-.37-1.773 0-1.022.37-1.785.375-.764 1.04-1.185.67-.422 1.556-.422t1.551.422q.67.421 1.04 1.185.375.763.375 1.785 0 1.014-.375 1.773a2.8 2.8 0 0 1-1.04 1.18q-.664.423-1.551.422m0-.903q.673 0 1.108-.345t.643-.908a3.5 3.5 0 0 0 .209-1.219q0-.656-.209-1.223a2.06 2.06 0 0 0-.643-.916q-.435-.35-1.108-.349-.674 0-1.108.349-.434.35-.644.916-.208.567-.208 1.223t.208 1.219.644.908q.435.345 1.108.345m7.16.903q-.886 0-1.555-.422a2.86 2.86 0 0 1-1.04-1.18q-.37-.759-.371-1.773 0-1.022.371-1.785.375-.764 1.04-1.185.669-.422 1.555-.422t1.551.422q.67.421 1.04 1.185.375.763.375 1.785 0 1.014-.375 1.773a2.8 2.8 0 0 1-1.04 1.18q-.665.423-1.551.422m0-.903q.673 0 1.108-.345t.643-.908q.21-.562.209-1.219 0-.656-.209-1.223a2.06 2.06 0 0 0-.643-.916q-.435-.35-1.108-.349-.673 0-1.108.349-.435.35-.643.916-.21.567-.209 1.223 0 .657.209 1.219.208.563.643.908t1.108.345m7.348-5.778v.852h-3.392v-.852zm-2.404-1.569h1.006v6.239q0 .426.123.639a.65.65 0 0 0 .324.281q.2.069.422.069.166 0 .273-.017l.17-.035.205.904a2.2 2.2 0 0 1-.75.119q-.427 0-.835-.183a1.66 1.66 0 0 1-.674-.558q-.264-.375-.264-.946zm9.218 8.267q-.623 0-1.13-.234a1.94 1.94 0 0 1-.805-.686q-.298-.452-.298-1.091 0-.562.221-.912.222-.353.592-.554.371-.2.819-.298.451-.102.907-.162.597-.077.968-.115.374-.043.545-.141.175-.098.175-.341v-.034q0-.63-.345-.98-.342-.35-1.036-.349-.72 0-1.129.315t-.575.673l-.955-.341q.256-.596.682-.929.43-.336.937-.468a4 4 0 0 1 1.006-.137q.315 0 .725.077.413.072.796.303.388.23.644.694.256.465.256 1.245V285h-1.006v-.886h-.051a1.8 1.8 0 0 1-.341.456 2 2 0 0 1-.635.413q-.397.17-.967.17m.153-.903q.597 0 1.006-.234.413-.235.622-.605.213-.372.213-.78v-.921q-.065.076-.281.141-.213.06-.495.106a21 21 0 0 1-.963.128 4 4 0 0 0-.733.166 1.26 1.26 0 0 0-.545.337q-.205.221-.205.605 0 .525.388.793.391.264.993.264m7.341.886q-.92 0-1.585-.434a2.84 2.84 0 0 1-1.023-1.198q-.358-.762-.358-1.743 0-.996.367-1.76.37-.767 1.031-1.197.664-.435 1.551-.435.69 0 1.244.256.554.255.908.716t.439 1.074h-1.006a1.55 1.55 0 0 0-.511-.793q-.392-.35-1.057-.349-.588 0-1.031.307a2 2 0 0 0-.686.856q-.243.55-.243 1.291 0 .759.239 1.321.243.562.681.874.444.31 1.04.311.393 0 .712-.136.32-.137.541-.392.222-.256.315-.614h1.006a2.33 2.33 0 0 1-1.304 1.777q-.546.268-1.27.268m6.703 0q-.92 0-1.585-.434a2.84 2.84 0 0 1-1.023-1.198q-.358-.762-.358-1.743 0-.996.367-1.76.37-.767 1.031-1.197.665-.435 1.551-.435.69 0 1.245.256.553.255.907.716t.439 1.074h-1.005a1.56 1.56 0 0 0-.512-.793q-.391-.35-1.057-.349-.588 0-1.031.307a2 2 0 0 0-.686.856q-.243.55-.243 1.291 0 .759.239 1.321.243.562.682.874.443.31 1.039.311.393 0 .712-.136.32-.137.541-.392.222-.256.316-.614h1.005a2.33 2.33 0 0 1-1.304 1.777q-.545.268-1.27.268m6.789 0q-.947 0-1.632-.417a2.8 2.8 0 0 1-1.053-1.176q-.366-.759-.366-1.765t.366-1.772a2.9 2.9 0 0 1 1.031-1.202q.665-.435 1.551-.435.512 0 1.01.171.499.17.908.554.41.38.652 1.005.243.627.243 1.543v.426h-5.046v-.869h4.023q0-.554-.221-.989a1.67 1.67 0 0 0-.623-.686 1.75 1.75 0 0 0-.946-.251q-.6 0-1.039.298a1.96 1.96 0 0 0-.669.767 2.24 2.24 0 0 0-.235 1.014v.58q0 .741.256 1.257.26.512.72.78.46.264 1.07.264.396 0 .716-.111.323-.115.558-.341.234-.23.362-.571l.972.273a2.2 2.2 0 0 1-.516.869q-.362.371-.895.58a3.3 3.3 0 0 1-1.197.204m8.876-5.216-.903.256a1.7 1.7 0 0 0-.252-.439 1.2 1.2 0 0 0-.443-.358q-.28-.14-.72-.14-.6 0-1.002.277-.396.272-.396.694 0 .375.273.593.273.216.852.362l.972.238q.877.214 1.308.652.43.435.43 1.121 0 .562-.323 1.006a2.17 2.17 0 0 1-.895.699q-.576.255-1.338.255-1.002 0-1.658-.434-.657-.435-.831-1.27l.955-.239q.135.529.515.793.384.264 1.002.264.702 0 1.116-.298.417-.303.418-.725a.76.76 0 0 0-.239-.571q-.238-.234-.733-.349l-1.091-.256q-.899-.213-1.321-.66-.417-.452-.417-1.13 0-.554.311-.98.315-.426.856-.669a3 3 0 0 1 1.236-.243q.972 0 1.525.426a2.3 2.3 0 0 1 .793 1.125m6.27 0-.904.256a1.7 1.7 0 0 0-.251-.439 1.2 1.2 0 0 0-.443-.358q-.282-.14-.721-.14-.6 0-1.001.277-.396.272-.396.694 0 .375.272.593.273.216.853.362l.971.238q.879.214 1.309.652.43.435.43 1.121 0 .562-.324 1.006a2.15 2.15 0 0 1-.895.699q-.575.255-1.338.255-1 0-1.658-.434-.656-.435-.831-1.27l.955-.239q.137.529.516.793.383.264 1.001.264.703 0 1.117-.298.417-.303.417-.725a.76.76 0 0 0-.238-.571q-.24-.234-.733-.349l-1.091-.256q-.9-.213-1.321-.66-.418-.452-.418-1.13 0-.554.311-.98.315-.426.857-.669a3 3 0 0 1 1.235-.243q.972 0 1.526.426.558.428.793 1.125"/><path fill="#05df72" d="m59.546 300.062.647-.664 2.25 2.216 4.654-4.637.664.665-5.318 5.301z"/><path fill="#d4d4d8" d="M80.173 295.273V304H79.15l-4.756-6.852h-.085V304h-1.057v-8.727h1.023l4.773 6.869h.085v-6.869zm4.637 8.863q-.886 0-1.555-.422a2.86 2.86 0 0 1-1.04-1.18q-.37-.759-.37-1.773 0-1.022.37-1.785.374-.764 1.04-1.185.669-.422 1.555-.422t1.551.422q.67.421 1.04 1.185.375.763.375 1.785 0 1.014-.375 1.773a2.8 2.8 0 0 1-1.04 1.18q-.665.423-1.551.422m0-.903q.673 0 1.108-.345t.643-.908q.21-.562.21-1.219 0-.656-.21-1.223a2.07 2.07 0 0 0-.643-.916q-.435-.35-1.108-.349-.673 0-1.108.349-.435.35-.643.916-.21.567-.21 1.223t.21 1.219.643.908 1.108.345m7.876 3.222v-9h.972v1.039h.119q.11-.17.307-.434a1.8 1.8 0 0 1 .57-.478q.375-.213 1.015-.213.827 0 1.457.414.63.413.985 1.172.353.758.353 1.789 0 1.04-.353 1.803-.354.759-.98 1.176-.627.414-1.445.413-.63 0-1.01-.208a1.9 1.9 0 0 1-.584-.482 6 6 0 0 1-.315-.452h-.085v3.461zm.989-5.728q0 .742.217 1.309.218.562.635.882.418.315 1.023.315.63 0 1.052-.332.426-.337.64-.904.216-.571.217-1.27 0-.69-.213-1.244a1.9 1.9 0 0 0-.635-.882q-.422-.328-1.061-.328-.614 0-1.031.311a1.86 1.86 0 0 0-.631.861q-.213.55-.213 1.282M99.999 304v-6.545h.971v.988h.068q.18-.486.648-.788a1.9 1.9 0 0 1 1.057-.303 11 11 0 0 1 .528.017v1.023a3 3 0 0 0-.234-.038 2.3 2.3 0 0 0-.379-.03q-.478 0-.853.2a1.47 1.47 0 0 0-.801 1.334V304zm4.464 0v-6.545h1.006V304zm.512-7.636a.7.7 0 0 1-.507-.201.64.64 0 0 1-.209-.481q0-.282.209-.482a.72.72 0 0 1 .507-.2q.293 0 .503.2a.64.64 0 0 1 .213.482.64.64 0 0 1-.213.481.7.7 0 0 1-.503.201m7.688 1.091-2.42 6.545h-1.023l-2.42-6.545h1.091l1.806 5.215h.069l1.806-5.215zm1.328 6.545v-6.545h1.005V304zm.511-7.636a.7.7 0 0 1-.507-.201.64.64 0 0 1-.209-.481q0-.282.209-.482a.72.72 0 0 1 .507-.2q.294 0 .503.2a.64.64 0 0 1 .213.482.64.64 0 0 1-.213.481.7.7 0 0 1-.503.201m3.342-1.091V304h-1.006v-8.727zm4.586 8.863q-.945 0-1.632-.417a2.8 2.8 0 0 1-1.052-1.176q-.367-.759-.367-1.765t.367-1.772a2.9 2.9 0 0 1 1.031-1.202q.664-.435 1.551-.435.512 0 1.01.171.498.17.908.554.408.38.652 1.005.243.627.243 1.543v.426h-5.046v-.869h4.023q0-.554-.222-.989a1.67 1.67 0 0 0-.622-.686 1.75 1.75 0 0 0-.946-.251q-.6 0-1.04.298a2 2 0 0 0-.669.767 2.25 2.25 0 0 0-.234 1.014v.58q0 .741.256 1.257.26.512.72.78a2.1 2.1 0 0 0 1.069.264q.397 0 .716-.111a1.5 1.5 0 0 0 .559-.341q.234-.23.362-.571l.971.273a2.16 2.16 0 0 1-.515.869 2.5 2.5 0 0 1-.895.58 3.3 3.3 0 0 1-1.198.204m6.882 2.455q-.728 0-1.252-.188a2.7 2.7 0 0 1-.874-.485 2.7 2.7 0 0 1-.55-.64l.802-.562q.135.179.345.409.208.234.571.405.367.175.958.175.793 0 1.309-.384.515-.383.515-1.202v-1.329h-.085a6 6 0 0 1-.315.443 1.8 1.8 0 0 1-.58.464q-.375.201-1.014.201a2.73 2.73 0 0 1-1.423-.375 2.63 2.63 0 0 1-.993-1.091q-.363-.716-.362-1.739 0-1.005.353-1.751.354-.75.985-1.159.63-.414 1.457-.414.639 0 1.014.213.38.21.58.478.204.264.315.434h.102v-1.039h.972v6.733q0 .843-.383 1.372a2.2 2.2 0 0 1-1.023.779 3.9 3.9 0 0 1-1.424.252m-.034-3.597q.606 0 1.023-.277.418-.276.635-.797.217-.52.217-1.244 0-.707-.213-1.248a1.87 1.87 0 0 0-.63-.848q-.418-.307-1.032-.307-.639 0-1.065.324a1.97 1.97 0 0 0-.635.869 3.4 3.4 0 0 0-.209 1.21q0 .683.213 1.206.217.52.64.818.426.294 1.056.294m7.449 1.142q-.945 0-1.632-.417a2.8 2.8 0 0 1-1.052-1.176q-.367-.759-.367-1.765t.367-1.772a2.9 2.9 0 0 1 1.031-1.202q.665-.435 1.551-.435.512 0 1.01.171.498.17.908.554.409.38.652 1.005.243.627.243 1.543v.426h-5.046v-.869h4.023q0-.554-.222-.989a1.67 1.67 0 0 0-.622-.686 1.75 1.75 0 0 0-.946-.251q-.601 0-1.04.298a1.96 1.96 0 0 0-.669.767 2.25 2.25 0 0 0-.234 1.014v.58q0 .741.256 1.257.26.512.72.78.46.264 1.069.264.396 0 .716-.111.324-.115.558-.341a1.55 1.55 0 0 0 .363-.571l.971.273a2.16 2.16 0 0 1-.515.869 2.5 2.5 0 0 1-.895.58 3.3 3.3 0 0 1-1.198.204m10.36 0q-.947 0-1.632-.417a2.8 2.8 0 0 1-1.053-1.176q-.366-.759-.366-1.765t.366-1.772a2.9 2.9 0 0 1 1.031-1.202q.665-.435 1.551-.435.512 0 1.01.171.499.17.908.554.41.38.652 1.005.243.627.243 1.543v.426h-5.046v-.869h4.023q0-.554-.221-.989a1.67 1.67 0 0 0-.623-.686 1.75 1.75 0 0 0-.946-.251q-.6 0-1.039.298a1.96 1.96 0 0 0-.669.767 2.24 2.24 0 0 0-.235 1.014v.58q0 .741.256 1.257.26.512.72.78.46.264 1.07.264.396 0 .716-.111.323-.115.558-.341.234-.23.362-.571l.972.273a2.2 2.2 0 0 1-.516.869q-.362.371-.895.58a3.3 3.3 0 0 1-1.197.204m8.876-5.216-.903.256a1.7 1.7 0 0 0-.252-.439 1.2 1.2 0 0 0-.443-.358q-.28-.14-.72-.14-.6 0-1.002.277-.396.272-.396.694 0 .375.273.593.273.216.852.362l.972.238q.877.214 1.308.652.43.435.43 1.121 0 .562-.323 1.006a2.17 2.17 0 0 1-.895.699q-.576.255-1.338.255-1.002 0-1.658-.434-.657-.435-.831-1.27l.954-.239q.137.529.516.793.384.264 1.002.264.702 0 1.116-.298.417-.303.418-.725a.76.76 0 0 0-.239-.571q-.238-.234-.733-.349l-1.091-.256q-.899-.213-1.321-.66-.417-.452-.418-1.13 0-.554.312-.98.315-.426.856-.669a3 3 0 0 1 1.236-.243q.972 0 1.525.426a2.3 2.3 0 0 1 .793 1.125m4.292 5.216q-.92 0-1.585-.434a2.84 2.84 0 0 1-1.023-1.198q-.358-.762-.358-1.743 0-.996.367-1.76.37-.767 1.031-1.197.665-.435 1.551-.435.69 0 1.245.256.553.255.907.716t.439 1.074h-1.005a1.56 1.56 0 0 0-.512-.793q-.391-.35-1.057-.349-.588 0-1.031.307a2 2 0 0 0-.686.856q-.243.55-.243 1.291 0 .759.239 1.321.243.562.682.874.443.31 1.039.311.393 0 .712-.136.32-.137.541-.392.222-.256.316-.614h1.005a2.33 2.33 0 0 1-1.304 1.777q-.545.268-1.27.268m5.97.017q-.621 0-1.129-.234a1.94 1.94 0 0 1-.805-.686q-.298-.452-.298-1.091 0-.562.221-.912.222-.353.592-.554.371-.2.819-.298.451-.102.907-.162.597-.077.968-.115.375-.043.545-.141.175-.098.175-.341v-.034q0-.63-.345-.98-.342-.35-1.036-.349-.72 0-1.129.315t-.575.673l-.955-.341q.255-.596.682-.929.43-.336.937-.468a4 4 0 0 1 1.006-.137q.316 0 .724.077.414.072.797.303.388.23.644.694.255.465.255 1.245V304h-1.005v-.886h-.051a1.8 1.8 0 0 1-.341.456 2 2 0 0 1-.635.413q-.396.17-.968.17m.154-.903q.597 0 1.006-.234.413-.235.622-.605.213-.372.213-.78v-.921q-.065.076-.281.141-.213.06-.495.106a21 21 0 0 1-.963.128q-.392.051-.733.166a1.26 1.26 0 0 0-.545.337q-.205.221-.205.605 0 .525.388.793.392.264.993.264m5.688-7.977V304h-1.006v-8.727zm3.768 8.88q-.622 0-1.129-.234a1.94 1.94 0 0 1-.806-.686q-.298-.452-.298-1.091 0-.562.222-.912.221-.353.592-.554a3.1 3.1 0 0 1 .818-.298 10 10 0 0 1 .908-.162q.596-.077.967-.115.375-.043.545-.141.175-.098.175-.341v-.034q0-.63-.345-.98-.34-.35-1.035-.349-.721 0-1.13.315t-.575.673l-.955-.341q.256-.596.682-.929.43-.336.938-.468a4 4 0 0 1 1.005-.137q.316 0 .725.077.413.072.797.303.388.23.643.694.256.465.256 1.245V304h-1.006v-.886h-.051a1.8 1.8 0 0 1-.341.456 2 2 0 0 1-.635.413q-.396.17-.967.17m.153-.903q.597 0 1.006-.234a1.6 1.6 0 0 0 .835-1.385v-.921q-.063.076-.281.141a5 5 0 0 1-.494.106 21 21 0 0 1-.963.128q-.393.051-.733.166a1.26 1.26 0 0 0-.546.337q-.204.221-.204.605 0 .525.387.793.393.264.993.264m7.529-5.795v.852h-3.392v-.852zm-2.403-1.569h1.005v6.239q0 .426.124.639a.64.64 0 0 0 .324.281q.2.069.422.069.165 0 .272-.017l.171-.035.204.904a2.2 2.2 0 0 1-.75.119q-.426 0-.835-.183a1.66 1.66 0 0 1-.673-.558q-.264-.375-.264-.946zM185.03 304v-6.545h1.006V304zm.511-7.636a.7.7 0 0 1-.507-.201.64.64 0 0 1-.209-.481q0-.282.209-.482a.72.72 0 0 1 .507-.2q.294 0 .503.2a.64.64 0 0 1 .213.482.64.64 0 0 1-.213.481.7.7 0 0 1-.503.201m4.996 7.772q-.887 0-1.556-.422a2.86 2.86 0 0 1-1.04-1.18q-.37-.759-.37-1.773 0-1.022.37-1.785.375-.764 1.04-1.185.67-.422 1.556-.422t1.551.422q.669.421 1.039 1.185.375.763.375 1.785 0 1.014-.375 1.773a2.8 2.8 0 0 1-1.039 1.18q-.665.423-1.551.422m0-.903q.673 0 1.108-.345.434-.345.643-.908a3.5 3.5 0 0 0 .209-1.219q0-.656-.209-1.223a2.07 2.07 0 0 0-.643-.916q-.435-.35-1.108-.349-.674 0-1.108.349-.435.35-.644.916a3.5 3.5 0 0 0-.209 1.223q0 .657.209 1.219t.644.908q.434.345 1.108.345m5.506-3.171V304h-1.005v-6.545h.971v1.022h.085a1.9 1.9 0 0 1 .699-.801q.469-.306 1.211-.307.665 0 1.163.273.498.269.775.818.277.546.277 1.381V304h-1.005v-4.091q0-.771-.401-1.202-.4-.434-1.099-.434-.482 0-.861.209-.375.209-.592.609-.218.4-.218.971"/><path fill="#05df72" d="m59.546 320.062.647-.664 2.25 2.216 4.654-4.637.664.665-5.318 5.301z"/><path fill="#d4d4d8" d="M73.252 324v-8.727h2.949q1.023 0 1.679.349.656.345.972.95.315.606.315 1.377t-.315 1.368-.968.937q-.651.337-1.666.337h-2.386v-.955h2.352q.698 0 1.125-.204.43-.205.622-.58.195-.38.196-.903 0-.525-.196-.916a1.33 1.33 0 0 0-.626-.605q-.431-.218-1.138-.218h-1.858V324zm4.108-3.92 2.148 3.92H78.28l-2.114-3.92zm6.106 4.056q-.946 0-1.632-.417a2.8 2.8 0 0 1-1.053-1.176q-.367-.759-.367-1.765t.367-1.772q.37-.772 1.031-1.202.664-.435 1.551-.435.512 0 1.01.171.499.17.908.554.41.38.652 1.005.243.627.243 1.543v.426H81.13v-.869h4.023a2.15 2.15 0 0 0-.222-.989 1.67 1.67 0 0 0-.622-.686 1.75 1.75 0 0 0-.946-.251q-.6 0-1.04.298-.435.294-.668.767a2.25 2.25 0 0 0-.235 1.014v.58q0 .741.256 1.257.26.512.72.78.46.264 1.07.264.395 0 .716-.111a1.5 1.5 0 0 0 .558-.341q.234-.23.362-.571l.971.273a2.16 2.16 0 0 1-.515.869q-.363.371-.895.58a3.3 3.3 0 0 1-1.197.204m6.166.017q-.622 0-1.13-.234a1.94 1.94 0 0 1-.805-.686q-.298-.452-.298-1.091 0-.562.221-.912.222-.353.593-.554a3.1 3.1 0 0 1 .818-.298 10 10 0 0 1 .908-.162q.596-.077.967-.115.375-.043.545-.141.175-.098.175-.341v-.034q0-.63-.345-.98-.341-.35-1.036-.349-.72 0-1.129.315t-.575.673l-.955-.341q.255-.596.682-.929.43-.336.938-.468a4 4 0 0 1 1.005-.137 4 4 0 0 1 .725.077q.412.072.797.303.388.23.643.694.255.465.256 1.245V324h-1.006v-.886h-.051a1.8 1.8 0 0 1-.341.456q-.239.243-.635.413-.397.17-.967.17m.153-.903q.597 0 1.006-.234a1.6 1.6 0 0 0 .835-1.385v-.921q-.064.076-.281.141a5 5 0 0 1-.495.106 21 21 0 0 1-.963.128q-.39.051-.733.166a1.26 1.26 0 0 0-.545.337q-.204.221-.204.605 0 .525.387.793.393.264.993.264m7.154.886q-.818 0-1.445-.413-.626-.417-.98-1.176-.353-.763-.353-1.803 0-1.031.353-1.789.354-.76.985-1.172.63-.414 1.457-.414.64 0 1.01.213.375.21.57.478.202.264.312.434h.085v-3.221h1.006V324h-.972v-1.006h-.119a6 6 0 0 1-.315.452q-.205.269-.584.482-.38.208-1.01.208m.136-.903q.606 0 1.023-.315.417-.32.635-.882.217-.567.217-1.309 0-.732-.213-1.282a1.86 1.86 0 0 0-.63-.861q-.418-.312-1.032-.311-.639 0-1.065.328-.422.324-.635.882-.21.554-.209 1.244 0 .699.213 1.27.217.567.64.904.426.332 1.056.332m8.595-3.443v.937h-3.818v-.937zm4.429 4.346q-.886 0-1.555-.422a2.86 2.86 0 0 1-1.04-1.18q-.37-.759-.371-1.773 0-1.022.371-1.785.374-.764 1.04-1.185.669-.422 1.555-.422t1.551.422q.67.421 1.04 1.185.375.763.375 1.785 0 1.014-.375 1.773a2.8 2.8 0 0 1-1.04 1.18q-.664.423-1.551.422m0-.903q.673 0 1.108-.345t.643-.908q.21-.562.209-1.219 0-.656-.209-1.223a2.06 2.06 0 0 0-.643-.916q-.435-.35-1.108-.349-.673 0-1.108.349-.435.35-.643.916-.21.567-.209 1.223 0 .657.209 1.219.208.563.643.908t1.108.345m5.507-3.171V324H114.6v-6.545h.972v1.022h.085q.23-.498.699-.801.468-.306 1.21-.307.665 0 1.163.273.499.269.776.818.277.546.277 1.381V324h-1.006v-4.091q0-.771-.4-1.202-.4-.434-1.1-.434-.481 0-.861.209-.375.209-.592.609t-.217.971m7.019-4.789V324h-1.005v-8.727zm2.49 11.182q-.255 0-.456-.043a1.2 1.2 0 0 1-.277-.077l.256-.886q.366.093.648.068a.78.78 0 0 0 .498-.251q.222-.222.405-.721l.187-.511-2.42-6.579h1.091l1.807 5.215h.068l1.807-5.215h1.091l-2.779 7.5q-.188.507-.464.839a1.75 1.75 0 0 1-.644.499 2 2 0 0 1-.818.162m12.322-9v.852h-3.529v-.852zM134.965 324v-7.449q0-.562.264-.937.265-.375.686-.563.423-.187.891-.187.37 0 .605.059.234.06.35.111l-.29.869a6 6 0 0 0-.213-.064 1.3 1.3 0 0 0-.35-.038q-.498 0-.72.252-.217.25-.217.737V324zm3.881 0v-6.545h1.006V324zm.512-7.636a.72.72 0 0 1-.508-.201.64.64 0 0 1-.208-.481q0-.282.208-.482a.72.72 0 0 1 .508-.2.7.7 0 0 1 .502.2.64.64 0 0 1 .214.482.64.64 0 0 1-.214.481.7.7 0 0 1-.502.201m3.342-1.091V324h-1.006v-8.727zm4.586 8.863q-.947 0-1.632-.417a2.8 2.8 0 0 1-1.053-1.176q-.366-.759-.366-1.765t.366-1.772a2.9 2.9 0 0 1 1.031-1.202q.666-.435 1.552-.435.511 0 1.01.171.498.17.907.554.41.38.652 1.005.243.627.243 1.543v.426h-5.045v-.869h4.022q0-.554-.221-.989a1.67 1.67 0 0 0-.622-.686 1.75 1.75 0 0 0-.946-.251q-.602 0-1.04.298a1.96 1.96 0 0 0-.669.767 2.26 2.26 0 0 0-.235 1.014v.58q0 .741.256 1.257.26.512.72.78.46.264 1.07.264.396 0 .716-.111.324-.115.558-.341.234-.23.362-.571l.972.273a2.15 2.15 0 0 1-.516.869q-.362.371-.895.58a3.3 3.3 0 0 1-1.197.204m8.876-5.216-.903.256a1.7 1.7 0 0 0-.252-.439 1.2 1.2 0 0 0-.443-.358q-.28-.14-.72-.14-.6 0-1.001.277-.397.272-.397.694 0 .375.273.593.273.216.852.362l.972.238q.877.214 1.308.652.43.435.431 1.121 0 .562-.324 1.006a2.16 2.16 0 0 1-.895.699q-.576.255-1.338.255-1.002 0-1.658-.434-.656-.435-.831-1.27l.955-.239q.136.529.515.793.384.264 1.002.264.703 0 1.116-.298.418-.303.418-.725a.76.76 0 0 0-.239-.571q-.238-.234-.733-.349l-1.091-.256q-.898-.213-1.321-.66-.417-.452-.417-1.13 0-.554.311-.98a2.1 2.1 0 0 1 .856-.669 3 3 0 0 1 1.236-.243q.971 0 1.526.426.558.428.792 1.125m2.281 7.535q-.255 0-.456-.043a1.2 1.2 0 0 1-.277-.077l.256-.886q.366.093.648.068a.78.78 0 0 0 .498-.251q.222-.222.405-.721l.188-.511-2.421-6.579h1.091l1.807 5.215h.068l1.807-5.215h1.091l-2.779 7.5q-.188.507-.464.839a1.75 1.75 0 0 1-.644.499 2 2 0 0 1-.818.162m10.669-7.535-.904.256a1.7 1.7 0 0 0-.251-.439 1.2 1.2 0 0 0-.444-.358q-.28-.14-.72-.14-.6 0-1.001.277-.396.272-.396.694 0 .375.272.593.273.216.853.362l.971.238q.877.214 1.308.652.43.435.431 1.121 0 .562-.324 1.006a2.15 2.15 0 0 1-.895.699q-.575.255-1.338.255-1.001 0-1.658-.434-.655-.435-.831-1.27l.955-.239q.137.529.516.793.383.264 1.001.264.703 0 1.116-.298.418-.303.418-.725a.76.76 0 0 0-.239-.571q-.238-.234-.733-.349l-1.09-.256q-.9-.213-1.321-.66-.418-.452-.418-1.13 0-.554.311-.98.315-.426.857-.669a3 3 0 0 1 1.235-.243q.972 0 1.526.426.558.428.793 1.125m4.479-1.465v.852h-3.392v-.852zm-2.403-1.569h1.006v6.239q0 .426.123.639a.64.64 0 0 0 .324.281q.2.069.422.069.166 0 .273-.017l.17-.035.205.904a2.3 2.3 0 0 1-.75.119q-.427 0-.836-.183a1.66 1.66 0 0 1-.673-.558q-.264-.375-.264-.946zm6.59 8.25q-.946 0-1.632-.417a2.8 2.8 0 0 1-1.053-1.176q-.366-.759-.366-1.765t.366-1.772a2.9 2.9 0 0 1 1.032-1.202q.665-.435 1.551-.435.511 0 1.01.171.498.17.907.554.41.38.652 1.005.243.627.243 1.543v.426h-5.045v-.869h4.023q0-.554-.222-.989a1.67 1.67 0 0 0-.622-.686 1.75 1.75 0 0 0-.946-.251q-.601 0-1.04.298a1.96 1.96 0 0 0-.669.767 2.25 2.25 0 0 0-.234 1.014v.58q0 .741.255 1.257.261.512.72.78.46.264 1.07.264.396 0 .716-.111.324-.115.558-.341.234-.23.362-.571l.972.273a2.15 2.15 0 0 1-.516.869 2.5 2.5 0 0 1-.895.58 3.3 3.3 0 0 1-1.197.204m4.24-.136v-6.545h.972v1.022h.085q.204-.523.66-.814.456-.294 1.096-.294.647 0 1.078.294.434.29.677.814h.068q.252-.507.755-.805.502-.303 1.206-.303.878 0 1.436.55.558.546.558 1.7V324h-1.006v-4.381q0-.724-.396-1.035a1.46 1.46 0 0 0-.933-.311q-.69 0-1.07.417-.38.413-.379 1.049V324h-1.023v-4.483q0-.558-.362-.899-.362-.345-.933-.345a1.37 1.37 0 0 0-.733.209 1.6 1.6 0 0 0-.546.579 1.7 1.7 0 0 0-.204.848V324z"/></svg>