<svg xmlns="http://www.w3.org/2000/svg" width="379" height="378" fill="none" viewBox="0 0 379 378"><rect width="378" height="378" fill="#25221b" rx="6"/><mask id="a" fill="#fff"><path d="M34 39a9 9 0 0 1 9-9h335.25v30.07H34z"/></mask><path fill="#1b1913" d="M34 39a9 9 0 0 1 9-9h335.25v30.07H34z"/><path fill="#fff" fill-opacity=".06" d="M34 30h344.25zm344.25 31.07H34v-2h344.25zM34 60.07V30zM378.25 30v30.07z" mask="url(#a)"/><path fill="#edecec" fill-opacity=".2" d="M42 44.535a5 5 0 1 1 10 0 5 5 0 0 1-10 0m16 0a5 5 0 1 1 10 0 5 5 0 0 1-10 0m16 0a5 5 0 1 1 10 0 5 5 0 0 1-10 0"/><path fill="#14120b" d="M34.25 60.175h344v287h-338a6 6 0 0 1-6-6z"/><path fill="#d4d4d8" fill-opacity=".4" d="M61.406 92.255v-.936q-1.116-.168-1.824-.936-.708-.78-.804-1.932l1.08-.072q.108.78.504 1.272t1.044.636v-2.94q-1.308-.348-1.872-.912-.552-.576-.552-1.428 0-.984.648-1.608t1.776-.732v-1.092h.888v1.104q1.092.144 1.716.852t.756 1.764l-1.08.072q-.096-.648-.432-1.08-.336-.444-.96-.576v2.844q.96.276 1.536.6.588.324.84.792.252.456.252 1.14 0 .636-.336 1.128a2.3 2.3 0 0 1-.924.792q-.588.3-1.368.348v.9zm-1.344-7.296q0 .504.276.792.288.276 1.068.528v-2.592q-.624.072-.984.408-.36.324-.36.864m3.78 4.104q0-.348-.12-.588-.12-.252-.456-.456-.324-.216-.972-.42v2.748q.756-.048 1.152-.384t.396-.9"/><path fill="#d4d4d8" d="M73.72 91.175v-8.52h1.009v5.58l3.096-3.42h1.344l-2.508 2.7 2.628 3.66h-1.224l-2.088-2.976-1.248 1.32v1.656zm9.272.144q-.948 0-1.512-.636-.564-.648-.564-1.776v-4.092h1.008v3.816q0 .924.324 1.368.336.432 1.02.432.744 0 1.176-.48.432-.492.432-1.344v-3.792h1.008v6.36h-.96v-1.032q-.528 1.176-1.932 1.176m8.035 0q-.66 0-1.176-.288a2.04 2.04 0 0 1-.792-.816l-.036.96h-.912v-8.52h1.008v3.048q.24-.396.744-.708a2.1 2.1 0 0 1 1.164-.324q.84 0 1.452.408t.936 1.152q.336.744.336 1.764t-.336 1.764q-.324.744-.936 1.152t-1.452.408m-.06-.96q.804 0 1.26-.636.468-.636.468-1.728 0-1.104-.468-1.728a1.44 1.44 0 0 0-1.236-.636q-.876 0-1.38.636-.492.624-.492 1.728 0 1.092.492 1.728t1.356.636m6.968.96q-.9 0-1.56-.408a2.73 2.73 0 0 1-1.008-1.152q-.348-.756-.348-1.764t.348-1.752q.36-.744.996-1.152.648-.42 1.524-.42.828 0 1.464.396.636.384.996 1.128t.36 1.812v.3h-4.632q.06 1.02.54 1.536.492.516 1.32.516.624 0 1.02-.288.408-.3.564-.78l1.08.084a2.7 2.7 0 0 1-.96 1.404q-.696.54-1.704.54m-1.86-3.9h3.528q-.072-.924-.54-1.356t-1.176-.432q-.732 0-1.212.456-.468.444-.6 1.332m9.115 3.9q-.888 0-1.548-.408a2.7 2.7 0 0 1-1.02-1.152q-.36-.756-.36-1.764t.36-1.752 1.02-1.152q.66-.42 1.548-.42 1.068 0 1.764.576.708.564.9 1.632l-1.056.072q-.144-.636-.576-.972-.42-.348-1.032-.348-.876 0-1.38.636-.492.624-.492 1.728t.492 1.74q.504.624 1.38.624.612 0 1.056-.36.456-.36.6-1.08l1.056.072q-.192 1.056-.924 1.692-.72.636-1.788.636m7.963-.144q-1.836 0-1.836-1.752v-3.72h-2.1v-.888h2.1v-1.488h1.008v1.488h2.532v.888h-2.532v3.72q0 .864.828.864h1.704v.888zm3.38 0v-.888h2.556v-5.928q0-.384-.216-.6t-.6-.216h-1.5v-.888h1.548q1.776 0 1.776 1.776v5.856h2.196v.888zm16.43.144q-.6 0-1.08-.216a1.83 1.83 0 0 1-.756-.6 1.56 1.56 0 0 1-.276-.912q0-.816.48-1.26.492-.456 1.536-.66l2.136-.432q0-.816-.372-1.212-.36-.396-1.044-.396-.66 0-1.032.3-.372.288-.516.84l-1.068-.084q.18-.9.852-1.452.684-.564 1.764-.564 1.152 0 1.788.696.636.684.636 1.896v2.64q0 .216.096.3t.288.084h.408v.888a5 5 0 0 1-.528.024q-.528 0-.84-.216-.3-.216-.396-.708-.252.468-.828.756a2.7 2.7 0 0 1-1.248.288m.096-.888q.972 0 1.452-.492.492-.492.492-1.284v-.552l-1.944.384q-.648.12-.9.372-.252.24-.252.636 0 .444.3.696.312.24.852.24m7.495.888q-.948 0-1.512-.636-.564-.648-.564-1.776v-4.092h1.008v3.816q0 .924.324 1.368.336.432 1.02.432.744 0 1.176-.48.432-.492.432-1.344v-3.792h1.008v6.36h-.96v-1.032q-.528 1.176-1.932 1.176m8.576-.144q-1.836 0-1.836-1.752v-3.72h-2.1v-.888h2.1v-1.488h1.008v1.488h2.532v.888h-2.532v3.72q0 .864.828.864h1.704v.888zm3.859 0v-8.52h1.008v3.156q.252-.588.756-.864a2.36 2.36 0 0 1 1.152-.276q1.032 0 1.572.672.552.672.552 1.74v4.092h-1.008V87.37q0-1.812-1.332-1.812-.768 0-1.236.468-.456.468-.456 1.356v3.792zm16.959.144q-.888 0-1.548-.408a2.7 2.7 0 0 1-1.02-1.152q-.36-.756-.36-1.764t.36-1.752 1.02-1.152q.66-.42 1.548-.42 1.068 0 1.764.576.708.564.9 1.632l-1.056.072q-.144-.636-.576-.972-.42-.348-1.032-.348-.876 0-1.38.636-.492.624-.492 1.728t.492 1.74q.504.624 1.38.624.612 0 1.056-.36.456-.36.6-1.08l1.056.072q-.192 1.056-.924 1.692-.72.636-1.788.636m6.187 0q-.6 0-1.08-.216a1.83 1.83 0 0 1-.756-.6 1.56 1.56 0 0 1-.276-.912q0-.816.48-1.26.492-.456 1.536-.66l2.136-.432q0-.816-.372-1.212-.36-.396-1.044-.396-.66 0-1.032.3-.372.288-.516.84l-1.068-.084q.18-.9.852-1.452.684-.564 1.764-.564 1.152 0 1.788.696.636.684.636 1.896v2.64q0 .216.096.3t.288.084h.408v.888a5 5 0 0 1-.528.024q-.528 0-.84-.216-.3-.216-.396-.708-.252.468-.828.756a2.7 2.7 0 0 1-1.248.288m.096-.888q.972 0 1.452-.492.492-.492.492-1.284v-.552l-1.944.384q-.648.12-.9.372-.252.24-.252.636 0 .444.3.696.312.24.852.24m5.347.744v-6.36h.924l.024 1.14q.252-.648.804-.96a2.4 2.4 0 0 1 1.224-.324q.732 0 1.212.324.492.324.744.876.252.54.252 1.212v4.092h-1.008V87.37q0-.888-.348-1.344-.348-.468-1.068-.468-.732 0-1.248.468-.504.456-.504 1.344v3.804zm7.868-3.024v-.948h3.84v.948zm6.475 3.024v-.888h2.556v-4.584h-2.436v-.888h3.444v5.472h2.196v.888zm2.46-7.356v-1.176h1.056v1.176zm18.67 4.044v-.936h5.208v.936zm-6.216 0v-.936h5.196v.936zm13.627 3.312v-.888h2.556v-5.928q0-.384-.216-.6t-.6-.216h-1.5v-.888h1.548q1.776 0 1.776 1.776v5.856h2.196v.888zm7.436 0v-.888h2.556v-4.584h-2.436v-.888h3.444v5.472h2.196v.888zm2.46-7.356v-1.176h1.056v1.176zm7.495 7.5q-.828 0-1.428-.288a2.45 2.45 0 0 1-.948-.768 2.2 2.2 0 0 1-.384-1.092l1.056-.072q.096.588.516.924.432.336 1.188.336.708 0 1.092-.204.396-.204.396-.636a.75.75 0 0 0-.132-.456q-.132-.18-.492-.3-.36-.132-1.056-.252-.924-.168-1.452-.408-.516-.252-.732-.624a1.74 1.74 0 0 1-.216-.888q0-.828.624-1.368.624-.552 1.788-.552.792 0 1.32.288.54.276.852.744.312.456.408 1.008l-1.056.072a1.43 1.43 0 0 0-.504-.828q-.384-.324-1.032-.324-.696 0-1.032.276a.85.85 0 0 0-.336.684q0 .48.36.684t1.224.348q.984.156 1.524.408.54.24.756.6t.216.888q0 .564-.336.972-.324.396-.9.612a3.6 3.6 0 0 1-1.284.216m8.011-.144q-1.836 0-1.836-1.752v-3.72h-2.1v-.888h2.1v-1.488h1.008v1.488h2.532v.888h-2.532v3.72q0 .864.828.864h1.704v.888z"/><path fill="#14120b" d="M58.25 104.175a6 6 0 0 1 6-6h295a6 6 0 0 1 6 6v173a6 6 0 0 1-6 6h-295a6 6 0 0 1-6-6z"/><path fill="#34c759" d="M75.665 120.175h-1.108l3.204-8.727h1.091l3.205 8.727h-1.108l-2.608-7.347h-.068zm.409-3.409h4.466v.937h-4.466zm8.212-5.318v8.727H83.28v-8.727zm2.847 0v8.727h-1.005v-8.727zm4.501 8.863q-.886 0-1.555-.422a2.86 2.86 0 0 1-1.04-1.18q-.37-.759-.37-1.773 0-1.023.37-1.785.375-.764 1.04-1.185.669-.422 1.555-.422t1.551.422q.67.421 1.04 1.185.375.762.375 1.785 0 1.014-.375 1.773a2.8 2.8 0 0 1-1.04 1.18q-.665.422-1.55.422m0-.903q.674 0 1.108-.345.435-.346.644-.908t.209-1.219-.21-1.223a2.06 2.06 0 0 0-.643-.916q-.435-.35-1.108-.349-.673 0-1.108.349a2.06 2.06 0 0 0-.643.916q-.21.567-.209 1.223 0 .657.209 1.219t.643.908q.436.345 1.108.345m5.762.767-1.995-6.546h1.057l1.415 5.012h.068l1.398-5.012h1.074l1.38 4.995h.069l1.414-4.995h1.057l-1.994 6.546h-.989l-1.432-5.029h-.102l-1.432 5.029zm10.788.136q-.945 0-1.632-.417a2.8 2.8 0 0 1-1.052-1.177q-.367-.758-.367-1.764 0-1.005.367-1.773a2.9 2.9 0 0 1 1.031-1.201q.665-.435 1.551-.435.512 0 1.01.171.498.17.908.554.409.379.652 1.005.243.627.243 1.543v.426h-5.046v-.869h4.023q0-.555-.222-.989a1.67 1.67 0 0 0-.622-.686 1.74 1.74 0 0 0-.946-.251q-.601 0-1.04.298a1.96 1.96 0 0 0-.669.767 2.25 2.25 0 0 0-.234 1.014v.58q0 .741.256 1.257.26.511.72.78a2.1 2.1 0 0 0 1.069.264q.397 0 .716-.111.324-.115.558-.341a1.55 1.55 0 0 0 .363-.571l.971.273a2.16 2.16 0 0 1-.515.869q-.363.37-.895.58a3.3 3.3 0 0 1-1.198.204m6.712 0a2.57 2.57 0 0 1-1.445-.413q-.626-.418-.98-1.176-.353-.763-.353-1.803 0-1.03.353-1.79.354-.758.985-1.172.63-.413 1.457-.413.64 0 1.01.213.375.208.571.477.2.265.311.435h.085v-3.221h1.006v8.727h-.972v-1.006h-.119q-.111.179-.315.452a1.9 1.9 0 0 1-.584.481q-.38.21-1.01.209m.136-.903q.606 0 1.023-.316.417-.32.635-.882.217-.567.217-1.308 0-.733-.213-1.283a1.87 1.87 0 0 0-.63-.86q-.418-.311-1.032-.311-.639 0-1.065.328-.422.324-.635.882a3.5 3.5 0 0 0-.209 1.244q0 .699.213 1.27.217.567.639.903.427.333 1.057.333"/><path fill="#d4d4d8" fill-opacity=".8" d="M110.247 145.334v-9.75h1.053v1.126h.129q.12-.184.332-.471.217-.29.619-.517.406-.23 1.099-.23.895 0 1.579.447.682.448 1.066 1.27.383.822.383 1.939 0 1.126-.383 1.953-.383.82-1.062 1.274-.678.448-1.565.448-.683 0-1.094-.227a2 2 0 0 1-.632-.521 7 7 0 0 1-.342-.49h-.092v3.749zm1.071-6.205q0 .804.236 1.418.236.609.687.955.453.342 1.108.342.684 0 1.141-.36a2.2 2.2 0 0 0 .692-.979q.236-.618.236-1.376a3.7 3.7 0 0 0-.231-1.348 2.1 2.1 0 0 0-.688-.955q-.457-.356-1.15-.356-.664 0-1.117.337-.452.333-.683.933-.231.596-.231 1.389m9.732 3.694q-.96 0-1.685-.457a3.1 3.1 0 0 1-1.127-1.279q-.4-.822-.401-1.921 0-1.107.401-1.934a3.1 3.1 0 0 1 1.127-1.283q.725-.457 1.685-.457t1.68.457q.725.456 1.127 1.283.405.827.406 1.934 0 1.1-.406 1.921a3.07 3.07 0 0 1-1.127 1.279q-.72.457-1.68.457m0-.979q.729 0 1.2-.374.47-.374.697-.983.226-.61.226-1.321 0-.71-.226-1.325a2.23 2.23 0 0 0-.697-.992q-.471-.38-1.2-.379-.73 0-1.201.379a2.24 2.24 0 0 0-.697.992q-.225.615-.226 1.325 0 .71.226 1.321.227.61.697.983.47.374 1.201.374m7.553.979q-.885 0-1.565-.448-.678-.453-1.061-1.274-.384-.827-.384-1.953 0-1.117.384-1.939.383-.822 1.066-1.27.684-.447 1.579-.447.692 0 1.094.23a1.9 1.9 0 0 1 .619.517q.216.287.337.471h.092v-3.49h1.089v9.455h-1.052v-1.09h-.129q-.12.195-.342.49a2 2 0 0 1-.632.521q-.411.227-1.095.227m.148-.979q.655 0 1.108-.342.453-.346.688-.955.235-.614.235-1.418 0-.793-.23-1.389-.231-.6-.684-.933-.452-.337-1.117-.337-.692 0-1.154.356a2.13 2.13 0 0 0-.688.955q-.226.6-.226 1.348 0 .758.231 1.376.236.614.692.979.462.36 1.145.36m10.272-4.672-.979.277a1.8 1.8 0 0 0-.272-.476 1.3 1.3 0 0 0-.48-.387q-.305-.153-.781-.153-.65 0-1.084.3-.43.296-.43.753 0 .406.296.642.295.235.923.392l1.053.258q.95.231 1.417.707.466.47.466 1.214 0 .609-.351 1.089-.346.481-.969.758-.624.276-1.45.277-1.085 0-1.796-.471t-.9-1.376l1.034-.259q.148.573.559.859.415.286 1.085.286.762 0 1.209-.323.453-.327.453-.785a.83.83 0 0 0-.259-.618q-.258-.255-.794-.379l-1.182-.277q-.974-.23-1.431-.715-.452-.49-.452-1.224 0-.6.337-1.062.342-.461.928-.724.591-.263 1.338-.263 1.053 0 1.653.461.605.462.859 1.219"/><path fill="#6b6b70" d="M242.812 144.766q-.728 0-1.252-.188a2.65 2.65 0 0 1-1.424-1.125l.802-.562q.135.178.345.409.208.234.571.405.367.174.958.174.793 0 1.309-.383t.515-1.202v-1.329h-.085a6 6 0 0 1-.315.443 1.8 1.8 0 0 1-.58.464q-.375.201-1.014.201a2.73 2.73 0 0 1-1.423-.375 2.63 2.63 0 0 1-.993-1.091q-.363-.716-.362-1.739 0-1.005.353-1.751.354-.75.985-1.16.63-.413 1.457-.413.639 0 1.014.213.38.209.58.477.204.265.315.435h.102v-1.04h.972v6.733q0 .844-.383 1.372a2.17 2.17 0 0 1-1.023.78 3.9 3.9 0 0 1-1.424.252m-.034-3.597q.606 0 1.023-.277.418-.277.635-.797t.217-1.244q0-.708-.213-1.249a1.9 1.9 0 0 0-.63-.848q-.418-.306-1.032-.306-.639 0-1.065.323a1.97 1.97 0 0 0-.635.87 3.4 3.4 0 0 0-.209 1.21q0 .681.213 1.206.217.52.64.818.426.294 1.056.294m7.449 1.142q-.945 0-1.632-.417a2.8 2.8 0 0 1-1.052-1.177q-.367-.757-.367-1.764 0-1.005.367-1.773a2.9 2.9 0 0 1 1.031-1.201q.665-.435 1.551-.435.512 0 1.01.171.498.17.908.554.409.379.652 1.005.243.627.243 1.543v.426h-5.046v-.869h4.023q0-.555-.222-.989a1.67 1.67 0 0 0-.622-.686 1.74 1.74 0 0 0-.946-.251q-.601 0-1.04.298a1.96 1.96 0 0 0-.669.767 2.25 2.25 0 0 0-.234 1.014v.58q0 .741.256 1.257.26.511.72.78.46.264 1.069.264.396 0 .716-.111.324-.115.558-.341a1.55 1.55 0 0 0 .363-.571l.971.273a2.16 2.16 0 0 1-.515.869q-.363.37-.895.58a3.3 3.3 0 0 1-1.198.204m7.087-6.682v.853h-3.392v-.853zm-2.403-1.568h1.005v6.239q0 .426.124.639a.64.64 0 0 0 .324.281q.2.069.422.068.165 0 .272-.017l.171-.034.204.904a2 2 0 0 1-.285.076 2 2 0 0 1-.465.043q-.426 0-.835-.183a1.66 1.66 0 0 1-.673-.558q-.264-.375-.264-.946zm8.024 5.063a.74.74 0 0 1-.542-.226.74.74 0 0 1-.225-.541.74.74 0 0 1 .225-.542.74.74 0 0 1 .542-.225q.315 0 .541.225.226.226.226.542a.7.7 0 0 1-.107.383.8.8 0 0 1-.277.281.7.7 0 0 1-.383.103m6.952-5.676v8.727h-1.006v-8.727zm1.842 8.727v-6.546h1.006v6.546zm.511-7.637a.7.7 0 0 1-.507-.2.64.64 0 0 1-.208-.481q0-.281.208-.482a.72.72 0 0 1 .507-.2q.294 0 .503.2a.64.64 0 0 1 .213.482.64.64 0 0 1-.213.481.7.7 0 0 1-.503.2m6.973 2.557-.903.256a1.7 1.7 0 0 0-.252-.439 1.2 1.2 0 0 0-.443-.358q-.28-.141-.72-.141-.6 0-1.002.277-.396.273-.396.695 0 .375.273.592.273.218.852.363l.972.238q.877.214 1.308.652.43.435.43 1.121 0 .562-.323 1.006a2.16 2.16 0 0 1-.895.698q-.576.256-1.338.256-1.002 0-1.658-.434-.657-.435-.831-1.27l.954-.239q.136.528.516.793.384.264 1.002.264.702 0 1.116-.298.418-.303.418-.725a.76.76 0 0 0-.239-.571q-.238-.234-.733-.349l-1.091-.256q-.899-.213-1.321-.661-.418-.451-.418-1.129 0-.554.312-.98.315-.426.856-.669a3 3 0 0 1 1.236-.243q.972 0 1.525.426.56.426.793 1.125m4.48-1.466v.853h-3.392v-.853zm-2.404-1.568h1.006v6.239q0 .426.124.639a.64.64 0 0 0 .324.281q.2.069.421.068.166 0 .273-.017l.171-.034.204.904a2 2 0 0 1-.285.076 2 2 0 0 1-.465.043q-.426 0-.835-.183a1.66 1.66 0 0 1-.673-.558q-.265-.375-.265-.946zm8.025 5.063a.74.74 0 0 1-.542-.226.74.74 0 0 1-.225-.541.74.74 0 0 1 .225-.542.74.74 0 0 1 .542-.225q.315 0 .541.225.226.226.226.542a.7.7 0 0 1-.107.383.8.8 0 0 1-.277.281.7.7 0 0 1-.383.103m7.429 3.051-1.994-6.546h1.057l1.415 5.012h.068l1.397-5.012h1.074l1.381 4.995h.068l1.415-4.995h1.057l-1.995 6.546h-.988l-1.432-5.029h-.102l-1.432 5.029zm10.193.153q-.621 0-1.129-.234a1.94 1.94 0 0 1-.805-.686q-.299-.452-.299-1.091 0-.562.222-.912a1.56 1.56 0 0 1 .592-.554q.371-.2.819-.298.451-.103.907-.162.597-.077.968-.115.374-.043.545-.141.175-.098.175-.341v-.034q0-.63-.345-.98-.342-.35-1.036-.35-.72 0-1.129.316-.41.315-.575.673l-.955-.341q.256-.596.682-.929.43-.336.937-.469.511-.135 1.006-.136.315 0 .724.077.414.072.797.302.388.23.644.695.255.464.255 1.244v4.313h-1.005v-.887h-.051a1.8 1.8 0 0 1-.341.456q-.239.243-.635.414t-.968.17m.154-.903q.597 0 1.006-.235.412-.234.622-.605.213-.37.213-.78v-.92q-.065.077-.281.141a5 5 0 0 1-.495.106 21 21 0 0 1-.963.128q-.392.051-.733.166a1.26 1.26 0 0 0-.545.337q-.205.222-.205.605 0 .524.388.793.392.264.993.264m7.529-5.796v.853h-3.392v-.853zm-2.404-1.568h1.006v6.239q0 .426.123.639a.65.65 0 0 0 .324.281q.2.069.422.068.166 0 .273-.017l.17-.034.205.904a2 2 0 0 1-.286.076 2 2 0 0 1-.464.043q-.426 0-.835-.183a1.66 1.66 0 0 1-.674-.558q-.264-.375-.264-.946zm6.505 8.25q-.92 0-1.585-.434a2.84 2.84 0 0 1-1.023-1.198q-.358-.762-.358-1.743 0-.997.367-1.76.37-.766 1.031-1.197.664-.435 1.551-.435.69 0 1.244.256.555.255.908.716.354.46.439 1.074h-1.006a1.55 1.55 0 0 0-.511-.793q-.392-.35-1.057-.349-.588 0-1.031.306a2 2 0 0 0-.686.857q-.243.55-.243 1.291 0 .759.239 1.321.243.562.681.874.444.31 1.04.311.393 0 .712-.137a1.47 1.47 0 0 0 .856-1.005h1.006a2.33 2.33 0 0 1-1.304 1.777q-.546.268-1.27.268m5.05-4.074v3.938h-1.006v-8.727h1.006v3.204h.085q.231-.507.69-.805.465-.303 1.236-.303.67 0 1.172.269.502.264.78.814.28.544.281 1.389v4.159h-1.005v-4.091q0-.78-.405-1.206-.4-.43-1.113-.43-.494 0-.886.208a1.54 1.54 0 0 0-.614.61q-.22.4-.221.971"/><path fill="#d4d4d8" fill-opacity=".8" d="M111.337 161.409v4.266h-1.09v-7.091h1.053v1.108h.092q.25-.54.757-.868.508-.332 1.311-.332.72 0 1.261.295.54.29.84.886.3.591.3 1.496v4.506h-1.09v-4.432q0-.836-.434-1.302-.434-.471-1.191-.471a1.9 1.9 0 0 0-.932.226 1.6 1.6 0 0 0-.642.661q-.235.434-.235 1.052m9.395 4.414q-.96 0-1.685-.457a3.1 3.1 0 0 1-1.126-1.279q-.402-.822-.402-1.921 0-1.107.402-1.934a3.1 3.1 0 0 1 1.126-1.283q.725-.457 1.685-.457t1.681.457q.724.456 1.126 1.283.406.827.406 1.934 0 1.1-.406 1.921a3.07 3.07 0 0 1-1.126 1.279q-.72.457-1.681.457m0-.979q.73 0 1.201-.374.47-.374.697-.983.226-.61.226-1.321 0-.71-.226-1.325a2.23 2.23 0 0 0-.697-.992q-.47-.38-1.201-.379-.729 0-1.2.379a2.23 2.23 0 0 0-.697.992q-.226.615-.226 1.325t.226 1.321q.226.61.697.983.471.374 1.2.374m7.554.979q-.887 0-1.565-.448-.678-.453-1.062-1.274-.383-.827-.383-1.953 0-1.117.383-1.939.384-.822 1.067-1.27.682-.447 1.579-.447.692 0 1.094.23.406.227.618.517.217.287.337.471h.093v-3.49h1.089v9.455h-1.053v-1.09h-.129a7 7 0 0 1-.341.49 2 2 0 0 1-.633.521q-.41.227-1.094.227m.148-.979q.655 0 1.108-.342.452-.346.688-.955.235-.614.235-1.418 0-.793-.231-1.389-.23-.6-.683-.933-.453-.337-1.117-.337-.693 0-1.154.356a2.13 2.13 0 0 0-.688.955q-.226.6-.226 1.348 0 .758.23 1.376.236.614.693.979.462.36 1.145.36m8.222.979q-1.026 0-1.768-.453a3.04 3.04 0 0 1-1.141-1.274q-.397-.822-.397-1.911 0-1.09.397-1.921a3.13 3.13 0 0 1 1.118-1.302q.72-.47 1.68-.47.554 0 1.094.184.54.185.983.6.444.41.707 1.09.263.678.263 1.671v.462h-5.466v-.942h4.358q0-.6-.24-1.071a1.8 1.8 0 0 0-.674-.743 1.9 1.9 0 0 0-1.025-.273q-.651 0-1.126.323-.471.32-.725.831-.254.513-.254 1.099v.628q0 .803.277 1.362.282.554.78.845.498.286 1.159.286.429 0 .775-.12.351-.124.605-.37.254-.249.392-.618l1.053.295a2.3 2.3 0 0 1-.559.942 2.7 2.7 0 0 1-.969.628 3.6 3.6 0 0 1-1.297.222m9.616-5.651-.979.277a1.8 1.8 0 0 0-.272-.476 1.3 1.3 0 0 0-.48-.387q-.305-.153-.781-.153-.65 0-1.084.3-.43.296-.43.753 0 .406.296.642.295.235.923.392l1.053.258q.95.231 1.417.707.466.47.466 1.214 0 .609-.351 1.089-.346.481-.969.758-.624.276-1.45.277-1.085 0-1.796-.471t-.9-1.376l1.034-.259q.148.573.559.859.415.286 1.085.286.762 0 1.209-.323.453-.327.453-.785a.82.82 0 0 0-.259-.618q-.258-.255-.794-.379l-1.182-.277q-.973-.23-1.431-.715-.452-.49-.452-1.224 0-.6.337-1.062.342-.461.928-.724.591-.263 1.338-.263 1.053 0 1.653.461.605.462.859 1.219"/><path fill="#6b6b70" d="M242.812 167.766q-.728 0-1.252-.188a2.65 2.65 0 0 1-1.424-1.125l.802-.562q.135.178.345.409.208.234.571.405.367.174.958.174.793 0 1.309-.383t.515-1.202v-1.329h-.085a6 6 0 0 1-.315.443 1.8 1.8 0 0 1-.58.464q-.375.201-1.014.201a2.73 2.73 0 0 1-1.423-.375 2.63 2.63 0 0 1-.993-1.091q-.363-.716-.362-1.739 0-1.005.353-1.751.354-.75.985-1.16.63-.413 1.457-.413.639 0 1.014.213.38.209.58.477.204.265.315.435h.102v-1.04h.972v6.733q0 .844-.383 1.372a2.17 2.17 0 0 1-1.023.78 3.9 3.9 0 0 1-1.424.252m-.034-3.597q.606 0 1.023-.277.418-.277.635-.797t.217-1.244q0-.708-.213-1.249a1.9 1.9 0 0 0-.63-.848q-.418-.306-1.032-.306-.639 0-1.065.323a1.97 1.97 0 0 0-.635.87 3.4 3.4 0 0 0-.209 1.21q0 .681.213 1.206.217.52.64.818.426.294 1.056.294m7.449 1.142q-.945 0-1.632-.417a2.8 2.8 0 0 1-1.052-1.177q-.367-.757-.367-1.764 0-1.005.367-1.773a2.9 2.9 0 0 1 1.031-1.201q.665-.435 1.551-.435.512 0 1.01.171.498.17.908.554.409.379.652 1.005.243.627.243 1.543v.426h-5.046v-.869h4.023q0-.555-.222-.989a1.67 1.67 0 0 0-.622-.686 1.74 1.74 0 0 0-.946-.251q-.601 0-1.04.298a1.96 1.96 0 0 0-.669.767 2.25 2.25 0 0 0-.234 1.014v.58q0 .741.256 1.257.26.511.72.78.46.264 1.069.264.396 0 .716-.111.324-.115.558-.341a1.55 1.55 0 0 0 .363-.571l.971.273a2.16 2.16 0 0 1-.515.869q-.363.37-.895.58a3.3 3.3 0 0 1-1.198.204m7.087-6.682v.853h-3.392v-.853zm-2.403-1.568h1.005v6.239q0 .426.124.639a.64.64 0 0 0 .324.281q.2.069.422.068.165 0 .272-.017l.171-.034.204.904a2 2 0 0 1-.285.076 2 2 0 0 1-.465.043q-.426 0-.835-.183a1.66 1.66 0 0 1-.673-.558q-.264-.375-.264-.946zm8.024 5.063a.74.74 0 0 1-.542-.226.74.74 0 0 1-.225-.541.74.74 0 0 1 .225-.542.74.74 0 0 1 .542-.225q.315 0 .541.225.226.226.226.542a.7.7 0 0 1-.107.383.8.8 0 0 1-.277.281.7.7 0 0 1-.383.103m6.952-5.676v8.727h-1.006v-8.727zm1.842 8.727v-6.546h1.006v6.546zm.511-7.637a.7.7 0 0 1-.507-.2.64.64 0 0 1-.208-.481q0-.281.208-.482a.72.72 0 0 1 .507-.2q.294 0 .503.2a.64.64 0 0 1 .213.482.64.64 0 0 1-.213.481.7.7 0 0 1-.503.2m6.973 2.557-.903.256a1.7 1.7 0 0 0-.252-.439 1.2 1.2 0 0 0-.443-.358q-.28-.141-.72-.141-.6 0-1.002.277-.396.273-.396.695 0 .375.273.592.273.218.852.363l.972.238q.877.214 1.308.652.43.435.43 1.121 0 .562-.323 1.006a2.16 2.16 0 0 1-.895.698q-.576.256-1.338.256-1.002 0-1.658-.434-.657-.435-.831-1.27l.954-.239q.136.528.516.793.384.264 1.002.264.702 0 1.116-.298.418-.303.418-.725a.76.76 0 0 0-.239-.571q-.238-.234-.733-.349l-1.091-.256q-.899-.213-1.321-.661-.418-.451-.418-1.129 0-.554.312-.98.315-.426.856-.669a3 3 0 0 1 1.236-.243q.972 0 1.525.426.56.426.793 1.125m4.48-1.466v.853h-3.392v-.853zm-2.404-1.568h1.006v6.239q0 .426.124.639a.64.64 0 0 0 .324.281q.2.069.421.068.166 0 .273-.017l.171-.034.204.904a2 2 0 0 1-.285.076 2 2 0 0 1-.465.043q-.426 0-.835-.183a1.66 1.66 0 0 1-.673-.558q-.265-.375-.265-.946zm8.025 5.063a.74.74 0 0 1-.542-.226.74.74 0 0 1-.225-.541.74.74 0 0 1 .225-.542.74.74 0 0 1 .542-.225q.315 0 .541.225.226.226.226.542a.7.7 0 0 1-.107.383.8.8 0 0 1-.277.281.7.7 0 0 1-.383.103m7.429 3.051-1.994-6.546h1.057l1.415 5.012h.068l1.397-5.012h1.074l1.381 4.995h.068l1.415-4.995h1.057l-1.995 6.546h-.988l-1.432-5.029h-.102l-1.432 5.029zm10.193.153q-.621 0-1.129-.234a1.94 1.94 0 0 1-.805-.686q-.299-.452-.299-1.091 0-.562.222-.912a1.56 1.56 0 0 1 .592-.554q.371-.2.819-.298.451-.103.907-.162.597-.077.968-.115.374-.043.545-.141.175-.098.175-.341v-.034q0-.63-.345-.98-.342-.35-1.036-.35-.72 0-1.129.316-.41.315-.575.673l-.955-.341q.256-.596.682-.929.43-.336.937-.469.511-.135 1.006-.136.315 0 .724.077.414.072.797.302.388.23.644.695.255.464.255 1.244v4.313h-1.005v-.887h-.051a1.8 1.8 0 0 1-.341.456q-.239.243-.635.414t-.968.17m.154-.903q.597 0 1.006-.235.412-.234.622-.605.213-.37.213-.78v-.92q-.065.077-.281.141a5 5 0 0 1-.495.106 21 21 0 0 1-.963.128q-.392.051-.733.166a1.26 1.26 0 0 0-.545.337q-.205.222-.205.605 0 .524.388.793.392.264.993.264m7.529-5.796v.853h-3.392v-.853zm-2.404-1.568h1.006v6.239q0 .426.123.639a.65.65 0 0 0 .324.281q.2.069.422.068.166 0 .273-.017l.17-.034.205.904a2 2 0 0 1-.286.076 2 2 0 0 1-.464.043q-.426 0-.835-.183a1.66 1.66 0 0 1-.674-.558q-.264-.375-.264-.946zm6.505 8.25q-.92 0-1.585-.434a2.84 2.84 0 0 1-1.023-1.198q-.358-.762-.358-1.743 0-.997.367-1.76.37-.766 1.031-1.197.664-.435 1.551-.435.69 0 1.244.256.555.255.908.716.354.46.439 1.074h-1.006a1.55 1.55 0 0 0-.511-.793q-.392-.35-1.057-.349-.588 0-1.031.306a2 2 0 0 0-.686.857q-.243.55-.243 1.291 0 .759.239 1.321.243.562.681.874.444.31 1.04.311.393 0 .712-.137a1.47 1.47 0 0 0 .856-1.005h1.006a2.33 2.33 0 0 1-1.304 1.777q-.546.268-1.27.268m5.05-4.074v3.938h-1.006v-8.727h1.006v3.204h.085q.231-.507.69-.805.465-.303 1.236-.303.67 0 1.172.269.502.264.78.814.28.544.281 1.389v4.159h-1.005v-4.091q0-.78-.405-1.206-.4-.43-1.113-.43-.494 0-.886.208a1.54 1.54 0 0 0-.614.61q-.22.4-.221.971"/><path fill="#d4d4d8" fill-opacity=".8" d="M110.395 188.675v-9.455h3.194q1.114 0 1.819.402.711.397 1.053 1.076.342.678.342 1.514 0 .835-.342 1.519a2.55 2.55 0 0 1-1.043 1.089q-.706.402-1.81.402h-2.29v-1.016h2.253q.762 0 1.223-.263t.67-.711q.212-.453.212-1.02 0-.568-.212-1.016a1.52 1.52 0 0 0-.674-.702q-.466-.258-1.237-.258h-2.013v8.439zm8.64-9.455 2.806 7.959h.111l2.807-7.959h1.2l-3.471 9.455h-1.182l-3.472-9.455zm15.561 2.955h-1.145a2.4 2.4 0 0 0-.356-.868 2.4 2.4 0 0 0-.609-.628 2.6 2.6 0 0 0-.79-.388 3.2 3.2 0 0 0-.904-.129q-.859 0-1.556.434-.693.434-1.103 1.279-.407.844-.407 2.073 0 1.227.407 2.072.41.846 1.103 1.279.697.434 1.556.434.47 0 .904-.129.435-.13.79-.383.36-.26.609-.633.254-.379.356-.868h1.145a3.8 3.8 0 0 1-.471 1.297 3.6 3.6 0 0 1-.85.975 3.7 3.7 0 0 1-1.14.604 4.2 4.2 0 0 1-1.343.208q-1.21 0-2.152-.591-.94-.591-1.482-1.68-.54-1.09-.54-2.585 0-1.496.54-2.586.541-1.089 1.482-1.68.942-.591 2.152-.591.715 0 1.343.208.633.207 1.14.609.508.397.85.97.34.567.471 1.297m6.725.997-.979.277a1.8 1.8 0 0 0-.272-.476 1.3 1.3 0 0 0-.481-.387q-.304-.153-.78-.153-.65 0-1.085.3-.429.296-.429.753 0 .406.296.642.295.235.923.392l1.052.258q.951.231 1.418.707.466.47.466 1.214 0 .609-.351 1.089-.346.481-.969.758-.624.276-1.45.277-1.085 0-1.796-.471t-.9-1.376l1.034-.259q.148.573.559.859.415.286 1.085.286.761 0 1.209-.323.453-.327.453-.785a.83.83 0 0 0-.259-.618q-.258-.255-.794-.379l-1.182-.277q-.974-.23-1.431-.715-.453-.49-.452-1.224 0-.6.337-1.062a2.3 2.3 0 0 1 .928-.724q.59-.263 1.338-.263 1.053 0 1.653.461.604.462.859 1.219"/><path fill="#6b6b70" d="M242.812 190.766q-.728 0-1.252-.188a2.65 2.65 0 0 1-1.424-1.125l.802-.562q.135.178.345.409.208.234.571.405.367.174.958.174.793 0 1.309-.383t.515-1.202v-1.329h-.085a6 6 0 0 1-.315.443 1.8 1.8 0 0 1-.58.464q-.375.201-1.014.201a2.73 2.73 0 0 1-1.423-.375 2.63 2.63 0 0 1-.993-1.091q-.363-.716-.362-1.739 0-1.005.353-1.751.354-.75.985-1.16.63-.413 1.457-.413.639 0 1.014.213.38.209.58.477.204.265.315.435h.102v-1.04h.972v6.733q0 .844-.383 1.372a2.17 2.17 0 0 1-1.023.78 3.9 3.9 0 0 1-1.424.252m-.034-3.597q.606 0 1.023-.277.418-.277.635-.797t.217-1.244q0-.708-.213-1.249a1.9 1.9 0 0 0-.63-.848q-.418-.306-1.032-.306-.639 0-1.065.323a1.97 1.97 0 0 0-.635.87 3.4 3.4 0 0 0-.209 1.21q0 .681.213 1.206.217.52.64.818.426.294 1.056.294m7.449 1.142q-.945 0-1.632-.417a2.8 2.8 0 0 1-1.052-1.177q-.367-.757-.367-1.764 0-1.005.367-1.773a2.9 2.9 0 0 1 1.031-1.201q.665-.435 1.551-.435.512 0 1.01.171.498.17.908.554.409.379.652 1.005.243.627.243 1.543v.426h-5.046v-.869h4.023q0-.555-.222-.989a1.67 1.67 0 0 0-.622-.686 1.74 1.74 0 0 0-.946-.251q-.601 0-1.04.298a1.96 1.96 0 0 0-.669.767 2.25 2.25 0 0 0-.234 1.014v.58q0 .741.256 1.257.26.511.72.78.46.264 1.069.264.396 0 .716-.111.324-.115.558-.341a1.55 1.55 0 0 0 .363-.571l.971.273a2.16 2.16 0 0 1-.515.869q-.363.37-.895.58a3.3 3.3 0 0 1-1.198.204m7.087-6.682v.853h-3.392v-.853zm-2.403-1.568h1.005v6.239q0 .426.124.639a.64.64 0 0 0 .324.281q.2.069.422.068.165 0 .272-.017l.171-.034.204.904a2 2 0 0 1-.285.076 2 2 0 0 1-.465.043q-.426 0-.835-.183a1.66 1.66 0 0 1-.673-.558q-.264-.375-.264-.946zm8.024 5.063a.74.74 0 0 1-.542-.226.74.74 0 0 1-.225-.541.74.74 0 0 1 .225-.542.74.74 0 0 1 .542-.225q.315 0 .541.225.226.226.226.542a.7.7 0 0 1-.107.383.8.8 0 0 1-.277.281.7.7 0 0 1-.383.103m6.952-5.676v8.727h-1.006v-8.727zm1.842 8.727v-6.546h1.006v6.546zm.511-7.637a.7.7 0 0 1-.507-.2.64.64 0 0 1-.208-.481q0-.281.208-.482a.72.72 0 0 1 .507-.2q.294 0 .503.2a.64.64 0 0 1 .213.482.64.64 0 0 1-.213.481.7.7 0 0 1-.503.2m6.973 2.557-.903.256a1.7 1.7 0 0 0-.252-.439 1.2 1.2 0 0 0-.443-.358q-.28-.141-.72-.141-.6 0-1.002.277-.396.273-.396.695 0 .375.273.592.273.218.852.363l.972.238q.877.214 1.308.652.43.435.43 1.121 0 .562-.323 1.006a2.16 2.16 0 0 1-.895.698q-.576.256-1.338.256-1.002 0-1.658-.434-.657-.435-.831-1.27l.954-.239q.136.528.516.793.384.264 1.002.264.702 0 1.116-.298.418-.303.418-.725a.76.76 0 0 0-.239-.571q-.238-.234-.733-.349l-1.091-.256q-.899-.213-1.321-.661-.418-.451-.418-1.129 0-.554.312-.98.315-.426.856-.669a3 3 0 0 1 1.236-.243q.972 0 1.525.426.56.426.793 1.125m4.48-1.466v.853h-3.392v-.853zm-2.404-1.568h1.006v6.239q0 .426.124.639a.64.64 0 0 0 .324.281q.2.069.421.068.166 0 .273-.017l.171-.034.204.904a2 2 0 0 1-.285.076 2 2 0 0 1-.465.043q-.426 0-.835-.183a1.66 1.66 0 0 1-.673-.558q-.265-.375-.265-.946zm8.025 5.063a.74.74 0 0 1-.542-.226.74.74 0 0 1-.225-.541.74.74 0 0 1 .225-.542.74.74 0 0 1 .542-.225q.315 0 .541.225.226.226.226.542a.7.7 0 0 1-.107.383.8.8 0 0 1-.277.281.7.7 0 0 1-.383.103m7.429 3.051-1.994-6.546h1.057l1.415 5.012h.068l1.397-5.012h1.074l1.381 4.995h.068l1.415-4.995h1.057l-1.995 6.546h-.988l-1.432-5.029h-.102l-1.432 5.029zm10.193.153q-.621 0-1.129-.234a1.94 1.94 0 0 1-.805-.686q-.299-.452-.299-1.091 0-.562.222-.912a1.56 1.56 0 0 1 .592-.554q.371-.2.819-.298.451-.103.907-.162.597-.077.968-.115.374-.043.545-.141.175-.098.175-.341v-.034q0-.63-.345-.98-.342-.35-1.036-.35-.72 0-1.129.316-.41.315-.575.673l-.955-.341q.256-.596.682-.929.43-.336.937-.469.511-.135 1.006-.136.315 0 .724.077.414.072.797.302.388.23.644.695.255.464.255 1.244v4.313h-1.005v-.887h-.051a1.8 1.8 0 0 1-.341.456q-.239.243-.635.414t-.968.17m.154-.903q.597 0 1.006-.235.412-.234.622-.605.213-.37.213-.78v-.92q-.065.077-.281.141a5 5 0 0 1-.495.106 21 21 0 0 1-.963.128q-.392.051-.733.166a1.26 1.26 0 0 0-.545.337q-.205.221-.205.605 0 .524.388.793.392.264.993.264m7.529-5.796v.853h-3.392v-.853zm-2.404-1.568h1.006v6.239q0 .426.123.639a.65.65 0 0 0 .324.281q.2.069.422.068.166 0 .273-.017l.17-.034.205.904a2 2 0 0 1-.286.076 2 2 0 0 1-.464.043q-.426 0-.835-.183a1.66 1.66 0 0 1-.674-.558q-.264-.375-.264-.946zm6.505 8.25q-.92 0-1.585-.434a2.84 2.84 0 0 1-1.023-1.198q-.358-.762-.358-1.743 0-.997.367-1.76.37-.766 1.031-1.197.664-.435 1.551-.435.69 0 1.244.256.555.255.908.716.354.46.439 1.074h-1.006a1.55 1.55 0 0 0-.511-.793q-.392-.35-1.057-.349-.588 0-1.031.306a2 2 0 0 0-.686.857q-.243.55-.243 1.291 0 .759.239 1.321.243.562.681.874.444.31 1.04.311.393 0 .712-.137a1.47 1.47 0 0 0 .856-1.005h1.006a2.33 2.33 0 0 1-1.304 1.777q-.546.268-1.27.268m5.05-4.074v3.938h-1.006v-8.727h1.006v3.204h.085q.231-.507.69-.805.465-.303 1.236-.303.67 0 1.172.269.502.264.78.814.28.544.281 1.389v4.159h-1.005v-4.091q0-.78-.405-1.206-.4-.43-1.113-.43-.494 0-.886.208a1.54 1.54 0 0 0-.614.61q-.22.4-.221.971"/><path fill="#d4d4d8" fill-opacity=".8" d="M110.247 211.675v-7.091h1.053v1.108h.092q.221-.568.716-.882.493-.318 1.186-.318.702 0 1.168.318.471.313.734.882h.074q.272-.549.817-.873.545-.327 1.306-.327.951 0 1.556.595.605.591.605 1.842v4.746h-1.09v-4.746q0-.784-.429-1.122a1.6 1.6 0 0 0-1.011-.337q-.748 0-1.159.453-.41.447-.41 1.135v4.617h-1.108v-4.857q0-.605-.393-.974-.391-.374-1.011-.374a1.5 1.5 0 0 0-.794.226q-.364.227-.591.628a1.86 1.86 0 0 0-.221.919v4.432zm14.272.148q-1.025 0-1.768-.453a3.03 3.03 0 0 1-1.14-1.274q-.397-.822-.397-1.911 0-1.09.397-1.921.401-.835 1.117-1.302.72-.47 1.68-.47.554 0 1.094.184.54.185.984.6.443.41.706 1.09.263.678.263 1.671v.462h-5.466v-.942h4.358q0-.6-.24-1.071a1.8 1.8 0 0 0-.674-.743 1.9 1.9 0 0 0-1.025-.273q-.65 0-1.126.323-.471.32-.725.831a2.45 2.45 0 0 0-.254 1.099v.628q0 .803.277 1.362.282.554.78.845.5.285 1.159.286.43 0 .776-.12a1.65 1.65 0 0 0 .604-.37q.254-.249.393-.618l1.052.295a2.34 2.34 0 0 1-.558.942 2.7 2.7 0 0 1-.97.628 3.6 3.6 0 0 1-1.297.222m7.677-7.239v.923h-3.675v-.923zm-2.603-1.699h1.089v6.759q0 .46.134.692a.7.7 0 0 0 .351.305q.216.074.457.074.18 0 .295-.019l.185-.037.221.979a2 2 0 0 1-.309.083q-.198.046-.503.046a2.2 2.2 0 0 1-.905-.198 1.8 1.8 0 0 1-.729-.605q-.286-.407-.286-1.025zm4.242 8.79v-7.091h1.053v1.071h.073q.195-.527.702-.854.508-.328 1.145-.328.12 0 .3.005.18.004.273.014v1.108a3 3 0 0 0-.254-.042 2.5 2.5 0 0 0-.411-.032q-.517 0-.924.217-.401.211-.637.591a1.6 1.6 0 0 0-.23.854v4.487zm4.837 0v-7.091h1.089v7.091zm.554-8.273a.77.77 0 0 1-.549-.217.7.7 0 0 1-.227-.522q0-.305.227-.521a.77.77 0 0 1 .549-.217q.318 0 .545.217a.7.7 0 0 1 .231.521.7.7 0 0 1-.231.522.76.76 0 0 1-.545.217m5.412 8.421q-.998 0-1.718-.471a3.1 3.1 0 0 1-1.108-1.298q-.387-.826-.387-1.888 0-1.08.397-1.906.401-.831 1.117-1.298.72-.47 1.68-.47.748 0 1.348.277t.983.775.476 1.163h-1.09a1.7 1.7 0 0 0-.554-.858q-.424-.38-1.144-.379-.638 0-1.118.333-.475.327-.743.928-.263.595-.263 1.398 0 .822.259 1.431.263.61.738.947.48.337 1.127.337.424 0 .771-.148a1.59 1.59 0 0 0 .927-1.089h1.09a2.54 2.54 0 0 1-.457 1.131q-.36.498-.956.794-.59.291-1.375.291m9.403-5.651-.978.277a1.8 1.8 0 0 0-.273-.476 1.3 1.3 0 0 0-.48-.387q-.304-.153-.78-.153-.651 0-1.085.3-.429.296-.429.753 0 .406.295.642.295.235.924.392l1.052.258q.951.231 1.417.707.467.47.467 1.214 0 .609-.351 1.089-.346.481-.97.758-.622.276-1.449.277-1.085 0-1.796-.471t-.9-1.376l1.034-.259q.147.573.558.859.416.286 1.085.286.762 0 1.21-.323.452-.327.452-.785a.82.82 0 0 0-.258-.618q-.259-.255-.794-.379l-1.182-.277q-.975-.23-1.431-.715-.453-.49-.453-1.224 0-.6.337-1.062.342-.461.928-.724.59-.263 1.339-.263 1.053 0 1.653.461.604.462.858 1.219m2.564 5.577a.8.8 0 0 1-.587-.245.8.8 0 0 1-.244-.586q0-.342.244-.587a.8.8 0 0 1 .587-.244.8.8 0 0 1 .586.244.8.8 0 0 1 .245.587.87.87 0 0 1-.416.72.8.8 0 0 1-.415.111m3.801-2.659-.018-1.348h.221l3.103-3.158h1.348l-3.306 3.342h-.092zm-1.015 2.585v-9.455h1.089v9.455zm4.505 0-2.769-3.509.775-.757 3.379 4.266zm5.576.129q-.951 0-1.68-.337-.726-.342-1.131-.937a2.36 2.36 0 0 1-.402-1.367q-.005-.6.235-1.108.24-.512.656-.854.42-.346.937-.438v-.056a1.82 1.82 0 0 1-1.08-.761 2.3 2.3 0 0 1-.397-1.344q-.005-.72.364-1.288a2.6 2.6 0 0 1 1.016-.895q.651-.328 1.482-.328.822 0 1.468.328t1.016.895q.374.568.378 1.288a2.34 2.34 0 0 1-.411 1.344 1.82 1.82 0 0 1-1.066.761v.056q.513.092.923.438.411.342.656.854.244.508.249 1.108a2.4 2.4 0 0 1-.415 1.367 2.75 2.75 0 0 1-1.132.937q-.72.337-1.666.337m0-1.016q.642 0 1.108-.207.466-.208.72-.587.254-.378.259-.886a1.7 1.7 0 0 0-.277-.946 1.9 1.9 0 0 0-.744-.647 2.3 2.3 0 0 0-1.066-.235q-.605 0-1.08.235a1.9 1.9 0 0 0-.744.647 1.67 1.67 0 0 0-.263.946q-.004.508.245.886.254.379.725.587.47.207 1.117.207m0-4.487q.508 0 .9-.203.398-.203.623-.568.227-.365.231-.854a1.57 1.57 0 0 0-.226-.835 1.47 1.47 0 0 0-.614-.554 2 2 0 0 0-.914-.199q-.53 0-.928.199a1.43 1.43 0 0 0-.614.554 1.54 1.54 0 0 0-.212.835 1.6 1.6 0 0 0 .217.854q.225.365.623.568.397.203.914.203m10.023-.129-.978.277a1.8 1.8 0 0 0-.273-.476 1.3 1.3 0 0 0-.48-.387q-.305-.153-.78-.153-.65 0-1.085.3-.429.296-.429.753 0 .406.295.642.296.235.924.392l1.052.258q.952.231 1.417.707.467.47.467 1.214 0 .609-.351 1.089-.346.481-.97.758-.622.276-1.449.277-1.085 0-1.796-.471t-.9-1.376l1.034-.259q.148.573.559.859.415.286 1.084.286.762 0 1.21-.323.452-.327.452-.785a.82.82 0 0 0-.258-.618q-.259-.255-.794-.379l-1.182-.277q-.974-.23-1.431-.715-.453-.49-.453-1.224 0-.6.337-1.062.342-.461.928-.724a3.25 3.25 0 0 1 1.339-.263q1.053 0 1.653.461.604.462.858 1.219m2.564 5.577a.8.8 0 0 1-.587-.245.8.8 0 0 1-.244-.586q0-.342.244-.587a.8.8 0 0 1 .587-.244q.342 0 .586.244a.8.8 0 0 1 .245.587.87.87 0 0 1-.416.72.8.8 0 0 1-.415.111m2.786-.074v-7.091h1.089v7.091zm.554-8.273a.77.77 0 0 1-.55-.217.7.7 0 0 1-.226-.522q0-.305.226-.521a.77.77 0 0 1 .55-.217q.318 0 .545.217a.7.7 0 0 1 .23.521.7.7 0 0 1-.23.522.76.76 0 0 1-.545.217m5.411 8.421q-.96 0-1.685-.457a3.1 3.1 0 0 1-1.126-1.279q-.402-.822-.402-1.921 0-1.107.402-1.934a3.1 3.1 0 0 1 1.126-1.283q.726-.457 1.685-.457.961 0 1.681.457.725.456 1.126 1.283.407.827.407 1.934 0 1.1-.407 1.921a3.06 3.06 0 0 1-1.126 1.279q-.72.457-1.681.457m0-.979q.73 0 1.201-.374.47-.374.697-.983.226-.61.226-1.321 0-.71-.226-1.325a2.23 2.23 0 0 0-.697-.992q-.47-.38-1.201-.379-.729 0-1.2.379a2.23 2.23 0 0 0-.697.992q-.226.615-.226 1.325t.226 1.321q.226.61.697.983.471.374 1.2.374"/><path fill="#6b6b70" d="M286.777 213.766q-.728 0-1.252-.188a2.65 2.65 0 0 1-1.424-1.125l.801-.562q.136.178.346.409.208.234.571.405.366.174.958.174.793 0 1.309-.383t.515-1.202v-1.329h-.085a6 6 0 0 1-.315.443 1.8 1.8 0 0 1-.58.464q-.375.201-1.014.201a2.73 2.73 0 0 1-1.423-.375 2.63 2.63 0 0 1-.993-1.091q-.363-.716-.363-1.739 0-1.005.354-1.751.354-.75.985-1.16.63-.413 1.457-.413.639 0 1.014.213.38.209.58.477.204.265.315.435h.102v-1.04h.972v6.733q0 .844-.384 1.372a2.17 2.17 0 0 1-1.022.78 3.9 3.9 0 0 1-1.424.252m-.034-3.597q.606 0 1.023-.277t.635-.797.217-1.244q0-.708-.213-1.249a1.9 1.9 0 0 0-.63-.848q-.418-.306-1.032-.306-.639 0-1.065.323a1.97 1.97 0 0 0-.635.87 3.4 3.4 0 0 0-.209 1.21q0 .681.213 1.206.217.52.639.818.427.294 1.057.294m7.449 1.142q-.947 0-1.632-.417a2.8 2.8 0 0 1-1.053-1.177q-.366-.757-.366-1.764 0-1.005.366-1.773a2.9 2.9 0 0 1 1.032-1.201q.664-.435 1.551-.435.511 0 1.01.171.499.17.907.554.41.379.652 1.005.243.627.243 1.543v.426h-5.045v-.869h4.023q0-.555-.222-.989a1.67 1.67 0 0 0-.622-.686 1.74 1.74 0 0 0-.946-.251q-.601 0-1.04.298a1.96 1.96 0 0 0-.669.767 2.25 2.25 0 0 0-.234 1.014v.58q0 .741.255 1.257.26.511.721.78.46.264 1.069.264.396 0 .716-.111.324-.115.558-.341.235-.23.362-.571l.972.273a2.15 2.15 0 0 1-.516.869 2.5 2.5 0 0 1-.894.58 3.3 3.3 0 0 1-1.198.204m7.087-6.682v.853h-3.392v-.853zm-2.404-1.568h1.006v6.239q0 .426.124.639a.64.64 0 0 0 .323.281q.201.069.422.068.166 0 .273-.017l.171-.034.204.904a2 2 0 0 1-.285.076 2 2 0 0 1-.465.043q-.426 0-.835-.183a1.66 1.66 0 0 1-.673-.558q-.265-.375-.265-.946zm8.025 5.063a.74.74 0 0 1-.542-.226.74.74 0 0 1-.226-.541q0-.316.226-.542a.74.74 0 0 1 .542-.225q.315 0 .541.225.226.226.226.542a.7.7 0 0 1-.107.383.8.8 0 0 1-.277.281.7.7 0 0 1-.383.103m6.952-5.676v8.727h-1.006v-8.727zm1.842 8.727v-6.546h1.006v6.546zm.511-7.637a.7.7 0 0 1-.507-.2.64.64 0 0 1-.209-.481q0-.281.209-.482a.72.72 0 0 1 .507-.2q.294 0 .503.2a.64.64 0 0 1 .213.482.64.64 0 0 1-.213.481.7.7 0 0 1-.503.2m6.973 2.557-.903.256a1.7 1.7 0 0 0-.252-.439 1.2 1.2 0 0 0-.443-.358q-.282-.141-.72-.141-.601 0-1.002.277-.396.273-.396.695 0 .375.273.592.273.218.852.363l.972.238q.877.214 1.308.652.43.435.43 1.121 0 .562-.324 1.006a2.14 2.14 0 0 1-.895.698q-.575.256-1.338.256-1.001 0-1.657-.434-.657-.435-.831-1.27l.954-.239q.136.528.516.793.384.264 1.001.264.703 0 1.117-.298.417-.303.417-.725a.76.76 0 0 0-.238-.571q-.239-.234-.733-.349l-1.091-.256q-.899-.213-1.321-.661-.418-.451-.418-1.129 0-.554.311-.98.316-.426.857-.669a3 3 0 0 1 1.236-.243q.971 0 1.525.426.558.426.793 1.125m4.48-1.466v.853h-3.392v-.853zm-2.404-1.568h1.006v6.239q0 .426.124.639a.64.64 0 0 0 .323.281q.201.069.422.068.166 0 .273-.017l.17-.034.205.904a2 2 0 0 1-.286.076 2 2 0 0 1-.464.043q-.426 0-.835-.183a1.66 1.66 0 0 1-.674-.558q-.264-.375-.264-.946z"/><path fill="#ff383c" fill-opacity=".8" d="M78 245.175h-2.693v-8.727h2.812q1.27 0 2.174.524a3.43 3.43 0 0 1 1.385 1.495q.48.972.481 2.327 0 1.364-.486 2.348a3.46 3.46 0 0 1-1.415 1.509q-.929.524-2.258.524m-1.636-.938h1.568q1.082 0 1.794-.417a2.58 2.58 0 0 0 1.06-1.189q.35-.772.35-1.837 0-1.056-.345-1.819a2.55 2.55 0 0 0-1.031-1.177q-.686-.413-1.709-.413h-1.687zm10.176 1.074q-.946 0-1.632-.417a2.8 2.8 0 0 1-1.053-1.177q-.366-.757-.366-1.764 0-1.005.366-1.773a2.9 2.9 0 0 1 1.031-1.201q.665-.435 1.552-.435.51 0 1.01.171.498.17.907.554.41.379.652 1.005.243.627.243 1.543v.426h-5.046v-.869h4.023q0-.555-.221-.989a1.67 1.67 0 0 0-.623-.686 1.74 1.74 0 0 0-.945-.251q-.602 0-1.04.298-.435.294-.67.767a2.25 2.25 0 0 0-.234 1.014v.58q0 .741.256 1.257.26.511.72.78.46.264 1.07.264.396 0 .716-.111a1.5 1.5 0 0 0 .558-.341q.234-.23.362-.571l.972.273a2.16 2.16 0 0 1-.516.869q-.362.37-.895.58a3.3 3.3 0 0 1-1.197.204m5.245-4.074v3.938H90.78v-6.546h.971v1.023h.086q.23-.498.698-.801.47-.307 1.21-.307.666 0 1.164.273.498.269.776.818.276.546.277 1.381v4.159h-1.006v-4.091q0-.771-.4-1.202-.401-.434-1.1-.434-.482 0-.86.208-.375.21-.593.61t-.218.971m6.014 3.938v-6.546h1.006v6.546zm.512-7.637a.7.7 0 0 1-.507-.2.64.64 0 0 1-.21-.481q0-.281.21-.482a.72.72 0 0 1 .507-.2q.293 0 .503.2a.64.64 0 0 1 .213.482.64.64 0 0 1-.213.481.7.7 0 0 1-.503.2m5.08 7.773q-.945 0-1.632-.417a2.8 2.8 0 0 1-1.052-1.177q-.367-.757-.367-1.764 0-1.005.367-1.773a2.9 2.9 0 0 1 1.031-1.201q.665-.435 1.551-.435.512 0 1.01.171.498.17.908.554.409.379.652 1.005.243.627.243 1.543v.426h-5.046v-.869h4.023q0-.555-.222-.989a1.67 1.67 0 0 0-.622-.686 1.74 1.74 0 0 0-.946-.251q-.601 0-1.04.298a2 2 0 0 0-.669.767 2.25 2.25 0 0 0-.234 1.014v.58q0 .741.256 1.257.26.511.72.78a2.1 2.1 0 0 0 1.069.264q.397 0 .716-.111.324-.115.558-.341a1.55 1.55 0 0 0 .363-.571l.971.273a2.16 2.16 0 0 1-.515.869q-.363.37-.895.58a3.3 3.3 0 0 1-1.198.204m6.712 0a2.57 2.57 0 0 1-1.445-.413q-.626-.418-.98-1.176-.353-.763-.353-1.803 0-1.03.353-1.79.354-.758.985-1.172.63-.413 1.457-.413.64 0 1.01.213.375.209.571.477.2.265.311.435h.085v-3.221h1.006v8.727h-.972v-1.006h-.119q-.111.179-.315.452a1.9 1.9 0 0 1-.584.481q-.38.21-1.01.209m.136-.903q.606 0 1.023-.316.417-.32.635-.882.217-.567.217-1.308 0-.733-.213-1.283a1.87 1.87 0 0 0-.63-.86q-.419-.311-1.032-.311-.639 0-1.065.328-.422.324-.635.882a3.5 3.5 0 0 0-.209 1.244q0 .699.213 1.27.217.567.64.903.426.333 1.056.333"/><path fill="#d4d4d8" fill-opacity=".8" d="M110.247 270.334v-9.75h1.053v1.126h.129q.12-.185.332-.471.217-.29.619-.517.406-.23 1.099-.23.895 0 1.579.447.682.448 1.066 1.27.383.822.383 1.939 0 1.126-.383 1.953-.383.82-1.062 1.274-.678.447-1.565.448-.683 0-1.094-.227a2 2 0 0 1-.632-.521 7 7 0 0 1-.342-.49h-.092v3.749zm1.071-6.205q0 .803.236 1.418.236.609.687.955.453.342 1.108.342.684 0 1.141-.36a2.2 2.2 0 0 0 .692-.979q.236-.618.236-1.376a3.7 3.7 0 0 0-.231-1.348 2.1 2.1 0 0 0-.688-.955q-.457-.356-1.15-.356-.664 0-1.117.337-.452.333-.683.933-.231.596-.231 1.389m9.732 3.694q-.96 0-1.685-.457a3.1 3.1 0 0 1-1.127-1.279q-.4-.822-.401-1.921 0-1.107.401-1.934a3.1 3.1 0 0 1 1.127-1.283q.725-.457 1.685-.457t1.68.457q.725.456 1.127 1.283.405.827.406 1.934 0 1.1-.406 1.921a3.07 3.07 0 0 1-1.127 1.279q-.72.457-1.68.457m0-.979q.729 0 1.2-.374.47-.374.697-.983.226-.61.226-1.321 0-.71-.226-1.325a2.23 2.23 0 0 0-.697-.992q-.471-.38-1.2-.379-.73 0-1.201.379a2.24 2.24 0 0 0-.697.992q-.225.615-.226 1.325 0 .71.226 1.321.227.61.697.983.47.374 1.201.374m7.553.979q-.885 0-1.565-.448-.678-.453-1.061-1.274-.384-.827-.384-1.953 0-1.117.384-1.939.383-.822 1.066-1.27.684-.447 1.579-.447.692 0 1.094.23a1.9 1.9 0 0 1 .619.517q.216.286.337.471h.092v-3.49h1.089v9.455h-1.052v-1.09h-.129q-.12.195-.342.49a2 2 0 0 1-.632.521q-.411.227-1.095.227m.148-.979q.655 0 1.108-.342.453-.346.688-.955.235-.615.235-1.418 0-.793-.23-1.389-.231-.6-.684-.933-.452-.337-1.117-.337-.692 0-1.154.356a2.13 2.13 0 0 0-.688.955q-.226.6-.226 1.348 0 .758.231 1.376.236.614.692.979.462.36 1.145.36m10.272-4.672-.979.277a1.8 1.8 0 0 0-.272-.476 1.3 1.3 0 0 0-.48-.387q-.305-.153-.781-.153-.65 0-1.084.3-.43.296-.43.753 0 .407.296.642.295.235.923.392l1.053.258q.95.231 1.417.707.466.47.466 1.214 0 .609-.351 1.089-.346.481-.969.758-.624.276-1.45.277-1.085 0-1.796-.471t-.9-1.376l1.034-.259q.148.573.559.859.415.286 1.085.286.762 0 1.209-.323.453-.327.453-.785a.83.83 0 0 0-.259-.618q-.258-.255-.794-.379l-1.182-.277q-.974-.23-1.431-.715-.452-.49-.452-1.224 0-.6.337-1.062.342-.461.928-.724.591-.263 1.338-.263 1.053 0 1.653.461.605.462.859 1.219m3.579 1.366.074-2.031-1.718 1.09-.443-.776 1.81-.942-1.81-.941.443-.776 1.718 1.09-.074-2.032h.886l-.074 2.032 1.718-1.09.443.776-1.81.941 1.81.942-.443.776-1.718-1.09.074 2.031z"/><path fill="#6b6b70" d="M169.83 267.311q-.92 0-1.586-.434a2.83 2.83 0 0 1-1.022-1.198q-.358-.762-.358-1.743 0-.997.366-1.76.37-.767 1.031-1.197.666-.435 1.551-.435.692 0 1.245.256.554.255.907.716.354.46.439 1.074h-1.005a1.56 1.56 0 0 0-.512-.793q-.391-.35-1.056-.349-.588 0-1.032.306a2 2 0 0 0-.686.857q-.243.55-.243 1.291 0 .759.239 1.321.243.562.682.874.443.31 1.04.311.391 0 .711-.137a1.46 1.46 0 0 0 .857-1.005h1.005a2.3 2.3 0 0 1-.421 1.044 2.36 2.36 0 0 1-.883.733q-.544.268-1.269.268m4.044-.136v-6.546h.971v.989h.068q.18-.486.648-.788a1.9 1.9 0 0 1 1.057-.303q.11 0 .277.004.166.004.251.013v1.023a3 3 0 0 0-.234-.039 2.4 2.4 0 0 0-.379-.029q-.478 0-.853.2a1.5 1.5 0 0 0-.588.545 1.47 1.47 0 0 0-.213.789v4.142zm7.01.136q-.946 0-1.633-.417a2.8 2.8 0 0 1-1.052-1.177q-.366-.758-.367-1.764 0-1.005.367-1.773a2.9 2.9 0 0 1 1.031-1.201q.665-.435 1.551-.435.512 0 1.01.171.499.17.908.554.41.379.652 1.005.243.627.243 1.543v.426h-5.046v-.869h4.023q0-.554-.222-.989a1.66 1.66 0 0 0-.622-.686 1.74 1.74 0 0 0-.946-.251q-.6 0-1.04.298a2 2 0 0 0-.669.767 2.25 2.25 0 0 0-.234 1.014v.58q0 .741.256 1.257.26.512.72.78.46.264 1.07.264.396 0 .715-.111a1.5 1.5 0 0 0 .559-.341q.234-.23.362-.571l.971.273a2.16 2.16 0 0 1-.515.869q-.363.37-.895.58a3.3 3.3 0 0 1-1.197.204m6.166.017q-.622 0-1.13-.234a1.94 1.94 0 0 1-.805-.686q-.298-.452-.298-1.091 0-.562.221-.912.222-.354.593-.554.37-.2.818-.298.452-.104.908-.162.596-.077.967-.115.375-.044.545-.141.175-.098.175-.341v-.034q0-.63-.345-.98-.341-.35-1.036-.35-.72 0-1.129.316-.409.315-.575.673l-.955-.341q.256-.596.682-.929.43-.336.938-.469.51-.135 1.005-.136.315 0 .725.077.413.072.797.302.388.23.643.695.256.464.256 1.244v4.313h-1.006v-.887h-.051a1.8 1.8 0 0 1-.341.456q-.239.243-.635.414-.397.17-.967.17m.153-.903q.597 0 1.006-.235a1.6 1.6 0 0 0 .835-1.385v-.92q-.064.077-.281.141a5 5 0 0 1-.495.106 21 21 0 0 1-.963.128 4 4 0 0 0-.733.166 1.26 1.26 0 0 0-.545.337q-.204.221-.205.605 0 .524.388.793.393.264.993.264m7.529-5.796v.853h-3.392v-.853zm-2.404-1.568h1.006v6.239q0 .426.124.639a.64.64 0 0 0 .324.281q.2.068.421.068.167 0 .273-.017l.171-.034.204.904a2 2 0 0 1-.285.076 2 2 0 0 1-.465.043q-.426 0-.835-.183a1.66 1.66 0 0 1-.673-.558q-.264-.375-.265-.946zm6.591 8.25q-.947 0-1.632-.417a2.8 2.8 0 0 1-1.053-1.177q-.366-.758-.366-1.764 0-1.005.366-1.773a2.9 2.9 0 0 1 1.031-1.201q.665-.435 1.551-.435.512 0 1.01.171.499.17.908.554.41.379.652 1.005.243.627.243 1.543v.426h-5.046v-.869h4.023q0-.554-.221-.989a1.67 1.67 0 0 0-.623-.686 1.74 1.74 0 0 0-.946-.251q-.6 0-1.039.298a1.96 1.96 0 0 0-.669.767 2.24 2.24 0 0 0-.235 1.014v.58q0 .741.256 1.257.26.512.72.78.46.264 1.07.264.396 0 .716-.111.323-.115.558-.341.234-.23.362-.571l.972.273a2.2 2.2 0 0 1-.516.869q-.362.37-.895.58a3.3 3.3 0 0 1-1.197.204m8.348-3.187a.74.74 0 0 1-.542-.226.74.74 0 0 1-.225-.541.74.74 0 0 1 .225-.542.74.74 0 0 1 .542-.225q.315 0 .541.225.226.226.226.542a.7.7 0 0 1-.107.383.8.8 0 0 1-.277.281.7.7 0 0 1-.383.103m10.071.375v-3.87h1.006v6.546h-1.006v-1.108h-.068a2.15 2.15 0 0 1-.716.848q-.486.345-1.227.345-.614 0-1.091-.268a1.9 1.9 0 0 1-.75-.819q-.273-.55-.273-1.385v-4.159h1.006v4.091q0 .716.401 1.142.405.426 1.031.426.375 0 .763-.191.392-.192.656-.588.268-.397.268-1.01m2.848 5.13v-9h.972v1.04h.119q.11-.17.307-.435a1.8 1.8 0 0 1 .571-.477q.375-.213 1.014-.213.827 0 1.457.413.631.414.985 1.172.353.76.353 1.79 0 1.04-.353 1.803-.354.758-.98 1.176a2.57 2.57 0 0 1-1.445.413q-.63 0-1.01-.209a1.9 1.9 0 0 1-.584-.481 7 7 0 0 1-.315-.452h-.085v3.46zm.989-5.727q0 .741.217 1.308.218.562.635.882.417.316 1.023.316.63 0 1.052-.333.426-.336.639-.903.218-.571.218-1.27 0-.69-.213-1.244a1.9 1.9 0 0 0-.635-.882q-.422-.328-1.061-.328-.613 0-1.032.311a1.87 1.87 0 0 0-.63.86q-.213.55-.213 1.283m8.795 3.409a2.57 2.57 0 0 1-1.444-.413q-.627-.418-.981-1.176-.353-.764-.353-1.803 0-1.03.353-1.79.354-.758.985-1.172.63-.413 1.457-.413.64 0 1.01.213.375.209.571.477.2.265.311.435h.085v-3.221h1.006v8.727h-.971v-1.006h-.12q-.111.179-.315.452a1.9 1.9 0 0 1-.584.481q-.379.21-1.01.209m.137-.903q.605 0 1.022-.316.418-.32.635-.882.218-.567.218-1.308 0-.733-.214-1.283a1.87 1.87 0 0 0-.63-.86q-.418-.312-1.031-.311-.64 0-1.066.328-.422.324-.635.882a3.5 3.5 0 0 0-.209 1.244q0 .699.214 1.27.216.567.639.903.426.333 1.057.333m6.771.92q-.622 0-1.129-.234a1.94 1.94 0 0 1-.806-.686q-.298-.452-.298-1.091 0-.562.221-.912.222-.354.593-.554.37-.2.818-.298.452-.104.908-.162.596-.077.967-.115.375-.044.545-.141.175-.098.175-.341v-.034q0-.63-.345-.98-.34-.35-1.036-.35-.72 0-1.129.316-.409.315-.575.673l-.955-.341q.256-.596.682-.929.43-.336.938-.469a4 4 0 0 1 1.005-.136q.316 0 .725.077.413.072.797.302.388.23.643.695.256.464.256 1.244v4.313h-1.006v-.887h-.051a1.8 1.8 0 0 1-.341.456q-.239.243-.635.414t-.967.17m.153-.903q.597 0 1.006-.235a1.59 1.59 0 0 0 .835-1.385v-.92q-.063.077-.281.141a5 5 0 0 1-.494.106 21 21 0 0 1-.963.128q-.393.052-.733.166a1.26 1.26 0 0 0-.546.337q-.204.221-.204.605 0 .524.387.793.393.264.993.264m7.529-5.796v.853h-3.392v-.853zm-2.403-1.568h1.005v6.239q0 .426.124.639a.64.64 0 0 0 .324.281q.2.068.422.068.165 0 .272-.017l.171-.034.204.904a2 2 0 0 1-.285.076 2 2 0 0 1-.465.043q-.426 0-.835-.183a1.66 1.66 0 0 1-.673-.558q-.264-.375-.264-.946zm6.59 8.25q-.947 0-1.632-.417a2.8 2.8 0 0 1-1.053-1.177q-.366-.758-.366-1.764 0-1.005.366-1.773a2.9 2.9 0 0 1 1.031-1.201q.666-.435 1.552-.435.51 0 1.009.171.499.17.908.554.41.379.652 1.005.243.627.243 1.543v.426h-5.045v-.869h4.022q0-.554-.221-.989a1.7 1.7 0 0 0-.622-.686 1.74 1.74 0 0 0-.946-.251q-.602 0-1.04.298a1.96 1.96 0 0 0-.669.767 2.24 2.24 0 0 0-.235 1.014v.58q0 .741.256 1.257.26.512.72.78.46.264 1.07.264.396 0 .716-.111.324-.115.558-.341.234-.23.362-.571l.972.273a2.16 2.16 0 0 1-.516.869q-.362.37-.895.58a3.3 3.3 0 0 1-1.197.204m8.348-3.187a.74.74 0 0 1-.541-.226.74.74 0 0 1-.226-.541q0-.316.226-.542a.74.74 0 0 1 .541-.225q.315 0 .541.225a.74.74 0 0 1 .226.542.7.7 0 0 1-.107.383.8.8 0 0 1-.277.281.7.7 0 0 1-.383.103m8.418 3.187a2.57 2.57 0 0 1-1.444-.413q-.627-.418-.981-1.176-.353-.764-.353-1.803 0-1.03.353-1.79.354-.758.985-1.172.63-.413 1.457-.413.64 0 1.01.213.375.209.571.477.2.265.311.435h.085v-3.221h1.006v8.727h-.971v-1.006h-.12q-.111.179-.315.452a1.9 1.9 0 0 1-.584.481q-.379.21-1.01.209m.137-.903q.605 0 1.022-.316.418-.32.635-.882.218-.567.218-1.308 0-.733-.214-1.283a1.87 1.87 0 0 0-.63-.86q-.418-.312-1.031-.311-.64 0-1.066.328-.422.324-.635.882a3.5 3.5 0 0 0-.209 1.244q0 .699.213 1.27.217.567.64.903.426.333 1.057.333m7.589.903q-.946 0-1.632-.417a2.8 2.8 0 0 1-1.053-1.177q-.366-.758-.366-1.764 0-1.005.366-1.773a2.9 2.9 0 0 1 1.032-1.201q.664-.435 1.551-.435.511 0 1.01.171.498.17.907.554.41.379.652 1.005.243.627.243 1.543v.426h-5.045v-.869h4.022q0-.554-.221-.989a1.67 1.67 0 0 0-.622-.686 1.74 1.74 0 0 0-.946-.251q-.601 0-1.04.298a1.96 1.96 0 0 0-.669.767 2.25 2.25 0 0 0-.234 1.014v.58q0 .741.255 1.257.261.512.72.78.46.264 1.07.264.396 0 .716-.111.324-.115.558-.341.234-.23.362-.571l.972.273a2.15 2.15 0 0 1-.516.869q-.361.37-.895.58a3.3 3.3 0 0 1-1.197.204m5.246-8.863v8.727h-1.006v-8.727zm4.586 8.863q-.947 0-1.632-.417a2.8 2.8 0 0 1-1.053-1.177q-.366-.758-.366-1.764 0-1.005.366-1.773a2.9 2.9 0 0 1 1.032-1.201q.664-.435 1.551-.435.511 0 1.01.171.498.17.907.554.41.379.652 1.005.243.627.243 1.543v.426h-5.045v-.869h4.023q0-.554-.222-.989a1.67 1.67 0 0 0-.622-.686 1.74 1.74 0 0 0-.946-.251q-.601 0-1.04.298a1.96 1.96 0 0 0-.669.767 2.25 2.25 0 0 0-.234 1.014v.58q0 .741.255 1.257.261.512.72.78.46.264 1.07.264.396 0 .716-.111.324-.115.558-.341.234-.23.362-.571l.972.273a2.15 2.15 0 0 1-.516.869q-.361.37-.895.58a3.3 3.3 0 0 1-1.197.204m7.087-6.682v.853h-3.392v-.853zm-2.404-1.568h1.006v6.239q0 .426.124.639a.64.64 0 0 0 .323.281q.201.068.422.068.166 0 .273-.017l.17-.034.205.904a2 2 0 0 1-.286.076 2 2 0 0 1-.464.043q-.426 0-.835-.183a1.66 1.66 0 0 1-.674-.558q-.264-.375-.264-.946zm6.59 8.25q-.945 0-1.632-.417a2.8 2.8 0 0 1-1.052-1.177q-.367-.758-.367-1.764 0-1.005.367-1.773a2.9 2.9 0 0 1 1.031-1.201q.664-.435 1.551-.435.512 0 1.01.171.499.17.908.554.41.379.652 1.005.243.627.243 1.543v.426h-5.046v-.869h4.023q0-.554-.222-.989a1.67 1.67 0 0 0-.622-.686 1.74 1.74 0 0 0-.946-.251q-.6 0-1.04.298a2 2 0 0 0-.669.767 2.25 2.25 0 0 0-.234 1.014v.58q0 .741.256 1.257.26.512.72.78a2.1 2.1 0 0 0 1.069.264q.397 0 .716-.111a1.5 1.5 0 0 0 .559-.341q.234-.23.362-.571l.971.273a2.16 2.16 0 0 1-.515.869q-.363.37-.895.58a3.3 3.3 0 0 1-1.198.204m8.348-3.187a.74.74 0 0 1-.541-.226.74.74 0 0 1-.226-.541q0-.316.226-.542a.74.74 0 0 1 .541-.225.74.74 0 0 1 .542.225q.225.226.226.542a.8.8 0 0 1-.384.664.7.7 0 0 1-.384.103m5.947 5.505v-9h.972v1.04h.119q.11-.17.307-.435a1.8 1.8 0 0 1 .571-.477q.375-.213 1.014-.213.826 0 1.458.413.63.414.984 1.172.354.76.354 1.79 0 1.04-.354 1.803-.354.758-.98 1.176a2.57 2.57 0 0 1-1.445.413q-.63 0-1.01-.209a1.9 1.9 0 0 1-.584-.481 7 7 0 0 1-.315-.452h-.085v3.46zm.989-5.727q0 .741.217 1.308.218.562.635.882.418.316 1.023.316.63 0 1.052-.333a2.03 2.03 0 0 0 .64-.903q.216-.571.217-1.27 0-.69-.213-1.244a1.9 1.9 0 0 0-.635-.882q-.422-.328-1.061-.328-.614 0-1.031.311a1.86 1.86 0 0 0-.631.86q-.213.55-.213 1.283m8.25 3.426q-.622 0-1.129-.234a1.94 1.94 0 0 1-.806-.686q-.298-.452-.298-1.091 0-.562.221-.912.222-.354.593-.554.37-.2.818-.298.452-.104.908-.162.596-.077.967-.115.375-.044.545-.141.175-.098.175-.341v-.034q0-.63-.345-.98-.34-.35-1.036-.35-.72 0-1.129.316-.409.315-.575.673l-.955-.341q.256-.596.682-.929.43-.336.938-.469a4 4 0 0 1 1.005-.136q.316 0 .725.077.413.072.797.302.387.23.643.695t.256 1.244v4.313h-1.006v-.887h-.051a1.8 1.8 0 0 1-.341.456q-.239.243-.635.414t-.967.17m.153-.903q.597 0 1.006-.235a1.59 1.59 0 0 0 .835-1.385v-.92q-.063.077-.281.141a5 5 0 0 1-.494.106 21 21 0 0 1-.963.128q-.393.052-.733.166a1.26 1.26 0 0 0-.546.337q-.204.221-.204.605 0 .524.387.793.393.264.993.264m7.529-5.796v.853h-3.392v-.853zm-2.403-1.568h1.005v6.239q0 .426.124.639a.64.64 0 0 0 .324.281q.2.068.422.068.165 0 .272-.017l.171-.034.204.904a2 2 0 0 1-.285.076 2 2 0 0 1-.465.043q-.426 0-.835-.183a1.66 1.66 0 0 1-.673-.558q-.264-.375-.264-.946zm6.505 8.25q-.92 0-1.586-.434a2.83 2.83 0 0 1-1.022-1.198q-.358-.762-.358-1.743 0-.997.366-1.76.37-.767 1.031-1.197.666-.435 1.552-.435.69 0 1.244.256.554.255.908.716.353.46.438 1.074h-1.005a1.56 1.56 0 0 0-.512-.793q-.392-.35-1.056-.349-.588 0-1.032.306a2 2 0 0 0-.686.857q-.243.55-.243 1.291 0 .759.239 1.321.243.562.682.874.443.31 1.04.311.392 0 .711-.137a1.46 1.46 0 0 0 .857-1.005h1.005a2.3 2.3 0 0 1-.421 1.044 2.36 2.36 0 0 1-.883.733q-.545.268-1.269.268m5.049-4.074v3.938h-1.005v-8.727h1.005v3.204h.086q.23-.507.69-.805.464-.303 1.236-.303.669 0 1.172.269a1.8 1.8 0 0 1 .779.814q.282.545.282 1.389v4.159h-1.006v-4.091q0-.78-.405-1.206-.4-.43-1.112-.43-.495 0-.886.208-.389.21-.614.61-.222.4-.222.971"/><path fill="#6b6b70" fill-opacity=".2" d="M74.25 286.175h265v1h-265z"/><path fill="#05df72" d="m75.546 308.237.647-.664 2.25 2.215 4.654-4.636.664.665-5.318 5.301z"/><path fill="#d4d4d8" d="M89.252 312.175v-8.727h2.949q1.023 0 1.679.349.656.345.972.95t.315 1.377q0 .771-.315 1.368-.315.596-.968.937-.651.337-1.666.337h-2.386v-.955h2.352q.698 0 1.125-.204.43-.205.622-.58.195-.38.196-.903 0-.524-.196-.917a1.34 1.34 0 0 0-.626-.605q-.431-.217-1.138-.217h-1.858v7.79zm4.108-3.921 2.148 3.921H94.28l-2.114-3.921zm6.106 4.057q-.947 0-1.632-.417a2.8 2.8 0 0 1-1.053-1.177q-.367-.758-.367-1.764 0-1.005.367-1.773.37-.77 1.031-1.201.664-.435 1.551-.435.512 0 1.01.171.499.17.908.554.41.379.652 1.005.243.627.243 1.543v.426H97.13v-.869h4.023q0-.554-.222-.989a1.66 1.66 0 0 0-.622-.686 1.74 1.74 0 0 0-.946-.251q-.6 0-1.04.298-.435.294-.668.767a2.25 2.25 0 0 0-.235 1.014v.58q0 .741.256 1.257.26.512.72.78.46.264 1.07.264.396 0 .715-.111a1.5 1.5 0 0 0 .559-.341q.234-.23.362-.571l.972.273a2.2 2.2 0 0 1-.516.869q-.363.37-.895.58a3.3 3.3 0 0 1-1.197.204m6.166.017q-.622 0-1.13-.234a1.94 1.94 0 0 1-.805-.686q-.298-.452-.298-1.091 0-.562.221-.912.222-.354.593-.554.37-.2.818-.298.452-.104.908-.162.596-.077.967-.115.375-.044.545-.141.175-.098.175-.341v-.034q0-.63-.345-.98-.341-.35-1.036-.35-.72 0-1.129.316-.409.315-.575.673l-.955-.341q.256-.596.682-.929.43-.336.938-.469a4 4 0 0 1 1.005-.136q.316 0 .725.077.413.072.797.302.387.23.643.695t.256 1.244v4.313h-1.006v-.887h-.051a1.8 1.8 0 0 1-.341.456q-.239.243-.635.414-.397.17-.967.17m.153-.903q.597 0 1.006-.235a1.6 1.6 0 0 0 .835-1.385v-.92q-.064.077-.281.141a5 5 0 0 1-.495.106 21 21 0 0 1-.963.128 4 4 0 0 0-.733.166 1.26 1.26 0 0 0-.545.337q-.204.221-.205.605 0 .524.388.793.393.264.993.264m7.154.886a2.57 2.57 0 0 1-1.445-.413q-.626-.418-.98-1.176-.354-.764-.353-1.803 0-1.03.353-1.79.354-.758.985-1.172.63-.413 1.457-.413.64 0 1.01.213.375.209.571.477.2.265.311.435h.085v-3.221h1.006v8.727h-.972v-1.006h-.119q-.111.179-.315.452a1.9 1.9 0 0 1-.584.481q-.38.21-1.01.209m.136-.903q.606 0 1.023-.316.417-.32.635-.882.217-.567.217-1.308 0-.733-.213-1.283a1.87 1.87 0 0 0-.63-.86q-.418-.312-1.032-.311-.639 0-1.065.328-.422.324-.635.882a3.5 3.5 0 0 0-.209 1.244q0 .699.213 1.27.217.567.639.903.427.333 1.057.333m8.595-3.443v.937h-3.818v-.937zm4.429 4.346q-.886 0-1.555-.422a2.86 2.86 0 0 1-1.04-1.18q-.37-.759-.371-1.773 0-1.023.371-1.785.374-.764 1.04-1.185.669-.422 1.555-.422t1.551.422q.67.421 1.04 1.185.375.762.375 1.785 0 1.014-.375 1.773a2.8 2.8 0 0 1-1.04 1.18q-.664.423-1.551.422m0-.903q.673 0 1.108-.345.435-.346.643-.908.21-.562.209-1.219 0-.656-.209-1.223a2.06 2.06 0 0 0-.643-.916q-.435-.35-1.108-.349-.673 0-1.108.349-.435.35-.643.916-.21.567-.209 1.223 0 .657.209 1.219.208.562.643.908.435.345 1.108.345m5.507-3.171v3.938H130.6v-6.546h.972v1.023h.085q.23-.498.699-.801.469-.307 1.21-.307.665 0 1.163.273.499.269.776.818.277.546.277 1.381v4.159h-1.006v-4.091q0-.771-.4-1.202-.4-.435-1.1-.434-.482 0-.861.208a1.5 1.5 0 0 0-.592.61q-.217.4-.217.971m7.019-4.789v8.727h-1.005v-8.727zm2.49 11.181a2.2 2.2 0 0 1-.456-.042 1.2 1.2 0 0 1-.277-.077l.256-.886q.366.093.648.068a.78.78 0 0 0 .498-.252q.222-.22.405-.72l.187-.511-2.42-6.58h1.091l1.807 5.216h.068l1.807-5.216h1.091l-2.779 7.5a2.9 2.9 0 0 1-.464.84q-.277.336-.644.498a2 2 0 0 1-.818.162m11.333-2.301q-.622 0-1.129-.234a1.94 1.94 0 0 1-.806-.686q-.298-.452-.298-1.091 0-.562.222-.912a1.56 1.56 0 0 1 .592-.554q.37-.2.818-.298.452-.104.908-.162.597-.077.967-.115.375-.044.546-.141.174-.098.174-.341v-.034q0-.63-.345-.98-.34-.35-1.035-.35-.72 0-1.129.316-.41.315-.576.673l-.954-.341q.255-.596.682-.929.43-.336.937-.469.511-.135 1.006-.136a4 4 0 0 1 .724.077q.413.072.797.302.388.23.643.695.256.464.256 1.244v4.313h-1.006v-.887h-.051a1.8 1.8 0 0 1-.341.456q-.238.243-.635.414-.396.17-.967.17m.154-.903q.596 0 1.005-.235a1.59 1.59 0 0 0 .835-1.385v-.92q-.063.077-.281.141a5 5 0 0 1-.494.106 21 21 0 0 1-.963.128q-.393.052-.733.166a1.26 1.26 0 0 0-.546.337q-.204.221-.204.605 0 .524.388.793.392.264.993.264m7.341.886q-.92 0-1.585-.434a2.83 2.83 0 0 1-1.023-1.198q-.358-.762-.358-1.743 0-.997.366-1.76a2.9 2.9 0 0 1 1.032-1.197q.665-.435 1.551-.435.69 0 1.244.256.554.255.908.716t.439 1.074h-1.006a1.56 1.56 0 0 0-.511-.793q-.393-.35-1.057-.349-.588 0-1.031.306a2 2 0 0 0-.687.857q-.242.55-.242 1.291 0 .759.238 1.321.243.562.682.874.444.31 1.04.311.391 0 .711-.137a1.46 1.46 0 0 0 .857-1.005h1.006a2.34 2.34 0 0 1-.422 1.044 2.36 2.36 0 0 1-.882.733q-.546.268-1.27.268m6.703 0q-.92 0-1.585-.434a2.84 2.84 0 0 1-1.023-1.198q-.358-.762-.358-1.743 0-.997.367-1.76.37-.767 1.031-1.197.665-.435 1.551-.435.69 0 1.244.256.555.255.908.716.354.46.439 1.074h-1.006a1.56 1.56 0 0 0-.511-.793q-.393-.35-1.057-.349-.588 0-1.031.306a2 2 0 0 0-.686.857q-.243.55-.243 1.291 0 .759.238 1.321.244.562.682.874.443.31 1.04.311.392 0 .712-.137a1.47 1.47 0 0 0 .856-1.005h1.006a2.34 2.34 0 0 1-.422 1.044 2.36 2.36 0 0 1-.882.733q-.546.268-1.27.268m6.788 0q-.945 0-1.632-.417a2.8 2.8 0 0 1-1.052-1.177q-.367-.758-.367-1.764 0-1.005.367-1.773a2.9 2.9 0 0 1 1.031-1.201q.665-.435 1.551-.435.512 0 1.01.171.498.17.908.554.409.379.652 1.005.243.627.243 1.543v.426h-5.046v-.869h4.023q0-.554-.222-.989a1.67 1.67 0 0 0-.622-.686 1.74 1.74 0 0 0-.946-.251q-.601 0-1.04.298a1.96 1.96 0 0 0-.669.767 2.25 2.25 0 0 0-.234 1.014v.58q0 .741.256 1.257.26.512.72.78a2.1 2.1 0 0 0 1.069.264q.397 0 .716-.111.324-.115.558-.341a1.55 1.55 0 0 0 .363-.571l.971.273a2.16 2.16 0 0 1-.515.869q-.363.37-.895.58a3.3 3.3 0 0 1-1.198.204m8.877-5.216-.904.256a1.7 1.7 0 0 0-.251-.439 1.2 1.2 0 0 0-.443-.358q-.282-.141-.72-.141-.602 0-1.002.277-.396.273-.396.695 0 .375.273.592.272.218.852.363l.971.238q.879.214 1.309.652.43.435.43 1.121 0 .562-.324 1.006a2.14 2.14 0 0 1-.895.698q-.575.256-1.338.256-1.001 0-1.657-.434-.657-.435-.831-1.27l.954-.239q.137.528.516.793.383.264 1.001.264.703 0 1.117-.298.417-.303.417-.725a.76.76 0 0 0-.238-.571q-.239-.235-.733-.349l-1.091-.256q-.9-.213-1.321-.661-.418-.451-.418-1.129 0-.554.311-.98.315-.426.857-.669a3 3 0 0 1 1.236-.243q.971 0 1.525.426.558.426.793 1.125m6.269 0-.903.256a1.7 1.7 0 0 0-.252-.439 1.2 1.2 0 0 0-.443-.358q-.28-.141-.72-.141-.6 0-1.001.277-.397.273-.397.695 0 .375.273.592.273.218.852.363l.972.238q.877.214 1.308.652.43.435.431 1.121 0 .562-.324 1.006a2.15 2.15 0 0 1-.895.698q-.576.256-1.338.256-1.002 0-1.658-.434-.655-.435-.831-1.27l.955-.239q.136.528.515.793.384.264 1.002.264.703 0 1.116-.298.418-.303.418-.725a.76.76 0 0 0-.239-.571q-.238-.235-.733-.349l-1.091-.256q-.898-.213-1.321-.661-.417-.451-.417-1.129 0-.554.311-.98.315-.426.856-.669a3 3 0 0 1 1.236-.243q.971 0 1.526.426.558.426.792 1.125"/><path fill="#6b6b70" d="M94.96 318.902v7.273h-.852l-3.963-5.71h-.071v5.71h-.88v-7.273h.852l3.977 5.725h.07v-5.725zm3.865 7.386q-.74 0-1.296-.351a2.4 2.4 0 0 1-.867-.984q-.309-.632-.309-1.477 0-.852.31-1.488a2.4 2.4 0 0 1 .866-.987q.557-.352 1.296-.352.738 0 1.292.352.558.351.867.987.312.636.312 1.488 0 .845-.312 1.477a2.35 2.35 0 0 1-.867.984q-.554.351-1.292.351m0-.752q.561 0 .923-.288.363-.288.536-.756t.174-1.016q0-.547-.174-1.019a1.7 1.7 0 0 0-.536-.764q-.362-.291-.923-.291t-.924.291-.536.764a2.9 2.9 0 0 0-.174 1.019q0 .547.174 1.016t.537.756q.361.288.923.288m6.123-4.816v.71h-2.827v-.71zm-2.003-1.307h.838v5.199q0 .356.103.533a.53.53 0 0 0 .27.234q.166.057.351.057.14 0 .228-.014l.142-.028.17.752a2 2 0 0 1-.238.064 1.7 1.7 0 0 1-.387.036q-.355 0-.696-.153a1.4 1.4 0 0 1-.561-.465q-.22-.312-.22-.788zm4.219 3.481v3.281h-.838v-7.273h.838v2.671h.071q.192-.423.575-.672.387-.252 1.03-.252.558 0 .976.224.42.22.65.678.235.454.235 1.158v3.466h-.838v-3.409q0-.651-.338-1.005-.333-.359-.927-.359-.411 0-.738.174a1.27 1.27 0 0 0-.512.508q-.184.333-.184.81m5.07 3.281v-5.455h.838v5.455zm.426-6.364a.6.6 0 0 1-.423-.167.54.54 0 0 1-.174-.401q0-.234.174-.401a.6.6 0 0 1 .423-.167q.245 0 .419.167a.53.53 0 0 1 .178.401q0 .234-.178.401a.58.58 0 0 1-.419.167m2.785 3.083v3.281h-.838v-5.455h.81v.853h.071q.191-.416.582-.668.39-.256 1.008-.256.555 0 .97.228.415.224.646.681.231.455.231 1.151v3.466h-.838v-3.409q0-.643-.334-1.002-.334-.362-.916-.362-.402 0-.717.174a1.24 1.24 0 0 0-.494.508q-.181.333-.181.81m7.213 5.44a3.1 3.1 0 0 1-1.044-.156 2.2 2.2 0 0 1-.728-.405 2.2 2.2 0 0 1-.458-.533l.668-.469q.113.15.287.341.174.196.476.338.306.145.799.145.661 0 1.09-.319.43-.32.43-1.002v-1.108h-.071q-.092.15-.263.37a1.5 1.5 0 0 1-.483.387q-.312.167-.845.167a2.3 2.3 0 0 1-1.186-.313 2.2 2.2 0 0 1-.827-.909q-.302-.597-.302-1.449 0-.838.295-1.459.294-.625.82-.966a2.16 2.16 0 0 1 1.214-.345q.532 0 .846.178.315.173.482.398.171.22.263.362h.085v-.867h.81v5.611q0 .703-.319 1.144a1.8 1.8 0 0 1-.853.649q-.532.21-1.186.21m-.028-2.997q.504 0 .852-.231.348-.23.529-.664t.181-1.037q0-.59-.177-1.041a1.57 1.57 0 0 0-.526-.706q-.348-.256-.859-.256-.532 0-.888.27-.352.27-.529.724-.174.455-.174 1.009 0 .569.177 1.005.182.433.533.682.355.245.881.245m9.02.951q-.789 0-1.36-.348a2.33 2.33 0 0 1-.878-.98q-.305-.632-.305-1.47t.305-1.477q.31-.643.86-1.002.554-.362 1.292-.362.427 0 .842.142.416.143.756.462.342.316.544.838t.202 1.286v.355h-4.204v-.725h3.352q0-.462-.185-.824a1.4 1.4 0 0 0-.518-.571 1.45 1.45 0 0 0-.789-.21q-.5 0-.866.249a1.63 1.63 0 0 0-.558.639 1.9 1.9 0 0 0-.195.845v.483q0 .618.213 1.048.218.426.6.649.384.22.892.221.33 0 .596-.093.27-.096.465-.284.196-.192.302-.476l.81.228a1.8 1.8 0 0 1-.43.724q-.302.309-.745.483a2.8 2.8 0 0 1-.998.17m4.371-7.386v7.273h-.838v-7.273zm5.399 3.04-.753.213a1.4 1.4 0 0 0-.21-.366 1 1 0 0 0-.369-.298 1.34 1.34 0 0 0-.6-.117q-.5 0-.835.23-.33.228-.33.579 0 .313.227.494.228.181.711.302l.809.199q.731.177 1.091.543.358.362.358.934 0 .468-.27.838-.266.369-.745.582a2.7 2.7 0 0 1-1.116.213q-.834 0-1.381-.362-.546-.362-.692-1.058l.795-.199q.114.44.43.661.32.22.834.22.586 0 .931-.249.348-.252.348-.603a.64.64 0 0 0-.199-.476q-.199-.196-.611-.292l-.909-.213q-.75-.177-1.101-.55-.348-.377-.348-.941 0-.462.259-.817.263-.355.714-.557a2.5 2.5 0 0 1 1.03-.203q.81 0 1.271.355.466.356.661.938m3.648 4.346q-.789 0-1.36-.348a2.33 2.33 0 0 1-.878-.98q-.305-.632-.305-1.47t.305-1.477q.31-.643.86-1.002.554-.362 1.292-.362.427 0 .842.142.416.143.756.462.342.316.544.838t.202 1.286v.355h-4.204v-.725h3.352q0-.462-.185-.824a1.4 1.4 0 0 0-.518-.571 1.45 1.45 0 0 0-.789-.21q-.5 0-.866.249a1.63 1.63 0 0 0-.558.639 1.9 1.9 0 0 0-.195.845v.483q0 .618.213 1.048.218.426.6.649.384.22.892.221.33 0 .596-.093.27-.096.465-.284.196-.192.302-.476l.81.228a1.8 1.8 0 0 1-.43.724q-.302.309-.745.483a2.8 2.8 0 0 1-.998.17m6.346 1.932v-7.5h.809v.867h.1q.091-.143.255-.362.167-.224.476-.398.312-.178.845-.178.69 0 1.215.345.525.344.82.976.295.633.295 1.492 0 .866-.295 1.502a2.33 2.33 0 0 1-.817.98 2.13 2.13 0 0 1-1.203.344q-.526 0-.842-.174a1.6 1.6 0 0 1-.487-.401 5 5 0 0 1-.262-.376h-.071v2.883zm.823-4.772q0 .617.182 1.09.18.468.529.735.348.263.852.263.526 0 .877-.277.355-.28.533-.753.18-.476.181-1.058 0-.576-.178-1.037a1.6 1.6 0 0 0-.529-.735q-.351-.274-.884-.274-.511 0-.859.259-.348.256-.526.718a3 3 0 0 0-.178 1.069m7.557 2.84q-.788 0-1.36-.348a2.33 2.33 0 0 1-.877-.98q-.305-.632-.305-1.47t.305-1.477q.309-.643.859-1.002.555-.362 1.293-.362.426 0 .842.142.416.143.756.462.34.316.543.838t.203 1.286v.355h-4.205v-.725h3.352a1.8 1.8 0 0 0-.184-.824 1.4 1.4 0 0 0-.519-.571 1.45 1.45 0 0 0-.788-.21q-.501 0-.866.249a1.6 1.6 0 0 0-.558.639 1.9 1.9 0 0 0-.195.845v.483q0 .618.213 1.048.216.426.6.649.384.22.891.221.33 0 .597-.093.27-.096.465-.284a1.3 1.3 0 0 0 .302-.476l.81.228a1.8 1.8 0 0 1-.43.724q-.302.309-.746.483-.443.17-.998.17m3.534-.113v-5.455h.809v.824h.057q.15-.405.54-.657t.881-.252a7 7 0 0 1 .44.014v.853a2 2 0 0 0-.195-.032 2 2 0 0 0-.316-.025q-.398 0-.711.167-.309.162-.49.454a1.23 1.23 0 0 0-.177.657v3.452zm3.72 0v-5.455h.81v.853h.071q.17-.438.55-.679.38-.245.913-.245.54 0 .898.245.363.241.565.679h.057q.21-.423.628-.672.42-.252 1.005-.252.732 0 1.197.458.465.455.465 1.417v3.651h-.838v-3.651q0-.603-.33-.863a1.22 1.22 0 0 0-.778-.259q-.575 0-.891.348-.316.345-.316.874v3.551h-.852v-3.736q0-.465-.302-.749-.302-.288-.778-.288a1.15 1.15 0 0 0-.611.174 1.3 1.3 0 0 0-.454.483 1.4 1.4 0 0 0-.171.707v3.409zm8.692 0v-5.455h.838v5.455zm.426-6.364a.6.6 0 0 1-.423-.167.54.54 0 0 1-.174-.401q0-.234.174-.401a.6.6 0 0 1 .423-.167q.245 0 .419.167a.53.53 0 0 1 .177.401q0 .234-.177.401a.58.58 0 0 1-.419.167m4.319.909v.71h-2.827v-.71zm-2.003-1.307h.838v5.199q0 .356.103.533a.53.53 0 0 0 .27.234q.166.057.352.057.138 0 .227-.014l.142-.028.17.752a1.5 1.5 0 0 1-.238.064q-.151.036-.387.036-.354 0-.696-.153a1.4 1.4 0 0 1-.561-.465q-.22-.312-.22-.788zm5.636 1.307v.71h-2.827v-.71zm-2.003-1.307h.838v5.199q0 .356.103.533a.53.53 0 0 0 .27.234q.166.057.351.057.139 0 .228-.014l.142-.028.17.752a2 2 0 0 1-.238.064 1.7 1.7 0 0 1-.387.036q-.355 0-.696-.153a1.4 1.4 0 0 1-.561-.465q-.22-.312-.22-.788zm5.492 6.875q-.789 0-1.36-.348a2.33 2.33 0 0 1-.878-.98q-.305-.632-.305-1.47t.305-1.477q.31-.643.86-1.002.554-.362 1.292-.362.427 0 .842.142.415.143.756.462.342.316.544.838t.202 1.286v.355h-4.204v-.725h3.352q0-.462-.185-.824a1.4 1.4 0 0 0-.518-.571 1.45 1.45 0 0 0-.789-.21q-.5 0-.866.249a1.64 1.64 0 0 0-.558.639 1.9 1.9 0 0 0-.195.845v.483q0 .618.213 1.048.218.426.6.649.384.22.892.221.33 0 .596-.093a1.3 1.3 0 0 0 .466-.284q.195-.192.301-.476l.81.228a1.8 1.8 0 0 1-.43.724 2.1 2.1 0 0 1-.745.483 2.8 2.8 0 0 1-.998.17m5.593 0q-.682 0-1.204-.344a2.33 2.33 0 0 1-.817-.98q-.294-.636-.295-1.502 0-.86.295-1.492t.82-.976q.526-.345 1.215-.345.533 0 .842.178.312.173.475.398.167.22.26.362h.071v-2.685h.838v7.273h-.81v-.838h-.099a5 5 0 0 1-.263.376 1.6 1.6 0 0 1-.487.401q-.316.174-.841.174m.113-.752q.505 0 .853-.263.348-.267.529-.735a3 3 0 0 0 .181-1.09 2.9 2.9 0 0 0-.178-1.069 1.56 1.56 0 0 0-.525-.718q-.348-.26-.86-.259-.533 0-.887.274a1.63 1.63 0 0 0-.53.735 2.9 2.9 0 0 0-.174 1.037q0 .582.178 1.058.181.472.533.753.355.276.88.277"/></svg>