<svg xmlns="http://www.w3.org/2000/svg" width="378" height="378" fill="none" viewBox="0 0 378 378"><rect width="378" height="378" fill="#26241e" rx="6"/><mask id="a" fill="#fff"><path d="M33.75 43a9 9 0 0 1 9-9H378v27.763H33.75z"/></mask><path fill="#1b1913" d="M33.75 43a9 9 0 0 1 9-9H378v27.763H33.75z"/><path fill="#fff" fill-opacity=".06" d="M33.75 34H378zM378 62.763H33.75v-2H378zm-344.25-1V34zM378 34v27.763z" mask="url(#a)"/><path fill="#edecec" fill-opacity=".2" d="M41.75 47.381a5 5 0 1 1 10 0 5 5 0 0 1-10 0m16 0a5 5 0 1 1 10 0 5 5 0 0 1-10 0m16 0a5 5 0 1 1 10 0 5 5 0 0 1-10 0"/><g clip-path="url(#b)"><path fill="#14120b" d="M34 62h344v310a6 6 0 0 1-6 6H34z"/><path fill="#555" d="M61.3 87.68v-1.572q-1.128-.096-1.776-.72-.636-.636-.66-1.668h1.08q0 .588.348.96.36.372 1.008.456v-3.144l-.324-.096q-.9-.276-1.392-.924-.48-.648-.48-1.524 0-.96.588-1.584.6-.624 1.608-.72V75.56h.72v1.572q.996.096 1.596.72t.612 1.608h-1.08q0-.564-.3-.912-.288-.36-.828-.444v2.976l.48.156q.876.276 1.356.936t.48 1.548q0 .984-.636 1.632-.624.648-1.68.756v1.572zm-1.116-8.328q0 .54.288.936t.828.564v-2.748q-.528.084-.828.408-.288.324-.288.84m1.836 5.784q.588-.096.912-.456t.324-.936q0-.528-.288-.912-.276-.396-.804-.564l-.144-.048zm97.786-2.181v-.84h4.358v.84zm-5.302 0v-.84h4.357v.84z"/><path fill="#e8e8f0" d="M72.21 86v-7.665h.945v4.274h1.102l1.617-2.384h1.082l-1.859 2.751L77.061 86h-1.103l-1.68-2.573h-1.123V86zm8.427.084q-1.04 0-1.659-.609-.609-.609-.609-1.701v-1.323q0-1.103.61-1.701.608-.609 1.658-.609t1.66.609q.608.599.608 1.701v1.323q0 1.092-.62 1.701-.608.609-1.648.609m0-.84q.62 0 .966-.347.357-.346.357-1.018v-1.533q0-.672-.357-1.019-.346-.346-.966-.346-.609 0-.966.347-.357.346-.357 1.018v1.533q0 .672.357 1.018.357.347.966.347m6.065.84q-.966 0-1.501-.43-.525-.44-.525-1.24h.945a.77.77 0 0 0 .283.63q.284.221.798.221h.462q.525 0 .809-.231.294-.231.294-.651 0-.746-.683-.84l-1.596-.231q-.588-.084-.913-.483-.326-.41-.326-1.071 0-.757.515-1.186.525-.431 1.438-.431h.462q.84 0 1.365.42.536.41.578 1.081h-.956a.66.66 0 0 0-.294-.504q-.262-.2-.693-.199h-.462q-.483 0-.756.22a.73.73 0 0 0-.273.599q0 .609.557.693l1.49.21q1.47.21 1.47 1.722 0 .808-.535 1.26-.525.441-1.49.441zM93.807 86q-.714 0-1.145-.41-.43-.42-.43-1.112v-3.392h-1.66v-.861h1.66v-1.627h.945v1.627h2.362v.861h-2.362v3.392a.7.7 0 0 0 .168.483.63.63 0 0 0 .462.178h1.68V86zm12.098.105q-1.05 0-1.68-.588t-.63-1.617v-1.575q0-1.029.63-1.617t1.68-.588q.997 0 1.606.535.62.536.651 1.46h-.945q-.032-.556-.378-.85-.346-.305-.934-.305-.62 0-.998.357-.367.347-.367.998V83.9q0 .651.367 1.008.378.357.998.357.588 0 .934-.305.346-.304.378-.85h.945q-.031.924-.651 1.46-.609.535-1.606.535m6.212-.021q-1.04 0-1.659-.609-.609-.609-.609-1.701v-1.323q0-1.103.609-1.701.609-.609 1.659-.609t1.659.609q.609.599.609 1.701v1.323q0 1.092-.62 1.701-.609.609-1.648.609m0-.84q.62 0 .966-.347.357-.346.357-1.018v-1.533q0-.672-.357-1.019-.346-.346-.966-.346-.609 0-.966.347-.357.346-.357 1.018v1.533q0 .672.357 1.018.357.347.966.347m7.136.756q-.767 0-1.229-.441-.451-.452-.451-1.186v-5.177h-1.995v-.861h2.94v6.038q0 .356.199.566.2.2.536.2h1.785V86zm6.296 0q-.767 0-1.229-.441-.451-.452-.451-1.186v-5.177h-1.995v-.861h2.94v6.038q0 .356.199.566.2.2.536.2h1.785V86zm5.455.105q-1.018 0-1.648-.609-.62-.62-.62-1.701V82.43q0-1.082.62-1.69.63-.62 1.648-.62.683 0 1.187.273.514.274.798.766.283.495.283 1.166v1.029h-3.612v.546q0 .64.368 1.018.367.368.976.368.525 0 .861-.2.347-.21.42-.556h.945a1.62 1.62 0 0 1-.703 1.155q-.61.42-1.523.42m-1.344-3.486h2.688v-.294q0-.682-.357-1.05-.346-.378-.987-.378-.64 0-.997.378-.347.368-.347 1.05zm7.724 3.486q-1.05 0-1.68-.588t-.63-1.617v-1.575q0-1.029.63-1.617t1.68-.588q.998 0 1.607.535.62.536.651 1.46h-.945q-.031-.556-.378-.85-.347-.305-.935-.305-.62 0-.997.357-.368.347-.368.998V83.9q0 .651.368 1.008.378.357.997.357.588 0 .935-.305.347-.304.378-.85h.945q-.031.924-.651 1.46-.61.535-1.607.535m6.79-.105q-.714 0-1.145-.41-.43-.42-.43-1.112v-3.392h-1.659v-.861h1.659v-1.627h.945v1.627h2.362v.861h-2.362v3.392a.7.7 0 0 0 .168.483.63.63 0 0 0 .462.178h1.68V86zm72.716-4.305v-.84h4.515v.84zm0 2.52v-.84h4.515v.84z"/><path fill="#eab308" d="M168.864 86.105q-1.05 0-1.68-.588t-.63-1.617v-1.575q0-1.029.63-1.617t1.68-.588q.997 0 1.606.535.62.536.651 1.46h-.945q-.031-.556-.378-.85-.346-.305-.934-.305-.62 0-.998.357-.367.347-.367.998V83.9q0 .651.367 1.008.378.357.998.357.588 0 .934-.305.346-.304.378-.85h.945q-.031.924-.651 1.46-.609.535-1.606.535m7.052-.105q-.767 0-1.229-.441-.451-.452-.451-1.186v-5.177h-1.995v-.861h2.94v6.038q0 .356.199.566.2.2.536.2h1.785V86zm5.445.105q-.998 0-1.596-.588-.598-.599-.598-1.617v-3.675h.945V83.9q0 .63.336 1.008.336.367.913.367.588 0 .924-.367.347-.378.347-1.008v-3.675h.945V83.9q0 1.019-.609 1.617-.61.588-1.607.588m6.076-.021q-.966 0-1.502-.43-.525-.44-.525-1.24h.945a.77.77 0 0 0 .284.63q.284.221.798.221h.462q.525 0 .808-.231.294-.231.294-.651 0-.746-.682-.84l-1.596-.231q-.588-.084-.914-.483-.325-.41-.325-1.071 0-.757.514-1.186.525-.431 1.439-.431h.462q.84 0 1.365.42.535.41.577 1.081h-.955a.66.66 0 0 0-.294-.504q-.263-.2-.693-.199h-.462q-.483 0-.756.22a.73.73 0 0 0-.273.599q0 .609.556.693l1.491.21q1.47.21 1.47 1.722 0 .808-.535 1.26-.525.441-1.491.441zm7.104-.084q-.714 0-1.145-.41-.43-.42-.43-1.112v-3.392h-1.659v-.861h1.659v-1.627h.945v1.627h2.362v.861h-2.362v3.392a.7.7 0 0 0 .168.483.63.63 0 0 0 .462.178h1.68V86zm5.718.105q-1.018 0-1.648-.609-.62-.62-.62-1.701V82.43q0-1.082.62-1.69.63-.62 1.648-.62.683 0 1.187.273.514.274.798.766.283.495.283 1.166v1.029h-3.612v.546q0 .64.368 1.018.367.368.976.368.525 0 .861-.2.347-.21.42-.556h.945a1.62 1.62 0 0 1-.703 1.155q-.61.42-1.523.42m-1.344-3.486h2.688v-.294q0-.682-.357-1.05-.346-.378-.987-.378-.64 0-.997.378-.347.368-.347 1.05zM204.581 86v-5.775h.945v1.103h.021q.074-.557.473-.883t1.071-.325q.903 0 1.386.546.493.535.493 1.533v.493h-.945V82.2q0-1.26-1.228-1.26-.62 0-.945.357-.326.357-.326 1.029V86z"/><path fill="#22c55e" d="M229.555 87.89v-7.665h.945v1.103h.01q.074-.568.494-.883.42-.325 1.071-.325.872 0 1.386.578.514.567.514 1.564v1.69q0 .998-.514 1.576-.514.576-1.386.577-.651 0-1.071-.326a1.28 1.28 0 0 1-.494-.882h-.031l.021 1.313v1.68zm2.205-2.604q.598 0 .934-.315t.336-1.019v-1.68q0-.714-.336-1.018-.336-.315-.934-.315-.578 0-.924.368-.336.367-.336 1.018V83.9q0 .65.336 1.018.346.368.924.368m4.301.714v-5.775h.945v1.103h.021q.073-.557.472-.883t1.071-.325q.903 0 1.386.546.494.535.494 1.533v.493h-.945V82.2q0-1.26-1.229-1.26-.62 0-.945.357t-.325 1.029V86zm8.27.084q-1.04 0-1.659-.609-.609-.609-.609-1.701v-1.323q0-1.103.609-1.701.609-.609 1.659-.609t1.659.609q.609.599.609 1.701v1.323q0 1.092-.62 1.701-.609.609-1.648.609m0-.84q.62 0 .966-.347.357-.346.357-1.018v-1.533q0-.672-.357-1.019-.347-.346-.966-.346-.609 0-.966.347-.357.346-.357 1.018v1.533q0 .672.357 1.018.357.347.966.347m5.96.861q-.861 0-1.386-.578-.515-.577-.515-1.564v-1.69q0-.998.515-1.575.514-.578 1.386-.578.651 0 1.071.325.43.327.514.883h.011l-.021-1.313v-1.68h.945V86h-.945v-1.103h-.011a1.3 1.3 0 0 1-.493.893q-.42.315-1.071.315m.315-.819q.588 0 .924-.368.336-.367.336-1.018v-1.575q0-.65-.336-1.019-.336-.367-.924-.367-.599 0-.935.315-.336.304-.336 1.018v1.68q0 .704.336 1.019t.935.315m3.796 1.764v-.787h5.04v.787zm9.152-.945q-.651 0-1.071-.315a1.3 1.3 0 0 1-.493-.893h-.011V86h-.945v-7.665h.945v1.68l-.021 1.313h.011a1.32 1.32 0 0 1 .504-.883q.43-.325 1.081-.325.871 0 1.386.578t.515 1.575v1.69q0 .987-.515 1.565-.515.576-1.386.577m-.315-.819q.599 0 .935-.315t.336-1.019v-1.68q0-.714-.336-1.018-.336-.315-.935-.315-.578 0-.924.368-.336.367-.336 1.018V83.9q0 .65.336 1.018.346.368.924.368m5.771.819q-.892 0-1.417-.493-.525-.505-.525-1.313 0-.536.241-.934.242-.4.672-.62.43-.231.987-.231h1.785v-.451q0-1.124-1.228-1.124-.546 0-.882.2t-.357.556h-.945q.053-.683.63-1.123.588-.453 1.554-.452 1.05 0 1.606.504.567.504.567 1.407V86h-.934v-1.05h-.021q-.084.535-.536.85-.452.305-1.197.305m.231-.798q.693 0 1.103-.336.41-.337.409-.913v-.809h-1.68q-.462 0-.756.284-.283.273-.283.734 0 .484.315.767.325.273.892.273m6.338.777q-.966 0-1.501-.43-.525-.44-.525-1.24h.945q0 .4.283.63.284.221.798.221h.462q.525 0 .809-.231.294-.231.294-.651 0-.746-.683-.84l-1.596-.231q-.588-.084-.913-.483-.326-.41-.326-1.071 0-.757.515-1.186.525-.431 1.438-.431h.462q.84 0 1.365.42.536.41.578 1.081h-.956a.66.66 0 0 0-.294-.504q-.262-.2-.693-.199h-.462q-.483 0-.756.22a.73.73 0 0 0-.273.599q0 .609.557.693l1.491.21q1.47.21 1.47 1.722 0 .808-.536 1.26-.525.441-1.491.441zm7.105-.084q-.714 0-1.145-.41-.43-.42-.43-1.112v-3.392h-1.659v-.861h1.659v-1.627h.945v1.627h2.362v.861h-2.362v3.392a.7.7 0 0 0 .168.483.63.63 0 0 0 .462.178h1.68V86zm3.46 0v-.861h2.048v-4.053h-1.838v-.861h2.783v4.914h1.942V86zm2.415-6.814q-.346 0-.546-.179a.62.62 0 0 1-.199-.483q0-.315.199-.493.2-.19.546-.19t.546.19q.2.177.2.493a.62.62 0 0 1-.2.483q-.2.178-.546.178m6.139 6.898q-1.04 0-1.659-.609-.609-.609-.609-1.701V82.45q0-1.103.609-1.701.609-.609 1.659-.609t1.659.609q.609.599.609 1.701v1.323q0 1.092-.62 1.701-.609.609-1.648.609m0-.84q.62 0 .966-.347.357-.346.357-1.018v-1.533q0-.672-.357-1.019-.346-.346-.966-.346-.609 0-.966.347-.357.346-.357 1.018v1.533q0 .672.357 1.018.357.347.966.347m4.112.756v-5.775h.945v1.103h.01q.074-.579.473-.893t1.06-.315q.871 0 1.386.535.515.536.515 1.46V86h-.945v-3.717q0-.662-.336-1.008-.326-.357-.893-.357-.588 0-.934.367-.336.368-.336 1.04V86z"/><path fill="#05df72" fill-opacity=".8" d="m59.296 112.062.647-.664 2.25 2.216 4.654-4.637.664.665-5.318 5.301zM80.024 110h-1.057a2.2 2.2 0 0 0-.89-1.381 2.4 2.4 0 0 0-.73-.358 3 3 0 0 0-.835-.119q-.792 0-1.436.401-.639.4-1.018 1.18-.375.78-.375 1.913t.375 1.914q.38.78 1.018 1.18.645.4 1.436.401.435 0 .836-.12.4-.119.728-.353a2.25 2.25 0 0 0 .891-1.385h1.057q-.12.669-.435 1.197a3.27 3.27 0 0 1-1.836 1.458q-.58.19-1.24.191-1.117 0-1.986-.545-.87-.546-1.368-1.551-.5-1.006-.499-2.387 0-1.38.499-2.386.498-1.006 1.368-1.551.87-.546 1.985-.546.66 0 1.24.192.584.192 1.053.563a3.2 3.2 0 0 1 .784.895q.315.524.435 1.197m4.23 6.136q-.885 0-1.555-.422a2.86 2.86 0 0 1-1.04-1.18q-.37-.759-.37-1.773 0-1.022.37-1.785.375-.763 1.04-1.185.669-.422 1.555-.422t1.552.422q.668.422 1.04 1.185.374.763.374 1.785 0 1.014-.375 1.773a2.8 2.8 0 0 1-1.04 1.18q-.665.423-1.55.422m0-.903q.675 0 1.108-.345.435-.345.644-.908.209-.562.209-1.219 0-.656-.21-1.223a2.07 2.07 0 0 0-.643-.916q-.435-.35-1.108-.349-.672 0-1.108.349-.435.35-.643.916-.21.567-.209 1.223 0 .657.209 1.219.21.563.643.908.435.345 1.108.345m5.507-7.96V116h-1.006v-8.727zm2.848 0V116h-1.006v-8.727zm4.586 8.863q-.946 0-1.632-.417a2.8 2.8 0 0 1-1.053-1.176q-.366-.759-.366-1.765t.366-1.772q.371-.772 1.032-1.202.665-.435 1.55-.435.513 0 1.01.171.5.17.908.554.41.38.652 1.005.243.627.243 1.543v.426h-5.045v-.869h4.022q0-.554-.221-.989a1.67 1.67 0 0 0-.622-.686 1.75 1.75 0 0 0-.946-.251q-.6 0-1.04.298-.435.294-.67.767a2.25 2.25 0 0 0-.233 1.014v.58q0 .741.255 1.257.26.512.72.78.46.264 1.07.264.396 0 .716-.111.324-.115.558-.341.234-.23.362-.571l.972.273a2.16 2.16 0 0 1-.516.869q-.362.371-.894.58a3.3 3.3 0 0 1-1.198.204m6.899 0q-.92 0-1.585-.434a2.84 2.84 0 0 1-1.023-1.198q-.358-.762-.358-1.743 0-.996.367-1.76.37-.766 1.031-1.197.664-.435 1.551-.435.69 0 1.244.256.554.255.908.716t.439 1.074h-1.006a1.55 1.55 0 0 0-.511-.793q-.392-.35-1.057-.349-.588 0-1.031.307a2 2 0 0 0-.686.856q-.243.55-.243 1.291 0 .759.239 1.321.243.562.681.874.444.31 1.04.311.393 0 .712-.136.32-.137.541-.392.222-.256.315-.614h1.006a2.33 2.33 0 0 1-1.304 1.777q-.546.268-1.27.268m6.891-6.681v.852h-3.392v-.852zm-2.404-1.569h1.006v6.239q0 .426.124.639a.64.64 0 0 0 .324.281q.2.069.421.069.167 0 .273-.017l.171-.035.204.904a2.2 2.2 0 0 1-.75.119q-.426 0-.835-.183a1.66 1.66 0 0 1-.673-.558q-.265-.376-.265-.946zm3.917 8.114v-6.545h1.005V116zm.511-7.636a.7.7 0 0 1-.507-.201.64.64 0 0 1-.209-.481q0-.282.209-.482a.72.72 0 0 1 .507-.2q.294 0 .503.2a.64.64 0 0 1 .213.482.64.64 0 0 1-.213.481.7.7 0 0 1-.503.201m4.995 7.772q-.886 0-1.555-.422a2.86 2.86 0 0 1-1.04-1.18q-.37-.759-.371-1.773 0-1.022.371-1.785.375-.763 1.04-1.185.669-.422 1.555-.422t1.551.422q.67.422 1.04 1.185.375.763.375 1.785 0 1.014-.375 1.773a2.8 2.8 0 0 1-1.04 1.18q-.664.423-1.551.422m0-.903q.674 0 1.108-.345t.644-.908a3.5 3.5 0 0 0 .209-1.219q0-.656-.209-1.223a2.06 2.06 0 0 0-.644-.916q-.434-.35-1.108-.349-.673 0-1.108.349a2.07 2.07 0 0 0-.643.916 3.5 3.5 0 0 0-.209 1.223q0 .657.209 1.219t.643.908q.435.345 1.108.345m5.507-3.171V116h-1.006v-6.545h.972v1.022h.085a1.9 1.9 0 0 1 .699-.801q.47-.306 1.21-.307.665 0 1.164.273.499.269.775.818.277.546.277 1.381V116h-1.005v-4.091q0-.771-.401-1.202-.401-.434-1.099-.434-.481 0-.861.209-.375.208-.593.609-.216.4-.217.971m12.048 4.074q-.92 0-1.585-.434a2.84 2.84 0 0 1-1.023-1.198q-.358-.762-.358-1.743 0-.996.367-1.76.37-.766 1.031-1.197.665-.435 1.551-.435.69 0 1.244.256.554.255.908.716t.439 1.074h-1.006a1.56 1.56 0 0 0-.511-.793q-.393-.35-1.057-.349-.588 0-1.031.307a2 2 0 0 0-.686.856q-.243.55-.243 1.291 0 .759.238 1.321.244.562.682.874.444.31 1.04.311.392 0 .712-.136.32-.137.541-.392.222-.256.315-.614h1.006a2.34 2.34 0 0 1-.422 1.044 2.36 2.36 0 0 1-.882.733q-.546.268-1.27.268m6.703 0q-.886 0-1.555-.422a2.86 2.86 0 0 1-1.04-1.18q-.37-.759-.371-1.773 0-1.022.371-1.785.375-.763 1.04-1.185.669-.422 1.555-.422.887 0 1.551.422.67.422 1.04 1.185.375.763.375 1.785 0 1.014-.375 1.773a2.8 2.8 0 0 1-1.04 1.18q-.665.423-1.551.422m0-.903q.673 0 1.108-.345.434-.345.644-.908.208-.562.208-1.219 0-.656-.208-1.223a2.07 2.07 0 0 0-.644-.916q-.435-.35-1.108-.349-.673 0-1.108.349-.435.35-.643.916a3.5 3.5 0 0 0-.209 1.223q0 .657.209 1.219.208.563.643.908t1.108.345m4.501.767v-6.545h.972v1.022h.085a1.65 1.65 0 0 1 .661-.814q.456-.294 1.095-.294.648 0 1.078.294.434.29.677.814h.069q.251-.507.754-.805.503-.303 1.206-.303.878 0 1.436.55.558.546.558 1.7V116h-1.006v-4.381q0-.725-.396-1.035a1.46 1.46 0 0 0-.933-.311q-.69 0-1.07.417-.38.413-.379 1.049V116h-1.023v-4.483q0-.558-.362-.899-.362-.345-.933-.345a1.37 1.37 0 0 0-.733.209 1.6 1.6 0 0 0-.546.579 1.7 1.7 0 0 0-.204.848V116zm10.43 2.455v-9h.971v1.039h.12a9 9 0 0 1 .307-.434q.2-.268.571-.478.375-.213 1.014-.213.827 0 1.457.414.631.413.985 1.172.353.758.353 1.789 0 1.04-.353 1.803-.354.759-.981 1.176-.626.413-1.444.413-.631 0-1.01-.208a1.9 1.9 0 0 1-.584-.482 7 7 0 0 1-.315-.452h-.085v3.461zm.989-5.728q0 .742.217 1.309.217.563.635.882.417.315 1.023.315.63 0 1.052-.332.426-.337.639-.904.218-.571.218-1.27 0-.69-.213-1.244a1.93 1.93 0 0 0-.635-.882q-.423-.328-1.061-.328-.614 0-1.032.311a1.86 1.86 0 0 0-.63.861q-.213.55-.213 1.282m7.329-5.454V116h-1.006v-8.727zm4.586 8.863q-.945 0-1.632-.417a2.8 2.8 0 0 1-1.052-1.176q-.367-.759-.367-1.765t.367-1.772a2.9 2.9 0 0 1 1.031-1.202q.665-.435 1.551-.435.512 0 1.01.171.498.17.908.554.409.38.652 1.005.243.627.243 1.543v.426h-5.046v-.869h4.023q0-.554-.222-.989a1.67 1.67 0 0 0-.622-.686 1.75 1.75 0 0 0-.946-.251q-.6 0-1.04.298a2 2 0 0 0-.669.767 2.25 2.25 0 0 0-.234 1.014v.58q0 .741.256 1.257.26.512.72.78a2.1 2.1 0 0 0 1.069.264q.397 0 .716-.111a1.5 1.5 0 0 0 .559-.341q.234-.23.362-.571l.971.273a2.16 2.16 0 0 1-.515.869 2.5 2.5 0 0 1-.895.58 3.3 3.3 0 0 1-1.198.204m7.087-6.681v.852h-3.392v-.852zm-2.403-1.569h1.005v6.239q0 .426.124.639a.64.64 0 0 0 .324.281q.2.069.422.069.165 0 .272-.017l.171-.035.204.904a2.2 2.2 0 0 1-.75.119q-.426 0-.835-.183a1.66 1.66 0 0 1-.673-.558q-.264-.376-.264-.946zm6.59 8.25q-.947 0-1.632-.417a2.8 2.8 0 0 1-1.053-1.176q-.366-.759-.366-1.765t.366-1.772a2.9 2.9 0 0 1 1.031-1.202q.666-.435 1.552-.435.51 0 1.009.171.499.17.908.554.41.38.652 1.005.243.627.243 1.543v.426h-5.045v-.869h4.022q0-.554-.221-.989a1.7 1.7 0 0 0-.622-.686 1.75 1.75 0 0 0-.946-.251q-.602 0-1.04.298a1.96 1.96 0 0 0-.669.767 2.24 2.24 0 0 0-.235 1.014v.58q0 .741.256 1.257.26.512.72.78.46.264 1.07.264.396 0 .716-.111.324-.115.558-.341.234-.23.362-.571l.972.273a2.16 2.16 0 0 1-.516.869q-.362.371-.895.58a3.3 3.3 0 0 1-1.197.204"/><path fill="#6b6b70" d="M58.64 129.359v-.797L62.157 123h.578v1.234h-.39l-2.657 4.203v.063h4.735v.859zM62.407 131v-8h.922v8zm3.48 0v-.703l2.64-2.891q.466-.507.766-.883.3-.378.445-.711.15-.335.149-.703 0-.421-.203-.73a1.3 1.3 0 0 0-.547-.477 1.8 1.8 0 0 0-.781-.168q-.462 0-.805.192a1.3 1.3 0 0 0-.528.527 1.65 1.65 0 0 0-.183.797h-.922q0-.703.324-1.234a2.25 2.25 0 0 1 .883-.829 2.7 2.7 0 0 1 1.262-.296q.703 0 1.246.296.543.297.851.801.309.504.309 1.121 0 .442-.16.864-.157.417-.547.933-.387.512-1.074 1.25l-1.797 1.922v.063h3.719V131zm9.894 0v-8h2.703q.942 0 1.54.34.6.336.89.91t.29 1.281-.29 1.285q-.285.579-.883.922-.597.34-1.531.34h-1.937v-.859h1.906q.645 0 1.035-.223.391-.222.566-.601.18-.383.18-.864 0-.48-.18-.859a1.28 1.28 0 0 0-.57-.594q-.394-.219-1.047-.219H76.75V131zm9.23.125q-.81 0-1.425-.387a2.63 2.63 0 0 1-.953-1.082q-.34-.695-.34-1.625 0-.937.34-1.636.344-.7.953-1.086.613-.387 1.426-.387.811 0 1.422.387.612.386.953 1.086.344.699.344 1.636 0 .93-.344 1.625a2.6 2.6 0 0 1-.953 1.082q-.61.387-1.422.387m0-.828q.618 0 1.016-.317.4-.316.59-.832.192-.515.192-1.117a3.2 3.2 0 0 0-.192-1.121 1.9 1.9 0 0 0-.59-.84q-.398-.32-1.015-.32t-1.016.32a1.9 1.9 0 0 0-.59.84 3.2 3.2 0 0 0-.191 1.121q0 .602.191 1.117.192.517.59.832.398.317 1.016.317m6.392.828q-.75 0-1.324-.379a2.55 2.55 0 0 1-.898-1.078q-.325-.7-.325-1.652 0-.946.325-1.641.324-.696.902-1.074.577-.38 1.336-.379.586 0 .926.195a1.6 1.6 0 0 1 .523.438q.185.242.285.398h.079V123h.921v8h-.89v-.922h-.11a6 6 0 0 1-.289.414 1.7 1.7 0 0 1-.535.442q-.347.19-.926.191m.125-.828q.555 0 .938-.289.383-.294.582-.809.2-.52.2-1.199 0-.672-.196-1.176a1.7 1.7 0 0 0-.578-.789q-.383-.285-.946-.285-.585 0-.976.301a1.8 1.8 0 0 0-.582.808A3.2 3.2 0 0 0 89.78 128q0 .64.196 1.164.2.519.586.828.39.305.968.305m8.692-3.953-.828.234a1.5 1.5 0 0 0-.23-.402 1.1 1.1 0 0 0-.407-.328q-.258-.129-.66-.129-.55 0-.918.254-.364.25-.364.636 0 .345.25.543.25.2.782.332l.89.219q.806.196 1.2.598.394.398.394 1.027 0 .516-.297.922a1.97 1.97 0 0 1-.82.641q-.527.234-1.227.234-.917 0-1.52-.398-.6-.399-.76-1.165l.874-.218q.126.484.473.726.351.243.918.242.644 0 1.023-.273.383-.277.383-.664a.7.7 0 0 0-.219-.523q-.219-.215-.672-.321l-1-.234q-.825-.195-1.21-.606-.383-.414-.383-1.035 0-.507.285-.898.288-.391.785-.613a2.75 2.75 0 0 1 1.133-.223q.891 0 1.398.39.512.391.727 1.032m6.856 4.781q-.75 0-1.324-.379a2.55 2.55 0 0 1-.898-1.078q-.325-.7-.325-1.652 0-.946.325-1.641.323-.696.902-1.074a2.4 2.4 0 0 1 1.336-.379q.585 0 .926.195.343.192.523.438.183.242.285.398h.078V123h.922v8h-.89v-.922h-.11a6 6 0 0 1-.289.414 1.7 1.7 0 0 1-.535.442q-.347.19-.926.191m.125-.828q.555 0 .938-.289.382-.294.582-.809a3.3 3.3 0 0 0 .199-1.199q0-.672-.195-1.176a1.7 1.7 0 0 0-.578-.789q-.384-.285-.946-.285-.585 0-.976.301a1.8 1.8 0 0 0-.582.808 3.2 3.2 0 0 0-.192 1.141q0 .64.196 1.164.199.519.585.828.392.305.969.305m4.442.703v-6h.921v6zm.468-7a.65.65 0 0 1-.464-.184.6.6 0 0 1-.192-.441q0-.258.192-.441a.65.65 0 0 1 .464-.184q.27 0 .461.184.195.183.196.441a.58.58 0 0 1-.196.441.64.64 0 0 1-.461.184m6.392 2.344-.828.234a1.5 1.5 0 0 0-.231-.402 1.1 1.1 0 0 0-.406-.328q-.258-.129-.66-.129-.55 0-.918.254-.363.25-.363.636 0 .345.25.543.25.2.781.332l.891.219q.804.196 1.199.598.394.398.394 1.027 0 .516-.297.922a1.97 1.97 0 0 1-.82.641q-.527.234-1.226.234-.918 0-1.52-.398-.601-.399-.762-1.165l.875-.218q.126.484.473.726.351.243.918.242.645 0 1.023-.273.383-.277.383-.664a.7.7 0 0 0-.219-.523q-.218-.215-.671-.321l-1-.234q-.825-.195-1.211-.606-.383-.414-.383-1.035 0-.507.285-.898.289-.391.785-.613a2.75 2.75 0 0 1 1.133-.223q.891 0 1.398.39.513.391.727 1.032m3.935 4.781q-.844 0-1.454-.398a2.6 2.6 0 0 1-.937-1.098q-.328-.7-.328-1.598 0-.914.336-1.613.339-.703.945-1.098.609-.398 1.422-.398.633 0 1.141.234.507.234.832.656t.402.985h-.922a1.43 1.43 0 0 0-.469-.727q-.359-.32-.968-.32-.54 0-.946.281a1.84 1.84 0 0 0-.629.785q-.222.504-.222 1.184 0 .695.218 1.211.223.516.625.801.406.285.954.285.359 0 .652-.125a1.33 1.33 0 0 0 .785-.922h.922a2.13 2.13 0 0 1-1.195 1.629 2.6 2.6 0 0 1-1.164.246m6.144 0q-.813 0-1.426-.387a2.63 2.63 0 0 1-.953-1.082q-.34-.695-.34-1.625 0-.937.34-1.636.344-.7.953-1.086.613-.387 1.426-.387t1.422.387q.613.386.953 1.086.344.699.344 1.636 0 .93-.344 1.625a2.6 2.6 0 0 1-.953 1.082q-.609.387-1.422.387m0-.828q.618 0 1.016-.317.398-.316.59-.832.19-.515.191-1.117 0-.601-.191-1.121a1.9 1.9 0 0 0-.59-.84q-.398-.32-1.016-.32-.617 0-1.016.32a1.9 1.9 0 0 0-.589.84q-.192.52-.192 1.121 0 .602.192 1.117.191.517.589.832.4.317 1.016.317m8.817-5.297-2.218 6h-.938l-2.219-6h1l1.657 4.781h.062l1.656-4.781zm3.518 6.125q-.867 0-1.496-.383a2.57 2.57 0 0 1-.965-1.078q-.336-.695-.336-1.617t.336-1.625a2.66 2.66 0 0 1 .945-1.102q.61-.398 1.422-.398.469 0 .926.156t.832.508q.375.348.598.922t.222 1.414v.39h-4.625v-.796h3.688q0-.508-.203-.907a1.54 1.54 0 0 0-.571-.629 1.6 1.6 0 0 0-.867-.23q-.55 0-.953.273a1.8 1.8 0 0 0-.613.704 2.1 2.1 0 0 0-.215.929v.532q0 .68.234 1.152.238.468.661.715.422.242.98.242.363 0 .656-.102.297-.105.512-.312.215-.211.332-.524l.891.25a2 2 0 0 1-.473.797 2.3 2.3 0 0 1-.82.531 3 3 0 0 1-1.098.188m3.887-.125v-6h.89v.906h.063q.163-.446.594-.722.43-.278.968-.278.102 0 .254.004t.231.012v.937a4 4 0 0 0-.563-.062q-.437 0-.781.183-.34.18-.539.5a1.35 1.35 0 0 0-.195.723V131zm6.426.125q-.868 0-1.497-.383a2.57 2.57 0 0 1-.964-1.078q-.336-.695-.336-1.617t.336-1.625q.339-.707.945-1.102.609-.398 1.422-.398.468 0 .926.156.456.156.832.508.375.348.597.922.223.574.223 1.414v.39h-4.625v-.796h3.687q0-.508-.203-.907a1.54 1.54 0 0 0-.57-.629 1.6 1.6 0 0 0-.867-.23q-.55 0-.953.273-.398.27-.614.704a2.1 2.1 0 0 0-.214.929v.532q0 .68.234 1.152.239.468.66.715.422.242.981.242.362 0 .656-.102.297-.105.511-.312.215-.211.333-.524l.89.25a2 2 0 0 1-.473.797 2.3 2.3 0 0 1-.82.531 3 3 0 0 1-1.097.188m6.152 0q-.75 0-1.324-.379a2.55 2.55 0 0 1-.899-1.078q-.324-.7-.324-1.652 0-.946.324-1.641a2.5 2.5 0 0 1 .903-1.074q.577-.38 1.335-.379.587 0 .926.195.344.192.524.438.183.242.285.398h.078V123h.922v8h-.891v-.922h-.109a6 6 0 0 1-.289.414 1.7 1.7 0 0 1-.535.442q-.348.19-.926.191m.125-.828q.555 0 .937-.289.384-.294.582-.809.2-.52.2-1.199 0-.672-.196-1.176a1.7 1.7 0 0 0-.578-.789q-.382-.285-.945-.285-.586 0-.977.301a1.8 1.8 0 0 0-.582.808 3.2 3.2 0 0 0-.191 1.141q0 .64.195 1.164.2.519.586.828.39.305.969.305"/><path fill="#6b6b70" fill-opacity=".3" d="M58 151.316v-.6h10.056v.6zm10.055 0v-.6H78.11v.6zm10.054 0v-.6h10.056v.6zm10.055 0v-.6H98.22v.6zm10.055 0v-.6h10.056v.6zm10.054 0v-.6h10.056v.6zm10.055 0v-.6h10.056v.6zm10.055 0v-.6h10.056v.6zm10.055 0v-.6h10.056v.6zm10.054 0v-.6h10.056v.6zm10.055 0v-.6h10.056v.6zm10.055 0v-.6h10.056v.6zm10.054 0v-.6h10.056v.6zm10.055 0v-.6h10.056v.6zm10.055 0v-.6h10.056v.6zm10.054 0v-.6h10.056v.6zm10.055 0v-.6h10.056v.6zm10.055 0v-.6h10.056v.6zm10.054 0v-.6h10.056v.6zm10.055 0v-.6h10.056v.6zm10.055 0v-.6h10.056v.6zm10.054 0v-.6h10.056v.6zm10.055 0v-.6h10.056v.6zm10.055 0v-.6h10.056v.6zm10.054 0v-.6h10.057v.6zm10.055 0v-.6h10.056v.6zm10.055 0v-.6h10.056v.6zm10.055 0v-.6h10.056v.6z"/><path fill="#d4d4d8" d="M59.057 178v-8.727h5.233v.937h-4.176v2.949h3.784v.938h-3.784V178zm9.17.136q-.945 0-1.632-.417a2.8 2.8 0 0 1-1.052-1.176q-.367-.759-.367-1.765t.367-1.772q.37-.772 1.03-1.202.666-.435 1.552-.435.511 0 1.01.171.498.17.908.554.409.38.652 1.005.243.627.243 1.543v.426h-5.046v-.869h4.023a2.15 2.15 0 0 0-.222-.989 1.67 1.67 0 0 0-.622-.686 1.75 1.75 0 0 0-.946-.251q-.6 0-1.04.298-.435.294-.669.767a2.25 2.25 0 0 0-.234 1.014v.58q0 .741.255 1.257.261.512.72.78.462.264 1.07.264.396 0 .716-.111a1.5 1.5 0 0 0 .558-.341q.235-.23.363-.571l.971.273a2.16 2.16 0 0 1-.515.869q-.363.371-.895.58a3.3 3.3 0 0 1-1.198.204m7.087-6.681v.852h-3.392v-.852zm-2.403-1.569h1.005v6.239q0 .426.124.639a.64.64 0 0 0 .324.281q.2.069.421.069.166 0 .273-.017l.17-.035.205.904a2.2 2.2 0 0 1-.75.119q-.426 0-.835-.183a1.66 1.66 0 0 1-.673-.558q-.264-.376-.264-.946zm6.504 8.25q-.92 0-1.585-.434a2.83 2.83 0 0 1-1.022-1.198q-.359-.762-.358-1.743 0-.996.366-1.76.37-.766 1.031-1.197.665-.435 1.551-.435.69 0 1.245.256.555.255.907.716.354.46.44 1.074h-1.006a1.56 1.56 0 0 0-.512-.793q-.391-.35-1.056-.349-.589 0-1.032.307a2 2 0 0 0-.686.856q-.243.55-.243 1.291 0 .759.239 1.321.243.562.682.874.443.31 1.04.311.39 0 .711-.136.32-.137.541-.392.222-.256.316-.614h1.005a2.3 2.3 0 0 1-.422 1.044 2.36 2.36 0 0 1-.882.733q-.545.268-1.27.268m5.05-4.074V178H83.46v-8.727h1.005v3.204h.085a1.85 1.85 0 0 1 .69-.805q.465-.303 1.237-.303.669 0 1.171.269.504.264.78.814.282.544.282 1.389V178h-1.006v-4.091q0-.78-.405-1.206-.4-.43-1.112-.43-.495 0-.887.209a1.5 1.5 0 0 0-.613.609q-.222.4-.222.971M90.55 178v-6.545h1.006V178zm.512-7.636a.7.7 0 0 1-.507-.201.64.64 0 0 1-.21-.481q0-.282.21-.482a.72.72 0 0 1 .507-.2q.293 0 .503.2a.64.64 0 0 1 .213.482.64.64 0 0 1-.213.481.7.7 0 0 1-.503.201m3.342 3.698V178h-1.006v-6.545h.972v1.022h.085q.23-.498.699-.801.468-.307 1.21-.307.664 0 1.163.273.499.269.776.818.276.546.277 1.381V178h-1.006v-4.091q0-.771-.4-1.202-.4-.434-1.1-.434-.481 0-.86.209-.375.209-.593.609t-.217.971m8.656 6.529q-.73 0-1.253-.188a2.7 2.7 0 0 1-.874-.485 2.7 2.7 0 0 1-.55-.64l.802-.562q.137.179.345.409.208.234.571.405.366.175.959.175.792 0 1.308-.384.515-.384.515-1.202v-1.329h-.085a6 6 0 0 1-.315.443 1.8 1.8 0 0 1-.58.464q-.375.201-1.014.201a2.73 2.73 0 0 1-1.423-.375 2.63 2.63 0 0 1-.993-1.091q-.363-.716-.362-1.739 0-1.005.353-1.751.354-.75.985-1.159.63-.414 1.457-.414.639 0 1.014.213.38.21.58.478.204.264.315.434h.103v-1.039h.971v6.733q0 .843-.383 1.372a2.2 2.2 0 0 1-1.023.779 3.9 3.9 0 0 1-1.423.252m-.034-3.597q.605 0 1.022-.277.418-.276.635-.797.218-.52.218-1.244 0-.707-.214-1.248a1.87 1.87 0 0 0-.63-.848q-.418-.307-1.031-.307-.64 0-1.066.324a1.97 1.97 0 0 0-.635.869 3.4 3.4 0 0 0-.209 1.21q0 .683.213 1.206.217.52.64.818.426.294 1.057.294m8.079 1.006v-6.545h.972v1.022h.085q.204-.523.66-.814.456-.294 1.096-.294.647 0 1.078.294.434.29.677.814h.068q.251-.507.755-.805.502-.303 1.206-.303.878 0 1.436.55.558.546.558 1.7V178h-1.006v-4.381q0-.725-.396-1.035a1.46 1.46 0 0 0-.933-.311q-.69 0-1.07.417-.38.413-.379 1.049V178h-1.023v-4.483q0-.558-.362-.899-.363-.345-.933-.345a1.37 1.37 0 0 0-.733.209 1.6 1.6 0 0 0-.546.579 1.7 1.7 0 0 0-.204.848V178zm13.174.136q-.947 0-1.632-.417a2.8 2.8 0 0 1-1.053-1.176q-.366-.759-.366-1.765t.366-1.772a2.9 2.9 0 0 1 1.032-1.202q.665-.435 1.551-.435.511 0 1.01.171.498.17.907.554.41.38.652 1.005.243.627.243 1.543v.426h-5.045v-.869h4.023q0-.554-.222-.989a1.67 1.67 0 0 0-.622-.686 1.75 1.75 0 0 0-.946-.251q-.601 0-1.04.298a1.96 1.96 0 0 0-.669.767 2.25 2.25 0 0 0-.234 1.014v.58q0 .741.255 1.257.261.512.72.78.46.264 1.07.264.396 0 .716-.111.324-.115.558-.341.234-.23.362-.571l.972.273a2.15 2.15 0 0 1-.516.869 2.5 2.5 0 0 1-.895.58 3.3 3.3 0 0 1-1.197.204m7.087-6.681v.852h-3.392v-.852zm-2.404-1.569h1.006v6.239q0 .426.124.639a.64.64 0 0 0 .323.281q.201.069.422.069.166 0 .273-.017l.17-.035.205.904a2.2 2.2 0 0 1-.75.119q-.426 0-.835-.183a1.66 1.66 0 0 1-.674-.558q-.264-.376-.264-.946zm3.916 8.114v-6.545h.972v.988h.068q.18-.486.648-.788a1.9 1.9 0 0 1 1.057-.303 11 11 0 0 1 .528.017v1.023a3 3 0 0 0-.234-.038 2.3 2.3 0 0 0-.379-.03q-.478 0-.853.2a1.47 1.47 0 0 0-.801 1.334V178zm4.465 0v-6.545h1.006V178zm.512-7.636a.7.7 0 0 1-.507-.201.64.64 0 0 1-.209-.481q0-.282.209-.482a.72.72 0 0 1 .507-.2q.294 0 .503.2a.64.64 0 0 1 .213.482.64.64 0 0 1-.213.481.7.7 0 0 1-.503.201m4.995 7.772q-.92 0-1.585-.434a2.84 2.84 0 0 1-1.023-1.198q-.358-.762-.358-1.743 0-.996.367-1.76.37-.766 1.031-1.197.665-.435 1.551-.435.69 0 1.244.256.554.255.908.716t.439 1.074h-1.006a1.55 1.55 0 0 0-.511-.793q-.392-.35-1.057-.349-.588 0-1.031.307a2 2 0 0 0-.686.856q-.243.55-.243 1.291 0 .759.238 1.321.243.562.682.874.444.31 1.04.311.392 0 .712-.136.32-.137.541-.392.222-.256.315-.614h1.006a2.34 2.34 0 0 1-.422 1.044 2.36 2.36 0 0 1-.882.733q-.546.268-1.27.268m8.68-5.216-.903.256a1.7 1.7 0 0 0-.251-.439 1.2 1.2 0 0 0-.444-.358q-.28-.14-.72-.14-.6 0-1.001.277-.396.272-.396.694 0 .375.272.593.273.216.853.362l.971.238q.877.214 1.308.652.43.435.431 1.121 0 .562-.324 1.006a2.15 2.15 0 0 1-.895.699q-.575.255-1.338.255-1.001 0-1.658-.434-.655-.435-.831-1.27l.955-.239q.137.529.516.793.383.264 1.001.264.704 0 1.116-.298.418-.303.418-.725a.76.76 0 0 0-.239-.571q-.238-.234-.733-.349l-1.09-.256q-.9-.213-1.322-.66-.417-.452-.417-1.13 0-.554.311-.98a2.1 2.1 0 0 1 .856-.669 3 3 0 0 1 1.236-.243q.972 0 1.526.426.558.428.792 1.125"/><path fill="#05df72" fill-opacity=".8" d="m59.188 192.391.593-.61 2.063 2.031 4.265-4.25.61.61-4.875 4.859zM71.752 188h1.156l2.719 6.641h.094L78.439 188h1.157v8h-.907v-6.078h-.078l-2.5 6.078h-.875l-2.5-6.078h-.078V196h-.906zm12.177 8.125q-.867 0-1.496-.383a2.57 2.57 0 0 1-.965-1.078q-.336-.695-.336-1.617t.336-1.625q.339-.707.945-1.102.609-.398 1.422-.398.469 0 .926.156.457.157.832.508.375.348.597.922.223.574.223 1.414v.39h-4.625v-.796h3.688a2 2 0 0 0-.204-.907 1.54 1.54 0 0 0-.57-.629 1.6 1.6 0 0 0-.867-.23q-.55 0-.953.273-.399.27-.613.704a2.1 2.1 0 0 0-.215.929v.532q0 .68.234 1.152.239.468.66.715.422.242.98.242.365 0 .657-.102a1.4 1.4 0 0 0 .512-.312 1.4 1.4 0 0 0 .332-.524l.89.25a2 2 0 0 1-.472.797 2.3 2.3 0 0 1-.82.531 3 3 0 0 1-1.098.188M90.425 190v.781h-3.11V190zm-2.203-1.438h.922v5.719q0 .391.113.586a.6.6 0 0 0 .297.258q.183.063.386.062a2 2 0 0 0 .25-.015l.157-.031.187.828q-.093.035-.262.07a2 2 0 0 1-.425.039q-.39 0-.766-.168a1.5 1.5 0 0 1-.617-.512q-.243-.344-.242-.867zm3.59 7.438v-6h.89v.906h.063q.164-.446.593-.722.43-.278.97-.278.1 0 .253.004t.23.012v.937a3.5 3.5 0 0 0-.562-.062q-.438 0-.781.183a1.35 1.35 0 0 0-.734 1.223V196zm4.092 0v-6h.922v6zm.469-7a.65.65 0 0 1-.465-.184.6.6 0 0 1-.191-.441q0-.258.191-.441a.65.65 0 0 1 .465-.184.64.64 0 0 1 .461.184q.195.183.195.441a.58.58 0 0 1-.195.441.64.64 0 0 1-.461.184m4.579 7.125q-.843 0-1.453-.398a2.6 2.6 0 0 1-.937-1.098q-.33-.7-.329-1.598 0-.914.336-1.613.34-.704.946-1.098.609-.398 1.422-.398.632 0 1.14.234t.832.656q.324.423.403.985h-.922a1.44 1.44 0 0 0-.469-.727q-.36-.32-.969-.32-.539 0-.945.281a1.84 1.84 0 0 0-.63.785q-.221.504-.222 1.184 0 .696.219 1.211.222.516.625.801.407.285.953.285.36 0 .652-.125a1.34 1.34 0 0 0 .786-.922h.922a2.15 2.15 0 0 1-.387.957 2.2 2.2 0 0 1-.809.672q-.5.246-1.164.246m7.957-4.781-.828.234a1.6 1.6 0 0 0-.23-.402 1.1 1.1 0 0 0-.407-.328q-.258-.129-.66-.129-.55 0-.918.254-.363.25-.363.636 0 .345.25.543.25.2.781.332l.891.219q.804.196 1.199.598.395.398.395 1.027 0 .516-.297.922a2 2 0 0 1-.821.641q-.527.234-1.226.234-.918 0-1.52-.398-.602-.399-.761-1.165l.875-.218q.124.484.472.726.353.243.918.242.645 0 1.024-.273.382-.277.382-.664a.7.7 0 0 0-.218-.523q-.219-.215-.672-.321l-1-.234q-.825-.195-1.211-.606-.383-.414-.383-1.035 0-.507.285-.898.29-.391.785-.613a2.75 2.75 0 0 1 1.133-.223q.89 0 1.399.39.511.391.726 1.032m5.044 4.656h-1.015l2.937-8h1l2.938 8h-1.016l-2.391-6.734h-.062zm.375-3.125h4.094v.859h-4.094zm6.731 3.125v-8h2.703q.94 0 1.539.34.602.336.89.91.29.575.289 1.281 0 .708-.289 1.285-.285.579-.882.922-.598.34-1.532.34h-1.937v-.859h1.906q.645 0 1.035-.223a1.33 1.33 0 0 0 .567-.601q.179-.383.179-.864 0-.48-.179-.859a1.3 1.3 0 0 0-.571-.594q-.395-.219-1.047-.219h-1.703V196zm7.951-8v8h-.969v-8zm7.348 8.125q-.843 0-1.453-.398a2.6 2.6 0 0 1-.937-1.098q-.328-.7-.328-1.598 0-.914.336-1.613.339-.704.945-1.098.609-.398 1.422-.398.633 0 1.14.234.508.234.832.656.325.423.403.985h-.922a1.43 1.43 0 0 0-.469-.727q-.358-.32-.969-.32-.538 0-.945.281a1.84 1.84 0 0 0-.629.785q-.222.504-.222 1.184 0 .696.218 1.211.223.516.625.801.407.285.953.285.36 0 .653-.125a1.34 1.34 0 0 0 .785-.922h.922a2.13 2.13 0 0 1-1.196 1.629q-.5.246-1.164.246m6.145 0q-.813 0-1.426-.387a2.63 2.63 0 0 1-.953-1.082q-.34-.695-.34-1.625 0-.937.34-1.636.344-.7.953-1.086.613-.387 1.426-.387t1.422.387q.613.386.953 1.086.344.699.344 1.636 0 .93-.344 1.625a2.6 2.6 0 0 1-.953 1.082q-.609.387-1.422.387m0-.828q.617 0 1.016-.317.398-.316.589-.832.192-.515.192-1.117 0-.601-.192-1.121a1.9 1.9 0 0 0-.589-.84q-.4-.32-1.016-.32-.618 0-1.016.32a1.9 1.9 0 0 0-.59.84q-.19.52-.191 1.121 0 .602.191 1.117.192.517.59.832.398.317 1.016.317m5.048-2.906V196h-.922v-6h.891v.937h.078q.21-.456.64-.734.43-.28 1.11-.281.609 0 1.066.25.457.246.711.75.254.5.254 1.266V196h-.922v-3.75q0-.707-.367-1.102-.368-.398-1.008-.398-.441 0-.789.191-.344.192-.543.559t-.199.891m6.434 0V196h-.922v-6h.891v.937h.078q.211-.456.641-.734.43-.28 1.109-.281.61 0 1.067.25.456.246.711.75.253.5.253 1.266V196h-.921v-3.75q0-.707-.368-1.102-.366-.398-1.007-.398a1.6 1.6 0 0 0-.789.191q-.345.192-.543.559-.2.368-.2.891m8.029 3.734q-.867 0-1.496-.383a2.56 2.56 0 0 1-.965-1.078q-.336-.695-.336-1.617t.336-1.625q.339-.707.945-1.102.609-.398 1.422-.398.468 0 .926.156.457.157.832.508.375.348.597.922.223.574.223 1.414v.39h-4.625v-.796h3.688q0-.508-.204-.907a1.53 1.53 0 0 0-.57-.629 1.6 1.6 0 0 0-.867-.23q-.55 0-.953.273-.399.27-.613.704a2.06 2.06 0 0 0-.215.929v.532q0 .68.234 1.152.238.468.66.715.422.242.981.242.363 0 .656-.102.296-.105.512-.312.215-.211.332-.524l.89.25a2 2 0 0 1-.472.797 2.3 2.3 0 0 1-.821.531 3 3 0 0 1-1.097.188m6.324 0q-.844 0-1.453-.398a2.6 2.6 0 0 1-.938-1.098q-.328-.7-.328-1.598 0-.914.336-1.613.34-.704.945-1.098.61-.398 1.422-.398.633 0 1.141.234.507.234.832.656t.402.985h-.922a1.43 1.43 0 0 0-.468-.727q-.36-.32-.969-.32a1.62 1.62 0 0 0-.945.281 1.83 1.83 0 0 0-.629.785q-.223.504-.223 1.184 0 .696.219 1.211.222.516.625.801.406.285.953.285.359 0 .652-.125t.496-.36q.204-.234.289-.562h.922a2.14 2.14 0 0 1-.386.957 2.2 2.2 0 0 1-.809.672q-.5.246-1.164.246m6.316-6.125v.781h-3.109V190zm-2.203-1.438h.922v5.719q0 .391.113.586a.58.58 0 0 0 .297.258q.185.063.387.062.152 0 .25-.015l.156-.031.188.828q-.094.035-.262.07a2 2 0 0 1-.426.039q-.39 0-.765-.168a1.5 1.5 0 0 1-.618-.512q-.242-.344-.242-.867zm6.041 7.563q-.867 0-1.496-.383a2.57 2.57 0 0 1-.965-1.078q-.336-.695-.336-1.617t.336-1.625q.34-.707.946-1.102.61-.398 1.421-.398.47 0 .926.156.457.157.832.508.375.348.598.922t.223 1.414v.39h-4.625v-.796h3.687q0-.508-.203-.907a1.54 1.54 0 0 0-.57-.629 1.6 1.6 0 0 0-.868-.23q-.55 0-.953.273a1.8 1.8 0 0 0-.613.704 2.1 2.1 0 0 0-.215.929v.532q0 .68.235 1.152.237.468.66.715.422.242.98.242.363 0 .656-.102.297-.105.512-.312.215-.211.332-.524l.891.25a2 2 0 0 1-.473.797 2.3 2.3 0 0 1-.82.531 3 3 0 0 1-1.098.188m6.153 0q-.75 0-1.325-.379a2.56 2.56 0 0 1-.898-1.078q-.324-.7-.324-1.652 0-.946.324-1.641t.902-1.074a2.4 2.4 0 0 1 1.336-.379q.586 0 .926.195.344.192.523.438.184.242.286.398h.078V188h.922v8h-.891v-.922h-.109a6 6 0 0 1-.29.414 1.7 1.7 0 0 1-.535.442q-.347.19-.925.191m.125-.828q.554 0 .937-.289.383-.294.582-.809a3.3 3.3 0 0 0 .199-1.199q0-.672-.195-1.176a1.7 1.7 0 0 0-.578-.789q-.382-.285-.945-.285-.587 0-.977.301a1.8 1.8 0 0 0-.582.808 3.2 3.2 0 0 0-.191 1.141q0 .64.195 1.164.2.519.586.828.39.305.969.305"/><path fill="#d4d4d8" fill-opacity=".8" d="M59.057 216.5v-8.727h1.005v3.221h.086q.111-.17.306-.434a1.8 1.8 0 0 1 .572-.478q.375-.213 1.014-.213.826 0 1.457.414.63.413.984 1.172t.354 1.789q0 1.04-.353 1.803-.354.759-.98 1.176-.627.414-1.445.413-.63 0-1.01-.208a1.9 1.9 0 0 1-.584-.482 6 6 0 0 1-.315-.452h-.12v1.006zm.988-3.273q0 .742.218 1.309.217.563.635.882.417.315 1.022.315.63 0 1.053-.332.426-.337.64-.904.216-.571.217-1.27 0-.69-.213-1.244a1.9 1.9 0 0 0-.636-.882q-.42-.328-1.06-.328-.614 0-1.032.311a1.86 1.86 0 0 0-.63.861q-.214.55-.214 1.282m8.255 3.426q-.622 0-1.13-.234a1.94 1.94 0 0 1-.805-.686q-.298-.452-.298-1.091 0-.562.221-.912.222-.353.593-.554.37-.2.818-.298.452-.102.907-.162.596-.077.968-.115.375-.043.545-.141.175-.098.175-.341v-.034q0-.63-.345-.98-.341-.35-1.036-.349-.72 0-1.129.315-.409.316-.575.673l-.955-.341q.255-.596.682-.929.43-.336.938-.468a4 4 0 0 1 1.005-.137 4 4 0 0 1 .725.077q.412.072.797.303.387.23.643.694.255.465.256 1.245v4.312h-1.006v-.886h-.051a1.8 1.8 0 0 1-.341.456 2 2 0 0 1-.635.413q-.397.17-.967.17m.153-.903q.597 0 1.006-.234.413-.235.622-.605.213-.372.213-.78v-.921q-.064.077-.281.141-.213.06-.495.106a21 21 0 0 1-.963.128 4 4 0 0 0-.733.166 1.26 1.26 0 0 0-.545.337q-.204.221-.205.605 0 .525.388.793.393.264.993.264m7.341.886q-.92 0-1.585-.434a2.83 2.83 0 0 1-1.023-1.198q-.357-.762-.358-1.743 0-.996.367-1.76.37-.766 1.031-1.197.665-.435 1.551-.435.69 0 1.245.256.553.255.907.716.353.46.44 1.074h-1.006a1.56 1.56 0 0 0-.512-.793q-.391-.35-1.057-.349-.588 0-1.03.307a2 2 0 0 0-.687.856q-.243.55-.243 1.291 0 .759.239 1.321.243.562.682.874.443.31 1.04.311.39 0 .711-.136.32-.137.541-.392.222-.256.316-.614h1.005a2.3 2.3 0 0 1-.422 1.044 2.36 2.36 0 0 1-.882.733q-.545.268-1.27.268m4.982-2.522-.017-1.245h.204l2.864-2.914h1.244l-3.05 3.085h-.086zm-.938 2.386v-8.727h1.006v8.727zm4.16 0-2.557-3.239.716-.699 3.119 3.938zm4.843.136q-.947 0-1.632-.417a2.8 2.8 0 0 1-1.053-1.176q-.367-.759-.367-1.765t.367-1.772q.37-.772 1.031-1.202.664-.435 1.551-.435.512 0 1.01.171.499.17.908.554.41.38.652 1.005.243.627.243 1.543v.426h-5.046v-.869h4.023a2.15 2.15 0 0 0-.222-.989 1.67 1.67 0 0 0-.622-.686 1.75 1.75 0 0 0-.946-.251q-.6 0-1.04.298-.435.294-.668.767a2.25 2.25 0 0 0-.235 1.014v.58q0 .741.256 1.257.26.512.72.78.46.264 1.07.264.395 0 .716-.111a1.5 1.5 0 0 0 .558-.341q.234-.23.362-.571l.971.273a2.16 2.16 0 0 1-.515.869q-.363.371-.895.58a3.3 3.3 0 0 1-1.197.204m5.245-4.074v3.938h-1.005v-6.545h.971v1.022h.085q.23-.498.7-.801.468-.307 1.21-.307.664 0 1.163.273.498.269.775.818.277.546.277 1.381v4.159h-1.005v-4.091q0-.771-.4-1.202-.401-.434-1.1-.434-.481 0-.861.209-.376.209-.592.609-.218.4-.218.971m8.486 4.074q-.819 0-1.445-.413-.626-.417-.98-1.176-.354-.763-.354-1.803 0-1.031.354-1.789.354-.76.984-1.172.631-.414 1.458-.414.64 0 1.01.213.375.21.571.478.2.264.311.434h.085v-3.221h1.006v8.727h-.972v-1.006h-.119a6 6 0 0 1-.316.452q-.204.269-.583.482-.38.208-1.01.208m.136-.903q.605 0 1.023-.315.417-.32.635-.882.217-.567.217-1.309 0-.732-.213-1.282-.213-.555-.631-.861-.417-.312-1.031-.311-.639 0-1.065.328-.422.324-.635.882a3.5 3.5 0 0 0-.209 1.244q0 .699.213 1.27.218.567.639.904.426.332 1.057.332m8.595-3.443v.937h-3.818v-.937zm6.406-.87-.903.256a1.7 1.7 0 0 0-.252-.439 1.2 1.2 0 0 0-.443-.358q-.28-.14-.72-.14-.601 0-1.001.277-.397.272-.397.694 0 .375.273.593.273.216.852.362l.972.238q.877.214 1.308.652.43.435.43 1.121 0 .562-.323 1.006a2.16 2.16 0 0 1-.895.699q-.576.255-1.338.255-1.002 0-1.658-.434-.656-.435-.831-1.27l.955-.239q.135.529.515.793.384.264 1.002.264.703 0 1.116-.298.418-.303.418-.725a.76.76 0 0 0-.239-.571q-.238-.234-.733-.349l-1.091-.256q-.899-.213-1.321-.66-.417-.452-.417-1.13 0-.554.311-.98.315-.426.856-.669a3 3 0 0 1 1.236-.243q.972 0 1.526.426.558.428.792 1.125m4.378 5.216q-.947 0-1.632-.417a2.8 2.8 0 0 1-1.053-1.176q-.366-.759-.366-1.765t.366-1.772a2.9 2.9 0 0 1 1.031-1.202q.664-.435 1.551-.435.512 0 1.01.171.499.17.908.554.41.38.652 1.005.243.627.243 1.543v.426h-5.046v-.869h4.023q0-.554-.221-.989a1.67 1.67 0 0 0-.623-.686 1.75 1.75 0 0 0-.946-.251q-.6 0-1.039.298a1.96 1.96 0 0 0-.669.767 2.24 2.24 0 0 0-.235 1.014v.58q0 .741.256 1.257.26.512.72.78.46.264 1.07.264.395 0 .716-.111.323-.115.558-.341.234-.23.362-.571l.972.273a2.2 2.2 0 0 1-.516.869q-.362.371-.895.58a3.3 3.3 0 0 1-1.197.204m4.24-.136v-6.545h.971v.988h.068q.18-.486.648-.788a1.9 1.9 0 0 1 1.057-.303 11 11 0 0 1 .528.017v1.023a3 3 0 0 0-.234-.038 2.3 2.3 0 0 0-.379-.03q-.477 0-.852.2a1.47 1.47 0 0 0-.802 1.334v4.142zm10.016-6.545-2.42 6.545H132.9l-2.421-6.545h1.091l1.807 5.215h.068l1.807-5.215zm1.327 6.545v-6.545h1.006v6.545zm.512-7.636a.7.7 0 0 1-.507-.201.64.64 0 0 1-.209-.481q0-.282.209-.482a.72.72 0 0 1 .507-.2q.294 0 .503.2a.64.64 0 0 1 .213.482.64.64 0 0 1-.213.481.7.7 0 0 1-.503.201m4.995 7.772q-.92 0-1.585-.434a2.84 2.84 0 0 1-1.023-1.198q-.358-.762-.358-1.743 0-.996.367-1.76.37-.766 1.031-1.197.665-.435 1.551-.435.69 0 1.244.256.554.255.908.716t.439 1.074h-1.006a1.55 1.55 0 0 0-.511-.793q-.392-.35-1.057-.349-.588 0-1.031.307a2 2 0 0 0-.686.856q-.243.55-.243 1.291 0 .759.239 1.321.243.562.681.874.443.31 1.04.311.393 0 .712-.136.32-.137.541-.392.222-.256.315-.614h1.006a2.33 2.33 0 0 1-1.304 1.777q-.546.268-1.27.268m6.789 0q-.946 0-1.633-.417a2.8 2.8 0 0 1-1.052-1.176q-.366-.759-.367-1.765 0-1.005.367-1.772a2.9 2.9 0 0 1 1.031-1.202q.665-.435 1.551-.435.512 0 1.01.171.499.17.908.554.41.38.652 1.005.243.627.243 1.543v.426h-5.046v-.869h4.023q0-.554-.222-.989a1.66 1.66 0 0 0-.622-.686 1.75 1.75 0 0 0-.946-.251q-.6 0-1.039.298a1.97 1.97 0 0 0-.67.767 2.25 2.25 0 0 0-.234 1.014v.58q0 .741.256 1.257.26.512.72.78.46.264 1.07.264.396 0 .715-.111a1.5 1.5 0 0 0 .559-.341q.234-.23.362-.571l.972.273a2.2 2.2 0 0 1-.516.869 2.5 2.5 0 0 1-.895.58 3.3 3.3 0 0 1-1.197.204"/><path fill="#6b6b70" d="M263.125 216.099q-.803 0-1.367-.436-.565-.441-.863-1.275-.298-.839-.298-2.024 0-1.18.298-2.014.302-.839.866-1.278.569-.444 1.364-.444t1.36.444q.568.44.867 1.278.301.835.301 2.014 0 1.185-.298 2.024-.298.834-.863 1.275-.564.436-1.367.436m0-.781q.795 0 1.236-.767.44-.766.44-2.187 0-.945-.202-1.609-.2-.664-.576-1.012a1.27 1.27 0 0 0-.898-.348q-.788 0-1.232.778-.444.774-.444 2.191 0 .944.199 1.605.198.66.571 1.005.376.344.906.344m4.249.739a.62.62 0 0 1-.451-.188.6.6 0 0 1-.188-.451q0-.264.188-.451a.6.6 0 0 1 .451-.189q.262 0 .451.189a.62.62 0 0 1 .188.451.6.6 0 0 1-.089.319.62.62 0 0 1-.55.32m1.958-1.548v-.725l3.196-5.057h.526v1.122h-.355l-2.415 3.821v.057h4.304v.782zm3.424 1.491v-7.273h.838V216zm11.955-5h-.88a1.84 1.84 0 0 0-.742-1.151 2 2 0 0 0-.608-.298 2.4 2.4 0 0 0-.696-.099q-.66 0-1.196.334-.533.333-.849.983-.312.65-.313 1.595 0 .944.313 1.594.316.65.849.984a2.2 2.2 0 0 0 1.196.334q.363 0 .696-.1.334-.099.608-.295a1.85 1.85 0 0 0 .742-1.154h.88a2.9 2.9 0 0 1-.362.998 2.72 2.72 0 0 1-1.53 1.215 3.3 3.3 0 0 1-1.034.159q-.93 0-1.654-.454-.725-.454-1.14-1.293-.416-.837-.416-1.988 0-1.15.416-1.989.415-.839 1.14-1.293t1.654-.454q.55 0 1.034.16.486.159.877.468.39.306.653.746.263.437.362.998m1.424 5v-7.273h2.457q.856 0 1.399.309.548.306.81.828.263.522.263 1.164 0 .643-.263 1.169-.26.525-.803.838-.543.309-1.392.309h-1.761v-.782h1.733q.585 0 .941-.202.355-.202.515-.547.163-.347.163-.785a1.8 1.8 0 0 0-.163-.781 1.18 1.18 0 0 0-.519-.54q-.358-.198-.951-.198h-1.549V216zm11.12-7.273h.881v4.816q0 .746-.352 1.331-.348.583-.984.92-.635.334-1.491.334t-1.492-.334a2.5 2.5 0 0 1-.987-.92 2.55 2.55 0 0 1-.348-1.331v-4.816h.881v4.745q0 .532.234.948.235.411.668.65.437.234 1.044.234.608 0 1.044-.234a1.66 1.66 0 0 0 .668-.65q.234-.415.234-.948zm7.909-.341-2.344 8.708h-.767l2.344-8.708zm6.349.341V216h-.881v-6.349h-.043l-1.775 1.179v-.895l1.818-1.208zm2.287 7.33a.62.62 0 0 1-.451-.188.6.6 0 0 1-.188-.451q0-.264.188-.451a.6.6 0 0 1 .451-.189q.262 0 .451.189a.62.62 0 0 1 .188.451q0 .174-.089.319a.7.7 0 0 1-.231.235.6.6 0 0 1-.319.085m2.129-.057v-.639l2.4-2.628q.423-.461.696-.803a3 3 0 0 0 .405-.646q.135-.306.135-.639a1.18 1.18 0 0 0-.682-1.097 1.6 1.6 0 0 0-.71-.153q-.418 0-.732.174a1.2 1.2 0 0 0-.479.479 1.5 1.5 0 0 0-.167.725h-.838q0-.639.295-1.122t.802-.753a2.4 2.4 0 0 1 1.147-.27q.64 0 1.133.27t.774.728q.28.458.281 1.019a2.2 2.2 0 0 1-.146.785q-.141.38-.497.848-.351.466-.976 1.137l-1.634 1.747v.057h3.381V216zm11.154-5a2.6 2.6 0 0 0-.309-.643 2 2 0 0 0-.451-.49 1.9 1.9 0 0 0-.59-.309 2.4 2.4 0 0 0-.724-.106q-.646 0-1.176.334-.528.333-.841.983t-.313 1.595q0 .944.316 1.594t.856.984 1.215.334q.624 0 1.101-.267.479-.27.745-.76.27-.494.27-1.161l.27.057h-2.187v-.781h2.769v.781q0 .899-.383 1.562a2.65 2.65 0 0 1-1.051 1.03q-.668.362-1.534.362-.966 0-1.698-.454a3.06 3.06 0 0 1-1.136-1.293q-.405-.837-.405-1.988 0-.864.231-1.552.234-.693.66-1.179a2.9 2.9 0 0 1 1.009-.746 3.1 3.1 0 0 1 1.282-.259q.575 0 1.072.174a2.9 2.9 0 0 1 1.549 1.236q.263.432.362.962zm2.688 5v-5.455h.838V216zm.426-6.364a.6.6 0 0 1-.422-.167.53.53 0 0 1-.175-.401q0-.234.175-.401a.6.6 0 0 1 .422-.167q.245 0 .419.167a.53.53 0 0 1 .178.401q0 .234-.178.401a.58.58 0 0 1-.419.167"/><path fill="#d4d4d8" fill-opacity=".8" d="M58.92 237.955v-9h.972v1.039h.12q.11-.17.306-.434.2-.268.571-.478.375-.213 1.014-.213.827 0 1.458.414.63.413.984 1.172t.354 1.789q0 1.04-.354 1.803-.354.759-.98 1.176-.627.414-1.445.413-.63 0-1.01-.208a1.9 1.9 0 0 1-.583-.482 6 6 0 0 1-.316-.452h-.085v3.461zm.99-5.728q0 .742.216 1.309.218.563.635.882.419.315 1.023.315.63 0 1.053-.332.426-.337.639-.904.217-.571.217-1.27 0-.69-.213-1.244a1.9 1.9 0 0 0-.635-.882q-.422-.328-1.06-.328-.615 0-1.032.311a1.86 1.86 0 0 0-.63.861q-.214.55-.214 1.282m8.25 3.426q-.624 0-1.13-.234a1.94 1.94 0 0 1-.806-.686q-.297-.452-.298-1.091 0-.562.222-.912.222-.353.592-.554.37-.2.818-.298.452-.102.908-.162.597-.077.967-.115.375-.043.546-.141.174-.098.174-.341v-.034q0-.63-.345-.98-.34-.35-1.035-.349-.72 0-1.13.315-.408.316-.575.673l-.954-.341q.255-.596.681-.929.43-.336.938-.468a4 4 0 0 1 1.006-.137 4 4 0 0 1 .724.077q.413.072.797.303.387.23.643.694.256.465.256 1.245v4.312h-1.006v-.886h-.05a1.8 1.8 0 0 1-.342.456q-.238.243-.635.413-.396.17-.967.17m.153-.903q.596 0 1.005-.234a1.6 1.6 0 0 0 .835-1.385v-.921q-.064.077-.28.141-.215.06-.495.106a21 21 0 0 1-.963.128 4 4 0 0 0-.733.166 1.26 1.26 0 0 0-.546.337q-.204.221-.204.605 0 .525.388.793.391.264.993.264m5.095 3.205a2.2 2.2 0 0 1-.456-.043 1.2 1.2 0 0 1-.277-.077l.256-.886q.366.093.648.068a.78.78 0 0 0 .498-.251q.222-.222.405-.721l.187-.511-2.42-6.579h1.09l1.808 5.215h.068l1.807-5.215h1.09l-2.778 7.5q-.188.506-.464.839-.278.337-.644.499a2 2 0 0 1-.818.162m6.032-2.455v-6.545h.972v1.022h.085a1.65 1.65 0 0 1 .66-.814q.457-.294 1.096-.294.646 0 1.078.294.434.29.677.814h.068q.252-.507.755-.805.502-.303 1.206-.303.877 0 1.436.55.558.546.558 1.7v4.381h-1.006v-4.381q0-.725-.396-1.035a1.46 1.46 0 0 0-.933-.311q-.69 0-1.07.417-.38.413-.38 1.049v4.261h-1.022v-4.483q0-.558-.362-.899-.363-.345-.933-.345-.393 0-.733.209a1.6 1.6 0 0 0-.546.579 1.7 1.7 0 0 0-.204.848v4.091zm13.174.136q-.946 0-1.632-.417a2.8 2.8 0 0 1-1.053-1.176q-.366-.759-.366-1.765t.366-1.772q.371-.772 1.032-1.202.665-.435 1.55-.435.512 0 1.01.171.5.17.908.554.41.38.652 1.005.243.627.243 1.543v.426H90.28v-.869h4.023a2.15 2.15 0 0 0-.222-.989 1.67 1.67 0 0 0-.622-.686 1.75 1.75 0 0 0-.946-.251q-.6 0-1.04.298-.435.294-.67.767a2.25 2.25 0 0 0-.234 1.014v.58q0 .741.256 1.257.261.512.72.78.46.264 1.07.264.396 0 .716-.111a1.5 1.5 0 0 0 .558-.341q.234-.23.362-.571l.972.273a2.16 2.16 0 0 1-.516.869q-.362.371-.895.58a3.3 3.3 0 0 1-1.197.204m5.246-4.074v3.938h-1.006v-6.545h.972v1.022h.085q.23-.498.699-.801.469-.307 1.21-.307.665 0 1.163.273.499.269.776.818.277.546.277 1.381v4.159h-1.006v-4.091q0-.771-.4-1.202-.4-.434-1.1-.434-.481 0-.86.209-.375.209-.593.609t-.217.971m8.86-2.607v.852h-3.392v-.852zm-2.403-1.569h1.005v6.239q0 .426.124.639a.64.64 0 0 0 .324.281q.2.069.422.069.166 0 .272-.017l.171-.035.204.904a2.2 2.2 0 0 1-.75.119q-.426 0-.835-.183a1.66 1.66 0 0 1-.673-.558q-.264-.376-.264-.946zm7.432 3.904v.937h-3.819v-.937zm3.252 4.21-1.994-6.545h1.057l1.414 5.011h.069l1.397-5.011h1.074l1.381 4.994h.068l1.415-4.994h1.057l-1.995 6.545h-.988l-1.432-5.028h-.102l-1.432 5.028zm10.704.136q-.887 0-1.556-.422a2.86 2.86 0 0 1-1.04-1.18q-.37-.759-.37-1.773 0-1.022.37-1.785.375-.763 1.04-1.185.67-.422 1.556-.422t1.551.422q.669.421 1.039 1.185.375.763.375 1.785 0 1.014-.375 1.773a2.8 2.8 0 0 1-1.039 1.18q-.665.423-1.551.422m0-.903q.673 0 1.107-.345.435-.345.644-.908a3.5 3.5 0 0 0 .209-1.219q0-.656-.209-1.223a2.06 2.06 0 0 0-.644-.916q-.434-.35-1.107-.349-.674 0-1.108.349-.435.35-.644.916a3.5 3.5 0 0 0-.209 1.223q0 .657.209 1.219t.644.908q.434.345 1.108.345m4.501.767v-6.545h.971v.988h.068q.18-.486.648-.788a1.9 1.9 0 0 1 1.057-.303 11 11 0 0 1 .528.017v1.023a3 3 0 0 0-.234-.038 2.3 2.3 0 0 0-.379-.03 1.8 1.8 0 0 0-.853.2 1.47 1.47 0 0 0-.801 1.334v4.142zm5.402-2.386-.017-1.245h.204l2.864-2.914h1.244l-3.051 3.085h-.085zm-.938 2.386v-8.727h1.006v8.727zm4.16 0-2.557-3.239.716-.699 3.119 3.938zm4.843.136q-.946 0-1.633-.417a2.8 2.8 0 0 1-1.052-1.176q-.366-.759-.367-1.765 0-1.005.367-1.772a2.9 2.9 0 0 1 1.031-1.202q.665-.435 1.551-.435.512 0 1.01.171.499.17.908.554.41.38.652 1.005.243.627.243 1.543v.426h-5.046v-.869h4.023q0-.554-.222-.989a1.66 1.66 0 0 0-.622-.686 1.75 1.75 0 0 0-.946-.251q-.6 0-1.039.298a1.96 1.96 0 0 0-.669.767 2.24 2.24 0 0 0-.235 1.014v.58q0 .741.256 1.257.26.512.72.78.46.264 1.07.264.396 0 .715-.111a1.5 1.5 0 0 0 .559-.341q.234-.23.362-.571l.972.273a2.2 2.2 0 0 1-.516.869 2.5 2.5 0 0 1-.895.58 3.3 3.3 0 0 1-1.197.204m4.24-.136v-6.545h.971v.988h.068q.18-.486.648-.788a1.9 1.9 0 0 1 1.057-.303 11 11 0 0 1 .528.017v1.023a3 3 0 0 0-.234-.038 2.3 2.3 0 0 0-.379-.03 1.8 1.8 0 0 0-.853.2 1.47 1.47 0 0 0-.801 1.334v4.142z"/><path fill="#6b6b70" d="M264.125 235.099q-.803 0-1.367-.436-.565-.441-.863-1.275-.298-.839-.298-2.024 0-1.18.298-2.014.302-.839.866-1.278.569-.444 1.364-.444t1.36.444q.568.44.867 1.278.301.835.301 2.014 0 1.185-.298 2.024-.298.834-.863 1.275-.564.436-1.367.436m0-.781q.795 0 1.236-.767.44-.766.44-2.187 0-.945-.202-1.609-.2-.664-.576-1.012a1.27 1.27 0 0 0-.898-.348q-.788 0-1.232.778-.444.774-.444 2.191 0 .944.199 1.605.198.66.571 1.005.376.344.906.344m4.249.739a.62.62 0 0 1-.451-.188.6.6 0 0 1-.188-.451q0-.264.188-.451a.6.6 0 0 1 .451-.189q.262 0 .451.189a.62.62 0 0 1 .188.451.6.6 0 0 1-.089.319.62.62 0 0 1-.55.32m4.234.042q-.732 0-1.293-.259a2.1 2.1 0 0 1-.87-.721 1.8 1.8 0 0 1-.309-1.051 1.9 1.9 0 0 1 .181-.852q.184-.394.505-.657.322-.267.72-.337v-.043a1.4 1.4 0 0 1-.831-.586 1.8 1.8 0 0 1-.305-1.033q-.003-.555.281-.991a1.97 1.97 0 0 1 .781-.689 2.5 2.5 0 0 1 1.14-.252q.632 0 1.129.252t.781.689q.288.436.291.991-.003.579-.316 1.033a1.4 1.4 0 0 1-.82.586v.043q.395.07.71.337.316.263.505.657.188.39.191.852a1.84 1.84 0 0 1-.319 1.051 2.1 2.1 0 0 1-.87.721q-.555.26-1.282.259m0-.781q.493 0 .852-.16.359-.159.554-.451.196-.291.199-.681a1.3 1.3 0 0 0-.213-.728 1.45 1.45 0 0 0-.572-.498 1.8 1.8 0 0 0-.82-.181q-.465 0-.831.181a1.45 1.45 0 0 0-.572.498q-.206.315-.202.728-.004.39.188.681.195.292.557.451t.86.16m0-3.452q.39 0 .692-.156.306-.156.48-.437a1.24 1.24 0 0 0 .177-.657 1.2 1.2 0 0 0-.174-.642 1.1 1.1 0 0 0-.472-.426 1.54 1.54 0 0 0-.703-.153q-.408 0-.714.153a1.1 1.1 0 0 0-.472.426 1.2 1.2 0 0 0-.164.642q-.003.377.167.657.174.28.48.437.305.156.703.156m12.625-.866h-.881a1.84 1.84 0 0 0-.742-1.151 2 2 0 0 0-.607-.298 2.4 2.4 0 0 0-.696-.099q-.66 0-1.197.334-.532.333-.849.983-.312.65-.312 1.595 0 .944.312 1.594.317.65.849.984.536.334 1.197.334.361 0 .696-.1.334-.099.607-.295a1.86 1.86 0 0 0 .742-1.154h.881a2.9 2.9 0 0 1-.362.998 2.7 2.7 0 0 1-.654.749q-.39.306-.877.466a3.3 3.3 0 0 1-1.033.159q-.93 0-1.655-.454-.724-.454-1.14-1.293-.415-.837-.415-1.988 0-1.15.415-1.989.416-.839 1.14-1.293.725-.454 1.655-.454.55 0 1.033.16.487.159.877.468.392.306.654.746.263.437.362.998m1.423 5v-7.273h2.457q.856 0 1.4.309.546.306.809.828t.263 1.164q0 .643-.263 1.169a1.96 1.96 0 0 1-.802.838q-.544.309-1.392.309h-1.762v-.782h1.733q.587 0 .941-.202.356-.202.515-.547.164-.347.164-.785 0-.436-.164-.781a1.17 1.17 0 0 0-.518-.54q-.359-.198-.952-.198h-1.548V235zm11.12-7.273h.881v4.816q0 .746-.351 1.331-.348.583-.984.92-.636.334-1.492.334-.855 0-1.491-.334a2.5 2.5 0 0 1-.987-.92 2.55 2.55 0 0 1-.348-1.331v-4.816h.88v4.745q0 .532.235.948.235.411.667.65.438.234 1.044.234.608 0 1.044-.234.438-.239.668-.65.234-.415.234-.948zm7.91-.341-2.344 8.708h-.767l2.344-8.708zm3.791 7.614v-.639l2.401-2.628q.423-.461.696-.803.273-.344.405-.646.135-.306.135-.639a1.18 1.18 0 0 0-.682-1.097 1.6 1.6 0 0 0-.71-.153q-.42 0-.732.174a1.2 1.2 0 0 0-.479.479 1.5 1.5 0 0 0-.167.725h-.838q0-.639.295-1.122t.802-.753q.511-.27 1.147-.27.64 0 1.133.27t.774.728q.28.458.281 1.019a2.2 2.2 0 0 1-.146.785q-.142.38-.497.848-.351.466-.977 1.137l-1.633 1.747v.057h3.381V235zm6.68.057a.62.62 0 0 1-.451-.188.62.62 0 0 1-.188-.451q0-.264.188-.451a.62.62 0 0 1 .451-.189q.263 0 .451.189a.6.6 0 0 1 .188.451.6.6 0 0 1-.088.319.62.62 0 0 1-.551.32m3.817-7.33V235h-.881v-6.349h-.043l-1.775 1.179v-.895l1.818-1.208zm7.191 2.273a2.6 2.6 0 0 0-.309-.643 2 2 0 0 0-.451-.49 1.9 1.9 0 0 0-.59-.309 2.4 2.4 0 0 0-.724-.106q-.646 0-1.176.334-.528.333-.841.983t-.313 1.595q0 .944.316 1.594t.856.984 1.215.334q.624 0 1.101-.267.479-.27.745-.76.27-.494.27-1.161l.27.057h-2.187v-.781h2.769v.781q0 .899-.383 1.562a2.65 2.65 0 0 1-1.051 1.03q-.668.362-1.534.362-.966 0-1.698-.454a3.06 3.06 0 0 1-1.136-1.293q-.405-.837-.405-1.988 0-.864.231-1.552.234-.693.66-1.179a2.9 2.9 0 0 1 1.009-.746 3.1 3.1 0 0 1 1.282-.259q.575 0 1.072.174a2.9 2.9 0 0 1 1.549 1.236q.263.432.362.962zm2.688 5v-5.455h.838V235zm.426-6.364a.6.6 0 0 1-.422-.167.54.54 0 0 1-.174-.401q0-.234.174-.401a.6.6 0 0 1 .422-.167q.245 0 .419.167a.53.53 0 0 1 .178.401q0 .234-.178.401a.58.58 0 0 1-.419.167"/><path fill="#d4d4d8" fill-opacity=".8" d="m63.557 249.42-.904.256a1.7 1.7 0 0 0-.251-.439 1.2 1.2 0 0 0-.443-.358q-.282-.14-.72-.14-.6 0-1.002.277-.396.272-.396.694 0 .375.273.593.272.216.852.362l.971.238q.879.214 1.309.652.43.435.43 1.121 0 .562-.324 1.006a2.16 2.16 0 0 1-.895.699q-.575.255-1.338.255-1.001 0-1.657-.434-.657-.435-.831-1.27l.954-.239q.136.529.516.793.384.264 1.001.264.703 0 1.117-.298.417-.303.417-.725a.76.76 0 0 0-.238-.571q-.24-.234-.733-.349l-1.091-.256q-.9-.213-1.321-.66-.418-.452-.418-1.13 0-.554.311-.98.315-.426.857-.669a3 3 0 0 1 1.236-.243q.971 0 1.525.426.558.428.793 1.125m4.377 5.216q-.945 0-1.632-.417a2.8 2.8 0 0 1-1.052-1.176q-.367-.759-.367-1.765t.367-1.772a2.9 2.9 0 0 1 1.03-1.202q.666-.435 1.552-.435.511 0 1.01.171.498.17.908.554.408.38.652 1.005.243.627.242 1.543v.426H65.6v-.869h4.023a2.15 2.15 0 0 0-.222-.989 1.67 1.67 0 0 0-.622-.686 1.75 1.75 0 0 0-.946-.251q-.6 0-1.04.298-.435.294-.669.767a2.25 2.25 0 0 0-.234 1.014v.58q0 .741.255 1.257.261.512.72.78.46.264 1.07.264.396 0 .716-.111.324-.115.558-.341a1.55 1.55 0 0 0 .363-.571l.971.273a2.16 2.16 0 0 1-.515.869q-.363.371-.895.58a3.3 3.3 0 0 1-1.198.204m8.877-5.216-.904.256a1.7 1.7 0 0 0-.251-.439 1.2 1.2 0 0 0-.443-.358q-.282-.14-.72-.14-.601 0-1.002.277-.396.272-.396.694 0 .375.273.593.272.216.852.362l.971.238q.879.214 1.309.652.43.435.43 1.121 0 .562-.324 1.006a2.16 2.16 0 0 1-.895.699q-.575.255-1.338.255-1.001 0-1.657-.434-.657-.435-.831-1.27l.954-.239q.137.529.516.793.383.264 1.001.264.703 0 1.117-.298.417-.303.417-.725a.76.76 0 0 0-.238-.571q-.24-.234-.733-.349l-1.091-.256q-.9-.213-1.321-.66-.418-.452-.418-1.13 0-.554.311-.98a2.1 2.1 0 0 1 .857-.669 3 3 0 0 1 1.236-.243q.971 0 1.525.426.558.428.793 1.125m6.27 0-.904.256a1.7 1.7 0 0 0-.252-.439 1.2 1.2 0 0 0-.443-.358q-.28-.14-.72-.14-.6 0-1.001.277-.397.272-.397.694 0 .375.273.593.273.216.852.362l.972.238q.877.214 1.308.652.43.435.43 1.121 0 .562-.323 1.006a2.16 2.16 0 0 1-.895.699q-.576.255-1.338.255-1.002 0-1.658-.434-.656-.435-.83-1.27l.954-.239q.135.529.515.793.384.264 1.002.264.702 0 1.116-.298.418-.303.418-.725a.76.76 0 0 0-.239-.571q-.238-.234-.733-.349l-1.09-.256q-.9-.213-1.322-.66-.417-.452-.417-1.13 0-.554.31-.98a2.1 2.1 0 0 1 .857-.669 3 3 0 0 1 1.236-.243q.971 0 1.526.426.558.428.792 1.125m1.632 5.08v-6.545h1.006v6.545zm.512-7.636a.7.7 0 0 1-.507-.201.64.64 0 0 1-.21-.481q0-.282.21-.482a.72.72 0 0 1 .507-.2q.293 0 .503.2a.64.64 0 0 1 .213.482.64.64 0 0 1-.213.481.7.7 0 0 1-.503.201m4.995 7.772q-.886 0-1.555-.422a2.86 2.86 0 0 1-1.04-1.18q-.37-.759-.37-1.773 0-1.022.37-1.785.375-.763 1.04-1.185.669-.422 1.555-.422t1.551.422q.67.421 1.04 1.185.375.763.375 1.785 0 1.014-.375 1.773a2.8 2.8 0 0 1-1.04 1.18q-.665.423-1.55.422m0-.903q.673 0 1.108-.345.434-.345.644-.908.208-.562.208-1.219 0-.656-.208-1.223a2.07 2.07 0 0 0-.644-.916q-.435-.35-1.108-.349-.673 0-1.108.349-.435.35-.643.916a3.5 3.5 0 0 0-.21 1.223q0 .657.21 1.219.208.563.643.908t1.108.345m5.507-3.171v3.938H94.72v-6.545h.972v1.022h.085q.23-.498.699-.801.468-.307 1.21-.307.665 0 1.163.273.499.269.776.818.277.546.277 1.381v4.159h-1.006v-4.091q0-.771-.4-1.202-.4-.434-1.1-.434-.481 0-.86.209-.375.209-.593.609t-.217.971m9.764-.272v.937h-3.818v-.937zm3.252 4.21-1.994-6.545h1.057l1.415 5.011h.068l1.397-5.011h1.074l1.381 4.994h.068l1.415-4.994h1.057l-1.995 6.545h-.988l-1.432-5.028h-.102l-1.432 5.028zm10.704.136q-.887 0-1.556-.422a2.86 2.86 0 0 1-1.039-1.18q-.371-.759-.371-1.773 0-1.022.371-1.785.375-.763 1.039-1.185.67-.422 1.556-.422t1.551.422q.668.421 1.04 1.185.375.763.375 1.785 0 1.014-.375 1.773a2.83 2.83 0 0 1-1.04 1.18q-.664.423-1.551.422m0-.903q.673 0 1.108-.345.434-.345.643-.908a3.5 3.5 0 0 0 .209-1.219q0-.656-.209-1.223a2.07 2.07 0 0 0-.643-.916q-.435-.35-1.108-.349-.673 0-1.108.349-.434.35-.644.916a3.5 3.5 0 0 0-.208 1.223q0 .657.208 1.219.21.563.644.908t1.108.345m4.501.767v-6.545h.971v.988h.069q.179-.486.647-.788a1.9 1.9 0 0 1 1.057-.303 11 11 0 0 1 .529.017v1.023a4 4 0 0 0-.235-.038 2.3 2.3 0 0 0-.379-.03q-.477 0-.852.2a1.47 1.47 0 0 0-.802 1.334v4.142zm5.402-2.386-.017-1.245h.205l2.863-2.914h1.245l-3.052 3.085h-.085zm-.937 2.386v-8.727h1.005v8.727zm4.159 0-2.557-3.239.716-.699 3.119 3.938zm4.843.136q-.947 0-1.632-.417a2.8 2.8 0 0 1-1.053-1.176q-.366-.759-.366-1.765t.366-1.772a2.9 2.9 0 0 1 1.031-1.202q.666-.435 1.551-.435.512 0 1.01.171.499.17.908.554.41.38.652 1.005.243.627.243 1.543v.426h-5.045v-.869h4.022q0-.554-.221-.989a1.7 1.7 0 0 0-.622-.686 1.75 1.75 0 0 0-.947-.251q-.6 0-1.039.298a1.96 1.96 0 0 0-.669.767 2.24 2.24 0 0 0-.235 1.014v.58q0 .741.256 1.257.26.512.72.78.46.264 1.07.264.396 0 .716-.111.324-.115.558-.341.234-.23.362-.571l.972.273a2.16 2.16 0 0 1-.516.869q-.362.371-.895.58a3.3 3.3 0 0 1-1.197.204m4.24-.136v-6.545h.971v.988h.069q.179-.486.647-.788a1.9 1.9 0 0 1 1.057-.303 11 11 0 0 1 .529.017v1.023a4 4 0 0 0-.235-.038 2.3 2.3 0 0 0-.379-.03q-.477 0-.852.2a1.47 1.47 0 0 0-.801 1.334v4.142z"/><path fill="#6b6b70" d="M264.125 254.099q-.803 0-1.367-.436-.565-.441-.863-1.275-.298-.839-.298-2.024 0-1.18.298-2.014.302-.839.866-1.278.569-.444 1.364-.444t1.36.444q.568.44.867 1.278.301.835.301 2.014 0 1.185-.298 2.024-.298.834-.863 1.275-.564.436-1.367.436m0-.781q.795 0 1.236-.767.44-.766.44-2.187 0-.945-.202-1.609-.2-.664-.576-1.012a1.27 1.27 0 0 0-.898-.348q-.788 0-1.232.778-.444.774-.444 2.191 0 .944.199 1.605.198.66.571 1.005.376.344.906.344m4.249.739a.62.62 0 0 1-.451-.188.6.6 0 0 1-.188-.451q0-.264.188-.451a.6.6 0 0 1 .451-.189q.262 0 .451.189a.62.62 0 0 1 .188.451.6.6 0 0 1-.089.319.62.62 0 0 1-.55.32m4.255.042q-.625 0-1.126-.248a2.1 2.1 0 0 1-.802-.682 1.86 1.86 0 0 1-.33-.987h.852q.05.493.447.817.401.32.959.319.448 0 .796-.209.35-.21.55-.576.202-.369.202-.834 0-.476-.209-.849a1.54 1.54 0 0 0-.568-.593 1.6 1.6 0 0 0-.828-.22 2.3 2.3 0 0 0-.685.103 1.9 1.9 0 0 0-.579.266l-.824-.099.441-3.58h3.778v.782h-3.04l-.256 2.144h.043q.224-.177.561-.294a2.1 2.1 0 0 1 .703-.118q.668 0 1.19.32.525.316.824.867.302.55.302 1.257 0 .696-.313 1.243-.309.543-.852.859a2.44 2.44 0 0 1-1.236.312M285.233 249h-.881a1.84 1.84 0 0 0-.742-1.151 2 2 0 0 0-.607-.298 2.4 2.4 0 0 0-.696-.099q-.66 0-1.197.334-.532.333-.849.983-.312.65-.312 1.595 0 .944.312 1.594.317.65.849.984.536.334 1.197.334.361 0 .696-.1.334-.099.607-.295a1.86 1.86 0 0 0 .742-1.154h.881a2.9 2.9 0 0 1-.362.998 2.7 2.7 0 0 1-.654.749q-.39.306-.877.466a3.3 3.3 0 0 1-1.033.159q-.93 0-1.655-.454-.724-.454-1.14-1.293-.415-.837-.415-1.988 0-1.15.415-1.989.416-.839 1.14-1.293.725-.454 1.655-.454.55 0 1.033.16.487.159.877.468.392.306.654.746.263.437.362.998m1.423 5v-7.273h2.457q.856 0 1.4.309.546.306.809.828t.263 1.164q0 .643-.263 1.169a1.96 1.96 0 0 1-.802.838q-.544.309-1.392.309h-1.762v-.782h1.733q.587 0 .941-.202.356-.202.515-.547.164-.347.164-.785 0-.436-.164-.781a1.17 1.17 0 0 0-.518-.54q-.359-.198-.952-.198h-1.548V254zm11.12-7.273h.881v4.816q0 .746-.351 1.331-.348.583-.984.92-.636.334-1.492.334-.855 0-1.491-.334a2.5 2.5 0 0 1-.987-.92 2.55 2.55 0 0 1-.348-1.331v-4.816h.88v4.745q0 .532.235.948.235.411.667.65.438.234 1.044.234.608 0 1.044-.234.438-.239.668-.65.234-.415.234-.948zm7.91-.341-2.344 8.708h-.767l2.344-8.708zm3.621 6.123v-.725l3.196-5.057h.526v1.122h-.356l-2.414 3.821v.057h4.304v.782zM312.73 254v-7.273h.838V254zm3.447.057a.62.62 0 0 1-.451-.188.62.62 0 0 1-.189-.451q0-.264.189-.451a.6.6 0 0 1 .451-.189q.262 0 .451.189a.62.62 0 0 1 .188.451q0 .174-.089.319a.7.7 0 0 1-.231.235.6.6 0 0 1-.319.085m3.816-7.33V254h-.88v-6.349h-.043l-1.776 1.179v-.895l1.819-1.208zm7.191 2.273a2.6 2.6 0 0 0-.309-.643 1.96 1.96 0 0 0-1.04-.799 2.4 2.4 0 0 0-.725-.106q-.645 0-1.175.334-.529.333-.842.983t-.312 1.595q0 .944.316 1.594t.856.984 1.214.334a2.2 2.2 0 0 0 1.101-.267q.48-.27.746-.76.27-.494.27-1.161l.27.057h-2.188v-.781h2.77v.781q0 .899-.384 1.562a2.64 2.64 0 0 1-1.051 1.03q-.667.362-1.534.362-.965 0-1.697-.454-.728-.454-1.137-1.293-.404-.837-.404-1.988 0-.864.23-1.552.235-.693.661-1.179t1.008-.746a3.1 3.1 0 0 1 1.282-.259q.576 0 1.073.174a2.87 2.87 0 0 1 1.548 1.236q.263.432.362.962zm2.689 5v-5.455h.838V254zm.426-6.364a.6.6 0 0 1-.423-.167.54.54 0 0 1-.174-.401q0-.234.174-.401a.6.6 0 0 1 .423-.167q.245 0 .419.167a.53.53 0 0 1 .177.401q0 .234-.177.401a.58.58 0 0 1-.419.167"/><path fill="#6b6b70" fill-opacity=".3" d="M58 277.316v-.6h10.056v.6zm10.055 0v-.6H78.11v.6zm10.054 0v-.6h10.056v.6zm10.055 0v-.6H98.22v.6zm10.055 0v-.6h10.056v.6zm10.054 0v-.6h10.056v.6zm10.055 0v-.6h10.056v.6zm10.055 0v-.6h10.056v.6zm10.055 0v-.6h10.056v.6zm10.054 0v-.6h10.056v.6zm10.055 0v-.6h10.056v.6zm10.055 0v-.6h10.056v.6zm10.054 0v-.6h10.056v.6zm10.055 0v-.6h10.056v.6zm10.055 0v-.6h10.056v.6zm10.054 0v-.6h10.056v.6zm10.055 0v-.6h10.056v.6zm10.055 0v-.6h10.056v.6zm10.054 0v-.6h10.056v.6zm10.055 0v-.6h10.056v.6zm10.055 0v-.6h10.056v.6zm10.054 0v-.6h10.056v.6zm10.055 0v-.6h10.056v.6zm10.055 0v-.6h10.056v.6zm10.054 0v-.6h10.057v.6zm10.055 0v-.6h10.056v.6zm10.055 0v-.6h10.056v.6zm10.055 0v-.6h10.056v.6z"/><path fill="#d4d4d8" d="M59.057 303v-8.727h2.949q1.022 0 1.679.349.656.345.971.95.316.606.316 1.377t-.316 1.368-.967.937q-.652.337-1.666.337h-2.387v-.955h2.353q.698 0 1.125-.204.43-.205.622-.58.195-.38.196-.903 0-.525-.196-.916a1.33 1.33 0 0 0-.627-.605q-.43-.218-1.137-.218h-1.858V303zm4.108-3.92 2.148 3.92h-1.228l-2.113-3.92zm6.105 4.056q-.945 0-1.632-.417a2.8 2.8 0 0 1-1.052-1.176q-.367-.759-.367-1.765t.367-1.772q.37-.772 1.03-1.202.666-.435 1.552-.435.51 0 1.01.171.498.17.908.554.409.38.652 1.005.243.627.243 1.543v.426h-5.046v-.869h4.023a2.15 2.15 0 0 0-.222-.989 1.67 1.67 0 0 0-.622-.686 1.75 1.75 0 0 0-.946-.251q-.6 0-1.04.298-.435.294-.669.767a2.25 2.25 0 0 0-.234 1.014v.58q0 .741.256 1.257.26.512.72.78.46.264 1.07.264.395 0 .715-.111.324-.115.558-.341.235-.23.363-.571l.971.273a2.16 2.16 0 0 1-.515.869q-.363.371-.895.58a3.3 3.3 0 0 1-1.198.204m8.877-5.216-.904.256a1.7 1.7 0 0 0-.251-.439 1.2 1.2 0 0 0-.443-.358q-.282-.14-.72-.14-.602 0-1.002.277-.396.272-.396.694 0 .375.273.593.272.216.852.362l.971.238q.879.214 1.309.652.43.435.43 1.121 0 .562-.324 1.006a2.16 2.16 0 0 1-.895.699q-.575.255-1.338.255-1.002 0-1.657-.434-.657-.435-.832-1.27l.955-.239q.136.529.516.793.383.264 1.001.264.703 0 1.117-.298.417-.303.417-.725a.76.76 0 0 0-.238-.571q-.24-.234-.733-.349l-1.091-.256q-.9-.213-1.321-.66-.418-.452-.418-1.13 0-.554.311-.98.315-.426.857-.669a3 3 0 0 1 1.236-.243q.971 0 1.525.426.558.428.793 1.125m4.292 5.216q-.887 0-1.555-.422a2.86 2.86 0 0 1-1.04-1.18q-.37-.759-.371-1.773 0-1.022.37-1.785.375-.764 1.04-1.185.67-.422 1.556-.422t1.551.422q.67.421 1.04 1.185.375.763.375 1.785 0 1.014-.375 1.773a2.8 2.8 0 0 1-1.04 1.18q-.664.423-1.551.422m0-.903q.673 0 1.108-.345t.643-.908q.21-.562.21-1.219 0-.656-.21-1.223a2.07 2.07 0 0 0-.643-.916q-.435-.35-1.108-.349-.673 0-1.108.349-.435.35-.644.916-.208.567-.208 1.223t.209 1.219q.208.563.643.908t1.108.345m5.507-7.96V303H86.94v-8.727zm7.194 2.182L92.72 303h-1.023l-2.42-6.545h1.09l1.807 5.215h.068l1.807-5.215zM96.467 303v-6.545h1.006V303zm.512-7.636a.7.7 0 0 1-.507-.201.64.64 0 0 1-.21-.481q0-.282.21-.482a.72.72 0 0 1 .507-.2q.294 0 .502.2a.64.64 0 0 1 .214.482.64.64 0 0 1-.213.481.7.7 0 0 1-.503.201m3.342 3.698V303h-1.006v-6.545h.972v1.022h.085q.23-.498.699-.801.469-.306 1.21-.307.665 0 1.163.273.499.269.776.818.276.546.277 1.381V303h-1.006v-4.091q0-.771-.4-1.202-.4-.434-1.1-.434-.481 0-.861.209-.375.209-.592.609t-.217.971m8.656 6.529q-.73 0-1.253-.188a2.7 2.7 0 0 1-.874-.485 2.7 2.7 0 0 1-.55-.64l.802-.562q.136.179.345.409.208.234.571.405.366.175.959.175.792 0 1.308-.384.515-.383.515-1.202v-1.329h-.085a6 6 0 0 1-.315.443 1.8 1.8 0 0 1-.58.464q-.375.201-1.014.201a2.73 2.73 0 0 1-1.423-.375 2.63 2.63 0 0 1-.993-1.091q-.363-.716-.362-1.739 0-1.005.353-1.751.354-.75.985-1.159.63-.414 1.457-.414.639 0 1.014.213.38.21.58.478.204.264.315.434h.103v-1.039h.971v6.733q0 .843-.383 1.372a2.2 2.2 0 0 1-1.023.779 3.9 3.9 0 0 1-1.423.252m-.035-3.597q.606 0 1.023-.277.418-.276.635-.797.217-.52.217-1.244 0-.707-.213-1.248a1.87 1.87 0 0 0-.63-.848q-.418-.307-1.032-.307-.639 0-1.065.324a1.97 1.97 0 0 0-.635.869 3.4 3.4 0 0 0-.209 1.21q0 .683.213 1.206.217.52.64.818.426.294 1.056.294m10.739 1.142q-.886 0-1.555-.422a2.86 2.86 0 0 1-1.04-1.18q-.37-.759-.371-1.773 0-1.022.371-1.785.375-.764 1.04-1.185.669-.422 1.555-.422t1.551.422q.67.421 1.04 1.185.375.763.375 1.785 0 1.014-.375 1.773a2.8 2.8 0 0 1-1.04 1.18q-.664.423-1.551.422m0-.903q.673 0 1.108-.345t.644-.908q.208-.562.208-1.219 0-.656-.208-1.223a2.07 2.07 0 0 0-.644-.916q-.435-.35-1.108-.349-.673 0-1.108.349-.435.35-.643.916-.21.567-.209 1.223 0 .657.209 1.219.208.563.643.908t1.108.345m5.761.767-1.994-6.545h1.057l1.415 5.011h.068l1.398-5.011h1.074l1.38 4.994h.068l1.415-4.994h1.057L130.386 303h-.989l-1.432-5.028h-.102L126.431 303zm9.273-3.938V303h-1.005v-6.545h.971v1.022h.085a1.9 1.9 0 0 1 .699-.801q.47-.306 1.21-.307.665 0 1.164.273.499.269.775.818.277.546.277 1.381V303h-1.005v-4.091q0-.771-.401-1.202-.4-.434-1.099-.434-.482 0-.861.209-.375.209-.592.609-.218.4-.218.971m8.758 4.074q-.945 0-1.632-.417a2.8 2.8 0 0 1-1.052-1.176q-.367-.759-.367-1.765t.367-1.772a2.9 2.9 0 0 1 1.031-1.202q.665-.435 1.551-.435.512 0 1.01.171.498.17.908.554.409.38.652 1.005.243.627.243 1.543v.426h-5.046v-.869h4.023q0-.554-.222-.989a1.67 1.67 0 0 0-.622-.686 1.75 1.75 0 0 0-.946-.251q-.6 0-1.04.298a2 2 0 0 0-.669.767 2.25 2.25 0 0 0-.234 1.014v.58q0 .741.256 1.257.26.512.72.78a2.1 2.1 0 0 0 1.069.264q.397 0 .716-.111a1.5 1.5 0 0 0 .559-.341q.234-.23.362-.571l.971.273a2.16 2.16 0 0 1-.515.869 2.5 2.5 0 0 1-.895.58 3.3 3.3 0 0 1-1.198.204m4.24-.136v-6.545h.972v.988h.068q.18-.486.648-.788a1.9 1.9 0 0 1 1.057-.303 11 11 0 0 1 .528.017v1.023a3 3 0 0 0-.234-.038q-.18-.03-.379-.03-.478 0-.853.2a1.47 1.47 0 0 0-.801 1.334V303zm9.102-5.08-.904.256a1.7 1.7 0 0 0-.251-.439 1.2 1.2 0 0 0-.443-.358q-.282-.14-.721-.14-.6 0-1.001.277-.396.272-.396.694 0 .375.272.593.273.216.853.362l.971.238q.879.214 1.309.652.43.435.43 1.121 0 .562-.324 1.006a2.15 2.15 0 0 1-.895.699q-.575.255-1.338.255-1 0-1.658-.434-.656-.435-.831-1.27l.955-.239q.137.529.516.793.383.264 1.001.264.703 0 1.117-.298.417-.303.417-.725a.76.76 0 0 0-.238-.571q-.24-.234-.733-.349l-1.091-.256q-.9-.213-1.321-.66-.418-.452-.418-1.13 0-.554.311-.98.315-.426.857-.669a3 3 0 0 1 1.235-.243q.972 0 1.526.426.558.428.793 1.125m2.638 1.142V303h-1.005v-8.727h1.005v3.204h.086q.23-.507.69-.805.465-.303 1.236-.303.669 0 1.172.269.502.264.78.814.28.544.281 1.389V303h-1.006v-4.091q0-.78-.405-1.206-.4-.43-1.112-.43-.494 0-.886.209a1.5 1.5 0 0 0-.614.609q-.222.4-.222.971m6.085 3.938v-6.545h1.005V303zm.511-7.636a.7.7 0 0 1-.507-.201.64.64 0 0 1-.209-.481q0-.282.209-.482a.72.72 0 0 1 .507-.2q.294 0 .503.2a.64.64 0 0 1 .213.482.64.64 0 0 1-.213.481.7.7 0 0 1-.503.201m2.336 10.091v-9h.972v1.039h.119a9 9 0 0 1 .307-.434q.2-.268.571-.478.375-.213 1.014-.213.827 0 1.458.414.63.413.984 1.172t.354 1.789q0 1.04-.354 1.803-.354.759-.98 1.176-.627.414-1.445.413-.63 0-1.01-.208a1.9 1.9 0 0 1-.583-.482 6 6 0 0 1-.316-.452h-.085v3.461zm.989-5.728q0 .742.217 1.309.218.562.635.882.418.315 1.023.315.63 0 1.052-.332a2.03 2.03 0 0 0 .64-.904q.217-.571.217-1.27 0-.69-.213-1.244a1.9 1.9 0 0 0-.635-.882q-.422-.328-1.061-.328-.614 0-1.031.311-.418.306-.631.861-.213.55-.213 1.282"/><path fill="#ececec" fill-opacity=".6" d="M81.807 324v-8.727h2.949q1.026 0 1.679.37.656.368.971.993.316.627.316 1.398 0 .772-.316 1.402a2.34 2.34 0 0 1-.963 1.006q-.651.37-1.67.37h-2.114v-.937h2.08q.703 0 1.129-.243a1.45 1.45 0 0 0 .618-.656q.195-.418.196-.942 0-.524-.196-.937a1.4 1.4 0 0 0-.622-.648q-.43-.239-1.142-.239h-1.858V324zm10.07.136q-.887 0-1.556-.422a2.86 2.86 0 0 1-1.04-1.18q-.37-.759-.37-1.773 0-1.022.37-1.785.375-.764 1.04-1.185.67-.422 1.555-.422.886 0 1.552.422.668.421 1.04 1.185.374.763.374 1.785 0 1.014-.375 1.773a2.8 2.8 0 0 1-1.04 1.18q-.665.423-1.55.422m0-.903q.673 0 1.107-.345.435-.345.644-.908.209-.562.209-1.219 0-.656-.21-1.223a2.07 2.07 0 0 0-.643-.916q-.435-.35-1.108-.349-.672 0-1.108.349-.435.35-.643.916-.21.567-.209 1.223 0 .657.209 1.219.21.563.644.908t1.107.345m6.972.903q-.818 0-1.445-.413-.626-.417-.98-1.176-.353-.763-.353-1.803 0-1.031.353-1.789.354-.76.985-1.172.63-.414 1.457-.414.64 0 1.01.213.375.21.571.478.2.264.311.434h.085v-3.221h1.006V324h-.972v-1.006h-.119q-.111.18-.315.452-.205.269-.584.482-.38.208-1.01.208m.136-.903q.606 0 1.023-.315.418-.32.635-.882.217-.567.217-1.309 0-.732-.213-1.282a1.86 1.86 0 0 0-.63-.861q-.419-.312-1.032-.311-.638 0-1.065.328-.422.324-.635.882-.209.554-.209 1.244 0 .699.213 1.27.217.567.64.904.426.332 1.056.332m13.752.222-.656-.648 2.701-2.702h-6.997v-.937h6.997l-2.701-2.694.656-.656 3.818 3.818zm9.429.545v-8.727h2.949q1.023 0 1.679.349.656.345.972.95.315.606.315 1.377t-.315 1.368q-.316.596-.968.937-.651.337-1.666.337h-2.386v-.955h2.352q.699 0 1.125-.204.43-.205.622-.58a1.94 1.94 0 0 0 .196-.903q0-.525-.196-.916a1.33 1.33 0 0 0-.626-.605q-.43-.218-1.138-.218h-1.858V324zm4.108-3.92 2.148 3.92h-1.227l-2.114-3.92zm6.106 4.056q-.947 0-1.632-.417a2.8 2.8 0 0 1-1.053-1.176q-.366-.759-.367-1.765 0-1.005.367-1.772a2.9 2.9 0 0 1 1.031-1.202q.665-.435 1.551-.435.512 0 1.01.171.499.17.908.554.41.38.652 1.005.243.627.243 1.543v.426h-5.046v-.869h4.023q0-.554-.221-.989a1.67 1.67 0 0 0-.623-.686 1.75 1.75 0 0 0-.946-.251q-.6 0-1.039.298a1.96 1.96 0 0 0-.669.767 2.24 2.24 0 0 0-.235 1.014v.58q0 .741.256 1.257.26.512.72.78.46.264 1.07.264.396 0 .716-.111.323-.115.558-.341.234-.23.362-.571l.972.273a2.2 2.2 0 0 1-.516.869 2.5 2.5 0 0 1-.895.58 3.3 3.3 0 0 1-1.197.204m4.24 2.319v-9h.971v1.039h.12q.11-.17.306-.434.2-.268.571-.478.375-.213 1.015-.213.827 0 1.457.414.63.413.984 1.172t.354 1.789q0 1.04-.354 1.803-.353.759-.98 1.176-.626.414-1.444.413-.631 0-1.01-.208a1.9 1.9 0 0 1-.584-.482 6 6 0 0 1-.315-.452h-.086v3.461zm.988-5.728q0 .742.218 1.309.217.562.635.882.417.315 1.022.315.631 0 1.053-.332.426-.337.639-.904.217-.571.217-1.27 0-.69-.213-1.244a1.9 1.9 0 0 0-.635-.882q-.422-.328-1.061-.328-.614 0-1.031.311a1.86 1.86 0 0 0-.631.861q-.213.55-.213 1.282m7.33-5.454V324h-1.006v-8.727zM146.78 324v-6.545h1.006V324zm.511-7.636a.7.7 0 0 1-.507-.201.64.64 0 0 1-.209-.481q0-.282.209-.482a.72.72 0 0 1 .507-.2q.294 0 .503.2a.64.64 0 0 1 .213.482.64.64 0 0 1-.213.481.7.7 0 0 1-.503.201m4.996 7.772q-.92 0-1.586-.434a2.83 2.83 0 0 1-1.022-1.198q-.358-.762-.358-1.743 0-.996.366-1.76.37-.767 1.031-1.197.666-.435 1.552-.435.69 0 1.244.256.554.255.908.716.353.46.438 1.074h-1.005a1.56 1.56 0 0 0-.512-.793q-.391-.35-1.056-.349-.588 0-1.032.307a2 2 0 0 0-.686.856q-.243.55-.243 1.291 0 .759.239 1.321.243.562.682.874.443.31 1.04.311.391 0 .711-.136a1.47 1.47 0 0 0 .857-1.006h1.005a2.3 2.3 0 0 1-.421 1.044 2.36 2.36 0 0 1-.883.733q-.544.268-1.269.268m5.97.017q-.622 0-1.13-.234a1.94 1.94 0 0 1-.805-.686q-.298-.452-.298-1.091 0-.562.221-.912.222-.353.593-.554a3.1 3.1 0 0 1 .818-.298 10 10 0 0 1 .908-.162q.596-.077.967-.115.375-.043.545-.141.175-.098.175-.341v-.034q0-.63-.345-.98-.341-.35-1.036-.349-.72 0-1.129.315t-.575.673l-.955-.341q.256-.596.682-.929.43-.336.938-.468a4 4 0 0 1 1.005-.137q.316 0 .725.077.413.072.797.303.388.23.643.694.256.465.256 1.245V324h-1.006v-.886h-.051a1.8 1.8 0 0 1-.341.456 2 2 0 0 1-.635.413q-.397.17-.967.17m.153-.903q.597 0 1.006-.234.413-.235.622-.605.213-.372.213-.78v-.921q-.064.076-.281.141-.213.06-.495.106a21 21 0 0 1-.963.128 4 4 0 0 0-.733.166 1.26 1.26 0 0 0-.545.337q-.204.221-.205.605 0 .525.388.793.393.264.993.264m9.591-5.795a1.34 1.34 0 0 0-.622-1.006q-.544-.358-1.338-.358-.579 0-1.014.187a1.6 1.6 0 0 0-.673.516 1.24 1.24 0 0 0-.239.746q0 .35.166.601.171.246.435.413.264.162.554.268.29.103.533.167l.886.238q.34.09.758.247.423.159.806.431.387.269.639.69.251.422.251 1.036 0 .707-.37 1.278-.368.571-1.074.908-.703.336-1.709.336-.937 0-1.624-.302a2.6 2.6 0 0 1-1.073-.844 2.4 2.4 0 0 1-.439-1.257h1.091q.042.495.332.818a1.8 1.8 0 0 0 .741.477q.452.154.972.154.605 0 1.087-.196.481-.2.762-.554a1.3 1.3 0 0 0 .282-.835q0-.435-.243-.708a1.8 1.8 0 0 0-.639-.443 7 7 0 0 0-.857-.298l-1.074-.307q-1.022-.294-1.619-.84-.597-.545-.597-1.427 0-.733.397-1.279a2.64 2.64 0 0 1 1.073-.852 3.6 3.6 0 0 1 1.513-.307q.844 0 1.5.303a2.6 2.6 0 0 1 1.04.818q.388.52.409 1.181zm5.488 6.681q-.946 0-1.632-.417a2.8 2.8 0 0 1-1.053-1.176q-.366-.759-.366-1.765t.366-1.772a2.9 2.9 0 0 1 1.032-1.202q.665-.435 1.551-.435.511 0 1.01.171.498.17.907.554.41.38.652 1.005.243.627.243 1.543v.426h-5.045v-.869h4.022q0-.554-.221-.989a1.67 1.67 0 0 0-.622-.686 1.75 1.75 0 0 0-.946-.251q-.601 0-1.04.298a1.96 1.96 0 0 0-.669.767 2.25 2.25 0 0 0-.234 1.014v.58q0 .741.255 1.257.261.512.72.78.46.264 1.07.264.396 0 .716-.111.324-.115.558-.341.234-.23.362-.571l.972.273a2.15 2.15 0 0 1-.516.869 2.5 2.5 0 0 1-.895.58 3.3 3.3 0 0 1-1.197.204m7.087-6.681v.852h-3.392v-.852zm-2.404-1.569h1.006v6.239q0 .426.123.639a.65.65 0 0 0 .324.281q.201.069.422.069.166 0 .273-.017l.17-.035.205.904a2.2 2.2 0 0 1-.75.119q-.427 0-.835-.183a1.66 1.66 0 0 1-.674-.558q-.264-.375-.264-.946zm12.823 7.569-.657-.648 2.702-2.702h-6.997v-.937h6.997l-2.702-2.694.657-.656 3.818 3.818zm12.122.545h-2.693v-8.727h2.813q1.27 0 2.173.524a3.43 3.43 0 0 1 1.385 1.496q.481.971.481 2.326 0 1.364-.486 2.348a3.45 3.45 0 0 1-1.414 1.509q-.93.524-2.259.524m-1.636-.938h1.568q1.083 0 1.794-.417a2.58 2.58 0 0 0 1.061-1.189q.35-.77.35-1.837 0-1.056-.346-1.819a2.54 2.54 0 0 0-1.031-1.176q-.686-.414-1.709-.414h-1.687zm10.176 1.074q-.947 0-1.632-.417a2.8 2.8 0 0 1-1.053-1.176q-.366-.759-.366-1.765t.366-1.772a2.9 2.9 0 0 1 1.032-1.202q.665-.435 1.551-.435.511 0 1.01.171.498.17.907.554.41.38.652 1.005.243.627.243 1.543v.426h-5.045v-.869h4.022q0-.554-.221-.989a1.67 1.67 0 0 0-.622-.686 1.75 1.75 0 0 0-.946-.251q-.601 0-1.04.298a1.96 1.96 0 0 0-.669.767 2.25 2.25 0 0 0-.234 1.014v.58q0 .741.255 1.257.26.512.72.78.46.264 1.07.264.396 0 .716-.111.324-.115.558-.341.234-.23.362-.571l.972.273a2.15 2.15 0 0 1-.516.869 2.5 2.5 0 0 1-.895.58 3.3 3.3 0 0 1-1.197.204m4.24 2.319v-9h.972v1.039h.119a9 9 0 0 1 .307-.434q.2-.268.571-.478.375-.213 1.014-.213.827 0 1.457.414.631.413.985 1.172.353.758.353 1.789 0 1.04-.353 1.803-.354.759-.98 1.176-.627.414-1.445.413-.63 0-1.01-.208a1.9 1.9 0 0 1-.584-.482 7 7 0 0 1-.315-.452h-.085v3.461zm.989-5.728q0 .742.217 1.309.218.562.635.882.417.315 1.023.315.63 0 1.052-.332.426-.337.639-.904.218-.571.218-1.27 0-.69-.213-1.244a1.93 1.93 0 0 0-.635-.882q-.422-.328-1.061-.328-.613 0-1.032.311a1.86 1.86 0 0 0-.63.861q-.213.55-.213 1.282m7.329-5.454V324h-1.005v-8.727zm4.501 8.863q-.886 0-1.555-.422a2.86 2.86 0 0 1-1.04-1.18q-.37-.759-.371-1.773 0-1.022.371-1.785.375-.764 1.04-1.185.669-.422 1.555-.422.887 0 1.551.422.67.421 1.04 1.185.375.763.375 1.785 0 1.014-.375 1.773a2.8 2.8 0 0 1-1.04 1.18q-.665.423-1.551.422m0-.903q.673 0 1.108-.345.434-.345.644-.908.208-.562.208-1.219 0-.656-.208-1.223a2.07 2.07 0 0 0-.644-.916q-.435-.35-1.108-.349-.673 0-1.108.349a2.07 2.07 0 0 0-.643.916 3.5 3.5 0 0 0-.209 1.223q0 .657.209 1.219t.643.908q.435.345 1.108.345m4.915 3.222q-.256 0-.456-.043a1.2 1.2 0 0 1-.277-.077l.255-.886q.367.093.648.068a.78.78 0 0 0 .499-.251q.22-.222.405-.721l.187-.511-2.42-6.579h1.09l1.807 5.215h.069l1.806-5.215h1.091l-2.778 7.5q-.188.507-.465.839a1.74 1.74 0 0 1-.643.499 2 2 0 0 1-.818.162m6.032-2.455v-6.545h.971v1.022h.085q.205-.523.661-.814.456-.294 1.095-.294.648 0 1.078.294.435.29.678.814h.068a1.9 1.9 0 0 1 .754-.805q.502-.303 1.206-.303.878 0 1.436.55.558.546.559 1.7V324h-1.006v-4.381q0-.724-.396-1.035a1.47 1.47 0 0 0-.934-.311q-.69 0-1.069.417-.38.413-.38 1.049V324h-1.022v-4.483q0-.558-.362-.899-.363-.345-.934-.345-.391 0-.733.209a1.6 1.6 0 0 0-.545.579 1.7 1.7 0 0 0-.205.848V324zm13.174.136q-.947 0-1.632-.417a2.8 2.8 0 0 1-1.053-1.176q-.366-.759-.366-1.765t.366-1.772a2.9 2.9 0 0 1 1.031-1.202q.665-.435 1.551-.435.512 0 1.01.171.499.17.908.554.41.38.652 1.005.243.627.243 1.543v.426h-5.046v-.869h4.023q0-.554-.221-.989a1.67 1.67 0 0 0-.623-.686 1.75 1.75 0 0 0-.946-.251q-.6 0-1.039.298a1.96 1.96 0 0 0-.669.767 2.24 2.24 0 0 0-.235 1.014v.58q0 .741.256 1.257.26.512.72.78.46.264 1.07.264.396 0 .716-.111.323-.115.558-.341.234-.23.362-.571l.972.273a2.2 2.2 0 0 1-.516.869q-.362.371-.895.58a3.3 3.3 0 0 1-1.197.204m5.245-4.074V324h-1.005v-6.545h.971v1.022h.086q.23-.498.698-.801.469-.306 1.211-.307.665 0 1.163.273.498.269.776.818.276.546.277 1.381V324h-1.006v-4.091q0-.771-.401-1.202-.4-.434-1.099-.434-.482 0-.861.209-.375.209-.592.609-.218.4-.218.971m8.861-2.607v.852h-3.392v-.852zm-2.404-1.569h1.006v6.239q0 .426.124.639a.64.64 0 0 0 .324.281q.2.069.421.069.166 0 .273-.017l.171-.035.204.904a2.2 2.2 0 0 1-.75.119q-.426 0-.835-.183a1.66 1.66 0 0 1-.673-.558q-.265-.375-.265-.946z"/><path fill="#05df72" d="m59.296 352.062.647-.664 2.25 2.216 4.654-4.637.664.665-5.318 5.301z"/><path fill="#d4d4d8" d="M72.644 354.21v-.869l3.835-6.068h.631v1.346h-.426l-2.898 4.586v.068h5.165v.937zm4.108 1.79v-8.727h1.006V356zm3.796 0v-.767l2.88-3.153q.508-.555.836-.964.328-.413.486-.775.162-.366.162-.767 0-.46-.222-.797a1.44 1.44 0 0 0-.597-.52 1.9 1.9 0 0 0-.852-.183q-.503 0-.878.209a1.44 1.44 0 0 0-.575.575q-.2.37-.2.869h-1.006q0-.767.354-1.346.352-.58.963-.904.614-.324 1.376-.324.768 0 1.36.324.591.324.929.874.336.55.336 1.223 0 .481-.175.942-.17.456-.596 1.018-.422.558-1.172 1.364l-1.96 2.096v.068h4.057V356zm10.368-9.136-2.813 10.448h-.92l2.812-10.448zm.97 7.346v-.869l3.836-6.068h.63v1.346h-.426l-2.898 4.586v.068h5.165v.937zm4.108 1.79v-8.727H97V356zm3.796 0v-.767l2.881-3.153q.507-.555.835-.964.328-.413.486-.775.162-.366.162-.767a1.41 1.41 0 0 0-.818-1.317 1.94 1.94 0 0 0-.853-.183q-.503 0-.878.209a1.44 1.44 0 0 0-.575.575q-.2.37-.2.869h-1.006q0-.767.354-1.346t.963-.904a2.9 2.9 0 0 1 1.376-.324q.768 0 1.36.324t.929.874q.336.55.336 1.223 0 .481-.174.942-.171.456-.597 1.018-.422.558-1.172 1.364l-1.96 2.096v.068h4.057V356zm10.794 0v-8.727h2.949q1.023 0 1.679.349.656.345.972.95.315.606.315 1.377t-.315 1.368q-.316.596-.968.937-.651.337-1.666.337h-2.386v-.955h2.352q.699 0 1.125-.204.43-.205.622-.58a1.94 1.94 0 0 0 .196-.903q0-.525-.196-.916a1.33 1.33 0 0 0-.626-.605q-.43-.218-1.138-.218h-1.858V356zm4.108-3.92 2.148 3.92h-1.227l-2.114-3.92zm6.106 4.056q-.946 0-1.633-.417a2.8 2.8 0 0 1-1.052-1.176q-.367-.759-.367-1.765t.367-1.772a2.9 2.9 0 0 1 1.031-1.202q.665-.435 1.551-.435.512 0 1.01.171.499.17.908.554.41.38.652 1.005.243.627.243 1.543v.426h-5.046v-.869h4.023q0-.554-.222-.989a1.66 1.66 0 0 0-.622-.686 1.75 1.75 0 0 0-.946-.251q-.6 0-1.039.298a1.96 1.96 0 0 0-.669.767 2.24 2.24 0 0 0-.235 1.014v.58q0 .741.256 1.257.26.512.72.78.46.264 1.07.264.396 0 .715-.111a1.5 1.5 0 0 0 .559-.341q.234-.23.362-.571l.972.273a2.2 2.2 0 0 1-.516.869 2.5 2.5 0 0 1-.895.58 3.3 3.3 0 0 1-1.197.204m8.876-5.216-.903.256a1.7 1.7 0 0 0-.252-.439 1.2 1.2 0 0 0-.443-.358q-.282-.14-.72-.14-.601 0-1.002.277-.396.272-.396.694 0 .375.273.593.273.216.852.362l.972.238q.877.214 1.308.652.43.435.43 1.121 0 .562-.324 1.006a2.16 2.16 0 0 1-.894.699q-.576.255-1.338.255-1.002 0-1.658-.434-.657-.435-.831-1.27l.954-.239q.136.529.516.793.384.264 1.001.264.703 0 1.117-.298.417-.303.418-.725a.76.76 0 0 0-.239-.571q-.238-.234-.733-.349l-1.091-.256q-.899-.213-1.321-.66-.418-.452-.418-1.13 0-.554.311-.98.316-.426.857-.669a3 3 0 0 1 1.236-.243q.972 0 1.525.426a2.3 2.3 0 0 1 .793 1.125m4.292 5.216q-.886 0-1.555-.422a2.86 2.86 0 0 1-1.04-1.18q-.37-.759-.371-1.773 0-1.022.371-1.785.375-.764 1.04-1.185.669-.422 1.555-.422.887 0 1.551.422.67.421 1.04 1.185.375.763.375 1.785 0 1.014-.375 1.773a2.8 2.8 0 0 1-1.04 1.18q-.665.423-1.551.422m0-.903q.673 0 1.108-.345.434-.345.644-.908.208-.562.208-1.219 0-.656-.208-1.223a2.07 2.07 0 0 0-.644-.916q-.435-.35-1.108-.349-.673 0-1.108.349a2.07 2.07 0 0 0-.643.916 3.5 3.5 0 0 0-.209 1.223q0 .657.209 1.219t.643.908q.435.345 1.108.345m8.626-1.909v-3.869h1.006V356h-1.006v-1.108h-.068a2.15 2.15 0 0 1-.716.848q-.486.345-1.227.345-.614 0-1.091-.268a1.9 1.9 0 0 1-.75-.818q-.273-.55-.273-1.385v-4.159h1.006v4.09q0 .716.401 1.143.404.426 1.031.426.375 0 .763-.192.392-.192.656-.588.268-.396.268-1.01M145.44 356v-6.545h.972v.988h.068q.179-.486.647-.788a1.9 1.9 0 0 1 1.057-.303 11 11 0 0 1 .529.017v1.023a3 3 0 0 0-.235-.038 2.3 2.3 0 0 0-.379-.03q-.477 0-.852.2a1.47 1.47 0 0 0-.801 1.334V356zm6.925.136q-.92 0-1.586-.434a2.83 2.83 0 0 1-1.022-1.198q-.358-.762-.358-1.743 0-.996.366-1.76.37-.767 1.032-1.197.665-.435 1.551-.435.69 0 1.244.256.554.255.908.716.353.46.439 1.074h-1.006a1.56 1.56 0 0 0-.511-.793q-.393-.35-1.057-.349-.588 0-1.032.307a2 2 0 0 0-.686.856q-.243.55-.243 1.291 0 .759.239 1.321.243.562.682.874.443.31 1.04.311.392 0 .711-.136a1.5 1.5 0 0 0 .542-.392 1.5 1.5 0 0 0 .315-.614h1.006a2.34 2.34 0 0 1-.422 1.044 2.36 2.36 0 0 1-.882.733q-.546.268-1.27.268m6.788 0q-.946 0-1.632-.417a2.8 2.8 0 0 1-1.053-1.176q-.366-.759-.366-1.765t.366-1.772a2.9 2.9 0 0 1 1.032-1.202q.665-.435 1.551-.435.511 0 1.01.171.498.17.907.554.41.38.652 1.005.243.627.243 1.543v.426h-5.045v-.869h4.023q0-.554-.222-.989a1.67 1.67 0 0 0-.622-.686 1.75 1.75 0 0 0-.946-.251q-.601 0-1.04.298a1.96 1.96 0 0 0-.669.767 2.25 2.25 0 0 0-.234 1.014v.58q0 .741.255 1.257.261.512.72.78.46.264 1.07.264.396 0 .716-.111.324-.115.558-.341.234-.23.362-.571l.972.273a2.15 2.15 0 0 1-.516.869 2.5 2.5 0 0 1-.895.58 3.3 3.3 0 0 1-1.197.204m8.876-5.216-.903.256a1.7 1.7 0 0 0-.251-.439 1.2 1.2 0 0 0-.444-.358q-.28-.14-.72-.14-.6 0-1.001.277-.396.272-.396.694 0 .375.272.593.273.216.853.362l.971.238q.877.214 1.308.652.43.435.431 1.121 0 .562-.324 1.006a2.15 2.15 0 0 1-.895.699q-.575.255-1.338.255-1.001 0-1.658-.434-.655-.435-.831-1.27l.955-.239q.137.529.516.793.383.264 1.001.264.704 0 1.116-.298.418-.303.418-.725a.76.76 0 0 0-.239-.571q-.238-.234-.733-.349l-1.09-.256q-.9-.213-1.322-.66-.417-.452-.417-1.13 0-.554.311-.98a2.1 2.1 0 0 1 .856-.669 3 3 0 0 1 1.236-.243q.972 0 1.526.426.558.428.792 1.125m5.009 5.08v-6.545h.971v.988h.068q.18-.486.648-.788a1.9 1.9 0 0 1 1.057-.303 11 11 0 0 1 .528.017v1.023a3 3 0 0 0-.234-.038 2.3 2.3 0 0 0-.379-.03 1.8 1.8 0 0 0-.853.2 1.47 1.47 0 0 0-.801 1.334V356zm7.01.136q-.946 0-1.633-.417a2.8 2.8 0 0 1-1.052-1.176q-.366-.759-.367-1.765 0-1.005.367-1.772a2.9 2.9 0 0 1 1.031-1.202q.665-.435 1.551-.435.512 0 1.01.171.499.17.908.554.41.38.652 1.005.243.627.243 1.543v.426h-5.046v-.869h4.023q0-.554-.222-.989a1.66 1.66 0 0 0-.622-.686 1.75 1.75 0 0 0-.946-.251q-.6 0-1.039.298a1.96 1.96 0 0 0-.669.767 2.24 2.24 0 0 0-.235 1.014v.58q0 .741.256 1.257.26.512.72.78.46.264 1.07.264.396 0 .715-.111a1.5 1.5 0 0 0 .559-.341q.234-.23.362-.571l.972.273a2.2 2.2 0 0 1-.516.869 2.5 2.5 0 0 1-.895.58 3.3 3.3 0 0 1-1.197.204m8.876-5.216-.903.256a1.7 1.7 0 0 0-.252-.439 1.2 1.2 0 0 0-.443-.358q-.282-.14-.72-.14-.601 0-1.002.277-.396.272-.396.694 0 .375.273.593.273.216.852.362l.972.238q.877.214 1.308.652.43.435.43 1.121 0 .562-.324 1.006a2.16 2.16 0 0 1-.894.699q-.576.255-1.338.255-1.002 0-1.658-.434-.657-.435-.831-1.27l.954-.239q.137.529.516.793.384.264 1.001.264.703 0 1.117-.298.417-.303.418-.725a.76.76 0 0 0-.239-.571q-.238-.234-.733-.349l-1.091-.256q-.899-.213-1.321-.66-.417-.452-.418-1.13 0-.554.311-.98.316-.426.857-.669a3 3 0 0 1 1.236-.243q.972 0 1.525.426a2.3 2.3 0 0 1 .793 1.125m4.292 5.216q-.886 0-1.555-.422a2.86 2.86 0 0 1-1.04-1.18q-.37-.759-.371-1.773 0-1.022.371-1.785.375-.764 1.04-1.185.669-.422 1.555-.422.887 0 1.551.422.67.421 1.04 1.185.375.763.375 1.785 0 1.014-.375 1.773a2.8 2.8 0 0 1-1.04 1.18q-.665.423-1.551.422m0-.903q.673 0 1.108-.345.434-.345.644-.908.208-.562.208-1.219 0-.656-.208-1.223a2.07 2.07 0 0 0-.644-.916q-.435-.35-1.108-.349-.673 0-1.108.349a2.07 2.07 0 0 0-.643.916 3.5 3.5 0 0 0-.209 1.223q0 .657.209 1.219t.643.908q.435.345 1.108.345m5.507-7.96V356h-1.006v-8.727zm7.194 2.182-2.42 6.545h-1.023l-2.42-6.545h1.091l1.806 5.215h.069l1.806-5.215zm3.838 6.681q-.947 0-1.632-.417a2.8 2.8 0 0 1-1.053-1.176q-.366-.759-.367-1.765 0-1.005.367-1.772a2.9 2.9 0 0 1 1.031-1.202q.665-.435 1.551-.435.512 0 1.01.171.499.17.908.554.41.38.652 1.005.243.627.243 1.543v.426h-5.046v-.869h4.023q0-.554-.221-.989a1.67 1.67 0 0 0-.623-.686 1.75 1.75 0 0 0-.946-.251q-.6 0-1.039.298a1.96 1.96 0 0 0-.669.767 2.24 2.24 0 0 0-.235 1.014v.58q0 .741.256 1.257.26.512.72.78.46.264 1.07.264.395 0 .716-.111.323-.115.558-.341.234-.23.362-.571l.972.273a2.2 2.2 0 0 1-.516.869 2.5 2.5 0 0 1-.895.58 3.3 3.3 0 0 1-1.197.204m6.711 0q-.818 0-1.444-.413-.627-.417-.98-1.176-.354-.763-.354-1.803 0-1.031.354-1.789.352-.76.984-1.172.63-.414 1.457-.414.64 0 1.01.213.376.21.571.478.2.264.311.434h.086v-3.221h1.005V356h-.971v-1.006h-.12q-.111.18-.315.452-.204.269-.584.482-.379.208-1.01.208m.137-.903q.605 0 1.022-.315.418-.32.635-.882.218-.567.218-1.309 0-.732-.213-1.282a1.86 1.86 0 0 0-.631-.861q-.418-.312-1.031-.311-.64 0-1.066.328-.422.324-.635.882a3.5 3.5 0 0 0-.208 1.244q0 .699.213 1.27.217.567.639.904.426.332 1.057.332"/></g><defs><clipPath id="b"><path fill="#fff" d="M34 62h344v310a6 6 0 0 1-6 6H34z"/></clipPath></defs></svg>