<svg xmlns="http://www.w3.org/2000/svg" width="378" height="378" fill="none" viewBox="0 0 378 378"><g clip-path="url(#a)"><path fill="#747066" d="M-6 6a6 6 0 0 1 6-6h379a6 6 0 0 1 6 6v366a6 6 0 0 1-6 6H0a6 6 0 0 1-6-6z"/><path fill="url(#b)" d="M339 156h2a2 2 0 0 1 2 2v38a2 2 0 0 1-2 2h-2z"/><path fill="url(#c)" d="M37 113a2 2 0 0 1 2-2h2v20h-2a2 2 0 0 1-2-2z"/><path fill="url(#d)" d="M37 143a2 2 0 0 1 2-2h2v36h-2a2 2 0 0 1-2-2z"/><path fill="url(#e)" d="M37 188a2 2 0 0 1 2-2h2v27h-2a2 2 0 0 1-2-2z"/><g clip-path="url(#f)"><path fill="#3a3a3c" d="M40-403c0-24.301 19.7-44 44-44h212c24.301 0 44 19.699 44 44v783H40z"/><g clip-path="url(#g)"><mask id="h" fill="#fff"><path d="M44 79c0-22.091 17.909-40 40-40h212c22.091 0 40 17.909 40 40v301H44z"/></mask><path fill="#14120b" fill-opacity=".9" d="M44 79c0-22.091 17.909-40 40-40h212c22.091 0 40 17.909 40 40v301H44z"/><path fill="#000" d="M142.14 61.64c0-7.732 6.268-14 14-14h68c7.732 0 14 6.268 14 14s-6.268 14-14 14h-68c-7.732 0-14-6.268-14-14"/><path fill="#fff" fill-opacity=".86" d="M66.138 116.64v-13.819h8.602v1.822h-6.47v4.163h5.856v1.829H68.27v6.005zm10.718 0v-10.364h2.064v10.364zm1.045-11.95q-.533 0-.91-.357a1.14 1.14 0 0 1-.378-.857q0-.5.377-.857a1.28 1.28 0 0 1 .911-.358q.527 0 .904.358.378.357.378.857 0 .499-.378.857a1.27 1.27 0 0 1-.904.357m5.51 5.803v6.147h-2.065v-10.364h1.976v1.694h.135a2.96 2.96 0 0 1 1.12-1.33q.77-.5 1.937-.499 1.06 0 1.855.445.797.446 1.235 1.316.445.87.439 2.146v6.592h-2.058v-6.336q0-1.12-.58-1.747-.58-.635-1.6-.635-.695 0-1.241.304-.54.297-.85.877-.304.573-.304 1.39m12.928 6.342q-1.254 0-2.233-.641-.978-.64-1.538-1.835-.555-1.201-.554-2.881 0-1.686.56-2.881.567-1.194 1.545-1.822.985-.634 2.234-.634.957 0 1.545.324.594.317.924.742t.513.749h.115v-5.135h2.057v13.819h-2.01v-1.62h-.162a6 6 0 0 1-.533.77q-.337.425-.931.735t-1.532.31m.472-1.74q.858 0 1.451-.459.6-.459.91-1.275.318-.823.318-1.903 0-1.073-.31-1.876-.304-.802-.904-1.248-.594-.445-1.465-.445-.903 0-1.51.465-.602.466-.905 1.275-.297.81-.297 1.829 0 1.032.304 1.855.31.823.91 1.303.608.479 1.498.479m7.282 1.545v-10.364h2.065v10.364zm1.046-11.95a1.28 1.28 0 0 1-.911-.357 1.14 1.14 0 0 1-.378-.857q0-.5.378-.857a1.28 1.28 0 0 1 .911-.358q.526 0 .904.358.378.357.378.857 0 .499-.378.857a1.27 1.27 0 0 1-.904.357m5.509 5.803v6.147h-2.065v-10.364h1.977v1.694h.135a2.95 2.95 0 0 1 1.12-1.33q.77-.5 1.936-.499 1.06 0 1.856.445.796.446 1.235 1.316.445.87.438 2.146v6.592h-2.058v-6.336q0-1.12-.58-1.747-.58-.635-1.599-.635-.694 0-1.242.304a2.1 2.1 0 0 0-.85.877q-.303.573-.303 1.39m13.415 10.249q-1.25 0-2.139-.331-.891-.323-1.458-.863a3.6 3.6 0 0 1-.83-1.181l1.782-.695q.182.297.485.627.304.332.83.56.526.237 1.35.237 1.14 0 1.882-.554.742-.546.742-1.761v-2.031h-.135q-.175.338-.519.743t-.938.701q-.594.29-1.538.29-1.221 0-2.207-.573-.978-.58-1.551-1.707-.567-1.134-.567-2.787t.56-2.833q.567-1.188 1.545-1.815.985-.628 2.233-.628.958 0 1.552.324.594.317.931.742t.52.749h.141v-1.68h2.018v10.586q0 1.337-.621 2.193-.614.857-1.68 1.269-1.059.418-2.388.418m-.014-5.958q.857 0 1.451-.405.6-.405.911-1.16.317-.763.317-1.822 0-1.046-.311-1.835-.304-.79-.904-1.228-.594-.445-1.464-.445-.905 0-1.511.465-.601.459-.904 1.255-.297.797-.297 1.788 0 1.012.303 1.775.31.762.911 1.187.607.425 1.498.425m14.946-5.958-1.869.318a2.1 2.1 0 0 0-.364-.662 1.8 1.8 0 0 0-.661-.519q-.412-.203-1.032-.203-.85 0-1.417.378t-.567.972q0 .513.378.823.385.31 1.234.513l1.66.378q1.437.33 2.139 1.018.702.689.702 1.788 0 .939-.54 1.667t-1.498 1.14-2.213.412q-1.761 0-2.867-.749t-1.357-2.132l1.998-.297q.181.763.742 1.147.567.385 1.464.385.986 0 1.572-.405.587-.412.587-1.006 0-.486-.358-.809-.357-.331-1.106-.493l-1.748-.391q-1.457-.324-2.152-1.046-.695-.73-.688-1.835-.007-.918.506-1.606.52-.694 1.423-1.08.912-.39 2.085-.391 1.694 0 2.665.736.98.728 1.282 1.949"/><path fill="#fff" fill-opacity=".48" d="M65.609 136.64v-8h2.703q.938 0 1.539.32.602.316.89.871.29.554.29 1.262 0 .707-.29 1.254a2.04 2.04 0 0 1-.886.859q-.598.309-1.528.309H66.14v-.875h2.156q.64 0 1.031-.188.396-.187.57-.531.18-.348.18-.828t-.18-.84a1.22 1.22 0 0 0-.573-.555q-.395-.2-1.043-.199h-1.704v7.141zm3.765-3.594 1.97 3.594h-1.126l-1.937-3.594zm5.597 3.719q-.867 0-1.496-.383a2.57 2.57 0 0 1-.965-1.078q-.336-.696-.336-1.617 0-.923.336-1.625.34-.708.945-1.102.61-.398 1.422-.398.469 0 .926.156t.832.508q.376.347.598.921t.222 1.415v.39H72.83v-.797h3.688q0-.507-.203-.906a1.53 1.53 0 0 0-.57-.629 1.6 1.6 0 0 0-.868-.23q-.55 0-.953.273a1.8 1.8 0 0 0-.613.703 2.1 2.1 0 0 0-.215.93v.531q0 .68.234 1.152.24.47.66.715.423.243.981.243.363 0 .656-.102.297-.106.512-.313.215-.21.332-.523l.89.25a2 2 0 0 1-.472.797 2.3 2.3 0 0 1-.82.531 3 3 0 0 1-1.098.188m6.324 0q-.843 0-1.453-.399a2.6 2.6 0 0 1-.937-1.097q-.33-.7-.329-1.598 0-.914.337-1.613.339-.703.945-1.098.609-.398 1.422-.398.632 0 1.14.234t.832.656.403.985h-.922a1.43 1.43 0 0 0-.469-.727q-.36-.32-.969-.32-.54 0-.945.281a1.84 1.84 0 0 0-.629.785q-.222.504-.223 1.184 0 .695.22 1.211.222.515.624.8.407.286.953.286.36 0 .653-.125.292-.126.496-.36.202-.234.289-.562h.922a2.13 2.13 0 0 1-1.196 1.629q-.5.246-1.164.246m6.223 0q-.867 0-1.496-.383a2.57 2.57 0 0 1-.965-1.078q-.336-.696-.336-1.617 0-.923.336-1.625.34-.708.945-1.102.61-.398 1.422-.398.469 0 .926.156t.832.508q.376.347.598.921t.222 1.415v.39h-4.625v-.797h3.688q0-.507-.203-.906a1.53 1.53 0 0 0-.57-.629 1.6 1.6 0 0 0-.868-.23q-.55 0-.953.273a1.8 1.8 0 0 0-.613.703 2.1 2.1 0 0 0-.215.93v.531q0 .68.234 1.152.24.47.66.715.423.243.98.243.365 0 .657-.102.297-.106.512-.313.215-.21.332-.523l.89.25a2 2 0 0 1-.472.797 2.3 2.3 0 0 1-.82.531 3 3 0 0 1-1.098.188m4.808-3.735v3.61h-.921v-6h.89v.937h.078q.212-.457.641-.734.43-.281 1.11-.281.609 0 1.066.25.457.246.71.75.255.5.255 1.265v3.813h-.922v-3.75q0-.708-.367-1.102-.368-.398-1.008-.398-.442 0-.79.191-.343.192-.542.559-.2.366-.2.89m8.123-2.39v.781h-3.11v-.781zm-2.203-1.438h.921v5.719q0 .39.114.586a.6.6 0 0 0 .296.258q.184.062.387.062.153 0 .25-.015l.156-.032.188.828q-.094.036-.262.071a2 2 0 0 1-.425.039q-.39 0-.766-.168a1.5 1.5 0 0 1-.617-.512q-.243-.344-.242-.867zm7.732 2.781-.828.235a1.5 1.5 0 0 0-.231-.403 1.1 1.1 0 0 0-.406-.328q-.258-.129-.66-.129-.55 0-.918.254-.363.25-.363.637 0 .344.25.543t.781.332l.891.219q.804.195 1.199.597.394.4.394 1.028 0 .516-.297.922-.292.406-.82.64-.527.235-1.226.235-.918 0-1.52-.399-.601-.397-.762-1.164l.875-.219q.126.485.473.727.351.242.918.242.645 0 1.023-.273.383-.278.383-.664a.7.7 0 0 0-.219-.524q-.218-.215-.671-.32l-1-.234q-.825-.197-1.211-.606-.383-.414-.383-1.035 0-.508.285-.899.289-.39.785-.613a2.8 2.8 0 0 1 1.133-.222q.891 0 1.398.39.512.391.727 1.031"/></g><path fill="#edecec" fill-opacity=".025" d="M336 380v.64h.64V380zm-292 0h-.64v.64H44zM84 39v.64h212v-1.28H84zm252 40h-.64v301h1.28V79zm0 301v-.64H44v1.28h292zm-292 0h.64V79h-1.28v301zM296 39v.64c21.738 0 39.36 17.622 39.36 39.36h1.28c0-22.445-18.195-40.64-40.64-40.64zM84 39v-.64c-22.445 0-40.64 18.195-40.64 40.64h1.28c0-21.738 17.622-39.36 39.36-39.36z" mask="url(#h)"/></g><mask id="i" fill="#fff"><path d="M55 148a6 6 0 0 1 6-6h267v56H55z"/></mask><path fill="#fff" fill-opacity=".06" d="M55 142h273zm273 57H55v-2h273zm-273-1v-56zm273-56v56z" mask="url(#i)"/><path fill="#f54e00" fill-opacity=".7" fill-rule="evenodd" d="M92 170.5c0 5.523-4.477 10-10 10s-10-4.477-10-10 4.477-10 10-10 10 4.477 10 10m2 0c0 6.627-5.373 12-12 12s-12-5.373-12-12 5.373-12 12-12 12 5.373 12 12m-13 2v-7h2v7zm0 3v-2h2v2z" clip-rule="evenodd"/><path fill="#d4d4d8" d="M106.991 165.657q-.674 0-1.218-.249a2.07 2.07 0 0 1-.864-.734q-.313-.48-.313-1.178 0-.6.23-.987.231-.389.624-.614.392-.226.877-.342a9 9 0 0 1 .988-.176l1.034-.12q.397-.05.577-.161t.18-.36v-.033q0-.604-.342-.937-.337-.332-1.006-.332-.697 0-1.099.309-.397.305-.549.679l-1.298-.296a2.5 2.5 0 0 1 .675-1.043 2.7 2.7 0 0 1 1.029-.582 4 4 0 0 1 1.223-.184q.425 0 .901.101.48.097.895.36.42.264.688.753.268.484.268 1.26v4.709h-1.348v-.969h-.056a2 2 0 0 1-.401.526 2.2 2.2 0 0 1-.688.429q-.42.171-1.007.171m.301-1.108q.571 0 .978-.226.411-.227.623-.591.217-.369.217-.79v-.914q-.073.075-.286.139-.207.06-.475.106l-.522.079-.425.055a3.5 3.5 0 0 0-.734.171q-.328.12-.526.346-.194.222-.194.591 0 .513.379.775.378.26.965.259m9.529-1.99v-4.15h1.385v7.091h-1.357v-1.228h-.074a2.2 2.2 0 0 1-.785.946q-.536.375-1.334.374a2.4 2.4 0 0 1-1.21-.3 2.1 2.1 0 0 1-.821-.9q-.296-.596-.296-1.473v-4.51h1.381v4.344q0 .725.401 1.154.402.43 1.044.43a1.7 1.7 0 0 0 1.412-.781q.259-.392.254-.997m6.55-4.15v1.108h-3.873v-1.108zm-2.835-1.699h1.381v6.708q0 .401.12.605.12.198.309.272.194.069.42.069.166 0 .291-.023.125-.022.194-.037l.249 1.141q-.12.045-.342.092a2.7 2.7 0 0 1-.554.055 2.4 2.4 0 0 1-1.015-.194 1.74 1.74 0 0 1-.762-.627q-.291-.425-.291-1.067zm5.894 4.58v4.21h-1.38v-9.455h1.362v3.518h.088q.25-.572.761-.909.513-.337 1.339-.337.73 0 1.274.3.55.3.85.895.304.591.304 1.478v4.51h-1.38v-4.344q0-.78-.402-1.21-.401-.434-1.117-.434-.489 0-.877.208a1.5 1.5 0 0 0-.605.61q-.216.396-.217.96m10.618-.383v1.195h-4.192v-1.195zm7.153-.767-1.251.222a1.5 1.5 0 0 0-.249-.457 1.25 1.25 0 0 0-.452-.356q-.287-.138-.716-.138-.586 0-.979.263-.392.258-.392.669 0 .355.263.573.264.217.85.355l1.126.259q.978.226 1.459.697.48.471.48 1.223 0 .638-.369 1.136-.366.494-1.021.776-.651.28-1.509.281-1.191 0-1.944-.508-.752-.512-.923-1.454l1.334-.203q.124.522.513.789.387.264 1.011.264.678 0 1.084-.282.407-.286.407-.697a.72.72 0 0 0-.25-.559q-.245-.226-.752-.341l-1.2-.264q-.993-.225-1.468-.72-.471-.494-.471-1.251 0-.628.351-1.098.35-.471.969-.734.619-.268 1.417-.268 1.15 0 1.81.498.66.495.872 1.325m4.713 5.503q-1.049 0-1.805-.448a3.03 3.03 0 0 1-1.164-1.269q-.406-.822-.406-1.925 0-1.09.406-1.921a3.16 3.16 0 0 1 1.145-1.297q.739-.466 1.727-.466.6 0 1.163.198.564.199 1.011.623.448.425.706 1.104.26.673.259 1.639v.489h-5.637v-1.034h4.284q0-.545-.221-.965a1.7 1.7 0 0 0-.623-.669 1.75 1.75 0 0 0-.933-.245q-.582 0-1.016.286a1.9 1.9 0 0 0-.664.739 2.1 2.1 0 0 0-.231.983v.808q0 .71.249 1.21.254.498.706.761a2.1 2.1 0 0 0 1.058.259q.392 0 .715-.111.324-.115.559-.342.236-.226.36-.558l1.306.235a2.35 2.35 0 0 1-.563 1.011q-.402.43-1.011.67a3.8 3.8 0 0 1-1.38.235m4.573-.143v-7.091h1.335v1.127h.074q.194-.573.683-.901a1.96 1.96 0 0 1 1.117-.332 6 6 0 0 1 .586.032v1.321a2 2 0 0 0-.295-.051 3 3 0 0 0-.425-.033q-.49 0-.872.208a1.54 1.54 0 0 0-.822 1.39v4.33zm11.272-7.091-2.572 7.091h-1.477l-2.576-7.091h1.482l1.796 5.457h.074l1.791-5.457zm1.297 7.091v-7.091h1.38v7.091zm.697-8.185a.88.88 0 0 1-.619-.24.78.78 0 0 1-.254-.582q0-.34.254-.581a.87.87 0 0 1 .619-.245q.36 0 .614.245.258.24.258.581a.78.78 0 0 1-.258.582.86.86 0 0 1-.614.24m5.527 8.328q-1.029 0-1.773-.466a3.1 3.1 0 0 1-1.135-1.297q-.397-.826-.397-1.893 0-1.08.406-1.907a3.1 3.1 0 0 1 1.145-1.297q.738-.466 1.74-.466.809 0 1.44.3.633.296 1.021.831.392.535.466 1.251h-1.343a1.6 1.6 0 0 0-.508-.859q-.393-.36-1.053-.36-.576 0-1.011.305-.429.3-.669.858-.24.555-.24 1.312 0 .775.235 1.338.236.564.665.873.433.309 1.02.309.393 0 .711-.143.324-.147.54-.42.222-.273.31-.656h1.343a2.6 2.6 0 0 1-.448 1.228q-.373.54-1.002.85-.623.309-1.463.309m7.445 0q-1.047 0-1.805-.448a3.04 3.04 0 0 1-1.163-1.269q-.406-.822-.406-1.925 0-1.09.406-1.921a3.15 3.15 0 0 1 1.145-1.297q.738-.466 1.726-.466.6 0 1.164.198.562.199 1.011.623.447.425.706 1.104.258.673.258 1.639v.489h-5.636v-1.034h4.284q0-.545-.222-.965a1.67 1.67 0 0 0-.623-.669 1.74 1.74 0 0 0-.932-.245 1.8 1.8 0 0 0-1.016.286 1.9 1.9 0 0 0-.665.739 2.1 2.1 0 0 0-.231.983v.808q0 .71.25 1.21.253.498.706.761.453.26 1.057.259.392 0 .716-.111.322-.115.558-.342.235-.226.36-.558l1.307.235a2.4 2.4 0 0 1-.563 1.011q-.402.43-1.011.67a3.8 3.8 0 0 1-1.381.235"/><path fill="#ececec" fill-opacity=".4" d="M105.179 182.409v-9.091h2.102v.696h-1.307v7.699h1.307v.696zm5.47-.81q-.625 0-1.126-.248a2.1 2.1 0 0 1-.803-.682 1.86 1.86 0 0 1-.33-.987h.852q.05.493.448.817.4.32.959.319.447 0 .795-.209a1.5 1.5 0 0 0 .55-.576q.203-.369.203-.834 0-.476-.21-.849a1.54 1.54 0 0 0-.568-.593 1.6 1.6 0 0 0-.827-.22 2.3 2.3 0 0 0-.686.103 1.9 1.9 0 0 0-.578.266l-.824-.099.44-3.58h3.778v.782h-3.039l-.256 2.144h.043q.224-.177.561-.294a2.1 2.1 0 0 1 .703-.118q.667 0 1.189.32.526.316.824.867.302.55.302 1.257 0 .696-.312 1.243-.309.543-.853.859a2.44 2.44 0 0 1-1.235.312m4.162-.042a.62.62 0 0 1-.451-.188.62.62 0 0 1-.188-.451q0-.264.188-.451a.62.62 0 0 1 .451-.189q.264 0 .451.189a.6.6 0 0 1 .189.451q0 .174-.089.319a.62.62 0 0 1-.551.32m4.248.042q-.802 0-1.368-.436-.564-.441-.863-1.275-.297-.839-.298-2.024 0-1.18.298-2.014.303-.839.867-1.278.568-.444 1.364-.444.795 0 1.36.444.567.44.866 1.278.302.835.302 2.014 0 1.185-.298 2.024-.299.834-.863 1.275-.565.436-1.367.436m0-.781q.795 0 1.235-.767.441-.766.441-2.187 0-.945-.203-1.609-.198-.664-.575-1.012a1.27 1.27 0 0 0-.898-.348q-.789 0-1.233.778-.444.774-.444 2.191 0 .944.199 1.605.199.66.572 1.005.376.344.906.344m7.329-4.773 1.307 2.231 1.307-2.231h.966l-1.762 2.728 1.762 2.727h-.966l-1.307-2.116-1.307 2.116h-.966l1.733-2.727-1.733-2.728zm9.804 5.569q-.739 0-1.296-.352a2.4 2.4 0 0 1-.867-.984q-.309-.631-.309-1.477 0-.852.309-1.488a2.4 2.4 0 0 1 .867-.987q.557-.352 1.296-.352.738 0 1.293.352.557.351.866.987.313.636.313 1.488 0 .846-.313 1.477-.31.633-.866.984-.555.351-1.293.352m0-.753q.561 0 .923-.288.363-.288.536-.756t.174-1.016q0-.546-.174-1.019a1.7 1.7 0 0 0-.536-.764q-.362-.291-.923-.291t-.923.291a1.7 1.7 0 0 0-.537.764 2.9 2.9 0 0 0-.174 1.019q0 .547.174 1.016t.537.756q.362.288.923.288m8.016-4.816-2.017 5.455h-.853l-2.017-5.455h.909l1.506 4.347h.057l1.506-4.347zm3.198 5.569q-.789 0-1.361-.348a2.35 2.35 0 0 1-.877-.98q-.305-.633-.305-1.471 0-.837.305-1.477.31-.642.86-1.001.554-.363 1.292-.363.426 0 .842.142.415.143.756.462.342.316.544.838t.202 1.286v.355h-4.204v-.725h3.352q0-.461-.185-.823a1.4 1.4 0 0 0-.518-.572 1.45 1.45 0 0 0-.789-.21q-.5 0-.866.249a1.63 1.63 0 0 0-.558.639q-.195.395-.195.845v.483q0 .618.213 1.048.217.426.6.65.384.22.892.22.33 0 .596-.093.27-.095.465-.284.196-.191.302-.475l.81.227a1.8 1.8 0 0 1-.43.724q-.302.309-.746.483a2.8 2.8 0 0 1-.997.171m3.533-.114v-5.455h.81v.824h.056q.15-.405.54-.657.391-.252.881-.252a7 7 0 0 1 .44.014v.853a2 2 0 0 0-.195-.032 2 2 0 0 0-.316-.025q-.398 0-.71.167-.31.163-.49.454a1.2 1.2 0 0 0-.178.657v3.452zm5.397-7.614v9.091h-2.103v-.696h1.307v-7.699h-1.307v-.696z"/><path fill="#d4d4d8" fill-opacity=".9" d="m268.734 167.422-.273.965h-5.121l.273-.965zm-2.492 6.078-2.797-3.395-.008-.761h1.387q.52 0 .879-.16a1.2 1.2 0 0 0 .547-.465 1.4 1.4 0 0 0 .188-.75q0-.656-.391-1.043t-1.223-.387h-1.484l.285-1.039h1.199q.97 0 1.598.309.629.308.937.855t.309 1.262q0 .636-.254 1.152a2 2 0 0 1-.809.84q-.554.324-1.457.379l-.035.008 2.555 3.129v.066zm2.496-8-.277.973-4.094-.024.278-.949zm3.875 8.109a3.55 3.55 0 0 1-1.437-.277 2.43 2.43 0 0 1-.996-.77 2.04 2.04 0 0 1-.391-1.148h1.227q.023.356.238.617.219.258.57.399.352.14.781.14.473 0 .836-.164a1.36 1.36 0 0 0 .575-.457q.207-.297.207-.683 0-.403-.207-.707a1.35 1.35 0 0 0-.598-.485q-.39-.176-.945-.176h-.676v-.984h.676q.445 0 .781-.16a1.3 1.3 0 0 0 .531-.445q.192-.29.192-.676 0-.371-.168-.645a1.13 1.13 0 0 0-.469-.433 1.5 1.5 0 0 0-.711-.157q-.391 0-.731.145a1.34 1.34 0 0 0-.546.406 1.04 1.04 0 0 0-.227.629h-1.168q.02-.648.383-1.141a2.5 2.5 0 0 1 .969-.769 3.15 3.15 0 0 1 1.336-.277q.769 0 1.328.3.563.297.867.793.309.496.305 1.086.003.672-.375 1.141-.375.468-1 .629v.062q.796.122 1.234.633.441.511.437 1.27.005.66-.367 1.183a2.5 2.5 0 0 1-1.004.824q-.636.297-1.457.297m5.604-1.203-.059.426a7 7 0 0 1-.199.977 15 15 0 0 1-.285.949q-.145.437-.238.695h-.829l.141-.656q.09-.411.176-.918t.129-1.035l.039-.438zm4.145 1.203q-.733 0-1.32-.281a2.4 2.4 0 0 1-.93-.781 2.07 2.07 0 0 1-.371-1.133h1.172q.043.515.457.848t.992.332q.462 0 .817-.211.359-.215.562-.59a1.74 1.74 0 0 0 .207-.856q0-.487-.211-.871a1.55 1.55 0 0 0-.582-.601 1.65 1.65 0 0 0-.843-.223q-.364 0-.731.125a1.7 1.7 0 0 0-.594.328l-1.105-.164.449-4.031h4.398v1.035h-3.394l-.254 2.238h.047a1.9 1.9 0 0 1 .621-.378 2.3 2.3 0 0 1 .836-.153 2.45 2.45 0 0 1 2.203 1.297q.332.597.328 1.375a2.67 2.67 0 0 1-.351 1.387q-.352.609-.977.961-.62.347-1.426.347m7.216-8.109v8h-1.211v-6.789h-.047l-1.914 1.25v-1.156l1.996-1.305zm1.996 6.438v-.977l3.457-5.461h.77v1.437h-.489l-2.472 3.915v.062h4.738v1.024zm3.793 1.562v-1.859l.008-.446V165.5h1.145v8z"/><path fill="#d4d4d8" fill-opacity=".6" d="m301.305 166.648-2.109 7.836h-.853l2.109-7.836zm.86 6.852v-4.909h.729v.767h.064q.153-.394.495-.61.342-.221.821-.221.486 0 .809.221.326.216.508.61h.051q.188-.38.566-.604.377-.227.904-.227.659 0 1.077.412.42.41.419 1.275v3.286h-.754v-3.286q0-.543-.297-.776a1.1 1.1 0 0 0-.7-.233q-.518 0-.802.313-.285.31-.285.786v3.196h-.767v-3.362a.9.9 0 0 0-.272-.675q-.271-.258-.7-.258-.294 0-.549.156a1.2 1.2 0 0 0-.409.435 1.3 1.3 0 0 0-.154.636v3.068zm9.817.102a2.14 2.14 0 0 1-1.167-.316 2.16 2.16 0 0 1-.78-.885q-.278-.57-.278-1.33 0-.767.278-1.339a2.15 2.15 0 0 1 .78-.889 2.14 2.14 0 0 1 1.167-.316q.665 0 1.163.316.501.316.78.889.28.572.281 1.339 0 .76-.281 1.33a2.13 2.13 0 0 1-.78.885q-.498.316-1.163.316m0-.677q.504 0 .83-.259.327-.26.483-.681.157-.422.157-.914t-.157-.917a1.53 1.53 0 0 0-.483-.687q-.326-.262-.83-.262-.505 0-.831.262a1.53 1.53 0 0 0-.483.687 2.6 2.6 0 0 0-.157.917q0 .492.157.914.156.421.483.681.326.259.831.259"/><mask id="j" fill="#fff"><path d="M55 200h273v57H55z"/></mask><path fill="#fff" fill-opacity=".06" d="M328 257v-.64H55v1.28h273z" mask="url(#j)"/><path fill="#f54e00" fill-opacity=".7" fill-rule="evenodd" d="M75 219.18v16h16v2H73v-18zm11.631 4.298 4.297 3.967-1.356 1.469-2.204-2.033-1.997 4.745-3.106-2.846-2.671 4.9H76v-2h2.406l3.328-6.101 2.895 2.654z" clip-rule="evenodd"/><path fill="#d4d4d8" d="M104.928 226.839v-9.75h1.348v1.149h.115q.12-.22.347-.512.226-.29.627-.508.402-.222 1.062-.222a2.77 2.77 0 0 1 1.533.434q.674.435 1.057 1.251.388.818.388 1.967t-.383 1.971q-.384.817-1.053 1.261a2.73 2.73 0 0 1-1.528.438q-.646 0-1.057-.217a2 2 0 0 1-.637-.508 4 4 0 0 1-.356-.517h-.083v3.763zm1.353-6.205q0 .749.217 1.311.216.564.627.882.411.314 1.007.314.618 0 1.034-.328.415-.332.628-.9.217-.568.217-1.279 0-.702-.213-1.26a1.93 1.93 0 0 0-.628-.882q-.416-.323-1.038-.323-.6 0-1.016.309a1.9 1.9 0 0 0-.623.864q-.213.554-.212 1.292m8.734 3.703q-.674 0-1.219-.25a2.05 2.05 0 0 1-.863-.734q-.314-.48-.314-1.177 0-.6.231-.988.23-.387.623-.614t.877-.341a9 9 0 0 1 .988-.176l1.034-.12q.397-.051.577-.161t.18-.361v-.032q0-.604-.341-.937-.337-.333-1.007-.332-.697 0-1.098.309-.397.304-.55.679l-1.297-.296q.23-.647.674-1.043a2.7 2.7 0 0 1 1.029-.582 4 4 0 0 1 1.224-.185q.424 0 .9.102.48.097.896.36.42.263.687.753.268.485.268 1.26v4.709h-1.348v-.97h-.055a2 2 0 0 1-.402.527 2.1 2.1 0 0 1-.688.429q-.42.171-1.006.171m.3-1.108q.573 0 .979-.227.41-.225.623-.59.217-.37.217-.79v-.914q-.074.074-.286.139-.208.06-.476.106-.267.041-.522.078l-.424.056a3.4 3.4 0 0 0-.734.17q-.328.12-.527.347-.193.22-.193.591 0 .512.378.775.379.26.965.259m5.656 3.61q-.31 0-.563-.051a1.8 1.8 0 0 1-.378-.102l.332-1.131q.378.102.674.088a.8.8 0 0 0 .522-.221q.23-.208.406-.679l.171-.471-2.595-7.183h1.477l1.796 5.503h.074l1.796-5.503h1.482l-2.922 8.037a3.2 3.2 0 0 1-.517.937 2 2 0 0 1-.748.582q-.435.194-1.007.194m6.491-2.659v-7.091h1.325v1.154h.088q.22-.587.725-.914.503-.333 1.204-.333.711 0 1.191.333.486.332.716.914h.074a2 2 0 0 1 .808-.905q.554-.342 1.32-.342.965 0 1.574.605.614.604.614 1.824v4.755h-1.38v-4.626q0-.72-.392-1.043a1.43 1.43 0 0 0-.938-.323q-.673 0-1.048.415-.373.41-.373 1.057v4.52h-1.376v-4.714q0-.576-.36-.928-.36-.35-.937-.35-.393 0-.725.207a1.5 1.5 0 0 0-.531.568 1.74 1.74 0 0 0-.199.845v4.372zm14.545.143q-1.047 0-1.805-.448a3.04 3.04 0 0 1-1.163-1.27q-.406-.82-.406-1.925 0-1.089.406-1.92a3.16 3.16 0 0 1 1.145-1.297q.738-.467 1.727-.467.6 0 1.163.199.563.198 1.011.623.447.424.706 1.104.26.674.259 1.638v.49h-5.637v-1.034h4.284q0-.546-.222-.965a1.7 1.7 0 0 0-.623-.67 1.74 1.74 0 0 0-.932-.244 1.8 1.8 0 0 0-1.016.286 1.9 1.9 0 0 0-.665.739q-.23.452-.23.983v.808q0 .711.249 1.209a1.8 1.8 0 0 0 .706.762q.453.258 1.057.259.393 0 .716-.111.323-.115.558-.342a1.5 1.5 0 0 0 .361-.558l1.306.235a2.36 2.36 0 0 1-.563 1.011 2.7 2.7 0 0 1-1.011.669 3.8 3.8 0 0 1-1.381.236m5.955-4.354v4.211h-1.381v-7.091h1.325v1.154h.088q.244-.563.766-.905.527-.342 1.325-.342.725 0 1.27.305.544.3.844.896.301.596.301 1.472v4.511h-1.381v-4.344q0-.771-.401-1.205-.402-.44-1.104-.439-.48 0-.854.208a1.5 1.5 0 0 0-.586.609q-.212.397-.212.96m9.699-2.88v1.108h-3.873v-1.108zm-2.835-1.699h1.381v6.708q0 .401.12.604.12.2.309.273.194.069.42.069.166 0 .291-.023l.194-.037.249 1.14q-.12.047-.342.093a3 3 0 0 1-.554.055 2.4 2.4 0 0 1-1.015-.194 1.74 1.74 0 0 1-.762-.628q-.291-.424-.291-1.066zm8.298 4.196v1.196h-4.191v-1.196zm3.377 4.594-2.086-7.091h1.426l1.39 5.207h.069l1.394-5.207h1.427l1.385 5.184h.069l1.38-5.184h1.427l-2.082 7.091h-1.408l-1.441-5.12h-.106l-1.44 5.12zm11.962.143q-.997 0-1.741-.457a3.1 3.1 0 0 1-1.154-1.279q-.411-.822-.411-1.92 0-1.104.411-1.93a3.1 3.1 0 0 1 1.154-1.284q.744-.456 1.741-.457.997 0 1.74.457.744.458 1.154 1.284.411.826.411 1.93 0 1.098-.411 1.92a3.1 3.1 0 0 1-1.154 1.279q-.743.457-1.74.457m.004-1.159q.647 0 1.071-.342.425-.34.628-.909.208-.568.208-1.251 0-.678-.208-1.247a2.03 2.03 0 0 0-.628-.918q-.424-.346-1.071-.346-.651 0-1.08.346a2.06 2.06 0 0 0-.632.918 3.7 3.7 0 0 0-.204 1.247q0 .683.204 1.251.207.568.632.909.429.342 1.08.342m4.842 1.016v-7.091h1.334v1.126h.074q.194-.572.683-.9a1.95 1.95 0 0 1 1.117-.332 6 6 0 0 1 .587.032v1.32a3 3 0 0 0-.296-.051 3 3 0 0 0-.425-.032q-.49 0-.872.208a1.53 1.53 0 0 0-.6.568q-.222.36-.222.821v4.331zm6.259-2.405-.01-1.686h.24l2.826-3h1.652l-3.222 3.416h-.217zm-1.27 2.405v-9.455h1.38v9.455zm4.478 0-2.539-3.37.951-.965 3.282 4.335zm5.522.143q-1.047 0-1.805-.448a3.04 3.04 0 0 1-1.163-1.27q-.406-.82-.406-1.925 0-1.089.406-1.92a3.16 3.16 0 0 1 1.145-1.297q.738-.467 1.727-.467.6 0 1.163.199.563.198 1.011.623.448.424.706 1.104.26.674.259 1.638v.49h-5.637v-1.034h4.284q0-.546-.221-.965a1.7 1.7 0 0 0-.624-.67 1.74 1.74 0 0 0-.932-.244 1.8 1.8 0 0 0-1.016.286 1.9 1.9 0 0 0-.665.739q-.23.452-.23.983v.808q0 .711.249 1.209a1.8 1.8 0 0 0 .706.762q.453.258 1.057.259.392 0 .716-.111.323-.115.558-.342a1.5 1.5 0 0 0 .361-.558l1.306.235a2.36 2.36 0 0 1-.563 1.011 2.7 2.7 0 0 1-1.011.669 3.8 3.8 0 0 1-1.381.236m4.574-.143v-7.091h1.334v1.126h.074q.194-.572.684-.9a1.95 1.95 0 0 1 1.117-.332 6 6 0 0 1 .586.032v1.32a3 3 0 0 0-.295-.051 3 3 0 0 0-.425-.032 1.8 1.8 0 0 0-.873.208 1.55 1.55 0 0 0-.821 1.389v4.331z"/><path fill="#d4d4d8" fill-opacity=".4" d="M105.179 241.089v-9.091h2.102v.696h-1.307v7.699h1.307v.696zm5.47-.81q-.625 0-1.126-.248a2.1 2.1 0 0 1-.803-.682 1.86 1.86 0 0 1-.33-.987h.852q.05.494.448.816.4.32.959.32.447 0 .795-.21a1.47 1.47 0 0 0 .55-.575q.203-.369.203-.834 0-.477-.21-.849a1.53 1.53 0 0 0-.568-.593 1.6 1.6 0 0 0-.827-.22 2.3 2.3 0 0 0-.686.103 1.9 1.9 0 0 0-.578.266l-.824-.099.44-3.58h3.778v.781h-3.039l-.256 2.145h.043a2.13 2.13 0 0 1 1.264-.412q.667 0 1.189.32.526.315.824.866.302.55.302 1.257 0 .697-.312 1.243-.309.543-.853.86a2.44 2.44 0 0 1-1.235.312m4.162-.042a.62.62 0 0 1-.451-.189.62.62 0 0 1-.188-.451q0-.262.188-.451a.62.62 0 0 1 .451-.188q.264 0 .451.188a.62.62 0 0 1 .189.451q0 .174-.089.32a.66.66 0 0 1-.231.234.6.6 0 0 1-.32.086m4.248.042q-.802 0-1.368-.437-.564-.44-.863-1.275-.297-.837-.298-2.024 0-1.179.298-2.013.303-.838.867-1.279.568-.444 1.364-.443.795 0 1.36.443.567.44.866 1.279.302.834.302 2.013 0 1.187-.298 2.024-.299.835-.863 1.275-.565.438-1.367.437m0-.781q.795 0 1.235-.767.441-.768.441-2.188 0-.944-.203-1.608-.198-.664-.575-1.012a1.27 1.27 0 0 0-.898-.348q-.789 0-1.233.777-.444.775-.444 2.191 0 .945.199 1.605.199.662.572 1.005.376.345.906.345m7.329-4.773 1.307 2.23 1.307-2.23h.966l-1.762 2.727 1.762 2.728h-.966l-1.307-2.117-1.307 2.117h-.966l1.733-2.728-1.733-2.727zm9.804 5.568q-.739 0-1.296-.351a2.4 2.4 0 0 1-.867-.984q-.309-.632-.309-1.477 0-.852.309-1.488a2.4 2.4 0 0 1 .867-.987q.557-.352 1.296-.352.738 0 1.293.352.557.351.866.987.313.636.313 1.488 0 .845-.313 1.477a2.37 2.37 0 0 1-.866.984q-.555.351-1.293.351m0-.753q.561 0 .923-.287.363-.288.536-.757t.174-1.015-.174-1.019a1.7 1.7 0 0 0-.536-.764q-.362-.291-.923-.291t-.923.291a1.7 1.7 0 0 0-.537.764 2.9 2.9 0 0 0-.174 1.019q0 .547.174 1.015.174.47.537.757.362.288.923.287m8.016-4.815-2.017 5.455h-.853l-2.017-5.455h.909l1.506 4.347h.057l1.506-4.347zm3.198 5.568q-.789 0-1.361-.348a2.34 2.34 0 0 1-.877-.98q-.305-.631-.305-1.47 0-.838.305-1.477.31-.643.86-1.002.554-.362 1.292-.362.426 0 .842.142.415.143.756.462.342.316.544.838t.202 1.285v.356h-4.204v-.725h3.352q0-.462-.185-.824a1.4 1.4 0 0 0-.518-.572 1.46 1.46 0 0 0-.789-.209q-.5 0-.866.249a1.63 1.63 0 0 0-.558.639 1.9 1.9 0 0 0-.195.845v.483q0 .618.213 1.047.217.427.6.65.384.22.892.22.33 0 .596-.092.27-.095.465-.284.196-.191.302-.476l.81.227a1.8 1.8 0 0 1-.43.725q-.302.309-.746.483-.444.17-.997.17m3.533-.113v-5.455h.81v.824h.056q.15-.405.54-.657.391-.252.881-.252l.231.003q.138.004.209.011v.852a3 3 0 0 0-.511-.056q-.398 0-.71.166-.31.164-.49.455a1.2 1.2 0 0 0-.178.657v3.452zm5.397-7.614v9.091h-2.103v-.696h1.307v-7.699h-1.307v-.696z"/><path fill="#d4d4d8" fill-opacity=".9" d="m268.734 226.102-.273.964h-5.121l.273-.964zm-2.492 6.078-2.797-3.395-.008-.762h1.387q.52 0 .879-.16a1.2 1.2 0 0 0 .547-.465q.188-.308.188-.75 0-.656-.391-1.043t-1.223-.386h-1.484l.285-1.039h1.199q.97 0 1.598.308.629.309.937.856t.309 1.261q0 .637-.254 1.153a2 2 0 0 1-.809.84q-.554.324-1.457.379l-.035.007 2.555 3.129v.067zm2.496-8-.277.972-4.094-.023.278-.949zm.922 6.437v-.976l3.457-5.461h.77v1.437h-.489l-2.472 3.914v.063h4.738v1.023zm3.793 1.563v-1.86l.008-.445v-5.695h1.144v8zm4.807-1.094-.059.426a7 7 0 0 1-.199.976q-.137.512-.285.95-.145.437-.238.695h-.829l.141-.656q.09-.411.176-.918t.129-1.036l.039-.437zm4.145 1.203q-.733 0-1.32-.281a2.4 2.4 0 0 1-.93-.781 2.07 2.07 0 0 1-.371-1.133h1.172q.043.515.457.847t.992.332q.462 0 .817-.211a1.5 1.5 0 0 0 .562-.589q.207-.375.207-.856 0-.488-.211-.871a1.54 1.54 0 0 0-.582-.601 1.64 1.64 0 0 0-.844-.223q-.363 0-.73.125a1.7 1.7 0 0 0-.594.328l-1.105-.164.449-4.031h4.398v1.035h-3.394l-.254 2.238h.047q.234-.226.621-.379a2.3 2.3 0 0 1 .836-.152 2.45 2.45 0 0 1 2.203 1.297q.332.597.328 1.375.005.777-.351 1.386-.352.61-.977.961-.62.348-1.426.348m6.841-8.219a3.1 3.1 0 0 1 1.055.196q.52.191.937.625.422.433.672 1.171.253.734.258 1.829 0 1.05-.211 1.871-.211.816-.605 1.379-.391.563-.95.855a2.7 2.7 0 0 1-1.257.293q-.715 0-1.27-.281a2.4 2.4 0 0 1-.902-.778 2.56 2.56 0 0 1-.434-1.148h1.191q.118.516.477.836.363.316.938.316.878 0 1.371-.765.492-.77.496-2.149h-.063a2.25 2.25 0 0 1-1.183.953 2.4 2.4 0 0 1-.801.133q-.691 0-1.258-.34a2.5 2.5 0 0 1-.902-.933 2.7 2.7 0 0 1-.336-1.356q0-.757.343-1.375.348-.617.969-.976.625-.363 1.465-.356m.004 1.016q-.457 0-.824.226a1.6 1.6 0 0 0-.574.606 1.7 1.7 0 0 0-.211.844q0 .465.203.843.207.375.562.598.36.219.821.219.343 0 .64-.133t.52-.367q.222-.239.347-.539.126-.302.125-.633 0-.442-.211-.82a1.65 1.65 0 0 0-.57-.61 1.5 1.5 0 0 0-.828-.234m7.122 7.203a3.2 3.2 0 0 1-1.055-.195 2.5 2.5 0 0 1-.937-.625q-.422-.438-.676-1.176-.25-.738-.25-1.844 0-1.047.207-1.859.212-.813.606-1.371.394-.562.953-.856a2.66 2.66 0 0 1 1.254-.293q.714 0 1.269.282.554.28.899.777.347.496.441 1.129h-1.191a1.54 1.54 0 0 0-.481-.817q-.359-.316-.937-.316-.879 0-1.371.766-.489.765-.493 2.129h.059q.207-.34.508-.579.304-.242.679-.371a2.4 2.4 0 0 1 .797-.132q.696 0 1.258.339.567.336.902.93t.336 1.359q0 .766-.347 1.387a2.54 2.54 0 0 1-.969.984q-.625.36-1.461.352m-.004-1.016q.46 0 .824-.226a1.63 1.63 0 0 0 .575-.61q.21-.382.211-.855 0-.46-.207-.84a1.57 1.57 0 0 0-.563-.601 1.5 1.5 0 0 0-.812-.223 1.56 1.56 0 0 0-1.161.5 1.8 1.8 0 0 0-.351.539 1.6 1.6 0 0 0-.125.637q0 .449.207.832.21.383.574.617.368.23.828.23"/><path fill="#d4d4d8" fill-opacity=".6" d="m302.938 225.327-2.109 7.837h-.854l2.11-7.837zm.812 6.853v-4.909h.917v.799h.061a1.26 1.26 0 0 1 .502-.633q.348-.23.834-.23.492 0 .824.23.336.23.496.633h.051q.175-.393.559-.627.384-.236.914-.236.669 0 1.09.418.425.418.425 1.263v3.292h-.955v-3.203q0-.498-.272-.722a1 1 0 0 0-.649-.224q-.467 0-.725.288-.26.284-.259.732v3.129h-.953v-3.263q0-.4-.249-.643t-.649-.243a.93.93 0 0 0-.502.144 1.06 1.06 0 0 0-.367.393 1.2 1.2 0 0 0-.138.585v3.027zm10.022.099q-.69 0-1.205-.317a2.13 2.13 0 0 1-.799-.885q-.285-.568-.285-1.329 0-.765.285-1.336.284-.573.799-.889t1.205-.316 1.205.316.799.889q.284.571.284 1.336 0 .76-.284 1.329-.285.569-.799.885-.515.317-1.205.317m.003-.802q.447 0 .741-.237.294-.236.435-.63.144-.392.144-.866 0-.47-.144-.863a1.4 1.4 0 0 0-.435-.636q-.294-.239-.741-.239-.45 0-.748.239-.294.24-.438.636a2.5 2.5 0 0 0-.14.863q0 .474.14.866.144.394.438.63.297.237.748.237"/><mask id="k" fill="#fff"><path d="M55 259h273v59H55z"/></mask><path fill="#fff" fill-opacity=".06" d="M328 318v-.64H55v1.28h273z" mask="url(#k)"/><path fill="#3fb950" fill-opacity=".85" d="M80 298.18a10.002 10.002 0 0 1-7.071-17.071 9.997 9.997 0 0 1 14.142 0A10 10 0 0 1 80 298.18m4.725-12.15a.94.94 0 0 0-.67-1.577.94.94 0 0 0-.655.252l-4.963 4.962-1.837-1.837a.938.938 0 0 0-1.325 1.325l2.5 2.5a.94.94 0 0 0 1.325 0z"/><path fill="#d4d4d8" d="M107.308 279.969v4.211h-1.38v-7.091h1.325v1.154h.088q.244-.563.766-.905.526-.342 1.325-.342.724 0 1.269.305.546.3.845.896.3.596.3 1.472v4.511h-1.38v-4.344q0-.771-.402-1.205-.4-.44-1.103-.439-.48 0-.854.208a1.5 1.5 0 0 0-.586.609q-.213.397-.213.96m9.376 4.354q-.997 0-1.74-.457a3.1 3.1 0 0 1-1.154-1.279q-.411-.822-.411-1.92 0-1.104.411-1.93a3.1 3.1 0 0 1 1.154-1.284q.743-.457 1.74-.457t1.741.457q.743.457 1.154 1.284.411.826.411 1.93 0 1.098-.411 1.92a3.1 3.1 0 0 1-1.154 1.279q-.744.457-1.741.457m.005-1.159q.647 0 1.071-.342a2 2 0 0 0 .628-.909q.208-.568.208-1.251 0-.678-.208-1.247a2.04 2.04 0 0 0-.628-.918q-.424-.346-1.071-.346-.651 0-1.08.346a2.07 2.07 0 0 0-.633.918 3.7 3.7 0 0 0-.203 1.247q0 .683.203 1.251.208.569.633.909.429.342 1.08.342m8.151-6.075v1.108h-3.873v-1.108zm-2.834-1.699h1.38v6.708q0 .401.12.604.12.2.31.273.194.069.42.069.166 0 .291-.023l.193-.037.25 1.14q-.12.047-.342.093a3 3 0 0 1-.554.055 2.4 2.4 0 0 1-1.015-.194 1.74 1.74 0 0 1-.762-.628q-.291-.424-.291-1.066zm4.361 8.79v-7.091h1.381v7.091zm.697-8.185a.88.88 0 0 1-.618-.24.78.78 0 0 1-.254-.582q0-.342.254-.582a.87.87 0 0 1 .618-.244.85.85 0 0 1 .614.244q.26.24.259.582a.77.77 0 0 1-.259.582.86.86 0 0 1-.614.24m5.915 1.094v1.108h-4.007v-1.108zm-2.908 7.091v-7.913q0-.665.291-1.103.291-.444.771-.66.48-.222 1.043-.222.416 0 .711.069.295.065.439.12l-.324 1.117a6 6 0 0 0-.249-.064 1.4 1.4 0 0 0-.369-.042q-.504 0-.72.25-.213.249-.213.72v7.728zm5.205 2.659q-.31 0-.563-.051a1.8 1.8 0 0 1-.379-.102l.333-1.131q.378.102.674.088a.8.8 0 0 0 .521-.221q.231-.208.407-.679l.17-.471-2.594-7.183h1.477l1.796 5.503h.074l1.796-5.503h1.482l-2.923 8.037a3.2 3.2 0 0 1-.517.937 2 2 0 0 1-.748.582 2.45 2.45 0 0 1-1.006.194m10.669-7.253v1.196h-4.192v-1.196zm7.153-.766-1.251.222a1.5 1.5 0 0 0-.249-.457 1.2 1.2 0 0 0-.453-.356q-.286-.138-.715-.138-.586 0-.979.263-.392.258-.392.669 0 .356.263.573t.849.355l1.126.259q.98.225 1.459.697.48.47.48 1.223 0 .637-.369 1.136-.364.493-1.02.775-.65.282-1.51.282-1.191 0-1.943-.508-.753-.512-.924-1.454l1.335-.203q.125.521.512.789.388.263 1.011.263.678 0 1.085-.281.406-.287.406-.697a.73.73 0 0 0-.249-.559q-.245-.226-.753-.342l-1.2-.263q-.993-.226-1.468-.72-.471-.493-.471-1.251 0-.628.351-1.099.351-.47.969-.734a3.55 3.55 0 0 1 1.418-.268q1.149 0 1.809.499.66.494.873 1.325m7.722-1.731-2.571 7.091h-1.478l-2.576-7.091h1.482l1.796 5.456h.074l1.791-5.456zm4.043 7.234q-1.029 0-1.773-.466a3.1 3.1 0 0 1-1.135-1.298q-.397-.827-.397-1.892 0-1.081.406-1.907a3.1 3.1 0 0 1 1.145-1.297q.738-.467 1.74-.467.808 0 1.441.301a2.52 2.52 0 0 1 1.486 2.082h-1.343a1.6 1.6 0 0 0-.508-.859q-.393-.36-1.053-.36-.576 0-1.011.304-.429.301-.669.859-.24.553-.24 1.311 0 .776.235 1.339a2 2 0 0 0 .665.873q.434.309 1.02.309.393 0 .711-.143.324-.148.54-.42.222-.272.31-.656h1.343a2.6 2.6 0 0 1-.448 1.228 2.57 2.57 0 0 1-1.002.849q-.623.31-1.463.31"/><path fill="#d4d4d8" fill-opacity=".4" d="M106.179 301.089v-9.091h2.102v.696h-1.307v7.699h1.307v.696zm5.754-8.182v7.273h-.881v-6.35h-.043l-1.775 1.179v-.895l1.818-1.207zm2.287 7.33a.6.6 0 0 1-.451-.189.6.6 0 0 1-.189-.451q0-.262.189-.451a.62.62 0 0 1 .451-.188q.262 0 .451.188a.62.62 0 0 1 .188.451q0 .174-.089.32a.66.66 0 0 1-.231.234.6.6 0 0 1-.319.086m2.129-.057v-.64l2.4-2.627q.423-.462.696-.803.273-.345.405-.646.135-.306.135-.639a1.18 1.18 0 0 0-.682-1.098 1.6 1.6 0 0 0-.71-.152q-.418 0-.732.174a1.2 1.2 0 0 0-.479.479 1.5 1.5 0 0 0-.167.724h-.838q0-.639.295-1.122.294-.483.802-.753a2.4 2.4 0 0 1 1.147-.269q.64 0 1.133.269.493.27.774.728.28.459.281 1.02 0 .401-.146.784-.142.381-.497.849-.351.465-.977 1.136l-1.633 1.748v.056h3.381v.782zm9.506-5.455 1.307 2.23 1.307-2.23h.965l-1.761 2.727 1.761 2.728h-.965l-1.307-2.117-1.307 2.117h-.966l1.733-2.728-1.733-2.727zm9.804 5.568q-.74 0-1.296-.351a2.4 2.4 0 0 1-.867-.984q-.309-.632-.309-1.477 0-.852.309-1.488.312-.636.867-.987.556-.352 1.296-.352.738 0 1.292.352.558.351.867.987.312.636.312 1.488 0 .845-.312 1.477a2.36 2.36 0 0 1-.867.984q-.554.351-1.292.351m0-.753q.561 0 .923-.287.363-.288.536-.757t.174-1.015q0-.547-.174-1.019a1.7 1.7 0 0 0-.536-.764q-.362-.291-.923-.291t-.924.291-.536.764a2.9 2.9 0 0 0-.174 1.019q0 .546.174 1.015a1.7 1.7 0 0 0 .536.757q.363.288.924.287m8.016-4.815-2.018 5.455h-.852l-2.017-5.455h.909l1.506 4.347h.057l1.505-4.347zm3.197 5.568q-.788 0-1.36-.348a2.33 2.33 0 0 1-.877-.98q-.305-.632-.305-1.47t.305-1.477q.31-.643.859-1.002.555-.362 1.293-.362.426 0 .842.142.415.142.756.462.341.316.543.838.203.522.203 1.285v.356h-4.205v-.725h3.353q0-.461-.185-.824a1.4 1.4 0 0 0-.519-.572 1.46 1.46 0 0 0-.788-.209q-.501 0-.866.249a1.6 1.6 0 0 0-.558.639 1.9 1.9 0 0 0-.195.845v.483q0 .618.213 1.047.216.427.6.65.384.22.891.22.33 0 .597-.092.27-.096.465-.284a1.3 1.3 0 0 0 .302-.476l.81.227a1.8 1.8 0 0 1-.43.725q-.302.309-.746.483-.443.17-.998.17m3.534-.113v-5.455h.809v.824h.057q.15-.405.54-.657t.881-.252l.23.003q.14.004.21.011v.852a3 3 0 0 0-.511-.056 1.5 1.5 0 0 0-.711.166 1.26 1.26 0 0 0-.49.455 1.23 1.23 0 0 0-.177.657v3.452zm5.397-7.614v9.091H153.7v-.696h1.307v-7.699H153.7v-.696z"/><path fill="#d4d4d8" fill-opacity=".9" d="m268.734 286.102-.273.964h-5.121l.273-.964zm-2.492 6.078-2.797-3.395-.008-.762h1.387q.52 0 .879-.16a1.2 1.2 0 0 0 .547-.465q.188-.307.188-.75 0-.656-.391-1.043t-1.223-.386h-1.484l.285-1.039h1.199q.97 0 1.598.308.629.309.937.856t.309 1.261q0 .637-.254 1.153a2 2 0 0 1-.809.84q-.554.324-1.457.379l-.035.007 2.555 3.129v.067zm2.496-8-.277.972-4.094-.023.278-.949zm4.125 0v8h-1.211v-6.789h-.047l-1.914 1.25v-1.157l1.997-1.304zm4.867 8.109q-.839 0-1.484-.289a2.43 2.43 0 0 1-1.004-.797 1.9 1.9 0 0 1-.359-1.156 2.03 2.03 0 0 1 .789-1.649 1.8 1.8 0 0 1 .82-.367v-.047a1.62 1.62 0 0 1-.957-.64 1.88 1.88 0 0 1-.355-1.141 1.87 1.87 0 0 1 .324-1.094 2.26 2.26 0 0 1 .91-.761 3 3 0 0 1 1.316-.278q.73 0 1.305.282.579.276.91.761.333.481.336 1.09-.003.645-.367 1.141-.363.495-.945.64v.047q.449.079.808.367.364.286.578.715.22.426.223.934a1.96 1.96 0 0 1-.367 1.156q-.363.508-1.008.797-.64.29-1.473.289m0-.988q.497 0 .86-.164.363-.168.562-.465.2-.301.203-.703a1.3 1.3 0 0 0-.218-.739 1.46 1.46 0 0 0-.574-.503 1.8 1.8 0 0 0-.833-.184 1.84 1.84 0 0 0-.839.184q-.368.183-.578.503-.211.32-.208.739-.003.402.192.703.199.297.566.465.368.164.867.164m0-3.723q.399 0 .708-.16a1.22 1.22 0 0 0 .667-1.113 1.24 1.24 0 0 0-.179-.657 1.14 1.14 0 0 0-.481-.433 1.56 1.56 0 0 0-.715-.156q-.414 0-.726.156a1.14 1.14 0 0 0-.481.433q-.171.282-.168.657a1.23 1.23 0 0 0 .172.668q.176.285.485.445.313.16.718.16m7.033 4.735q-.926-.005-1.582-.489t-1.004-1.41-.348-2.23q0-1.301.348-2.223.351-.922 1.008-1.406.66-.485 1.578-.485t1.574.489q.656.484 1.004 1.406.351.918.351 2.219 0 1.308-.347 2.234-.348.923-1.004 1.41-.657.485-1.578.485m0-1.043q.812 0 1.269-.793.462-.793.461-2.293 0-.996-.211-1.684-.207-.692-.597-1.047a1.3 1.3 0 0 0-.922-.359q-.809 0-1.27.797-.46.796-.465 2.293 0 1 .207 1.691.211.687.598 1.043.387.351.93.352"/><path fill="#d4d4d8" fill-opacity=".6" d="m291.444 285.327-2.109 7.837h-.854l2.11-7.837zm.812 6.853v-4.909h.917v.799h.061q.153-.406.501-.633.35-.23.835-.23.492 0 .824.23.336.23.496.633h.051q.175-.393.559-.627.384-.236.914-.236.668 0 1.09.418.425.418.425 1.263v3.292h-.956v-3.203q0-.498-.271-.722a1 1 0 0 0-.649-.224q-.466 0-.726.288-.258.284-.258.732v3.129h-.953v-3.263q0-.4-.249-.643-.25-.243-.649-.243a.93.93 0 0 0-.502.144 1.05 1.05 0 0 0-.367.393 1.2 1.2 0 0 0-.138.585v3.027zm10.022.099q-.691 0-1.205-.317a2.13 2.13 0 0 1-.799-.885q-.285-.568-.285-1.329 0-.765.285-1.336.284-.573.799-.889.514-.316 1.205-.316.69 0 1.205.316.514.316.799.889.284.571.284 1.336 0 .76-.284 1.329-.285.568-.799.885-.516.317-1.205.317m.003-.802q.447 0 .741-.237.294-.236.435-.63.144-.392.144-.866 0-.47-.144-.863a1.4 1.4 0 0 0-.435-.636q-.294-.239-.741-.239-.451 0-.748.239-.294.24-.438.636a2.5 2.5 0 0 0-.141.863q0 .474.141.866.144.394.438.63.297.237.748.237"/><path fill="#3fb950" fill-opacity=".85" d="M80 356.5a10.002 10.002 0 0 1-7.071-17.071A10.002 10.002 0 0 1 90 346.5a10 10 0 0 1-10 10m4.725-12.15a.94.94 0 0 0-.022-1.303.94.94 0 0 0-1.303-.022l-4.963 4.962-1.837-1.837a.94.94 0 0 0-1.302.022.94.94 0 0 0-.023 1.303l2.5 2.5a.936.936 0 0 0 1.325 0z"/><path fill="#d4d4d8" d="M108.915 342.643q-1.03 0-1.773-.466a3.1 3.1 0 0 1-1.136-1.297q-.397-.827-.397-1.893 0-1.08.407-1.907.405-.83 1.145-1.297.738-.466 1.74-.466.808 0 1.44.3.633.296 1.021.831.392.536.466 1.251h-1.344a1.6 1.6 0 0 0-.507-.859q-.393-.36-1.053-.36-.577 0-1.011.305-.429.3-.669.858-.24.555-.24 1.312 0 .776.235 1.338.236.564.665.873.434.309 1.02.309.393 0 .711-.143.323-.147.54-.42.222-.272.309-.656h1.344a2.6 2.6 0 0 1-.448 1.228q-.373.54-1.002.85-.623.309-1.463.309m6.452.014q-.674 0-1.218-.249a2.07 2.07 0 0 1-.864-.734q-.313-.48-.313-1.178 0-.6.23-.987.231-.389.624-.614.392-.226.877-.342a9 9 0 0 1 .988-.176l1.034-.12q.396-.05.577-.161t.18-.36v-.033q0-.604-.342-.937-.337-.332-1.006-.332-.697 0-1.099.309-.397.305-.549.679l-1.298-.296q.231-.645.674-1.043a2.7 2.7 0 0 1 1.03-.582 4 4 0 0 1 1.223-.184q.425 0 .901.101.48.097.895.36.42.264.688.753.267.484.268 1.26v4.709h-1.348v-.969h-.056a2 2 0 0 1-.401.526 2.2 2.2 0 0 1-.688.429q-.42.171-1.007.171m.301-1.108q.572 0 .978-.226.411-.226.623-.591.217-.369.217-.79v-.914q-.073.075-.286.139-.208.06-.475.106l-.522.079-.425.055a3.5 3.5 0 0 0-.734.171q-.328.12-.526.346-.194.222-.194.591 0 .513.379.775.378.26.965.259m8.024 1.094q-1.029 0-1.773-.466a3.1 3.1 0 0 1-1.135-1.297q-.397-.827-.397-1.893 0-1.08.406-1.907a3.1 3.1 0 0 1 1.145-1.297q.738-.466 1.74-.466.808 0 1.441.3a2.6 2.6 0 0 1 1.02.831q.392.536.466 1.251h-1.343a1.6 1.6 0 0 0-.508-.859q-.393-.36-1.053-.36-.576 0-1.011.305-.429.3-.669.858-.24.555-.24 1.312 0 .776.235 1.338.236.564.665.873.433.309 1.02.309.393 0 .711-.143.324-.147.54-.42.222-.272.31-.656h1.343a2.6 2.6 0 0 1-.448 1.228q-.374.54-1.001.85-.624.309-1.464.309m5.77-4.353v4.21h-1.381v-9.455h1.362v3.518h.088q.249-.572.762-.909.512-.337 1.338-.337.73 0 1.274.3.55.3.85.895.305.591.305 1.478v4.51h-1.381v-4.344q0-.78-.401-1.21-.402-.434-1.118-.434-.489 0-.877.208a1.5 1.5 0 0 0-.604.61q-.217.396-.217.96m9.496 4.353q-1.049 0-1.805-.448a3.03 3.03 0 0 1-1.164-1.269q-.406-.822-.406-1.925 0-1.09.406-1.921a3.16 3.16 0 0 1 1.145-1.297q.739-.466 1.727-.466.6 0 1.163.198.564.199 1.011.623.448.425.706 1.104.26.673.259 1.639v.489h-5.637v-1.034h4.284q0-.545-.221-.965a1.7 1.7 0 0 0-.624-.669 1.74 1.74 0 0 0-.932-.245q-.582 0-1.016.286a1.9 1.9 0 0 0-.664.739 2.1 2.1 0 0 0-.231.983v.808q0 .71.249 1.21.254.498.706.761a2.1 2.1 0 0 0 1.058.259q.392 0 .715-.111a1.48 1.48 0 0 0 .919-.9l1.306.235a2.35 2.35 0 0 1-.563 1.011q-.402.43-1.011.67a3.8 3.8 0 0 1-1.38.235m8.751-4.736v1.195h-4.191v-1.195zm3.377 4.593L149 335.409h1.426l1.39 5.207h.069l1.394-5.207h1.427l1.385 5.184h.069l1.38-5.184h1.427l-2.082 7.091h-1.408l-1.441-5.12h-.106l-1.44 5.12zm11.962.143q-.997 0-1.741-.457a3.1 3.1 0 0 1-1.154-1.279q-.411-.822-.411-1.92 0-1.104.411-1.93a3.07 3.07 0 0 1 1.154-1.283q.744-.457 1.741-.457.996 0 1.74.457.743.456 1.154 1.283.411.826.411 1.93 0 1.098-.411 1.92a3.1 3.1 0 0 1-1.154 1.279q-.744.457-1.74.457m.004-1.159q.647 0 1.071-.341a2 2 0 0 0 .628-.91 3.6 3.6 0 0 0 .208-1.251q0-.678-.208-1.246a2.03 2.03 0 0 0-.628-.919q-.424-.346-1.071-.346-.651 0-1.08.346a2.07 2.07 0 0 0-.633.919 3.7 3.7 0 0 0-.203 1.246q0 .684.203 1.251.209.568.633.91.429.341 1.08.341m4.842 1.016v-7.091h1.334v1.127h.074q.194-.573.683-.901a1.96 1.96 0 0 1 1.117-.332 6 6 0 0 1 .586.032v1.321a2 2 0 0 0-.295-.051 3 3 0 0 0-.425-.033q-.49 0-.872.208a1.54 1.54 0 0 0-.822 1.39v4.33zm6.259-2.405-.01-1.685h.24l2.826-3.001h1.652l-3.222 3.416h-.217zm-1.27 2.405v-9.455h1.38v9.455zm4.478 0-2.539-3.37.951-.965 3.282 4.335zm5.522.143q-1.047 0-1.805-.448a3.04 3.04 0 0 1-1.163-1.269q-.406-.822-.406-1.925 0-1.09.406-1.921a3.16 3.16 0 0 1 1.145-1.297q.738-.466 1.726-.466.6 0 1.164.198.562.199 1.011.623.447.425.706 1.104.26.673.259 1.639v.489h-5.637v-1.034h4.284q0-.545-.222-.965a1.67 1.67 0 0 0-.623-.669 1.74 1.74 0 0 0-.932-.245 1.8 1.8 0 0 0-1.016.286 1.9 1.9 0 0 0-.665.739 2.1 2.1 0 0 0-.231.983v.808q0 .71.25 1.21.254.498.706.761.453.26 1.057.259.393 0 .716-.111.323-.115.558-.342.235-.226.361-.558l1.306.235a2.36 2.36 0 0 1-.563 1.011q-.402.43-1.011.67a3.8 3.8 0 0 1-1.381.235m4.574-.143v-7.091h1.334v1.127h.074q.194-.573.683-.901.495-.332 1.118-.332a6 6 0 0 1 .586.032v1.321a2 2 0 0 0-.296-.051 3 3 0 0 0-.424-.033q-.489 0-.873.208a1.55 1.55 0 0 0-.6.568q-.221.36-.221.822v4.33z"/><path fill="#ececec" fill-opacity=".4" d="M106.179 359.409v-9.091h2.102v.696h-1.307v7.699h1.307v.696zm3.026-2.4v-.725l3.196-5.057h.526v1.122h-.355l-2.415 3.821v.057h4.304v.782zm3.424 1.491v-7.273h.838v7.273zm3.446.057a.62.62 0 0 1-.451-.188.62.62 0 0 1-.188-.451q0-.264.188-.451a.62.62 0 0 1 .451-.189q.263 0 .451.189a.6.6 0 0 1 .188.451.6.6 0 0 1-.088.319.62.62 0 0 1-.551.32m3.817-7.33v7.273h-.881v-6.349h-.043l-1.775 1.179v-.895l1.818-1.208zm2.731 1.818 1.306 2.231 1.307-2.231h.966l-1.761 2.728 1.761 2.727h-.966l-1.307-2.116-1.306 2.116h-.966l1.733-2.727-1.733-2.728zm9.803 5.569q-.738 0-1.296-.352a2.4 2.4 0 0 1-.866-.984q-.309-.631-.309-1.477 0-.852.309-1.488.312-.636.866-.987a2.4 2.4 0 0 1 1.296-.352q.74 0 1.293.352.558.351.866.987.313.636.313 1.488 0 .846-.313 1.477-.309.633-.866.984-.554.351-1.293.352m0-.753q.561 0 .924-.288.362-.288.536-.756t.174-1.016q0-.546-.174-1.019a1.73 1.73 0 0 0-.536-.764q-.363-.291-.924-.291t-.923.291-.536.764a2.9 2.9 0 0 0-.174 1.019q0 .547.174 1.016t.536.756q.362.288.923.288m8.016-4.816-2.017 5.455h-.852l-2.017-5.455h.909l1.506 4.347h.056l1.506-4.347zm3.198 5.569q-.789 0-1.36-.348a2.34 2.34 0 0 1-.877-.98q-.306-.633-.306-1.471t.306-1.477a2.4 2.4 0 0 1 .859-1.001q.554-.363 1.293-.363.426 0 .841.142a2.1 2.1 0 0 1 .757.462q.34.316.543.838.202.522.202 1.286v.355h-4.204v-.725h3.352q0-.461-.184-.823a1.4 1.4 0 0 0-.519-.572 1.45 1.45 0 0 0-.788-.21q-.501 0-.867.249a1.63 1.63 0 0 0-.557.639 1.9 1.9 0 0 0-.196.845v.483q0 .618.213 1.048.217.425.601.65.382.22.891.22.33 0 .597-.093a1.3 1.3 0 0 0 .465-.284q.195-.191.302-.475l.809.227a1.8 1.8 0 0 1-.429.724q-.302.309-.746.483a2.8 2.8 0 0 1-.998.171m3.533-.114v-5.455h.81v.824h.057q.148-.405.54-.657.39-.252.88-.252a7 7 0 0 1 .441.014v.853a3 3 0 0 0-.196-.032 2 2 0 0 0-.316-.025q-.398 0-.71.167a1.26 1.26 0 0 0-.49.454 1.23 1.23 0 0 0-.178.657v3.452zm5.397-7.614v9.091h-2.102v-.696h1.307v-7.699h-1.307v-.696z"/><path fill="#d4d4d8" fill-opacity=".9" d="m268.734 344.422-.273.965h-5.121l.273-.965zm-2.492 6.078-2.797-3.395-.008-.761h1.387q.52 0 .879-.16a1.2 1.2 0 0 0 .547-.465 1.4 1.4 0 0 0 .188-.75q0-.656-.391-1.043t-1.223-.387h-1.484l.285-1.039h1.199q.97 0 1.598.309.629.308.937.855t.309 1.262q0 .636-.254 1.152a2 2 0 0 1-.809.84q-.554.324-1.457.379l-.035.008 2.555 3.129v.066zm2.496-8-.277.973-4.094-.024.278-.949zm1.09 8v-.875l2.707-2.805q.434-.456.715-.8a3 3 0 0 0 .426-.661q.14-.312.14-.664 0-.398-.187-.687a1.23 1.23 0 0 0-.512-.449 1.6 1.6 0 0 0-.73-.161q-.43 0-.75.176a1.2 1.2 0 0 0-.492.496 1.56 1.56 0 0 0-.172.75h-1.153q0-.73.336-1.277t.922-.848a2.85 2.85 0 0 1 1.332-.304q.754 0 1.328.3.578.297.903.813.324.511.324 1.156 0 .445-.168.871-.164.426-.574.949-.41.52-1.141 1.262l-1.59 1.664v.059h3.602v1.035zm9.781-8v8h-1.211v-6.789h-.046l-1.914 1.25v-1.156l1.996-1.305zm4.95 8.133q-.927-.005-1.582-.488-.657-.484-1.004-1.411-.348-.925-.348-2.23 0-1.3.348-2.223.351-.921 1.007-1.406.661-.484 1.579-.484t1.574.488q.656.485 1.004 1.406.351.918.351 2.219 0 1.308-.347 2.234-.348.922-1.004 1.41-.657.485-1.578.485m0-1.043q.811 0 1.269-.793.46-.793.461-2.293 0-.996-.211-1.684-.207-.691-.598-1.047a1.3 1.3 0 0 0-.921-.359q-.809 0-1.27.797t-.465 2.293q0 1 .207 1.691.211.688.598 1.043.387.352.93.352"/><path fill="#d4d4d8" fill-opacity=".6" d="m291.24 343.648-2.11 7.836h-.853l2.109-7.836zm.812 6.852v-4.909h.917v.799h.061q.153-.407.501-.633.35-.23.835-.23.491 0 .824.23.336.23.495.633h.052q.175-.393.559-.627.383-.236.914-.236.668 0 1.09.419.425.419.425 1.262v3.292h-.956v-3.202q0-.5-.271-.723a1 1 0 0 0-.649-.223q-.466 0-.726.287-.259.285-.259.732v3.129h-.952v-3.263q0-.4-.249-.643-.25-.242-.649-.242a.94.94 0 0 0-.502.143 1.05 1.05 0 0 0-.367.393 1.2 1.2 0 0 0-.138.585v3.027zm10.022.099q-.691 0-1.205-.316a2.13 2.13 0 0 1-.799-.886q-.285-.569-.285-1.329 0-.764.285-1.336.284-.573.799-.889.514-.316 1.205-.316.69 0 1.204.316.515.316.799.889.285.572.285 1.336 0 .76-.285 1.329-.284.57-.799.886-.514.316-1.204.316m.003-.802q.447 0 .741-.237.294-.236.435-.629.144-.393.144-.866 0-.47-.144-.863a1.4 1.4 0 0 0-.435-.636q-.294-.24-.741-.24-.451 0-.748.24a1.4 1.4 0 0 0-.438.636 2.5 2.5 0 0 0-.141.863q0 .473.141.866.144.393.438.629.297.237.748.237"/></g><defs><linearGradient id="b" x1="339" x2="343" y1="177" y2="177" gradientUnits="userSpaceOnUse"><stop stop-color="#1c1c1e"/><stop offset="1" stop-color="#2c2c2e"/></linearGradient><linearGradient id="c" x1="41" x2="37" y1="121" y2="121" gradientUnits="userSpaceOnUse"><stop stop-color="#1c1c1e"/><stop offset="1" stop-color="#2c2c2e"/></linearGradient><linearGradient id="d" x1="41" x2="37" y1="159" y2="159" gradientUnits="userSpaceOnUse"><stop stop-color="#1c1c1e"/><stop offset="1" stop-color="#2c2c2e"/></linearGradient><linearGradient id="e" x1="41" x2="37" y1="199.5" y2="199.5" gradientUnits="userSpaceOnUse"><stop stop-color="#1c1c1e"/><stop offset="1" stop-color="#2c2c2e"/></linearGradient><clipPath id="a"><rect width="378" height="378" fill="#fff" rx="6"/></clipPath><clipPath id="f"><path fill="#fff" d="M40 80c0-24.3 19.7-44 44-44h212c24.301 0 44 19.7 44 44v303H40z"/></clipPath><clipPath id="g"><path fill="#fff" d="M44 79c0-22.091 17.909-40 40-40h212c22.091 0 40 17.909 40 40v301H44z"/></clipPath></defs></svg>