<svg xmlns="http://www.w3.org/2000/svg" width="378" height="378" fill="none" viewBox="0 0 378 378"><g clip-path="url(#a)"><path fill="#262420" d="M0 2a4 4 0 0 1 4-4h370a4 4 0 0 1 4 4v372a4 4 0 0 1-4 4H4a4 4 0 0 1-4-4z"/><mask id="b" fill="#fff"><path d="M36 43a9 9 0 0 1 9-9h335.25v27.763H36z"/></mask><path fill="#1b1913" d="M36 43a9 9 0 0 1 9-9h335.25v27.763H36z"/><path fill="#fff" fill-opacity=".06" d="M36 34h344.25zm344.25 28.763H36v-2h344.25zm-344.25-1V34zM380.25 34v27.763z" mask="url(#b)"/><path fill="#edecec" fill-opacity=".2" d="M44 47.381a5 5 0 1 1 10 0 5 5 0 0 1-10 0m16 0a5 5 0 1 1 10 0 5 5 0 0 1-10 0m16 0a5 5 0 1 1 10 0 5 5 0 0 1-10 0"/><path fill="#13110b" d="M36 62h384v316H36z"/><path fill="#a78bfa" d="M51.6 90.1q-.88 0-1.4-.44-.52-.43-.45-1.22l.15-1.64q.05-.53-.15-.76-.2-.24-.85-.24h-1.15V85h1.15q.65 0 .85-.23.2-.24.15-.77l-.15-1.64q-.07-.79.45-1.22.52-.44 1.4-.44h.45v.8h-.45q-.47 0-.73.22-.26.21-.22.64L50.8 84q.05.59-.28.95-.33.35-1.08.42.75.07 1.08.46t.28.97l-.15 1.64q-.04.43.22.64.26.22.73.22h.45v.8zm8.91 12.6-.08-3h1.02l-.07 3zm2.12 0-.08-3h1.02l-.07 3zm5.446 4.4q-1 0-1.6-.56t-.6-1.54v-1.5q0-.98.6-1.54t1.6-.56q.95 0 1.53.51.59.51.62 1.39h-.9q-.03-.53-.36-.81-.33-.29-.89-.29-.59 0-.95.34-.35.33-.35.95V105q0 .62.35.96.36.34.95.34.56 0 .89-.29t.36-.81h.9q-.03.88-.62 1.39-.58.51-1.53.51m6.716-.1q-.73 0-1.17-.42-.43-.43-.43-1.13v-4.93h-1.9v-.82h2.8v5.75q0 .34.19.54.19.19.51.19h1.7v.82zm5.186.1q-.95 0-1.52-.56-.57-.57-.57-1.54v-3.5h.9v3.5q0 .6.32.96.321.35.87.35.56 0 .88-.35.33-.36.33-.96v-3.5h.9v3.5q0 .97-.58 1.54-.579.56-1.53.56m5.786-.02q-.92 0-1.43-.41-.5-.42-.5-1.18h.9q0 .38.27.6.27.21.76.21h.44q.5 0 .77-.22.28-.22.28-.62 0-.71-.65-.8l-1.52-.22q-.56-.08-.87-.46-.31-.39-.31-1.02 0-.72.49-1.13.5-.41 1.37-.41h.44q.8 0 1.3.4.51.39.55 1.03h-.91a.63.63 0 0 0-.28-.48q-.249-.19-.66-.19h-.44q-.459 0-.72.21a.7.7 0 0 0-.26.57q0 .58.53.66l1.42.2q1.4.2 1.4 1.64 0 .77-.51 1.2-.5.42-1.42.42zm6.767-.08q-.68 0-1.09-.39-.41-.4-.41-1.06v-3.23h-1.58v-.82h1.58v-1.55h.9v1.55h2.25v.82h-2.25v3.23q0 .28.16.46.17.17.44.17h1.6v.82zm5.446.1q-.97 0-1.57-.58-.59-.59-.59-1.62v-1.3q0-1.03.59-1.61.6-.59 1.57-.59.65 0 1.13.26.49.26.76.73t.27 1.11v.98h-3.44v.52q0 .61.35.97.35.35.93.35.5 0 .82-.19.33-.2.4-.53h.9a1.54 1.54 0 0 1-.67 1.1q-.58.4-1.45.4m-1.28-3.32h2.56v-.28q0-.65-.34-1-.33-.36-.94-.36t-.95.36q-.33.35-.33 1zm5.396 3.22v-5.5h.9v1.05h.02q.069-.53.45-.84.38-.31 1.02-.31.86 0 1.32.52.47.51.47 1.46v.47h-.9v-.47q0-1.2-1.17-1.2-.591 0-.9.34t-.31.98v3.5zm6.386-4.3-.08-3h1.02l-.07 3zm2.12 0-.08-3h1.02l-.07 3z"/><path fill="#e4e4e7" d="M115.99 102.88q-.41 0-.62-.2t-.21-.54.21-.54.62-.2.62.2.21.54-.21.54-.62.2m0 4.22q-.41 0-.62-.2t-.21-.54.21-.54.62-.2.62.2.21.54-.21.54-.62.2m95.037 1.5.55-3.06h1.08l-.7 3.06z"/><path fill="#34d399" d="m126.492 102.7-.08-3h1.02l-.07 3zm2.12 0-.08-3h1.02l-.07 3zm3.286 6.1v-7.3h.9v1.05h.01q.07-.54.47-.84.4-.31 1.02-.31.831 0 1.32.55.49.54.49 1.49v1.61q0 .95-.49 1.5-.489.55-1.32.55-.62 0-1.02-.31a1.23 1.23 0 0 1-.47-.84h-.03l.02 1.25v1.6zm2.1-2.48q.57 0 .89-.3t.32-.97v-1.6q0-.68-.32-.97-.32-.3-.89-.3-.55 0-.88.35-.32.35-.32.97v1.5q0 .62.32.97.33.35.88.35m4.096.68v-5.5h.9v1.05h.02q.07-.53.45-.84.381-.31 1.02-.31.861 0 1.32.52.47.51.47 1.46v.47h-.9v-.47q0-1.2-1.17-1.2-.59 0-.9.34t-.31.98v3.5zm7.876.08q-.99 0-1.58-.58-.58-.58-.58-1.62v-1.26q0-1.05.58-1.62.58-.58 1.58-.58t1.58.58q.58.57.58 1.62v1.26q0 1.04-.59 1.62-.58.58-1.57.58m0-.8q.59 0 .92-.33.34-.33.34-.97v-1.46q0-.64-.34-.97-.33-.33-.92-.33-.58 0-.92.33t-.34.97v1.46q0 .64.34.97t.92.33m5.677.82q-.82 0-1.32-.55-.49-.55-.49-1.49v-1.61q0-.95.49-1.5.489-.55 1.32-.55.62 0 1.02.31.41.31.49.84h.01l-.02-1.25v-1.6h.9v7.3h-.9v-1.05h-.01q-.07.54-.47.85-.4.3-1.02.3m.3-.78q.56 0 .88-.35t.32-.97v-1.5q0-.62-.32-.97t-.88-.35q-.57 0-.89.3-.32.29-.32.97v1.6q0 .67.32.97t.89.3m4.416-2.22v-.8h3.2v.8zm7.676 3q-1 0-1.6-.56t-.6-1.54v-1.5q0-.98.6-1.54t1.6-.56q.95 0 1.53.51.59.51.62 1.39h-.9q-.03-.53-.36-.81-.33-.29-.89-.29-.59 0-.95.34-.35.33-.35.95V105q0 .62.35.96.36.34.95.34.56 0 .89-.29t.36-.81h.9q-.03.88-.62 1.39-.58.51-1.53.51m6.716-.1q-.73 0-1.17-.42-.43-.43-.43-1.13v-4.93h-1.9v-.82h2.8v5.75q0 .34.19.54.19.19.51.19h1.7v.82zm5.186.1q-.95 0-1.52-.56-.57-.57-.57-1.54v-3.5h.9v3.5q0 .6.32.96.32.35.87.35.56 0 .88-.35.33-.36.33-.96v-3.5h.9v3.5q0 .97-.58 1.54-.58.56-1.53.56m5.786-.02q-.92 0-1.43-.41-.5-.42-.5-1.18h.9q0 .38.27.6.27.21.76.21h.44q.5 0 .77-.22.28-.22.28-.62 0-.71-.65-.8l-1.52-.22q-.56-.08-.87-.46-.31-.39-.31-1.02 0-.72.49-1.13.5-.41 1.37-.41h.44q.8 0 1.3.4.51.39.55 1.03h-.91a.63.63 0 0 0-.28-.48q-.25-.19-.66-.19h-.44q-.46 0-.72.21a.7.7 0 0 0-.26.57q0 .58.53.66l1.42.2q1.4.2 1.4 1.64 0 .77-.51 1.2-.5.42-1.42.42zm6.766-.08q-.68 0-1.09-.39-.41-.4-.41-1.06v-3.23h-1.58v-.82h1.58v-1.55h.9v1.55h2.25v.82h-2.25v3.23q0 .28.16.46.17.17.44.17h1.6v.82zm5.446.1q-.97 0-1.57-.58-.59-.59-.59-1.62v-1.3q0-1.03.59-1.61.6-.59 1.57-.59.65 0 1.13.26.49.26.76.73t.27 1.11v.98h-3.44v.52q0 .61.35.97.351.35.93.35.5 0 .82-.19.33-.2.4-.53h.9a1.54 1.54 0 0 1-.67 1.1q-.58.4-1.45.4m-1.28-3.32h2.56v-.28q0-.65-.34-1-.33-.36-.94-.36t-.95.36q-.33.35-.33 1zm5.396 3.22v-5.5h.9v1.05h.02q.07-.53.45-.84.381-.31 1.02-.31.861 0 1.32.52.47.51.47 1.46v.47h-.9v-.47q0-1.2-1.17-1.2-.59 0-.9.34t-.31.98v3.5zm6.386-4.3-.08-3h1.02l-.07 3zm2.12 0-.08-3h1.02l-.07 3z"/><path fill="#a78bfa" d="m60.51 120.7-.08-3h1.02l-.07 3zm2.12 0-.08-3h1.02l-.07 3zm5.916 4.3q-.68 0-1.09-.39-.41-.4-.41-1.06v-3.23h-1.58v-.82h1.58v-1.55h.9v1.55h2.25v.82h-2.25v3.23q0 .28.16.46.17.17.44.17h1.6v.82zm3.296 0v-.82h1.95v-3.86h-1.75v-.82h2.65v4.68h1.85v.82zm2.3-6.49q-.33 0-.52-.17a.59.59 0 0 1-.19-.46q0-.3.19-.47.19-.18.52-.18t.52.18q.19.17.19.47a.59.59 0 0 1-.19.46q-.19.17-.52.17m3.446 6.49v-5.5h.78v.73h.02a.98.98 0 0 1 .29-.6.9.9 0 0 1 .63-.23q.36 0 .61.21t.36.57h.01q.07-.36.31-.57a.95.95 0 0 1 .63-.21q.531 0 .84.4.32.39.32 1.02V125h-.84v-4.19q0-.33-.16-.52a.53.53 0 0 0-.44-.2.53.53 0 0 0-.43.19q-.16.19-.16.52v4.2h-.74v-4.19q0-.33-.16-.52a.52.52 0 0 0-.43-.2.54.54 0 0 0-.44.19q-.16.19-.16.52v4.2zm8.396.1q-.97 0-1.57-.58-.59-.59-.59-1.62v-1.3q0-1.03.59-1.61.6-.59 1.57-.59.65 0 1.13.26.49.26.76.73t.27 1.11v.98h-3.44v.52q0 .61.35.97.351.35.93.35.5 0 .82-.19.33-.2.4-.53h.9a1.54 1.54 0 0 1-.67 1.1q-.58.4-1.45.4m-1.28-3.32h2.56v-.28q0-.65-.34-1-.33-.36-.94-.36t-.95.36q-.33.35-.33 1zm7.057 3.3q-.92 0-1.43-.41-.5-.42-.5-1.18h.9q0 .38.27.6.27.21.76.21h.44q.5 0 .77-.22.28-.22.28-.62 0-.71-.65-.8l-1.52-.22q-.561-.08-.87-.46-.31-.39-.31-1.02 0-.72.49-1.13.5-.41 1.37-.41h.44q.8 0 1.3.4.51.39.55 1.03h-.91a.63.63 0 0 0-.28-.48q-.25-.19-.66-.19h-.44q-.46 0-.72.21a.7.7 0 0 0-.26.57q0 .58.53.66l1.42.2q1.4.2 1.4 1.64 0 .77-.51 1.2-.5.42-1.42.42zm6.766-.08q-.68 0-1.09-.39-.41-.4-.41-1.06v-3.23h-1.58v-.82h1.58v-1.55h.9v1.55h2.25v.82h-2.25v3.23q0 .28.16.46.17.17.44.17h1.6v.82zm4.966.1q-.85 0-1.35-.47-.5-.48-.5-1.25 0-.51.23-.89a1.56 1.56 0 0 1 .64-.59 1.95 1.95 0 0 1 .94-.22h1.7v-.43q0-1.07-1.17-1.07-.52 0-.84.19t-.34.53h-.9q.05-.65.6-1.07.56-.43 1.48-.43.999 0 1.53.48.54.48.54 1.34V125h-.89v-1h-.02q-.081.51-.51.81-.43.29-1.14.29m.22-.76q.66 0 1.05-.32t.39-.87v-.77h-1.6q-.441 0-.72.27-.27.26-.27.7 0 .46.3.73.31.26.85.26m3.856.66v-5.5h.78v.73h.02a.98.98 0 0 1 .29-.6.9.9 0 0 1 .63-.23q.36 0 .61.21.249.21.36.57h.01q.07-.36.31-.57a.94.94 0 0 1 .63-.21q.53 0 .84.4.32.39.32 1.02V125h-.84v-4.19q0-.33-.16-.52a.54.54 0 0 0-.44-.2.53.53 0 0 0-.43.19q-.16.19-.16.52v4.2h-.74v-4.19q0-.33-.16-.52a.52.52 0 0 0-.43-.2.54.54 0 0 0-.44.19q-.16.19-.16.52v4.2zm6.316 1.8v-7.3h.9v1.05h.01q.07-.54.47-.84.4-.31 1.02-.31.83 0 1.32.55.49.54.49 1.49v1.61q0 .95-.49 1.5t-1.32.55q-.62 0-1.02-.31a1.22 1.22 0 0 1-.47-.84h-.03l.02 1.25v1.6zm2.1-2.48q.57 0 .89-.3t.32-.97v-1.6q0-.68-.32-.97-.32-.3-.89-.3-.55 0-.88.35-.32.35-.32.97v1.5q0 .62.32.97.33.35.88.35m4.486-3.62-.08-3h1.02l-.07 3zm2.12 0-.08-3h1.02l-.07 3z"/><path fill="#e4e4e7" d="M127.98 120.88q-.41 0-.62-.2t-.21-.54.21-.54.62-.2.62.2.21.54-.21.54-.62.2m0 4.22q-.41 0-.62-.2t-.21-.54.21-.54.62-.2.62.2.21.54-.21.54-.62.2m143.006 1.5.55-3.06h1.08l-.7 3.06z"/><path fill="#34d399" d="m138.482 120.7-.08-3h1.02l-.07 3zm2.12 0-.08-3h1.02l-.07 3zm3.226 4.3v-.83l2.43-2.6q.531-.56.75-1 .22-.44.22-.86 0-.6-.35-.95-.339-.36-.93-.36-.61 0-.97.37-.35.36-.35.98h-.9q.03-.99.63-1.57t1.59-.58q1.01 0 1.6.57.6.57.6 1.55 0 .52-.29 1.1-.28.58-.97 1.3l-1.97 2.06h3.32v.82zm8.136.1q-1.01 0-1.61-.58-.59-.59-.59-1.57v-3.2q0-.98.59-1.56.6-.59 1.61-.59t1.6.59q.6.58.6 1.56v3.2q0 .65-.27 1.14-.27.48-.77.75-.49.26-1.16.26m0-.77q.6 0 .96-.38.37-.39.37-1v-3.2q0-.61-.37-.99-.36-.39-.96-.39t-.97.39q-.36.38-.36.99v3.2q0 .61.36 1 .37.38.97.38m0-2.43a.64.64 0 0 1-.44-.15q-.16-.15-.16-.43 0-.27.16-.41.17-.15.44-.15t.43.15q.17.14.17.41 0 .28-.17.43-.16.15-.43.15m3.856 3.1v-.83l2.43-2.6q.531-.56.75-1 .22-.44.22-.86 0-.6-.35-.95-.339-.36-.93-.36-.61 0-.97.37-.35.36-.35.98h-.9q.03-.99.63-1.57t1.59-.58q1.01 0 1.6.57.6.57.6 1.55 0 .52-.29 1.1-.28.58-.97 1.3l-1.97 2.06h3.32v.82zm8.147.1q-.7 0-1.24-.29-.53-.3-.83-.82-.3-.53-.3-1.22 0-.48.18-.98.18-.51.49-1.06l1.69-3.03h1l-1.8 3.13.03.02a.8.8 0 0 1 .39-.26q.26-.09.57-.09.65 0 1.13.29.49.28.76.78.28.5.28 1.16 0 .7-.3 1.24-.3.53-.83.83-.52.3-1.22.3m-.01-.8q.65 0 1.05-.43.41-.43.41-1.12t-.41-1.12q-.4-.43-1.05-.43t-1.06.43q-.4.43-.4 1.12t.4 1.12q.41.43 1.06.43m4.396-2.2v-.8h3.2v.8zm7.596 3q-1.01 0-1.61-.58-.59-.59-.59-1.57v-3.2q0-.98.59-1.56.6-.59 1.61-.59t1.6.59q.6.58.6 1.56v3.2q0 .65-.27 1.14-.27.48-.77.75-.49.26-1.16.26m0-.77q.6 0 .96-.38.37-.39.37-1v-3.2q0-.61-.37-.99-.36-.39-.96-.39t-.97.39q-.36.38-.36.99v3.2q0 .61.36 1 .37.38.97.38m0-2.43a.64.64 0 0 1-.44-.15q-.16-.15-.16-.43 0-.27.16-.41a.64.64 0 0 1 .44-.15q.27 0 .43.15.17.14.17.41 0 .28-.17.43-.16.15-.43.15m4.896 3.1 2.6-6.48h-2.78v1.18h-.9v-2h4.64v.84l-2.58 6.46zm5.496-2.9v-.8h3.2v.8zm5.496 2.9v-.82h1.98v-5.7l-1.98 1.48v-1.03l1.65-1.23h1.23v6.48h1.62v.82zm5.996 0v-.82h1.98v-5.7l-1.98 1.48v-1.03l1.65-1.23h1.23v6.48h1.62v.82zm7.646 0v-6.48h-2v-.82h4.9v.82h-2V125zm6.446.1q-1.01 0-1.61-.58-.59-.59-.59-1.57v-3.2q0-.98.59-1.56.6-.59 1.61-.59t1.6.59q.6.58.6 1.56v3.2q0 .65-.27 1.14-.27.48-.77.75-.49.26-1.16.26m0-.77q.6 0 .96-.38.37-.39.37-1v-3.2q0-.61-.37-.99-.36-.39-.96-.39t-.97.39q-.36.38-.36.99v3.2q0 .61.36 1 .37.38.97.38m0-2.43a.64.64 0 0 1-.44-.15q-.16-.15-.16-.43 0-.27.16-.41.17-.15.44-.15t.43.15q.17.14.17.41 0 .28-.17.43-.16.15-.43.15m4.946 3.1 1.8-3.13-.03-.02q-.1.16-.37.26-.27.09-.59.09-.63 0-1.11-.28a2.06 2.06 0 0 1-.74-.79q-.27-.5-.27-1.16 0-.71.3-1.24t.83-.83 1.22-.3q.71 0 1.24.3.53.29.83.82.3.52.3 1.21 0 .48-.18.99-.18.5-.49 1.05l-1.69 3.03zm1.05-3.5q.651 0 1.05-.43.41-.43.41-1.12t-.41-1.12q-.399-.43-1.05-.43-.65 0-1.06.43-.4.43-.4 1.12t.4 1.12q.41.43 1.06.43m5.996-1.4q-.369 0-.6-.2a.71.71 0 0 1-.23-.55.68.68 0 0 1 .23-.54q.231-.21.6-.21.381 0 .6.21.23.2.23.54t-.23.55q-.219.2-.6.2m0 4.2q-.369 0-.6-.2a.71.71 0 0 1-.23-.55.68.68 0 0 1 .23-.54q.231-.21.6-.21.381 0 .6.21.23.2.23.54t-.23.55q-.219.2-.6.2m6.997.7v-1.6h-3.3v-1.41l2.66-4.29h1.02l-2.78 4.49v.39h2.4v-1.78h.9v4.2zm2.896 0v-.82h1.98v-5.7l-1.98 1.48v-1.03l1.65-1.23h1.23v6.48h1.62v.82zm8.096-4.9q-.37 0-.6-.2a.7.7 0 0 1-.23-.55q0-.34.23-.54.23-.21.6-.21.38 0 .6.21a.68.68 0 0 1 .23.54.71.71 0 0 1-.23.55q-.22.2-.6.2m0 4.2q-.37 0-.6-.2a.7.7 0 0 1-.23-.55q0-.34.23-.54.23-.21.6-.21.38 0 .6.21a.68.68 0 0 1 .23.54.71.71 0 0 1-.23.55q-.22.2-.6.2m5.996.8q-1.01 0-1.61-.58-.59-.59-.59-1.57v-3.2q0-.98.59-1.56.6-.59 1.61-.59t1.6.59q.6.58.6 1.56v3.2q0 .65-.27 1.14-.27.48-.77.75-.49.26-1.16.26m0-.77q.6 0 .96-.38.37-.39.37-1v-3.2q0-.61-.37-.99-.36-.39-.96-.39t-.97.39q-.36.38-.36.99v3.2q0 .61.36 1 .37.38.97.38m0-2.43a.64.64 0 0 1-.44-.15q-.16-.15-.16-.43 0-.27.16-.41a.64.64 0 0 1 .44-.15q.27 0 .43.15.17.14.17.41 0 .28-.17.43-.16.15-.43.15m5.996 3.2q-1.01 0-1.61-.58-.59-.59-.59-1.57v-3.2q0-.98.59-1.56.6-.59 1.61-.59t1.6.59q.6.58.6 1.56v3.2q0 .65-.27 1.14-.27.48-.77.75-.49.26-1.16.26m0-.77q.6 0 .96-.38.37-.39.37-1v-3.2q0-.61-.37-.99-.36-.39-.96-.39t-.97.39q-.36.38-.36.99v3.2q0 .61.36 1 .37.38.97.38m0-2.43a.64.64 0 0 1-.44-.15q-.16-.15-.16-.43 0-.27.16-.41a.64.64 0 0 1 .44-.15q.27 0 .43.15.17.14.17.41 0 .28-.17.43-.16.15-.43.15m3.846 3.1v-.9l3.29-5.58h-3.24v-.82h4.15v.9l-3.29 5.58h3.39v.82zm6.656-4.3-.08-3h1.02l-.07 3zm2.12 0-.08-3h1.02l-.07 3z"/><path fill="#a78bfa" d="m60.51 138.7-.08-3h1.02l-.07 3zm2.12 0-.08-3h1.02l-.07 3zm4.516 4.3v-3.93h-1.6v-.82h1.6v-1.15q0-.65.41-1.02.41-.38 1.13-.38h1.61v.82h-1.61q-.64 0-.64.58v1.15h2.25v.82h-2.25V143zm4.696 0v-.82h1.95v-3.86h-1.75v-.82h2.65v4.68h1.85v.82zm2.3-6.49q-.33 0-.52-.17a.59.59 0 0 1-.19-.46q0-.3.19-.47.19-.18.52-.18t.52.18q.19.17.19.47a.59.59 0 0 1-.19.46q-.19.17-.52.17m3.766 6.49v-5.5h.9v1.05h.01q.07-.55.45-.85t1.01-.3q.831 0 1.32.51t.49 1.39v3.7h-.9v-3.54q0-.63-.32-.96-.31-.34-.85-.34-.56 0-.89.35-.32.35-.32.99v3.5zm7.756.1q-.819 0-1.32-.55-.49-.55-.49-1.49v-1.61q0-.95.49-1.5t1.32-.55q.621 0 1.02.31.41.31.49.84h.01l-.02-1.25v-1.6h.9v7.3h-.9v-1.05h-.01a1.23 1.23 0 0 1-.47.85q-.399.3-1.02.3m.3-.78q.56 0 .88-.35t.32-.97v-1.5q0-.62-.32-.97t-.88-.35q-.57 0-.89.3-.32.29-.32.97v1.6q0 .67.32.97t.89.3m3.867.68v-.82h1.95v-3.86h-1.75v-.82h2.65v4.68h1.85v.82zm2.3-6.49q-.33 0-.52-.17a.59.59 0 0 1-.19-.46q0-.3.19-.47.19-.18.52-.18t.52.18q.19.17.19.47a.59.59 0 0 1-.19.46q-.19.17-.52.17m3.766 6.49v-5.5h.9v1.05h.01q.069-.55.45-.85.38-.3 1.01-.3.83 0 1.32.51t.49 1.39v3.7h-.9v-3.54q0-.63-.32-.96-.31-.34-.85-.34-.56 0-.89.35-.32.35-.32.99v3.5zm6.686 1.8v-.82h1.55q.47 0 .74-.27.27-.26.27-.71v-.5l.02-.9h-.03q-.08.49-.47.76-.39.26-.98.26-.85 0-1.34-.54t-.49-1.48v-1.16q0-.94.49-1.49t1.34-.55q.59 0 .98.28t.47.77h.02v-.95h.89v5.5q0 .83-.52 1.31-.51.49-1.4.49zm1.37-2.93q.56 0 .88-.35t.32-.97v-1.05q0-.62-.32-.97t-.88-.35q-.57 0-.89.33-.31.33-.31.89v1.25q0 .56.31.89.32.33.89.33m5.796 1.21q-.92 0-1.43-.41-.5-.42-.5-1.18h.9q0 .38.27.6.27.21.76.21h.44q.5 0 .77-.22.28-.22.28-.62 0-.71-.65-.8l-1.52-.22q-.561-.08-.87-.46-.31-.39-.31-1.02 0-.72.49-1.13.5-.41 1.37-.41h.44q.8 0 1.3.4.51.39.55 1.03h-.91a.64.64 0 0 0-.28-.48q-.25-.19-.66-.19h-.44q-.46 0-.72.21a.7.7 0 0 0-.26.57q0 .58.53.66l1.42.2q1.4.2 1.4 1.64 0 .77-.51 1.2-.5.42-1.42.42zm4.726-4.38-.08-3h1.02l-.07 3zm2.12 0-.08-3h1.02l-.07 3z"/><path fill="#e4e4e7" d="M121.99 138.88q-.41 0-.62-.2t-.21-.54.21-.54.62-.2.62.2.21.54-.21.54-.62.2m0 4.22q-.41 0-.62-.2t-.21-.54.21-.54.62-.2.62.2.21.54-.21.54-.62.2m11.042 1v-9.4h2.45v.8h-1.55v7.8h1.55v.8z"/><path fill="#a78bfa" d="M71.6 162.1q-.88 0-1.4-.44-.52-.43-.45-1.22l.15-1.64q.05-.53-.15-.76-.2-.24-.85-.24h-1.15v-.8h1.15q.65 0 .85-.23.2-.24.15-.77l-.15-1.64q-.07-.79.45-1.22.52-.44 1.4-.44h.45v.8h-.45q-.47 0-.73.22-.26.21-.22.64l.15 1.64q.05.59-.28.95-.33.35-1.08.42.75.07 1.08.46t.28.97l-.15 1.64q-.04.43.22.64.26.22.73.22h.45v.8zm4.91 12.6-.08-3h1.02l-.07 3zm2.12 0-.08-3h1.02l-.07 3zm3.576 4.3-.9-5.5h.78l.56 3.88q.03.22.06.49a8 8 0 0 1 .04.43q.02-.17.04-.43.03-.27.07-.49l.69-3.88h.9l.69 3.88q.04.22.07.49.04.26.05.43l.05-.43q.03-.27.06-.49l.58-3.88h.74l-.94 5.5h-.99l-.63-3.8a44 44 0 0 1-.08-.59q-.03-.32-.05-.49a8 8 0 0 1-.05.49 12 12 0 0 1-.09.59l-.66 3.8zm7.786.08q-.99 0-1.58-.58-.58-.58-.58-1.62v-1.26q0-1.05.58-1.62.58-.58 1.58-.58t1.58.58q.58.57.58 1.62v1.26q0 1.04-.59 1.62-.58.58-1.57.58m0-.8q.59 0 .92-.33.34-.33.34-.97v-1.46q0-.64-.34-.97-.33-.33-.92-.33-.58 0-.92.33t-.34.97v1.46q0 .64.34.97t.92.33m4.116.72v-5.5h.9v1.05h.02q.07-.53.45-.84.381-.31 1.02-.31.861 0 1.32.52.47.51.47 1.46v.47h-.9v-.47q0-1.2-1.17-1.2-.59 0-.9.34t-.31.98v3.5zm5.846 0v-7.3h.9v4.07h1.05l1.54-2.27h1.03l-1.77 2.62 1.87 2.88h-1.05l-1.6-2.45h-1.07V179zm8.826 0q-.729 0-1.17-.42-.43-.43-.43-1.13v-4.93h-1.9v-.82h2.8v5.75q0 .34.19.54.19.19.51.19h1.7v.82zm5.197.08q-.99 0-1.58-.58-.58-.58-.58-1.62v-1.26q0-1.05.58-1.62.58-.58 1.58-.58t1.58.58q.58.57.58 1.62v1.26q0 1.04-.59 1.62-.58.58-1.57.58m0-.8q.59 0 .92-.33.34-.33.34-.97v-1.46q0-.64-.34-.97-.33-.33-.92-.33-.58 0-.92.33t-.34.97v1.46q0 .64.34.97t.92.33m5.516.82q-.85 0-1.35-.47-.5-.48-.5-1.25 0-.51.23-.89a1.56 1.56 0 0 1 .64-.59 1.95 1.95 0 0 1 .94-.22h1.7v-.43q0-1.07-1.17-1.07-.52 0-.84.19t-.34.53h-.9q.05-.65.6-1.07.56-.43 1.48-.43.999 0 1.53.48.54.48.54 1.34V179h-.89v-1h-.02q-.081.51-.51.81-.43.29-1.14.29m.22-.76q.66 0 1.05-.32t.39-.87v-.77h-1.6q-.441 0-.72.27-.27.26-.27.7 0 .46.3.73.31.26.85.26m5.936.76q-.82 0-1.32-.55-.49-.55-.49-1.49v-1.61q0-.95.49-1.5.489-.55 1.32-.55.62 0 1.02.31.41.31.49.84h.01l-.02-1.25v-1.6h.9v7.3h-.9v-1.05h-.01q-.07.54-.47.85-.4.3-1.02.3m.3-.78q.56 0 .88-.35t.32-.97v-1.5q0-.62-.32-.97t-.88-.35q-.57 0-.89.3-.32.29-.32.97v1.6q0 .67.32.97t.89.3m4.526-3.62-.08-3h1.02l-.07 3zm2.12 0-.08-3h1.02l-.07 3z"/><path fill="#e4e4e7" d="M137.99 174.88q-.41 0-.62-.2t-.21-.54.21-.54.62-.2.62.2.21.54-.21.54-.62.2m0 4.22q-.41 0-.62-.2t-.21-.54.21-.54.62-.2.62.2.21.54-.21.54-.62.2m95.037 1.5.55-3.06h1.08l-.7 3.06z"/><path fill="#34d399" d="m148.492 174.7-.08-3h1.02l-.07 3zm2.12 0-.08-3h1.02l-.07 3zm4.886 4.4q-.849 0-1.35-.47-.5-.48-.5-1.25 0-.51.23-.89t.64-.59q.41-.22.94-.22h1.7v-.43q0-1.07-1.17-1.07-.519 0-.84.19t-.34.53h-.9q.051-.65.6-1.07.56-.43 1.48-.43 1 0 1.53.48.54.48.54 1.34V179h-.89v-1h-.02q-.08.51-.51.81-.429.29-1.14.29m.22-.76q.66 0 1.05-.32t.39-.87v-.77h-1.6q-.44 0-.72.27-.27.26-.27.7 0 .46.3.73.31.26.85.26m6.246.76q-.95 0-1.52-.56-.57-.57-.57-1.54v-3.5h.9v3.5q0 .6.32.96.321.35.87.35.56 0 .88-.35.33-.36.33-.96v-3.5h.9v3.5q0 .97-.58 1.54-.579.56-1.53.56m6.556-.1q-.68 0-1.09-.39-.41-.4-.41-1.06v-3.23h-1.58v-.82h1.58v-1.55h.9v1.55h2.25v.82h-2.25v3.23q0 .28.16.46.17.17.44.17h1.6v.82zm3.367 0v-7.3h.9v2.85h.01q.069-.55.45-.85.38-.3 1.01-.3.83 0 1.32.51t.49 1.39v3.7h-.9v-3.55q0-.62-.32-.95-.31-.34-.85-.34-.56 0-.89.35-.32.35-.32.99v3.5zm6.476-2.9v-.8h3.2v.8zm7.376 2.98q-.92 0-1.43-.41-.5-.42-.5-1.18h.9q0 .38.27.6.27.21.76.21h.44q.5 0 .77-.22.28-.22.28-.62 0-.71-.65-.8l-1.52-.22q-.561-.08-.87-.46-.31-.39-.31-1.02 0-.72.49-1.13.5-.41 1.37-.41h.44q.8 0 1.3.4.51.39.55 1.03h-.91a.64.64 0 0 0-.28-.48q-.25-.19-.66-.19h-.44q-.46 0-.72.21a.7.7 0 0 0-.26.57q0 .58.53.66l1.42.2q1.4.2 1.4 1.64 0 .77-.51 1.2-.5.42-1.42.42zm6.216.02q-.97 0-1.57-.58-.59-.59-.59-1.62v-1.3q0-1.03.59-1.61.6-.59 1.57-.59.65 0 1.13.26.49.26.76.73t.27 1.11v.98h-3.44v.52q0 .61.35.97.35.35.93.35.5 0 .82-.19.33-.2.4-.53h.9a1.54 1.54 0 0 1-.67 1.1q-.58.4-1.45.4m-1.28-3.32h2.56v-.28q0-.65-.34-1-.33-.36-.94-.36t-.95.36q-.33.35-.33 1zm5.396 3.22v-5.5h.9v1.05h.02q.07-.53.45-.84t1.02-.31q.86 0 1.32.52.47.51.47 1.46v.47h-.9v-.47q0-1.2-1.17-1.2-.59 0-.9.34t-.31.98v3.5zm7.286 0-1.87-5.5h.97l1.2 3.7a10 10 0 0 1 .19.64q.08.3.12.47.05-.17.12-.47a9 9 0 0 1 .17-.64l1.2-3.7h.95l-1.87 5.5zm4.436 0v-.82h1.95v-3.86h-1.75v-.82h2.65v4.68h1.85v.82zm2.3-6.49q-.33 0-.52-.17a.59.59 0 0 1-.19-.46q0-.3.19-.47.19-.18.52-.18t.52.18q.19.17.19.47a.59.59 0 0 1-.19.46q-.19.17-.52.17m5.926 6.59q-1 0-1.6-.56t-.6-1.54v-1.5q0-.98.6-1.54t1.6-.56q.951 0 1.53.51.59.51.62 1.39h-.9q-.03-.53-.36-.81-.33-.29-.89-.29-.59 0-.95.34-.35.33-.35.95V177q0 .62.35.96.36.34.95.34.56 0 .89-.29t.36-.81h.9q-.03.88-.62 1.39-.579.51-1.53.51m5.916 0q-.97 0-1.57-.58-.59-.59-.59-1.62v-1.3q0-1.03.59-1.61.6-.59 1.57-.59.65 0 1.13.26.49.26.76.73t.27 1.11v.98h-3.44v.52q0 .61.35.97.351.35.93.35.5 0 .82-.19.33-.2.4-.53h.9a1.54 1.54 0 0 1-.67 1.1q-.58.4-1.45.4m-1.28-3.32h2.56v-.28q0-.65-.34-1-.33-.36-.94-.36t-.95.36q-.33.35-.33 1zm5.786-1.08-.08-3h1.02l-.07 3zm2.12 0-.08-3h1.02l-.07 3z"/><path fill="#a78bfa" d="m76.51 192.7-.08-3h1.02l-.07 3zm2.12 0-.08-3h1.02l-.07 3zm3.286 4.3v-5.5h.9v1.05h.01q.07-.55.45-.85t1.01-.3q.83 0 1.32.51t.49 1.39v3.7h-.9v-3.54q0-.63-.32-.96-.31-.34-.85-.34-.56 0-.89.35-.32.35-.32.99v3.5zm7.596.1q-.85 0-1.35-.47-.5-.48-.5-1.25 0-.51.23-.89t.64-.59q.41-.22.94-.22h1.7v-.43q0-1.07-1.17-1.07-.519 0-.84.19t-.34.53h-.9q.051-.65.6-1.07.56-.43 1.48-.43 1 0 1.53.48.54.48.54 1.34V197h-.89v-1h-.02q-.08.51-.51.81-.43.29-1.14.29m.22-.76q.66 0 1.05-.32t.39-.87v-.77h-1.6q-.44 0-.72.27-.27.26-.27.7 0 .46.3.73.31.26.85.26m3.856.66v-5.5h.78v.73h.02a.98.98 0 0 1 .29-.6.9.9 0 0 1 .63-.23q.36 0 .61.21t.36.57h.01q.07-.36.31-.57a.95.95 0 0 1 .63-.21q.531 0 .84.4.32.39.32 1.02V197h-.84v-4.19q0-.33-.16-.52a.53.53 0 0 0-.44-.2.53.53 0 0 0-.43.19q-.16.19-.16.52v4.2h-.74v-4.19q0-.33-.16-.52a.52.52 0 0 0-.43-.2.54.54 0 0 0-.44.19q-.16.19-.16.52v4.2zm8.396.1q-.97 0-1.57-.58-.59-.59-.59-1.62v-1.3q0-1.03.59-1.61.6-.59 1.57-.59.65 0 1.13.26.49.26.76.73t.27 1.11v.98h-3.44v.52q0 .61.35.97.351.35.93.35.5 0 .82-.19.33-.2.4-.53h.9a1.54 1.54 0 0 1-.67 1.1q-.58.4-1.45.4m-1.28-3.32h2.56v-.28q0-.65-.34-1-.33-.36-.94-.36t-.95.36q-.33.35-.33 1zm7.056 3.3q-.92 0-1.43-.41-.5-.42-.5-1.18h.9q0 .38.27.6.27.21.76.21h.44q.5 0 .77-.22.28-.22.28-.62 0-.71-.65-.8l-1.52-.22q-.56-.08-.87-.46-.31-.39-.31-1.02 0-.72.49-1.13.5-.41 1.37-.41h.44q.8 0 1.3.4.51.39.55 1.03h-.91a.63.63 0 0 0-.28-.48q-.249-.19-.66-.19h-.44q-.459 0-.72.21a.7.7 0 0 0-.26.57q0 .58.53.66l1.42.2q1.4.2 1.4 1.64 0 .77-.51 1.2-.5.42-1.42.42zm4.137 1.72v-7.3h.9v1.05h.01q.07-.54.47-.84.399-.31 1.02-.31.83 0 1.32.55.49.54.49 1.49v1.61q0 .95-.49 1.5t-1.32.55q-.621 0-1.02-.31a1.22 1.22 0 0 1-.47-.84h-.03l.02 1.25v1.6zm2.1-2.48q.57 0 .89-.3t.32-.97v-1.6q0-.68-.32-.97-.32-.3-.89-.3-.55 0-.88.35-.32.35-.32.97v1.5q0 .62.32.97.33.35.88.35m5.496.78q-.85 0-1.35-.47-.5-.48-.5-1.25 0-.51.23-.89a1.56 1.56 0 0 1 .64-.59 1.95 1.95 0 0 1 .94-.22h1.7v-.43q0-1.07-1.17-1.07-.52 0-.84.19t-.34.53h-.9q.05-.65.6-1.07.56-.43 1.48-.43.999 0 1.53.48.54.48.54 1.34V197h-.89v-1h-.02q-.081.51-.51.81-.43.29-1.14.29m.22-.76q.66 0 1.05-.32t.39-.87v-.77h-1.6q-.441 0-.72.27-.27.26-.27.7 0 .46.3.73.31.26.85.26m6.336.76q-1 0-1.6-.56t-.6-1.54v-1.5q0-.98.6-1.54t1.6-.56q.95 0 1.53.51.59.51.62 1.39h-.9q-.03-.53-.36-.81-.33-.29-.89-.29-.59 0-.95.34-.35.33-.35.95V195q0 .62.35.96.36.34.95.34.56 0 .89-.29t.36-.81h.9q-.03.88-.62 1.39-.58.51-1.53.51m5.916 0q-.97 0-1.57-.58-.59-.59-.59-1.62v-1.3q0-1.03.59-1.61.6-.59 1.57-.59.65 0 1.13.26.49.26.76.73t.27 1.11v.98h-3.44v.52q0 .61.35.97.35.35.93.35.5 0 .82-.19.33-.2.4-.53h.9a1.54 1.54 0 0 1-.67 1.1q-.58.4-1.45.4m-1.28-3.32h2.56v-.28q0-.65-.34-1-.33-.36-.94-.36t-.95.36q-.33.35-.33 1zm5.786-1.08-.08-3h1.02l-.07 3zm2.12 0-.08-3h1.02l-.07 3z"/><path fill="#e4e4e7" d="M143.98 192.88q-.41 0-.62-.2t-.21-.54.21-.54.62-.2.62.2.21.54-.21.54-.62.2m0 4.22q-.41 0-.62-.2t-.21-.54.21-.54.62-.2.62.2.21.54-.21.54-.62.2m47.069 1.5.55-3.06h1.08l-.7 3.06z"/><path fill="#34d399" d="m154.482 192.7-.08-3h1.02l-.07 3zm2.12 0-.08-3h1.02l-.07 3zm3.286 6.1v-7.3h.9v1.05h.01q.07-.54.47-.84.4-.31 1.02-.31.831 0 1.32.55.49.54.49 1.49v1.61q0 .95-.49 1.5-.489.55-1.32.55-.62 0-1.02-.31a1.23 1.23 0 0 1-.47-.84h-.03l.02 1.25v1.6zm2.1-2.48q.57 0 .89-.3t.32-.97v-1.6q0-.68-.32-.97-.32-.3-.89-.3-.55 0-.88.35-.32.35-.32.97v1.5q0 .62.32.97.33.35.88.35m4.096.68v-5.5h.9v1.05h.02q.07-.53.45-.84.381-.31 1.02-.31.861 0 1.32.52.47.51.47 1.46v.47h-.9v-.47q0-1.2-1.17-1.2-.59 0-.9.34t-.31.98v3.5zm7.876.08q-.99 0-1.58-.58-.58-.58-.58-1.62v-1.26q0-1.05.58-1.62.58-.58 1.58-.58t1.58.58q.58.57.58 1.62v1.26q0 1.04-.59 1.62-.58.58-1.57.58m0-.8q.59 0 .92-.33.34-.33.34-.97v-1.46q0-.64-.34-.97-.33-.33-.92-.33-.58 0-.92.33t-.34.97v1.46q0 .64.34.97t.92.33m5.677.82q-.82 0-1.32-.55-.49-.55-.49-1.49v-1.61q0-.95.49-1.5.489-.55 1.32-.55.62 0 1.02.31.41.31.49.84h.01l-.02-1.25v-1.6h.9v7.3h-.9v-1.05h-.01q-.07.54-.47.85-.4.3-1.02.3m.3-.78q.56 0 .88-.35t.32-.97v-1.5q0-.62-.32-.97t-.88-.35q-.57 0-.89.3-.32.29-.32.97v1.6q0 .67.32.97t.89.3m4.526-3.62-.08-3h1.02l-.07 3zm2.12 0-.08-3h1.02l-.07 3z"/><path fill="#a78bfa" d="m76.51 210.7-.08-3h1.02l-.07 3zm2.12 0-.08-3h1.02l-.07 3zm3.486 4.3v-5.5h.9v1.05h.02q.07-.53.45-.84t1.02-.31q.86 0 1.32.52.47.51.47 1.46v.47h-.9v-.47q0-1.2-1.17-1.2-.59 0-.9.34t-.31.98v3.5zm7.876.1q-.97 0-1.57-.58-.59-.59-.59-1.62v-1.3q0-1.03.59-1.61.6-.59 1.57-.59.65 0 1.13.26.49.26.76.73t.27 1.11v.98h-3.44v.52q0 .61.35.97.351.35.93.35.5 0 .82-.19.33-.2.4-.53h.9a1.54 1.54 0 0 1-.67 1.1q-.58.4-1.45.4m-1.28-3.32h2.56v-.28q0-.65-.34-1-.33-.36-.94-.36t-.95.36q-.33.35-.33 1zm8.456 5.02v-1.6l.02-1.25h-.03a1.22 1.22 0 0 1-.47.84q-.399.31-1.02.31-.83 0-1.32-.55t-.49-1.5v-1.61q0-.95.49-1.49.501-.55 1.32-.55.621 0 1.02.31.4.3.47.84h.01v-1.05h.9v7.3zm-1.2-2.48q.56 0 .88-.35t.32-.97v-1.5q0-.62-.32-.97t-.88-.35q-.57 0-.89.29t-.32.93v1.7q0 .64.32.93t.89.29m6.006.78q-.95 0-1.52-.56-.57-.57-.57-1.54v-3.5h.9v3.5q0 .6.32.96.321.35.87.35.56 0 .88-.35.33-.36.33-.96v-3.5h.9v3.5q0 .97-.58 1.54-.579.56-1.53.56m6.006 0q-.97 0-1.57-.58-.59-.59-.59-1.62v-1.3q0-1.03.59-1.61.6-.59 1.57-.59.65 0 1.13.26.49.26.76.73t.27 1.11v.98h-3.44v.52q0 .61.35.97.351.35.93.35.5 0 .82-.19.33-.2.4-.53h.9a1.54 1.54 0 0 1-.67 1.1q-.58.4-1.45.4m-1.28-3.32h2.56v-.28q0-.65-.34-1-.33-.36-.94-.36t-.95.36q-.33.35-.33 1zm7.057 3.3q-.92 0-1.43-.41-.5-.42-.5-1.18h.9q0 .38.27.6.27.21.76.21h.44q.5 0 .77-.22.28-.22.28-.62 0-.71-.65-.8l-1.52-.22q-.561-.08-.87-.46-.31-.39-.31-1.02 0-.72.49-1.13.5-.41 1.37-.41h.44q.8 0 1.3.4.51.39.55 1.03h-.91a.64.64 0 0 0-.28-.48q-.25-.19-.66-.19h-.44q-.46 0-.72.21a.7.7 0 0 0-.26.57q0 .58.53.66l1.42.2q1.4.2 1.4 1.64 0 .77-.51 1.2-.5.42-1.42.42zm6.766-.08q-.68 0-1.09-.39-.41-.4-.41-1.06v-3.23h-1.58v-.82h1.58v-1.55h.9v1.55h2.25v.82h-2.25v3.23q0 .28.16.46.17.17.44.17h1.6v.82zm3.956-4.3-.08-3h1.02l-.07 3zm2.12 0-.08-3h1.02l-.07 3z"/><path fill="#e4e4e7" d="M131.99 210.88q-.41 0-.62-.2t-.21-.54.21-.54.62-.2.62.2.21.54-.21.54-.62.2m0 4.22q-.41 0-.62-.2t-.21-.54.21-.54.62-.2.62.2.21.54-.21.54-.62.2m53.965-4.22q-.41 0-.62-.2t-.21-.54.21-.54.62-.2.62.2.21.54-.21.54-.62.2m0 4.22q-.41 0-.62-.2t-.21-.54.21-.54.62-.2.62.2.21.54-.21.54-.62.2m41.072 1.5.55-3.06h1.08l-.7 3.06zm60.861-5.72q-.41 0-.62-.2t-.21-.54.21-.54.62-.2.62.2.21.54-.21.54-.62.2m0 4.22q-.41 0-.62-.2t-.21-.54.21-.54.62-.2.62.2.21.54-.21.54-.62.2m65.057 1.5.55-3.06h1.08l-.7 3.06z"/><path fill="#a78bfa" d="M145.582 216.1q-.88 0-1.4-.44-.519-.43-.45-1.22l.15-1.64q.051-.53-.15-.76-.2-.24-.85-.24h-1.15v-.8h1.15q.65 0 .85-.23.201-.24.15-.77l-.15-1.64q-.069-.79.45-1.22.52-.44 1.4-.44h.45v.8h-.45q-.47 0-.73.22-.26.21-.22.64l.15 1.64q.05.59-.28.95-.33.35-1.08.42.75.07 1.08.46t.28.97l-.15 1.64q-.04.43.22.64.26.22.73.22h.45v.8zm8.902-5.4-.08-3h1.02l-.07 3zm2.12 0-.08-3h1.02l-.07 3zm5.446 4.4q-1 0-1.6-.56t-.6-1.54v-1.5q0-.98.6-1.54t1.6-.56q.951 0 1.53.51.59.51.62 1.39h-.9q-.03-.53-.36-.81-.33-.29-.89-.29-.59 0-.95.34-.35.33-.35.95V213q0 .62.35.96.36.34.95.34.56 0 .89-.29t.36-.81h.9q-.03.88-.62 1.39-.579.51-1.53.51m3.837 1.7v-7.3h.9v1.05h.01q.07-.54.47-.84.399-.31 1.02-.31.83 0 1.32.55.49.54.49 1.49v1.61q0 .95-.49 1.5t-1.32.55q-.621 0-1.02-.31a1.22 1.22 0 0 1-.47-.84h-.03l.02 1.25v1.6zm2.1-2.48q.57 0 .89-.3t.32-.97v-1.6q0-.68-.32-.97-.32-.3-.89-.3-.55 0-.88.35-.32.35-.32.97v1.5q0 .62.32.97.33.35.88.35m5.966.78q-.95 0-1.52-.56-.57-.57-.57-1.54v-3.5h.9v3.5q0 .6.32.96.32.35.87.35.56 0 .88-.35.33-.36.33-.96v-3.5h.9v3.5q0 .97-.58 1.54-.58.56-1.53.56m4.516-4.4-.08-3h1.02l-.07 3zm2.12 0-.08-3h1.02l-.07 3zm57.841 0-.08-3h1.02l-.07 3zm2.12 0-.08-3h1.02l-.07 3zm2.966 4.3v-5.5h.78v.73h.02a.98.98 0 0 1 .29-.6.9.9 0 0 1 .63-.23q.36 0 .61.21.249.21.36.57h.01q.07-.36.31-.57a.94.94 0 0 1 .63-.21q.53 0 .84.4.32.39.32 1.02V215h-.84v-4.19q0-.33-.16-.52a.54.54 0 0 0-.44-.2.53.53 0 0 0-.43.19q-.16.19-.16.52v4.2h-.74v-4.19q0-.33-.16-.52a.52.52 0 0 0-.43-.2.54.54 0 0 0-.44.19q-.16.19-.16.52v4.2zm8.396.1q-.97 0-1.57-.58-.59-.59-.59-1.62v-1.3q0-1.03.59-1.61.6-.59 1.57-.59.65 0 1.13.26.49.26.76.73t.27 1.11v.98h-3.44v.52q0 .61.35.97.35.35.93.35.5 0 .82-.19.33-.2.4-.53h.9a1.54 1.54 0 0 1-.67 1.1q-.58.4-1.45.4m-1.28-3.32h2.56v-.28q0-.65-.34-1-.33-.36-.94-.36t-.95.36q-.33.35-.33 1zm4.876 3.22v-5.5h.78v.73h.02a.98.98 0 0 1 .29-.6.9.9 0 0 1 .63-.23q.36 0 .61.21t.36.57h.01a.98.98 0 0 1 .31-.57.95.95 0 0 1 .63-.21q.53 0 .84.4.32.39.32 1.02V215h-.84v-4.19q0-.33-.16-.52a.53.53 0 0 0-.44-.2.53.53 0 0 0-.43.19q-.16.19-.16.52v4.2h-.74v-4.19q0-.33-.16-.52a.52.52 0 0 0-.43-.2.54.54 0 0 0-.44.19q-.16.19-.16.52v4.2zm8.396.08q-.99 0-1.58-.58-.58-.58-.58-1.62v-1.26q0-1.05.58-1.62.58-.58 1.58-.58t1.58.58q.58.57.58 1.62v1.26q0 1.04-.59 1.62-.58.58-1.57.58m0-.8q.59 0 .92-.33.34-.33.34-.97v-1.46q0-.64-.34-.97-.33-.33-.92-.33-.58 0-.92.33t-.34.97v1.46q0 .64.34.97t.92.33m4.116.72v-5.5h.9v1.05h.02q.07-.53.45-.84t1.02-.31q.86 0 1.32.52.47.51.47 1.46v.47h-.9v-.47q0-1.2-1.17-1.2-.59 0-.9.34t-.31.98v3.5zm6.656 1.8.81-2.14-2.05-5.16h.97l1.3 3.4q.081.2.15.42.07.22.1.38.03-.16.1-.38t.14-.42l1.21-3.4h.95l-2.74 7.3zm5.726-6.1-.08-3h1.02l-.07 3zm2.12 0-.08-3h1.02l-.07 3zm63.277 5.4v-.8h.45q.47 0 .74-.22.28-.21.21-.64l-.25-1.64q-.09-.57.2-.96.29-.4.8-.49-.51-.08-.8-.43t-.2-.92l.25-1.64q.07-.43-.21-.64-.27-.22-.74-.22h-.45v-.8h.45q.59 0 1.03.2.45.19.67.56.231.37.15.9l-.25 1.64q-.08.53.13.77.22.23.87.23h1.25v.8h-1.25q-.64 0-.86.24-.22.23-.14.76l.25 1.64q.081.52-.15.89-.22.38-.67.57a2.5 2.5 0 0 1-1.03.2z"/><path fill="#fbbf24" d="m196.457 210.7-.08-3h1.02l-.07 3zm2.12 0-.08-3h1.02l-.07 3zm3.226 4.3v-.83l2.43-2.6q.53-.56.75-1t.22-.86q0-.6-.35-.95-.34-.36-.93-.36-.61 0-.97.37-.35.36-.35.98h-.9q.03-.99.63-1.57t1.59-.58q1.01 0 1.6.57.6.57.6 1.55 0 .52-.29 1.1-.28.58-.97 1.3l-1.97 2.06h3.32v.82zm8.136.1a.83.83 0 0 1-.6-.22.78.78 0 0 1-.22-.57q0-.37.22-.6a.82.82 0 0 1 .6-.23q.37 0 .59.23.23.23.23.6a.75.75 0 0 1-.23.57q-.22.22-.59.22m5.996 0q-1.01 0-1.61-.58-.59-.59-.59-1.57v-3.2q0-.98.59-1.56.6-.59 1.61-.59t1.6.59q.6.58.6 1.56v3.2q0 .65-.27 1.14-.27.48-.77.75-.49.26-1.16.26m0-.77q.6 0 .96-.38.37-.39.37-1v-3.2q0-.61-.37-.99-.36-.39-.96-.39t-.97.39q-.36.38-.36.99v3.2q0 .61.36 1 .37.38.97.38m0-2.43a.64.64 0 0 1-.44-.15q-.16-.15-.16-.43 0-.27.16-.41.17-.15.44-.15t.43.15q.17.14.17.41 0 .28-.17.43-.16.15-.43.15m4.506-1.2-.08-3h1.02l-.07 3zm2.12 0-.08-3h1.02l-.07 3zm75.83 0-.08-3h1.02l-.07 3zm2.12 0-.08-3h1.02l-.07 3zm6.366 4.3v-1.6h-3.3v-1.41l2.66-4.29h1.02l-2.78 4.49v.39h2.4v-1.78h.9v4.2zm4.996.1q-.37 0-.6-.22a.77.77 0 0 1-.22-.57q0-.37.22-.6a.8.8 0 0 1 .6-.23q.37 0 .59.23.23.23.23.6a.76.76 0 0 1-.23.57q-.22.22-.59.22m5.996 0q-1.01 0-1.61-.58-.59-.59-.59-1.57v-3.2q0-.98.59-1.56.6-.59 1.61-.59t1.6.59q.6.58.6 1.56v3.2q0 .65-.27 1.14-.27.48-.77.75-.49.26-1.16.26m0-.77q.6 0 .96-.38.37-.39.37-1v-3.2q0-.61-.37-.99-.36-.39-.96-.39t-.97.39q-.36.38-.36.99v3.2q0 .61.36 1 .37.38.97.38m0-2.43a.64.64 0 0 1-.44-.15q-.16-.15-.16-.43 0-.27.16-.41a.64.64 0 0 1 .44-.15q.27 0 .43.15.17.14.17.41 0 .28-.17.43-.16.15-.43.15m6.036 3.2q-1 0-1.58-.56t-.58-1.54v-3.3q0-.98.58-1.54t1.58-.56q.98 0 1.56.57.58.56.58 1.53h-.9q0-.62-.33-.95-.32-.34-.91-.34t-.93.33q-.33.33-.33.95V213q0 .62.33.96.34.34.93.34t.91-.34q.33-.34.33-.96v-1h-1.48v-.82h2.38V213q0 .97-.58 1.54-.58.56-1.56.56m3.806-.1v-.82h1.95v-3.86h-1.75v-.82h2.65v4.68h1.85v.82zm2.3-6.49q-.33 0-.52-.17a.59.59 0 0 1-.19-.46q0-.3.19-.47.19-.18.52-.18t.52.18q.19.17.19.47a.59.59 0 0 1-.19.46q-.19.17-.52.17m4.356 2.19-.08-3h1.02l-.07 3zm2.12 0-.08-3h1.02l-.07 3z"/><path fill="#a78bfa" d="m76.51 228.7-.08-3h1.02l-.07 3zm2.12 0-.08-3h1.02l-.07 3zm4.886 4.4q-.85 0-1.35-.47-.5-.48-.5-1.25 0-.51.23-.89t.64-.59q.41-.22.94-.22h1.7v-.43q0-1.07-1.17-1.07-.52 0-.84.19t-.34.53h-.9q.05-.65.6-1.07.56-.43 1.48-.43 1 0 1.53.48.54.48.54 1.34V233h-.89v-1h-.02q-.08.51-.51.81-.43.29-1.14.29m.22-.76q.66 0 1.05-.32t.39-.87v-.77h-1.6q-.44 0-.72.27-.27.26-.27.7 0 .46.3.73.31.26.85.26m6.336.76q-1 0-1.6-.56t-.6-1.54v-1.5q0-.98.6-1.54t1.6-.56q.95 0 1.53.51.59.51.62 1.39h-.9q-.03-.53-.36-.81-.33-.29-.89-.29-.59 0-.95.34-.35.33-.35.95V231q0 .62.35.96.36.34.95.34.56 0 .89-.29t.36-.81h.9q-.03.88-.62 1.39-.58.51-1.53.51m6.466-.1q-.68 0-1.09-.39-.41-.4-.41-1.06v-3.23h-1.58v-.82h1.58v-1.55h.9v1.55h2.25v.82h-2.25v3.23q0 .28.16.46.17.17.44.17h1.6v.82zm5.436.1q-.95 0-1.52-.56-.57-.57-.57-1.54v-3.5h.9v3.5q0 .6.32.96.321.35.87.35.56 0 .88-.35.33-.36.33-.96v-3.5h.9v3.5q0 .97-.58 1.54-.579.56-1.53.56m5.526 0q-.849 0-1.35-.47-.5-.48-.5-1.25 0-.51.23-.89t.64-.59q.41-.22.94-.22h1.7v-.43q0-1.07-1.17-1.07-.519 0-.84.19t-.34.53h-.9q.051-.65.6-1.07.56-.43 1.48-.43 1 0 1.53.48.54.48.54 1.34V233h-.89v-1h-.02q-.08.51-.51.81-.429.29-1.14.29m.22-.76q.66 0 1.05-.32t.39-.87v-.77h-1.6q-.44 0-.72.27-.27.26-.27.7 0 .46.3.73.31.26.85.26m7.057.66q-.73 0-1.17-.42-.43-.43-.43-1.13v-4.93h-1.9v-.82h2.8v5.75q0 .34.19.54.189.19.51.19h1.7v.82zm3.706-4.3-.08-3h1.02l-.07 3zm2.12 0-.08-3h1.02l-.07 3z"/><path fill="#e4e4e7" d="M125.99 228.88q-.41 0-.62-.2t-.21-.54.21-.54.62-.2.62.2.21.54-.21.54-.62.2m0 4.22q-.41 0-.62-.2t-.21-.54.21-.54.62-.2.62.2.21.54-.21.54-.62.2m53.965-4.22q-.41 0-.62-.2t-.21-.54.21-.54.62-.2.62.2.21.54-.21.54-.62.2m0 4.22q-.41 0-.62-.2t-.21-.54.21-.54.62-.2.62.2.21.54-.21.54-.62.2m41.072 1.5.55-3.06h1.08l-.7 3.06zm60.861-5.72q-.41 0-.62-.2t-.21-.54.21-.54.62-.2.62.2.21.54-.21.54-.62.2m0 4.22q-.41 0-.62-.2t-.21-.54.21-.54.62-.2.62.2.21.54-.21.54-.62.2m65.057 1.5.55-3.06h1.08l-.7 3.06z"/><path fill="#a78bfa" d="M139.582 234.1q-.88 0-1.4-.44-.519-.43-.45-1.22l.15-1.64q.051-.53-.15-.76-.2-.24-.85-.24h-1.15v-.8h1.15q.65 0 .85-.23.201-.24.15-.77l-.15-1.64q-.069-.79.45-1.22.52-.44 1.4-.44h.45v.8h-.45q-.47 0-.73.22-.26.21-.22.64l.15 1.64q.05.59-.28.95-.33.35-1.08.42.75.07 1.08.46t.28.97l-.15 1.64q-.04.43.22.64.26.22.73.22h.45v.8zm8.902-5.4-.08-3h1.02l-.07 3zm2.12 0-.08-3h1.02l-.07 3zm5.446 4.4q-1 0-1.6-.56t-.6-1.54v-1.5q0-.98.6-1.54t1.6-.56q.951 0 1.53.51.59.51.62 1.39h-.9q-.03-.53-.36-.81-.33-.29-.89-.29-.59 0-.95.34-.35.33-.35.95V231q0 .62.35.96.36.34.95.34.56 0 .89-.29t.36-.81h.9q-.03.88-.62 1.39-.579.51-1.53.51m3.837 1.7v-7.3h.9v1.05h.01q.07-.54.47-.84.399-.31 1.02-.31.83 0 1.32.55.49.54.49 1.49v1.61q0 .95-.49 1.5t-1.32.55q-.621 0-1.02-.31a1.22 1.22 0 0 1-.47-.84h-.03l.02 1.25v1.6zm2.1-2.48q.57 0 .89-.3t.32-.97v-1.6q0-.68-.32-.97-.32-.3-.89-.3-.55 0-.88.35-.32.35-.32.97v1.5q0 .62.32.97.33.35.88.35m5.966.78q-.95 0-1.52-.56-.57-.57-.57-1.54v-3.5h.9v3.5q0 .6.32.96.32.35.87.35.56 0 .88-.35.33-.36.33-.96v-3.5h.9v3.5q0 .97-.58 1.54-.58.56-1.53.56m4.516-4.4-.08-3h1.02l-.07 3zm2.12 0-.08-3h1.02l-.07 3zm57.841 0-.08-3h1.02l-.07 3zm2.12 0-.08-3h1.02l-.07 3zm2.966 4.3v-5.5h.78v.73h.02a.98.98 0 0 1 .29-.6.9.9 0 0 1 .63-.23q.36 0 .61.21.249.21.36.57h.01q.07-.36.31-.57a.94.94 0 0 1 .63-.21q.53 0 .84.4.32.39.32 1.02V233h-.84v-4.19q0-.33-.16-.52a.54.54 0 0 0-.44-.2.53.53 0 0 0-.43.19q-.16.19-.16.52v4.2h-.74v-4.19q0-.33-.16-.52a.52.52 0 0 0-.43-.2.54.54 0 0 0-.44.19q-.16.19-.16.52v4.2zm8.396.1q-.97 0-1.57-.58-.59-.59-.59-1.62v-1.3q0-1.03.59-1.61.6-.59 1.57-.59.65 0 1.13.26.49.26.76.73t.27 1.11v.98h-3.44v.52q0 .61.35.97.35.35.93.35.5 0 .82-.19.33-.2.4-.53h.9a1.54 1.54 0 0 1-.67 1.1q-.58.4-1.45.4m-1.28-3.32h2.56v-.28q0-.65-.34-1-.33-.36-.94-.36t-.95.36q-.33.35-.33 1zm4.876 3.22v-5.5h.78v.73h.02a.98.98 0 0 1 .29-.6.9.9 0 0 1 .63-.23q.36 0 .61.21t.36.57h.01a.98.98 0 0 1 .31-.57.95.95 0 0 1 .63-.21q.53 0 .84.4.32.39.32 1.02V233h-.84v-4.19q0-.33-.16-.52a.53.53 0 0 0-.44-.2.53.53 0 0 0-.43.19q-.16.19-.16.52v4.2h-.74v-4.19q0-.33-.16-.52a.52.52 0 0 0-.43-.2.54.54 0 0 0-.44.19q-.16.19-.16.52v4.2zm8.396.08q-.99 0-1.58-.58-.58-.58-.58-1.62v-1.26q0-1.05.58-1.62.58-.58 1.58-.58t1.58.58q.58.57.58 1.62v1.26q0 1.04-.59 1.62-.58.58-1.57.58m0-.8q.59 0 .92-.33.34-.33.34-.97v-1.46q0-.64-.34-.97-.33-.33-.92-.33-.58 0-.92.33t-.34.97v1.46q0 .64.34.97t.92.33m4.116.72v-5.5h.9v1.05h.02q.07-.53.45-.84t1.02-.31q.86 0 1.32.52.47.51.47 1.46v.47h-.9v-.47q0-1.2-1.17-1.2-.59 0-.9.34t-.31.98v3.5zm6.656 1.8.81-2.14-2.05-5.16h.97l1.3 3.4q.081.2.15.42.07.22.1.38.03-.16.1-.38t.14-.42l1.21-3.4h.95l-2.74 7.3zm5.726-6.1-.08-3h1.02l-.07 3zm2.12 0-.08-3h1.02l-.07 3zm63.277 5.4v-.8h.45q.47 0 .74-.22.28-.21.21-.64l-.25-1.64q-.09-.57.2-.96.29-.4.8-.49-.51-.08-.8-.43t-.2-.92l.25-1.64q.07-.43-.21-.64-.27-.22-.74-.22h-.45v-.8h.45q.59 0 1.03.2.45.19.67.56.231.37.15.9l-.25 1.64q-.08.53.13.77.22.23.87.23h1.25v.8h-1.25q-.64 0-.86.24-.22.23-.14.76l.25 1.64q.081.52-.15.89-.22.38-.67.57a2.5 2.5 0 0 1-1.03.2z"/><path fill="#fbbf24" d="m190.457 228.7-.08-3h1.02l-.07 3zm2.12 0-.08-3h1.02l-.07 3zm5.366 4.4q-1.01 0-1.61-.58-.59-.59-.59-1.57v-3.2q0-.98.59-1.56.6-.59 1.61-.59t1.6.59q.6.58.6 1.56v3.2q0 .65-.27 1.14-.27.48-.77.75-.49.26-1.16.26m0-.77q.6 0 .96-.38.37-.39.37-1v-3.2q0-.61-.37-.99-.36-.39-.96-.39t-.97.39q-.36.38-.36.99v3.2q0 .61.36 1 .37.38.97.38m0-2.43a.64.64 0 0 1-.44-.15q-.16-.15-.16-.43 0-.27.16-.41a.64.64 0 0 1 .44-.15q.27 0 .43.15.17.14.17.41 0 .28-.17.43-.16.15-.43.15m5.996 3.2a.83.83 0 0 1-.6-.22.78.78 0 0 1-.22-.57q0-.37.22-.6a.82.82 0 0 1 .6-.23q.37 0 .59.23.23.23.23.6a.75.75 0 0 1-.23.57q-.22.22-.59.22m6.996-.1v-1.6h-3.3v-1.41l2.66-4.29h1.02l-2.78 4.49v.39h2.4v-1.78h.9v4.2zm3.506-4.3-.08-3h1.02l-.07 3zm2.12 0-.08-3h1.02l-.07 3zm75.83 0-.08-3h1.02l-.07 3zm2.12 0-.08-3h1.02l-.07 3zm3.266 4.3v-.82h1.98v-5.7l-1.98 1.48v-1.03l1.65-1.23h1.23v6.48h1.62v.82zm8.096.1q-.37 0-.6-.22a.77.77 0 0 1-.22-.57q0-.37.22-.6a.8.8 0 0 1 .6-.23q.37 0 .59.23.23.23.23.6a.76.76 0 0 1-.23.57q-.22.22-.59.22m3.856-.1v-.83l2.43-2.6q.53-.56.75-1t.22-.86q0-.6-.35-.95-.34-.36-.93-.36-.61 0-.97.37-.35.36-.35.98h-.9q.03-.99.63-1.57t1.59-.58q1.01 0 1.6.57.6.57.6 1.55 0 .52-.29 1.1-.28.58-.97 1.3l-1.97 2.06h3.32v.82zm8.176.1q-1 0-1.58-.56t-.58-1.54v-3.3q0-.98.58-1.54t1.58-.56q.98 0 1.56.57.58.56.58 1.53h-.9q0-.62-.33-.95-.32-.34-.91-.34t-.93.33q-.33.33-.33.95V231q0 .62.33.96.34.34.93.34t.91-.34q.33-.34.33-.96v-1h-1.48v-.82h2.38V231q0 .97-.58 1.54-.58.56-1.56.56m3.806-.1v-.82h1.95v-3.86h-1.75v-.82h2.65v4.68h1.85v.82zm2.3-6.49q-.33 0-.52-.17a.59.59 0 0 1-.19-.46q0-.3.19-.47.19-.18.52-.18t.52.18q.19.17.19.47a.59.59 0 0 1-.19.46q-.19.17-.52.17m4.356 2.19-.08-3h1.02l-.07 3zm2.12 0-.08-3h1.02l-.07 3z"/><path fill="#a78bfa" d="m76.51 246.7-.08-3h1.02l-.07 3zm2.12 0-.08-3h1.02l-.07 3zm5.146 4.38q-.92 0-1.43-.41-.5-.42-.5-1.18h.9q0 .38.27.6.27.21.76.21h.44q.5 0 .77-.22.28-.22.28-.62 0-.71-.65-.8l-1.52-.22q-.56-.08-.87-.46-.31-.39-.31-1.02 0-.72.49-1.13.5-.41 1.37-.41h.44q.8 0 1.3.4.51.39.55 1.03h-.91a.63.63 0 0 0-.28-.48q-.25-.19-.66-.19h-.44q-.46 0-.72.21a.7.7 0 0 0-.26.57q0 .58.53.66l1.42.2q1.4.2 1.4 1.64 0 .77-.51 1.2-.5.42-1.42.42zm6.206.02q-.95 0-1.52-.56-.57-.57-.57-1.54v-3.5h.9v3.5q0 .6.32.96.321.35.87.35.56 0 .88-.35.33-.36.33-.96v-3.5h.9v3.5q0 .97-.58 1.54-.58.56-1.53.56m4.616 1.7v-.82h1.55q.47 0 .74-.27.27-.26.27-.71v-.5l.02-.9h-.03a1.1 1.1 0 0 1-.47.76q-.39.26-.98.26-.85 0-1.34-.54t-.49-1.48v-1.16q0-.94.49-1.49t1.34-.55q.59 0 .98.28t.47.77h.02v-.95h.89v5.5q0 .83-.52 1.31-.51.49-1.4.49zm1.37-2.93q.56 0 .88-.35t.32-.97v-1.05q0-.62-.32-.97t-.88-.35q-.57 0-.89.33-.31.33-.31.89v1.25q0 .56.31.89.32.33.89.33m4.626 2.93v-.82h1.55q.47 0 .74-.27.27-.26.27-.71v-.5l.02-.9h-.03q-.08.49-.47.76-.39.26-.98.26-.85 0-1.34-.54t-.49-1.48v-1.16q0-.94.49-1.49t1.34-.55q.59 0 .98.28t.47.77h.02v-.95h.89v5.5q0 .83-.52 1.31-.51.49-1.4.49zm1.37-2.93q.56 0 .88-.35t.32-.97v-1.05q0-.62-.32-.97t-.88-.35q-.57 0-.89.33-.31.33-.31.89v1.25q0 .56.31.89.32.33.89.33m6.016 1.23q-.97 0-1.57-.58-.59-.59-.59-1.62v-1.3q0-1.03.59-1.61.6-.59 1.57-.59.65 0 1.13.26.49.26.76.73t.27 1.11v.98h-3.44v.52q0 .61.35.97.351.35.93.35.5 0 .82-.19.33-.2.4-.53h.9a1.54 1.54 0 0 1-.67 1.1q-.58.4-1.45.4m-1.28-3.32h2.56v-.28q0-.65-.34-1-.33-.36-.94-.36t-.95.36q-.33.35-.33 1zm7.057 3.3q-.92 0-1.43-.41-.5-.42-.5-1.18h.9q0 .38.27.6.27.21.76.21h.44q.5 0 .77-.22.28-.22.28-.62 0-.71-.65-.8l-1.52-.22q-.561-.08-.87-.46-.31-.39-.31-1.02 0-.72.49-1.13.5-.41 1.37-.41h.44q.8 0 1.3.4.51.39.55 1.03h-.91a.64.64 0 0 0-.28-.48q-.25-.19-.66-.19h-.44q-.46 0-.72.21a.7.7 0 0 0-.26.57q0 .58.53.66l1.42.2q1.4.2 1.4 1.64 0 .77-.51 1.2-.5.42-1.42.42zm6.766-.08q-.68 0-1.09-.39-.41-.4-.41-1.06v-3.23h-1.58v-.82h1.58v-1.55h.9v1.55h2.25v.82h-2.25v3.23q0 .28.16.46.17.17.44.17h1.6v.82zm5.446.1q-.97 0-1.57-.58-.59-.59-.59-1.62v-1.3q0-1.03.59-1.61.6-.59 1.57-.59.65 0 1.13.26.49.26.76.73t.27 1.11v.98h-3.44v.52q0 .61.35.97.35.35.93.35.5 0 .82-.19.33-.2.4-.53h.9q-.09.69-.67 1.1-.58.4-1.45.4m-1.28-3.32h2.56v-.28q0-.65-.34-1-.33-.36-.94-.36t-.95.36q-.33.35-.33 1zm6.956 3.32q-.82 0-1.32-.55-.49-.55-.49-1.49v-1.61q0-.95.49-1.5t1.32-.55q.62 0 1.02.31.41.31.49.84h.01l-.02-1.25v-1.6h.9v7.3h-.9v-1.05h-.01a1.23 1.23 0 0 1-.47.85q-.4.3-1.02.3m.3-.78q.56 0 .88-.35t.32-.97v-1.5q0-.62-.32-.97t-.88-.35q-.57 0-.89.3-.32.29-.32.97v1.6q0 .67.32.97t.89.3m4.526-3.62-.08-3h1.02l-.07 3zm2.12 0-.08-3h1.02l-.07 3z"/><path fill="#e4e4e7" d="M143.98 246.88q-.41 0-.62-.2t-.21-.54.21-.54.62-.2.62.2.21.54-.21.54-.62.2m0 4.22q-.41 0-.62-.2t-.21-.54.21-.54.62-.2.62.2.21.54-.21.54-.62.2m53.965-4.22q-.41 0-.62-.2t-.21-.54.21-.54.62-.2.62.2.21.54-.21.54-.62.2m0 4.22q-.41 0-.62-.2t-.21-.54.21-.54.62-.2.62.2.21.54-.21.54-.62.2m41.072 1.5.55-3.06h1.08l-.7 3.06zm60.861-5.72q-.41 0-.62-.2t-.21-.54.21-.54.62-.2.62.2.21.54-.21.54-.62.2m0 4.22q-.41 0-.62-.2t-.21-.54.21-.54.62-.2.62.2.21.54-.21.54-.62.2m65.057 1.5.55-3.06h1.08l-.7 3.06z"/><path fill="#a78bfa" d="M157.572 252.1q-.88 0-1.4-.44-.519-.43-.45-1.22l.15-1.64q.051-.53-.15-.76-.2-.24-.85-.24h-1.15v-.8h1.15q.65 0 .85-.23.201-.24.15-.77l-.15-1.64q-.069-.79.45-1.22.52-.44 1.4-.44h.45v.8h-.45q-.47 0-.73.22-.26.21-.22.64l.15 1.64q.05.59-.28.95-.33.35-1.08.42.75.07 1.08.46t.28.97l-.15 1.64q-.04.43.22.64.26.22.73.22h.45v.8zm8.902-5.4-.08-3h1.02l-.07 3zm2.12 0-.08-3h1.02l-.07 3zm5.446 4.4q-1 0-1.6-.56t-.6-1.54v-1.5q0-.98.6-1.54t1.6-.56q.951 0 1.53.51.59.51.62 1.39h-.9q-.03-.53-.36-.81-.33-.29-.89-.29-.59 0-.95.34-.35.33-.35.95V249q0 .62.35.96.36.34.95.34.56 0 .89-.29t.36-.81h.9q-.03.88-.62 1.39-.579.51-1.53.51m3.837 1.7v-7.3h.9v1.05h.01q.07-.54.47-.84.399-.31 1.02-.31.83 0 1.32.55.49.54.49 1.49v1.61q0 .95-.49 1.5t-1.32.55q-.621 0-1.02-.31a1.22 1.22 0 0 1-.47-.84h-.03l.02 1.25v1.6zm2.1-2.48q.57 0 .89-.3t.32-.97v-1.6q0-.68-.32-.97-.32-.3-.89-.3-.55 0-.88.35-.32.35-.32.97v1.5q0 .62.32.97.33.35.88.35m5.966.78q-.95 0-1.52-.56-.57-.57-.57-1.54v-3.5h.9v3.5q0 .6.32.96.32.35.87.35.56 0 .88-.35.33-.36.33-.96v-3.5h.9v3.5q0 .97-.58 1.54-.58.56-1.53.56m4.516-4.4-.08-3h1.02l-.07 3zm2.12 0-.08-3h1.02l-.07 3zm57.841 0-.08-3h1.02l-.07 3zm2.12 0-.08-3h1.02l-.07 3zm2.966 4.3v-5.5h.78v.73h.02a.98.98 0 0 1 .29-.6.9.9 0 0 1 .63-.23q.36 0 .61.21.249.21.36.57h.01q.07-.36.31-.57a.94.94 0 0 1 .63-.21q.53 0 .84.4.32.39.32 1.02V251h-.84v-4.19q0-.33-.16-.52a.54.54 0 0 0-.44-.2.53.53 0 0 0-.43.19q-.16.19-.16.52v4.2h-.74v-4.19q0-.33-.16-.52a.52.52 0 0 0-.43-.2.54.54 0 0 0-.44.19q-.16.19-.16.52v4.2zm8.396.1q-.97 0-1.57-.58-.59-.59-.59-1.62v-1.3q0-1.03.59-1.61.6-.59 1.57-.59.65 0 1.13.26.49.26.76.73t.27 1.11v.98h-3.44v.52q0 .61.35.97.35.35.93.35.5 0 .82-.19.33-.2.4-.53h.9a1.54 1.54 0 0 1-.67 1.1q-.58.4-1.45.4m-1.28-3.32h2.56v-.28q0-.65-.34-1-.33-.36-.94-.36t-.95.36q-.33.35-.33 1zm4.876 3.22v-5.5h.78v.73h.02a.98.98 0 0 1 .29-.6.9.9 0 0 1 .63-.23q.36 0 .61.21t.36.57h.01a.98.98 0 0 1 .31-.57.95.95 0 0 1 .63-.21q.53 0 .84.4.32.39.32 1.02V251h-.84v-4.19q0-.33-.16-.52a.53.53 0 0 0-.44-.2.53.53 0 0 0-.43.19q-.16.19-.16.52v4.2h-.74v-4.19q0-.33-.16-.52a.52.52 0 0 0-.43-.2.54.54 0 0 0-.44.19q-.16.19-.16.52v4.2zm8.396.08q-.99 0-1.58-.58-.58-.58-.58-1.62v-1.26q0-1.05.58-1.62.58-.58 1.58-.58t1.58.58q.58.57.58 1.62v1.26q0 1.04-.59 1.62-.58.58-1.57.58m0-.8q.59 0 .92-.33.34-.33.34-.97v-1.46q0-.64-.34-.97-.33-.33-.92-.33-.58 0-.92.33t-.34.97v1.46q0 .64.34.97t.92.33m4.116.72v-5.5h.9v1.05h.02q.07-.53.45-.84t1.02-.31q.86 0 1.32.52.47.51.47 1.46v.47h-.9v-.47q0-1.2-1.17-1.2-.59 0-.9.34t-.31.98v3.5zm6.656 1.8.81-2.14-2.05-5.16h.97l1.3 3.4q.081.2.15.42.07.22.1.38.03-.16.1-.38t.14-.42l1.21-3.4h.95l-2.74 7.3zm5.726-6.1-.08-3h1.02l-.07 3zm2.12 0-.08-3h1.02l-.07 3zm63.277 5.4v-.8h.45q.47 0 .74-.22.28-.21.21-.64l-.25-1.64q-.09-.57.2-.96.29-.4.8-.49-.51-.08-.8-.43t-.2-.92l.25-1.64q.07-.43-.21-.64-.27-.22-.74-.22h-.45v-.8h.45q.59 0 1.03.2.45.19.67.56.231.37.15.9l-.25 1.64q-.08.53.13.77.22.23.87.23h1.25v.8h-1.25q-.64 0-.86.24-.22.23-.14.76l.25 1.64q.081.52-.15.89-.22.38-.67.57a2.5 2.5 0 0 1-1.03.2z"/><path fill="#fbbf24" d="m208.447 246.7-.08-3h1.02l-.07 3zm2.12 0-.08-3h1.02l-.07 3zm5.366 4.4q-1.01 0-1.61-.58-.59-.59-.59-1.57v-3.2q0-.98.59-1.56.6-.59 1.61-.59t1.6.59q.6.58.6 1.56v3.2q0 .65-.27 1.14-.27.48-.77.75-.49.26-1.16.26m0-.77q.6 0 .96-.38.37-.39.37-1v-3.2q0-.61-.37-.99-.36-.39-.96-.39t-.97.39q-.36.38-.36.99v3.2q0 .61.36 1 .37.38.97.38m0-2.43a.64.64 0 0 1-.44-.15q-.16-.15-.16-.43 0-.27.16-.41a.64.64 0 0 1 .44-.15q.27 0 .43.15.17.14.17.41 0 .28-.17.43-.16.15-.43.15m5.996 3.2a.83.83 0 0 1-.6-.22.78.78 0 0 1-.22-.57q0-.37.22-.6a.82.82 0 0 1 .6-.23q.37 0 .59.23.23.23.23.6a.75.75 0 0 1-.23.57q-.22.22-.59.22m5.936 0q-1.01 0-1.6-.56-.59-.57-.59-1.54h.9q0 .6.35.95t.95.35.95-.35.35-.95v-.45q0-.6-.34-.95t-.92-.35h-1.99v-3.55h3.89v.82h-3.05l.02 1.91h1.18q1.011 0 1.56.56.55.55.55 1.56v.45q0 .97-.6 1.54-.59.56-1.61.56m4.566-4.4-.08-3h1.02l-.07 3zm2.12 0-.08-3h1.02l-.07 3zm75.83 0-.08-3h1.02l-.07 3zm2.12 0-.08-3h1.02l-.07 3zm3.266 4.3v-.82h1.98v-5.7l-1.98 1.48v-1.03l1.65-1.23h1.23v6.48h1.62v.82zm8.096.1q-.37 0-.6-.22a.77.77 0 0 1-.22-.57q0-.37.22-.6a.8.8 0 0 1 .6-.23q.37 0 .59.23.23.23.23.6a.76.76 0 0 1-.23.57q-.22.22-.59.22m5.936 0q-1.01 0-1.6-.56-.59-.57-.59-1.54h.9q0 .6.35.95t.95.35.95-.35.35-.95v-.45q0-.6-.34-.95t-.92-.35h-1.99v-3.55h3.89v.82h-3.05l.02 1.91h1.18q1.01 0 1.56.56.55.55.55 1.56v.45q0 .97-.6 1.54-.59.56-1.61.56m6.096 0q-1 0-1.58-.56t-.58-1.54v-3.3q0-.98.58-1.54t1.58-.56q.98 0 1.56.57.58.56.58 1.53h-.9q0-.62-.33-.95-.32-.34-.91-.34t-.93.33q-.33.33-.33.95V249q0 .62.33.96.34.34.93.34t.91-.34q.33-.34.33-.96v-1h-1.48v-.82h2.38V249q0 .97-.58 1.54-.58.56-1.56.56m3.806-.1v-.82h1.95v-3.86h-1.75v-.82h2.65v4.68h1.85v.82zm2.3-6.49q-.33 0-.52-.17a.59.59 0 0 1-.19-.46q0-.3.19-.47.19-.18.52-.18t.52.18q.19.17.19.47a.59.59 0 0 1-.19.46q-.19.17-.52.17m4.356 2.19-.08-3h1.02l-.07 3zm2.12 0-.08-3h1.02l-.07 3z"/><path fill="#a78bfa" d="m76.51 264.7-.08-3h1.02l-.07 3zm2.12 0-.08-3h1.02l-.07 3zm3.576 4.3-.9-5.5h.78l.56 3.88q.03.22.06.49a8 8 0 0 1 .04.43q.02-.17.04-.43.03-.27.07-.49l.69-3.88h.9l.69 3.88q.04.22.07.49.04.26.05.43l.05-.43q.03-.27.06-.49l.58-3.88h.74l-.94 5.5h-.99l-.63-3.8a44 44 0 0 1-.08-.59q-.03-.32-.05-.49a8 8 0 0 1-.05.49 12 12 0 0 1-.09.59l-.66 3.8zm7.306.1q-.85 0-1.35-.47-.5-.48-.5-1.25 0-.51.23-.89t.64-.59q.41-.22.94-.22h1.7v-.43q0-1.07-1.17-1.07-.519 0-.84.19t-.34.53h-.9q.051-.65.6-1.07.56-.43 1.48-.43 1 0 1.53.48.54.48.54 1.34V269h-.89v-1h-.02q-.08.51-.51.81-.43.29-1.14.29m.22-.76q.66 0 1.05-.32t.39-.87v-.77h-1.6q-.44 0-.72.27-.27.26-.27.7 0 .46.3.73.31.26.85.26m6.036.74q-.92 0-1.43-.41-.5-.42-.5-1.18h.9q0 .38.27.6.27.21.76.21h.44q.5 0 .77-.22.28-.22.28-.62 0-.71-.65-.8l-1.52-.22q-.56-.08-.87-.46-.31-.39-.31-1.02 0-.72.49-1.13.5-.41 1.37-.41h.44q.8 0 1.3.4.51.39.55 1.03h-.91a.63.63 0 0 0-.28-.48q-.249-.19-.66-.19h-.44q-.459 0-.72.21a.7.7 0 0 0-.26.57q0 .58.53.66l1.42.2q1.4.2 1.4 1.64 0 .77-.51 1.2-.5.42-1.42.42zm6.766-.08q-.68 0-1.09-.39-.41-.4-.41-1.06v-3.23h-1.58v-.82h1.58v-1.55h.9v1.55h2.25v.82h-2.25v3.23q0 .28.16.46.17.17.44.17h1.6v.82zm5.446.1q-.97 0-1.57-.58-.59-.59-.59-1.62v-1.3q0-1.03.59-1.61.6-.59 1.57-.59.65 0 1.13.26.49.26.76.73t.27 1.11v.98h-3.44v.52q0 .61.35.97.351.35.93.35.5 0 .82-.19.33-.2.4-.53h.9a1.54 1.54 0 0 1-.67 1.1q-.58.4-1.45.4m-1.28-3.32h2.56v-.28q0-.65-.34-1-.33-.36-.94-.36t-.95.36q-.33.35-.33 1zm4.877 4.22v-.75h4.8v.75zm5.996-1v-5.5h.78v.73h.02a.98.98 0 0 1 .29-.6.9.9 0 0 1 .63-.23q.36 0 .61.21.249.21.36.57h.01q.07-.36.31-.57a.94.94 0 0 1 .63-.21q.53 0 .84.4.32.39.32 1.02V269h-.84v-4.19q0-.33-.16-.52a.54.54 0 0 0-.44-.2.53.53 0 0 0-.43.19q-.16.19-.16.52v4.2h-.74v-4.19q0-.33-.16-.52a.52.52 0 0 0-.43-.2.54.54 0 0 0-.44.19q-.16.19-.16.52v4.2zm8.396.08q-.99 0-1.58-.58-.58-.58-.58-1.62v-1.26q0-1.05.58-1.62.58-.58 1.58-.58t1.58.58q.58.57.58 1.62v1.26q0 1.04-.59 1.62-.58.58-1.57.58m0-.8q.59 0 .92-.33.34-.33.34-.97v-1.46q0-.64-.34-.97-.33-.33-.92-.33-.58 0-.92.33t-.34.97v1.46q0 .64.34.97t.92.33m3.916.72v-5.5h.9v1.05h.01q.07-.55.45-.85t1.01-.3q.83 0 1.32.51t.49 1.39v3.7h-.9v-3.54q0-.63-.32-.96-.31-.34-.85-.34-.56 0-.89.35-.32.35-.32.99v3.5zm8.626 0q-.68 0-1.09-.39-.41-.4-.41-1.06v-3.23h-1.58v-.82h1.58v-1.55h.9v1.55h2.25v.82h-2.25v3.23q0 .28.16.46.17.17.44.17h1.6v.82zm3.366 0v-7.3h.9v2.85h.01q.07-.55.45-.85t1.01-.3q.83 0 1.32.51t.49 1.39v3.7h-.9v-3.55q0-.62-.32-.95-.31-.34-.85-.34-.56 0-.89.35-.32.35-.32.99v3.5zm8.876 0q-.73 0-1.17-.42-.43-.43-.43-1.13v-4.93h-1.9v-.82h2.8v5.75q0 .34.19.54.19.19.51.19h1.7v.82zm3.976 1.8.81-2.14-2.05-5.16h.97l1.3 3.4q.081.2.15.42.07.22.1.38.03-.16.1-.38t.14-.42l1.21-3.4h.95l-2.74 7.3zm5.726-6.1-.08-3h1.02l-.07 3zm2.12 0-.08-3h1.02l-.07 3z"/><path fill="#e4e4e7" d="M167.98 264.88q-.41 0-.62-.2t-.21-.54.21-.54.62-.2.62.2.21.54-.21.54-.62.2m0 4.22q-.41 0-.62-.2t-.21-.54.21-.54.62-.2.62.2.21.54-.21.54-.62.2m35.077 1.5.55-3.06h1.08l-.7 3.06z"/><path fill="#fbbf24" d="M179.862 269.1q-1.01 0-1.6-.56-.59-.57-.59-1.54h.9q0 .6.35.95t.95.35.95-.35.35-.95v-.5q0-.6-.35-.95t-.95-.35h-.79v-.78l1.79-1.9h-3v-.82h4.02v.84l-1.76 1.87q.9.07 1.42.63.52.55.52 1.46v.5q0 .97-.6 1.54-.59.56-1.61.56m6.046 0q-1.01 0-1.6-.56-.59-.57-.59-1.54h.9q0 .6.35.95t.95.35.95-.35.35-.95v-.45q0-.6-.34-.95t-.92-.35h-1.99v-3.55h3.89v.82h-3.05l.02 1.91h1.18q1.011 0 1.56.56.55.55.55 1.56v.45q0 .97-.6 1.54-.59.56-1.61.56m3.956-.1v-.82h1.98v-5.7l-1.98 1.48v-1.03l1.65-1.23h1.23v6.48h1.62v.82zm9.096 0v-1.6h-3.3v-1.41l2.66-4.29h1.02l-2.78 4.49v.39h2.4v-1.78h.9v4.2z"/><path fill="#a78bfa" d="m76.51 282.7-.08-3h1.02l-.07 3zm2.12 0-.08-3h1.02l-.07 3zm5.446 4.4q-1 0-1.6-.56t-.6-1.54v-1.5q0-.98.6-1.54t1.6-.56q.95 0 1.53.51.59.51.62 1.39h-.9q-.03-.53-.36-.81-.33-.29-.89-.29-.59 0-.95.34-.35.33-.35.95V285q0 .62.35.96.36.34.95.34.56 0 .89-.29t.36-.81h.9q-.03.88-.62 1.39-.58.51-1.53.51m5.906 0q-.95 0-1.52-.56-.57-.57-.57-1.54v-3.5h.9v3.5q0 .6.32.96.321.35.87.35.56 0 .88-.35.33-.36.33-.96v-3.5h.9v3.5q0 .97-.58 1.54-.58.56-1.53.56m4.126-.1v-5.5h.9v1.05h.02q.07-.53.45-.84.381-.31 1.02-.31.861 0 1.32.52.47.51.47 1.46v.47h-.9v-.47q0-1.2-1.17-1.2-.59 0-.9.34t-.31.98v3.5zm5.996 0v-5.5h.9v1.05h.02q.07-.53.45-.84.381-.31 1.02-.31.861 0 1.32.52.47.51.47 1.46v.47h-.9v-.47q0-1.2-1.17-1.2-.59 0-.9.34t-.31.98v3.5zm7.876.1q-.97 0-1.57-.58-.59-.59-.59-1.62v-1.3q0-1.03.59-1.61.6-.59 1.57-.59.65 0 1.13.26.49.26.76.73t.27 1.11v.98h-3.44v.52q0 .61.35.97.351.35.93.35.5 0 .82-.19.33-.2.4-.53h.9a1.54 1.54 0 0 1-.67 1.1q-.58.4-1.45.4m-1.28-3.32h2.56v-.28q0-.65-.34-1-.33-.36-.94-.36t-.95.36q-.33.35-.33 1zm5.197 3.22v-5.5h.9v1.05h.01q.069-.55.45-.85.38-.3 1.01-.3.83 0 1.32.51t.49 1.39v3.7h-.9v-3.54q0-.63-.32-.96-.31-.34-.85-.34-.56 0-.89.35-.32.35-.32.99v3.5zm8.156.1q-1 0-1.6-.56t-.6-1.54v-1.5q0-.98.6-1.54t1.6-.56q.95 0 1.53.51.59.51.62 1.39h-.9q-.03-.53-.36-.81-.33-.29-.89-.29-.59 0-.95.34-.35.33-.35.95V285q0 .62.35.96.36.34.95.34.56 0 .89-.29t.36-.81h.9q-.03.88-.62 1.39-.58.51-1.53.51m4.696 1.7.81-2.14-2.05-5.16h.97l1.3 3.4a6 6 0 0 1 .15.42q.07.22.1.38a3 3 0 0 1 .1-.38q.07-.22.14-.42l1.21-3.4h.95l-2.74 7.3zm5.726-6.1-.08-3h1.02l-.07 3zm2.12 0-.08-3h1.02l-.07 3z"/><path fill="#e4e4e7" d="M137.99 282.88q-.41 0-.62-.2t-.21-.54.21-.54.62-.2.62.2.21.54-.21.54-.62.2m0 4.22q-.41 0-.62-.2t-.21-.54.21-.54.62-.2.62.2.21.54-.21.54-.62.2"/><path fill="#34d399" d="m148.492 282.7-.08-3h1.02l-.07 3zm2.12 0-.08-3h1.02l-.07 3zm3.416 4.3v-.82h1.49v-5.66h-1.49v-.82h3.9v.82h-1.49v5.66h1.49v.82zm5.846 0v-7.3h1.2l2.23 6.25-.05-.61-.04-.77q-.01-.41-.01-.77v-4.1h.87v7.3h-1.2l-2.22-6.25q.02.24.04.61.021.36.03.77.02.4.02.77v4.1zm6.026 0v-7.3h2.25q.651 0 1.14.27.49.26.76.73t.27 1.1q0 .74-.38 1.27t-1.01.74l1.49 3.19h-.99l-1.43-3.1h-1.21v3.1zm.89-3.91h1.36q.561 0 .9-.35.34-.36.34-.94 0-.59-.34-.94-.339-.35-.9-.35h-1.36zm5.687-.39-.08-3h1.02l-.07 3zm2.12 0-.08-3h1.02l-.07 3z"/><path fill="#e4e4e7" d="M117 336.96q-.41 0-.62-.2t-.21-.54.21-.54.62-.2.62.2.21.54-.21.54-.62.2m0 4.22q-.41 0-.62-.2t-.21-.54.21-.54.62-.2.62.2.21.54-.21.54-.62.2m11.042 1v-9.4h2.45v.8h-1.55v7.8h1.55v.8zm191.325 0v-.8h1.55v-7.8h-1.55v-.8h2.45v9.4z"/><path fill="#34d399" d="m133.498 336.78-.08-3h1.02l-.07 3zm2.12 0-.08-3h1.02l-.07 3zm5.146 4.38q-.92 0-1.43-.41-.5-.42-.5-1.18h.9q0 .38.27.6.27.21.76.21h.44q.5 0 .77-.22.28-.22.28-.62 0-.71-.65-.8l-1.52-.22q-.56-.08-.87-.46-.31-.39-.31-1.02 0-.72.49-1.13.5-.41 1.37-.41h.44q.8 0 1.3.4.51.39.55 1.03h-.91a.63.63 0 0 0-.28-.48q-.249-.19-.66-.19h-.44q-.459 0-.72.21a.7.7 0 0 0-.26.57q0 .58.53.66l1.42.2q1.4.2 1.4 1.64 0 .77-.51 1.2-.5.42-1.42.42zm6.766-.08q-.68 0-1.09-.39-.41-.4-.41-1.06v-3.23h-1.58v-.82h1.58v-1.55h.9v1.55h2.25v.82h-2.25v3.23q0 .28.16.46.17.17.44.17h1.6v.82zm5.127.1q-.82 0-1.32-.55-.49-.55-.49-1.49v-1.61q0-.95.49-1.5.489-.55 1.32-.55.62 0 1.02.31.41.31.49.84h.01l-.02-1.25v-1.6h.9v7.3h-.9v-1.05h-.01q-.07.54-.47.85-.4.3-1.02.3m.3-.78q.56 0 .88-.35t.32-.97v-1.5q0-.62-.32-.97t-.88-.35q-.57 0-.89.3-.32.29-.32.97v1.6q0 .67.32.97t.89.3m6.016.76q-.99 0-1.58-.58-.58-.58-.58-1.62v-1.26q0-1.05.58-1.62.58-.58 1.58-.58t1.58.58q.58.57.58 1.62v1.26q0 1.04-.59 1.62-.58.58-1.57.58m0-.8q.59 0 .92-.33.34-.33.34-.97v-1.46q0-.64-.34-.97-.33-.33-.92-.33-.58 0-.92.33t-.34.97v1.46q0 .64.34.97t.92.33m5.986.82q-.95 0-1.52-.56-.57-.57-.57-1.54v-3.5h.9v3.5q0 .6.32.96.32.35.87.35.56 0 .88-.35.33-.36.33-.96v-3.5h.9v3.5q0 .97-.58 1.54-.58.56-1.53.56m6.556-.1q-.68 0-1.09-.39-.41-.4-.41-1.06v-3.23h-1.58v-.82h1.58v-1.55h.9v1.55h2.25v.82h-2.25v3.23q0 .28.16.46.17.17.44.17h1.6v.82zm3.956-4.3-.08-3h1.02l-.07 3zm2.12 0-.08-3h1.02l-.07 3zm4.466 5.9.55-3.06h1.08l-.7 3.06zm11.402-5.9-.08-3h1.02l-.07 3zm2.12 0-.08-3h1.02l-.07 3zm3.286 6.1v-7.3h.9v1.05h.01q.07-.54.47-.84.4-.31 1.02-.31.831 0 1.32.55.49.54.49 1.49v1.61q0 .95-.49 1.5-.489.55-1.32.55-.62 0-1.02-.31a1.23 1.23 0 0 1-.47-.84h-.03l.02 1.25v1.6zm2.1-2.48q.57 0 .89-.3t.32-.97v-1.6q0-.68-.32-.97-.32-.3-.89-.3-.55 0-.88.35-.32.35-.32.97v1.5q0 .62.32.97.33.35.88.35m4.096.68v-5.5h.9v1.05h.02q.07-.53.45-.84.381-.31 1.02-.31.861 0 1.32.52.47.51.47 1.46v.47h-.9v-.47q0-1.2-1.17-1.2-.59 0-.9.34t-.31.98v3.5zm7.877.08q-.99 0-1.58-.58-.58-.58-.58-1.62v-1.26q0-1.05.58-1.62.58-.58 1.58-.58t1.58.58q.58.57.58 1.62v1.26q0 1.04-.59 1.62-.58.58-1.57.58m0-.8q.59 0 .92-.33.34-.33.34-.97v-1.46q0-.64-.34-.97-.33-.33-.92-.33-.58 0-.92.33t-.34.97v1.46q0 .64.34.97t.92.33m3.596.72v-5.5h.78v.73h.02a.98.98 0 0 1 .29-.6.9.9 0 0 1 .63-.23q.36 0 .61.21.249.21.36.57h.01q.07-.36.31-.57a.94.94 0 0 1 .63-.21q.53 0 .84.4.32.39.32 1.02v4.18h-.84v-4.19q0-.33-.16-.52a.54.54 0 0 0-.44-.2.53.53 0 0 0-.43.19q-.16.19-.16.52v4.2h-.74v-4.19q0-.33-.16-.52a.52.52 0 0 0-.43-.2.54.54 0 0 0-.44.19q-.16.19-.16.52v4.2zm8.396.1q-.97 0-1.57-.58-.59-.59-.59-1.62v-1.3q0-1.03.59-1.61.6-.59 1.57-.59.65 0 1.13.26.49.26.76.73t.27 1.11v.98h-3.44v.52q0 .61.35.97.35.35.93.35.5 0 .82-.19.33-.2.4-.53h.9q-.09.69-.67 1.1-.58.4-1.45.4m-1.28-3.32h2.56v-.28q0-.65-.34-1-.33-.36-.94-.36t-.95.36q-.33.35-.33 1zm7.826 3.22q-.68 0-1.09-.39-.41-.4-.41-1.06v-3.23h-1.58v-.82h1.58v-1.55h.9v1.55h2.25v.82h-2.25v3.23q0 .28.16.46.17.17.44.17h1.6v.82zm3.366 0v-7.3h.9v2.85h.01q.07-.55.45-.85t1.01-.3q.83 0 1.32.51t.49 1.39v3.7h-.9v-3.55q0-.62-.32-.95-.31-.34-.85-.34-.56 0-.89.35-.32.35-.32.99v3.5zm8.076.1q-.97 0-1.57-.58-.59-.59-.59-1.62v-1.3q0-1.03.59-1.61.6-.59 1.57-.59.65 0 1.13.26.49.26.76.73t.27 1.11v.98h-3.44v.52q0 .61.35.97.35.35.93.35.5 0 .82-.19.33-.2.4-.53h.9a1.54 1.54 0 0 1-.67 1.1q-.58.4-1.45.4m-1.28-3.32h2.56v-.28q0-.65-.34-1-.33-.36-.94-.36t-.95.36q-.33.35-.33 1zm7.266 3.32q-.95 0-1.52-.56-.57-.57-.57-1.54v-3.5h.9v3.5q0 .6.32.96.32.35.87.35.56 0 .88-.35.33-.36.33-.96v-3.5h.9v3.5q0 .97-.58 1.54-.58.56-1.53.56m5.786-.02q-.92 0-1.43-.41-.5-.42-.5-1.18h.9q0 .38.27.6.27.21.76.21h.44q.5 0 .77-.22.28-.22.28-.62 0-.71-.65-.8l-1.52-.22q-.56-.08-.87-.46-.31-.39-.31-1.02 0-.72.49-1.13.5-.41 1.37-.41h.44q.8 0 1.3.4.51.39.55 1.03h-.91a.63.63 0 0 0-.28-.48q-.25-.19-.66-.19h-.44q-.46 0-.72.21a.7.7 0 0 0-.26.57q0 .58.53.66l1.42.2q1.4.2 1.4 1.64 0 .77-.51 1.2-.5.42-1.42.42zm4.726-4.38-.08-3h1.02l-.07 3zm2.12 0-.08-3h1.02l-.07 3zm4.466 5.9.55-3.06h1.08l-.7 3.06zm11.403-5.9-.08-3h1.02l-.07 3zm2.12 0-.08-3h1.02l-.07 3zm5.146 4.38q-.92 0-1.43-.41-.5-.42-.5-1.18h.9q0 .38.27.6.27.21.76.21h.44q.5 0 .77-.22.28-.22.28-.62 0-.71-.65-.8l-1.52-.22q-.561-.08-.87-.46-.31-.39-.31-1.02 0-.72.49-1.13.5-.41 1.37-.41h.44q.8 0 1.3.4.51.39.55 1.03h-.91a.64.64 0 0 0-.28-.48q-.25-.19-.66-.19h-.44q-.46 0-.72.21a.7.7 0 0 0-.26.57q0 .58.53.66l1.42.2q1.4.2 1.4 1.64 0 .77-.51 1.2-.5.42-1.42.42zm7.016-.08q-.73 0-1.17-.42-.43-.43-.43-1.13v-4.93h-1.9v-.82h2.8v5.75q0 .34.19.54.189.19.51.19h1.7v.82zm4.716.1q-.85 0-1.35-.47-.5-.48-.5-1.25 0-.51.23-.89a1.56 1.56 0 0 1 .64-.59 1.95 1.95 0 0 1 .94-.22h1.7v-.43q0-1.07-1.17-1.07-.52 0-.84.19t-.34.53h-.9q.05-.65.6-1.07.56-.43 1.48-.43.999 0 1.53.48.54.48.54 1.34v3.78h-.89v-1h-.02q-.081.51-.51.81-.43.29-1.14.29m.22-.76q.66 0 1.05-.32t.39-.87v-.77h-1.6q-.441 0-.72.27-.27.26-.27.7 0 .46.3.73.31.26.85.26m6.336.76q-1 0-1.6-.56t-.6-1.54v-1.5q0-.98.6-1.54t1.6-.56q.95 0 1.53.51.59.51.62 1.39h-.9q-.03-.53-.36-.81-.33-.29-.89-.29-.59 0-.95.34-.35.33-.35.95v1.51q0 .62.35.96.36.34.95.34.56 0 .89-.29t.36-.81h.9q-.03.88-.62 1.39-.58.51-1.53.51m3.886-.1v-7.3h.9v4.07h1.05l1.54-2.27h1.03l-1.77 2.62 1.87 2.88h-1.05l-1.6-2.45h-1.07v2.45zm6.536-4.3-.08-3h1.02l-.07 3zm2.12 0-.08-3h1.02l-.07 3z"/><path fill="#a78bfa" d="M67.95 306.1v-.8h.45q.47 0 .74-.22.28-.21.21-.64l-.25-1.64q-.09-.57.2-.96.29-.4.8-.49-.51-.08-.8-.43t-.2-.92l.25-1.64q.07-.43-.21-.64-.27-.22-.74-.22h-.45v-.8h.45q.59 0 1.03.2.45.19.67.56.23.37.15.9L70 300q-.08.53.13.77.22.23.87.23h1.25v.8H71q-.64 0-.86.24-.22.23-.14.76l.25 1.64q.08.52-.15.89-.22.38-.67.57-.44.2-1.03.2zm-20 49.08v-.8h.45q.47 0 .74-.22.28-.21.21-.64l-.25-1.64q-.09-.57.2-.96.29-.4.8-.49-.51-.08-.8-.43t-.2-.92l.25-1.64q.07-.43-.21-.64-.27-.22-.74-.22h-.45v-.8h.45q.59 0 1.03.2.45.19.67.56.23.37.15.9l-.25 1.64q-.08.53.13.77.22.23.87.23h1.25v.8H51q-.64 0-.86.24-.22.23-.14.76l.25 1.64q.08.52-.15.89-.22.38-.67.57-.44.2-1.03.2z"/><path fill="#e4e4e7" d="M60.5 324.1v-.8h1.55v-7.8H60.5v-.8h2.45v9.4zm6.596.5.55-3.06h1.08l-.7 3.06z"/><path fill="#a78bfa" d="m60.51 336.7-.08-3h1.02l-.07 3zm2.12 0-.08-3h1.02l-.07 3zm5.366 4.38q-.99 0-1.58-.58-.58-.58-.58-1.62v-1.26q0-1.05.58-1.62.58-.58 1.58-.58t1.58.58q.58.57.58 1.62v1.26q0 1.04-.59 1.62-.58.58-1.57.58m0-.8q.59 0 .92-.33.34-.33.34-.97v-1.46q0-.64-.34-.97-.33-.33-.92-.33-.58 0-.92.33t-.34.97v1.46q0 .64.34.97t.92.33m5.986.82q-.95 0-1.52-.56-.57-.57-.57-1.54v-3.5h.9v3.5q0 .6.32.96.321.35.87.35.56 0 .88-.35.33-.36.33-.96v-3.5h.9v3.5q0 .97-.58 1.54-.58.56-1.53.56m6.556-.1q-.68 0-1.09-.39-.41-.4-.41-1.06v-3.23h-1.58v-.82h1.58v-1.55h.9v1.55h2.25v.82h-2.25v3.23q0 .28.16.46.17.17.44.17h1.6v.82zm3.366 1.8v-7.3h.9v1.05h.01q.07-.54.47-.84.4-.31 1.02-.31.831 0 1.32.55.49.54.49 1.49v1.61q0 .95-.49 1.5-.489.55-1.32.55-.62 0-1.02-.31a1.22 1.22 0 0 1-.47-.84h-.03l.02 1.25v1.6zm2.1-2.48q.57 0 .89-.3t.32-.97v-1.6q0-.68-.32-.97-.32-.3-.89-.3-.55 0-.88.35-.32.35-.32.97v1.5q0 .62.32.97.33.35.88.35m5.966.78q-.95 0-1.52-.56-.57-.57-.57-1.54v-3.5h.9v3.5q0 .6.32.96.321.35.87.35.56 0 .88-.35.33-.36.33-.96v-3.5h.9v3.5q0 .97-.58 1.54-.579.56-1.53.56m6.557-.1q-.68 0-1.09-.39-.41-.4-.41-1.06v-3.23h-1.58v-.82h1.58v-1.55h.9v1.55h2.25v.82h-2.25v3.23q0 .28.16.46.17.17.44.17h1.6v.82zm5.226.08q-.92 0-1.43-.41-.5-.42-.5-1.18h.9q0 .38.27.6.27.21.76.21h.44q.5 0 .77-.22.28-.22.28-.62 0-.71-.65-.8l-1.52-.22q-.561-.08-.87-.46-.31-.39-.31-1.02 0-.72.49-1.13.5-.41 1.37-.41h.44q.8 0 1.3.4.51.39.55 1.03h-.91a.64.64 0 0 0-.28-.48q-.25-.19-.66-.19h-.44q-.46 0-.72.21a.7.7 0 0 0-.26.57q0 .58.53.66l1.42.2q1.4.2 1.4 1.64 0 .77-.51 1.2-.5.42-1.42.42zm4.726-4.38-.08-3h1.02l-.07 3zm2.12 0-.08-3h1.02l-.07 3z"/></g><defs><clipPath id="a"><rect width="378" height="378" fill="#fff" rx="6"/></clipPath></defs></svg>