<svg xmlns="http://www.w3.org/2000/svg" width="634" height="367" fill="none" viewBox="0 0 634 367"><mask id="a" fill="#fff"><path d="M0 9.084a9 9 0 0 1 9-9h616a9 9 0 0 1 9 9v15.819H0z"/></mask><path fill="#1b1913" d="M0 9.084a9 9 0 0 1 9-9h616a9 9 0 0 1 9 9v15.819H0z"/><path fill="#fff" fill-opacity=".06" d="M0 .084h634zm634 25.819H0v-2h634zm-634-1V.084zM634 .084v24.819z" mask="url(#a)"/><path fill="#edecec" fill-opacity=".2" d="M8 11.994a5 5 0 1 1 10 0 5 5 0 0 1-10 0m16 0a5 5 0 1 1 10 0 5 5 0 0 1-10 0m16 0a5 5 0 1 1 10 0 5 5 0 0 1-10 0"/><g clip-path="url(#b)"><path fill="#14120b" d="M0 25.085h634v334.999a6 6 0 0 1-6 6H6a6 6 0 0 1-6-6z"/><mask id="c" fill="#fff"><path d="M20 49.085a4 4 0 0 1 4-4h587a4 4 0 0 1 4 4v293.999a4 4 0 0 1-4 4H24a4 4 0 0 1-4-4z"/></mask><path fill="#1b1913" d="M20 49.085a4 4 0 0 1 4-4h587a4 4 0 0 1 4 4v293.999a4 4 0 0 1-4 4H24a4 4 0 0 1-4-4z"/><path fill="#edecec" fill-opacity=".06" d="M24 45.085v.64h587v-1.28H24zm591 4h-.64v293.999h1.28v-294zm-4 297.999v-.64H24v1.28h587zm-591-4h.64v-294h-1.28v294zm4 4v-.64a3.36 3.36 0 0 1-3.36-3.36h-1.28a4.64 4.64 0 0 0 4.64 4.64zm591-4h-.64a3.36 3.36 0 0 1-3.36 3.36v1.28a4.64 4.64 0 0 0 4.64-4.64zm-4-298v.64a3.36 3.36 0 0 1 3.36 3.36h1.28a4.64 4.64 0 0 0-4.64-4.64zm-587 0v-.64a4.64 4.64 0 0 0-4.64 4.64h1.28a3.36 3.36 0 0 1 3.36-3.36z" mask="url(#c)"/><mask id="d" fill="#fff"><path d="M20.64 45.725h593.72v30.76H20.64z"/></mask><path fill="#201e18" fill-opacity=".5" d="M20.64 45.725h593.72v30.76H20.64z"/><path fill="#edecec" fill-opacity=".1" d="M614.36 76.485v-.64H20.64v1.28h593.72z" mask="url(#d)"/><path fill="#fc0" d="M33.573 64.725V55.27h3.619q1.024 0 1.703.323.684.319 1.02.873.342.554.342 1.255 0 .577-.221.988-.222.407-.596.66-.375.254-.835.365v.093q.503.027.964.309.466.276.762.785.295.508.295 1.228 0 .734-.355 1.32-.355.582-1.071.919-.715.337-1.8.337zm1.712-1.431h1.842q.933 0 1.344-.356.415-.36.415-.923a1.41 1.41 0 0 0-.799-1.293 2 2 0 0 0-.914-.198h-1.888zm0-4.003h1.695q.442 0 .798-.162.355-.166.559-.466.207-.304.207-.72 0-.55-.387-.905-.384-.355-1.14-.355h-1.732zm8.798 5.577q-.675 0-1.214-.24a2 2 0 0 1-.85-.72q-.309-.476-.309-1.173 0-.6.222-.993.222-.392.605-.627a3 3 0 0 1 .863-.356 7 7 0 0 1 1.002-.18 39 39 0 0 0 1.01-.115q.39-.056.564-.167.18-.114.18-.355v-.028q0-.522-.31-.808t-.89-.286q-.614 0-.975.268a1.33 1.33 0 0 0-.48.632l-1.56-.221q.184-.647.61-1.08a2.65 2.65 0 0 1 1.038-.656q.615-.222 1.357-.222.513 0 1.02.12.509.12.928.397.42.273.675.744.258.47.258 1.177v4.746h-1.606v-.974h-.056a2 2 0 0 1-.43.554q-.27.254-.687.41a2.8 2.8 0 0 1-.965.153m.434-1.228q.502 0 .873-.199.369-.203.567-.535.203-.332.203-.725v-.836a.8.8 0 0 1-.267.12q-.185.056-.416.097-.23.042-.457.074l-.392.056q-.375.05-.67.166a1.1 1.1 0 0 0-.466.323.8.8 0 0 0-.17.526q0 .462.336.697.337.236.86.236m10.595-4.132-1.524.166a1.2 1.2 0 0 0-.226-.434 1.1 1.1 0 0 0-.425-.328 1.55 1.55 0 0 0-.655-.124q-.522 0-.877.226-.351.225-.346.586a.61.61 0 0 0 .226.503q.235.195.775.32l1.21.258q1.006.216 1.496.687.493.471.498 1.233-.005.669-.392 1.182-.384.507-1.067.794-.682.285-1.57.286-1.301 0-2.095-.545-.794-.549-.947-1.528l1.63-.157q.111.48.471.725t.937.245q.596 0 .956-.245.364-.245.364-.605a.63.63 0 0 0-.235-.503q-.231-.199-.72-.304l-1.21-.254q-1.02-.212-1.51-.716-.488-.507-.484-1.283a1.82 1.82 0 0 1 .355-1.136q.365-.484 1.011-.748.652-.267 1.5-.268 1.248 0 1.963.531.72.531.89 1.436m5.071-1.874v1.292h-4.076v-1.292zm-3.07-1.7h1.671v6.658q0 .336.102.517.105.175.277.24.171.065.378.065.157 0 .287-.024.134-.023.203-.041l.281 1.306q-.134.047-.383.102a3 3 0 0 1-.6.065 2.7 2.7 0 0 1-1.131-.19 1.76 1.76 0 0 1-.799-.655q-.29-.444-.286-1.108zm4.468 8.79v-7.09h1.67v7.09zm.84-8.097a.98.98 0 0 1-.683-.263.85.85 0 0 1-.287-.642q0-.378.287-.641a.97.97 0 0 1 .683-.268q.401 0 .683.268.286.264.286.641 0 .375-.286.642a.96.96 0 0 1-.683.263m5.642 8.236q-1.038 0-1.8-.457a3.1 3.1 0 0 1-1.182-1.279q-.415-.821-.415-1.92t.415-1.925q.42-.827 1.182-1.284t1.8-.457q1.04 0 1.8.457.763.457 1.178 1.284.42.825.42 1.925 0 1.099-.42 1.92-.416.822-1.177 1.28-.762.456-1.8.456m.01-1.339q.563 0 .941-.309.379-.315.564-.84.189-.526.189-1.173a3.5 3.5 0 0 0-.19-1.177 1.86 1.86 0 0 0-.563-.845q-.378-.314-.941-.314-.577 0-.96.314-.38.315-.568.845a3.5 3.5 0 0 0-.185 1.177q0 .646.185 1.173.189.525.567.84.384.31.96.31m6.478-2.954v4.155h-1.672v-7.091h1.598v1.205h.083q.245-.596.78-.947.54-.35 1.334-.35.735 0 1.279.313.55.315.85.91.305.595.3 1.445v4.515H77.43v-4.257q0-.711-.369-1.112-.365-.402-1.01-.402-.44 0-.781.194-.337.19-.531.55-.19.36-.19.872"/><path fill="#ececec" d="m87.885 54.827-3.047 11.32h-1.463l3.047-11.32z"/><path fill="#edecec" d="M92.176 64.725v-7.091h1.62v1.181h.075q.193-.613.664-.946a1.83 1.83 0 0 1 1.085-.337q.14 0 .31.014.175.01.29.032v1.538a2 2 0 0 0-.337-.065 3 3 0 0 0-.438-.032 1.7 1.7 0 0 0-.822.198q-.36.195-.568.54t-.207.799v4.169zm5.155 0v-7.091H99v7.09zm.84-8.098a.98.98 0 0 1-.683-.263.85.85 0 0 1-.287-.642q0-.378.287-.641a.97.97 0 0 1 .683-.268q.401 0 .683.268.286.264.286.641 0 .375-.286.642a.96.96 0 0 1-.683.263m8.154 2.881-1.524.166a1.2 1.2 0 0 0-.226-.434 1.1 1.1 0 0 0-.425-.328 1.55 1.55 0 0 0-.655-.124q-.522 0-.877.226-.351.225-.347.586a.61.61 0 0 0 .227.503q.235.195.775.32l1.21.258q1.006.216 1.496.687.493.471.498 1.233a1.93 1.93 0 0 1-.392 1.182q-.384.507-1.067.794-.683.285-1.569.286-1.302 0-2.096-.545-.794-.549-.947-1.528l1.63-.157q.111.48.471.725t.937.245q.596 0 .956-.245.364-.245.364-.605a.63.63 0 0 0-.235-.503q-.231-.199-.72-.304l-1.21-.254q-1.02-.212-1.509-.716-.49-.507-.485-1.283a1.82 1.82 0 0 1 .355-1.136q.366-.484 1.011-.748.65-.267 1.501-.268 1.247 0 1.962.531.72.531.891 1.436m3.054 2.991-.005-2.017h.268l2.548-2.848h1.953l-3.135 3.49h-.346zm-1.524 2.226V55.27h1.671v9.455zm4.45 0-2.308-3.227 1.127-1.177 3.18 4.404zm6.894-4.626v1.376h-4.256v-1.376zm4.897 4.764q-1.067 0-1.842-.443a3 3 0 0 1-1.187-1.265q-.415-.822-.415-1.934 0-1.095.415-1.92a3.15 3.15 0 0 1 1.173-1.293q.753-.467 1.768-.467.656 0 1.237.213.587.207 1.034.646.453.438.711 1.117.26.675.259 1.607v.512h-5.812V60.51h4.21a1.8 1.8 0 0 0-.208-.854 1.5 1.5 0 0 0-.568-.596 1.6 1.6 0 0 0-.84-.217 1.63 1.63 0 0 0-.9.25q-.387.244-.605.646a1.9 1.9 0 0 0-.217.872v.984q0 .618.227 1.061.225.439.632.674.406.231.951.231.364 0 .66-.101a1.5 1.5 0 0 0 .513-.31q.216-.203.327-.503l1.561.176a2.44 2.44 0 0 1-.564 1.08 2.7 2.7 0 0 1-1.052.71q-.642.25-1.468.25m6.238-4.293v4.155h-1.671v-7.091h1.597v1.205h.083q.245-.596.78-.947.54-.35 1.334-.35.735 0 1.279.313.55.315.85.91.305.595.3 1.445v4.515h-1.671v-4.257q0-.711-.37-1.112-.364-.402-1.011-.402-.438 0-.78.194a1.34 1.34 0 0 0-.531.55q-.189.36-.189.872m9.334 6.961q-.9 0-1.546-.244-.646-.24-1.039-.647a2.25 2.25 0 0 1-.545-.9l1.505-.364q.102.207.296.41.194.209.522.342.332.138.835.138.71 0 1.177-.346.467-.342.467-1.126V63.45h-.084a2.4 2.4 0 0 1-.378.53q-.245.273-.651.457-.402.185-1.011.185a2.9 2.9 0 0 1-1.482-.383q-.66-.388-1.052-1.154-.388-.77-.388-1.93 0-1.169.388-1.971.392-.809 1.057-1.224.665-.42 1.482-.42.623 0 1.024.213.407.207.647.503.24.29.364.55h.093v-1.173h1.648v7.206q0 .91-.434 1.505a2.6 2.6 0 0 1-1.186.891q-.753.295-1.709.295m.014-4.219q.531 0 .905-.259.374-.258.568-.743.194-.484.194-1.163 0-.669-.194-1.173a1.67 1.67 0 0 0-.563-.78q-.37-.282-.91-.282-.558 0-.932.291-.375.29-.563.799-.19.503-.19 1.145 0 .651.19 1.14.194.485.567.757.38.268.928.268m5.028 1.413v-7.091h1.671v7.09zm.84-8.098a.97.97 0 0 1-.683-.263.85.85 0 0 1-.287-.642q0-.378.287-.641a.96.96 0 0 1 .683-.268q.401 0 .683.268.286.264.286.641 0 .375-.286.642a.96.96 0 0 1-.683.263m4.22 3.943v4.155h-1.671v-7.091h1.598v1.205h.083q.245-.596.78-.947.54-.35 1.334-.35.734 0 1.279.313.549.315.849.91.304.595.3 1.445v4.515h-1.671v-4.257q0-.711-.369-1.112-.364-.402-1.011-.402-.44 0-.78.194a1.34 1.34 0 0 0-.531.55q-.19.36-.19.872m9.39 4.293q-1.066 0-1.842-.443a3 3 0 0 1-1.186-1.265q-.416-.822-.416-1.934 0-1.095.416-1.92a3.14 3.14 0 0 1 1.173-1.293q.752-.467 1.768-.467.655 0 1.237.213a2.8 2.8 0 0 1 1.034.646q.453.438.711 1.117.258.675.258 1.607v.512h-5.812V60.51h4.21a1.8 1.8 0 0 0-.207-.854 1.5 1.5 0 0 0-.568-.596 1.6 1.6 0 0 0-.84-.217q-.513 0-.9.25a1.7 1.7 0 0 0-.605.646 1.85 1.85 0 0 0-.217.872v.984q0 .618.226 1.061.227.439.632.674.406.231.951.231.366 0 .661-.101.295-.106.512-.31.217-.203.328-.503l1.56.176a2.4 2.4 0 0 1-.563 1.08 2.75 2.75 0 0 1-1.053.71q-.641.25-1.468.25"/><path fill="#cf2d56" d="M532.219 57.085h.969v5.296a2.8 2.8 0 0 1-.387 1.465 2.7 2.7 0 0 1-1.082 1.012q-.699.367-1.641.367-.94 0-1.64-.367a2.7 2.7 0 0 1-1.086-1.012 2.8 2.8 0 0 1-.383-1.465v-5.297h.969v5.22q0 .585.257 1.042.258.453.735.715.48.258 1.148.258t1.149-.258q.48-.261.734-.715.258-.456.258-1.043zm3.7 4.39v3.61h-.922v-6h.891v.937h.078q.21-.458.64-.734.43-.282 1.11-.282.61 0 1.066.25.457.246.711.75.254.501.254 1.266v3.813h-.922v-3.75q0-.709-.367-1.102-.367-.399-1.008-.398a1.6 1.6 0 0 0-.789.19q-.344.193-.543.56-.2.366-.199.89m5.513 3.61v-6h.89v.906h.063q.163-.445.594-.723t.968-.277q.102 0 .254.004.153.003.231.011v.938a3 3 0 0 0-.215-.035 2 2 0 0 0-.348-.028 1.6 1.6 0 0 0-.781.184q-.34.18-.539.5a1.35 1.35 0 0 0-.195.723v3.797zm6.425.125q-.866 0-1.496-.383a2.6 2.6 0 0 1-.965-1.078q-.335-.696-.335-1.618 0-.921.335-1.625.34-.706.946-1.101.609-.399 1.422-.399.468 0 .925.157.457.156.832.507.376.349.598.922.223.575.223 1.414v.391h-4.625V61.6h3.687q0-.507-.203-.906a1.53 1.53 0 0 0-.57-.63 1.6 1.6 0 0 0-.867-.23q-.552 0-.953.274-.4.27-.614.703-.215.434-.215.93v.531q0 .68.235 1.152.239.47.66.715.422.243.98.242a2 2 0 0 0 .657-.101 1.4 1.4 0 0 0 .511-.313q.216-.21.332-.523l.891.25a2 2 0 0 1-.473.797 2.3 2.3 0 0 1-.82.531 3 3 0 0 1-1.098.188m5.653.015q-.57 0-1.035-.215a1.8 1.8 0 0 1-.739-.629q-.273-.414-.273-1 0-.515.203-.836.202-.324.543-.507.34-.184.75-.274a9 9 0 0 1 .832-.148q.547-.07.887-.106.344-.039.5-.129.16-.09.16-.312v-.031q0-.579-.317-.899-.312-.32-.949-.32-.66 0-1.035.289t-.527.617l-.875-.312q.234-.547.625-.852.394-.309.859-.43.47-.125.922-.125.29 0 .664.07.379.067.731.278.355.21.589.637.235.426.235 1.14v3.954h-.922v-.813h-.047q-.094.195-.312.418a1.8 1.8 0 0 1-.583.379q-.363.156-.886.156m.14-.828q.547 0 .922-.215a1.46 1.46 0 0 0 .766-1.27v-.843q-.058.07-.258.129-.195.055-.453.097a20 20 0 0 1-.883.118 3.5 3.5 0 0 0-.672.152q-.308.101-.5.309-.187.203-.187.554 0 .48.355.727.36.242.91.242m6.73.813q-.844 0-1.453-.399a2.6 2.6 0 0 1-.938-1.098q-.327-.699-.328-1.597 0-.914.336-1.614.34-.702.945-1.097.61-.399 1.422-.399.633 0 1.141.235.507.234.832.656t.402.984h-.922a1.43 1.43 0 0 0-.468-.726q-.36-.32-.969-.32-.54 0-.945.28a1.83 1.83 0 0 0-.629.786q-.223.504-.223 1.183 0 .696.219 1.211.222.516.625.801.406.285.953.285.359 0 .652-.125a1.34 1.34 0 0 0 .785-.922h.922a2.14 2.14 0 0 1-.386.957 2.2 2.2 0 0 1-.809.672q-.5.246-1.164.247m4.629-3.735v3.61h-.922v-8h.922v2.937h.078q.21-.465.633-.738.426-.278 1.133-.278.612 0 1.074.246.46.242.715.746.257.5.257 1.274v3.813h-.921v-3.75q0-.716-.372-1.106-.366-.395-1.019-.395-.453 0-.813.192a1.4 1.4 0 0 0-.562.558q-.203.367-.203.891m7.343 3.75a2.4 2.4 0 0 1-1.036-.215 1.8 1.8 0 0 1-.738-.629q-.273-.414-.273-1 0-.515.203-.836.203-.324.543-.507.339-.184.75-.274a9 9 0 0 1 .832-.148q.546-.07.887-.106.343-.039.5-.129.16-.09.16-.312v-.031q0-.579-.317-.899-.312-.32-.949-.32-.66 0-1.035.289t-.527.617l-.875-.312q.234-.547.625-.852.394-.309.859-.43.468-.125.922-.125.29 0 .664.07.378.067.73.278.356.21.59.637.235.426.235 1.14v3.954h-.922v-.813h-.047q-.094.195-.313.418t-.582.379-.886.156m.14-.828q.547 0 .922-.215.38-.215.57-.555.196-.339.196-.714v-.844q-.058.07-.258.129-.195.055-.453.097a21 21 0 0 1-.883.118q-.36.046-.672.152a1.16 1.16 0 0 0-.5.309q-.187.203-.187.554 0 .48.355.727.36.242.91.242m4.417.688v-8h.922v2.953h.078q.102-.157.281-.399.184-.246.524-.437.344-.195.93-.196.758 0 1.335.38.579.378.903 1.073t.324 1.641q0 .954-.324 1.652a2.56 2.56 0 0 1-.899 1.079 2.35 2.35 0 0 1-1.324.379q-.578 0-.926-.192a1.7 1.7 0 0 1-.535-.441 6 6 0 0 1-.289-.414h-.109v.922zm.906-3q0 .679.2 1.199.198.515.582.808.382.29.937.29.578 0 .965-.305.39-.309.586-.828.2-.524.199-1.165 0-.632-.195-1.14a1.77 1.77 0 0 0-.582-.809q-.387-.3-.973-.3-.563 0-.945.285a1.7 1.7 0 0 0-.578.789q-.196.504-.196 1.175m6.723-5v8h-.922v-8zm4.204 8.125q-.867 0-1.496-.383a2.57 2.57 0 0 1-.965-1.078q-.336-.696-.336-1.618 0-.921.336-1.625.34-.706.946-1.101.61-.399 1.421-.399.47 0 .926.157.457.156.832.507.375.349.598.922.223.575.223 1.414v.391h-4.625V61.6h3.687q0-.507-.203-.906a1.53 1.53 0 0 0-.57-.63 1.6 1.6 0 0 0-.868-.23q-.55 0-.953.274-.398.27-.613.703-.215.434-.215.93v.531q0 .68.235 1.152.237.47.66.715.422.243.98.242.363 0 .656-.101.297-.105.512-.313a1.4 1.4 0 0 0 .332-.523l.891.25a2 2 0 0 1-.473.797 2.3 2.3 0 0 1-.82.531 3 3 0 0 1-1.098.188"/><g clip-path="url(#e)"><mask id="l" fill="#fff"><path d="M32.64 92.484a4 4 0 0 1 4-4h561.72a4 4 0 0 1 4 4v236a4 4 0 0 1-4 4H36.64a4 4 0 0 1-4-4z"/></mask><mask id="f" fill="#fff"><path d="M33.28 89.125h568.44v27.3H33.28z"/></mask><path fill="#201e18" d="M33.28 89.125h568.44v27.3H33.28z"/><path fill="#edecec" fill-opacity=".1" d="M601.72 116.425v-.64H33.28v1.28h568.44z" mask="url(#f)"/><g clip-path="url(#g)"><path fill="#edecec" d="M44.065 106.125v-6h1.13v.953h.062q.164-.484.578-.762a1.65 1.65 0 0 1 .945-.281 5 5 0 0 1 .496.027v1.117a2 2 0 0 0-.25-.043 2.4 2.4 0 0 0-.36-.027q-.413 0-.737.176a1.3 1.3 0 0 0-.696 1.175v3.665zm6.593.121q-.886 0-1.527-.379a2.6 2.6 0 0 1-.985-1.075q-.343-.695-.343-1.628 0-.923.343-1.625.348-.703.969-1.098.626-.395 1.46-.395.51 0 .985.168.477.168.856.528.379.358.597.933.22.571.22 1.387v.414h-4.77v-.875h3.625q0-.46-.188-.816-.187-.36-.527-.567a1.47 1.47 0 0 0-.79-.207q-.491 0-.859.242-.364.239-.562.625-.195.384-.195.832v.684q0 .601.21 1.023.216.423.598.645.382.219.895.219.332 0 .605-.094a1.26 1.26 0 0 0 .777-.762l1.106.2q-.133.487-.477.855a2.3 2.3 0 0 1-.855.566q-.511.2-1.168.2m6.67-6.121v.937h-3.277v-.937zm-2.398-1.438h1.168v5.676q0 .34.102.512a.54.54 0 0 0 .262.23q.163.059.355.059.141 0 .246-.02l.164-.031.211.965a2.4 2.4 0 0 1-.758.125 2.1 2.1 0 0 1-.859-.164 1.5 1.5 0 0 1-.645-.532q-.245-.359-.246-.902zm7.492 4.949v-3.511h1.172v6h-1.149v-1.04h-.062q-.208.481-.665.801-.453.317-1.128.317-.579 0-1.024-.254a1.8 1.8 0 0 1-.695-.762q-.25-.504-.25-1.246v-3.816h1.168v3.675q0 .614.34.977.339.363.883.363.328 0 .652-.164.328-.164.543-.496.218-.332.215-.844m2.74 2.489v-6h1.13v.953h.062q.165-.484.578-.762a1.65 1.65 0 0 1 .946-.281 5 5 0 0 1 .496.027v1.117a2 2 0 0 0-.25-.043 2.4 2.4 0 0 0-.36-.027q-.414 0-.738.176a1.3 1.3 0 0 0-.695 1.175v3.665zm5.39-3.563v3.563h-1.168v-6h1.122v.976h.074q.207-.477.648-.766.445-.288 1.121-.289.614 0 1.075.258.46.254.714.758.255.504.254 1.246v3.817h-1.168v-3.676q0-.653-.34-1.02-.339-.37-.933-.371-.406 0-.723.176a1.26 1.26 0 0 0-.496.516q-.18.335-.18.812m5.407 3.563v-6h1.168v6zm.59-6.926a.74.74 0 0 1-.524-.203.66.66 0 0 1-.215-.493q0-.288.215-.492a.74.74 0 0 1 .524-.207q.304 0 .52.207.218.204.218.492 0 .285-.219.493a.73.73 0 0 1-.52.203m3.317 3.363v3.563h-1.168v-6h1.121v.976h.074q.208-.477.649-.766.445-.288 1.12-.289.615 0 1.075.258.461.254.715.758.255.504.254 1.246v3.817h-1.168v-3.676q0-.653-.34-1.02-.34-.37-.934-.371-.405 0-.722.176a1.26 1.26 0 0 0-.496.516q-.18.335-.18.812m7.922 5.938q-.715 0-1.23-.188a2.4 2.4 0 0 1-.837-.496 2.1 2.1 0 0 1-.484-.676l1.004-.414q.105.172.281.363.18.196.485.332.308.138.793.137.663 0 1.097-.324.435-.32.434-1.024v-1.179h-.074q-.105.19-.305.426-.195.234-.54.406-.343.172-.894.172-.71 0-1.28-.332a2.36 2.36 0 0 1-.9-.989q-.328-.656-.328-1.613t.325-1.641q.328-.683.898-1.046.57-.368 1.293-.368.559 0 .903.188.343.184.535.43.195.246.3.433h.086v-.972h1.145v6.132q0 .774-.36 1.27t-.972.734a3.8 3.8 0 0 1-1.375.239m-.012-3.434q.504 0 .852-.234.351-.239.53-.68.184-.445.184-1.067 0-.605-.18-1.066a1.6 1.6 0 0 0-.527-.719q-.347-.261-.859-.261-.526 0-.879.273-.351.27-.531.734-.176.466-.176 1.039 0 .59.18 1.036.18.444.531.695.356.25.875.25m8.364-2.504v3.563h-1.168v-6h1.122v.976h.074q.207-.477.648-.766.445-.288 1.121-.289.614 0 1.075.258.46.254.714.758.255.504.254 1.246v3.817h-1.168v-3.676q0-.653-.34-1.02-.339-.37-.933-.371-.406 0-.723.176a1.26 1.26 0 0 0-.496.516q-.18.335-.18.812m7.993 3.684q-.888 0-1.528-.379a2.6 2.6 0 0 1-.984-1.075q-.344-.695-.344-1.628 0-.923.344-1.625.348-.703.969-1.098.624-.395 1.461-.395.507 0 .984.168t.855.528q.38.358.598.933.219.571.219 1.387v.414h-4.77v-.875h3.625q0-.46-.187-.816a1.4 1.4 0 0 0-.528-.567 1.47 1.47 0 0 0-.789-.207q-.492 0-.859.242-.363.239-.563.625a1.8 1.8 0 0 0-.195.832v.684q0 .601.211 1.023.215.423.598.645.382.219.894.219.332 0 .606-.094.273-.097.472-.289a1.25 1.25 0 0 0 .305-.473l1.106.2q-.133.487-.477.855a2.3 2.3 0 0 1-.855.566q-.513.2-1.168.2m7.67-2.61v-3.511h1.172v6h-1.148v-1.04h-.063a1.86 1.86 0 0 1-.664.801q-.453.317-1.129.317-.578 0-1.023-.254a1.8 1.8 0 0 1-.695-.762q-.25-.504-.25-1.246v-3.816h1.168v3.675q0 .614.339.977.34.363.883.363a1.44 1.44 0 0 0 1.196-.66q.218-.332.214-.844m5.542-3.511v.937h-3.277v-.937zm-2.398-1.438h1.168v5.676q0 .34.102.512a.53.53 0 0 0 .261.23q.164.059.356.059.14 0 .246-.02l.164-.031.211.965a2.4 2.4 0 0 1-.758.125 2.1 2.1 0 0 1-.859-.164 1.5 1.5 0 0 1-.645-.532q-.246-.359-.246-.902zm3.69 7.438v-6h1.129v.953h.063a1.45 1.45 0 0 1 .578-.762q.419-.281.945-.281a5 5 0 0 1 .496.027v1.117a2 2 0 0 0-.25-.043 2.4 2.4 0 0 0-.359-.027q-.414 0-.738.176a1.3 1.3 0 0 0-.696 1.175v3.665zm5.915.132q-.57 0-1.032-.211a1.73 1.73 0 0 1-.73-.621q-.266-.407-.266-.996 0-.507.195-.836.196-.328.528-.519.332-.192.742-.289.41-.098.836-.149l.875-.101q.336-.044.488-.137.153-.094.153-.305v-.027q0-.512-.289-.793-.286-.281-.852-.281-.59 0-.93.261a1.4 1.4 0 0 0-.465.575l-1.097-.25q.195-.547.57-.883.38-.34.871-.492a3.4 3.4 0 0 1 1.035-.157q.36 0 .762.086.406.083.758.305.355.222.582.637.226.41.226 1.066v3.985h-1.14v-.821h-.047a1.7 1.7 0 0 1-.34.446 1.8 1.8 0 0 1-.582.363 2.3 2.3 0 0 1-.851.144m.253-.937q.484 0 .829-.192a1.34 1.34 0 0 0 .527-.5 1.3 1.3 0 0 0 .183-.668v-.773a.6.6 0 0 1-.242.117 4 4 0 0 1-.402.09q-.226.035-.441.066l-.36.047a3 3 0 0 0-.621.145 1.06 1.06 0 0 0-.445.293q-.165.187-.164.5 0 .434.32.656.321.219.816.219m5.431-7.195v8h-1.168v-8zm8.979 3.464-1.059.188a1.3 1.3 0 0 0-.211-.387 1.05 1.05 0 0 0-.383-.301 1.4 1.4 0 0 0-.605-.117q-.496 0-.828.223-.333.219-.332.566 0 .301.222.485.223.183.719.3l.953.219q.828.191 1.235.59.406.399.406 1.035 0 .54-.313.961-.308.418-.863.656-.55.239-1.277.239-1.008 0-1.645-.43-.636-.433-.781-1.231l1.129-.171q.106.441.433.668.328.222.856.222.575 0 .918-.238.344-.243.344-.59a.62.62 0 0 0-.211-.473q-.208-.191-.637-.289l-1.016-.222q-.84-.192-1.242-.61-.399-.417-.398-1.058 0-.531.297-.93a1.93 1.93 0 0 1 .82-.621 3 3 0 0 1 1.199-.227q.973 0 1.531.422.56.419.739 1.121m3.928 4.657q-.87 0-1.5-.395a2.6 2.6 0 0 1-.961-1.098q-.336-.7-.336-1.601 0-.915.344-1.613a2.63 2.63 0 0 1 .969-1.098q.625-.395 1.473-.395.683 0 1.218.254.535.25.864.703.331.454.394 1.059h-1.137a1.36 1.36 0 0 0-.429-.727q-.332-.304-.891-.304-.488 0-.855.258a1.65 1.65 0 0 0-.567.726q-.203.469-.203 1.11 0 .656.199 1.132.2.477.563.739.367.261.863.261.332 0 .602-.121.273-.125.457-.355.187-.231.261-.555h1.137a2.2 2.2 0 0 1-.379 1.039 2.2 2.2 0 0 1-.847.719q-.528.262-1.239.262m6.242 0q-.844 0-1.473-.387a2.6 2.6 0 0 1-.977-1.082q-.347-.695-.347-1.625 0-.934.347-1.633.348-.699.977-1.086t1.473-.387q.843 0 1.472.387t.977 1.086.347 1.633q0 .93-.347 1.625a2.6 2.6 0 0 1-.977 1.082q-.629.387-1.472.387m.003-.981q.547 0 .907-.289.358-.29.531-.769.176-.482.176-1.059 0-.574-.176-1.055a1.7 1.7 0 0 0-.531-.777q-.36-.293-.907-.293-.55 0-.914.293a1.75 1.75 0 0 0-.535.777 3.1 3.1 0 0 0-.172 1.055q0 .578.172 1.059.176.48.535.769.364.29.914.289m4.097.86v-6h1.129v.953h.063a1.45 1.45 0 0 1 .578-.762q.417-.281.945-.281a5 5 0 0 1 .496.027v1.117a2 2 0 0 0-.25-.043 2.4 2.4 0 0 0-.359-.027 1.5 1.5 0 0 0-.739.176 1.3 1.3 0 0 0-.507.48 1.3 1.3 0 0 0-.188.695v3.665zm6.593.121q-.886 0-1.527-.379a2.6 2.6 0 0 1-.985-1.075q-.344-.695-.344-1.628 0-.923.344-1.625.348-.703.969-1.098.626-.395 1.461-.395.508 0 .984.168.477.168.856.528.379.358.597.933.219.571.219 1.387v.414h-4.769v-.875h3.625q0-.46-.188-.816a1.42 1.42 0 0 0-1.316-.774q-.492 0-.86.242a1.63 1.63 0 0 0-.562.625q-.195.384-.196.832v.684q0 .601.211 1.023.216.423.598.645.382.219.895.219.332 0 .605-.094.273-.097.473-.289t.304-.473l1.106.2q-.133.487-.477.855a2.3 2.3 0 0 1-.855.566q-.512.2-1.168.2m7.551-2.844a.76.76 0 0 1-.551-.227.75.75 0 0 1-.231-.554q0-.32.231-.547a.75.75 0 0 1 .551-.231q.32 0 .55.231a.74.74 0 0 1 .231.547.75.75 0 0 1-.109.394.8.8 0 0 1-.282.281.74.74 0 0 1-.39.106m5.015 2.723v-6h1.371v1h.063q.164-.52.562-.801.404-.285.918-.285.118 0 .262.011.149.009.246.028v1.3a1.5 1.5 0 0 0-.285-.054 3 3 0 0 0-.371-.028q-.387 0-.695.168a1.23 1.23 0 0 0-.481.457 1.3 1.3 0 0 0-.176.676v3.528zm4.362 0v-6h1.414v6zm.711-6.852a.83.83 0 0 1-.579-.223.72.72 0 0 1-.242-.543q0-.32.242-.543a.82.82 0 0 1 .579-.226q.34 0 .578.226.242.223.242.543a.72.72 0 0 1-.242.543.82.82 0 0 1-.578.223m6.899 2.437-1.289.141q-.055-.195-.192-.367a.94.94 0 0 0-.359-.277 1.3 1.3 0 0 0-.555-.106q-.44 0-.742.191-.296.191-.293.497a.52.52 0 0 0 .192.425q.198.165.656.27l1.023.219q.852.183 1.266.582.418.398.422 1.043a1.63 1.63 0 0 1-.332 1q-.324.429-.903.672a3.4 3.4 0 0 1-1.328.242q-1.101 0-1.773-.461a1.85 1.85 0 0 1-.801-1.293l1.379-.133a.97.97 0 0 0 .398.613q.306.207.793.207.504 0 .809-.207.309-.207.309-.511a.53.53 0 0 0-.2-.426q-.195-.168-.609-.258l-1.023-.215q-.864-.18-1.278-.605-.414-.43-.41-1.086-.003-.555.301-.961.309-.411.855-.633a3.3 3.3 0 0 1 1.27-.227q1.054 0 1.66.45.61.449.754 1.214m2.584 2.532-.004-1.707h.227l2.156-2.41h1.652l-2.652 2.953h-.293zm-1.289 1.883v-8h1.414v8zm3.766 0-1.954-2.731.954-.996 2.691 3.727zm6.93 0v1.128h-5.168v-1.128zm5.454-4.415-1.289.141q-.054-.195-.191-.367a.95.95 0 0 0-.36-.277 1.3 1.3 0 0 0-.554-.106q-.442 0-.742.191-.297.191-.293.497a.52.52 0 0 0 .191.425q.2.165.656.27l1.024.219q.85.183 1.265.582.419.398.422 1.043a1.63 1.63 0 0 1-.332 1q-.324.429-.902.672a3.4 3.4 0 0 1-1.328.242q-1.102 0-1.774-.461a1.85 1.85 0 0 1-.801-1.293l1.379-.133a.97.97 0 0 0 .399.613q.304.207.793.207.504 0 .808-.207.309-.207.309-.511a.53.53 0 0 0-.199-.426q-.196-.168-.61-.258l-1.023-.215q-.863-.18-1.277-.605-.414-.43-.411-1.086-.003-.555.301-.961.309-.411.856-.633.55-.227 1.269-.227 1.055 0 1.66.45.61.449.754 1.214m3.912 4.532q-.898 0-1.543-.395a2.63 2.63 0 0 1-.988-1.09q-.344-.699-.344-1.609 0-.914.352-1.613.351-.704.992-1.094.645-.395 1.524-.395.73 0 1.293.27.566.265.902.754.336.484.383 1.133h-1.352a1.3 1.3 0 0 0-.39-.723q-.306-.293-.817-.293a1.28 1.28 0 0 0-.762.234 1.5 1.5 0 0 0-.511.664q-.18.434-.18 1.04 0 .613.18 1.054.178.438.504.676.327.234.769.234.313 0 .559-.117a1.1 1.1 0 0 0 .418-.347q.167-.228.23-.551h1.352a2.36 2.36 0 0 1-.375 1.129q-.324.487-.883.765-.559.274-1.313.274m6.349 0q-.88 0-1.523-.387a2.63 2.63 0 0 1-1-1.082q-.352-.695-.352-1.625t.352-1.629a2.6 2.6 0 0 1 1-1.086q.644-.387 1.523-.387.88 0 1.523.387.645.387.997 1.086.355.699.355 1.629t-.355 1.625a2.6 2.6 0 0 1-.997 1.082q-.644.387-1.523.387m.008-1.133q.477 0 .797-.262.32-.265.476-.711.16-.445.16-.992 0-.55-.16-.996a1.6 1.6 0 0 0-.476-.715 1.2 1.2 0 0 0-.797-.266q-.489 0-.813.266a1.6 1.6 0 0 0-.48.715 3 3 0 0 0-.156.996q0 .547.156.992.16.446.48.711.324.262.813.262m4.067 1.016v-6h1.371v1h.063q.164-.52.562-.801.403-.285.918-.285.118 0 .262.011.148.009.246.028v1.3a1.5 1.5 0 0 0-.285-.054 3 3 0 0 0-.371-.028q-.387 0-.695.168a1.23 1.23 0 0 0-.481.457 1.3 1.3 0 0 0-.176.676v3.528zm6.771.117q-.903 0-1.559-.375a2.55 2.55 0 0 1-1.004-1.071q-.351-.695-.351-1.636 0-.927.351-1.625.356-.704.992-1.094.638-.395 1.497-.395.554 0 1.046.18.497.176.875.547.383.37.602.945.219.57.219 1.36v.433h-4.918v-.953h3.562a1.5 1.5 0 0 0-.176-.723 1.27 1.27 0 0 0-.48-.503 1.35 1.35 0 0 0-.711-.184q-.433 0-.762.211-.328.207-.511.547-.18.336-.184.738v.832q0 .524.191.899.191.37.536.57.344.195.804.195.309 0 .559-.086.25-.09.433-.262.184-.171.278-.425l1.32.148a2.06 2.06 0 0 1-.476.914 2.3 2.3 0 0 1-.891.602q-.543.21-1.242.211m4.735-.032a.84.84 0 0 1-.609-.25.8.8 0 0 1-.25-.609.8.8 0 0 1 .25-.601.84.84 0 0 1 .609-.25q.343 0 .598.25a.816.816 0 0 1 .136 1.035.9.9 0 0 1-.312.312.8.8 0 0 1-.422.113m0-4.281a.84.84 0 0 1-.609-.25.8.8 0 0 1-.25-.609.8.8 0 0 1 .25-.602.83.83 0 0 1 .609-.254q.343 0 .598.254a.82.82 0 0 1 .136 1.032.9.9 0 0 1-.312.312.8.8 0 0 1-.422.117m7.989 4.348q-.964 0-1.656-.488-.687-.493-1.059-1.418-.367-.93-.367-2.239.005-1.308.371-2.226.372-.922 1.059-1.407.692-.484 1.652-.484.962 0 1.653.484t1.058 1.407q.371.922.371 2.226 0 1.313-.371 2.243-.367.925-1.058 1.414-.688.488-1.653.488m0-1.223q.75 0 1.184-.738.438-.743.437-2.184 0-.953-.199-1.601-.2-.649-.562-.977a1.23 1.23 0 0 0-.86-.332q-.745 0-1.179.742-.433.739-.438 2.168-.004.957.192 1.61.198.653.562.984.363.328.863.328m4.955 1.156a.84.84 0 0 1-.609-.25.8.8 0 0 1-.25-.609.8.8 0 0 1 .25-.601.84.84 0 0 1 .609-.25q.345 0 .598.25a.82.82 0 0 1 .137 1.035.9.9 0 0 1-.313.312.8.8 0 0 1-.422.113m4.57-8.085v8h-1.449v-6.59h-.047l-1.871 1.195v-1.328l1.988-1.278z"/></g><mask id="h" fill="#fff"><path d="M33.28 116.424h569v39h-569z"/></mask><path fill="#1b1913" d="M33.28 116.424h569v39h-569z"/><path fill="#fff" fill-opacity=".09" d="M602.28 155.424v-.64h-569v1.28h569z" mask="url(#h)"/><path fill="#3fb950" fill-opacity=".85" d="M62.28 146.125a10.001 10.001 0 0 1-7.071-17.072 10 10 0 1 1 7.071 17.072m4.725-12.15a.94.94 0 0 0-.67-1.577.94.94 0 0 0-.655.252l-4.963 4.962-1.837-1.837a.938.938 0 0 0-1.325 1.325l2.5 2.5a.94.94 0 0 0 1.325 0z"/><path fill="#edecec" d="M88.319 140.424v-9.454h3.37q1.098 0 1.823.378.73.38 1.09 1.048.36.665.36 1.538 0 .867-.365 1.528-.36.655-1.09 1.02-.724.365-1.823.365h-2.553v-1.228h2.424q.692 0 1.126-.199.44-.198.642-.577.203-.379.203-.909 0-.536-.208-.928a1.34 1.34 0 0 0-.641-.601q-.435-.212-1.14-.212h-1.792v8.231zm4.667-4.265 2.336 4.265h-1.625l-2.29-4.265zm5.664 4.422q-.674 0-1.218-.249a2.05 2.05 0 0 1-.864-.734q-.314-.48-.314-1.177 0-.6.231-.988t.624-.614q.391-.226.877-.342.484-.115.988-.175l1.034-.12q.397-.051.577-.162t.18-.36v-.032q0-.605-.342-.937-.337-.333-1.006-.333-.697 0-1.099.31-.397.305-.55.678l-1.297-.295a2.5 2.5 0 0 1 .674-1.044 2.7 2.7 0 0 1 1.03-.581 4 4 0 0 1 1.223-.185q.425 0 .9.102.481.096.896.36.42.263.688.752.268.484.268 1.261v4.708h-1.348v-.969h-.056a2 2 0 0 1-.401.526 2.1 2.1 0 0 1-.688.429q-.42.171-1.007.171m.3-1.108q.573 0 .98-.226.41-.227.622-.591.217-.369.217-.789v-.914q-.073.073-.286.138-.208.06-.475.106l-.522.079-.425.055a3.4 3.4 0 0 0-.734.171q-.328.12-.526.346-.194.222-.194.591 0 .512.379.776.378.258.965.258m8.348-6.14v1.108h-3.873v-1.108zm-2.834-1.698h1.38v6.707q0 .402.12.605.12.198.309.272.195.07.42.07.167 0 .291-.023l.194-.037.249 1.14q-.12.046-.341.092a2.7 2.7 0 0 1-.554.056 2.4 2.4 0 0 1-1.016-.194 1.74 1.74 0 0 1-.761-.628q-.291-.425-.291-1.066zm7.341 8.932q-1.048 0-1.805-.447a3.04 3.04 0 0 1-1.163-1.27q-.407-.822-.407-1.925 0-1.089.407-1.92a3.15 3.15 0 0 1 1.145-1.298q.739-.466 1.726-.466.6 0 1.163.199.564.198 1.011.623.448.425.707 1.103.258.674.258 1.639v.489h-5.636v-1.034h4.284q0-.545-.222-.965a1.67 1.67 0 0 0-.623-.669 1.75 1.75 0 0 0-.933-.245 1.8 1.8 0 0 0-1.015.287 1.9 1.9 0 0 0-.665.738q-.231.453-.231.984v.807q0 .712.249 1.21.254.498.707.762.452.258 1.057.258.393 0 .715-.111a1.48 1.48 0 0 0 .919-.9l1.307.236a2.4 2.4 0 0 1-.564 1.011 2.7 2.7 0 0 1-1.011.669 3.8 3.8 0 0 1-1.38.235m9.395-9.597v9.454h-1.381v-9.454zm1.857 9.454v-7.091h1.38v7.091zm.697-8.185a.88.88 0 0 1-.619-.24.78.78 0 0 1-.254-.581q0-.342.254-.582a.87.87 0 0 1 .619-.245q.36 0 .614.245.258.24.258.582a.77.77 0 0 1-.258.581.86.86 0 0 1-.614.24m2.54 8.185v-7.091h1.325v1.155h.088q.221-.587.724-.915.504-.332 1.205-.332.711 0 1.191.332.485.333.716.915h.074q.253-.569.808-.905.553-.342 1.32-.342.965 0 1.574.605.614.605.614 1.823v4.755h-1.38v-4.625q0-.72-.393-1.044a1.43 1.43 0 0 0-.937-.323q-.673 0-1.048.416-.374.41-.374 1.057v4.519h-1.375v-4.713q0-.577-.36-.928-.361-.351-.938-.351-.392 0-.724.208a1.5 1.5 0 0 0-.531.568 1.73 1.73 0 0 0-.199.845v4.371zm11.489 0v-7.091h1.38v7.091zm.697-8.185a.88.88 0 0 1-.618-.24.78.78 0 0 1-.254-.581q0-.342.254-.582a.87.87 0 0 1 .618-.245q.36 0 .614.245.26.24.259.582a.77.77 0 0 1-.259.581.86.86 0 0 1-.614.24m5.85 1.094v1.108h-3.873v-1.108zm-2.834-1.698h1.38v6.707q0 .402.12.605.12.198.31.272.194.07.42.07.165 0 .291-.023l.193-.037.25 1.14q-.12.046-.342.092a2.7 2.7 0 0 1-.554.056 2.4 2.4 0 0 1-1.016-.194 1.75 1.75 0 0 1-.761-.628q-.291-.425-.291-1.066zm4.361 8.789v-7.091h1.381v7.091zm.697-8.185a.88.88 0 0 1-.618-.24.78.78 0 0 1-.254-.581q0-.342.254-.582a.87.87 0 0 1 .618-.245q.361 0 .614.245.26.24.259.582a.77.77 0 0 1-.259.581.86.86 0 0 1-.614.24m3.921 3.975v4.21h-1.38v-7.091h1.325v1.155h.087a2 2 0 0 1 .767-.905q.525-.342 1.325-.342.725 0 1.269.305.545.3.845.895t.3 1.473v4.51h-1.38v-4.344q0-.77-.402-1.205-.402-.438-1.103-.438-.48 0-.854.207a1.5 1.5 0 0 0-.587.61q-.212.397-.212.96m9.362 7.017q-.845 0-1.454-.221a2.8 2.8 0 0 1-.988-.587 2.5 2.5 0 0 1-.572-.798l1.186-.49q.125.204.332.43.213.23.573.392.364.162.937.162.785 0 1.297-.384.513-.378.513-1.209v-1.394h-.088a3 3 0 0 1-.36.503 1.9 1.9 0 0 1-.637.48q-.406.203-1.057.203-.84 0-1.515-.392-.67-.397-1.061-1.168-.388-.776-.388-1.907 0-1.13.383-1.939.388-.808 1.062-1.237a2.76 2.76 0 0 1 1.528-.434q.66 0 1.066.222.406.217.633.507.23.291.355.513h.102v-1.15h1.352v7.248q0 .915-.424 1.501-.425.585-1.15.868a4.5 4.5 0 0 1-1.625.281m-.014-4.058q.596 0 1.007-.277.415-.28.628-.803.217-.526.217-1.26 0-.715-.213-1.261a1.87 1.87 0 0 0-.623-.849q-.41-.309-1.016-.309-.622 0-1.038.323a1.94 1.94 0 0 0-.628.868 3.4 3.4 0 0 0-.208 1.228q0 .696.212 1.223.213.526.628.822.42.295 1.034.295"/><path fill="#1f8a65" d="M552.693 139.924h-1.164l2.617-7.272h1.268l2.617 7.272h-1.165l-2.056-5.951h-.057zm.196-2.848h3.778V138h-3.778zm8.316 2.958q-.791 0-1.363-.358a2.4 2.4 0 0 1-.874-.998q-.305-.636-.305-1.456 0-.831.312-1.467.313-.638.881-.998.568-.358 1.339-.358.62 0 1.108.231.486.226.785.639.301.411.358.962h-1.033a1.23 1.23 0 0 0-.391-.66q-.302-.277-.809-.277a1.32 1.32 0 0 0-.778.234q-.33.23-.515.661-.185.426-.185 1.008 0 .597.181 1.03.182.433.512.671.333.238.785.238.302 0 .546-.11.25-.114.416-.323.17-.21.238-.505h1.033a2 2 0 0 1-.344.945 2 2 0 0 1-.771.653q-.479.238-1.126.238m5.923-5.564v.852h-2.98v-.852zm-2.181-1.307h1.062v5.16q0 .309.093.465a.47.47 0 0 0 .238.209 1 1 0 0 0 .323.054q.127 0 .223-.018l.15-.028.191.877a2.1 2.1 0 0 1-.689.113 1.9 1.9 0 0 1-.781-.149 1.34 1.34 0 0 1-.586-.483q-.224-.327-.224-.82zm3.355 6.761v-5.454h1.062v5.454zm.537-6.296a.67.67 0 0 1-.476-.185.6.6 0 0 1-.196-.447q0-.263.196-.447a.67.67 0 0 1 .476-.189q.276 0 .472.189a.6.6 0 0 1 .199.447.6.6 0 0 1-.199.447.66.66 0 0 1-.472.185m6.62.842-1.978 5.454h-1.137l-1.981-5.454h1.14l1.381 4.197h.057l1.378-4.197zm3.163 5.564q-.806 0-1.388-.344a2.33 2.33 0 0 1-.895-.977q-.313-.632-.313-1.48 0-.839.313-1.478a2.43 2.43 0 0 1 .88-.998q.569-.358 1.328-.358.462 0 .895.152.433.153.778.48t.543.849q.2.517.199 1.26v.377h-4.336v-.796h3.296q0-.419-.171-.742a1.3 1.3 0 0 0-.479-.515 1.35 1.35 0 0 0-.717-.188q-.448 0-.782.22a1.5 1.5 0 0 0-.511.568 1.65 1.65 0 0 0-.178.757v.621q0 .548.192.93.195.384.543.586.349.2.814.199.301 0 .55-.085.249-.089.43-.263a1.14 1.14 0 0 0 .277-.429l1.005.181a1.8 1.8 0 0 1-.434.777 2.1 2.1 0 0 1-.777.515q-.465.181-1.062.181"/><mask id="i" fill="#fff"><path d="M33.28 155.424h569v39h-569z"/></mask><path fill="#fff" fill-opacity=".06" d="M602.28 194.424v-1h-569v2h569z" mask="url(#i)"/><path fill="#3fb950" fill-opacity=".85" d="M62.28 184.625a10.001 10.001 0 0 1-7.071-17.072 10 10 0 1 1 7.071 17.072m4.725-12.15a.94.94 0 0 0-.67-1.577.94.94 0 0 0-.655.252l-4.963 4.962-1.837-1.837a.938.938 0 0 0-1.325 1.325l2.5 2.5a.94.94 0 0 0 1.325 0z"/><path fill="#edecec" d="M89.117 178.924h-1.514l3.403-9.454h1.648l3.402 9.454h-1.514l-2.673-7.737h-.074zm.254-3.702h4.912v1.2h-4.912zm10.812 3.845q-1.029 0-1.773-.466a3.1 3.1 0 0 1-1.135-1.297q-.397-.826-.397-1.893 0-1.08.406-1.906.405-.831 1.145-1.298.738-.466 1.74-.466.808 0 1.441.3a2.6 2.6 0 0 1 1.02.831q.392.536.466 1.251h-1.343a1.6 1.6 0 0 0-.508-.858q-.393-.361-1.053-.361-.576 0-1.01.305-.43.3-.67.859-.24.554-.24 1.311 0 .775.235 1.339.236.563.665.872.435.309 1.02.309.393 0 .711-.143.324-.147.54-.42.222-.272.31-.655h1.343a2.6 2.6 0 0 1-.448 1.228q-.374.54-1.001.849-.624.309-1.464.309m7.376 0q-1.029 0-1.773-.466a3.1 3.1 0 0 1-1.135-1.297q-.397-.826-.397-1.893 0-1.08.406-1.906a3.1 3.1 0 0 1 1.145-1.298q.738-.466 1.74-.466.808 0 1.441.3a2.6 2.6 0 0 1 1.02.831q.392.536.466 1.251h-1.343a1.6 1.6 0 0 0-.508-.858q-.393-.361-1.053-.361-.576 0-1.011.305-.429.3-.669.859-.24.554-.24 1.311 0 .775.235 1.339.236.563.665.872.434.309 1.02.309.393 0 .711-.143.324-.147.54-.42.222-.272.31-.655h1.343a2.6 2.6 0 0 1-.448 1.228 2.57 2.57 0 0 1-1.002.849q-.623.309-1.463.309m7.376 0q-.998 0-1.74-.457a3.07 3.07 0 0 1-1.154-1.278q-.411-.822-.411-1.921 0-1.103.411-1.93.41-.825 1.154-1.283.743-.457 1.74-.457.998 0 1.74.457.744.458 1.155 1.283.41.827.41 1.93 0 1.1-.41 1.921a3.1 3.1 0 0 1-1.155 1.278q-.743.457-1.74.457m.005-1.158q.647 0 1.071-.342a2 2 0 0 0 .628-.909q.207-.569.207-1.251 0-.679-.207-1.247a2.04 2.04 0 0 0-.628-.919q-.424-.345-1.071-.346-.65 0-1.081.346a2.06 2.06 0 0 0-.632.919 3.7 3.7 0 0 0-.203 1.247q0 .683.203 1.251.207.567.632.909.43.342 1.081.342m9.333-1.925v-4.151h1.385v7.091h-1.357v-1.228h-.074a2.2 2.2 0 0 1-.785.947q-.536.374-1.334.374a2.4 2.4 0 0 1-1.21-.3 2.1 2.1 0 0 1-.821-.901q-.296-.596-.296-1.472v-4.511h1.381v4.345q0 .724.401 1.154.402.429 1.043.429.388 0 .771-.194.388-.194.642-.586.258-.393.254-.997m4.62-1.27v4.21h-1.38v-7.091h1.325v1.155h.087a2 2 0 0 1 .767-.905q.525-.342 1.325-.342.725 0 1.269.305.545.3.845.895.3.596.3 1.473v4.51h-1.38v-4.344q0-.77-.402-1.205-.402-.438-1.103-.438-.48 0-.854.207a1.5 1.5 0 0 0-.587.61q-.212.398-.212.96m9.699-2.881v1.108h-3.873v-1.108zm-2.834-1.698h1.38v6.707q0 .402.12.605.12.198.309.272.195.07.42.07.167 0 .291-.023l.194-.037.249 1.14q-.12.046-.341.092a2.7 2.7 0 0 1-.554.056 2.4 2.4 0 0 1-1.016-.194 1.75 1.75 0 0 1-.762-.628q-.29-.425-.29-1.066zm9.182-.665v9.454h-1.38v-9.454zm4.844 9.597q-.997 0-1.741-.457a3.1 3.1 0 0 1-1.154-1.278q-.411-.822-.411-1.921 0-1.103.411-1.93.411-.825 1.154-1.283.744-.457 1.741-.457t1.74.457q.744.458 1.154 1.283.411.827.411 1.93 0 1.1-.411 1.921a3.1 3.1 0 0 1-1.154 1.278q-.743.457-1.74.457m.004-1.158q.647 0 1.071-.342.425-.342.628-.909.208-.569.208-1.251 0-.679-.208-1.247a2.03 2.03 0 0 0-.628-.919q-.424-.345-1.071-.346-.651 0-1.08.346a2.06 2.06 0 0 0-.632.919 3.7 3.7 0 0 0-.204 1.247q0 .683.204 1.251.207.567.632.909.429.342 1.08.342m7.829 1.158q-1.03 0-1.773-.466a3.1 3.1 0 0 1-1.136-1.297q-.397-.826-.397-1.893 0-1.08.407-1.906a3.1 3.1 0 0 1 1.144-1.298q.74-.466 1.741-.466.808 0 1.44.3.633.296 1.02.831.392.536.467 1.251h-1.344a1.6 1.6 0 0 0-.508-.858q-.392-.361-1.052-.361-.577 0-1.011.305-.429.3-.669.859-.241.554-.241 1.311 0 .775.236 1.339.235.563.665.872.433.309 1.02.309.392 0 .711-.143.323-.147.54-.42.222-.272.309-.655h1.344q-.075.688-.448 1.228a2.57 2.57 0 0 1-1.002.849q-.623.309-1.463.309m5.658-2.548-.009-1.685h.24l2.825-3.001h1.653l-3.222 3.417h-.217zm-1.269 2.405v-9.454h1.38v9.454zm4.478 0-2.539-3.37.951-.965 3.282 4.335zm2.758 0v-7.091h1.38v7.091zm.697-8.185a.88.88 0 0 1-.618-.24.78.78 0 0 1-.254-.581q0-.342.254-.582a.87.87 0 0 1 .618-.245q.36 0 .614.245.26.24.259.582a.77.77 0 0 1-.259.581.86.86 0 0 1-.614.24m3.921 3.975v4.21h-1.381v-7.091h1.325v1.155h.088q.245-.564.766-.905.527-.342 1.325-.342.726 0 1.27.305.545.3.845.895.3.596.3 1.473v4.51h-1.381v-4.344q0-.77-.401-1.205-.402-.438-1.104-.438-.48 0-.854.207a1.5 1.5 0 0 0-.586.61q-.212.398-.212.96m9.362 7.017q-.845 0-1.454-.221a2.8 2.8 0 0 1-.988-.587 2.5 2.5 0 0 1-.573-.798l1.187-.49q.125.204.332.43.213.23.573.392.364.162.937.162.784 0 1.297-.384.513-.378.512-1.209v-1.394h-.087a3 3 0 0 1-.36.503 1.95 1.95 0 0 1-.637.48q-.407.203-1.058.203a2.96 2.96 0 0 1-1.514-.392q-.669-.397-1.062-1.168-.387-.776-.387-1.907 0-1.13.383-1.939.387-.808 1.062-1.237a2.76 2.76 0 0 1 1.528-.434q.66 0 1.066.222.406.217.633.507.23.291.355.513h.102v-1.15h1.352v7.248q0 .915-.425 1.501-.424.586-1.149.868a4.5 4.5 0 0 1-1.625.281m-.014-4.058q.596 0 1.007-.277a1.7 1.7 0 0 0 .627-.803q.217-.526.217-1.26 0-.715-.212-1.261a1.87 1.87 0 0 0-.623-.849q-.411-.309-1.016-.309-.623 0-1.039.323a1.94 1.94 0 0 0-.627.868 3.4 3.4 0 0 0-.208 1.228q0 .696.212 1.223.213.526.628.822.42.295 1.034.295"/><path fill="#1f8a65" d="M552.693 178.424h-1.164l2.617-7.272h1.268l2.617 7.272h-1.165l-2.056-5.951h-.057zm.196-2.848h3.778v.924h-3.778zm8.316 2.958q-.791 0-1.363-.358a2.4 2.4 0 0 1-.874-.998q-.305-.636-.305-1.456 0-.831.312-1.467.313-.638.881-.998.568-.358 1.339-.358.62 0 1.108.231.486.227.785.639.301.411.358.962h-1.033a1.23 1.23 0 0 0-.391-.66q-.302-.277-.809-.277a1.32 1.32 0 0 0-.778.234q-.33.23-.515.661-.185.426-.185 1.008 0 .597.181 1.03.182.433.512.671.333.238.785.238.302 0 .546-.11.25-.114.416-.323.17-.21.238-.505h1.033a2 2 0 0 1-.344.945 2 2 0 0 1-.771.653q-.479.238-1.126.238m5.923-5.564v.852h-2.98v-.852zm-2.181-1.307h1.062v5.16q0 .309.093.465a.47.47 0 0 0 .238.209 1 1 0 0 0 .323.054q.127 0 .223-.018l.15-.028.191.877a2.1 2.1 0 0 1-.689.113 1.9 1.9 0 0 1-.781-.149 1.34 1.34 0 0 1-.586-.483q-.224-.327-.224-.82zm3.355 6.761v-5.454h1.062v5.454zm.537-6.296a.67.67 0 0 1-.476-.185.6.6 0 0 1-.196-.447q0-.263.196-.447a.67.67 0 0 1 .476-.189q.276 0 .472.189a.6.6 0 0 1 .199.447.6.6 0 0 1-.199.447.66.66 0 0 1-.472.185m6.62.842-1.978 5.454h-1.137l-1.981-5.454h1.14l1.381 4.197h.057l1.378-4.197zm3.163 5.564q-.806 0-1.388-.344a2.33 2.33 0 0 1-.895-.977q-.313-.632-.313-1.48 0-.839.313-1.478a2.43 2.43 0 0 1 .88-.998q.569-.358 1.328-.358.462 0 .895.152.433.153.778.48t.543.849q.2.517.199 1.26v.377h-4.336v-.796h3.296q0-.419-.171-.742a1.3 1.3 0 0 0-.479-.515 1.35 1.35 0 0 0-.717-.188q-.448 0-.782.22a1.5 1.5 0 0 0-.511.568 1.65 1.65 0 0 0-.178.757v.621q0 .548.192.93.195.384.543.586.349.2.814.199.301 0 .55-.085.249-.089.43-.263a1.14 1.14 0 0 0 .277-.429l1.005.181a1.8 1.8 0 0 1-.434.777 2.1 2.1 0 0 1-.777.515q-.465.181-1.062.181"/><mask id="j" fill="#fff"><path d="M33.28 194.424h569v39h-569z"/></mask><path fill="#fff" fill-opacity=".06" d="M602.28 233.424v-1h-569v2h569z" mask="url(#j)"/><path fill="#3fb950" fill-opacity=".85" d="M62.28 223.625a10.001 10.001 0 0 1-7.071-17.072 10 10 0 1 1 7.071 17.072m4.725-12.15a.94.94 0 0 0-.67-1.577.94.94 0 0 0-.655.252l-4.963 4.962-1.837-1.837a.938.938 0 0 0-1.325 1.325l2.5 2.5a.94.94 0 0 0 1.325 0z"/><path fill="#edecec" d="M93.475 210.953a1.35 1.35 0 0 0-.609-1.015q-.535-.365-1.348-.365-.582 0-1.006.185a1.55 1.55 0 0 0-.66.498 1.18 1.18 0 0 0-.231.716q0 .337.157.582.16.245.42.41.263.162.563.273.3.106.577.175l.923.24q.453.111.928.3.475.19.882.499.406.31.655.766.254.458.254 1.094 0 .804-.415 1.427-.411.623-1.196.983-.78.36-1.888.36-1.062 0-1.837-.337t-1.215-.955q-.438-.623-.484-1.478h1.43q.043.513.333.854.295.338.753.504a3 3 0 0 0 1.01.161 2.9 2.9 0 0 0 1.076-.189q.476-.194.748-.536.273-.346.273-.807 0-.421-.24-.688a1.8 1.8 0 0 0-.642-.443 6 6 0 0 0-.91-.31l-1.117-.304q-1.136-.31-1.8-.91-.66-.6-.66-1.588 0-.817.443-1.426a2.9 2.9 0 0 1 1.2-.947q.757-.342 1.708-.341.96 0 1.695.337.738.336 1.163.927.424.587.443 1.348zm6.155 7.114q-1.047 0-1.805-.447a3.04 3.04 0 0 1-1.163-1.27q-.406-.822-.406-1.925 0-1.089.406-1.92a3.16 3.16 0 0 1 1.145-1.298q.738-.466 1.726-.466.6 0 1.164.199.563.198 1.011.623t.706 1.103q.258.674.259 1.639v.489h-5.637v-1.034h4.284q0-.545-.222-.965a1.67 1.67 0 0 0-.623-.669 1.74 1.74 0 0 0-.932-.245q-.582 0-1.016.287a1.9 1.9 0 0 0-.665.738q-.23.453-.23.984v.807q0 .711.249 1.21.253.498.706.762.452.258 1.057.258.393 0 .716-.111.323-.115.558-.341t.36-.559l1.307.236a2.4 2.4 0 0 1-.563 1.011 2.7 2.7 0 0 1-1.011.669 3.8 3.8 0 0 1-1.38.235m9.888-5.502-1.251.221a1.5 1.5 0 0 0-.25-.457 1.2 1.2 0 0 0-.452-.355q-.287-.14-.716-.139-.586 0-.978.263-.393.26-.393.67 0 .356.263.572.264.217.85.356l1.126.258q.98.226 1.459.697t.48 1.224q0 .637-.369 1.135-.364.495-1.02.776-.651.281-1.51.281-1.191 0-1.944-.507-.752-.513-.923-1.455l1.334-.203q.124.522.513.79.387.263 1.011.263.678 0 1.085-.282.405-.286.406-.697a.72.72 0 0 0-.249-.558q-.245-.227-.753-.342l-1.2-.263q-.993-.227-1.468-.72-.471-.495-.471-1.251 0-.628.351-1.099t.969-.734q.62-.268 1.417-.268 1.15 0 1.81.499.66.494.873 1.325m6.969 0-1.251.221a1.5 1.5 0 0 0-.249-.457 1.2 1.2 0 0 0-.452-.355q-.287-.14-.716-.139-.586 0-.979.263-.392.26-.392.67 0 .356.263.572.263.217.849.356l1.127.258q.978.226 1.459.697.48.471.48 1.224 0 .637-.369 1.135-.366.495-1.021.776-.651.281-1.509.281-1.191 0-1.944-.507-.752-.513-.923-1.455l1.334-.203q.125.522.512.79.388.263 1.011.263.679 0 1.085-.282.407-.286.407-.697a.72.72 0 0 0-.25-.558q-.245-.227-.752-.342l-1.2-.263q-.993-.227-1.469-.72-.47-.495-.47-1.251 0-.628.35-1.099t.97-.734q.619-.268 1.417-.268 1.15 0 1.81.499.66.494.872 1.325m1.656 5.359v-7.091h1.381v7.091zm.698-8.185a.88.88 0 0 1-.619-.24.78.78 0 0 1-.254-.581q0-.342.254-.582a.87.87 0 0 1 .619-.245q.36 0 .614.245.258.24.258.582a.77.77 0 0 1-.258.581.86.86 0 0 1-.614.24m5.527 8.328q-.997 0-1.741-.457a3.1 3.1 0 0 1-1.154-1.278q-.411-.822-.411-1.921 0-1.103.411-1.93.411-.825 1.154-1.283.744-.457 1.741-.457t1.74.457q.743.458 1.154 1.283.411.827.411 1.93 0 1.1-.411 1.921a3.1 3.1 0 0 1-1.154 1.278q-.743.457-1.74.457m.004-1.158q.647 0 1.071-.342.425-.342.628-.909.208-.569.208-1.251 0-.679-.208-1.247a2.03 2.03 0 0 0-.628-.919q-.424-.345-1.071-.346-.651 0-1.08.346a2.06 2.06 0 0 0-.632.919 3.7 3.7 0 0 0-.204 1.247q0 .683.204 1.251.207.567.632.909.429.342 1.08.342m6.222-3.195v4.21h-1.38v-7.091h1.325v1.155h.087q.246-.564.767-.905.526-.342 1.325-.342.725 0 1.269.305.545.3.845.895.3.596.3 1.473v4.51h-1.38v-4.344q0-.77-.402-1.205-.401-.438-1.103-.438-.48 0-.854.207a1.5 1.5 0 0 0-.587.61q-.212.398-.212.96m15.896-2.881-2.572 7.091h-1.477l-2.576-7.091h1.482l1.796 5.457h.074l1.791-5.457zm3.157 7.248q-.673 0-1.218-.249a2.06 2.06 0 0 1-.864-.734q-.313-.48-.313-1.177 0-.6.23-.988.231-.388.624-.614.392-.226.877-.342.484-.115.988-.175l1.034-.12q.397-.051.577-.162t.18-.36v-.032q0-.605-.342-.937-.337-.333-1.006-.333-.697 0-1.099.31-.397.305-.549.678l-1.297-.295q.23-.647.674-1.044a2.7 2.7 0 0 1 1.029-.581 4 4 0 0 1 1.223-.185q.425 0 .901.102.48.096.895.36.42.263.688.752.268.484.268 1.261v4.708H151.8v-.969h-.056a2 2 0 0 1-.401.526 2.1 2.1 0 0 1-.688.429q-.42.171-1.007.171m.301-1.108q.571 0 .978-.226.411-.227.623-.591.217-.369.217-.789v-.914q-.073.074-.286.138-.208.06-.475.106l-.522.079-.425.055a3.5 3.5 0 0 0-.734.171q-.327.12-.526.346-.194.222-.194.591 0 .513.379.776.378.258.965.258m6.418-8.503v9.454h-1.381v-9.454zm1.857 9.454v-7.091h1.38v7.091zm.697-8.185a.88.88 0 0 1-.619-.24.78.78 0 0 1-.254-.581q0-.342.254-.582a.87.87 0 0 1 .619-.245q.36 0 .614.245.258.24.258.582a.77.77 0 0 1-.258.581.86.86 0 0 1-.614.24m5.194 8.324a2.74 2.74 0 0 1-1.532-.439q-.67-.442-1.053-1.26-.378-.822-.378-1.971t.383-1.967q.387-.817 1.062-1.251a2.76 2.76 0 0 1 1.528-.434q.66 0 1.061.222.407.217.628.507.226.291.351.513h.083v-3.513h1.381v9.454h-1.349v-1.103h-.115a3.6 3.6 0 0 1-.36.517 2 2 0 0 1-.637.508q-.406.217-1.053.217m.305-1.177q.596 0 1.006-.314.416-.32.628-.882.217-.564.217-1.311 0-.739-.212-1.293t-.623-.863-1.016-.309q-.623 0-1.039.323a1.96 1.96 0 0 0-.627.882 3.6 3.6 0 0 0-.208 1.26q0 .71.212 1.279.213.567.628.9.42.328 1.034.328m7.242 1.195q-.673 0-1.219-.249a2.05 2.05 0 0 1-.863-.734q-.314-.48-.314-1.177 0-.6.231-.988t.623-.614q.393-.226.877-.342.486-.115.988-.175l1.034-.12q.397-.051.577-.162t.181-.36v-.032q0-.605-.342-.937-.337-.333-1.007-.333-.696 0-1.098.31-.397.305-.55.678l-1.297-.295q.231-.647.674-1.044a2.75 2.75 0 0 1 1.03-.581 4 4 0 0 1 1.223-.185q.424 0 .9.102.48.096.896.36.42.263.688.752.267.484.267 1.261v4.708h-1.348v-.969h-.055a2 2 0 0 1-.402.526 2.1 2.1 0 0 1-.687.429q-.421.171-1.007.171m.3-1.108q.573 0 .979-.226.411-.227.623-.591.217-.369.217-.789v-.914q-.074.074-.286.138-.208.06-.476.106l-.521.079-.425.055a3.4 3.4 0 0 0-.734.171q-.328.12-.526.346-.195.222-.194.591 0 .513.378.776.379.258.965.258m8.348-6.14v1.108h-3.873v-1.108zm-2.835-1.698h1.381v6.707q0 .402.12.605.12.198.309.272.194.07.42.07.166 0 .291-.023l.194-.037.249 1.14q-.12.046-.341.092a2.7 2.7 0 0 1-.554.056 2.4 2.4 0 0 1-1.016-.194 1.75 1.75 0 0 1-.762-.628q-.291-.425-.291-1.066zm4.362 8.789v-7.091h1.38v7.091zm.697-8.185a.88.88 0 0 1-.619-.24.78.78 0 0 1-.254-.581q0-.342.254-.582a.87.87 0 0 1 .619-.245q.36 0 .614.245.258.24.258.582a.77.77 0 0 1-.258.581.86.86 0 0 1-.614.24m5.527 8.328q-.998 0-1.74-.457a3.07 3.07 0 0 1-1.154-1.278q-.411-.822-.411-1.921 0-1.103.411-1.93.41-.825 1.154-1.283.742-.457 1.74-.457.997 0 1.74.457.744.458 1.155 1.283.41.827.41 1.93 0 1.1-.41 1.921a3.1 3.1 0 0 1-1.155 1.278q-.743.457-1.74.457m.005-1.158q.647 0 1.071-.342a2 2 0 0 0 .628-.909q.207-.569.207-1.251 0-.679-.207-1.247a2.04 2.04 0 0 0-.628-.919q-.424-.345-1.071-.346-.65 0-1.081.346a2.06 2.06 0 0 0-.632.919 3.7 3.7 0 0 0-.203 1.247q0 .683.203 1.251.207.567.632.909.43.342 1.081.342m6.222-3.195v4.21h-1.381v-7.091h1.325v1.155h.088q.244-.564.766-.905.527-.342 1.325-.342.724 0 1.27.305.544.3.844.895.3.596.301 1.473v4.51h-1.381v-4.344q0-.77-.401-1.205-.402-.438-1.104-.438-.48 0-.854.207a1.5 1.5 0 0 0-.586.61q-.213.398-.212.96"/><path fill="#1f8a65" d="M552.693 217.424h-1.164l2.617-7.272h1.268l2.617 7.272h-1.165l-2.056-5.951h-.057zm.196-2.848h3.778v.924h-3.778zm8.316 2.958q-.791 0-1.363-.358a2.4 2.4 0 0 1-.874-.998q-.305-.636-.305-1.456 0-.831.312-1.467.313-.638.881-.998.568-.358 1.339-.358.62 0 1.108.231.486.227.785.639.301.411.358.962h-1.033a1.23 1.23 0 0 0-.391-.66q-.302-.277-.809-.277a1.32 1.32 0 0 0-.778.234q-.33.23-.515.661-.185.426-.185 1.008 0 .597.181 1.03.182.433.512.671.333.238.785.238.302 0 .546-.11.25-.114.416-.323.17-.21.238-.505h1.033a2 2 0 0 1-.344.945 2 2 0 0 1-.771.653q-.479.238-1.126.238m5.923-5.564v.852h-2.98v-.852zm-2.181-1.307h1.062v5.16q0 .309.093.465a.47.47 0 0 0 .238.209 1 1 0 0 0 .323.054q.127 0 .223-.018l.15-.028.191.877a2.1 2.1 0 0 1-.689.113 1.9 1.9 0 0 1-.781-.149 1.34 1.34 0 0 1-.586-.483q-.224-.327-.224-.82zm3.355 6.761v-5.454h1.062v5.454zm.537-6.296a.67.67 0 0 1-.476-.185.6.6 0 0 1-.196-.447q0-.263.196-.447a.67.67 0 0 1 .476-.189q.276 0 .472.189a.6.6 0 0 1 .199.447.6.6 0 0 1-.199.447.66.66 0 0 1-.472.185m6.62.842-1.978 5.454h-1.137l-1.981-5.454h1.14l1.381 4.197h.057l1.378-4.197zm3.163 5.564q-.806 0-1.388-.344a2.33 2.33 0 0 1-.895-.977q-.313-.632-.313-1.48 0-.839.313-1.478a2.43 2.43 0 0 1 .88-.998q.569-.358 1.328-.358.462 0 .895.152.433.153.778.48t.543.849q.2.517.199 1.26v.377h-4.336v-.796h3.296q0-.419-.171-.742a1.3 1.3 0 0 0-.479-.515 1.35 1.35 0 0 0-.717-.188q-.448 0-.782.22a1.5 1.5 0 0 0-.511.568 1.65 1.65 0 0 0-.178.757v.621q0 .548.192.93.195.384.543.586.349.2.814.199.301 0 .55-.085.249-.089.43-.263a1.14 1.14 0 0 0 .277-.429l1.005.181a1.8 1.8 0 0 1-.434.777 2.1 2.1 0 0 1-.777.515q-.465.181-1.062.181"/><mask id="k" fill="#fff"><path d="M33.28 233.424h569v39h-569z"/></mask><path fill="#fff" fill-opacity=".06" d="M602.28 272.424v-1h-569v2h569z" mask="url(#k)"/><path fill="#3fb950" fill-opacity=".85" d="M62.28 262.625a10.001 10.001 0 0 1-7.071-17.072 10 10 0 1 1 7.071 17.072m4.725-12.15a.94.94 0 0 0-.67-1.577.94.94 0 0 0-.655.252l-4.963 4.962-1.837-1.837a.938.938 0 0 0-1.325 1.325l2.5 2.5a.94.94 0 0 0 1.325 0z"/><path fill="#edecec" d="M89.745 247.47v9.454H88.32v-9.454zm2.078 9.454v-9.454h3.37q1.103 0 1.828.401a2.6 2.6 0 0 1 1.085 1.099q.36.693.36 1.56 0 .873-.365 1.57-.36.693-1.09 1.099-.724.401-1.823.401h-2.317v-1.209h2.188q.697 0 1.13-.24.435-.245.638-.665t.203-.956-.203-.95a1.46 1.46 0 0 0-.642-.651q-.434-.236-1.145-.236h-1.79v8.231zm11.756 0v-9.454h1.38v3.513h.083q.12-.222.346-.513a2 2 0 0 1 .628-.507q.402-.222 1.062-.222a2.77 2.77 0 0 1 1.532.434q.674.433 1.058 1.251.387.817.387 1.967 0 1.149-.383 1.971-.383.818-1.052 1.26a2.7 2.7 0 0 1-1.528.439q-.647 0-1.058-.217a2 2 0 0 1-.637-.508 4 4 0 0 1-.355-.517h-.115v1.103zm1.352-3.545q0 .747.217 1.311.217.563.628.882.41.314 1.006.314.619 0 1.034-.328.416-.333.628-.9.217-.568.217-1.279 0-.702-.212-1.26a1.93 1.93 0 0 0-.628-.882q-.415-.323-1.039-.323-.6 0-1.015.309a1.9 1.9 0 0 0-.624.863q-.212.554-.212 1.293m8.055-5.909v9.454h-1.381v-9.454zm4.844 9.597q-.997 0-1.741-.457a3.1 3.1 0 0 1-1.154-1.278q-.411-.822-.411-1.921 0-1.103.411-1.93.411-.825 1.154-1.283.744-.457 1.741-.457.996 0 1.74.457.743.458 1.154 1.283.411.827.411 1.93 0 1.1-.411 1.921a3.1 3.1 0 0 1-1.154 1.278q-.744.457-1.74.457m.004-1.158q.647 0 1.071-.342.425-.342.628-.909.208-.569.208-1.251 0-.679-.208-1.247a2.03 2.03 0 0 0-.628-.919q-.424-.345-1.071-.346-.651 0-1.08.346a2.07 2.07 0 0 0-.633.919 3.7 3.7 0 0 0-.203 1.247q0 .683.203 1.251.209.567.633.909.429.342 1.08.342m7.829 1.158q-1.03 0-1.773-.466a3.1 3.1 0 0 1-1.136-1.297q-.396-.826-.397-1.893 0-1.08.406-1.906a3.1 3.1 0 0 1 1.145-1.298q.74-.466 1.741-.466.807 0 1.44.3.633.296 1.02.831.393.536.467 1.251h-1.344a1.6 1.6 0 0 0-.508-.858q-.392-.361-1.052-.361-.577 0-1.011.305-.43.3-.67.859-.24.554-.24 1.311 0 .775.236 1.339.235.563.665.872.433.309 1.02.309.392 0 .711-.143.322-.147.54-.42.222-.272.309-.655h1.344q-.075.688-.448 1.228-.374.54-1.002.849-.623.309-1.463.309m5.658-2.548-.009-1.685h.24l2.825-3.001h1.653l-3.222 3.417h-.217zm-1.269 2.405v-9.454h1.38v9.454zm4.478 0-2.539-3.37.951-.965 3.282 4.335zm2.758 0v-7.091h1.38v7.091zm.697-8.185a.88.88 0 0 1-.619-.24.78.78 0 0 1-.253-.581q0-.342.253-.582a.87.87 0 0 1 .619-.245q.36 0 .614.245.259.24.259.582a.78.78 0 0 1-.259.581.86.86 0 0 1-.614.24m3.921 3.975v4.21h-1.381v-7.091h1.325v1.155h.088q.245-.564.766-.905.527-.342 1.325-.342.725 0 1.27.305.545.3.845.895.3.596.3 1.473v4.51h-1.381v-4.344q0-.77-.401-1.205-.402-.438-1.104-.438-.48 0-.854.207a1.5 1.5 0 0 0-.586.61q-.212.398-.212.96m9.362 7.017q-.845 0-1.454-.221a2.8 2.8 0 0 1-.988-.587 2.5 2.5 0 0 1-.573-.798l1.187-.49q.125.204.332.43.213.23.573.392.364.162.937.162.784 0 1.297-.384.512-.378.512-1.209v-1.394h-.087a3 3 0 0 1-.36.503 1.95 1.95 0 0 1-.637.48q-.407.203-1.058.203-.84 0-1.514-.392-.669-.397-1.062-1.168-.387-.776-.387-1.907 0-1.13.383-1.939.387-.808 1.062-1.237a2.76 2.76 0 0 1 1.528-.434q.66 0 1.066.222.407.217.632.507.231.291.356.513h.101v-1.15h1.353v7.248q0 .915-.425 1.501-.424.586-1.149.868a4.5 4.5 0 0 1-1.625.281m-.014-4.058q.595 0 1.006-.277.416-.28.628-.803.217-.526.217-1.26 0-.715-.212-1.261a1.87 1.87 0 0 0-.623-.849q-.411-.309-1.016-.309-.623 0-1.039.323a1.95 1.95 0 0 0-.628.868 3.5 3.5 0 0 0-.207 1.228q0 .696.212 1.223.213.526.628.822.42.295 1.034.295m8.906-3.476q0-1.736.457-3.195a9.5 9.5 0 0 1 1.335-2.691h1.264q-.341.458-.637 1.122-.295.664-.517 1.459a13 13 0 0 0-.346 1.638 11.4 11.4 0 0 0-.125 1.667q0 1.099.217 2.225.218 1.126.587 2.091.37.965.821 1.575h-1.264a9.5 9.5 0 0 1-1.335-2.692q-.456-1.458-.457-3.199m12.475-1.653h-1.44a2.2 2.2 0 0 0-.309-.812 2.3 2.3 0 0 0-.554-.596 2.4 2.4 0 0 0-.734-.369 2.9 2.9 0 0 0-.854-.125 2.67 2.67 0 0 0-1.464.411q-.641.411-1.016 1.205-.369.794-.369 1.939 0 1.154.369 1.948.375.795 1.021 1.2.646.407 1.454.407.448 0 .849-.12.407-.125.734-.365a2.2 2.2 0 0 0 .873-1.39l1.44.005a3.8 3.8 0 0 1-.448 1.283 3.5 3.5 0 0 1-.844 1.007q-.513.42-1.173.651t-1.44.231q-1.228 0-2.189-.582-.96-.587-1.514-1.676-.549-1.09-.549-2.599 0-1.514.554-2.599.554-1.089 1.514-1.671.96-.586 2.184-.586.752 0 1.403.216.656.213 1.177.628.522.411.864 1.007.34.591.461 1.352m1.596 6.38v-7.091h1.335v1.127h.073q.194-.573.684-.9a1.95 1.95 0 0 1 1.117-.333 6 6 0 0 1 .586.033v1.32a2 2 0 0 0-.295-.051 3 3 0 0 0-.425-.032 1.8 1.8 0 0 0-.873.208 1.54 1.54 0 0 0-.821 1.389v4.33zm7.723.143q-.997 0-1.741-.457a3.1 3.1 0 0 1-1.154-1.278q-.411-.822-.411-1.921 0-1.103.411-1.93.411-.825 1.154-1.283.744-.457 1.741-.457t1.74.457q.744.458 1.154 1.283.411.827.411 1.93 0 1.1-.411 1.921a3.1 3.1 0 0 1-1.154 1.278q-.743.457-1.74.457m.004-1.158q.647 0 1.071-.342.425-.342.628-.909.208-.569.208-1.251 0-.679-.208-1.247a2.03 2.03 0 0 0-.628-.919q-.424-.345-1.071-.346-.651 0-1.08.346a2.07 2.07 0 0 0-.633.919 3.7 3.7 0 0 0-.203 1.247q0 .683.203 1.251.208.567.633.909.429.342 1.08.342m6.163 1.015-2.086-7.091h1.426l1.39 5.208h.069l1.394-5.208h1.427l1.384 5.185h.07l1.38-5.185h1.427l-2.082 7.091h-1.409l-1.44-5.119h-.106l-1.44 5.119zm11.629.139a2.75 2.75 0 0 1-1.533-.439q-.67-.442-1.052-1.26-.379-.822-.379-1.971t.384-1.967q.387-.817 1.061-1.251.675-.434 1.528-.434.66 0 1.062.222.406.217.628.507.227.291.351.513h.083v-3.513h1.38v9.454h-1.348v-1.103h-.115a3.6 3.6 0 0 1-.36.517 2 2 0 0 1-.637.508q-.407.216-1.053.217m.305-1.177q.595 0 1.006-.314.415-.32.628-.882.217-.564.217-1.311 0-.739-.212-1.293a1.9 1.9 0 0 0-.624-.863q-.41-.309-1.015-.309-.624 0-1.039.323a1.97 1.97 0 0 0-.628.882 3.6 3.6 0 0 0-.207 1.26q0 .71.212 1.279.212.567.628.9.42.328 1.034.328m10.446-5.933a1.35 1.35 0 0 0-.61-1.015q-.535-.365-1.348-.365-.581 0-1.006.185-.424.18-.66.498-.231.315-.231.716 0 .337.157.582.162.245.42.41.263.162.563.273.3.106.577.175l.924.24q.452.111.928.3.475.19.881.499.407.31.656.766.254.458.254 1.094 0 .804-.416 1.427-.41.623-1.195.983-.781.36-1.889.36-1.061 0-1.837-.337t-1.214-.955q-.438-.623-.485-1.478h1.431q.042.513.333.854.295.338.752.504.462.16 1.011.161.605 0 1.076-.189a1.8 1.8 0 0 0 .748-.536q.272-.346.272-.807 0-.421-.24-.688a1.8 1.8 0 0 0-.642-.443 6 6 0 0 0-.909-.31l-1.117-.304q-1.136-.31-1.801-.91-.66-.6-.66-1.588 0-.817.443-1.426a2.9 2.9 0 0 1 1.201-.947q.757-.342 1.708-.341.96 0 1.694.337.738.336 1.163.927.425.587.443 1.348zm6.155 7.114q-1.049 0-1.805-.447a3.04 3.04 0 0 1-1.164-1.27q-.406-.822-.406-1.925 0-1.089.406-1.92a3.16 3.16 0 0 1 1.145-1.298q.739-.466 1.727-.466.6 0 1.163.199.564.198 1.011.623.448.425.706 1.103.26.674.259 1.639v.489h-5.637v-1.034h4.284q0-.545-.221-.965a1.7 1.7 0 0 0-.624-.669 1.74 1.74 0 0 0-.932-.245q-.582 0-1.016.287a1.9 1.9 0 0 0-.664.738q-.231.453-.231.984v.807q0 .711.249 1.21.254.498.706.762a2.1 2.1 0 0 0 1.058.258q.392 0 .715-.111.323-.115.559-.341t.36-.559l1.306.236a2.4 2.4 0 0 1-.563 1.011 2.7 2.7 0 0 1-1.011.669 3.8 3.8 0 0 1-1.38.235m7.56 0q-1.03 0-1.772-.466a3.1 3.1 0 0 1-1.136-1.297q-.397-.826-.397-1.893 0-1.08.406-1.906a3.1 3.1 0 0 1 1.145-1.298q.739-.466 1.74-.466.808 0 1.441.3a2.6 2.6 0 0 1 1.02.831q.393.536.466 1.251h-1.343a1.6 1.6 0 0 0-.508-.858q-.392-.361-1.052-.361-.578 0-1.011.305-.43.3-.67.859-.24.554-.24 1.311 0 .775.236 1.339.234.563.664.872.435.309 1.021.309.392 0 .71-.143.324-.147.541-.42.22-.272.309-.655h1.343a2.6 2.6 0 0 1-.448 1.228q-.374.54-1.001.849-.624.309-1.464.309M231.26 253q0 1.741-.457 3.2a9.6 9.6 0 0 1-1.334 2.691h-1.265q.342-.457.637-1.122t.517-1.454q.222-.794.346-1.644.125-.849.125-1.671 0-1.093-.217-2.22a12.5 12.5 0 0 0-.586-2.091q-.37-.965-.822-1.575h1.265a9.6 9.6 0 0 1 1.334 2.692q.457 1.458.457 3.194"/><path fill="#1f8a65" d="M552.693 256.424h-1.164l2.617-7.272h1.268l2.617 7.272h-1.165l-2.056-5.951h-.057zm.196-2.848h3.778v.924h-3.778zm8.316 2.958q-.791 0-1.363-.358a2.4 2.4 0 0 1-.874-.998q-.305-.636-.305-1.456 0-.831.312-1.467.313-.638.881-.998.568-.358 1.339-.358.62 0 1.108.231.486.227.785.639.301.411.358.962h-1.033a1.23 1.23 0 0 0-.391-.66q-.302-.277-.809-.277a1.32 1.32 0 0 0-.778.234q-.33.23-.515.661-.185.426-.185 1.008 0 .597.181 1.03.182.433.512.671.333.238.785.238.302 0 .546-.11.25-.114.416-.323.17-.21.238-.505h1.033a2 2 0 0 1-.344.945 2 2 0 0 1-.771.653q-.479.238-1.126.238m5.923-5.564v.852h-2.98v-.852zm-2.181-1.307h1.062v5.16q0 .309.093.465a.47.47 0 0 0 .238.209 1 1 0 0 0 .323.054q.127 0 .223-.018l.15-.028.191.877a2.1 2.1 0 0 1-.689.113 1.9 1.9 0 0 1-.781-.149 1.34 1.34 0 0 1-.586-.483q-.224-.327-.224-.82zm3.355 6.761v-5.454h1.062v5.454zm.537-6.296a.67.67 0 0 1-.476-.185.6.6 0 0 1-.196-.447q0-.263.196-.447a.67.67 0 0 1 .476-.189q.276 0 .472.189a.6.6 0 0 1 .199.447.6.6 0 0 1-.199.447.66.66 0 0 1-.472.185m6.62.842-1.978 5.454h-1.137l-1.981-5.454h1.14l1.381 4.197h.057l1.378-4.197zm3.163 5.564q-.806 0-1.388-.344a2.33 2.33 0 0 1-.895-.977q-.313-.632-.313-1.48 0-.839.313-1.478a2.43 2.43 0 0 1 .88-.998q.569-.358 1.328-.358.462 0 .895.152.433.153.778.48t.543.849q.2.517.199 1.26v.377h-4.336v-.796h3.296q0-.419-.171-.742a1.3 1.3 0 0 0-.479-.515 1.35 1.35 0 0 0-.717-.188q-.448 0-.782.22a1.5 1.5 0 0 0-.511.568 1.65 1.65 0 0 0-.178.757v.621q0 .548.192.93.195.384.543.586.349.2.814.199.301 0 .55-.085.249-.089.43-.263a1.14 1.14 0 0 0 .277-.429l1.005.181a1.8 1.8 0 0 1-.434.777 2.1 2.1 0 0 1-.777.515q-.465.181-1.062.181"/><path fill="#1b1913" d="M33.28 272.424h569v60h-569z"/><path fill="#edecec" d="M55.259 296.924h-1.631l3.664-10.182h1.775l3.664 10.182h-1.63l-2.88-8.332h-.079zm.273-3.987h5.29v1.293h-5.29zm13.387.82v-4.469h1.492v7.636h-1.462v-1.322h-.08a2.4 2.4 0 0 1-.844 1.019q-.578.403-1.437.403-.736 0-1.303-.323a2.27 2.27 0 0 1-.885-.97q-.318-.64-.318-1.586v-4.857h1.487v4.678q0 .781.432 1.243t1.124.462q.417 0 .83-.208.418-.21.691-.632.279-.422.273-1.074m7.054-4.469v1.193h-4.171v-1.193zm-3.053-1.83h1.487v7.224q0 .433.13.651a.67.67 0 0 0 .332.294q.21.074.453.074a1.7 1.7 0 0 0 .313-.025l.209-.039.268 1.228a2.5 2.5 0 0 1-.368.099 3 3 0 0 1-.596.06 2.6 2.6 0 0 1-1.094-.209 1.9 1.9 0 0 1-.82-.676q-.314-.457-.314-1.149zm6.348 4.932v4.534H77.78v-10.182h1.467v3.789h.094q.27-.617.82-.98.554-.363 1.442-.362.785 0 1.373.323.591.323.914.964.329.636.328 1.591v4.857h-1.486v-4.678q0-.84-.433-1.303-.432-.467-1.203-.467a2 2 0 0 0-.944.224 1.6 1.6 0 0 0-.652.656q-.233.428-.233 1.034m10.226 4.688q-1.128 0-1.944-.482a3.27 3.27 0 0 1-1.252-1.367q-.438-.885-.438-2.073 0-1.173.438-2.068a3.4 3.4 0 0 1 1.233-1.397q.795-.502 1.859-.502.645 0 1.253.213.606.215 1.089.671.482.457.76 1.189.279.726.279 1.765v.527H86.7v-1.114h4.613q0-.587-.239-1.039a1.8 1.8 0 0 0-.67-.721 1.87 1.87 0 0 0-1.005-.263q-.627 0-1.094.308a2.07 2.07 0 0 0-.716.795 2.3 2.3 0 0 0-.248 1.059v.87q0 .766.268 1.303.273.537.76.82.488.279 1.14.278.422 0 .77-.119.348-.124.601-.368.255-.243.388-.601l1.407.253a2.55 2.55 0 0 1-.606 1.089 2.9 2.9 0 0 1-1.09.721q-.65.253-1.486.253m6.412-4.688v4.534H94.42v-7.636h1.427v1.243h.094q.264-.607.825-.975.567-.367 1.427-.367.78 0 1.368.328.586.323.909.964.324.642.324 1.586v4.857h-1.487v-4.678q0-.83-.433-1.298-.432-.471-1.188-.472-.516 0-.92.224a1.6 1.6 0 0 0-.63.656q-.23.428-.23 1.034m10.446-3.102v1.193h-4.171v-1.193zm-3.053-1.83h1.487v7.224q0 .433.129.651a.67.67 0 0 0 .333.294q.209.074.452.074.18 0 .314-.025l.209-.039.268 1.228a2.5 2.5 0 0 1-.368.099 3 3 0 0 1-.597.06 2.6 2.6 0 0 1-1.093-.209 1.9 1.9 0 0 1-.821-.676q-.312-.457-.313-1.149zm4.697 9.466v-7.636h1.487v7.636zm.751-8.814a.94.94 0 0 1-.666-.259.84.84 0 0 1-.274-.626.83.83 0 0 1 .274-.627.94.94 0 0 1 .666-.263.92.92 0 0 1 .661.263.82.82 0 0 1 .278.627q0 .363-.278.626a.93.93 0 0 1-.661.259m5.952 8.968q-1.108 0-1.909-.502a3.3 3.3 0 0 1-1.223-1.397q-.428-.89-.428-2.038 0-1.164.438-2.053a3.35 3.35 0 0 1 1.233-1.397q.795-.502 1.874-.502.87 0 1.551.323.681.318 1.099.895.423.576.502 1.347h-1.447a1.73 1.73 0 0 0-.546-.925q-.423-.387-1.134-.388-.621 0-1.089.328-.462.324-.721.925-.258.597-.258 1.412 0 .836.253 1.442.254.606.716.94.468.333 1.099.333.423 0 .766-.154.348-.16.581-.453a1.7 1.7 0 0 0 .333-.706h1.447a2.8 2.8 0 0 1-.482 1.323 2.8 2.8 0 0 1-1.079.914q-.671.333-1.576.333m6.949.015q-.726 0-1.312-.268a2.2 2.2 0 0 1-.93-.791q-.338-.517-.338-1.267 0-.647.248-1.064.249-.418.672-.661.422-.245.944-.368a9 9 0 0 1 1.064-.189l1.114-.13q.428-.054.621-.174.194-.118.194-.387v-.035q0-.652-.368-1.009-.363-.358-1.084-.358-.75 0-1.183.333-.427.327-.591.731l-1.397-.319q.248-.696.725-1.123a2.95 2.95 0 0 1 1.109-.627 4.4 4.4 0 0 1 1.318-.198q.457 0 .969.109.517.104.964.388.453.284.741.81.288.522.289 1.357v5.071h-1.452v-1.044h-.06a2.1 2.1 0 0 1-.432.567q-.289.279-.741.462-.453.184-1.084.184m.323-1.193q.617 0 1.054-.243.443-.244.671-.637.234-.397.234-.85v-.984q-.08.079-.308.149-.224.065-.512.114l-.562.085-.457.059a3.7 3.7 0 0 0-.791.184 1.4 1.4 0 0 0-.567.373q-.208.238-.208.637 0 .551.407.835.408.278 1.039.278m8.99-6.612v1.193h-4.171v-1.193zm-3.052-1.83h1.486v7.224q0 .433.129.651a.68.68 0 0 0 .333.294q.21.074.453.074.179 0 .313-.025l.209-.039.268 1.228a2.5 2.5 0 0 1-.368.099 3 3 0 0 1-.596.06 2.6 2.6 0 0 1-1.094-.209 1.9 1.9 0 0 1-.82-.676q-.313-.457-.313-1.149zm4.696 9.466v-7.636h1.487v7.636zm.751-8.814a.94.94 0 0 1-.666-.259.84.84 0 0 1-.273-.626q0-.368.273-.627a.94.94 0 0 1 .666-.263q.388 0 .661.263a.82.82 0 0 1 .279.627q0 .363-.279.626a.92.92 0 0 1-.661.259m5.952 8.968q-1.073 0-1.874-.492a3.3 3.3 0 0 1-1.243-1.377q-.442-.885-.442-2.068 0-1.188.442-2.078a3.3 3.3 0 0 1 1.243-1.382q.801-.492 1.874-.492 1.074 0 1.875.492t1.243 1.382.442 2.078q0 1.183-.442 2.068a3.3 3.3 0 0 1-1.243 1.377q-.801.492-1.875.492m.005-1.247q.696 0 1.154-.368a2.16 2.16 0 0 0 .676-.98q.224-.611.224-1.347a3.9 3.9 0 0 0-.224-1.342 2.2 2.2 0 0 0-.676-.99q-.458-.373-1.154-.373-.7 0-1.163.373a2.2 2.2 0 0 0-.681.99 4 4 0 0 0-.219 1.342q0 .736.219 1.347.224.611.681.98.462.368 1.163.368m6.701-3.441v4.534h-1.487v-7.636h1.427v1.243h.095q.262-.607.825-.975.566-.367 1.427-.367.78 0 1.367.328.586.323.91.964.323.642.323 1.586v4.857h-1.487v-4.678q0-.83-.432-1.298-.433-.471-1.188-.472-.518 0-.92.224a1.6 1.6 0 0 0-.631.656q-.23.428-.229 1.034"/><path fill="#edecec" fill-opacity=".6" d="M54.277 317.924v-7.091h1.09v7.091zm.554-8.272a.78.78 0 0 1-.55-.217.7.7 0 0 1-.225-.522q0-.305.226-.522a.78.78 0 0 1 .55-.217q.318 0 .544.217.23.217.23.522a.7.7 0 0 1-.23.522.76.76 0 0 1-.545.217m3.62 4.007v4.265h-1.089v-7.091h1.053v1.108h.092q.25-.54.757-.868.509-.332 1.311-.332.72 0 1.26.296.54.29.84.886.3.59.3 1.496v4.505h-1.089v-4.432q0-.836-.434-1.301-.434-.471-1.19-.471-.524 0-.933.226a1.6 1.6 0 0 0-.642.66q-.235.433-.235 1.053m9.193 4.413q-.885 0-1.565-.448-.678-.452-1.062-1.274-.383-.827-.383-1.953 0-1.117.383-1.939.384-.821 1.067-1.269t1.579-.448q.692 0 1.094.231.406.226.618.517.217.286.337.471h.093v-3.49h1.09v9.454h-1.053v-1.089h-.13q-.12.194-.341.489a2 2 0 0 1-.633.522q-.41.226-1.094.226m.148-.979q.655 0 1.108-.341.451-.347.688-.956.235-.614.235-1.417 0-.794-.23-1.39-.231-.6-.684-.932-.453-.337-1.117-.337-.693 0-1.154.355a2.13 2.13 0 0 0-.688.956q-.225.6-.226 1.348 0 .757.23 1.376.236.614.693.978.462.36 1.145.36m8.222.979q-1.025 0-1.768-.452a3.04 3.04 0 0 1-1.14-1.275q-.397-.82-.397-1.911 0-1.089.397-1.92.401-.836 1.117-1.302.72-.471 1.68-.471.555 0 1.094.185.54.184.984.6.442.411.706 1.089.263.68.263 1.672v.461h-5.466v-.942h4.358q0-.6-.24-1.071a1.8 1.8 0 0 0-.674-.743 1.9 1.9 0 0 0-1.025-.272q-.651 0-1.126.323a2.1 2.1 0 0 0-.725.831q-.255.513-.254 1.099v.627q0 .804.277 1.362.282.554.78.845.498.286 1.159.286.43 0 .775-.12a1.7 1.7 0 0 0 .605-.369q.254-.249.393-.619l1.052.296q-.166.536-.558.942a2.7 2.7 0 0 1-.97.627 3.6 3.6 0 0 1-1.297.222m4.593 2.511v-9.75h1.053v1.127h.13q.12-.185.331-.471.217-.29.62-.517.405-.231 1.098-.231.895 0 1.579.448.682.448 1.066 1.269.384.822.383 1.939 0 1.127-.383 1.953-.383.822-1.062 1.274-.678.448-1.565.448-.683 0-1.094-.226a2 2 0 0 1-.632-.522 7 7 0 0 1-.342-.489h-.092v3.748zm1.071-6.204q0 .803.236 1.417.235.61.688.956.451.34 1.108.341.682 0 1.14-.36a2.2 2.2 0 0 0 .692-.978q.236-.619.236-1.376 0-.748-.231-1.348a2.1 2.1 0 0 0-.688-.956q-.457-.355-1.15-.355-.664 0-1.117.337-.452.332-.683.932-.23.596-.23 1.39m9.824 3.693q-1.024 0-1.768-.452a3.04 3.04 0 0 1-1.14-1.275q-.397-.82-.397-1.911 0-1.089.397-1.92.402-.836 1.117-1.302.72-.471 1.68-.471.555 0 1.094.185.54.184.984.6.442.411.706 1.089.263.68.263 1.672v.461h-5.466v-.942h4.358q0-.6-.24-1.071a1.8 1.8 0 0 0-.674-.743 1.9 1.9 0 0 0-1.025-.272q-.651 0-1.126.323a2.1 2.1 0 0 0-.725.831q-.255.513-.254 1.099v.627q0 .804.277 1.362.282.554.78.845.499.286 1.16.286.428 0 .775-.12a1.7 1.7 0 0 0 .604-.369q.254-.249.393-.619l1.052.296q-.166.536-.558.942a2.7 2.7 0 0 1-.97.627 3.6 3.6 0 0 1-1.297.222m5.683-4.413v4.265h-1.09v-7.091h1.053v1.108h.092q.25-.54.758-.868.507-.332 1.31-.332.72 0 1.261.296.54.29.84.886.3.59.3 1.496v4.505h-1.089v-4.432q0-.836-.434-1.301-.435-.471-1.191-.471-.522 0-.933.226a1.6 1.6 0 0 0-.641.66q-.237.433-.236 1.053m9.193 4.413q-.887 0-1.565-.448-.68-.452-1.062-1.274-.383-.827-.383-1.953 0-1.117.383-1.939.383-.821 1.066-1.269.684-.448 1.579-.448.692 0 1.094.231.406.226.619.517.217.286.337.471h.092v-3.49h1.09v9.454h-1.053v-1.089h-.129q-.12.194-.342.489a2 2 0 0 1-.632.522q-.411.226-1.094.226m.147-.979q.656 0 1.108-.341.453-.347.688-.956.236-.614.236-1.417 0-.794-.231-1.39-.231-.6-.683-.932-.453-.337-1.118-.337-.692 0-1.154.355a2.14 2.14 0 0 0-.688.956q-.225.6-.226 1.348 0 .757.231 1.376.236.614.692.978.462.36 1.145.36m8.222.979q-1.024 0-1.768-.452a3.04 3.04 0 0 1-1.14-1.275q-.397-.82-.397-1.911 0-1.089.397-1.92.402-.836 1.117-1.302.72-.471 1.68-.471.554 0 1.095.185.54.184.983.6.443.411.706 1.089.264.68.263 1.672v.461h-5.466v-.942h4.358q0-.6-.24-1.071a1.8 1.8 0 0 0-.674-.743 1.9 1.9 0 0 0-1.025-.272q-.65 0-1.126.323a2.1 2.1 0 0 0-.725.831 2.45 2.45 0 0 0-.254 1.099v.627q0 .804.277 1.362.282.554.781.845a2.3 2.3 0 0 0 1.158.286q.43 0 .776-.12.35-.125.605-.369.254-.249.392-.619l1.053.296a2.3 2.3 0 0 1-.559.942 2.7 2.7 0 0 1-.969.627 3.6 3.6 0 0 1-1.298.222m5.683-4.413v4.265h-1.089v-7.091h1.052v1.108h.093q.249-.54.757-.868.507-.332 1.311-.332.72 0 1.26.296.54.29.84.886.3.59.3 1.496v4.505h-1.089v-4.432q0-.836-.434-1.301-.434-.471-1.191-.471a1.9 1.9 0 0 0-.933.226 1.6 1.6 0 0 0-.641.66q-.236.433-.236 1.053m9.599-2.826v.924h-3.675v-.924zm-2.604-1.698h1.09v6.758q0 .462.134.693.138.226.35.304.217.074.458.074.18 0 .295-.018l.185-.037.221.978a2 2 0 0 1-.309.083q-.198.047-.503.047-.462 0-.905-.199a1.8 1.8 0 0 1-.73-.605q-.286-.405-.286-1.024zm12.922 3.286-.979.277a1.8 1.8 0 0 0-.272-.475 1.3 1.3 0 0 0-.48-.388q-.306-.152-.781-.152-.65 0-1.084.3-.43.296-.43.752 0 .407.296.642.295.236.923.392l1.053.259q.95.23 1.417.706.466.471.466 1.214a1.8 1.8 0 0 1-.351 1.09q-.346.48-.969.757-.624.277-1.45.277-1.085 0-1.796-.471-.711-.47-.9-1.376l1.034-.258q.148.573.559.859.415.285 1.085.286.762 0 1.209-.323.453-.328.453-.785a.83.83 0 0 0-.259-.619q-.258-.254-.794-.378l-1.182-.277q-.974-.231-1.431-.716-.452-.49-.452-1.223 0-.6.337-1.062.341-.462.928-.725.591-.263 1.338-.263 1.053 0 1.653.462.605.461.859 1.218m2.471 8.162q-.278 0-.494-.046a1.2 1.2 0 0 1-.3-.083l.277-.96q.396.101.701.074a.84.84 0 0 0 .541-.273q.24-.24.438-.78l.203-.554-2.622-7.128h1.182l1.957 5.651h.074l1.958-5.651h1.181l-3.01 8.125q-.203.55-.503.91-.3.364-.697.54a2.15 2.15 0 0 1-.886.175m11.557-8.162-.979.277a1.8 1.8 0 0 0-.272-.475 1.3 1.3 0 0 0-.48-.388q-.305-.152-.78-.152-.651 0-1.085.3-.429.296-.429.752 0 .407.295.642.296.236.923.392l1.053.259q.95.23 1.417.706.466.471.466 1.214 0 .61-.35 1.09-.346.48-.97.757-.623.277-1.45.277-1.084 0-1.795-.471-.71-.47-.901-1.376l1.035-.258q.147.573.558.859.416.285 1.085.286.762 0 1.21-.323.452-.328.452-.785a.82.82 0 0 0-.259-.619q-.258-.254-.794-.378l-1.181-.277q-.975-.231-1.432-.716-.452-.49-.452-1.223 0-.6.337-1.062.342-.462.928-.725.59-.263 1.339-.263 1.052 0 1.652.462.606.461.859 1.218m4.853-1.588v.924h-3.675v-.924zm-2.604-1.698h1.09v6.758q0 .462.134.693.138.226.351.304.216.074.457.074.18 0 .295-.018l.185-.037.221.978a2 2 0 0 1-.309.083q-.198.047-.503.047a2.2 2.2 0 0 1-.905-.199 1.8 1.8 0 0 1-.729-.605q-.287-.405-.287-1.024zm7.14 8.937q-1.025 0-1.768-.452a3.04 3.04 0 0 1-1.141-1.275q-.397-.82-.397-1.911 0-1.089.397-1.92a3.14 3.14 0 0 1 1.118-1.302q.72-.471 1.68-.471.554 0 1.094.185.54.184.983.6.444.411.707 1.089.263.68.263 1.672v.461h-5.466v-.942h4.358q0-.6-.24-1.071a1.8 1.8 0 0 0-.674-.743 1.9 1.9 0 0 0-1.025-.272q-.65 0-1.126.323a2.1 2.1 0 0 0-.725.831 2.45 2.45 0 0 0-.254 1.099v.627q0 .804.277 1.362.282.554.78.845.5.286 1.159.286.43 0 .775-.12.351-.125.605-.369.254-.249.393-.619l1.052.296a2.34 2.34 0 0 1-.558.942 2.7 2.7 0 0 1-.97.627 3.6 3.6 0 0 1-1.297.222m4.593-.148v-7.091h1.053v1.108h.092a1.78 1.78 0 0 1 .716-.881q.493-.32 1.186-.319.702 0 1.168.319.471.314.734.881h.074q.273-.55.817-.872.545-.328 1.307-.328.95 0 1.555.596.605.591.605 1.842v4.745h-1.089v-4.745q0-.786-.43-1.122a1.6 1.6 0 0 0-1.011-.337q-.748 0-1.158.452-.411.448-.411 1.136v4.616h-1.108v-4.856q0-.605-.393-.974-.392-.375-1.011-.374-.425 0-.794.226-.364.226-.591.628a1.86 1.86 0 0 0-.221.918v4.432zm16.322-5.503-.979.277a1.8 1.8 0 0 0-.272-.475 1.3 1.3 0 0 0-.48-.388q-.305-.152-.781-.152-.65 0-1.084.3-.43.296-.43.752 0 .407.296.642.295.236.923.392l1.053.259q.95.23 1.417.706.466.471.466 1.214a1.8 1.8 0 0 1-.351 1.09q-.346.48-.969.757-.624.277-1.45.277-1.085 0-1.796-.471-.711-.47-.9-1.376l1.034-.258q.148.573.559.859.415.285 1.085.286.762 0 1.209-.323.453-.328.453-.785a.83.83 0 0 0-.259-.619q-.258-.254-.794-.378l-1.182-.277q-.974-.231-1.431-.716-.452-.49-.452-1.223 0-.6.337-1.062.342-.462.928-.725.591-.263 1.338-.263 1.053 0 1.653.462.605.461.859 1.218m9.894 2.604v-4.192h1.09v7.091h-1.09v-1.2h-.074q-.249.54-.775.919-.526.374-1.33.374a2.37 2.37 0 0 1-1.182-.291 2.04 2.04 0 0 1-.812-.887q-.296-.595-.296-1.5v-4.506h1.09v4.432q0 .776.434 1.237.438.462 1.117.462.406 0 .826-.208.424-.207.711-.637.291-.43.291-1.094m4.175-1.366v4.265h-1.09v-7.091h1.053v1.108h.092q.249-.54.757-.868.509-.332 1.311-.332.72 0 1.26.296.54.29.841.886.3.59.3 1.496v4.505h-1.09v-4.432q0-.836-.434-1.301-.434-.471-1.191-.471-.522 0-.932.226a1.6 1.6 0 0 0-.642.66q-.235.433-.235 1.053m8.601 4.432q-.674 0-1.223-.254a2.1 2.1 0 0 1-.873-.744q-.323-.49-.323-1.181 0-.61.24-.988.24-.384.642-.601t.886-.323q.489-.11.984-.175.645-.084 1.048-.125.405-.046.59-.152.19-.107.19-.369v-.037q0-.684-.374-1.062-.369-.38-1.122-.379-.78 0-1.223.342t-.624.729l-1.034-.369q.277-.646.739-1.006a2.75 2.75 0 0 1 1.016-.508 4.2 4.2 0 0 1 1.089-.148q.342 0 .785.083.447.079.863.328.42.25.697.752.277.504.277 1.348v4.672h-1.089v-.96h-.056a1.9 1.9 0 0 1-.369.494 2.1 2.1 0 0 1-.688.448q-.429.185-1.048.185m.166-.979q.646 0 1.09-.254a1.73 1.73 0 0 0 .905-1.5v-.998q-.07.084-.305.153a5 5 0 0 1-.535.115q-.301.047-.587.083-.282.033-.457.056a4 4 0 0 0-.794.18 1.4 1.4 0 0 0-.591.364q-.22.24-.221.656 0 .567.42.859.424.285 1.075.286m8.23-6.279v.924h-3.822v-.924zm-2.677 7.091v-8.069q0-.61.286-1.016.287-.406.743-.609.458-.204.965-.203.401 0 .656.064.254.065.378.12l-.314.942a5 5 0 0 0-.23-.069 1.4 1.4 0 0 0-.379-.042q-.54 0-.78.273-.236.272-.236.798v7.811zm7.362-7.091v.924h-3.822v-.924zm-2.678 7.091v-8.069q0-.61.287-1.016a1.76 1.76 0 0 1 .743-.609 2.3 2.3 0 0 1 .965-.203q.401 0 .655.064.255.065.379.12l-.314.942a5 5 0 0 0-.231-.069 1.4 1.4 0 0 0-.378-.042q-.541 0-.781.273-.235.272-.235.798v7.811zm6.886.148q-1.025 0-1.768-.452a3.03 3.03 0 0 1-1.14-1.275q-.398-.82-.398-1.911 0-1.089.398-1.92.401-.836 1.117-1.302.72-.471 1.68-.471.554 0 1.094.185.54.184.984.6.442.411.706 1.089.263.68.263 1.672v.461h-5.466v-.942h4.358q0-.6-.24-1.071a1.8 1.8 0 0 0-.674-.743 1.9 1.9 0 0 0-1.025-.272q-.65 0-1.126.323a2.1 2.1 0 0 0-.725.831 2.45 2.45 0 0 0-.254 1.099v.627q0 .804.277 1.362.282.554.78.845.5.286 1.159.286.43 0 .775-.12.351-.125.605-.369.254-.249.393-.619l1.052.296a2.34 2.34 0 0 1-.558.942 2.7 2.7 0 0 1-.97.627 3.6 3.6 0 0 1-1.297.222m7.474 0q-.997 0-1.717-.471a3.07 3.07 0 0 1-1.108-1.297q-.388-.826-.388-1.888 0-1.08.397-1.907a3.14 3.14 0 0 1 1.117-1.297q.72-.471 1.681-.471.747 0 1.348.277.6.277.983.776.383.498.475 1.163h-1.089a1.7 1.7 0 0 0-.554-.859q-.425-.378-1.145-.378-.637 0-1.117.332a2.17 2.17 0 0 0-.743.928q-.264.595-.264 1.399 0 .822.259 1.431.263.61.739.946.48.337 1.126.337.424 0 .771-.147a1.59 1.59 0 0 0 .928-1.09h1.089a2.52 2.52 0 0 1-1.412 1.925q-.591.291-1.376.291m7.465-7.239v.924h-3.675v-.924zm-2.604-1.698h1.09v6.758q0 .462.133.693a.7.7 0 0 0 .351.304q.217.074.457.074.18 0 .296-.018l.184-.037.222.978a2 2 0 0 1-.309.083 2.3 2.3 0 0 1-.503.047q-.462 0-.905-.199a1.8 1.8 0 0 1-.73-.605q-.285-.405-.286-1.024zm7.14 8.937q-1.025 0-1.769-.452a3.04 3.04 0 0 1-1.14-1.275q-.397-.82-.397-1.911 0-1.089.397-1.92.402-.836 1.117-1.302.72-.471 1.681-.471.554 0 1.094.185.54.184.983.6.444.411.706 1.089.264.68.264 1.672v.461h-5.466v-.942h4.358q0-.6-.24-1.071a1.8 1.8 0 0 0-.674-.743 1.9 1.9 0 0 0-1.025-.272q-.651 0-1.127.323a2.1 2.1 0 0 0-.724.831q-.255.513-.254 1.099v.627q0 .804.277 1.362.28.554.78.845.498.286 1.159.286.429 0 .775-.12.351-.125.605-.369.254-.249.392-.619l1.053.296a2.3 2.3 0 0 1-.559.942 2.7 2.7 0 0 1-.969.627 3.6 3.6 0 0 1-1.297.222m7.27 0q-.885 0-1.565-.448-.678-.452-1.061-1.274-.384-.827-.383-1.953 0-1.117.383-1.939.383-.821 1.066-1.269.684-.448 1.579-.448.692 0 1.094.231.406.226.619.517.216.286.337.471h.092v-3.49h1.089v9.454h-1.052v-1.089h-.129q-.12.194-.342.489a2 2 0 0 1-.632.522q-.411.226-1.095.226m.148-.979q.656 0 1.108-.341.453-.347.688-.956.235-.614.235-1.417 0-.794-.23-1.39-.231-.6-.684-.932-.452-.337-1.117-.337-.692 0-1.154.355a2.13 2.13 0 0 0-.688.956q-.226.6-.226 1.348 0 .757.231 1.376.236.614.692.978.462.36 1.145.36m6.874-.461-.074.498a10 10 0 0 1-.24 1.127q-.156.6-.328 1.131-.17.53-.281.845h-.831l.157-.781q.096-.484.194-1.085.101-.595.166-1.218l.055-.517zm6.764-2.973v4.265h-1.089v-7.091h1.052v1.108h.093q.249-.54.757-.868.507-.332 1.311-.332.72 0 1.26.296.54.29.84.886.301.59.301 1.496v4.505h-1.09v-4.432q0-.836-.434-1.301-.434-.471-1.191-.471-.522 0-.932.226a1.6 1.6 0 0 0-.642.66q-.236.433-.236 1.053m9.396 4.413q-.96 0-1.685-.457a3.1 3.1 0 0 1-1.126-1.279q-.402-.822-.402-1.92 0-1.108.402-1.935a3.1 3.1 0 0 1 1.126-1.283q.725-.457 1.685-.457t1.68.457a3.06 3.06 0 0 1 1.127 1.283q.406.827.406 1.935 0 1.098-.406 1.92a3.06 3.06 0 0 1-1.127 1.279q-.72.457-1.68.457m0-.979q.729 0 1.2-.374.472-.374.697-.983.227-.609.227-1.32t-.227-1.325a2.23 2.23 0 0 0-.697-.993q-.471-.378-1.2-.378t-1.2.378a2.24 2.24 0 0 0-.697.993 3.8 3.8 0 0 0-.226 1.325q0 .711.226 1.32t.697.983 1.2.374m11.395 3.638q-.79 0-1.358-.203a2.9 2.9 0 0 1-.946-.526 2.9 2.9 0 0 1-.595-.693l.867-.609q.149.194.374.443.226.254.619.439.397.189 1.039.189.858 0 1.417-.416t.559-1.301v-1.441h-.093q-.12.194-.341.48a1.9 1.9 0 0 1-.628.504q-.406.216-1.099.217a2.96 2.96 0 0 1-1.542-.407q-.678-.406-1.075-1.182-.393-.775-.393-1.883 0-1.09.383-1.897.383-.813 1.067-1.256.682-.448 1.579-.448.692 0 1.098.231.41.226.628.517.222.286.342.471h.111v-1.127h1.052v7.294q0 .915-.415 1.487a2.37 2.37 0 0 1-1.108.845 4.2 4.2 0 0 1-1.542.272m-.037-3.896q.655 0 1.108-.3.452-.3.688-.864.235-.562.235-1.348 0-.765-.231-1.352a2.03 2.03 0 0 0-.683-.919q-.453-.332-1.117-.332-.693 0-1.154.351a2.13 2.13 0 0 0-.688.941 3.6 3.6 0 0 0-.226 1.311q0 .739.23 1.307a2 2 0 0 0 .693.886q.462.32 1.145.319m7.183 1.256q-.674 0-1.223-.254a2.1 2.1 0 0 1-.873-.744q-.323-.49-.323-1.181 0-.61.24-.988.24-.384.642-.601.401-.216.886-.323.49-.11.983-.175.647-.084 1.048-.125.407-.046.591-.152.19-.107.19-.369v-.037q0-.684-.374-1.062-.37-.38-1.122-.379-.78 0-1.224.342t-.623.729l-1.034-.369q.277-.646.739-1.006a2.75 2.75 0 0 1 1.015-.508q.555-.148 1.09-.148.341 0 .785.083.447.079.863.328.42.25.697.752.277.504.277 1.348v4.672h-1.089v-.96h-.056a1.9 1.9 0 0 1-.369.494 2.2 2.2 0 0 1-.688.448q-.43.185-1.048.185m.166-.979q.646 0 1.09-.254a1.73 1.73 0 0 0 .905-1.5v-.998q-.07.084-.305.153a5 5 0 0 1-.536.115q-.3.047-.586.083-.282.033-.457.056a4 4 0 0 0-.794.18 1.4 1.4 0 0 0-.591.364q-.222.24-.222.656 0 .567.421.859.424.285 1.075.286m5.073 3.471v-9.75h1.052v1.127h.129q.12-.185.333-.471.217-.29.618-.517.406-.231 1.099-.231.895 0 1.579.448t1.066 1.269q.384.822.384 1.939 0 1.127-.384 1.953-.383.822-1.061 1.274-.68.448-1.565.448-.684 0-1.095-.226a2 2 0 0 1-.632-.522 7 7 0 0 1-.342-.489h-.092v3.748zm1.071-6.204q0 .803.235 1.417.235.61.688.956.452.34 1.108.341.683 0 1.14-.36a2.2 2.2 0 0 0 .693-.978q.235-.619.235-1.376 0-.748-.231-1.348a2.1 2.1 0 0 0-.688-.956q-.457-.355-1.149-.355-.665 0-1.117.337-.453.332-.684.932-.23.596-.23 1.39m10.507 3.545v-7.091h1.089v7.091zm.554-8.272a.78.78 0 0 1-.55-.217.7.7 0 0 1-.226-.522q0-.305.226-.522a.78.78 0 0 1 .55-.217q.318 0 .544.217a.7.7 0 0 1 .231.522.7.7 0 0 1-.231.522.76.76 0 0 1-.544.217m3.62 4.007v4.265h-1.089v-7.091h1.052v1.108h.093q.249-.54.757-.868.507-.332 1.311-.332.72 0 1.26.296.54.29.84.886.3.59.3 1.496v4.505h-1.089v-4.432q0-.836-.434-1.301-.433-.471-1.191-.471a1.9 1.9 0 0 0-.933.226 1.6 1.6 0 0 0-.641.66q-.236.433-.236 1.053m13.052 4.413q-.997 0-1.717-.471a3.07 3.07 0 0 1-1.108-1.297q-.388-.826-.388-1.888 0-1.08.397-1.907a3.14 3.14 0 0 1 1.117-1.297q.72-.471 1.681-.471.747 0 1.348.277.6.277.983.776.383.498.475 1.163h-1.089a1.7 1.7 0 0 0-.554-.859q-.425-.378-1.145-.378-.637 0-1.117.332a2.17 2.17 0 0 0-.743.928q-.264.595-.263 1.399 0 .822.258 1.431.263.61.739.946.48.337 1.126.337.424 0 .771-.147a1.59 1.59 0 0 0 .928-1.09h1.089a2.5 2.5 0 0 1-.457 1.131q-.36.499-.955.794-.591.291-1.376.291m7.262 0q-.96 0-1.685-.457a3.1 3.1 0 0 1-1.127-1.279q-.4-.822-.401-1.92 0-1.108.401-1.935.407-.825 1.127-1.283.725-.457 1.685-.457t1.68.457q.725.458 1.127 1.283.405.827.406 1.935 0 1.098-.406 1.92a3.07 3.07 0 0 1-1.127 1.279q-.72.457-1.68.457m0-.979q.729 0 1.2-.374.47-.374.697-.983t.226-1.32-.226-1.325a2.24 2.24 0 0 0-.697-.993q-.471-.378-1.2-.378-.73 0-1.2.378a2.24 2.24 0 0 0-.698.993 3.8 3.8 0 0 0-.226 1.325q0 .711.226 1.32.227.61.698.983.47.374 1.2.374m10.42-6.26-2.622 7.091h-1.108l-2.622-7.091h1.182l1.957 5.651h.074l1.958-5.651zm4.157 7.239q-1.024 0-1.768-.452a3.04 3.04 0 0 1-1.14-1.275q-.397-.82-.397-1.911 0-1.089.397-1.92.402-.836 1.117-1.302.72-.471 1.681-.471.554 0 1.094.185.54.184.983.6.444.411.706 1.089.264.68.264 1.672v.461h-5.466v-.942h4.358q0-.6-.24-1.071a1.8 1.8 0 0 0-.674-.743 1.9 1.9 0 0 0-1.025-.272q-.651 0-1.127.323a2.1 2.1 0 0 0-.725.831 2.45 2.45 0 0 0-.253 1.099v.627q0 .804.277 1.362.28.554.78.845a2.3 2.3 0 0 0 1.158.286q.43 0 .776-.12.351-.125.605-.369.254-.249.392-.619l1.053.296a2.3 2.3 0 0 1-.559.942 2.7 2.7 0 0 1-.969.627 3.6 3.6 0 0 1-1.298.222m4.594-.148v-7.091h1.052v1.071h.074q.194-.525.702-.854a2.07 2.07 0 0 1 1.145-.327q.12 0 .3.004.18.005.272.014v1.108a4 4 0 0 0-.254-.042 2.6 2.6 0 0 0-.41-.032q-.517 0-.924.217-.401.213-.637.591a1.6 1.6 0 0 0-.231.854v4.487zm6.923.167q-.674 0-1.223-.254a2.1 2.1 0 0 1-.872-.744q-.324-.49-.324-1.181 0-.61.24-.988.24-.384.642-.601a3.4 3.4 0 0 1 .887-.323q.49-.11.983-.175.646-.084 1.048-.125.406-.046.591-.152.189-.107.189-.369v-.037q0-.684-.374-1.062-.369-.38-1.122-.379-.78 0-1.223.342t-.623.729l-1.034-.369q.276-.646.738-1.006.467-.366 1.016-.508a4.2 4.2 0 0 1 1.089-.148q.342 0 .785.083.448.079.863.328.42.25.697.752.277.504.277 1.348v4.672h-1.089v-.96h-.055a1.9 1.9 0 0 1-.37.494 2.1 2.1 0 0 1-.688.448q-.429.185-1.048.185m.167-.979q.647 0 1.089-.254a1.72 1.72 0 0 0 .905-1.5v-.998q-.07.084-.305.153a5 5 0 0 1-.535.115q-.3.047-.587.083-.281.033-.457.056a4 4 0 0 0-.794.18 1.4 1.4 0 0 0-.591.364q-.22.24-.221.656 0 .567.42.859.425.285 1.076.286m7.934 3.619q-.789 0-1.357-.203a2.9 2.9 0 0 1-.946-.526 2.9 2.9 0 0 1-.596-.693l.868-.609q.147.194.374.443.227.254.618.439.397.189 1.039.189.86 0 1.417-.416.56-.416.559-1.301v-1.441h-.092q-.12.194-.342.48a1.9 1.9 0 0 1-.628.504q-.407.216-1.098.217a2.96 2.96 0 0 1-1.542-.407q-.679-.406-1.076-1.182-.393-.775-.392-1.883 0-1.09.383-1.897.383-.813 1.066-1.256.684-.448 1.579-.448.693 0 1.099.231.41.226.628.517.22.286.341.471h.111v-1.127h1.053v7.294q0 .915-.416 1.487a2.37 2.37 0 0 1-1.108.845 4.2 4.2 0 0 1-1.542.272m-.037-3.896q.656 0 1.108-.3t.688-.864q.236-.562.236-1.348 0-.765-.231-1.352a2.03 2.03 0 0 0-.684-.919q-.452-.332-1.117-.332-.692 0-1.154.351a2.13 2.13 0 0 0-.688.941 3.6 3.6 0 0 0-.226 1.311q0 .739.231 1.307.236.563.692.886.462.32 1.145.319m8.07 1.237q-1.025 0-1.768-.452a3.04 3.04 0 0 1-1.141-1.275q-.397-.82-.397-1.911 0-1.089.397-1.92a3.14 3.14 0 0 1 1.118-1.302q.72-.471 1.68-.471.554 0 1.094.185.54.184.983.6.443.411.707 1.089.263.68.263 1.672v.461h-5.466v-.942h4.358q0-.6-.24-1.071a1.8 1.8 0 0 0-.674-.743 1.9 1.9 0 0 0-1.025-.272q-.65 0-1.126.323a2.1 2.1 0 0 0-.725.831 2.45 2.45 0 0 0-.254 1.099v.627q0 .804.277 1.362.282.554.78.845.5.286 1.159.286.43 0 .775-.12.351-.125.605-.369.253-.249.393-.619l1.052.296a2.34 2.34 0 0 1-.558.942 2.7 2.7 0 0 1-.97.627 3.6 3.6 0 0 1-1.297.222m5.387-.074a.8.8 0 0 1-.586-.244.8.8 0 0 1-.245-.587.8.8 0 0 1 .245-.586.8.8 0 0 1 .586-.245q.341 0 .587.245a.8.8 0 0 1 .244.586q0 .227-.115.416a.9.9 0 0 1-.3.304.8.8 0 0 1-.416.111"/><path fill="#1f8a65" d="M535.12 301.517h-1.108a1.7 1.7 0 0 0-.664-1.083 1.8 1.8 0 0 0-.565-.285 2.2 2.2 0 0 0-.657-.095q-.628 0-1.126.316-.493.315-.781.926-.284.612-.284 1.492 0 .887.284 1.499.288.61.785.923.497.312 1.118.312.345 0 .654-.092.312-.096.564-.281a1.72 1.72 0 0 0 .672-1.068l1.108.003q-.09.537-.345.987a2.7 2.7 0 0 1-.65.774 2.9 2.9 0 0 1-.902.501 3.3 3.3 0 0 1-1.108.178q-.944 0-1.683-.448-.738-.45-1.165-1.289-.422-.838-.422-1.999 0-1.165.426-1.999.426-.839 1.165-1.286.738-.451 1.679-.451.579 0 1.08.167.504.163.905.483.402.317.664.774.264.454.356 1.041m3.525 5.017q-.767 0-1.339-.351a2.4 2.4 0 0 1-.888-.984q-.316-.632-.316-1.477 0-.85.316-1.484.317-.636.888-.988.572-.351 1.339-.351t1.339.351.887.988q.317.635.317 1.484 0 .845-.317 1.477-.315.632-.887.984-.572.351-1.339.351m.003-.891q.498 0 .824-.263.327-.263.483-.699.16-.436.16-.963 0-.522-.16-.958a1.56 1.56 0 0 0-.483-.707q-.326-.267-.824-.266-.5 0-.831.266a1.6 1.6 0 0 0-.486.707q-.156.436-.156.958 0 .526.156.963.16.436.486.699.332.263.831.263m4.787-2.457v3.238h-1.062v-5.454h1.019v.888h.067q.188-.433.59-.696.405-.263 1.019-.263.557 0 .977.234.419.231.649.689t.231 1.133v3.469h-1.062v-3.341q0-.594-.308-.927-.309-.338-.849-.338-.369 0-.657.16-.285.16-.451.469-.163.306-.163.739m7.46-2.216v.852h-2.979v-.852zm-2.18-1.307h1.062v5.16q0 .309.092.465a.48.48 0 0 0 .238.209q.15.054.323.054.128 0 .224-.018l.149-.028.192.877a2 2 0 0 1-.689.113 1.9 1.9 0 0 1-.781-.149 1.33 1.33 0 0 1-.586-.483q-.224-.327-.224-.82zm3.355 6.761v-5.454h1.062v5.454zm.536-6.296a.67.67 0 0 1-.476-.185.6.6 0 0 1-.195-.447q0-.263.195-.447a.67.67 0 0 1 .476-.189q.277 0 .473.189a.6.6 0 0 1 .198.447.6.6 0 0 1-.198.447.66.66 0 0 1-.473.185m3.016 3.058v3.238h-1.062v-5.454h1.019v.888h.068q.188-.433.589-.696.405-.263 1.02-.263.557 0 .976.234.419.231.65.689t.231 1.133v3.469h-1.062v-3.341q0-.594-.309-.927-.309-.338-.849-.338-.369 0-.657.16a1.16 1.16 0 0 0-.451.469q-.163.306-.163.739m8.37.976v-3.192h1.065v5.454h-1.044v-.944h-.056a1.7 1.7 0 0 1-.604.728q-.413.287-1.026.287-.526 0-.931-.23a1.63 1.63 0 0 1-.632-.693q-.227-.458-.227-1.133v-3.469h1.062v3.341q0 .558.309.888.308.33.802.33.299 0 .593-.149a1.24 1.24 0 0 0 .494-.451q.198-.302.195-.767m2.492 2.262v-5.454h1.062v5.454zm.536-6.296a.67.67 0 0 1-.476-.185.6.6 0 0 1-.195-.447q0-.263.195-.447a.67.67 0 0 1 .476-.189q.277 0 .473.189a.6.6 0 0 1 .198.447.6.6 0 0 1-.198.447.66.66 0 0 1-.473.185m3.016 3.058v3.238h-1.062v-5.454h1.019v.888h.068q.188-.433.589-.696.405-.263 1.02-.263.557 0 .976.234.42.231.65.689t.231 1.133v3.469h-1.062v-3.341q0-.594-.309-.927-.309-.338-.849-.338-.369 0-.657.16a1.16 1.16 0 0 0-.451.469 1.56 1.56 0 0 0-.163.739m7.202 5.397q-.65 0-1.119-.17a2.2 2.2 0 0 1-.76-.451 1.9 1.9 0 0 1-.44-.614l.913-.377q.095.156.255.33.164.178.441.302.28.125.72.125.605 0 .998-.295.394-.29.394-.931v-1.072h-.067a2.4 2.4 0 0 1-.277.387 1.5 1.5 0 0 1-.49.369q-.312.157-.813.157-.646 0-1.165-.302a2.14 2.14 0 0 1-.817-.899q-.298-.596-.298-1.466t.295-1.492a2.25 2.25 0 0 1 .816-.951 2.1 2.1 0 0 1 1.176-.334q.507 0 .82.17.313.167.487.391.177.223.273.394h.078v-.884h1.041v5.575q0 .704-.327 1.154a1.93 1.93 0 0 1-.884.668q-.554.216-1.25.216m-.011-3.121q.459 0 .774-.213.32-.217.483-.618.167-.405.167-.969 0-.551-.163-.97a1.44 1.44 0 0 0-.48-.653q-.316-.238-.781-.238-.479 0-.799.248a1.5 1.5 0 0 0-.483.668q-.16.423-.16.945 0 .536.164.941.163.404.483.632.322.227.795.227"/></g><path fill="#edecec" fill-opacity=".1" d="M36.64 88.484v.64h561.72v-1.28H36.64zm565.72 4h-.64v236H603v-236zm-4 240v-.64H36.64v1.28h561.72zm-565.72-4h.64v-236H32v236zm4 4v-.64a3.36 3.36 0 0 1-3.36-3.36H32a4.64 4.64 0 0 0 4.64 4.64zm565.72-4h-.64a3.36 3.36 0 0 1-3.36 3.36v1.28a4.64 4.64 0 0 0 4.64-4.64zm-4-240v.64a3.36 3.36 0 0 1 3.36 3.36H603a4.64 4.64 0 0 0-4.64-4.64zm-561.72 0v-.64a4.64 4.64 0 0 0-4.64 4.64h1.28a3.36 3.36 0 0 1 3.36-3.36z" mask="url(#l)"/></g><defs><clipPath id="b"><path fill="#fff" d="M0 25.085h634v334.999a6 6 0 0 1-6 6H6a6 6 0 0 1-6-6z"/></clipPath><clipPath id="e"><path fill="#fff" d="M32.64 92.484a4 4 0 0 1 4-4h561.72a4 4 0 0 1 4 4v236a4 4 0 0 1-4 4H36.64a4 4 0 0 1-4-4z"/></clipPath><clipPath id="g"><path fill="#fff" d="M43.28 95.125h548.44v14.66H43.28z"/></clipPath></defs></svg>