<svg xmlns="http://www.w3.org/2000/svg" width="634" height="404" fill="none" viewBox="0 0 634 404"><mask id="a" fill="#fff"><path d="M0 9.174a9 9 0 0 1 9-9h616a9 9 0 0 1 9 9v15.64H0z"/></mask><path fill="#1b1913" d="M0 9.174a9 9 0 0 1 9-9h616a9 9 0 0 1 9 9v15.64H0z"/><path fill="#fff" fill-opacity=".06" d="M0 .174h634zm634 25.64H0v-2h634zm-634-1V.174zM634 .174v24.64z" mask="url(#a)"/><path fill="#edecec" fill-opacity=".2" d="M8 11.994a5 5 0 1 1 10 0 5 5 0 0 1-10 0m16 0a5 5 0 1 1 10 0 5 5 0 0 1-10 0m16 0a5 5 0 1 1 10 0 5 5 0 0 1-10 0"/><g clip-path="url(#b)"><path fill="#14120b" d="M0 24.627h634v372.547a6 6 0 0 1-6 6H6a6 6 0 0 1-6-6z"/><g clip-path="url(#c)"><g clip-path="url(#d)"><mask id="n" fill="#fff"><path d="M20 48.627a4 4 0 0 1 4-4h587a4 4 0 0 1 4 4v332a4 4 0 0 1-4 4H24a4 4 0 0 1-4-4z"/></mask><path fill="#1b1913" d="M20 48.627a4 4 0 0 1 4-4h587a4 4 0 0 1 4 4v332a4 4 0 0 1-4 4H24a4 4 0 0 1-4-4z"/><mask id="e" fill="#fff"><path d="M20.64 45.268h593.72v30.76H20.64z"/></mask><path fill="#201e18" fill-opacity=".5" d="M20.64 45.268h593.72v30.76H20.64z"/><path fill="#edecec" fill-opacity=".1" d="M614.36 76.028v-.64H20.64v1.28h593.72z" mask="url(#e)"/><path fill="#edecec" d="m39.103 59.051-1.523.166a1.2 1.2 0 0 0-.227-.434 1.1 1.1 0 0 0-.424-.328 1.55 1.55 0 0 0-.656-.124q-.522 0-.877.226-.352.225-.346.586a.61.61 0 0 0 .226.504q.235.194.776.318l1.21.258q1.005.217 1.495.688.494.471.498 1.233-.005.669-.392 1.182-.382.507-1.066.794-.684.285-1.57.286-1.302 0-2.096-.545-.795-.549-.946-1.528l1.63-.157q.11.48.47.725t.937.245q.596 0 .956-.245.365-.245.365-.605a.63.63 0 0 0-.236-.503q-.231-.199-.72-.304l-1.21-.254q-1.02-.213-1.509-.716-.49-.507-.485-1.283a1.82 1.82 0 0 1 .356-1.136q.365-.484 1.01-.748.652-.268 1.501-.268 1.246 0 1.962.531.72.531.891 1.436m1.53 5.217v-7.091h1.672v7.09zm.84-8.098a.98.98 0 0 1-.683-.263.85.85 0 0 1-.286-.642q0-.378.286-.641a.97.97 0 0 1 .684-.268q.4 0 .683.268.285.263.286.641 0 .375-.286.642a.96.96 0 0 1-.683.263m5.634 10.904q-.9 0-1.547-.244-.646-.24-1.038-.647a2.24 2.24 0 0 1-.545-.9l1.505-.365q.102.208.295.411.194.209.522.342.332.138.836.138.71 0 1.177-.346.465-.341.466-1.126v-1.344h-.083q-.129.26-.379.531-.245.273-.65.457-.402.185-1.011.185a2.9 2.9 0 0 1-1.482-.383q-.66-.388-1.053-1.154-.388-.77-.388-1.93 0-1.169.388-1.971.393-.809 1.057-1.224.664-.42 1.482-.42.624 0 1.025.213.406.207.646.503.24.29.365.55h.092v-1.173h1.648v7.206q0 .91-.434 1.505-.433.596-1.186.89-.753.296-1.708.296m.014-4.22q.53 0 .905-.258.374-.258.567-.743.195-.484.194-1.163a3.3 3.3 0 0 0-.194-1.173 1.67 1.67 0 0 0-.563-.78q-.37-.282-.91-.282-.557 0-.932.291-.374.29-.563.799-.19.503-.19 1.145 0 .651.19 1.14.195.485.568.757.379.268.928.268m6.698-2.741v4.155h-1.67v-7.091h1.596v1.205h.084q.245-.596.78-.947.54-.35 1.334-.35.734 0 1.279.313.549.315.849.91.305.595.3 1.445v4.515H56.7V60.01q0-.711-.37-1.112-.364-.402-1.01-.402-.44 0-.78.194-.337.19-.532.55-.189.36-.189.872m10.549-.471v1.376h-4.256v-1.376zm1.758 4.626v-7.091h1.67v7.09zm.84-8.098a.98.98 0 0 1-.683-.263.85.85 0 0 1-.287-.642q0-.378.287-.641a.97.97 0 0 1 .683-.268q.401 0 .683.268.285.263.286.641 0 .375-.286.642a.96.96 0 0 1-.683.263m4.22 3.943v4.155h-1.67v-7.091h1.597v1.205h.083q.245-.596.78-.947.54-.35 1.334-.35.735 0 1.279.313.55.315.85.91.303.595.3 1.445v4.515h-1.672V60.01q0-.711-.37-1.112-.364-.402-1.01-.402-.44 0-.78.194-.337.19-.531.55-.19.36-.19.872m9.476 4.155v-7.091h1.62v1.181h.074q.194-.613.665-.946a1.83 1.83 0 0 1 1.085-.337q.138 0 .309.014.176.01.29.032v1.538a2 2 0 0 0-.336-.065 3 3 0 0 0-.439-.032 1.7 1.7 0 0 0-.822.198q-.36.195-.567.54-.208.346-.208.799v4.169zm8.001.138q-1.066 0-1.842-.443a3 3 0 0 1-1.186-1.265q-.416-.822-.416-1.934 0-1.095.416-1.92.42-.833 1.172-1.293.752-.467 1.769-.467.655 0 1.237.213.585.207 1.034.646.453.438.71 1.117.26.675.26 1.607v.512h-5.813v-1.126h4.21a1.8 1.8 0 0 0-.207-.854 1.5 1.5 0 0 0-.568-.596 1.6 1.6 0 0 0-.84-.217q-.513 0-.9.25-.389.244-.605.646a1.86 1.86 0 0 0-.217.872v.984q0 .618.226 1.061.226.439.632.674.406.231.951.231.364 0 .66-.101.296-.106.513-.31a1.3 1.3 0 0 0 .328-.503l1.56.176a2.43 2.43 0 0 1-.563 1.08 2.75 2.75 0 0 1-1.053.71q-.641.25-1.468.25m9.299 2.52V63.15h-.07a3 3 0 0 1-.373.55q-.245.285-.647.49-.4.202-1.01.202a2.7 2.7 0 0 1-1.496-.43q-.66-.427-1.043-1.246-.384-.816-.384-1.985 0-1.181.388-1.994.393-.818 1.057-1.233.665-.42 1.482-.42.623 0 1.025.213.402.207.637.503.236.29.365.55h.101v-1.173h1.644v9.75zm-1.634-3.905q.53 0 .905-.286.373-.29.567-.808.195-.517.194-1.205 0-.687-.194-1.196a1.7 1.7 0 0 0-.563-.789q-.37-.282-.91-.282-.558 0-.932.291a1.76 1.76 0 0 0-.563.803q-.19.513-.19 1.173 0 .665.19 1.187.195.517.568.817.378.295.928.295m9.547-1.736v-4.108h1.671v7.09h-1.621v-1.26h-.073q-.24.596-.79.974-.545.38-1.343.379a2.4 2.4 0 0 1-1.233-.31 2.15 2.15 0 0 1-.831-.909q-.3-.6-.3-1.45v-4.514h1.671v4.256q0 .674.37 1.071.369.397.969.397.37 0 .716-.18t.567-.535q.227-.36.227-.9m6.529 3.121q-1.067 0-1.842-.443a3 3 0 0 1-1.187-1.265q-.415-.822-.415-1.934 0-1.095.415-1.92a3.14 3.14 0 0 1 1.173-1.293q.752-.467 1.768-.467.655 0 1.237.213a2.8 2.8 0 0 1 1.034.646q.453.438.711 1.117.258.675.259 1.607v.512h-5.813v-1.126h4.211a1.8 1.8 0 0 0-.208-.854 1.5 1.5 0 0 0-.568-.596 1.6 1.6 0 0 0-.84-.217q-.513 0-.9.25-.388.244-.605.646a1.85 1.85 0 0 0-.217.872v.984q0 .618.226 1.061.226.439.633.674.405.231.951.231.364 0 .66-.101.296-.106.512-.31.217-.203.328-.503l1.56.176a2.4 2.4 0 0 1-.563 1.08 2.75 2.75 0 0 1-1.052.71q-.643.25-1.468.25m10.171-5.355-1.524.166a1.2 1.2 0 0 0-.226-.434 1.1 1.1 0 0 0-.425-.328 1.55 1.55 0 0 0-.655-.124q-.522 0-.877.226-.351.225-.347.586a.61.61 0 0 0 .227.504q.235.194.775.318l1.21.258q1.006.217 1.496.688.493.471.498 1.233a1.93 1.93 0 0 1-.392 1.182q-.384.507-1.067.794-.683.285-1.569.286-1.302 0-2.096-.545-.794-.549-.947-1.528l1.63-.157q.111.48.471.725t.937.245q.596 0 .956-.245.364-.245.364-.605a.63.63 0 0 0-.235-.503q-.231-.199-.72-.304l-1.21-.254q-1.02-.213-1.509-.716-.49-.507-.485-1.283a1.82 1.82 0 0 1 .355-1.136q.366-.484 1.011-.748.65-.268 1.501-.268 1.247 0 1.962.531.72.531.891 1.436m5.071-1.874v1.292h-4.076v-1.292zm-3.07-1.7h1.671v6.658q0 .336.102.517a.55.55 0 0 0 .277.24q.171.064.378.064.157 0 .286-.023.134-.023.204-.041l.281 1.306q-.134.046-.383.102a3 3 0 0 1-.6.065 2.7 2.7 0 0 1-1.131-.19 1.76 1.76 0 0 1-.799-.655q-.29-.444-.286-1.108z"/><path fill="#ececec" d="M558.604 58.3a1.17 1.17 0 0 0-.503-.87q-.439-.31-1.142-.311-.495 0-.848.15-.354.148-.541.404a.99.99 0 0 0-.069 1.057q.129.2.346.34.216.137.481.23.264.095.533.158l.818.205q.495.115.95.311.46.196.823.494.366.3.579.72.213.422.213.99 0 .765-.392 1.35-.392.58-1.133.908-.738.323-1.786.323-1.018 0-1.768-.315a2.63 2.63 0 0 1-1.168-.92q-.417-.605-.452-1.475h1.556q.034.456.281.759t.644.452q.4.149.894.149.516 0 .904-.154a1.47 1.47 0 0 0 .614-.434q.221-.282.225-.657a.83.83 0 0 0-.2-.562 1.5 1.5 0 0 0-.55-.375 5 5 0 0 0-.818-.273l-.993-.255q-1.078-.277-1.704-.84-.622-.568-.622-1.504 0-.772.417-1.351a2.76 2.76 0 0 1 1.146-.9q.724-.323 1.641-.323.929 0 1.628.324.704.32 1.104.89.4.567.413 1.304zm5.837 6.455q-.98 0-1.684-.43a2.9 2.9 0 0 1-1.078-1.189q-.375-.763-.375-1.756 0-.997.384-1.76.383-.767 1.082-1.193.704-.43 1.662-.43.797 0 1.411.294.618.29.984.822.367.528.418 1.236h-1.475a1.4 1.4 0 0 0-.426-.788q-.332-.32-.891-.32-.473 0-.83.256a1.64 1.64 0 0 0-.559.724q-.196.473-.196 1.134 0 .67.196 1.15.196.478.55.737.358.256.839.256a1.4 1.4 0 0 0 .61-.128q.273-.132.456-.379.183-.248.251-.6h1.475a2.6 2.6 0 0 1-.409 1.23 2.4 2.4 0 0 1-.963.836q-.61.298-1.432.298m6.925 0q-.959 0-1.661-.422a2.86 2.86 0 0 1-1.091-1.18q-.384-.759-.384-1.773t.384-1.777a2.86 2.86 0 0 1 1.091-1.184q.702-.422 1.661-.422t1.662.422 1.087 1.184q.388.763.388 1.777t-.388 1.773q-.384.76-1.087 1.18-.702.422-1.662.422m.009-1.235q.52 0 .869-.286.35-.29.52-.776.175-.485.175-1.082 0-.6-.175-1.087a1.7 1.7 0 0 0-.52-.78q-.349-.29-.869-.29-.533 0-.886.29a1.76 1.76 0 0 0-.525.78q-.17.486-.17 1.087 0 .597.17 1.082.175.486.525.776.353.285.886.285m4.437 1.107v-6.545h1.496v1.09h.068a1.63 1.63 0 0 1 .614-.873 1.7 1.7 0 0 1 1.001-.31q.128 0 .286.012a2 2 0 0 1 .268.03v1.419a1.6 1.6 0 0 0-.311-.06 3 3 0 0 0-.405-.03q-.422 0-.758.184-.333.178-.524.498a1.4 1.4 0 0 0-.192.737v3.848zm4.758 0v-6.545h1.543v6.545zm.776-7.474a.9.9 0 0 1-.631-.243.78.78 0 0 1-.264-.592q0-.349.264-.593a.9.9 0 0 1 .631-.247.88.88 0 0 1 .63.247q.264.243.264.593 0 .345-.264.592a.9.9 0 0 1-.63.243m3.895 3.64v3.834h-1.542v-6.545h1.474v1.112h.077q.226-.55.72-.873.499-.324 1.232-.324.677 0 1.18.29.508.29.784.839.282.55.277 1.334v4.167h-1.542V60.7q0-.657-.341-1.027-.337-.371-.934-.371-.404 0-.72.179-.31.174-.49.507-.174.332-.175.805m8.617 6.425q-.831 0-1.428-.225-.596-.222-.958-.597a2.05 2.05 0 0 1-.503-.831l1.389-.337a1.5 1.5 0 0 0 .273.38q.179.191.481.315.307.128.772.128.656 0 1.086-.32.43-.315.431-1.04v-1.24h-.077q-.12.24-.35.49-.225.252-.6.422-.372.17-.934.17-.753 0-1.368-.353-.61-.358-.971-1.065-.358-.713-.358-1.782 0-1.077.358-1.82.362-.745.976-1.128a2.5 2.5 0 0 1 1.368-.388q.574 0 .946.196.374.191.596.464.222.27.337.507h.085v-1.082h1.521v6.652q0 .84-.4 1.39t-1.095.822-1.577.272m.013-3.895q.49 0 .835-.238.345-.24.524-.686.179-.448.179-1.074 0-.618-.179-1.083-.174-.465-.52-.72-.34-.26-.839-.26-.516 0-.861.269t-.52.737q-.174.465-.175 1.057 0 .6.175 1.052.179.448.524.7.35.246.857.247"/><g clip-path="url(#f)"><mask id="m" fill="#fff"><path d="M32.64 92.027a4 4 0 0 1 4-4h561.72a4 4 0 0 1 4 4v276a4 4 0 0 1-4 4H36.64a4 4 0 0 1-4-4z"/></mask><mask id="g" fill="#fff"><path d="M33.28 88.668h568.44v27.299H33.28z"/></mask><path fill="#201e18" d="M33.28 88.668h568.44v27.299H33.28z"/><path fill="#edecec" fill-opacity=".1" d="M601.72 115.967v-.64H33.28v1.28h568.44z" mask="url(#g)"/><g clip-path="url(#h)"><path fill="#edecec" d="M44.065 105.667v-6h1.168v6zm.59-6.925a.74.74 0 0 1-.523-.203.66.66 0 0 1-.215-.493q0-.288.215-.492a.74.74 0 0 1 .523-.207q.304 0 .52.207.218.204.218.492 0 .285-.218.493a.73.73 0 0 1-.52.203m6.645 2.39-1.058.188a1.3 1.3 0 0 0-.211-.387 1.05 1.05 0 0 0-.383-.301 1.4 1.4 0 0 0-.605-.117q-.496 0-.828.223-.332.219-.332.566 0 .301.222.485.223.183.719.3l.953.219q.829.191 1.234.59.407.399.407 1.035 0 .539-.313.961-.308.418-.863.656-.55.239-1.277.239-1.008 0-1.645-.43-.636-.433-.781-1.231l1.129-.171q.105.44.433.668.329.222.856.222.575 0 .918-.238.343-.243.343-.59a.62.62 0 0 0-.21-.473q-.208-.191-.637-.289l-1.016-.222q-.84-.192-1.242-.61-.399-.417-.398-1.058 0-.531.296-.93a1.94 1.94 0 0 1 .82-.621 3 3 0 0 1 1.2-.227q.973 0 1.531.422.56.419.739 1.121m3.93 4.657q-.845 0-1.473-.387a2.6 2.6 0 0 1-.977-1.082q-.348-.695-.348-1.625 0-.934.348-1.633t.977-1.086 1.472-.387q.845 0 1.473.387.63.387.977 1.086t.347 1.633q0 .93-.348 1.625a2.6 2.6 0 0 1-.976 1.082q-.63.387-1.473.387m.003-.981q.548 0 .906-.289.36-.29.532-.769a3.1 3.1 0 0 0 .175-1.059q0-.574-.175-1.055a1.7 1.7 0 0 0-.532-.777q-.36-.293-.906-.293-.55 0-.914.293-.36.293-.535.777a3.1 3.1 0 0 0-.172 1.055q0 .578.172 1.059.176.48.535.769.363.29.914.289m5.265-7.14v7.999H59.33v-8zm3.317 8.132q-.57 0-1.031-.211a1.73 1.73 0 0 1-.73-.621q-.266-.407-.266-.996 0-.507.195-.836t.528-.519q.33-.192.742-.289.41-.098.836-.149l.875-.101q.335-.044.488-.137t.152-.305v-.027q0-.512-.289-.793-.285-.281-.851-.281-.59 0-.93.261a1.4 1.4 0 0 0-.465.575l-1.098-.25q.195-.547.57-.883a2.3 2.3 0 0 1 .872-.492 3.4 3.4 0 0 1 1.035-.157q.36 0 .762.086.405.083.758.305.354.222.582.637.226.41.226 1.066v3.984h-1.14v-.82h-.047q-.114.227-.34.445a1.8 1.8 0 0 1-.582.364q-.355.144-.852.144m.254-.937q.485 0 .828-.192.348-.19.528-.5.183-.312.183-.668v-.773a.6.6 0 0 1-.242.117 4 4 0 0 1-.402.09q-.227.035-.442.066l-.36.047a3 3 0 0 0-.62.145 1.1 1.1 0 0 0-.446.293q-.164.187-.164.5 0 .434.32.656.32.219.817.219m7.064-5.195v.937h-3.278v-.937zm-2.399-1.438h1.168v5.676q0 .34.102.511a.53.53 0 0 0 .261.231q.164.059.356.059.141 0 .246-.02l.164-.031.21.965a2.4 2.4 0 0 1-.758.125 2.1 2.1 0 0 1-.858-.164 1.5 1.5 0 0 1-.645-.532q-.246-.359-.246-.902zm3.69 7.437v-6h1.168v6zm.59-6.925a.74.74 0 0 1-.523-.203.66.66 0 0 1-.215-.493q0-.288.215-.492a.74.74 0 0 1 .523-.207q.306 0 .52.207.219.204.219.492 0 .285-.22.493a.73.73 0 0 1-.519.203m4.677 7.047q-.843 0-1.472-.387a2.6 2.6 0 0 1-.977-1.082q-.348-.695-.348-1.625 0-.934.348-1.633.347-.699.977-1.086.629-.387 1.472-.387.844 0 1.473.387t.976 1.086.348 1.633q0 .93-.348 1.625a2.6 2.6 0 0 1-.976 1.082q-.63.387-1.473.387m.004-.981q.547 0 .906-.289.36-.29.532-.769.175-.482.175-1.059 0-.574-.175-1.055a1.7 1.7 0 0 0-.532-.777q-.36-.293-.906-.293-.55 0-.914.293-.36.293-.535.777a3.1 3.1 0 0 0-.172 1.055q0 .578.172 1.059.175.48.535.769.363.29.914.289m5.265-2.703v3.562h-1.168v-6h1.12v.977h.075q.207-.477.648-.766.445-.288 1.122-.289.612 0 1.074.258.46.254.715.758t.254 1.246v3.816h-1.168v-3.675q0-.653-.34-1.02-.34-.37-.934-.371-.406 0-.723.176a1.26 1.26 0 0 0-.496.515q-.18.336-.18.813m11.173-2.437v.937h-3.391v-.937zm-2.461 5.999v-6.695q0-.562.246-.933.246-.375.652-.559a2.1 2.1 0 0 1 .883-.187q.352 0 .601.058.25.055.371.102l-.273.945-.21-.055a1.2 1.2 0 0 0-.313-.035q-.426 0-.61.211-.18.21-.18.61v6.538zm5.957.122q-.844 0-1.473-.387a2.6 2.6 0 0 1-.977-1.082q-.347-.695-.347-1.625 0-.934.347-1.633.348-.699.977-1.086.63-.387 1.473-.387t1.472.387.977 1.086.348 1.633q0 .93-.348 1.625a2.6 2.6 0 0 1-.977 1.082q-.629.387-1.472.387m.004-.981q.546 0 .906-.289.36-.29.531-.769.176-.482.176-1.059 0-.574-.176-1.055a1.7 1.7 0 0 0-.531-.777q-.36-.293-.906-.293-.551 0-.914.293-.36.293-.536.777a3.1 3.1 0 0 0-.172 1.055q0 .578.172 1.059.176.48.535.769.364.29.915.289m4.096.859v-6h1.129v.954h.063a1.45 1.45 0 0 1 .578-.762q.418-.282.945-.281a5 5 0 0 1 .496.027v1.117a2 2 0 0 0-.25-.043 2.4 2.4 0 0 0-.359-.027q-.414 0-.738.176a1.3 1.3 0 0 0-.696 1.175v3.664zm6.593.122q-.886 0-1.527-.379a2.6 2.6 0 0 1-.985-1.075q-.343-.695-.343-1.628 0-.923.343-1.625.348-.703.969-1.098.625-.395 1.461-.395.508 0 .984.168.477.168.856.528.379.358.597.933.219.57.219 1.387v.414h-4.769v-.875h3.625q0-.46-.188-.816a1.42 1.42 0 0 0-1.316-.774q-.492 0-.86.242a1.63 1.63 0 0 0-.562.625 1.8 1.8 0 0 0-.195.832v.684q0 .602.211 1.023.215.423.597.645.383.219.895.219.332 0 .605-.094.274-.097.473-.289t.305-.473l1.105.199a2 2 0 0 1-.477.856 2.3 2.3 0 0 1-.855.566q-.511.2-1.168.2m8.366-4.657-1.058.188a1.3 1.3 0 0 0-.211-.387 1.05 1.05 0 0 0-.383-.301 1.4 1.4 0 0 0-.606-.117q-.495 0-.828.223-.332.219-.332.566 0 .301.223.485.222.183.719.3l.953.219q.828.191 1.234.59t.406 1.035q0 .539-.312.961a2.05 2.05 0 0 1-.863.656q-.551.239-1.278.239-1.008 0-1.644-.43-.637-.433-.781-1.231l1.128-.171q.106.44.434.668.329.222.855.222.574 0 .918-.238.344-.243.344-.59a.61.61 0 0 0-.211-.473q-.207-.191-.636-.289l-1.016-.222q-.84-.192-1.242-.61-.399-.417-.399-1.058 0-.531.297-.93t.82-.621a3 3 0 0 1 1.2-.227q.973 0 1.531.422.558.419.738 1.121m4.202-1.465v.938h-3.277v-.937zm-2.398-1.437h1.168v5.676q0 .34.101.511a.53.53 0 0 0 .262.231q.165.059.356.059.14 0 .246-.02l.164-.031.211.965a2.4 2.4 0 0 1-.758.125 2.1 2.1 0 0 1-.859-.164 1.5 1.5 0 0 1-.645-.532q-.246-.359-.246-.902zm7.371 4.715a.76.76 0 0 1-.551-.227.76.76 0 0 1-.23-.554.74.74 0 0 1 .23-.547.75.75 0 0 1 .551-.231q.32 0 .551.231a.74.74 0 0 1 .23.547.74.74 0 0 1-.109.394.8.8 0 0 1-.281.281.74.74 0 0 1-.391.106m7.855 2.84q-.903 0-1.559-.375a2.54 2.54 0 0 1-1.004-1.071q-.352-.695-.352-1.636 0-.927.352-1.625.356-.704.992-1.094.637-.395 1.496-.395.555 0 1.047.18.497.176.875.547.383.37.602.945.218.57.218 1.36v.433h-4.917v-.953h3.562a1.5 1.5 0 0 0-.176-.723 1.27 1.27 0 0 0-.48-.503 1.35 1.35 0 0 0-.711-.184q-.433 0-.762.211-.328.207-.512.547-.18.336-.183.738v.832q0 .523.191.898.192.372.535.571.345.195.805.195.309 0 .559-.086.25-.09.433-.262.184-.171.278-.425l1.32.148a2.05 2.05 0 0 1-.477.914 2.3 2.3 0 0 1-.89.602q-.543.21-1.242.211m9.051-6.117-2.136 5.999h-1.563l-2.137-6h1.508l1.379 4.458h.063l1.382-4.457zm2.533 6.121q-.57 0-1.027-.204a1.7 1.7 0 0 1-.719-.609q-.261-.402-.261-.992 0-.508.187-.84.188-.331.512-.531a2.6 2.6 0 0 1 .73-.301 6 6 0 0 1 .848-.152q.528-.055.855-.098.328-.047.477-.141.153-.097.152-.3v-.024q0-.441-.261-.683-.262-.243-.754-.243-.52 0-.824.227a1.13 1.13 0 0 0-.407.535l-1.32-.187q.156-.548.516-.914.359-.372.879-.555a3.4 3.4 0 0 1 1.148-.188q.434 0 .863.102.43.102.785.336.355.23.571.629.218.398.218.996v4.015h-1.359v-.824h-.047a1.7 1.7 0 0 1-.363.469 1.8 1.8 0 0 1-.582.348 2.4 2.4 0 0 1-.817.129m.368-1.039q.426 0 .738-.168.312-.172.48-.454a1.15 1.15 0 0 0 .172-.613v-.707a.7.7 0 0 1-.226.102 3 3 0 0 1-.352.082q-.195.035-.387.062l-.332.047a2.5 2.5 0 0 0-.566.141.94.94 0 0 0-.395.273.67.67 0 0 0-.144.445q0 .391.285.59.285.2.727.2m5.636-7.082v7.999h-1.414v-8zm5.279 5.476v-3.477h1.414v6h-1.371v-1.066h-.063a1.8 1.8 0 0 1-.668.824q-.46.321-1.137.321a2.05 2.05 0 0 1-1.042-.262 1.8 1.8 0 0 1-.704-.77q-.254-.507-.254-1.226v-3.82h1.415v3.601q0 .57.312.906.313.336.82.336.314 0 .606-.152.292-.153.48-.453.192-.304.192-.762m4.594 2.645q-.57 0-1.027-.204a1.7 1.7 0 0 1-.719-.609q-.261-.402-.261-.992 0-.508.187-.84.188-.331.512-.531t.73-.301a6 6 0 0 1 .848-.152q.528-.055.855-.098.328-.047.477-.141.152-.097.152-.3v-.024q0-.441-.261-.683-.262-.243-.754-.243-.52 0-.824.227a1.13 1.13 0 0 0-.407.535l-1.32-.187q.156-.548.516-.914.359-.372.878-.555a3.4 3.4 0 0 1 1.149-.188q.434 0 .863.102.43.102.785.336.355.23.571.629.218.398.218.996v4.015h-1.359v-.824h-.047a1.7 1.7 0 0 1-.363.469 1.8 1.8 0 0 1-.582.348 2.4 2.4 0 0 1-.817.129m.368-1.039q.425 0 .738-.168.312-.172.48-.454a1.15 1.15 0 0 0 .172-.613v-.707a.7.7 0 0 1-.226.102 3 3 0 0 1-.352.082q-.195.035-.387.062l-.332.047a2.5 2.5 0 0 0-.566.141.94.94 0 0 0-.395.273.67.67 0 0 0-.144.445q0 .391.285.59.285.2.727.2m7.218-5.082v1.093h-3.449v-1.093zm-2.597-1.438h1.414v5.633q0 .285.086.437.09.149.234.203a.9.9 0 0 0 .32.055q.133 0 .243-.019.113-.02.171-.036l.239 1.106a2.8 2.8 0 0 1-.832.141 2.3 2.3 0 0 1-.957-.161 1.5 1.5 0 0 1-.676-.554q-.246-.375-.242-.938zm6.372 7.555q-.903 0-1.559-.375a2.55 2.55 0 0 1-1.004-1.071q-.351-.695-.351-1.636 0-.927.351-1.625.356-.704.992-1.094.637-.395 1.497-.395.554 0 1.046.18.497.176.875.547.383.37.602.945.219.57.219 1.36v.433h-4.918v-.953h3.562a1.5 1.5 0 0 0-.175-.723 1.3 1.3 0 0 0-.481-.503 1.35 1.35 0 0 0-.711-.184q-.433 0-.762.211-.327.207-.511.547-.18.336-.184.738v.832q0 .523.191.898.192.372.536.571.344.195.804.195.309 0 .559-.086a1.2 1.2 0 0 0 .434-.262q.183-.171.277-.425l1.32.148a2.06 2.06 0 0 1-.476.914 2.3 2.3 0 0 1-.891.602q-.543.21-1.242.211m6.091-.012a2.27 2.27 0 0 1-1.266-.363q-.558-.364-.883-1.055-.324-.692-.324-1.68 0-1 .328-1.687.332-.692.895-1.043a2.3 2.3 0 0 1 1.254-.356q.526 0 .867.18.34.175.539.426.199.246.308.465h.059v-2.992h1.418v7.999h-1.391v-.945h-.086a2.4 2.4 0 0 1-.316.465q-.207.242-.547.414t-.855.172m.394-1.16q.45 0 .766-.242a1.5 1.5 0 0 0 .48-.684q.165-.437.164-1.02 0-.582-.164-1.011a1.44 1.44 0 0 0-.476-.668 1.23 1.23 0 0 0-.77-.238q-.472 0-.789.246a1.5 1.5 0 0 0-.476.679q-.16.434-.161.992 0 .563.161 1.004.163.438.48.692.32.25.785.25m7.036 1.054v-6h1.414v6zm.711-6.851a.83.83 0 0 1-.578-.223.72.72 0 0 1-.242-.543q0-.32.242-.543a.82.82 0 0 1 .578-.226q.34 0 .578.226.243.224.243.543 0 .316-.243.543a.82.82 0 0 1-.578.223m3.572 3.336v3.515h-1.415v-6h1.352v1.02h.07q.207-.504.66-.8.457-.298 1.129-.298.621 0 1.082.266.465.266.719.77.258.503.254 1.222v3.82h-1.414v-3.601q0-.602-.312-.941-.309-.34-.856-.34-.37 0-.66.164-.285.16-.449.465-.16.305-.16.738m8.017 3.515v-6h1.371v1h.063a1.496 1.496 0 0 1 1.48-1.085q.117 0 .262.011.148.008.246.028v1.3a1.5 1.5 0 0 0-.285-.054 2.5 2.5 0 0 0-.371-.028q-.387 0-.696.168a1.23 1.23 0 0 0-.656 1.133v3.527zm6.771.118q-.903 0-1.559-.375a2.54 2.54 0 0 1-1.004-1.071q-.351-.695-.351-1.636 0-.927.351-1.625.356-.704.992-1.094.637-.395 1.496-.395.555 0 1.047.18.497.176.875.547.383.37.602.945.219.57.219 1.36v.433h-4.918v-.953h3.562a1.5 1.5 0 0 0-.176-.723 1.27 1.27 0 0 0-.48-.503 1.35 1.35 0 0 0-.711-.184q-.433 0-.762.211-.328.207-.512.547-.18.336-.183.738v.832q0 .523.191.898.192.372.535.571.345.195.805.195.309 0 .559-.086.25-.09.433-.262.184-.171.278-.425l1.32.148a2.05 2.05 0 0 1-.477.914 2.3 2.3 0 0 1-.89.602q-.543.21-1.242.211m5.59.004q-.57 0-1.027-.204a1.7 1.7 0 0 1-.719-.609q-.261-.402-.261-.992 0-.508.187-.84.188-.331.512-.531t.73-.301a6 6 0 0 1 .848-.152q.528-.055.855-.098.328-.047.477-.141.152-.097.152-.3v-.024q0-.441-.261-.683-.262-.243-.754-.243-.52 0-.825.227a1.13 1.13 0 0 0-.406.535l-1.32-.187q.156-.548.516-.914.359-.372.878-.555a3.4 3.4 0 0 1 1.149-.188q.434 0 .863.102.43.102.785.336.355.23.571.629.218.398.218.996v4.015h-1.359v-.824h-.047a1.7 1.7 0 0 1-.363.469 1.8 1.8 0 0 1-.582.348 2.4 2.4 0 0 1-.817.129m.368-1.039q.425 0 .738-.168.312-.172.48-.454a1.15 1.15 0 0 0 .172-.613v-.707a.7.7 0 0 1-.226.102 4 4 0 0 1-.352.082q-.195.035-.387.062l-.332.047a2.5 2.5 0 0 0-.566.141.94.94 0 0 0-.395.273.67.67 0 0 0-.144.445q0 .391.285.59.285.2.727.2m5.636-7.082v7.999h-1.414v-8zm7.179 2v1.093h-3.449v-1.093zm-2.598-1.438h1.414v5.633q0 .285.086.437a.46.46 0 0 0 .235.203.9.9 0 0 0 .32.055q.133 0 .242-.019.114-.02.172-.036l.238 1.106a2.7 2.7 0 0 1-.832.141 2.3 2.3 0 0 1-.957-.161 1.5 1.5 0 0 1-.675-.554q-.247-.375-.243-.938zm3.781 7.437v-6h1.414v6zm.711-6.851a.83.83 0 0 1-.579-.223.72.72 0 0 1-.242-.543q0-.32.242-.543a.82.82 0 0 1 .579-.226.8.8 0 0 1 .578.226q.242.224.242.543a.72.72 0 0 1-.242.543.82.82 0 0 1-.578.223m2.157 6.851v-6h1.351v1.02h.071a1.6 1.6 0 0 1 .621-.805q.433-.293 1.035-.293.61 0 1.027.297.422.293.594.801h.063q.198-.5.671-.797.477-.3 1.129-.3.828 0 1.352.523.523.524.523 1.527v4.027h-1.418v-3.808q0-.56-.297-.817a1.06 1.06 0 0 0-.726-.261q-.512 0-.801.32-.285.317-.285.824v3.742h-1.387V101.8q0-.465-.281-.742-.277-.277-.727-.277-.305 0-.554.156a1.1 1.1 0 0 0-.399.434 1.35 1.35 0 0 0-.148.648v3.648zm12.528.118q-.902 0-1.558-.375a2.54 2.54 0 0 1-1.004-1.071q-.352-.695-.352-1.636 0-.927.352-1.625.355-.704.992-1.094.636-.395 1.496-.395.555 0 1.047.18.496.176.875.547.383.37.601.945.219.57.219 1.36v.433h-4.918v-.953h3.563a1.5 1.5 0 0 0-.176-.723 1.3 1.3 0 0 0-.481-.503 1.35 1.35 0 0 0-.711-.184q-.434 0-.761.211-.329.207-.512.547-.18.336-.184.738v.832q0 .523.192.898.191.372.535.571.343.195.805.195.308 0 .558-.086a1.2 1.2 0 0 0 .434-.262q.184-.171.277-.425l1.321.148a2.1 2.1 0 0 1-.477.914 2.3 2.3 0 0 1-.891.602q-.543.21-1.242.211"/></g><mask id="i" fill="#fff"><path d="M33.28 115.967h569v39h-569z"/></mask><path fill="#1b1913" d="M33.28 115.967h569v39h-569z"/><path fill="#fff" fill-opacity=".09" d="M602.28 154.967v-.64h-569v1.28h569z" mask="url(#i)"/><path fill="#3fb950" fill-opacity=".85" d="M62.28 145.667a10 10 0 1 1-.001-20.001 10 10 0 0 1 .001 20.001m4.725-12.15a.935.935 0 0 0-.67-1.576.94.94 0 0 0-.655.251l-4.963 4.963-1.837-1.838a.94.94 0 0 0-1.303.023.94.94 0 0 0-.022 1.302l2.5 2.5a.937.937 0 0 0 1.325 0z"/><path fill="#edecec" d="M88.319 139.967v-9.454h1.426v8.226h4.284v1.228zm10.214.143q-.998 0-1.74-.457a3.1 3.1 0 0 1-1.155-1.278q-.41-.822-.41-1.921 0-1.103.41-1.93.411-.825 1.154-1.283.744-.457 1.74-.457.999 0 1.741.457.743.458 1.154 1.283.411.827.411 1.93 0 1.1-.411 1.921a3.1 3.1 0 0 1-1.154 1.278q-.743.457-1.74.457m.004-1.158q.647 0 1.071-.342a2 2 0 0 0 .628-.909q.208-.569.208-1.251 0-.679-.208-1.247a2.03 2.03 0 0 0-.628-.919q-.425-.345-1.07-.346-.653 0-1.08.346a2.06 2.06 0 0 0-.633.919 3.7 3.7 0 0 0-.204 1.247q0 .683.204 1.251.207.567.632.909.429.342 1.08.342m7.815 3.822q-.845 0-1.454-.221a2.8 2.8 0 0 1-.988-.587 2.5 2.5 0 0 1-.573-.798l1.187-.49q.125.204.332.43.212.23.573.392.364.162.937.162.784 0 1.297-.384.512-.378.512-1.209v-1.394h-.087q-.125.225-.36.503a1.9 1.9 0 0 1-.638.48q-.405.203-1.057.203-.84 0-1.514-.392-.669-.397-1.062-1.168-.387-.776-.387-1.907 0-1.13.383-1.939.387-.808 1.061-1.237.674-.434 1.529-.434.66 0 1.066.222.407.217.632.507.231.291.356.513h.101v-1.15h1.353v7.248q0 .915-.425 1.501t-1.149.867a4.4 4.4 0 0 1-1.625.282m-.014-4.058q.595 0 1.006-.277.416-.281.628-.803.217-.526.217-1.26 0-.715-.212-1.261a1.87 1.87 0 0 0-.623-.849q-.411-.309-1.016-.309-.623 0-1.039.323a1.95 1.95 0 0 0-.628.868 3.5 3.5 0 0 0-.207 1.228q0 .696.212 1.223.213.526.628.822.42.295 1.034.295m5.064 1.251v-7.091h1.381v7.091zm.697-8.185a.88.88 0 0 1-.618-.24.78.78 0 0 1-.254-.581q0-.342.254-.582a.87.87 0 0 1 .618-.245q.36 0 .614.245.26.24.259.582a.77.77 0 0 1-.259.581.86.86 0 0 1-.614.24m3.921 3.975v4.21h-1.38v-7.091h1.325v1.154h.087q.245-.563.767-.904.526-.342 1.324-.342.726 0 1.27.305.545.3.845.895t.3 1.473v4.51h-1.38v-4.344q0-.77-.402-1.205-.402-.438-1.103-.438-.48 0-.854.207a1.5 1.5 0 0 0-.587.61q-.212.397-.212.96m11.21 0v4.21h-1.38v-9.454h1.361v3.517h.088q.249-.571.762-.909.512-.337 1.339-.337.73 0 1.274.3.549.3.849.896.305.59.305 1.477v4.51h-1.38v-4.344q0-.78-.402-1.209-.402-.435-1.117-.434-.49 0-.877.207a1.5 1.5 0 0 0-.605.61q-.217.397-.217.96m6.44 4.21v-7.091h1.38v7.091zm.697-8.185a.88.88 0 0 1-.619-.24.78.78 0 0 1-.254-.581q0-.342.254-.582a.87.87 0 0 1 .619-.245q.36 0 .614.245.258.24.258.582a.77.77 0 0 1-.258.581.86.86 0 0 1-.614.24m7.854 2.826-1.251.221a1.5 1.5 0 0 0-.25-.457 1.2 1.2 0 0 0-.452-.355q-.286-.14-.716-.139-.586 0-.978.263-.393.26-.393.67 0 .355.263.572.264.217.85.356l1.126.258q.98.226 1.459.697t.48 1.224q0 .637-.369 1.135-.365.495-1.02.776-.65.281-1.51.281-1.191 0-1.943-.507-.753-.513-.924-1.455l1.334-.203q.124.522.513.79.387.263 1.011.263.678 0 1.085-.282.406-.286.406-.697a.72.72 0 0 0-.249-.558q-.244-.226-.753-.342l-1.2-.263q-.993-.226-1.468-.72-.471-.495-.471-1.251 0-.628.351-1.099t.969-.734q.619-.268 1.418-.268 1.149 0 1.809.499.66.494.873 1.325m4.966-1.732v1.108h-3.873v-1.108zm-2.835-1.698h1.381v6.707q0 .402.12.605.12.198.309.272.194.07.42.07.166 0 .291-.023l.194-.037.249 1.14q-.12.046-.341.092a2.7 2.7 0 0 1-.554.056 2.4 2.4 0 0 1-1.016-.194 1.75 1.75 0 0 1-.762-.628q-.291-.425-.291-1.067zm7.272 8.932q-.996 0-1.74-.457a3.1 3.1 0 0 1-1.154-1.278q-.411-.822-.411-1.921 0-1.103.411-1.93.411-.825 1.154-1.283.744-.457 1.74-.457.997 0 1.741.457.743.458 1.154 1.283.411.827.411 1.93 0 1.1-.411 1.921a3.1 3.1 0 0 1-1.154 1.278q-.744.457-1.741.457m.005-1.158q.647 0 1.071-.342.425-.342.628-.909.208-.569.208-1.251 0-.679-.208-1.247a2.03 2.03 0 0 0-.628-.919q-.424-.345-1.071-.346-.651 0-1.08.346a2.07 2.07 0 0 0-.633.919 3.7 3.7 0 0 0-.203 1.247q0 .683.203 1.251.209.567.633.909.429.342 1.08.342m4.842 1.015v-7.091h1.334v1.127h.074a1.7 1.7 0 0 1 .683-.9 1.95 1.95 0 0 1 1.117-.333 6 6 0 0 1 .586.033v1.32a2 2 0 0 0-.295-.051 3 3 0 0 0-.425-.032q-.49 0-.872.207a1.54 1.54 0 0 0-.822 1.39v4.33zm6.077 2.659q-.31 0-.563-.05a1.8 1.8 0 0 1-.379-.102l.333-1.131q.378.102.674.088a.8.8 0 0 0 .522-.222q.23-.208.406-.679l.171-.47-2.595-7.184h1.477l1.796 5.503h.074l1.796-5.503h1.482l-2.922 8.038a3.2 3.2 0 0 1-.518.937 2 2 0 0 1-.747.581q-.434.194-1.007.194m351.422-5.009-.007-1.296h.185l2.173-2.308h1.272l-2.479 2.628h-.167zm-.976 1.85v-7.272h1.062v7.272zm3.444 0-1.953-2.592.732-.742 2.525 3.334zm3.184-3.238v3.238h-1.062v-5.454h1.019v.888h.068q.188-.433.589-.696.405-.263 1.02-.263.557 0 .976.234.419.231.65.689t.231 1.133v3.469h-1.062v-3.341q0-.594-.309-.927-.309-.338-.849-.338-.369 0-.657.16a1.16 1.16 0 0 0-.451.469q-.163.306-.163.739m7.212 3.348q-.766 0-1.338-.351a2.36 2.36 0 0 1-.888-.984q-.316-.632-.316-1.477 0-.849.316-1.485.315-.635.888-.987.572-.351 1.338-.351.768 0 1.339.351.572.353.888.987.316.636.316 1.485 0 .845-.316 1.477a2.4 2.4 0 0 1-.888.984q-.571.351-1.339.351m.004-.891q.497 0 .824-.263.327-.262.483-.699a2.8 2.8 0 0 0 .16-.963q0-.522-.16-.958a1.56 1.56 0 0 0-.483-.707q-.327-.267-.824-.266-.501 0-.831.266-.327.266-.487.707-.156.436-.156.958 0 .526.156.963.16.436.487.699.33.263.831.263m4.741.781-1.605-5.454h1.097l1.069 4.005h.053l1.072-4.005h1.098l1.065 3.988h.053l1.062-3.988h1.097l-1.601 5.454h-1.083l-1.108-3.938h-.082l-1.108 3.938zm8.131-3.238v3.238h-1.062v-5.454h1.019v.888h.068q.188-.433.589-.696.405-.263 1.019-.263.558 0 .977.234.419.231.65.689t.231 1.133v3.469h-1.062v-3.341q0-.594-.309-.927-.309-.338-.849-.338-.369 0-.657.16a1.16 1.16 0 0 0-.451.469q-.163.306-.163.739m7.561 5.284v-7.5h1.037v.884h.089q.092-.17.266-.394t.483-.391q.309-.17.817-.17.66 0 1.179.334.519.333.813.962.298.628.298 1.513t-.294 1.516a2.3 2.3 0 0 1-.81.969 2.1 2.1 0 0 1-1.175.338q-.498 0-.814-.167a1.55 1.55 0 0 1-.49-.391 3 3 0 0 1-.273-.397h-.064v2.894zm1.041-4.773q0 .576.167 1.009t.482.678q.316.241.775.241.476 0 .795-.252.32-.255.483-.692.167-.437.167-.984 0-.54-.163-.969a1.5 1.5 0 0 0-.483-.679q-.32-.248-.799-.248a1.27 1.27 0 0 0-.782.238q-.315.237-.479.664a2.8 2.8 0 0 0-.163.994m6.718 2.848q-.518 0-.937-.192a1.6 1.6 0 0 1-.664-.564q-.242-.37-.242-.906 0-.462.178-.76.177-.298.479-.472t.675-.263a7 7 0 0 1 .76-.135l.795-.092q.306-.04.444-.124.14-.086.139-.277v-.025q0-.465-.263-.721-.26-.256-.774-.256-.536 0-.845.238-.306.234-.423.522l-.998-.227a1.9 1.9 0 0 1 .519-.803q.344-.309.792-.447a3 3 0 0 1 .941-.142q.326 0 .692.078.37.075.689.277.323.202.529.579.206.372.206.969v3.622h-1.037v-.745h-.042a1.5 1.5 0 0 1-.309.404 1.7 1.7 0 0 1-.529.331 2.1 2.1 0 0 1-.775.131m.231-.852q.441 0 .753-.174a1.21 1.21 0 0 0 .646-1.062v-.703a.55.55 0 0 1-.22.106 3 3 0 0 1-.366.082l-.401.06-.327.043a2.7 2.7 0 0 0-.564.131 1 1 0 0 0-.405.267.67.67 0 0 0-.149.454q0 .394.291.597.292.199.742.199m6.422-4.723v.852h-2.98v-.852zm-2.181-1.307h1.062v5.16q0 .309.092.465a.48.48 0 0 0 .238.209q.15.054.323.054.128 0 .224-.018l.149-.028.192.877a2 2 0 0 1-.689.113 1.9 1.9 0 0 1-.781-.149 1.33 1.33 0 0 1-.586-.483q-.224-.327-.224-.82zm5.901 1.307v.852h-2.979v-.852zm-2.18-1.307h1.062v5.16q0 .309.092.465a.48.48 0 0 0 .238.209 1 1 0 0 0 .323.054q.128 0 .224-.018l.149-.028.192.877a2 2 0 0 1-.689.113q-.42.007-.781-.149a1.33 1.33 0 0 1-.586-.483q-.225-.327-.224-.82zm5.647 6.871q-.806 0-1.388-.344a2.33 2.33 0 0 1-.895-.977q-.313-.632-.313-1.48 0-.839.313-1.478.316-.64.88-.998.569-.358 1.328-.358.462 0 .895.152.433.153.778.48t.543.849q.2.517.199 1.26v.377h-4.336v-.796h3.296q0-.419-.171-.742a1.3 1.3 0 0 0-.479-.515 1.35 1.35 0 0 0-.717-.188q-.448 0-.782.22a1.5 1.5 0 0 0-.511.568 1.65 1.65 0 0 0-.178.757v.621q0 .548.192.93.195.384.543.586.35.2.814.199.301 0 .55-.085.249-.089.43-.263a1.14 1.14 0 0 0 .277-.429l1.005.181a1.8 1.8 0 0 1-.433.777 2.1 2.1 0 0 1-.778.515q-.465.181-1.062.181m3.518-.11v-5.454h1.027v.866h.056q.15-.44.526-.692a1.5 1.5 0 0 1 .859-.256 4 4 0 0 1 .451.025v1.016a2 2 0 0 0-.227-.04 2 2 0 0 0-.327-.024q-.376 0-.671.159a1.19 1.19 0 0 0-.632 1.069v3.331zm4.9-3.238v3.238h-1.062v-5.454h1.019v.888h.068q.188-.433.589-.696.405-.263 1.02-.263.557 0 .976.234.419.231.65.689t.231 1.133v3.469h-1.062v-3.341q0-.594-.309-.927-.309-.338-.849-.338-.369 0-.657.16a1.16 1.16 0 0 0-.451.469q-.163.306-.163.739"/><mask id="j" fill="#fff"><path d="M33.28 154.967h569v39h-569z"/></mask><path fill="#fff" fill-opacity=".06" d="M602.28 193.967v-1h-569v2h569z" mask="url(#j)"/><path fill="#3fb950" fill-opacity=".85" d="M62.28 184.167a10 10 0 1 1-.001-20.001 10 10 0 0 1 .001 20.001m4.725-12.15a.935.935 0 0 0-.67-1.576.94.94 0 0 0-.655.251l-4.963 4.963-1.837-1.838a.94.94 0 0 0-1.303.023.94.94 0 0 0-.022 1.302l2.5 2.5a.937.937 0 0 0 1.325 0z"/><path fill="#edecec" d="M89.117 178.467h-1.514l3.403-9.454h1.648l3.402 9.454h-1.514l-2.673-7.737h-.074zm.254-3.702h4.912v1.2h-4.912zm10.812 3.845q-1.029 0-1.773-.466a3.1 3.1 0 0 1-1.135-1.297q-.397-.826-.397-1.893 0-1.08.406-1.906.405-.831 1.145-1.298.738-.466 1.74-.466.808 0 1.441.3a2.6 2.6 0 0 1 1.02.831q.392.536.466 1.251h-1.343a1.6 1.6 0 0 0-.508-.859q-.393-.36-1.053-.36-.576 0-1.01.305-.43.3-.67.859-.24.553-.24 1.311 0 .775.235 1.339.236.563.665.872.435.309 1.02.309.393 0 .711-.143.324-.147.54-.42.222-.272.31-.655h1.343a2.6 2.6 0 0 1-.448 1.228q-.374.54-1.001.849-.624.309-1.464.309m7.699-7.234v1.108h-3.873v-1.108zm-2.834-1.698h1.38v6.707q0 .402.12.605.12.198.309.272.195.07.42.07.166 0 .291-.023l.194-.037.249 1.14q-.12.046-.341.092a2.7 2.7 0 0 1-.554.056 2.4 2.4 0 0 1-1.016-.194 1.74 1.74 0 0 1-.761-.628q-.291-.425-.291-1.067zm4.361 8.789v-7.091h1.38v7.091zm.697-8.185a.88.88 0 0 1-.618-.24.78.78 0 0 1-.254-.581q0-.342.254-.582a.87.87 0 0 1 .618-.245q.36 0 .614.245.26.24.259.582a.77.77 0 0 1-.259.581.86.86 0 0 1-.614.24m5.527 8.328q-.997 0-1.74-.457a3.1 3.1 0 0 1-1.154-1.278q-.411-.822-.411-1.921 0-1.103.411-1.93.41-.825 1.154-1.283.743-.457 1.74-.457t1.741.457q.743.458 1.154 1.283.411.827.411 1.93 0 1.1-.411 1.921a3.1 3.1 0 0 1-1.154 1.278q-.744.457-1.741.457m.005-1.158q.647 0 1.071-.342a2 2 0 0 0 .628-.909q.207-.569.208-1.251 0-.679-.208-1.247a2.04 2.04 0 0 0-.628-.919q-.424-.345-1.071-.346-.651 0-1.08.346a2.06 2.06 0 0 0-.633.919 3.7 3.7 0 0 0-.203 1.247q0 .683.203 1.251.208.567.633.909.429.342 1.08.342m6.222-3.195v4.21h-1.381v-7.091h1.325v1.154h.088q.245-.563.766-.904.527-.342 1.325-.342.726 0 1.27.305.545.3.845.895t.3 1.473v4.51h-1.381v-4.344q0-.77-.401-1.205-.402-.438-1.104-.438-.48 0-.854.207a1.5 1.5 0 0 0-.586.61q-.212.397-.212.96m12.816 4.353q-1.03 0-1.772-.466a3.1 3.1 0 0 1-1.136-1.297q-.397-.826-.397-1.893 0-1.08.406-1.906a3.1 3.1 0 0 1 1.145-1.298q.739-.466 1.74-.466.808 0 1.441.3a2.6 2.6 0 0 1 1.02.831q.393.536.466 1.251h-1.343a1.6 1.6 0 0 0-.508-.859q-.392-.36-1.053-.36-.576 0-1.011.305-.429.3-.669.859-.24.553-.24 1.311 0 .775.235 1.339.236.563.665.872.435.309 1.02.309.393 0 .711-.143.324-.147.541-.42.22-.272.309-.655h1.343a2.6 2.6 0 0 1-.448 1.228q-.374.54-1.001.849-.624.309-1.464.309m7.376 0q-.998 0-1.74-.457a3.1 3.1 0 0 1-1.154-1.278q-.411-.822-.411-1.921 0-1.103.411-1.93.41-.825 1.154-1.283.743-.457 1.74-.457t1.741.457q.743.458 1.154 1.283.411.827.411 1.93 0 1.1-.411 1.921a3.1 3.1 0 0 1-1.154 1.278q-.744.457-1.741.457m.005-1.158q.647 0 1.071-.342a2 2 0 0 0 .628-.909q.207-.569.207-1.251 0-.679-.207-1.247a2.04 2.04 0 0 0-.628-.919q-.424-.345-1.071-.346-.651 0-1.08.346a2.06 2.06 0 0 0-.633.919 3.7 3.7 0 0 0-.203 1.247q0 .683.203 1.251.208.567.633.909.429.342 1.08.342m6.222-3.195v4.21h-1.381v-7.091h1.325v1.154h.088q.245-.563.766-.904.527-.342 1.325-.342.725 0 1.27.305.545.3.845.895t.3 1.473v4.51h-1.381v-4.344q0-.77-.401-1.205-.402-.438-1.104-.438-.48 0-.854.207a1.5 1.5 0 0 0-.586.61q-.212.397-.212.96m9.699-2.881v1.108h-3.873v-1.108zm-2.835-1.698h1.381v6.707q0 .402.12.605.12.198.309.272.194.07.42.07.166 0 .291-.023l.194-.037.249 1.14q-.12.046-.341.092a2.7 2.7 0 0 1-.554.056 2.4 2.4 0 0 1-1.016-.194 1.75 1.75 0 0 1-.762-.628q-.291-.425-.291-1.067zm7.342 8.932q-1.049 0-1.805-.447a3.04 3.04 0 0 1-1.164-1.27q-.406-.821-.406-1.925 0-1.089.406-1.92a3.16 3.16 0 0 1 1.145-1.298q.739-.466 1.727-.466.6 0 1.163.199.564.198 1.011.623.448.425.706 1.103.26.674.259 1.639v.489h-5.637v-1.034h4.284q0-.545-.221-.965a1.7 1.7 0 0 0-.623-.669 1.75 1.75 0 0 0-.933-.245q-.582 0-1.016.287a1.9 1.9 0 0 0-.664.738q-.231.453-.231.983v.808q0 .71.249 1.21.254.498.706.762a2.1 2.1 0 0 0 1.058.258q.392 0 .715-.111a1.48 1.48 0 0 0 .919-.9l1.306.236a2.4 2.4 0 0 1-.563 1.011 2.7 2.7 0 0 1-1.011.669 3.8 3.8 0 0 1-1.38.235m5.498-7.234 1.565 2.761 1.579-2.761h1.509l-2.211 3.546 2.23 3.545h-1.51l-1.597-2.65-1.593 2.65h-1.514l2.207-3.545-2.179-3.546zm9.381 0v1.108h-3.874v-1.108zm-2.835-1.698h1.38v6.707q0 .402.12.605a.63.63 0 0 0 .31.272q.194.07.42.07.166 0 .291-.023l.194-.037.249 1.14q-.12.046-.342.092a2.7 2.7 0 0 1-.554.056 2.4 2.4 0 0 1-1.015-.194 1.75 1.75 0 0 1-.762-.628q-.291-.425-.291-1.067zm379.011 2.835v.852h-2.979v-.852zm-2.18-1.307h1.061v5.16q0 .309.093.465a.47.47 0 0 0 .238.209 1 1 0 0 0 .323.054q.128 0 .223-.018l.15-.028.191.877a2.1 2.1 0 0 1-.689.113 1.9 1.9 0 0 1-.781-.149 1.34 1.34 0 0 1-.586-.483q-.223-.327-.223-.82zm4.026 8.807a2.2 2.2 0 0 1-.725-.117l.256-.87q.291.078.518.067a.62.62 0 0 0 .402-.17q.177-.16.312-.522l.132-.363-1.996-5.525h1.136l1.382 4.233h.056l1.382-4.233h1.14l-2.248 6.182a2.5 2.5 0 0 1-.398.721 1.55 1.55 0 0 1-.575.448 1.9 1.9 0 0 1-.774.149m4.993 0v-7.5h1.037v.884h.088a3 3 0 0 1 .267-.394q.174-.224.483-.391.309-.17.816-.17.662 0 1.179.334.519.333.814.962.298.628.298 1.513t-.295 1.516a2.3 2.3 0 0 1-.81.969 2.1 2.1 0 0 1-1.175.338q-.497 0-.813-.167a1.5 1.5 0 0 1-.49-.391 3 3 0 0 1-.274-.397h-.064v2.894zm1.04-4.773q0 .576.167 1.009t.483.678q.317.241.774.241.475 0 .796-.252.32-.255.482-.692.168-.437.167-.984 0-.54-.163-.969a1.5 1.5 0 0 0-.483-.679q-.32-.248-.799-.248-.462 0-.781.238-.317.237-.48.664a2.8 2.8 0 0 0-.163.994m5.131 2.727v-5.454h1.062v5.454zm.537-6.296a.67.67 0 0 1-.476-.185.6.6 0 0 1-.195-.447q0-.263.195-.447a.67.67 0 0 1 .476-.189q.276 0 .472.189a.6.6 0 0 1 .199.447.6.6 0 0 1-.199.447.66.66 0 0 1-.472.185m4.251 6.406q-.792 0-1.363-.358a2.4 2.4 0 0 1-.874-.998q-.305-.636-.305-1.456 0-.831.312-1.467.312-.64.881-.998.568-.358 1.339-.358.62 0 1.108.231.487.226.784.639.303.411.359.962h-1.033a1.23 1.23 0 0 0-.391-.66q-.302-.277-.81-.277-.444 0-.777.234-.33.231-.515.66a2.5 2.5 0 0 0-.185 1.009q0 .597.181 1.03t.512.671q.334.238.784.238.303 0 .547-.11.249-.114.416-.323.17-.21.238-.505h1.033a2 2 0 0 1-.344.945 2 2 0 0 1-.771.653q-.48.238-1.126.238m4.964.011q-.519 0-.938-.192-.418-.195-.664-.564-.241-.37-.241-.906 0-.462.177-.76.178-.298.48-.472t.675-.263.759-.135l.796-.092q.305-.04.444-.124.138-.086.138-.277v-.025q0-.465-.262-.721-.26-.256-.775-.256-.536 0-.845.238-.305.234-.422.522l-.998-.227q.177-.497.518-.803.345-.309.792-.447a3 3 0 0 1 .941-.142q.327 0 .693.078.369.075.689.277.322.202.529.579.206.372.206.969v3.622h-1.037v-.745h-.043a1.5 1.5 0 0 1-.309.404 1.6 1.6 0 0 1-.529.331 2.1 2.1 0 0 1-.774.131m.231-.852q.44 0 .753-.174.315-.174.479-.455.167-.284.167-.607v-.703a.55.55 0 0 1-.22.106 4 4 0 0 1-.366.082l-.401.06-.327.043q-.309.04-.565.131a1 1 0 0 0-.405.267.67.67 0 0 0-.149.454q0 .394.292.597.29.199.742.199m4.937-6.541v7.272h-1.062v-7.272z"/><mask id="k" fill="#fff"><path d="M33.28 193.967h569v39h-569z"/></mask><path fill="#fff" fill-opacity=".06" d="M602.28 232.967v-1h-569v2h569z" mask="url(#k)"/><path fill="#cf2d56" fill-opacity=".85" d="M52 213.627c0-5.522 4.477-10 10-10s10 4.478 10 10-4.477 10-10 10-10-4.477-10-10"/><path fill="#000" d="M62.8 208.485c0-.475-.357-.858-.8-.858s-.8.383-.8.858v6.857c0 .474.357.857.8.857s.8-.383.8-.857zm-.8 11.142c.265 0 .52-.112.707-.313.188-.201.293-.474.293-.758s-.105-.557-.293-.758a.97.97 0 0 0-.707-.313.97.97 0 0 0-.707.313 1.1 1.1 0 0 0-.293.758c0 .284.105.557.293.758a.97.97 0 0 0 .707.313"/><path fill="#edecec" d="M88.319 217.467v-9.454h3.37q1.098 0 1.823.378.73.38 1.09 1.048.36.665.36 1.538 0 .867-.365 1.528-.36.656-1.09 1.02-.724.365-1.823.365h-2.553v-1.228h2.424q.692 0 1.126-.199.44-.198.642-.577.203-.379.203-.909 0-.536-.208-.928a1.34 1.34 0 0 0-.641-.601q-.435-.212-1.14-.212h-1.792v8.231zm4.667-4.265 2.336 4.265h-1.625l-2.29-4.265zm6.568 4.408q-1.047 0-1.805-.447a3.04 3.04 0 0 1-1.163-1.27q-.407-.821-.407-1.925 0-1.089.407-1.92a3.16 3.16 0 0 1 1.145-1.298q.739-.466 1.726-.466.6 0 1.163.199.564.198 1.012.623.447.425.706 1.103.258.674.258 1.639v.489H96.96v-1.034h4.284q0-.545-.222-.965a1.67 1.67 0 0 0-.623-.669 1.74 1.74 0 0 0-.933-.245 1.8 1.8 0 0 0-1.015.287 1.9 1.9 0 0 0-.665.738q-.23.453-.23.983v.808q0 .71.248 1.21.255.498.707.762.452.258 1.057.258.392 0 .715-.111a1.48 1.48 0 0 0 .919-.9l1.307.236a2.4 2.4 0 0 1-.564 1.011 2.7 2.7 0 0 1-1.011.669 3.8 3.8 0 0 1-1.38.235m9.887-5.502-1.251.221a1.5 1.5 0 0 0-.249-.457 1.2 1.2 0 0 0-.452-.355q-.287-.14-.716-.139-.586 0-.979.263-.392.26-.392.67 0 .355.263.572.264.217.85.356l1.126.258q.978.226 1.459.697.48.471.48 1.224 0 .637-.369 1.135-.366.495-1.021.776-.651.281-1.509.281-1.191 0-1.944-.507-.752-.513-.923-1.455l1.334-.203q.125.522.513.79.387.263 1.011.263.678 0 1.084-.282.407-.286.407-.697a.72.72 0 0 0-.25-.558q-.245-.226-.752-.342l-1.2-.263q-.993-.226-1.468-.72-.471-.495-.471-1.251 0-.628.351-1.099.35-.471.969-.734.619-.268 1.417-.268 1.15 0 1.81.499.66.494.872 1.325m1.657 8.018v-9.75h1.348v1.15h.115q.12-.222.346-.513a2 2 0 0 1 .628-.507q.402-.222 1.062-.222.858 0 1.533.434.673.434 1.057 1.251.388.817.388 1.967 0 1.149-.384 1.971-.383.817-1.052 1.26a2.7 2.7 0 0 1-1.528.439q-.647 0-1.057-.217a2 2 0 0 1-.638-.508 4 4 0 0 1-.355-.517h-.083v3.762zm1.352-6.204q0 .747.217 1.311.217.563.628.882.41.314 1.006.314.62 0 1.035-.328.415-.333.627-.9.217-.568.217-1.279 0-.702-.212-1.26a1.93 1.93 0 0 0-.628-.882q-.415-.323-1.039-.323-.6 0-1.015.309a1.9 1.9 0 0 0-.623.863q-.213.554-.213 1.293m9.658 3.688q-.997 0-1.741-.457a3.1 3.1 0 0 1-1.154-1.278q-.411-.822-.411-1.921 0-1.103.411-1.93.411-.825 1.154-1.283.744-.457 1.741-.457t1.74.457q.744.458 1.154 1.283.411.827.411 1.93 0 1.1-.411 1.921a3.07 3.07 0 0 1-1.154 1.278q-.743.457-1.74.457m.005-1.158q.645 0 1.071-.342t.627-.909q.208-.569.208-1.251 0-.679-.208-1.247a2.03 2.03 0 0 0-.627-.919q-.426-.345-1.071-.346-.651 0-1.081.346a2.06 2.06 0 0 0-.632.919 3.7 3.7 0 0 0-.203 1.247q0 .683.203 1.251.207.567.632.909.43.342 1.081.342m6.221-3.195v4.21h-1.38v-7.091h1.325v1.154h.088a2 2 0 0 1 .766-.904q.527-.342 1.325-.342.725 0 1.269.305.546.3.845.895.3.595.3 1.473v4.51h-1.38v-4.344q0-.77-.402-1.205-.4-.438-1.103-.438-.48 0-.854.207a1.5 1.5 0 0 0-.586.61q-.213.397-.213.96m11.703-1.149-1.251.221a1.5 1.5 0 0 0-.249-.457 1.2 1.2 0 0 0-.453-.355q-.286-.14-.715-.139-.586 0-.979.263-.392.26-.392.67 0 .355.263.572t.849.356l1.127.258q.978.226 1.459.697.48.471.48 1.224 0 .637-.37 1.135-.364.495-1.02.776-.65.281-1.51.281-1.19 0-1.943-.507-.752-.513-.923-1.455l1.334-.203q.125.522.512.79.388.263 1.011.263.679 0 1.085-.282.406-.286.406-.697a.72.72 0 0 0-.249-.558q-.245-.226-.752-.342l-1.201-.263q-.992-.226-1.468-.72-.471-.495-.471-1.251 0-.628.351-1.099.35-.471.97-.734.618-.268 1.417-.268 1.15 0 1.81.499.66.494.872 1.325m4.712 5.502q-1.047 0-1.805-.447a3.04 3.04 0 0 1-1.163-1.27q-.406-.821-.406-1.925 0-1.089.406-1.92a3.16 3.16 0 0 1 1.145-1.298q.738-.466 1.726-.466.6 0 1.164.199.562.198 1.011.623.447.425.706 1.103.258.674.259 1.639v.489h-5.637v-1.034h4.284q0-.545-.222-.965a1.67 1.67 0 0 0-.623-.669 1.74 1.74 0 0 0-.932-.245q-.582 0-1.016.287a1.9 1.9 0 0 0-.665.738q-.231.453-.231.983v.808q0 .71.25 1.21.253.498.706.762.453.258 1.057.258.392 0 .716-.111.323-.115.558-.341t.36-.559l1.307.236a2.4 2.4 0 0 1-.563 1.011 2.7 2.7 0 0 1-1.011.669 3.8 3.8 0 0 1-1.381.235m11.325-7.234v1.108H152.2v-1.108zm-2.835-1.698h1.38v6.707q0 .402.12.605.12.198.31.272.194.07.42.07.166 0 .291-.023l.194-.037.249 1.14q-.12.046-.342.092a2.7 2.7 0 0 1-.554.056 2.4 2.4 0 0 1-1.015-.194 1.75 1.75 0 0 1-.762-.628q-.291-.425-.291-1.067zm4.362 8.789v-7.091h1.38v7.091zm.697-8.185a.88.88 0 0 1-.619-.24.78.78 0 0 1-.254-.581q0-.342.254-.582a.87.87 0 0 1 .619-.245q.36 0 .614.245.258.24.258.582a.77.77 0 0 1-.258.581.86.86 0 0 1-.614.24m2.54 8.185v-7.091h1.325v1.154h.087q.222-.585.725-.914.504-.332 1.205-.332.711 0 1.191.332.485.333.716.914h.074q.253-.567.808-.904.553-.342 1.32-.342.965 0 1.574.605.614.605.614 1.823v4.755h-1.38v-4.625q0-.72-.393-1.044a1.43 1.43 0 0 0-.937-.323q-.673 0-1.048.416-.374.41-.374 1.057v4.519h-1.375v-4.713q0-.577-.361-.928-.36-.351-.937-.351-.392 0-.724.208a1.5 1.5 0 0 0-.531.568 1.7 1.7 0 0 0-.199.844v4.372zm11.489 0v-7.091h1.38v7.091zm.697-8.185a.88.88 0 0 1-.618-.24.78.78 0 0 1-.254-.581q0-.342.254-.582a.87.87 0 0 1 .618-.245q.36 0 .614.245.26.24.259.582a.77.77 0 0 1-.259.581.86.86 0 0 1-.614.24m3.921 3.975v4.21h-1.381v-7.091h1.325v1.154h.088q.245-.563.766-.904.527-.342 1.325-.342.725 0 1.27.305.545.3.845.895t.3 1.473v4.51h-1.381v-4.344q0-.77-.401-1.205-.402-.438-1.104-.438-.48 0-.854.207a1.5 1.5 0 0 0-.586.61q-.213.397-.212.96m9.362 7.017q-.845 0-1.454-.221a2.8 2.8 0 0 1-.988-.587 2.5 2.5 0 0 1-.573-.798l1.187-.49q.125.204.332.43.213.23.573.392.364.162.937.162.784 0 1.297-.384.512-.378.512-1.209v-1.394h-.087q-.125.225-.36.503a1.95 1.95 0 0 1-.637.48q-.407.203-1.058.203a2.96 2.96 0 0 1-1.514-.392q-.669-.397-1.062-1.168-.387-.776-.387-1.907 0-1.13.383-1.939.387-.808 1.062-1.237a2.76 2.76 0 0 1 1.528-.434q.66 0 1.066.222.407.217.632.507.231.291.356.513h.102v-1.15h1.352v7.248q0 .915-.425 1.501-.424.586-1.149.867a4.4 4.4 0 0 1-1.625.282m-.014-4.058q.596 0 1.006-.277.416-.281.628-.803.217-.526.217-1.26 0-.715-.212-1.261a1.87 1.87 0 0 0-.623-.849q-.411-.309-1.016-.309-.623 0-1.039.323a1.94 1.94 0 0 0-.627.868 3.4 3.4 0 0 0-.208 1.228q0 .696.212 1.223.213.526.628.822.42.295 1.034.295m362.156-1.511v-3.192h1.065v5.454h-1.044v-.944h-.056a1.7 1.7 0 0 1-.604.728q-.412.287-1.026.287-.526 0-.931-.231a1.63 1.63 0 0 1-.632-.692q-.227-.458-.227-1.133v-3.469h1.062v3.341q0 .558.309.888t.802.33q.299 0 .593-.149.299-.149.494-.451.198-.302.195-.767m3.554-.976v3.238h-1.062v-5.454h1.019v.888h.068q.188-.433.589-.696.405-.263 1.019-.263.558 0 .977.234.419.231.65.689t.231 1.133v3.469h-1.062v-3.341q0-.594-.309-.927-.309-.338-.849-.338-.369 0-.657.16-.284.16-.451.469-.163.306-.163.739m8.37.976v-3.192h1.065v5.454h-1.044v-.944h-.057a1.7 1.7 0 0 1-.603.728q-.412.287-1.027.287-.525 0-.93-.231a1.6 1.6 0 0 1-.632-.692q-.228-.458-.227-1.133v-3.469h1.061v3.341q0 .558.309.888.31.33.803.33.298 0 .593-.149.298-.149.494-.451.198-.302.195-.767m6.579-1.861-.962.171a1.1 1.1 0 0 0-.192-.352.95.95 0 0 0-.348-.273 1.3 1.3 0 0 0-.55-.107q-.452 0-.753.203-.302.198-.302.515 0 .273.202.44t.654.273l.866.199q.753.174 1.122.537.37.362.37.941 0 .489-.284.873a1.87 1.87 0 0 1-.785.597 2.9 2.9 0 0 1-1.161.216q-.916 0-1.495-.39-.579-.394-.711-1.119l1.027-.156q.096.401.394.607.298.203.778.203.522 0 .834-.217.312-.22.313-.536a.56.56 0 0 0-.192-.43q-.189-.174-.579-.263l-.923-.202q-.764-.174-1.13-.554-.362-.38-.362-.963 0-.482.27-.845.27-.362.746-.564.475-.207 1.09-.206.885 0 1.392.383.508.38.671 1.019m4.729 1.861v-3.192h1.066v5.454h-1.044v-.944h-.057a1.7 1.7 0 0 1-.604.728q-.411.287-1.026.287-.526 0-.93-.231a1.6 1.6 0 0 1-.632-.692q-.228-.458-.228-1.133v-3.469h1.062v3.341q0 .558.309.888t.803.33q.297 0 .593-.149a1.25 1.25 0 0 0 .493-.451q.2-.302.195-.767m4.08 2.383q-.519 0-.938-.192-.418-.195-.664-.564-.241-.37-.241-.906 0-.462.177-.76.178-.298.48-.472t.674-.263a7 7 0 0 1 .76-.135l.796-.092q.305-.04.444-.124.138-.086.138-.277v-.025q0-.465-.263-.721-.258-.256-.774-.256-.536 0-.845.238-.305.234-.422.522l-.998-.227q.177-.497.518-.803.345-.309.792-.447a3 3 0 0 1 .941-.142q.327 0 .693.078.369.075.689.277.322.202.529.579.206.372.206.969v3.622h-1.037v-.745h-.043a1.5 1.5 0 0 1-.309.404 1.6 1.6 0 0 1-.529.331 2.1 2.1 0 0 1-.774.131m.231-.852q.44 0 .753-.174.315-.174.479-.455.167-.284.167-.607v-.703a.55.55 0 0 1-.22.106 4 4 0 0 1-.366.082l-.401.06-.327.043q-.309.04-.565.131a1 1 0 0 0-.405.267.67.67 0 0 0-.149.454q0 .394.291.597.292.199.743.199m4.937-6.541v7.272h-1.062v-7.272z"/><mask id="l" fill="#fff"><path d="M33.28 232.967h569v74h-569z"/></mask><path fill="#fff" fill-opacity=".06" d="M602.28 306.967v-1h-569v2h569z" mask="url(#l)"/><path fill="#edecec" d="M54.399 260.967v-10.182h3.629q1.183 0 1.964.408.785.408 1.173 1.129.388.716.388 1.655 0 .935-.393 1.646-.388.705-1.173 1.099-.78.392-1.964.392h-2.75v-1.322h2.61q.746 0 1.214-.214.473-.214.69-.621.22-.408.22-.98 0-.576-.224-.999a1.44 1.44 0 0 0-.691-.646q-.468-.23-1.228-.229h-1.93v8.864zm5.026-4.593 2.516 4.593h-1.75l-2.466-4.593zm3.878 4.593v-7.636h1.486v7.636zm.75-8.814a.95.95 0 0 1-.666-.259.84.84 0 0 1-.273-.626q0-.368.273-.627a.94.94 0 0 1 .666-.263.92.92 0 0 1 .662.263.83.83 0 0 1 .278.627q0 .362-.278.626a.93.93 0 0 1-.662.259m8.458 3.042-1.347.239a1.6 1.6 0 0 0-.268-.492 1.3 1.3 0 0 0-.488-.383q-.308-.15-.77-.149-.631 0-1.054.283-.423.279-.423.721 0 .383.284.616.284.234.914.383l1.214.279q1.054.243 1.57.75.517.508.517 1.318 0 .686-.397 1.223-.393.532-1.099.835-.701.303-1.626.303-1.282 0-2.093-.546-.81-.552-.994-1.567l1.437-.218q.134.562.552.85.417.283 1.088.283.731 0 1.169-.303.437-.309.437-.751a.78.78 0 0 0-.268-.601q-.264-.244-.81-.368l-1.293-.284q-1.07-.243-1.581-.775-.507-.533-.507-1.347 0-.677.378-1.184t1.044-.79q.666-.288 1.526-.289 1.238 0 1.949.537.71.533.94 1.427m3.151 3.182-.01-1.815h.259l3.042-3.231h1.78l-3.47 3.679h-.234zm-1.367 2.59v-10.182h1.486v10.182zm4.822 0-2.734-3.629 1.024-1.039 3.535 4.668zm12.398-5.772-1.347.239a1.6 1.6 0 0 0-.269-.492 1.3 1.3 0 0 0-.487-.383q-.308-.15-.77-.149-.631 0-1.054.283-.423.279-.423.721 0 .383.283.616.284.234.915.383l1.213.279q1.055.243 1.571.75.517.508.517 1.318 0 .686-.397 1.223-.393.532-1.099.835-.701.303-1.626.303-1.282 0-2.093-.546-.81-.552-.994-1.567l1.437-.218q.134.562.552.85.417.283 1.088.283.731 0 1.169-.303.437-.309.437-.751a.78.78 0 0 0-.268-.601q-.264-.244-.81-.368l-1.293-.284q-1.07-.243-1.581-.775-.507-.533-.507-1.347 0-.677.377-1.184.378-.507 1.044-.79.667-.288 1.527-.289 1.238 0 1.949.537.71.533.94 1.427m5 5.926q-1.108 0-1.909-.502a3.3 3.3 0 0 1-1.223-1.397q-.427-.89-.427-2.038 0-1.164.437-2.053a3.35 3.35 0 0 1 1.233-1.397q.795-.503 1.875-.503.87 0 1.55.324.682.318 1.1.895a2.7 2.7 0 0 1 .502 1.347h-1.447a1.74 1.74 0 0 0-.547-.925q-.423-.388-1.134-.388-.621 0-1.088.328-.463.324-.721.925-.26.597-.259 1.412 0 .836.254 1.442.253.606.716.939.467.334 1.098.334.423 0 .766-.155.348-.159.582-.452a1.7 1.7 0 0 0 .333-.706h1.447a2.8 2.8 0 0 1-.483 1.323 2.8 2.8 0 0 1-1.079.914q-.67.333-1.575.333m7.944 0q-1.074 0-1.874-.492a3.3 3.3 0 0 1-1.243-1.377q-.443-.885-.443-2.068 0-1.188.443-2.078a3.3 3.3 0 0 1 1.243-1.382q.8-.493 1.874-.493t1.874.493a3.3 3.3 0 0 1 1.243 1.382q.442.89.442 2.078 0 1.183-.442 2.068a3.3 3.3 0 0 1-1.243 1.377q-.8.492-1.874.492m.005-1.247q.696 0 1.153-.368t.676-.98q.224-.611.224-1.347a3.9 3.9 0 0 0-.224-1.342 2.2 2.2 0 0 0-.676-.99q-.457-.373-1.153-.373-.701 0-1.164.373a2.23 2.23 0 0 0-.681.99 4 4 0 0 0-.218 1.342q0 .736.218 1.347a2.2 2.2 0 0 0 .681.98q.463.368 1.164.368m5.214 1.093v-7.636h1.437v1.213h.079q.209-.617.736-.969a2.1 2.1 0 0 1 1.203-.358 6 6 0 0 1 .631.034v1.422a3 3 0 0 0-.318-.054 3 3 0 0 0-.457-.035q-.527 0-.94.223a1.66 1.66 0 0 0-.885 1.497v4.663zm8.391.154q-1.13 0-1.944-.482a3.27 3.27 0 0 1-1.253-1.367q-.438-.885-.438-2.073 0-1.173.438-2.068a3.4 3.4 0 0 1 1.233-1.397q.795-.503 1.859-.503.647 0 1.253.214.606.215 1.089.671.482.457.76 1.189.279.726.279 1.765v.527h-6.07v-1.114h4.613q0-.587-.238-1.039a1.8 1.8 0 0 0-.672-.721 1.87 1.87 0 0 0-1.004-.264q-.626 0-1.094.309a2.07 2.07 0 0 0-.716.795 2.3 2.3 0 0 0-.248 1.059v.87q0 .766.268 1.303.274.537.761.82.487.279 1.138.278.423 0 .771-.119a1.59 1.59 0 0 0 .989-.969l1.407.253a2.54 2.54 0 0 1-.606 1.089 2.94 2.94 0 0 1-1.089.721q-.651.253-1.486.253"/><path fill="#c24a3d" d="M133.929 261.136q-1.177-.004-2.013-.621-.836-.616-1.278-1.795t-.442-2.839q0-1.655.442-2.828.447-1.174 1.283-1.79.84-.617 2.008-.617t2.004.622q.835.616 1.277 1.789.448 1.169.448 2.824 0 1.667-.443 2.844-.442 1.173-1.277 1.795-.836.616-2.009.616m0-1.327q1.035 0 1.616-1.009.587-1.01.587-2.919 0-1.268-.269-2.142-.263-.88-.761-1.333a1.66 1.66 0 0 0-1.173-.457q-1.029 0-1.616 1.014t-.591 2.918q0 1.273.263 2.153.269.875.761 1.327.492.448 1.183.448m6.123 1.253a.96.96 0 0 1-.701-.289.96.96 0 0 1-.294-.706q0-.407.294-.696a.96.96 0 0 1 .701-.293.96.96 0 0 1 .701.293.95.95 0 0 1 .293.696q0 .274-.139.503a1.04 1.04 0 0 1-.358.358.95.95 0 0 1-.497.134m3.049-.095 4.444-8.789v-.075h-5.141v-1.318h6.732v1.363l-4.43 8.819zm6.73-1.988v-1.243l4.4-6.951h.979v1.83h-.621l-3.147 4.982v.079h6.03v1.303zm4.827 1.988v-2.366l.01-.567v-7.249h1.457v10.182z"/><path fill="#332e24" d="M53.28 273.967a3 3 0 0 1 3-3h269a3 3 0 0 1 3 3v9a3 3 0 0 1-3 3h-269a3 3 0 0 1-3-3z"/><path fill="#c24a3d" fill-opacity=".4" d="M53.28 273.967a3 3 0 0 1 3-3h202a3 3 0 0 1 3 3v9a3 3 0 0 1-3 3h-202a3 3 0 0 1-3-3z"/><path fill="#c24a3d" d="M463.159 267.467v-8h2.851q.93 0 1.543.321.618.32.922.886.305.563.305 1.301 0 .735-.309 1.293a2.07 2.07 0 0 1-.921.863q-.614.309-1.543.309h-2.161v-1.039h2.051q.587 0 .953-.168.372-.168.543-.488t.172-.77q0-.453-.176-.785a1.13 1.13 0 0 0-.543-.508q-.366-.18-.964-.18h-1.516v6.965zm3.949-3.609 1.977 3.609h-1.375l-1.938-3.609zm4.793 3.742q-.57 0-1.031-.211a1.74 1.74 0 0 1-.731-.621q-.265-.406-.265-.996 0-.508.195-.836.195-.329.527-.519.332-.191.743-.29.41-.097.836-.148l.875-.102q.336-.042.488-.136t.152-.305v-.027q0-.512-.289-.793-.285-.282-.851-.282-.591 0-.93.262a1.4 1.4 0 0 0-.465.574l-1.098-.25q.196-.546.571-.882a2.3 2.3 0 0 1 .871-.493 3.4 3.4 0 0 1 1.035-.156q.36 0 .762.086.406.082.757.305.356.222.582.637.227.41.227 1.066v3.984h-1.141v-.82h-.046a1.7 1.7 0 0 1-.34.445 1.8 1.8 0 0 1-.582.364 2.3 2.3 0 0 1-.852.144m.254-.937q.484 0 .828-.192a1.33 1.33 0 0 0 .711-1.168v-.773a.6.6 0 0 1-.242.117 4 4 0 0 1-.402.09l-.442.066-.359.047a3 3 0 0 0-.621.145 1.06 1.06 0 0 0-.446.293q-.164.187-.164.5 0 .433.321.656.32.219.816.219m7.064-5.196v.938h-3.278v-.938zm-2.399-1.437h1.168v5.676q0 .34.102.511a.53.53 0 0 0 .261.231q.165.058.356.058.141 0 .246-.019l.164-.031.211.964a2.3 2.3 0 0 1-.758.125 2 2 0 0 1-.859-.164 1.47 1.47 0 0 1-.645-.531q-.246-.359-.246-.902zm6.212 7.558q-.887 0-1.527-.379a2.57 2.57 0 0 1-.985-1.074q-.343-.695-.343-1.629 0-.921.343-1.625.348-.702.969-1.097.625-.395 1.461-.395.508 0 .984.168.477.168.856.527.379.36.597.934.219.57.219 1.387v.414h-4.769v-.875h3.625q0-.461-.188-.817a1.4 1.4 0 0 0-.527-.566 1.47 1.47 0 0 0-.789-.207q-.492 0-.86.242a1.6 1.6 0 0 0-.562.625q-.195.383-.195.832v.684q0 .602.211 1.023.214.422.597.645.383.219.895.219.332 0 .605-.094a1.3 1.3 0 0 0 .473-.289q.199-.192.305-.473l1.105.199a2 2 0 0 1-.477.856 2.3 2.3 0 0 1-.855.566 3.2 3.2 0 0 1-1.168.199m7.949-8.121v8h-1.168v-8zm1.571 8v-6h1.168v6zm.59-6.925a.74.74 0 0 1-.523-.204.66.66 0 0 1-.215-.492q0-.29.215-.492a.73.73 0 0 1 .523-.207q.305 0 .52.207a.65.65 0 0 1 .219.492q0 .285-.219.492a.73.73 0 0 1-.52.204m2.15 6.925v-6h1.121v.977h.074a1.55 1.55 0 0 1 .613-.774q.426-.28 1.02-.281.602 0 1.008.281.41.282.605.774h.063a1.7 1.7 0 0 1 .683-.766q.47-.288 1.117-.289.817 0 1.332.512.52.511.52 1.543v4.023h-1.168v-3.914q0-.609-.332-.883a1.2 1.2 0 0 0-.793-.273q-.57 0-.887.352-.316.346-.316.894v3.824h-1.164v-3.988q0-.489-.305-.785-.304-.297-.793-.297-.332 0-.613.176a1.3 1.3 0 0 0-.449.48 1.5 1.5 0 0 0-.168.715v3.699zm9.721 0v-6h1.168v6zm.59-6.925a.74.74 0 0 1-.523-.204.66.66 0 0 1-.215-.492q0-.29.215-.492a.73.73 0 0 1 .523-.207q.305 0 .52.207a.65.65 0 0 1 .219.492q0 .285-.219.492a.73.73 0 0 1-.52.204m4.95.925v.938h-3.277v-.938zm-2.398-1.437h1.168v5.676q0 .34.102.511a.53.53 0 0 0 .261.231q.165.058.356.058.14 0 .246-.019l.164-.031.211.964a2.3 2.3 0 0 1-.758.125 2 2 0 0 1-.859-.164 1.47 1.47 0 0 1-.645-.531q-.246-.359-.246-.902zm9.371 7.547a3.5 3.5 0 0 1-1.437-.278 2.43 2.43 0 0 1-.996-.769 2.04 2.04 0 0 1-.391-1.149h1.226q.024.356.239.618.219.257.57.398t.781.141q.473 0 .836-.164.367-.165.574-.457.207-.297.207-.684 0-.402-.207-.707a1.34 1.34 0 0 0-.597-.484q-.391-.176-.946-.176h-.675v-.985h.675q.446 0 .782-.16.339-.16.531-.445.192-.29.191-.676 0-.37-.168-.644a1.1 1.1 0 0 0-.468-.434 1.5 1.5 0 0 0-.711-.156q-.391 0-.731.144a1.35 1.35 0 0 0-.547.407q-.21.262-.226.628h-1.168q.019-.648.383-1.14a2.5 2.5 0 0 1 .968-.77 3.15 3.15 0 0 1 1.336-.277q.77 0 1.328.301.563.297.868.793.308.495.304 1.086.005.672-.375 1.14-.375.469-1 .629v.063q.798.12 1.235.632.441.513.437 1.27.004.66-.367 1.184a2.5 2.5 0 0 1-1.004.824q-.636.297-1.457.297m7.367-8.485-2.578 9.578h-1.043l2.578-9.578zm3.617 8.485q-.734 0-1.32-.282a2.4 2.4 0 0 1-.93-.781 2.07 2.07 0 0 1-.371-1.133h1.172q.043.516.457.848t.992.332q.462 0 .817-.211.359-.215.562-.59a1.74 1.74 0 0 0 .207-.855q0-.489-.211-.871a1.55 1.55 0 0 0-.582-.602 1.64 1.64 0 0 0-.843-.223 2.3 2.3 0 0 0-.731.125 1.7 1.7 0 0 0-.594.329l-1.105-.164.449-4.032h4.399v1.035h-3.395l-.254 2.239h.047q.234-.227.621-.379.391-.153.836-.153a2.45 2.45 0 0 1 2.203 1.297q.333.598.328 1.375.005.778-.351 1.387-.352.61-.977.961-.62.348-1.426.348m8.854.023q-.57 0-1.031-.211a1.73 1.73 0 0 1-.731-.621q-.265-.406-.265-.996 0-.508.195-.836.195-.329.527-.519.332-.191.743-.29.41-.097.835-.148l.875-.102q.336-.042.489-.136t.152-.305v-.027q0-.512-.289-.793-.285-.282-.852-.282-.59 0-.929.262a1.4 1.4 0 0 0-.465.574l-1.098-.25q.196-.546.571-.882a2.3 2.3 0 0 1 .871-.493 3.4 3.4 0 0 1 1.035-.156q.359 0 .762.086.405.082.757.305.356.222.582.637.227.41.227 1.066v3.984h-1.141v-.82h-.047a1.7 1.7 0 0 1-.339.445 1.8 1.8 0 0 1-.582.364 2.3 2.3 0 0 1-.852.144m.254-.937q.485 0 .828-.192a1.33 1.33 0 0 0 .711-1.168v-.773a.6.6 0 0 1-.242.117 4 4 0 0 1-.403.09l-.441.066-.359.047a3 3 0 0 0-.621.145 1.06 1.06 0 0 0-.446.293q-.164.187-.164.5 0 .433.321.656.32.219.816.219m7.063-5.196v.938h-3.277v-.938zm-2.398-1.437h1.168v5.676q0 .34.101.511a.53.53 0 0 0 .262.231q.164.058.356.058.14 0 .246-.019l.164-.031.211.964a2.3 2.3 0 0 1-.758.125 2 2 0 0 1-.859-.164 1.47 1.47 0 0 1-.645-.531q-.246-.359-.246-.902zm6.491 1.437v.938h-3.277v-.938zm-2.398-1.437h1.168v5.676q0 .34.101.511a.53.53 0 0 0 .262.231q.164.058.355.058.14 0 .247-.019l.164-.031.211.964a2.3 2.3 0 0 1-.758.125 2 2 0 0 1-.86-.164 1.47 1.47 0 0 1-.644-.531q-.246-.359-.246-.902zm6.212 7.558q-.887 0-1.528-.379a2.57 2.57 0 0 1-.984-1.074q-.344-.695-.344-1.629 0-.921.344-1.625.348-.702.969-1.097.624-.395 1.461-.395.507 0 .984.168t.855.527q.38.36.598.934.219.57.219 1.387v.414h-4.77v-.875h3.625q0-.461-.187-.817a1.4 1.4 0 0 0-.528-.566 1.47 1.47 0 0 0-.789-.207q-.492 0-.859.242-.363.238-.562.625a1.8 1.8 0 0 0-.196.832v.684q0 .602.211 1.023.215.422.598.645.383.219.894.219.333 0 .606-.094.274-.098.472-.289a1.25 1.25 0 0 0 .305-.473l1.106.199a2 2 0 0 1-.477.856 2.3 2.3 0 0 1-.855.566 3.2 3.2 0 0 1-1.168.199m3.87-.121v-6h1.121v.977h.074q.188-.497.613-.774.426-.28 1.02-.281.601 0 1.008.281.41.282.605.774h.063a1.7 1.7 0 0 1 .683-.766q.47-.288 1.117-.289.818 0 1.332.512.52.511.52 1.543v4.023h-1.168v-3.914q0-.609-.332-.883a1.2 1.2 0 0 0-.793-.273q-.57 0-.887.352-.316.346-.316.894v3.824h-1.164v-3.988q0-.489-.305-.785-.304-.297-.793-.297-.332 0-.613.176a1.3 1.3 0 0 0-.449.48 1.5 1.5 0 0 0-.168.715v3.699zm9.721 2.25v-8.25h1.141v.973h.098q.1-.188.293-.434a1.6 1.6 0 0 1 .531-.429q.34-.188.898-.188.727 0 1.297.367t.895 1.059q.328.692.328 1.664t-.324 1.668q-.324.691-.891 1.066a2.3 2.3 0 0 1-1.293.371q-.547 0-.894-.183a1.7 1.7 0 0 1-.539-.43 3 3 0 0 1-.301-.437h-.071v3.183zm1.145-5.25q0 .633.184 1.11.183.476.531.746.347.265.851.265.524 0 .875-.277.352-.28.532-.762a3 3 0 0 0 .183-1.082q0-.594-.179-1.066a1.64 1.64 0 0 0-.532-.746q-.351-.274-.879-.274-.507 0-.859.262a1.6 1.6 0 0 0-.527.731q-.18.469-.18 1.093m8.445-3v.938h-3.277v-.938zm-2.398-1.437h1.168v5.676q0 .34.101.511a.53.53 0 0 0 .262.231q.164.058.356.058.14 0 .246-.019l.164-.031.211.964a2.3 2.3 0 0 1-.758.125 2 2 0 0 1-.86-.164 1.47 1.47 0 0 1-.644-.531q-.246-.359-.246-.902zm8.09 2.902-1.059.188a1.2 1.2 0 0 0-.211-.387 1.05 1.05 0 0 0-.383-.301 1.4 1.4 0 0 0-.605-.117q-.496 0-.828.223-.332.218-.332.566 0 .301.222.484.223.184.719.301l.953.219q.828.191 1.235.59.405.398.406 1.035 0 .539-.313.961a2.05 2.05 0 0 1-.863.656q-.55.238-1.277.238-1.008 0-1.645-.429-.636-.434-.781-1.231l1.129-.172q.106.442.433.668.328.223.856.223.574 0 .918-.238.344-.242.344-.59a.62.62 0 0 0-.211-.473q-.207-.191-.637-.289l-1.016-.223q-.84-.19-1.242-.609-.398-.418-.398-1.058 0-.532.297-.93.297-.399.82-.621a3 3 0 0 1 1.199-.227q.973 0 1.531.422.56.418.739 1.121"/><path fill="#1b1913" d="M33.28 306.967h569v60h-569z"/><path fill="#edecec" d="m55.289 321.285 2.833 8.293h.115l2.834-8.293h1.66l-3.664 10.182h-1.775l-3.664-10.182zm11.319 10.336q-1.129 0-1.944-.482a3.27 3.27 0 0 1-1.253-1.367q-.438-.885-.438-2.073 0-1.173.438-2.068a3.4 3.4 0 0 1 1.233-1.397q.795-.503 1.86-.503.646 0 1.252.214.606.215 1.089.671.482.457.76 1.189.279.726.279 1.765v.527h-6.07v-1.114h4.613q0-.587-.238-1.039a1.8 1.8 0 0 0-.672-.721 1.87 1.87 0 0 0-1.004-.264q-.626 0-1.094.309a2.07 2.07 0 0 0-.715.795 2.3 2.3 0 0 0-.25 1.059v.87q0 .766.27 1.303.273.537.76.82.487.279 1.139.278.422 0 .77-.119.348-.124.602-.368.254-.243.387-.601l1.407.253a2.55 2.55 0 0 1-.606 1.089 2.9 2.9 0 0 1-1.089.721q-.651.253-1.486.253m4.925-.154v-7.636h1.437v1.213h.08q.208-.616.735-.969a2.1 2.1 0 0 1 1.204-.358 6 6 0 0 1 .63.034v1.422a3 3 0 0 0-.317-.054 3 3 0 0 0-.458-.035 1.94 1.94 0 0 0-.94.223 1.66 1.66 0 0 0-.884 1.497v4.663zm5.373 0v-7.636h1.487v7.636zm.751-8.814a.95.95 0 0 1-.666-.259.84.84 0 0 1-.274-.626q0-.368.274-.627a.94.94 0 0 1 .666-.263.92.92 0 0 1 .661.263.83.83 0 0 1 .279.627q0 .363-.279.626a.93.93 0 0 1-.661.259m6.37 1.178v1.193h-4.315v-1.193zm-3.132 7.636v-8.521q0-.716.313-1.188.314-.477.83-.711a2.65 2.65 0 0 1 1.124-.239q.447 0 .765.075.318.069.473.129l-.348 1.203q-.105-.03-.269-.069a1.5 1.5 0 0 0-.398-.045q-.541 0-.775.268-.23.269-.229.776v8.322zm4.666 0v-7.636h1.486v7.636zm.75-8.814a.95.95 0 0 1-.666-.259.84.84 0 0 1-.273-.626q0-.368.273-.627a.94.94 0 0 1 .666-.263.92.92 0 0 1 .661.263.83.83 0 0 1 .279.627q0 .363-.279.626a.93.93 0 0 1-.66.259m5.952 8.968q-1.108 0-1.909-.502a3.3 3.3 0 0 1-1.223-1.397q-.427-.89-.427-2.038 0-1.164.437-2.053a3.34 3.34 0 0 1 1.233-1.397q.795-.503 1.875-.503.87 0 1.55.324.682.318 1.1.895a2.7 2.7 0 0 1 .502 1.347h-1.447a1.74 1.74 0 0 0-.547-.925q-.423-.387-1.133-.388-.622 0-1.09.328-.462.324-.72.925-.258.597-.259 1.412 0 .836.254 1.442.253.606.716.939.467.334 1.099.334.421 0 .765-.155.348-.159.582-.452a1.7 1.7 0 0 0 .333-.706H95.4a2.8 2.8 0 0 1-.483 1.323 2.8 2.8 0 0 1-1.079.914q-.67.333-1.576.333m6.95.015q-.726 0-1.313-.268a2.2 2.2 0 0 1-.93-.791q-.338-.516-.338-1.267 0-.647.249-1.064.25-.418.671-.662a3.5 3.5 0 0 1 .945-.367 9 9 0 0 1 1.064-.189l1.113-.13q.427-.054.622-.174.194-.118.194-.387v-.035q0-.651-.368-1.009-.364-.358-1.084-.358-.75 0-1.183.333-.428.327-.592.731l-1.397-.319q.249-.696.726-1.123a2.95 2.95 0 0 1 1.109-.627 4.4 4.4 0 0 1 1.317-.199q.458 0 .969.11.518.104.965.388.452.284.741.81.288.522.288 1.357v5.071h-1.452v-1.044h-.059a2.1 2.1 0 0 1-.433.567q-.288.279-.741.462-.452.184-1.083.184m.323-1.193q.615 0 1.054-.243.442-.244.671-.637.234-.397.234-.85v-.984q-.08.079-.309.149-.224.065-.512.114l-.562.085-.457.059a3.7 3.7 0 0 0-.79.184 1.36 1.36 0 0 0-.567.373q-.21.238-.209.637 0 .551.408.835.407.278 1.039.278m8.99-6.612v1.193h-4.172v-1.193zm-3.053-1.83h1.487v7.224q0 .433.129.651a.67.67 0 0 0 .333.294q.209.074.452.074.18 0 .314-.025l.208-.039.269 1.228a2.5 2.5 0 0 1-.368.099 3 3 0 0 1-.597.06 2.6 2.6 0 0 1-1.093-.209 1.87 1.87 0 0 1-.821-.676q-.313-.457-.313-1.149zm4.697 9.466v-7.636h1.486v7.636zm.751-8.814a.95.95 0 0 1-.667-.259.84.84 0 0 1-.273-.626q0-.368.273-.627a.94.94 0 0 1 .667-.263.92.92 0 0 1 .661.263.83.83 0 0 1 .278.627q0 .363-.278.626a.93.93 0 0 1-.661.259m5.952 8.968q-1.074 0-1.874-.492a3.3 3.3 0 0 1-1.243-1.377q-.443-.885-.443-2.068 0-1.188.443-2.078a3.3 3.3 0 0 1 1.243-1.382q.8-.492 1.874-.493 1.074 0 1.874.493a3.3 3.3 0 0 1 1.243 1.382q.443.89.443 2.078 0 1.183-.443 2.068a3.3 3.3 0 0 1-1.243 1.377q-.8.492-1.874.492m.005-1.247q.696 0 1.153-.368t.676-.98q.225-.611.224-1.347 0-.731-.224-1.342a2.2 2.2 0 0 0-.676-.99q-.457-.372-1.153-.373-.7 0-1.163.373a2.23 2.23 0 0 0-.682.99 4 4 0 0 0-.218 1.342q0 .736.218 1.347.225.611.682.98.462.368 1.163.368m6.7-3.441v4.534h-1.486v-7.636h1.427v1.243h.094a2.2 2.2 0 0 1 .825-.975q.567-.368 1.427-.368.781 0 1.367.329.588.323.91.964.323.642.323 1.586v4.857h-1.486v-4.678q0-.83-.433-1.298-.432-.471-1.188-.472-.517 0-.92.224a1.6 1.6 0 0 0-.631.656q-.228.428-.229 1.034"/><path fill="#edecec" fill-opacity=".6" d="M54.277 355.126v-9.75h1.053v1.127h.129q.12-.184.332-.471.217-.29.619-.517.406-.231 1.099-.231.895 0 1.579.448.682.448 1.066 1.269.383.822.383 1.939 0 1.126-.383 1.953-.384.822-1.062 1.274-.678.448-1.565.448-.683 0-1.094-.226a2 2 0 0 1-.632-.522 7 7 0 0 1-.342-.489h-.092v3.748zm1.071-6.204q0 .803.236 1.417.235.61.688.956.451.34 1.108.341.683 0 1.14-.36a2.2 2.2 0 0 0 .692-.978q.236-.619.236-1.376 0-.748-.231-1.348a2.1 2.1 0 0 0-.688-.956q-.457-.355-1.15-.355-.664 0-1.117.337-.453.332-.683.932-.23.595-.23 1.39m8.938 3.711q-.674 0-1.224-.253a2.1 2.1 0 0 1-.872-.744q-.324-.49-.323-1.181 0-.61.24-.988.24-.384.641-.601.402-.216.887-.323.49-.11.983-.175.646-.083 1.048-.125.406-.046.59-.152.19-.106.19-.369v-.037q0-.684-.374-1.062-.37-.38-1.121-.379-.78 0-1.224.342t-.623.729l-1.034-.369q.276-.646.738-1.006a2.75 2.75 0 0 1 1.016-.508q.555-.148 1.09-.148.341 0 .784.083.449.079.864.328.42.25.697.752.276.504.277 1.348v4.672h-1.09v-.96h-.055a1.9 1.9 0 0 1-.37.494 2.1 2.1 0 0 1-.687.448q-.43.184-1.048.184m.166-.978q.645 0 1.09-.254a1.73 1.73 0 0 0 .904-1.5v-.998q-.069.084-.305.153a5 5 0 0 1-.535.115q-.3.047-.586.083-.282.033-.457.056a4 4 0 0 0-.794.18q-.364.12-.591.364-.222.24-.222.656 0 .568.42.859.425.286 1.076.286m10.095-4.691-.979.277a1.8 1.8 0 0 0-.272-.475 1.3 1.3 0 0 0-.48-.388q-.304-.152-.78-.152-.651 0-1.085.3-.43.296-.43.752 0 .407.296.642t.923.392l1.053.259q.95.23 1.417.706.466.471.466 1.214a1.8 1.8 0 0 1-.35 1.09q-.347.48-.97.757t-1.45.277q-1.085 0-1.795-.471-.712-.47-.9-1.376l1.033-.258q.148.573.559.859.416.286 1.085.286.761 0 1.21-.323.452-.328.452-.785a.83.83 0 0 0-.259-.619q-.258-.254-.794-.378l-1.181-.277q-.975-.231-1.432-.716-.452-.49-.452-1.223 0-.6.337-1.062.342-.461.928-.725.59-.263 1.339-.263 1.052 0 1.652.462.605.461.859 1.218m6.792 0-.979.277a1.8 1.8 0 0 0-.272-.475 1.3 1.3 0 0 0-.48-.388q-.304-.152-.78-.152-.651 0-1.085.3-.43.296-.43.752 0 .407.296.642t.923.392l1.053.259q.95.23 1.417.706.465.471.466 1.214a1.8 1.8 0 0 1-.35 1.09q-.347.48-.97.757-.624.277-1.45.277-1.085 0-1.795-.471-.712-.47-.9-1.376l1.033-.258q.148.573.559.859.416.286 1.085.286.761 0 1.21-.323.452-.328.452-.785a.83.83 0 0 0-.259-.619q-.258-.254-.794-.378l-1.182-.277q-.974-.231-1.43-.716-.453-.49-.453-1.223 0-.6.337-1.062.342-.461.928-.725.59-.263 1.339-.263 1.052 0 1.652.462.605.461.859 1.218m3.376 5.503-2.16-7.091H83.7l1.533 5.429h.074l1.514-5.429h1.163l1.496 5.411h.074l1.532-5.411h1.145l-2.16 7.091H89l-1.551-5.447h-.111l-1.551 5.447zm11.595.148q-.96 0-1.685-.457a3.1 3.1 0 0 1-1.126-1.279q-.402-.822-.402-1.92 0-1.108.402-1.935.405-.825 1.126-1.283.725-.457 1.685-.457t1.68.457q.726.458 1.127 1.283.405.827.406 1.935 0 1.098-.406 1.92a3.06 3.06 0 0 1-1.126 1.279q-.72.457-1.68.457m0-.979q.73 0 1.2-.374.471-.374.698-.983.225-.609.226-1.32 0-.711-.226-1.325a2.24 2.24 0 0 0-.698-.993q-.47-.378-1.2-.378-.729 0-1.2.378a2.24 2.24 0 0 0-.697.993q-.226.614-.226 1.325t.226 1.32q.225.61.697.983.471.375 1.2.374m4.876.831v-7.091h1.053v1.071h.074q.194-.525.701-.854a2.07 2.07 0 0 1 1.145-.327q.12 0 .3.004.18.005.273.014v1.108a4 4 0 0 0-.254-.042 2.6 2.6 0 0 0-.411-.032q-.517 0-.923.217-.402.213-.637.591a1.6 1.6 0 0 0-.231.854v4.487zm7.299.148q-.887 0-1.565-.448-.678-.452-1.062-1.274-.383-.827-.383-1.953 0-1.117.383-1.939.383-.821 1.067-1.269.682-.448 1.578-.448.693 0 1.095.231.406.226.618.517.217.286.337.471h.093v-3.49h1.089v9.454h-1.053v-1.089h-.129q-.12.193-.341.489a2 2 0 0 1-.633.522q-.41.226-1.094.226m.148-.979q.655 0 1.108-.341.452-.347.688-.956.235-.614.235-1.417 0-.795-.231-1.39-.23-.6-.683-.932-.453-.337-1.117-.337-.693 0-1.154.355a2.13 2.13 0 0 0-.688.956q-.226.6-.226 1.348 0 .757.23 1.376.236.614.693.978.462.36 1.145.36m11.786.979q-.961 0-1.685-.457a3.1 3.1 0 0 1-1.127-1.279q-.401-.822-.401-1.92 0-1.108.401-1.935.406-.825 1.127-1.283.724-.457 1.685-.457.96 0 1.68.457.725.458 1.126 1.283.407.827.407 1.935 0 1.098-.407 1.92a3.06 3.06 0 0 1-1.126 1.279q-.72.457-1.68.457m0-.979q.729 0 1.2-.374.47-.374.697-.983t.226-1.32q0-.711-.226-1.325a2.24 2.24 0 0 0-.697-.993q-.471-.378-1.2-.378-.73 0-1.201.378a2.24 2.24 0 0 0-.697.993 3.8 3.8 0 0 0-.226 1.325q0 .711.226 1.32t.697.983q.47.375 1.201.374m4.876.831v-7.091h1.052v1.071h.074q.194-.525.702-.854.507-.327 1.145-.327.12 0 .3.004.18.005.272.014v1.108a4 4 0 0 0-.254-.042 2.6 2.6 0 0 0-.411-.032q-.516 0-.923.217-.402.213-.637.591a1.6 1.6 0 0 0-.231.854v4.487zm8.641-9.454h1.366l3.213 7.848h.111l3.213-7.848h1.367v9.454h-1.071v-7.183h-.093l-2.954 7.183h-1.034l-2.955-7.183h-.092v7.183h-1.071zm11.565 9.454v-9.454h5.669v1.015h-4.524v3.195h4.099v1.016h-4.099v4.228zm6.837 0h-1.2l3.471-9.454h1.182l3.472 9.454h-1.2l-2.826-7.959h-.074zm.443-3.693h4.838v1.016h-4.838zm11.463 3.693v-7.091h1.053v1.071h.073q.195-.525.702-.854a2.07 2.07 0 0 1 1.145-.327q.12 0 .3.004.18.005.272.014v1.108a4 4 0 0 0-.253-.042 2.6 2.6 0 0 0-.411-.032q-.517 0-.924.217-.401.213-.637.591a1.6 1.6 0 0 0-.231.854v4.487zm7.594.148q-1.025 0-1.768-.452a3.04 3.04 0 0 1-1.14-1.275q-.397-.82-.397-1.911 0-1.089.397-1.92.401-.836 1.117-1.302.72-.471 1.68-.471.555 0 1.094.185.54.184.984.6.443.411.706 1.089.263.68.263 1.672v.461h-5.466v-.942h4.358q0-.6-.24-1.071a1.8 1.8 0 0 0-.674-.743 1.9 1.9 0 0 0-1.025-.272q-.65 0-1.126.323a2.1 2.1 0 0 0-.725.831 2.44 2.44 0 0 0-.254 1.099v.627q0 .804.277 1.362.282.555.78.845.5.286 1.159.286.43 0 .776-.12.35-.125.604-.369.254-.249.393-.619l1.052.296q-.166.536-.558.942a2.7 2.7 0 0 1-.97.627 3.6 3.6 0 0 1-1.297.222m9.432 2.511v-3.748h-.093q-.12.193-.341.489a2 2 0 0 1-.633.522q-.41.226-1.094.226-.887 0-1.565-.448-.678-.452-1.062-1.274-.383-.827-.383-1.953 0-1.117.383-1.939.383-.821 1.067-1.269.682-.448 1.579-.448.692 0 1.094.231.406.226.618.517.217.286.337.471h.129v-1.127h1.053v9.75zm-2.013-3.49q.655 0 1.108-.341.452-.347.688-.956.235-.614.235-1.417 0-.795-.231-1.39-.23-.6-.683-.932-.453-.337-1.117-.337-.693 0-1.154.355a2.13 2.13 0 0 0-.688.956q-.226.6-.226 1.348 0 .757.23 1.376.236.614.693.978.462.36 1.145.36m9.565-2.068v-4.192h1.09v7.091h-1.09v-1.2h-.074q-.249.54-.775.919-.526.374-1.33.374a2.37 2.37 0 0 1-1.182-.291 2.04 2.04 0 0 1-.812-.887q-.296-.596-.296-1.5v-4.506h1.09v4.432q0 .776.434 1.237.438.462 1.117.462.406 0 .826-.208.424-.207.711-.637.291-.43.291-1.094m3.085 2.899v-7.091h1.09v7.091zm.554-8.272a.78.78 0 0 1-.549-.217.7.7 0 0 1-.227-.522q0-.304.227-.522a.78.78 0 0 1 .549-.217q.318 0 .545.217a.7.7 0 0 1 .231.522.7.7 0 0 1-.231.522.76.76 0 0 1-.545.217m2.531 8.272v-7.091h1.053v1.071h.073q.195-.525.702-.854a2.07 2.07 0 0 1 1.145-.327q.12 0 .3.004.18.005.272.014v1.108a4 4 0 0 0-.253-.042 2.6 2.6 0 0 0-.411-.032q-.517 0-.924.217-.401.213-.637.591a1.6 1.6 0 0 0-.23.854v4.487zm7.594.148q-1.024 0-1.768-.452a3.04 3.04 0 0 1-1.14-1.275q-.397-.82-.397-1.911 0-1.089.397-1.92.402-.836 1.117-1.302.72-.471 1.68-.471.554 0 1.094.185.54.184.984.6.443.411.706 1.089.263.68.263 1.672v.461h-5.466v-.942h4.358q0-.6-.24-1.071a1.8 1.8 0 0 0-.674-.743 1.9 1.9 0 0 0-1.025-.272q-.65 0-1.126.323a2.1 2.1 0 0 0-.725.831 2.44 2.44 0 0 0-.254 1.099v.627q0 .804.277 1.362.282.555.78.845.5.286 1.159.286.43 0 .776-.12.35-.125.604-.369a1.7 1.7 0 0 0 .393-.619l1.052.296q-.166.536-.558.942a2.7 2.7 0 0 1-.97.627 3.6 3.6 0 0 1-1.297.222m7.271 0q-.886 0-1.565-.448-.678-.452-1.062-1.274-.383-.827-.383-1.953 0-1.117.383-1.939.383-.821 1.067-1.269.682-.448 1.579-.448.692 0 1.094.231.406.226.618.517.217.286.337.471h.093v-3.49h1.089v9.454h-1.052v-1.089h-.13q-.12.193-.341.489a2 2 0 0 1-.633.522q-.41.226-1.094.226m.148-.979q.655 0 1.108-.341.452-.347.688-.956.235-.614.235-1.417 0-.795-.231-1.39-.23-.6-.683-.932-.453-.337-1.117-.337-.693 0-1.154.355a2.13 2.13 0 0 0-.688.956q-.226.6-.226 1.348 0 .757.23 1.376.235.614.693.978.462.36 1.145.36m9.053.831v-9.454h1.089v3.49h.093q.12-.184.332-.471.217-.29.619-.517.406-.231 1.098-.231.896 0 1.579.448.684.448 1.067 1.269.383.822.383 1.939 0 1.126-.383 1.953-.384.822-1.062 1.274-.679.448-1.565.448-.683 0-1.094-.226a2 2 0 0 1-.633-.522 7 7 0 0 1-.341-.489h-.13v1.089zm1.071-3.545q0 .803.235 1.417.235.61.688.956.453.34 1.108.341.683 0 1.14-.36a2.2 2.2 0 0 0 .693-.978q.235-.619.235-1.376 0-.748-.231-1.348a2.1 2.1 0 0 0-.687-.956q-.457-.355-1.15-.355-.665 0-1.117.337-.453.332-.683.932-.231.595-.231 1.39m9.828 3.693q-1.024 0-1.768-.452a3.04 3.04 0 0 1-1.14-1.275q-.397-.82-.397-1.911 0-1.089.397-1.92.402-.836 1.117-1.302.72-.471 1.68-.471.554 0 1.095.185.54.184.983.6.443.411.706 1.089.263.68.263 1.672v.461h-5.466v-.942h4.358q0-.6-.24-1.071a1.8 1.8 0 0 0-.674-.743 1.9 1.9 0 0 0-1.025-.272q-.65 0-1.126.323a2.1 2.1 0 0 0-.725.831 2.44 2.44 0 0 0-.254 1.099v.627q0 .804.277 1.362.282.555.78.845.5.286 1.159.286.43 0 .776-.12.35-.125.605-.369.254-.249.392-.619l1.053.296a2.3 2.3 0 0 1-.559.942 2.7 2.7 0 0 1-.97.627 3.6 3.6 0 0 1-1.297.222m7.751-7.239v.924h-3.822v-.924zm-2.677 7.091v-8.069q0-.61.286-1.016.287-.406.743-.609.458-.204.965-.203.401 0 .656.064.254.064.378.12l-.314.942a5 5 0 0 0-.231-.069 1.4 1.4 0 0 0-.378-.042q-.54 0-.78.273-.236.272-.236.798v7.811zm6.793.148q-.96 0-1.685-.457a3.1 3.1 0 0 1-1.127-1.279q-.4-.822-.401-1.92 0-1.108.401-1.935.407-.825 1.127-1.283.725-.457 1.685-.457t1.68.457q.725.458 1.127 1.283.406.827.406 1.935 0 1.098-.406 1.92a3.07 3.07 0 0 1-1.127 1.279q-.72.457-1.68.457m0-.979q.729 0 1.2-.374.47-.374.697-.983t.226-1.32q0-.711-.226-1.325a2.24 2.24 0 0 0-.697-.993q-.471-.378-1.2-.378t-1.2.378a2.23 2.23 0 0 0-.697.993 3.8 3.8 0 0 0-.227 1.325q0 .711.227 1.32.226.61.697.983.471.375 1.2.374m4.876.831v-7.091h1.053v1.071h.073q.195-.525.702-.854a2.07 2.07 0 0 1 1.145-.327q.12 0 .3.004.18.005.272.014v1.108a4 4 0 0 0-.253-.042 2.6 2.6 0 0 0-.411-.032q-.518 0-.924.217-.401.213-.637.591a1.6 1.6 0 0 0-.23.854v4.487zm7.594.148q-1.024 0-1.768-.452a3.04 3.04 0 0 1-1.14-1.275q-.397-.82-.397-1.911 0-1.089.397-1.92.402-.836 1.117-1.302.72-.471 1.68-.471.555 0 1.094.185.54.184.984.6.443.411.706 1.089.263.68.263 1.672v.461h-5.466v-.942h4.358q0-.6-.24-1.071a1.8 1.8 0 0 0-.674-.743 1.9 1.9 0 0 0-1.025-.272q-.65 0-1.126.323a2.1 2.1 0 0 0-.725.831 2.44 2.44 0 0 0-.254 1.099v.627q0 .804.277 1.362.282.555.78.845.5.286 1.159.286.43 0 .776-.12.35-.125.604-.369a1.7 1.7 0 0 0 .393-.619l1.052.296q-.166.536-.558.942a2.7 2.7 0 0 1-.97.627 3.6 3.6 0 0 1-1.297.222m10.336.018q-.674 0-1.223-.253a2.1 2.1 0 0 1-.872-.744q-.324-.49-.324-1.181 0-.61.24-.988.24-.384.642-.601a3.4 3.4 0 0 1 .887-.323q.49-.11.983-.175.646-.083 1.048-.125.406-.046.591-.152.189-.106.189-.369v-.037q0-.684-.374-1.062-.369-.38-1.122-.379-.78 0-1.223.342t-.623.729l-1.034-.369q.276-.646.738-1.006.467-.366 1.016-.508a4.2 4.2 0 0 1 1.089-.148q.342 0 .785.083.448.079.863.328.42.25.697.752.277.504.277 1.348v4.672h-1.089v-.96h-.055a1.9 1.9 0 0 1-.37.494 2.1 2.1 0 0 1-.688.448q-.429.184-1.048.184m.167-.978q.646 0 1.089-.254a1.72 1.72 0 0 0 .905-1.5v-.998q-.07.084-.305.153a5 5 0 0 1-.535.115q-.3.047-.587.083-.281.033-.457.056a4 4 0 0 0-.794.18 1.4 1.4 0 0 0-.591.364q-.22.24-.221.656 0 .568.42.859.425.286 1.076.286m7.953.96q-.998 0-1.718-.471a3.07 3.07 0 0 1-1.108-1.297q-.387-.826-.387-1.888 0-1.08.397-1.907.401-.83 1.117-1.297.72-.471 1.68-.471.748 0 1.348.277t.984.776q.382.498.475 1.163h-1.089a1.7 1.7 0 0 0-.554-.859q-.426-.378-1.145-.378-.637 0-1.118.332a2.17 2.17 0 0 0-.743.928q-.263.595-.263 1.399 0 .822.259 1.431.262.61.738.946.48.337 1.127.337.425 0 .771-.147.346-.148.586-.425t.342-.665h1.089a2.5 2.5 0 0 1-.457 1.131 2.55 2.55 0 0 1-.956.794q-.59.291-1.375.291m7.261 0q-.996 0-1.717-.471a3.07 3.07 0 0 1-1.108-1.297q-.387-.826-.388-1.888 0-1.08.397-1.907.401-.83 1.118-1.297.72-.471 1.68-.471.748 0 1.348.277t.983.776q.383.498.476 1.163h-1.09a1.7 1.7 0 0 0-.554-.859q-.425-.378-1.145-.378-.636 0-1.117.332a2.17 2.17 0 0 0-.743.928q-.263.595-.263 1.399 0 .822.258 1.431.264.61.739.946.48.337 1.126.337.426 0 .771-.147.347-.148.587-.425t.341-.665h1.09a2.5 2.5 0 0 1-.457 1.131 2.55 2.55 0 0 1-.956.794q-.59.291-1.376.291m7.354 0q-1.024 0-1.768-.452a3.04 3.04 0 0 1-1.14-1.275q-.397-.82-.397-1.911 0-1.089.397-1.92.402-.836 1.117-1.302.72-.471 1.681-.471.554 0 1.094.185.54.184.983.6.444.411.706 1.089.264.68.264 1.672v.461h-5.466v-.942h4.358q0-.6-.24-1.071a1.8 1.8 0 0 0-.675-.743 1.9 1.9 0 0 0-1.024-.272q-.651 0-1.127.323a2.1 2.1 0 0 0-.725.831 2.44 2.44 0 0 0-.253 1.099v.627q0 .804.277 1.362.28.555.78.845a2.3 2.3 0 0 0 1.158.286q.43 0 .776-.12.35-.125.605-.369.254-.249.392-.619l1.053.296a2.3 2.3 0 0 1-.559.942 2.7 2.7 0 0 1-.969.627 3.6 3.6 0 0 1-1.298.222m9.617-5.651-.979.277a1.8 1.8 0 0 0-.273-.475 1.3 1.3 0 0 0-.48-.388q-.305-.152-.78-.152-.65 0-1.085.3-.429.296-.429.752 0 .407.295.642.296.236.924.392l1.052.259q.951.23 1.418.706.466.471.466 1.214a1.8 1.8 0 0 1-.351 1.09q-.346.48-.969.757-.624.277-1.45.277-1.085 0-1.796-.471-.711-.47-.9-1.376l1.034-.258q.148.573.559.859.415.286 1.084.286.762 0 1.21-.323.453-.328.452-.785a.83.83 0 0 0-.258-.619q-.258-.254-.794-.378l-1.182-.277q-.973-.231-1.431-.716-.453-.49-.453-1.223 0-.6.338-1.062.341-.461.927-.725a3.3 3.3 0 0 1 1.339-.263q1.053 0 1.653.462.604.461.859 1.218m6.792 0-.979.277a1.8 1.8 0 0 0-.273-.475 1.3 1.3 0 0 0-.48-.388q-.304-.152-.78-.152-.65 0-1.085.3-.429.296-.429.752 0 .407.295.642.296.236.924.392l1.052.259q.951.23 1.418.706.466.471.466 1.214a1.8 1.8 0 0 1-.351 1.09q-.346.48-.97.757-.623.277-1.449.277-1.085 0-1.796-.471-.711-.47-.9-1.376l1.034-.258q.148.573.559.859.415.286 1.084.286.762 0 1.21-.323.452-.328.452-.785a.83.83 0 0 0-.258-.619q-.258-.254-.794-.378l-1.182-.277q-.974-.231-1.431-.716-.453-.49-.453-1.223 0-.6.337-1.062.343-.461.928-.725a3.3 3.3 0 0 1 1.339-.263q1.053 0 1.653.462.604.461.859 1.218"/><path fill="#c24a3d" d="m497.561 336.932-1.058.188a1.3 1.3 0 0 0-.211-.387 1.05 1.05 0 0 0-.383-.301 1.4 1.4 0 0 0-.606-.117q-.495 0-.828.223-.332.218-.332.566 0 .301.223.484.222.184.719.301l.953.219q.828.191 1.234.59t.406 1.035q0 .539-.312.961a2.06 2.06 0 0 1-.863.656q-.551.238-1.278.238-1.008 0-1.644-.429-.637-.434-.781-1.231l1.128-.172q.106.442.434.668.328.223.856.223.573 0 .917-.238.344-.242.344-.59a.61.61 0 0 0-.211-.473q-.207-.191-.636-.289l-1.016-.223q-.84-.19-1.242-.609-.399-.418-.399-1.058 0-.532.297-.93a1.94 1.94 0 0 1 .821-.621 3 3 0 0 1 1.199-.227q.973 0 1.531.422.558.418.738 1.121m4.202-1.465v.938h-3.277v-.938zm-2.398-1.437h1.168v5.676q0 .34.102.511a.53.53 0 0 0 .261.231q.165.058.356.058.14 0 .246-.019l.164-.031.211.964a2.3 2.3 0 0 1-.758.125 2 2 0 0 1-.859-.164 1.47 1.47 0 0 1-.645-.531q-.246-.359-.246-.902zm6.212 7.558q-.886 0-1.527-.379a2.57 2.57 0 0 1-.985-1.074q-.344-.695-.344-1.629 0-.921.344-1.625.348-.702.969-1.097.625-.395 1.461-.395.508 0 .984.168.477.168.856.527.379.36.597.934.219.57.219 1.387v.414h-4.769v-.875h3.625q0-.461-.188-.817a1.4 1.4 0 0 0-.527-.566 1.47 1.47 0 0 0-.789-.207q-.492 0-.86.242a1.6 1.6 0 0 0-.562.625q-.196.383-.196.832v.684q0 .602.211 1.023.216.422.598.645.382.219.895.219.332 0 .605-.094a1.25 1.25 0 0 0 .777-.762l1.106.199a2 2 0 0 1-.477.856 2.3 2.3 0 0 1-.855.566 3.2 3.2 0 0 1-1.168.199m3.87 2.129v-8.25h1.141v.973h.097q.102-.188.293-.434.192-.246.532-.429.34-.188.898-.188.726 0 1.297.367.57.367.894 1.059.328.692.328 1.664t-.324 1.668q-.324.691-.89 1.066a2.3 2.3 0 0 1-1.293.371q-.547 0-.895-.183a1.7 1.7 0 0 1-.539-.43q-.195-.246-.301-.437h-.07v3.183zm1.145-5.25q0 .633.183 1.11.184.476.531.746.348.265.852.265.524 0 .875-.277a1.7 1.7 0 0 0 .531-.762q.184-.48.184-1.082 0-.594-.18-1.066a1.63 1.63 0 0 0-.531-.746q-.352-.274-.879-.274-.508 0-.859.262a1.6 1.6 0 0 0-.528.731 3 3 0 0 0-.179 1.093m9.179-.886v1.011h-3.547v-1.011zm5.358 1.398v-3.512h1.172v6h-1.149v-1.039h-.062q-.207.48-.664.801-.454.316-1.129.316-.579 0-1.024-.253a1.8 1.8 0 0 1-.695-.762q-.25-.505-.25-1.246v-3.817h1.168v3.676q0 .613.34.977.34.363.883.363a1.44 1.44 0 0 0 1.195-.66q.218-.333.215-.844m2.741 4.738v-8.25h1.14v.973h.098q.102-.188.293-.434a1.7 1.7 0 0 1 .531-.429q.34-.188.899-.188.726 0 1.297.367.57.367.894 1.059.328.692.328 1.664t-.324 1.668q-.324.691-.891 1.066a2.3 2.3 0 0 1-1.292.371q-.547 0-.895-.183a1.7 1.7 0 0 1-.539-.43 3.3 3.3 0 0 1-.301-.437h-.07v3.183zm1.144-5.25q0 .633.184 1.11.183.476.531.746.348.265.852.265.523 0 .875-.277a1.7 1.7 0 0 0 .531-.762 3 3 0 0 0 .184-1.082q0-.594-.18-1.066a1.63 1.63 0 0 0-.531-.746q-.352-.274-.879-.274-.508 0-.86.262a1.6 1.6 0 0 0-.527.731q-.18.469-.18 1.093m8.556 3v-6h1.129v.953h.062q.165-.484.579-.761.417-.282.945-.282a5 5 0 0 1 .496.028v1.117a2 2 0 0 0-.25-.043 2.4 2.4 0 0 0-.359-.027q-.414 0-.739.175a1.31 1.31 0 0 0-.695 1.176v3.664zm6.593.121q-.886 0-1.528-.379a2.57 2.57 0 0 1-.984-1.074q-.344-.695-.344-1.629 0-.921.344-1.625.348-.702.969-1.097.625-.395 1.461-.395.507 0 .984.168t.856.527q.378.36.597.934.219.57.219 1.387v.414h-4.769v-.875h3.625q0-.461-.188-.817a1.4 1.4 0 0 0-.527-.566 1.47 1.47 0 0 0-.789-.207q-.493 0-.86.242a1.6 1.6 0 0 0-.562.625q-.196.383-.196.832v.684q0 .602.211 1.023.216.422.598.645.382.219.895.219.332 0 .605-.094a1.3 1.3 0 0 0 .473-.289 1.26 1.26 0 0 0 .304-.473l1.106.199a2 2 0 0 1-.477.856 2.3 2.3 0 0 1-.855.566 3.2 3.2 0 0 1-1.168.199m7.921 2.129v-3.183h-.071q-.105.19-.304.437-.195.246-.539.43-.344.183-.891.183-.727 0-1.297-.371-.566-.375-.89-1.066-.321-.696-.321-1.668t.324-1.664q.329-.692.899-1.059.57-.366 1.293-.367.558 0 .898.188.344.183.532.429.19.246.296.434h.098v-.973h1.141v8.25zm-1.547-3.129q.504 0 .851-.265.352-.27.532-.746a3.1 3.1 0 0 0 .183-1.11q0-.625-.179-1.093a1.6 1.6 0 0 0-.528-.731q-.348-.262-.859-.262-.528 0-.879.274a1.67 1.67 0 0 0-.531.746q-.176.472-.176 1.066 0 .602.18 1.082.179.481.531.762.356.277.875.277m8.086-1.609v-3.512h1.172v6h-1.149v-1.039h-.062q-.207.48-.664.801-.453.316-1.129.316-.579 0-1.024-.253a1.8 1.8 0 0 1-.695-.762q-.25-.505-.25-1.246v-3.817h1.168v3.676q0 .613.34.977.34.363.883.363a1.44 1.44 0 0 0 1.195-.66q.218-.333.215-.844m2.741 2.488v-6h1.168v6zm.59-6.925a.74.74 0 0 1-.524-.204.66.66 0 0 1-.214-.492.65.65 0 0 1 .214-.492.74.74 0 0 1 .524-.207.72.72 0 0 1 .519.207.65.65 0 0 1 .219.492q0 .285-.219.492a.73.73 0 0 1-.519.204m2.149 6.925v-6h1.129v.953h.063q.164-.484.578-.761a1.65 1.65 0 0 1 .945-.282 5 5 0 0 1 .496.028v1.117a2 2 0 0 0-.25-.043 2.4 2.4 0 0 0-.359-.027q-.414 0-.738.175a1.31 1.31 0 0 0-.696 1.176v3.664zm6.593.121q-.886 0-1.527-.379a2.57 2.57 0 0 1-.985-1.074q-.343-.695-.343-1.629 0-.921.343-1.625.348-.702.969-1.097.625-.395 1.461-.395.509 0 .984.168.477.168.856.527.379.36.598.934.218.57.218 1.387v.414h-4.769v-.875h3.625q0-.461-.188-.817a1.4 1.4 0 0 0-.527-.566 1.47 1.47 0 0 0-.789-.207q-.492 0-.86.242a1.6 1.6 0 0 0-.562.625q-.195.383-.195.832v.684q0 .602.211 1.023.215.422.597.645.383.219.895.219.332 0 .605-.094.274-.098.473-.289.199-.192.305-.473l1.105.199a2 2 0 0 1-.477.856 2.3 2.3 0 0 1-.855.566q-.511.2-1.168.199m6.116-.004q-.726 0-1.297-.371-.566-.375-.89-1.066-.321-.696-.321-1.668t.325-1.664q.327-.692.898-1.059.57-.366 1.293-.367.558 0 .899.188.343.183.531.429.19.246.297.434h.07v-2.973h1.168v8h-1.141v-.933h-.097a3 3 0 0 1-.305.437q-.195.246-.539.43-.343.183-.891.183m.258-.996q.504 0 .852-.265.351-.27.531-.746a3.1 3.1 0 0 0 .183-1.11 3 3 0 0 0-.179-1.093 1.6 1.6 0 0 0-.528-.731q-.347-.262-.859-.262-.527 0-.879.274a1.67 1.67 0 0 0-.531.746q-.176.472-.176 1.066 0 .602.18 1.082t.531.762q.356.277.875.277"/></g><path fill="#edecec" fill-opacity=".1" d="M36.64 88.027v.64h561.72v-1.28H36.64zm565.72 4h-.64v276H603v-276zm-4 280v-.64H36.64v1.28h561.72zm-565.72-4h.64v-276H32v276zm4 4v-.64a3.36 3.36 0 0 1-3.36-3.36H32a4.64 4.64 0 0 0 4.64 4.64zm565.72-4h-.64a3.36 3.36 0 0 1-3.36 3.36v1.28a4.64 4.64 0 0 0 4.64-4.64zm-4-280v.64a3.36 3.36 0 0 1 3.36 3.36H603a4.64 4.64 0 0 0-4.64-4.64zm-561.72 0v-.64a4.64 4.64 0 0 0-4.64 4.64h1.28a3.36 3.36 0 0 1 3.36-3.36z" mask="url(#m)"/></g><path fill="#edecec" fill-opacity=".06" d="M24 44.627v.64h587v-1.28H24zm591 4h-.64v332h1.28v-332zm-4 336v-.64H24v1.28h587zm-591-4h.64v-332h-1.28v332zm4 4v-.64a3.36 3.36 0 0 1-3.36-3.36h-1.28a4.64 4.64 0 0 0 4.64 4.64zm591-4h-.64a3.36 3.36 0 0 1-3.36 3.36v1.28a4.64 4.64 0 0 0 4.64-4.64zm-4-336v.64a3.36 3.36 0 0 1 3.36 3.36h1.28a4.64 4.64 0 0 0-4.64-4.64zm-587 0v-.64a4.64 4.64 0 0 0-4.64 4.64h1.28a3.36 3.36 0 0 1 3.36-3.36z" mask="url(#n)"/></g></g><defs><clipPath id="b"><path fill="#fff" d="M0 24.627h634v372.547a6 6 0 0 1-6 6H6a6 6 0 0 1-6-6z"/></clipPath><clipPath id="c"><path fill="#fff" d="M0 24.627h634v360H0z"/></clipPath><clipPath id="d"><path fill="#fff" d="M20 48.627a4 4 0 0 1 4-4h587a4 4 0 0 1 4 4v332a4 4 0 0 1-4 4H24a4 4 0 0 1-4-4z"/></clipPath><clipPath id="f"><path fill="#fff" d="M32.64 92.027a4 4 0 0 1 4-4h561.72a4 4 0 0 1 4 4v276a4 4 0 0 1-4 4H36.64a4 4 0 0 1-4-4z"/></clipPath><clipPath id="h"><path fill="#fff" d="M43.28 94.668h548.44v14.66H43.28z"/></clipPath></defs></svg>