<svg xmlns="http://www.w3.org/2000/svg" fill="none" viewBox="0 0 391 378"><g clip-path="url(#a)"><path fill="#26241e" d="M0 6a6 6 0 0 1 6-6h379a6 6 0 0 1 6 6v366a6 6 0 0 1-6 6H6a6 6 0 0 1-6-6z"/><path fill="url(#b)" d="M345 156h2a2 2 0 0 1 2 2v38a2 2 0 0 1-2 2h-2z"/><path fill="url(#c)" d="M43 113a2 2 0 0 1 2-2h2v20h-2a2 2 0 0 1-2-2z"/><path fill="url(#d)" d="M43 143a2 2 0 0 1 2-2h2v36h-2a2 2 0 0 1-2-2z"/><path fill="url(#e)" d="M43 188a2 2 0 0 1 2-2h2v27h-2a2 2 0 0 1-2-2z"/><g clip-path="url(#f)"><path fill="#3a3a3c" d="M46-403c0-24.301 19.7-44 44-44h212c24.301 0 44 19.699 44 44v783H46z"/><g clip-path="url(#g)"><mask id="u" fill="#fff"><path d="M50 79c0-22.091 17.909-40 40-40h212c22.091 0 40 17.909 40 40v301H50z"/></mask><path fill="#14120b" fill-opacity=".85" d="M50 79c0-22.091 17.909-40 40-40h212c22.091 0 40 17.909 40 40v301H50z"/><path fill="#000" d="M148.14 61.64c0-7.732 6.268-14 14-14h68c7.732 0 14 6.268 14 14s-6.268 14-14 14h-68c-7.732 0-14-6.268-14-14"/><path fill="#fff" fill-opacity=".86" d="M73.373 116.64h-2.26l4.965-13.818h2.47l4.966 13.818h-2.26l-3.887-11.274h-.108zm.337-5.411h7.192v1.774H73.71zm15.554 5.62q-1.512 0-2.598-.681a4.56 4.56 0 0 1-1.667-1.896q-.58-1.207-.58-2.766 0-1.58.594-2.787.6-1.215 1.68-1.896t2.55-.681q1.188 0 2.112.438.932.432 1.505 1.221.574.79.681 1.849h-2.004a2.3 2.3 0 0 0-.735-1.255q-.573-.526-1.525-.526-.837 0-1.464.438-.621.44-.972 1.249-.344.802-.344 1.902 0 1.127.338 1.944.344.816.971 1.261.628.446 1.471.446.574 0 1.032-.21.466-.208.783-.607.325-.398.445-.958h2.004a3.9 3.9 0 0 1-.66 1.808 3.8 3.8 0 0 1-1.465 1.255q-.918.453-2.152.452m11.05-10.572v1.646h-5.695v-1.646zm-4.184-2.483h2.065v9.796q0 .574.169.871a.88.88 0 0 0 .452.391q.276.102.607.101.243 0 .425-.027.182-.033.283-.06l.371 1.693a5 5 0 0 1-.512.135 4 4 0 0 1-.81.081 3.55 3.55 0 0 1-1.505-.277 2.6 2.6 0 0 1-1.12-.924q-.425-.627-.425-1.572zm6.133 12.846v-10.363h2.065v10.363zm1.046-11.949q-.533 0-.911-.358a1.14 1.14 0 0 1-.378-.857q0-.498.378-.856t.911-.358q.526 0 .904.358t.378.856q0 .5-.378.857a1.27 1.27 0 0 1-.904.358m12.357 1.586-3.758 10.363h-2.213l-3.758-10.363h2.213l2.598 7.948h.108l2.597-7.948zm5.742 10.572q-1.538 0-2.645-.654a4.4 4.4 0 0 1-1.707-1.856q-.594-1.2-.594-2.813 0-1.593.594-2.807.6-1.215 1.68-1.896t2.523-.681q.89 0 1.714.29a4 4 0 0 1 1.478.917q.654.621 1.032 1.613.385.985.385 2.388v.722h-8.266v-1.525h6.248q0-.782-.324-1.396a2.37 2.37 0 0 0-.897-.965q-.573-.351-1.349-.351-.844 0-1.464.412-.621.405-.965 1.066a3.06 3.06 0 0 0-.338 1.423v1.201q0 1.026.365 1.748.364.715 1.018 1.093.655.378 1.525.378.574 0 1.039-.162.473-.162.81-.486a2.2 2.2 0 0 0 .526-.816l1.944.337a3.4 3.4 0 0 1-.817 1.484 4 4 0 0 1-1.491.985q-.89.351-2.024.351m18.967-8.022-1.869.317a2.1 2.1 0 0 0-.364-.661 1.8 1.8 0 0 0-.661-.52q-.412-.202-1.033-.202-.85 0-1.416.378-.567.377-.567.971 0 .514.378.823.385.31 1.234.513l1.66.378q1.437.33 2.139 1.019t.702 1.788q0 .938-.54 1.666-.54.729-1.498 1.141-.958.411-2.213.411-1.761 0-2.868-.749-1.105-.749-1.356-2.132l1.997-.297q.183.763.743 1.147.566.385 1.464.385.986 0 1.572-.405.587-.411.587-1.005 0-.486-.358-.81-.357-.33-1.106-.492l-1.748-.392q-1.457-.323-2.152-1.046-.695-.728-.688-1.835-.007-.917.506-1.606.52-.695 1.423-1.079.912-.391 2.085-.391 1.694 0 2.665.735.98.729 1.282 1.95m6.619 8.022q-1.539 0-2.645-.654a4.4 4.4 0 0 1-1.707-1.856q-.594-1.2-.594-2.813 0-1.593.594-2.807.6-1.215 1.68-1.896t2.524-.681q.89 0 1.713.29a4 4 0 0 1 1.478.917q.654.621 1.032 1.613.385.985.385 2.388v.722h-8.265v-1.525h6.248q0-.782-.324-1.396a2.4 2.4 0 0 0-.898-.965q-.573-.351-1.349-.351-.843 0-1.464.412-.621.405-.965 1.066a3.06 3.06 0 0 0-.337 1.423v1.201q0 1.026.364 1.748.364.715 1.019 1.093t1.525.378a3.2 3.2 0 0 0 1.039-.162 2.2 2.2 0 0 0 .809-.486q.344-.33.527-.816l1.943.337a3.4 3.4 0 0 1-.817 1.484 4 4 0 0 1-1.491.985q-.89.351-2.024.351m14.236-8.022-1.869.317a2.1 2.1 0 0 0-.364-.661 1.8 1.8 0 0 0-.661-.52q-.412-.202-1.033-.202-.85 0-1.416.378-.567.377-.567.971 0 .514.378.823.385.31 1.234.513l1.66.378q1.437.33 2.139 1.019t.702 1.788q0 .938-.54 1.666-.54.729-1.498 1.141-.958.411-2.213.411-1.761 0-2.868-.749-1.105-.749-1.356-2.132l1.997-.297q.183.763.743 1.147.566.385 1.464.385.986 0 1.572-.405.587-.411.587-1.005 0-.486-.358-.81-.357-.33-1.106-.492l-1.748-.392q-1.457-.323-2.152-1.046-.695-.728-.688-1.835-.007-.917.506-1.606.52-.695 1.423-1.079.912-.391 2.085-.391 1.694 0 2.665.735.98.729 1.282 1.95m9.945 0-1.869.317a2.1 2.1 0 0 0-.364-.661 1.8 1.8 0 0 0-.661-.52q-.413-.202-1.032-.202-.851 0-1.417.378-.567.377-.567.971 0 .514.378.823.384.31 1.234.513l1.66.378q1.437.33 2.139 1.019t.702 1.788q0 .938-.54 1.666-.54.729-1.498 1.141-.958.411-2.213.411-1.761 0-2.867-.749t-1.357-2.132l1.998-.297q.181.763.742 1.147.567.385 1.464.385.986 0 1.572-.405.587-.411.587-1.005 0-.486-.358-.81-.357-.33-1.106-.492l-1.748-.392q-1.457-.323-2.152-1.046-.695-.728-.688-1.835-.007-.917.506-1.606.52-.695 1.423-1.079.912-.391 2.085-.391 1.694 0 2.665.735.98.729 1.282 1.95m2.132 7.813v-10.363h2.065v10.363zm1.046-11.949q-.533 0-.911-.358a1.14 1.14 0 0 1-.378-.857q0-.498.378-.856t.911-.358q.526 0 .904.358t.378.856q0 .5-.378.857a1.27 1.27 0 0 1-.904.358m7.83 12.158q-1.465 0-2.557-.668a4.5 4.5 0 0 1-1.687-1.869q-.6-1.2-.601-2.806 0-1.613.601-2.821.6-1.208 1.687-1.875 1.093-.669 2.557-.668 1.464 0 2.55.668 1.094.667 1.694 1.875t.6 2.821q0 1.605-.6 2.806a4.5 4.5 0 0 1-1.694 1.869q-1.086.669-2.55.668m.007-1.72q.93 0 1.545-.493.614-.499.911-1.322a5.2 5.2 0 0 0 .303-1.815q0-.985-.303-1.815-.297-.83-.911-1.329-.615-.506-1.545-.506-.945 0-1.559.506-.613.499-.918 1.329a5.4 5.4 0 0 0-.296 1.815q0 .992.296 1.815.305.823.918 1.322.614.493 1.559.493m8.86-4.636v6.147h-2.064v-10.363h1.976v1.693h.135a2.96 2.96 0 0 1 1.12-1.329q.77-.5 1.937-.499 1.06 0 1.855.445.797.445 1.235 1.316.445.87.439 2.145v6.592h-2.058v-6.335q0-1.12-.581-1.748-.579-.634-1.599-.634-.695 0-1.241.303-.54.297-.85.878-.304.573-.304 1.389m16.863-1.666-1.869.317a2.1 2.1 0 0 0-.365-.661 1.8 1.8 0 0 0-.661-.52q-.411-.202-1.032-.202-.85 0-1.417.378-.567.377-.567.971 0 .514.378.823.384.31 1.235.513l1.66.378q1.437.33 2.138 1.019.702.688.702 1.788 0 .938-.54 1.666-.54.729-1.497 1.141-.959.411-2.214.411-1.76 0-2.867-.749t-1.356-2.132l1.997-.297q.182.763.742 1.147.567.385 1.464.385.986 0 1.572-.405.588-.411.587-1.005 0-.486-.357-.81-.358-.33-1.107-.492l-1.747-.392q-1.458-.323-2.153-1.046-.694-.728-.688-1.835-.007-.917.506-1.606.52-.695 1.424-1.079.91-.391 2.085-.391 1.693 0 2.665.735.978.729 1.282 1.95"/><path fill="#fff" fill-opacity=".48" d="M71.609 144.64v-8h2.703q.938 0 1.539.32.602.317.89.872.29.554.29 1.261 0 .708-.29 1.254a2.04 2.04 0 0 1-.886.86q-.598.308-1.528.308H72.14v-.875h2.156q.64 0 1.031-.187.396-.187.57-.532.18-.346.18-.828 0-.48-.18-.84a1.23 1.23 0 0 0-.573-.554q-.395-.2-1.043-.199h-1.704v7.14zm3.765-3.594 1.97 3.594h-1.126l-1.937-3.594zm5.597 3.719q-.867 0-1.496-.383a2.56 2.56 0 0 1-.965-1.078q-.336-.695-.336-1.617t.336-1.625q.34-.707.945-1.102.61-.398 1.422-.398.469 0 .926.156.457.157.832.508.376.348.598.922t.222 1.414v.391H78.83v-.797h3.688q0-.508-.203-.906a1.5 1.5 0 0 0-.57-.629 1.6 1.6 0 0 0-.868-.231 1.65 1.65 0 0 0-.953.274q-.398.269-.613.703a2.1 2.1 0 0 0-.215.929v.532q0 .68.234 1.152.24.468.66.715.423.242.981.242.363 0 .656-.102a1.4 1.4 0 0 0 .512-.312q.215-.211.332-.523l.89.25a2 2 0 0 1-.472.796 2.3 2.3 0 0 1-.82.532 3 3 0 0 1-1.098.187m6.324 0q-.843 0-1.453-.398a2.6 2.6 0 0 1-.937-1.098q-.33-.7-.329-1.598 0-.914.337-1.613.339-.703.945-1.098.609-.398 1.422-.398.632 0 1.14.234t.832.657q.325.422.403.984h-.922a1.43 1.43 0 0 0-.469-.727q-.36-.32-.969-.32-.54 0-.945.281a1.83 1.83 0 0 0-.629.786q-.222.503-.223 1.183 0 .695.22 1.211.222.516.624.801.407.285.953.285.36 0 .653-.125.292-.125.496-.359.202-.235.289-.563h.922a2.14 2.14 0 0 1-1.196 1.629q-.5.246-1.164.246m6.223 0q-.867 0-1.496-.383a2.56 2.56 0 0 1-.965-1.078q-.336-.695-.336-1.617t.336-1.625q.34-.707.945-1.102.61-.398 1.422-.398.469 0 .926.156.457.157.832.508.376.348.598.922t.222 1.414v.391h-4.625v-.797h3.688q0-.508-.203-.906a1.5 1.5 0 0 0-.57-.629 1.6 1.6 0 0 0-.868-.231 1.65 1.65 0 0 0-.953.274q-.399.269-.613.703a2.1 2.1 0 0 0-.215.929v.532q0 .68.234 1.152.24.468.66.715.423.242.98.242.365 0 .657-.102a1.4 1.4 0 0 0 .512-.312q.215-.211.332-.523l.89.25a2 2 0 0 1-.472.796 2.3 2.3 0 0 1-.82.532 3 3 0 0 1-1.098.187m4.808-3.734v3.609h-.921v-6h.89v.938h.078q.212-.458.641-.735.43-.28 1.109-.281.61 0 1.067.25.457.246.711.75.254.5.254 1.266v3.812h-.922v-3.75q0-.707-.367-1.101-.367-.399-1.008-.399-.442 0-.79.192-.343.19-.542.558-.2.368-.2.891m8.123-2.391v.781h-3.11v-.781zm-2.204-1.437h.922v5.718q0 .391.114.586a.58.58 0 0 0 .297.258q.183.063.386.063.153 0 .25-.016l.156-.031.188.828q-.094.035-.262.07a2 2 0 0 1-.426.039q-.39 0-.765-.168a1.5 1.5 0 0 1-.617-.511q-.243-.345-.243-.868zm7.733 2.781-.828.234a1.5 1.5 0 0 0-.231-.402 1.1 1.1 0 0 0-.406-.328q-.258-.129-.66-.129-.55 0-.918.254-.363.25-.363.637 0 .344.25.542.25.2.781.333l.891.218q.804.196 1.199.598.394.399.394 1.027 0 .516-.297.922a1.96 1.96 0 0 1-.82.641q-.527.234-1.226.234-.918 0-1.52-.398-.601-.399-.762-1.164l.875-.219q.126.484.473.726.351.243.918.243.645 0 1.023-.274.383-.277.383-.664a.7.7 0 0 0-.219-.523q-.218-.215-.671-.321l-1-.234q-.825-.195-1.211-.605-.383-.415-.383-1.036 0-.507.285-.898a1.94 1.94 0 0 1 .785-.613 2.75 2.75 0 0 1 1.133-.223q.891 0 1.398.391.512.39.727 1.031"/><mask id="h" fill="#fff"><path d="M70.64 155.64h250.72v56.84H70.64z"/></mask><path fill="#fff" fill-opacity=".055" d="M321.36 212.48v-.64H70.64v1.28h250.72z" mask="url(#h)"/><path fill="#fff" fill-opacity=".86" d="M71.599 168.913h1.598l2.778 6.784h.103l2.778-6.784h1.598v8.727H79.2v-6.315h-.08l-2.575 6.302h-1.04l-2.573-6.306h-.081v6.319h-1.253zm12.572 8.872q-.623 0-1.125-.23a1.9 1.9 0 0 1-.797-.678q-.29-.442-.29-1.086 0-.555.213-.912.213-.359.576-.567a3 3 0 0 1 .81-.315q.447-.107.911-.162l.955-.111q.367-.047.532-.149.167-.102.167-.333v-.029q0-.56-.316-.865-.31-.307-.929-.307-.643 0-1.014.285-.366.282-.507.627l-1.198-.273a2.3 2.3 0 0 1 .623-.963q.413-.37.95-.537a3.7 3.7 0 0 1 1.13-.171q.391 0 .83.094.444.09.827.333.387.243.635.694.247.447.247 1.164v4.346h-1.244v-.895h-.051a1.8 1.8 0 0 1-.371.486 2 2 0 0 1-.635.396 2.5 2.5 0 0 1-.93.158m.277-1.023q.528 0 .903-.209.38-.209.576-.545.2-.34.2-.729v-.843a.7.7 0 0 1-.264.127q-.192.056-.44.098-.247.039-.48.073l-.393.051a3 3 0 0 0-.677.158q-.303.11-.486.319-.18.205-.18.546 0 .473.35.716.35.238.89.238m7.407 1.01q-.95 0-1.636-.43a2.85 2.85 0 0 1-1.048-1.198q-.367-.762-.367-1.747 0-.997.375-1.76.375-.766 1.057-1.197.681-.43 1.606-.431.746 0 1.33.277.584.273.942.767.362.495.43 1.155h-1.24a1.5 1.5 0 0 0-.469-.792q-.362-.333-.971-.333a1.58 1.58 0 0 0-.934.282 1.8 1.8 0 0 0-.617.792q-.222.512-.222 1.21 0 .717.217 1.236.218.52.614.806.4.285.942.285.362 0 .656-.132.298-.136.499-.388.204-.25.285-.605h1.24a2.4 2.4 0 0 1-.413 1.134q-.346.498-.925.784-.575.285-1.35.285m4.154-.132v-8.727h3.196q.93 0 1.538.307.61.302.912.822.303.516.303 1.163 0 .546-.2.921a1.66 1.66 0 0 1-.537.597 2.4 2.4 0 0 1-.733.323v.086q.434.021.848.281.417.255.69.729.273.472.273 1.15 0 .67-.316 1.202-.31.528-.963.839-.651.307-1.666.307zm1.317-1.129h1.9q.947 0 1.355-.367.41-.366.41-.916 0-.413-.209-.758a1.5 1.5 0 0 0-.597-.55 1.9 1.9 0 0 0-.912-.205h-1.947zm0-3.823h1.764q.443 0 .797-.17a1.4 1.4 0 0 0 .567-.477q.213-.312.213-.733 0-.542-.38-.908-.378-.366-1.163-.366h-1.798zm9.189 5.084q-.92 0-1.606-.422a2.84 2.84 0 0 1-1.066-1.18q-.379-.759-.379-1.773 0-1.018.379-1.781a2.84 2.84 0 0 1 1.066-1.185q.686-.422 1.606-.422.921 0 1.607.422t1.065 1.185.38 1.781q0 1.014-.38 1.773a2.84 2.84 0 0 1-1.065 1.18q-.686.422-1.607.422m.005-1.069q.596 0 .988-.316.393-.315.58-.839a3.3 3.3 0 0 0 .192-1.155q0-.626-.192-1.151a1.87 1.87 0 0 0-.58-.848q-.392-.32-.988-.319-.601 0-.998.319a1.9 1.9 0 0 0-.583.848q-.188.524-.188 1.151 0 .63.188 1.155.192.524.583.839.397.316.998.316m7.226 1.069q-.92 0-1.607-.422a2.84 2.84 0 0 1-1.065-1.18q-.38-.759-.379-1.773 0-1.018.379-1.781a2.85 2.85 0 0 1 1.065-1.185q.686-.422 1.607-.422t1.606.422a2.84 2.84 0 0 1 1.066 1.185q.38.763.379 1.781 0 1.014-.379 1.773a2.84 2.84 0 0 1-1.066 1.18q-.686.422-1.606.422m.004-1.069q.596 0 .989-.316.392-.315.579-.839a3.3 3.3 0 0 0 .192-1.155q0-.626-.192-1.151a1.9 1.9 0 0 0-.579-.848q-.392-.32-.989-.319-.6 0-.997.319a1.9 1.9 0 0 0-.584.848q-.187.524-.187 1.151 0 .63.187 1.155.192.524.584.839.396.316.997.316m5.641-1.283-.008-1.555h.221l2.608-2.77h1.526l-2.975 3.153h-.2zm-1.172 2.22v-8.727h1.274v8.727zm4.134 0-2.344-3.111.878-.89 3.03 4.001zm5.824 0v-8.727h3.111q1.018 0 1.687.371.669.37 1.002 1.014.332.639.332 1.44 0 .805-.337 1.449a2.43 2.43 0 0 1-1.005 1.014q-.669.37-1.684.371h-2.139v-1.117h2.02q.643 0 1.044-.221.4-.226.588-.614.188-.387.188-.882 0-.494-.188-.878a1.35 1.35 0 0 0-.592-.601q-.4-.217-1.057-.217h-1.653v7.598zm7.573 0v-6.545h1.232v1.039h.068q.179-.528.631-.831a1.8 1.8 0 0 1 1.031-.306q.12 0 .281.008.167.009.26.022v1.218a2 2 0 0 0-.272-.047 3 3 0 0 0-.392-.029q-.452 0-.806.191-.349.188-.554.524a1.4 1.4 0 0 0-.204.759v3.997zm7.129.132q-.92 0-1.607-.422a2.84 2.84 0 0 1-1.065-1.18q-.38-.759-.379-1.773 0-1.018.379-1.781a2.85 2.85 0 0 1 1.065-1.185q.686-.422 1.607-.422t1.606.422a2.84 2.84 0 0 1 1.066 1.185q.379.763.379 1.781 0 1.014-.379 1.773a2.84 2.84 0 0 1-1.066 1.18q-.686.422-1.606.422m.004-1.069q.597 0 .989-.316.392-.315.579-.839a3.3 3.3 0 0 0 .192-1.155q0-.626-.192-1.151a1.9 1.9 0 0 0-.579-.848q-.392-.32-.989-.319-.601 0-.997.319a1.9 1.9 0 0 0-.584.848q-.188.524-.188 1.151 0 .63.188 1.155.191.524.584.839.396.316.997.316"/><g clip-path="url(#i)"><path fill="url(#j)" d="m72.055 189.613 2.59 7.347h.103l2.59-7.347h1.109l-3.205 8.727h-1.09l-3.205-8.727zm9.75 8.864q-.946 0-1.632-.418a2.8 2.8 0 0 1-1.053-1.176q-.366-.759-.366-1.764 0-1.006.366-1.773.37-.771 1.031-1.202.665-.434 1.552-.434.51 0 1.01.17.498.17.907.554.41.38.652 1.006t.243 1.542v.427H79.47v-.87h4.022q0-.554-.221-.988a1.67 1.67 0 0 0-.623-.687 1.75 1.75 0 0 0-.945-.251q-.602 0-1.04.298-.435.294-.67.767a2.26 2.26 0 0 0-.234 1.015v.579q0 .742.256 1.257.26.512.72.78.46.264 1.07.264.396 0 .716-.111.324-.114.558-.34.234-.23.362-.571l.972.272q-.153.495-.516.87-.362.37-.895.579a3.3 3.3 0 0 1-1.197.205m4.24-.137v-6.545h.971v.989h.069q.179-.486.647-.789a1.9 1.9 0 0 1 1.057-.302q.11 0 .277.004.166.004.252.013v1.022a3 3 0 0 0-.235-.038q-.179-.03-.38-.03-.476 0-.851.2a1.47 1.47 0 0 0-.801 1.334v4.142zm4.465 0v-6.545h1.005v6.545zm.511-7.636a.72.72 0 0 1-.507-.2.64.64 0 0 1-.209-.482q0-.281.209-.481a.7.7 0 0 1 .507-.201q.294 0 .503.201a.64.64 0 0 1 .213.481.64.64 0 0 1-.213.482.7.7 0 0 1-.503.2m5.251 1.091v.852h-3.528v-.852zM93.8 198.34v-7.449q0-.562.265-.937a1.64 1.64 0 0 1 .686-.563q.422-.187.89-.187.372 0 .605.06.235.059.35.11l-.29.87a4 4 0 0 0-.213-.064 1.3 1.3 0 0 0-.35-.039q-.498 0-.72.252-.217.251-.217.737v7.21zm3.882 0v-6.545h1.005v6.545zm.51-7.636a.72.72 0 0 1-.506-.2.64.64 0 0 1-.209-.482q0-.281.209-.481a.7.7 0 0 1 .507-.201.7.7 0 0 1 .503.201.64.64 0 0 1 .213.481.64.64 0 0 1-.213.482.7.7 0 0 1-.503.2m5.082 7.773q-.946 0-1.633-.418a2.8 2.8 0 0 1-1.052-1.176q-.367-.759-.367-1.764 0-1.006.367-1.773a2.9 2.9 0 0 1 1.031-1.202q.665-.434 1.551-.434.512 0 1.01.17.499.17.908.554.41.38.652 1.006t.243 1.542v.427h-5.046v-.87h4.023q0-.554-.222-.988a1.67 1.67 0 0 0-.622-.687 1.75 1.75 0 0 0-.946-.251q-.6 0-1.04.298a2 2 0 0 0-.669.767 2.26 2.26 0 0 0-.234 1.015v.579q0 .742.256 1.257.26.512.72.78.46.264 1.07.264.396 0 .715-.111.324-.114.559-.34.234-.23.362-.571l.971.272q-.153.495-.515.87-.363.37-.895.579a3.3 3.3 0 0 1-1.197.205m6.711 0a2.56 2.56 0 0 1-1.444-.414q-.627-.417-.981-1.176-.353-.762-.353-1.802 0-1.032.353-1.79.354-.758.985-1.172.63-.414 1.457-.413.64 0 1.01.213.376.209.571.477.2.264.311.435h.086v-3.222h1.005v8.727h-.971v-1.005h-.12q-.111.179-.315.451-.204.269-.584.482-.379.209-1.01.209m.137-.904q.605 0 1.022-.315.418-.32.635-.882.218-.567.218-1.308 0-.734-.214-1.283a1.87 1.87 0 0 0-.63-.861q-.418-.31-1.031-.311-.64 0-1.066.328-.422.324-.635.882-.209.554-.209 1.245 0 .699.214 1.269.216.567.639.904.426.332 1.057.332"/><path fill="#fff" fill-opacity=".42" d="M120.293 195.289a.74.74 0 0 1-.541-.226.74.74 0 0 1-.226-.541q0-.315.226-.541a.74.74 0 0 1 .541-.226q.316 0 .542.226a.74.74 0 0 1 .225.541.73.73 0 0 1-.106.384.8.8 0 0 1-.277.281.74.74 0 0 1-.384.102"/><g clip-path="url(#k)"><path fill="#fff" fill-opacity=".42" d="M127.339 196.551v-.87l3.835-6.068h.631v1.347h-.426l-2.898 4.585v.068h5.165v.938zm4.108 1.789v-8.727h1.006v8.727zm3.813 0v-6.545h.971v1.023h.086q.204-.525.66-.814.456-.294 1.095-.294.648 0 1.078.294.435.29.678.814h.068q.252-.507.754-.806.504-.302 1.206-.302.879 0 1.436.549.56.546.559 1.701v4.38h-1.006v-4.38q0-.724-.396-1.036a1.47 1.47 0 0 0-.934-.311q-.69 0-1.069.418-.38.413-.379 1.048v4.261h-1.023v-4.483q0-.558-.362-.899-.363-.345-.934-.345-.391 0-.733.209a1.6 1.6 0 0 0-.545.579 1.7 1.7 0 0 0-.205.848v4.091zm15.731.154q-.623 0-1.13-.235a1.93 1.93 0 0 1-.805-.686q-.298-.451-.298-1.091 0-.562.221-.912.222-.353.592-.554.371-.2.819-.298.451-.102.907-.162.597-.076.968-.115.375-.042.545-.14.175-.099.175-.341v-.034q0-.631-.345-.981-.342-.35-1.036-.349-.72 0-1.129.315-.41.316-.575.674l-.955-.341q.256-.597.682-.929.43-.337.937-.469a4 4 0 0 1 1.006-.136q.316 0 .724.076.414.073.797.303.388.23.644.695t.256 1.244v4.312h-1.006v-.886h-.051a1.8 1.8 0 0 1-.341.456q-.239.243-.635.413-.396.171-.967.171m.153-.904q.597 0 1.006-.234a1.6 1.6 0 0 0 .835-1.385v-.92q-.065.077-.281.14-.213.06-.495.107a21 21 0 0 1-.541.076q-.26.03-.422.052a4 4 0 0 0-.733.166 1.3 1.3 0 0 0-.545.336q-.205.222-.205.606 0 .523.388.792.392.264.993.264m7.324 3.341q-.728 0-1.253-.187a2.7 2.7 0 0 1-.873-.486 2.7 2.7 0 0 1-.55-.639l.801-.563q.137.18.345.409.21.235.571.405.367.175.959.175.794 0 1.308-.384.516-.383.516-1.201v-1.33h-.085a5 5 0 0 1-.316.443 1.8 1.8 0 0 1-.579.465q-.375.2-1.014.2a2.73 2.73 0 0 1-1.424-.375 2.64 2.64 0 0 1-.993-1.091q-.362-.716-.362-1.738 0-1.007.354-1.752.354-.75.984-1.159.631-.414 1.458-.413.639 0 1.014.213.38.209.579.477.205.264.316.435h.102v-1.04h.972v6.733q0 .844-.384 1.372a2.2 2.2 0 0 1-1.023.78q-.639.25-1.423.251m-.034-3.596q.605 0 1.023-.277a1.73 1.73 0 0 0 .635-.797q.217-.52.217-1.245 0-.707-.213-1.248a1.87 1.87 0 0 0-.631-.848q-.417-.307-1.031-.307-.639 0-1.065.324a1.97 1.97 0 0 0-.635.869 3.4 3.4 0 0 0-.209 1.21q0 .683.213 1.206.218.52.639.819.427.294 1.057.294m7.364 1.142q-.887 0-1.556-.422a2.86 2.86 0 0 1-1.039-1.181q-.371-.758-.371-1.772 0-1.023.371-1.786a2.86 2.86 0 0 1 1.039-1.184q.67-.423 1.556-.422.887 0 1.551.422.668.422 1.04 1.184.375.763.375 1.786 0 1.014-.375 1.772-.371.76-1.04 1.181-.665.422-1.551.422m0-.904q.673 0 1.108-.345.434-.345.643-.908.209-.562.209-1.218t-.209-1.223a2.07 2.07 0 0 0-.643-.917q-.435-.349-1.108-.349t-1.108.349a2.06 2.06 0 0 0-.644.917 3.5 3.5 0 0 0-.209 1.223q0 .656.209 1.218.209.563.644.908t1.108.345"/></g></g><mask id="l" fill="#fff"><path d="M70.64 212.48h250.72v56.84H70.64z"/></mask><path fill="#fff" fill-opacity=".055" d="M321.36 269.32v-.64H70.64v1.28h250.72z" mask="url(#l)"/><path fill="#fff" fill-opacity=".86" d="M71.497 234.48v-6.545h1.274v6.545zm.643-7.555a.8.8 0 0 1-.571-.222.72.72 0 0 1-.234-.537q0-.315.234-.537.24-.226.571-.226a.8.8 0 0 1 .567.226q.238.222.238.537 0 .31-.238.537a.8.8 0 0 1-.567.222m2.447 7.555v-8.727h3.11q1.02 0 1.688.37.669.372 1.002 1.015.332.639.332 1.44 0 .806-.336 1.449a2.44 2.44 0 0 1-1.006 1.014q-.669.37-1.683.371h-2.14v-1.117h2.02q.644 0 1.044-.221.4-.226.588-.614.188-.387.188-.882t-.188-.878a1.34 1.34 0 0 0-.592-.601q-.401-.217-1.057-.217h-1.653v7.598zm8.848-3.886v3.886H82.16v-8.727h1.257V229h.08q.23-.528.704-.84.473-.31 1.236-.311.672 0 1.176.277.507.278.784.827.28.546.281 1.364v4.163h-1.274v-4.01q0-.72-.37-1.116-.372-.4-1.032-.401-.451 0-.81.192a1.4 1.4 0 0 0-.558.562q-.2.367-.2.887m8.701 4.018q-.92 0-1.606-.422a2.85 2.85 0 0 1-1.065-1.18q-.38-.759-.38-1.773 0-1.019.38-1.781a2.84 2.84 0 0 1 1.065-1.185q.686-.422 1.606-.422.921 0 1.607.422.686.421 1.065 1.185.38.762.38 1.781 0 1.014-.38 1.773a2.85 2.85 0 0 1-1.065 1.18q-.686.422-1.606.422m.005-1.07q.596 0 .988-.315.393-.315.58-.839.192-.525.192-1.155a3.3 3.3 0 0 0-.192-1.151 1.9 1.9 0 0 0-.58-.848q-.391-.32-.988-.319-.6 0-.997.319a1.9 1.9 0 0 0-.584.848q-.188.524-.188 1.151 0 .63.188 1.155.192.524.584.839.396.315.997.315m5.743-2.948v3.886H96.61v-6.545h1.223V229h.08q.227-.52.708-.835.486-.316 1.223-.316.67 0 1.172.282.502.276.78.826.277.55.277 1.36v4.163h-1.274v-4.01q0-.711-.371-1.112-.37-.405-1.019-.405-.443 0-.788.192a1.4 1.4 0 0 0-.541.562q-.195.367-.196.887m8.719 4.018q-.968 0-1.666-.413a2.8 2.8 0 0 1-1.074-1.172q-.375-.759-.375-1.777 0-1.006.375-1.773.38-.766 1.056-1.197.682-.43 1.594-.431.555 0 1.074.184.52.183.933.575t.652 1.018q.239.622.239 1.513v.452h-5.203v-.955h3.954q0-.503-.204-.89a1.54 1.54 0 0 0-.575-.618 1.6 1.6 0 0 0-.861-.226q-.537 0-.938.264a1.8 1.8 0 0 0-.613.682 2 2 0 0 0-.213.908v.745q0 .657.23 1.117.234.46.652.703.417.239.976.239.362 0 .66-.103a1.37 1.37 0 0 0 .848-.831l1.206.218q-.145.532-.52.933-.37.396-.933.618a3.5 3.5 0 0 1-1.274.217"/><g clip-path="url(#m)"><path fill="url(#n)" d="m75.43 246.453 2.59 7.346h.103l2.59-7.346h1.109l-3.205 8.727h-1.09l-3.205-8.727zm9.75 8.864q-.946 0-1.632-.418a2.8 2.8 0 0 1-1.053-1.176q-.366-.759-.366-1.764 0-1.007.366-1.773.37-.771 1.031-1.202.665-.435 1.552-.435.51 0 1.01.171.498.17.907.554.41.38.652 1.006t.243 1.542v.426h-5.045v-.869h4.022a2.15 2.15 0 0 0-.221-.989 1.7 1.7 0 0 0-.623-.686 1.75 1.75 0 0 0-.945-.251q-.602 0-1.04.298-.435.294-.67.767a2.26 2.26 0 0 0-.234 1.014v.58q0 .741.256 1.257.26.511.72.78.46.264 1.07.264.396 0 .716-.111.324-.114.558-.341a1.54 1.54 0 0 0 .362-.571l.972.273q-.153.494-.516.869a2.5 2.5 0 0 1-.895.58 3.3 3.3 0 0 1-1.197.205m4.24-.137v-6.545h.971v.988h.069q.179-.486.647-.788a1.9 1.9 0 0 1 1.057-.303 11 11 0 0 1 .529.017v1.023a3 3 0 0 0-.235-.038q-.179-.03-.38-.03-.476 0-.851.2a1.47 1.47 0 0 0-.801 1.334v4.142zm4.465 0v-6.545h1.005v6.545zm.511-7.636a.72.72 0 0 1-.507-.2.65.65 0 0 1-.209-.482q0-.281.209-.482a.72.72 0 0 1 .507-.2q.294 0 .503.2a.64.64 0 0 1 .213.482.64.64 0 0 1-.213.482.7.7 0 0 1-.503.2m5.251 1.091v.852H96.12v-.852zm-2.472 6.545v-7.449q0-.562.265-.937a1.64 1.64 0 0 1 .686-.563q.422-.187.89-.187.372 0 .605.059.235.06.35.111l-.29.87a4 4 0 0 0-.213-.064 1.3 1.3 0 0 0-.35-.039q-.498 0-.72.252-.217.25-.217.737v7.21zm3.882 0v-6.545h1.005v6.545zm.511-7.636a.72.72 0 0 1-.507-.2.65.65 0 0 1-.209-.482q0-.281.209-.482a.72.72 0 0 1 .507-.2q.294 0 .503.2a.64.64 0 0 1 .213.482.64.64 0 0 1-.213.482.7.7 0 0 1-.503.2m5.081 7.773q-.946 0-1.633-.418a2.8 2.8 0 0 1-1.052-1.176q-.367-.759-.367-1.764 0-1.007.367-1.773a2.9 2.9 0 0 1 1.031-1.202q.665-.435 1.551-.435.512 0 1.01.171.499.17.908.554.41.38.652 1.006t.243 1.542v.426h-5.046v-.869h4.023q0-.554-.222-.989a1.67 1.67 0 0 0-.622-.686 1.75 1.75 0 0 0-.946-.251q-.6 0-1.04.298a2 2 0 0 0-.669.767 2.26 2.26 0 0 0-.234 1.014v.58q0 .741.256 1.257.26.511.72.78.46.264 1.07.264.396 0 .715-.111.324-.114.559-.341a1.54 1.54 0 0 0 .362-.571l.971.273q-.153.494-.515.869-.363.372-.895.58a3.3 3.3 0 0 1-1.197.205m6.711 0a2.56 2.56 0 0 1-1.444-.414q-.627-.417-.981-1.176-.353-.762-.353-1.803 0-1.031.353-1.789.354-.76.985-1.172.63-.414 1.457-.414.64 0 1.01.214.376.208.571.477.2.264.311.434h.086v-3.221h1.005v8.727h-.971v-1.006h-.12q-.111.18-.315.452-.204.269-.584.482-.379.209-1.01.209m.137-.904q.605 0 1.022-.315.418-.32.635-.882.218-.567.218-1.309 0-.732-.214-1.282a1.87 1.87 0 0 0-.63-.861q-.418-.31-1.031-.311-.64 0-1.066.328-.422.324-.635.882a3.5 3.5 0 0 0-.209 1.244q0 .7.214 1.27.216.567.639.904.426.332 1.057.332m8.953-2.284a.74.74 0 0 1-.542-.226.74.74 0 0 1-.225-.541q0-.316.225-.541a.74.74 0 0 1 .542-.226q.315 0 .541.226a.74.74 0 0 1 .226.541.8.8 0 0 1-.384.665.73.73 0 0 1-.383.102m8.827 3.17a3.2 3.2 0 0 1-1.074-.204 2.6 2.6 0 0 1-.98-.661q-.443-.468-.712-1.265-.268-.801-.268-2.012 0-1.158.217-2.054.217-.899.631-1.512.414-.618.997-.938a2.7 2.7 0 0 1 1.325-.319q.734 0 1.304.294.576.29.938.809t.469 1.198h-1.04a1.93 1.93 0 0 0-.563-.976q-.417-.388-1.108-.388-1.013 0-1.598.882-.58.882-.583 2.476h.068a2.58 2.58 0 0 1 1.3-1.018q.4-.141.848-.141.75 0 1.372.375.621.37.997 1.027.375.652.375 1.496 0 .809-.362 1.483a2.76 2.76 0 0 1-1.019 1.065q-.651.392-1.534.383m0-.937q.537 0 .963-.268.43-.269.678-.721.25-.451.251-1.005 0-.541-.243-.985a1.85 1.85 0 0 0-.66-.711 1.75 1.75 0 0 0-.955-.265q-.405 0-.754.162a1.9 1.9 0 0 0-.614.435 2.1 2.1 0 0 0-.409.635 2.02 2.02 0 0 0 .767 2.446q.43.277.976.277m5.613-3.119v3.937h-1.005v-8.727h1.005v3.204h.086q.23-.507.69-.805.465-.303 1.236-.303.668 0 1.172.269a1.8 1.8 0 0 1 .779.814q.282.546.282 1.389v4.159h-1.006v-4.091q0-.78-.405-1.206-.4-.43-1.112-.43-.495 0-.886.209a1.5 1.5 0 0 0-.614.609q-.222.4-.222.972m11.386 4.091q-.623 0-1.13-.235a1.94 1.94 0 0 1-.805-.686q-.298-.452-.298-1.091 0-.562.221-.912.221-.353.593-.554a3.1 3.1 0 0 1 .818-.298q.452-.102.907-.162.597-.076.968-.115.375-.042.545-.141.175-.098.175-.341v-.034q0-.63-.345-.98-.341-.35-1.036-.349-.72 0-1.129.315-.409.316-.575.673l-.955-.34q.256-.597.682-.929.43-.337.938-.469.51-.137 1.005-.137.315 0 .725.077.413.072.797.303.388.23.643.694.255.465.256 1.245v4.312h-1.006v-.886h-.051a1.8 1.8 0 0 1-.341.456 2 2 0 0 1-.635.413q-.397.171-.967.171m.153-.904q.597 0 1.006-.234a1.6 1.6 0 0 0 .835-1.385v-.921q-.064.077-.281.141-.213.06-.495.107a21 21 0 0 1-.963.127q-.391.051-.733.167a1.26 1.26 0 0 0-.545.336q-.204.222-.205.605 0 .525.388.793.393.264.993.264m7.324 3.341q-.728 0-1.253-.187a2.7 2.7 0 0 1-.873-.486 2.7 2.7 0 0 1-.55-.639l.801-.563q.137.179.345.409.21.234.571.405.367.174.959.175.793 0 1.309-.384.515-.383.515-1.202v-1.329h-.085a6 6 0 0 1-.315.443 1.8 1.8 0 0 1-.58.465q-.375.2-1.014.2a2.73 2.73 0 0 1-1.423-.375 2.63 2.63 0 0 1-.993-1.091q-.363-.716-.363-1.739 0-1.005.354-1.751.354-.75.985-1.159.63-.414 1.457-.414.639 0 1.014.214.38.208.58.477.204.264.315.434h.102v-1.039h.972v6.733q0 .844-.384 1.372a2.2 2.2 0 0 1-1.022.78 3.9 3.9 0 0 1-1.424.251m-.034-3.597q.606 0 1.023-.276a1.73 1.73 0 0 0 .635-.797q.217-.52.217-1.245 0-.707-.213-1.248a1.87 1.87 0 0 0-.631-.848q-.417-.307-1.031-.307-.639 0-1.065.324a1.97 1.97 0 0 0-.635.869 3.4 3.4 0 0 0-.209 1.21q0 .683.213 1.206.218.52.639.818.427.294 1.057.294m7.364 1.143q-.887 0-1.556-.422a2.87 2.87 0 0 1-1.039-1.181q-.37-.758-.371-1.772 0-1.023.371-1.786.375-.762 1.039-1.185.67-.422 1.556-.422.887 0 1.551.422a2.83 2.83 0 0 1 1.04 1.185q.375.763.375 1.786 0 1.014-.375 1.772a2.83 2.83 0 0 1-1.04 1.181q-.665.422-1.551.422m0-.904q.673 0 1.108-.345t.643-.908q.209-.562.209-1.218 0-.657-.209-1.223a2.06 2.06 0 0 0-.643-.917q-.435-.35-1.108-.349-.673 0-1.108.349-.434.35-.644.917a3.5 3.5 0 0 0-.208 1.223q0 .656.208 1.218.21.563.644.908t1.108.345"/></g><mask id="o" fill="#fff"><path d="M70.64 269.32h234.72v56.84H70.64z"/></mask><path fill="#fff" fill-opacity=".055" d="M305.36 326.16v-.64H70.64v1.28h234.72z" mask="url(#o)"/><path fill="#fff" fill-opacity=".86" d="M77.211 282.593h1.321v5.74q0 .916-.43 1.624-.43.702-1.21 1.108-.78.4-1.829.4-1.044 0-1.824-.4-.78-.406-1.21-1.108-.43-.708-.43-1.624v-5.74h1.317v5.634q0 .591.26 1.052.264.46.745.725.482.26 1.142.259.666 0 1.147-.259.485-.265.741-.725.26-.46.26-1.052zm4.407 4.841v3.886h-1.274v-6.545h1.223v1.065h.081q.225-.52.708-.835.485-.315 1.223-.315.668 0 1.172.281.502.277.78.827.276.549.276 1.359v4.163h-1.274v-4.01q0-.711-.37-1.112-.371-.405-1.02-.405-.441 0-.787.192a1.4 1.4 0 0 0-.542.563q-.195.366-.196.886m7.07 1.666-.009-1.555h.222l2.608-2.77h1.525l-2.974 3.153h-.2zm-1.172 2.22v-8.727h1.274v8.727zm4.134 0-2.344-3.11.878-.891 3.03 4.001zm3.82-3.886v3.886h-1.274v-6.545h1.223v1.065h.08q.226-.52.708-.835.486-.315 1.223-.315.67 0 1.172.281.502.277.78.827.277.549.277 1.359v4.163h-1.274v-4.01q0-.711-.371-1.112-.371-.405-1.018-.405-.444 0-.789.192a1.4 1.4 0 0 0-.541.563q-.195.366-.196.886m8.655 4.018q-.92 0-1.607-.421a2.85 2.85 0 0 1-1.065-1.181q-.38-.758-.379-1.773 0-1.018.379-1.781a2.84 2.84 0 0 1 1.065-1.184q.686-.423 1.607-.422.92 0 1.606.422.687.422 1.066 1.184.379.763.379 1.781 0 1.015-.379 1.773a2.85 2.85 0 0 1-1.066 1.181q-.686.421-1.606.421m.004-1.069q.597 0 .989-.316.391-.315.579-.839.192-.523.192-1.155a3.3 3.3 0 0 0-.192-1.15 1.87 1.87 0 0 0-.579-.848q-.392-.32-.989-.32-.601 0-.997.32a1.9 1.9 0 0 0-.584.848 3.4 3.4 0 0 0-.187 1.15q0 .632.187 1.155.192.524.584.839.396.316.997.316m5.689.937-1.926-6.545h1.317l1.282 4.807h.064l1.287-4.807h1.317l1.278 4.785h.064l1.274-4.785h1.317l-1.922 6.545h-1.3l-1.329-4.726h-.098l-1.33 4.726zm9.757-3.886v3.886h-1.274v-6.545h1.223v1.065h.081q.227-.52.708-.835.485-.315 1.223-.315.669 0 1.171.281.504.277.78.827.277.549.277 1.359v4.163h-1.274v-4.01q0-.711-.371-1.112-.37-.405-1.018-.405-.444 0-.788.192a1.4 1.4 0 0 0-.542.563q-.195.366-.196.886m11.524 4.014q-.792 0-1.415-.405-.618-.408-.971-1.163-.35-.759-.35-1.82t.354-1.815q.358-.754.98-1.155a2.55 2.55 0 0 1 1.411-.4q.61 0 .98.204.375.2.579.469.21.269.324.473h.077v-3.243h1.274v8.727h-1.244v-1.018h-.107a3.3 3.3 0 0 1-.332.477 1.9 1.9 0 0 1-.588.469q-.375.2-.972.2m.281-1.086q.55 0 .929-.29.384-.295.58-.814.2-.52.2-1.21 0-.683-.196-1.194a1.74 1.74 0 0 0-.575-.796q-.379-.286-.938-.286-.575 0-.958.298-.384.298-.58.814a3.3 3.3 0 0 0-.192 1.164q0 .656.196 1.18t.58.831q.388.303.954.303m7.602 1.09q-.968 0-1.667-.413a2.8 2.8 0 0 1-1.073-1.172q-.375-.758-.375-1.777 0-1.005.375-1.773a2.9 2.9 0 0 1 1.056-1.197q.682-.43 1.594-.43.553 0 1.074.183.52.183.933.575a2.7 2.7 0 0 1 .652 1.019q.239.622.239 1.512v.452h-5.203v-.954h3.954q0-.504-.204-.891a1.55 1.55 0 0 0-1.436-.844q-.537 0-.938.264a1.8 1.8 0 0 0-.613.682 1.96 1.96 0 0 0-.214.908v.746q0 .656.231 1.116.234.46.652.703.417.239.975.239.363 0 .661-.102.299-.107.516-.316.216-.209.332-.515l1.206.217q-.145.533-.52.933-.37.396-.933.618a3.5 3.5 0 0 1-1.274.217m9.634-6.677-2.374 6.545h-1.364l-2.378-6.545h1.368l1.658 5.037h.068l1.654-5.037zm1.197 6.545v-6.545h1.274v6.545zm.643-7.555a.8.8 0 0 1-.571-.222.72.72 0 0 1-.234-.537q0-.315.234-.537a.8.8 0 0 1 .571-.225q.333 0 .567.225a.7.7 0 0 1 .239.537q0 .312-.239.537a.8.8 0 0 1-.567.222m5.102 7.687q-.95 0-1.636-.43a2.85 2.85 0 0 1-1.048-1.197q-.367-.763-.367-1.748 0-.996.375-1.76.375-.767 1.057-1.197t1.607-.43q.745 0 1.329.277.584.272.942.767.362.494.43 1.154h-1.24a1.48 1.48 0 0 0-.469-.792q-.362-.333-.971-.333a1.58 1.58 0 0 0-.933.282 1.8 1.8 0 0 0-.618.792q-.222.512-.222 1.211 0 .716.217 1.235.218.52.614.806.4.285.942.285.362 0 .656-.132.298-.136.499-.388.204-.25.285-.605h1.24a2.4 2.4 0 0 1-.413 1.134q-.345.498-.925.784-.575.285-1.351.285m6.873 0q-.967 0-1.666-.413a2.8 2.8 0 0 1-1.074-1.172q-.375-.758-.375-1.777 0-1.005.375-1.773.38-.767 1.057-1.197.681-.43 1.593-.43.555 0 1.074.183.52.183.933.575a2.7 2.7 0 0 1 .652 1.019q.24.622.239 1.512v.452h-5.203v-.954h3.955q0-.504-.205-.891a1.55 1.55 0 0 0-1.436-.844q-.537 0-.938.264a1.8 1.8 0 0 0-.613.682 2 2 0 0 0-.213.908v.746q0 .656.23 1.116.234.46.652.703.417.239.976.239.362 0 .66-.102.299-.107.516-.316t.332-.515l1.206.217q-.145.533-.52.933-.37.396-.933.618a3.5 3.5 0 0 1-1.274.217m8.237-3.102a.83.83 0 0 1-.601-.247.83.83 0 0 1-.251-.605.8.8 0 0 1 .251-.597.82.82 0 0 1 .601-.251q.35 0 .601.251a.8.8 0 0 1 .251.597q0 .234-.119.43a.9.9 0 0 1-.307.307.8.8 0 0 1-.426.115m5.837-5.757h1.598l2.778 6.784h.103l2.778-6.784h1.598v8.727h-1.253v-6.315h-.081l-2.573 6.303h-1.04l-2.574-6.307h-.081v6.319h-1.253zm14.814 6.013v-3.831h1.278v6.545h-1.253v-1.133h-.068q-.226.524-.724.873-.495.346-1.232.346-.63 0-1.116-.277a1.96 1.96 0 0 1-.759-.831q-.273-.55-.273-1.36v-4.163h1.274v4.01q0 .669.371 1.065.37.396.963.396.358 0 .712-.179.358-.178.592-.541.238-.362.235-.92m2.99 2.714v-6.545h1.223v1.065h.081q.204-.541.669-.844.465-.306 1.112-.306.656 0 1.1.306.447.307.66.844h.068q.235-.524.746-.835.511-.315 1.219-.315.89 0 1.453.558.567.558.567 1.683v4.389h-1.274v-4.27q0-.664-.363-.963a1.3 1.3 0 0 0-.865-.298q-.621 0-.967.384-.345.379-.345.975v4.172h-1.27v-4.351q0-.532-.332-.856-.333-.324-.865-.324a1.24 1.24 0 0 0-.67.192q-.302.188-.49.524a1.6 1.6 0 0 0-.183.78v4.035zm10.708 0v-8.727h1.274v3.243h.077q.11-.204.319-.473.209-.268.58-.469.37-.204.98-.204.792 0 1.415.4.621.4.976 1.155.357.755.357 1.815 0 1.062-.353 1.82-.354.755-.972 1.163-.618.405-1.41.405-.597 0-.976-.2a1.9 1.9 0 0 1-.588-.469 3.5 3.5 0 0 1-.328-.477h-.107v1.018zm1.248-3.272q0 .69.201 1.21.2.52.579.814.38.29.929.29.571 0 .955-.303.383-.308.579-.831.201-.524.201-1.18 0-.648-.196-1.164a1.8 1.8 0 0 0-.58-.814q-.383-.298-.959-.298-.554 0-.937.286a1.75 1.75 0 0 0-.576.796q-.195.512-.196 1.194m8.066 3.417q-.622 0-1.125-.23a1.9 1.9 0 0 1-.797-.677q-.29-.444-.29-1.087 0-.553.213-.912.214-.358.576-.567t.809-.315.912-.162l.955-.111q.366-.047.533-.149.166-.102.166-.332v-.03q0-.559-.316-.865-.31-.307-.929-.307-.643 0-1.014.285a1.54 1.54 0 0 0-.507.627l-1.197-.273q.213-.597.622-.963.413-.37.95-.537.538-.17 1.129-.17.393 0 .831.093.444.09.827.333.388.243.635.694.247.448.247 1.164v4.346h-1.244v-.895h-.051a1.8 1.8 0 0 1-.371.486 2 2 0 0 1-.635.397 2.5 2.5 0 0 1-.929.157m.277-1.023q.528 0 .903-.208.38-.21.576-.546.2-.34.2-.728v-.844a.7.7 0 0 1-.264.128 4 4 0 0 1-.439.098l-.482.072-.392.051a3 3 0 0 0-.677.158q-.303.11-.486.319-.179.206-.179.546 0 .473.349.716.35.238.891.238m4.65.878v-6.545h1.274v6.545zm.644-7.555a.8.8 0 0 1-.571-.222.72.72 0 0 1-.235-.537.7.7 0 0 1 .235-.537.8.8 0 0 1 .571-.225q.332 0 .566.225.24.222.239.537a.71.71 0 0 1-.239.537.8.8 0 0 1-.566.222"/><g clip-path="url(#p)"><path fill="url(#q)" d="M71.697 312.021v-8.728h5.233v.938h-4.176v2.949h3.784v.937h-3.784v3.904zm7.912-8.728v8.728h-1.006v-8.728zm3.768 8.881q-.621 0-1.129-.234a1.94 1.94 0 0 1-.805-.687q-.3-.451-.299-1.09 0-.562.222-.912.222-.354.592-.554t.818-.299q.453-.102.908-.162.597-.076.967-.115.375-.042.546-.14.174-.098.174-.341v-.034q0-.631-.345-.98-.34-.35-1.035-.35-.72 0-1.13.316-.408.315-.575.673l-.954-.341q.255-.596.682-.929.43-.337.937-.469.511-.136 1.006-.136.316 0 .724.077.413.072.797.302.388.23.644.695.255.464.255 1.244v4.313h-1.005v-.887h-.052a1.8 1.8 0 0 1-.34.456q-.24.243-.635.413-.397.171-.968.171m.154-.903q.596 0 1.005-.235a1.6 1.6 0 0 0 .835-1.385v-.92q-.064.077-.28.14-.214.06-.495.107-.277.042-.541.077-.26.03-.422.051a4 4 0 0 0-.733.166 1.26 1.26 0 0 0-.546.337q-.204.22-.204.605 0 .523.388.792.391.264.993.265m7.324 3.34q-.73 0-1.253-.187a2.7 2.7 0 0 1-.874-.486 2.7 2.7 0 0 1-.55-.639l.802-.563q.136.18.345.41.21.234.571.404.366.175.959.175.792 0 1.308-.383.516-.384.516-1.202v-1.33h-.085q-.112.18-.316.443a1.8 1.8 0 0 1-.58.465q-.374.2-1.014.2a2.73 2.73 0 0 1-1.423-.375 2.63 2.63 0 0 1-.993-1.091q-.362-.715-.362-1.738 0-1.007.354-1.752.354-.75.984-1.159.63-.413 1.457-.413.64 0 1.015.213.38.209.58.477.203.264.314.435h.103v-1.04h.971v6.733q0 .844-.383 1.372a2.2 2.2 0 0 1-1.023.78q-.639.251-1.423.251m-.034-3.596q.605 0 1.023-.277t.634-.797.218-1.244q0-.708-.213-1.249a1.87 1.87 0 0 0-.631-.848q-.417-.307-1.031-.307-.639 0-1.066.324a2 2 0 0 0-.634.869q-.21.546-.21 1.211 0 .681.214 1.206.217.52.639.818.426.294 1.057.294m7.346 3.596q-.728 0-1.252-.187a2.7 2.7 0 0 1-.874-.486 2.7 2.7 0 0 1-.55-.639l.801-.563q.136.18.346.41.21.234.57.404.367.175.96.175.792 0 1.308-.383.515-.384.515-1.202v-1.33h-.085q-.111.18-.315.443a1.8 1.8 0 0 1-.58.465q-.375.2-1.014.2a2.73 2.73 0 0 1-1.423-.375 2.63 2.63 0 0 1-.993-1.091q-.363-.715-.362-1.738 0-1.007.353-1.752.354-.75.985-1.159.63-.413 1.457-.413.639 0 1.014.213.38.209.58.477.204.264.315.435h.102v-1.04h.972v6.733q0 .844-.384 1.372a2.2 2.2 0 0 1-1.022.78q-.638.251-1.424.251m-.034-3.596q.606 0 1.023-.277t.635-.797q.217-.52.217-1.244 0-.708-.213-1.249a1.87 1.87 0 0 0-.63-.848q-.418-.307-1.032-.307-.639 0-1.065.324a2 2 0 0 0-.635.869q-.21.546-.209 1.211 0 .681.213 1.206.217.52.64.818.426.294 1.056.294m7.449 1.142q-.947 0-1.632-.418a2.8 2.8 0 0 1-1.053-1.176q-.366-.759-.366-1.764 0-1.006.366-1.773a2.9 2.9 0 0 1 1.032-1.202q.664-.434 1.551-.434.511 0 1.01.17.498.171.907.554.41.38.652 1.006.243.627.243 1.543v.426h-5.045v-.87h4.023q0-.553-.222-.988a1.66 1.66 0 0 0-.622-.686 1.74 1.74 0 0 0-.946-.252q-.601 0-1.04.299-.435.293-.669.767a2.25 2.25 0 0 0-.234 1.014v.579q0 .742.255 1.257.26.512.721.78.46.264 1.069.264.396 0 .716-.11a1.5 1.5 0 0 0 .558-.341q.235-.23.362-.571l.972.272q-.153.495-.516.87-.361.37-.894.579a3.3 3.3 0 0 1-1.198.205m6.712 0a2.57 2.57 0 0 1-1.445-.413q-.626-.418-.98-1.177-.354-.762-.354-1.802 0-1.031.354-1.79.354-.758.984-1.172a2.6 2.6 0 0 1 1.458-.413q.64 0 1.01.213.375.209.571.477.2.264.311.435h.085v-3.222h1.006v8.728h-.972v-1.006h-.119q-.111.179-.315.452a1.9 1.9 0 0 1-.584.481q-.38.209-1.01.209m.136-.904q.605 0 1.023-.315.417-.32.635-.882.217-.567.217-1.308 0-.733-.213-1.283a1.87 1.87 0 0 0-.631-.861q-.417-.31-1.031-.311-.639 0-1.065.328-.422.324-.635.882-.209.555-.209 1.245 0 .699.213 1.27.218.567.639.903.427.332 1.057.332m8.953-2.284a.74.74 0 0 1-.541-.225.74.74 0 0 1-.226-.542q0-.315.226-.541a.74.74 0 0 1 .541-.226.74.74 0 0 1 .541.226.74.74 0 0 1 .226.541q0 .21-.106.384a.8.8 0 0 1-.277.281.74.74 0 0 1-.384.102m8.998-5.676v8.728h-1.057v-7.62h-.051l-2.13 1.415v-1.074l2.181-1.449zm5.408 8.847a3.3 3.3 0 0 1-1.074-.205 2.6 2.6 0 0 1-.98-.66q-.444-.47-.712-1.266-.268-.8-.268-2.011 0-1.16.217-2.054.217-.9.631-1.513.413-.618.997-.937a2.7 2.7 0 0 1 1.325-.32q.733 0 1.304.294.576.29.938.81.362.519.468 1.197h-1.039a1.93 1.93 0 0 0-.563-.976q-.417-.387-1.108-.388-1.014 0-1.598.883-.58.882-.584 2.475h.069q.239-.362.566-.618.333-.26.733-.4t.848-.141q.75 0 1.372.375.623.371.998 1.027.375.653.375 1.496 0 .81-.363 1.483a2.76 2.76 0 0 1-1.018 1.065q-.652.393-1.534.384m0-.938q.537 0 .963-.268.43-.268.677-.72a2.03 2.03 0 0 0 .252-1.006 2 2 0 0 0-.243-.984 1.84 1.84 0 0 0-.661-.712 1.75 1.75 0 0 0-.954-.264q-.405 0-.754.162-.35.158-.614.434-.26.278-.409.635-.15.354-.149.746a2.02 2.02 0 0 0 .916 1.7q.43.277.976.277m5.613-3.119v3.938h-1.006v-8.728h1.006v3.205h.085q.23-.507.691-.806.464-.302 1.235-.302.67 0 1.172.268.503.264.78.814.281.546.281 1.389v4.16h-1.005v-4.091q0-.78-.405-1.206-.4-.43-1.112-.431-.495 0-.887.209a1.5 1.5 0 0 0-.613.609q-.222.4-.222.972m11.385 4.091q-.621 0-1.129-.234a1.94 1.94 0 0 1-.805-.687q-.299-.451-.299-1.09 0-.562.222-.912a1.56 1.56 0 0 1 .592-.554q.371-.2.819-.299.451-.102.907-.162.596-.076.968-.115.375-.042.545-.14.174-.098.175-.341v-.034q0-.631-.345-.98-.342-.35-1.036-.35-.72 0-1.129.316-.41.315-.576.673l-.954-.341q.255-.596.682-.929a2.6 2.6 0 0 1 .937-.469 4 4 0 0 1 1.006-.136q.316 0 .724.077.414.072.797.302.388.23.644.695.255.464.255 1.244v4.313h-1.005v-.887h-.051a1.8 1.8 0 0 1-.341.456q-.239.243-.635.413-.396.171-.968.171m.154-.903q.597 0 1.005-.235a1.6 1.6 0 0 0 .836-1.385v-.92q-.065.077-.282.14a5 5 0 0 1-.494.107 27 27 0 0 1-.541.077q-.26.03-.422.051a4 4 0 0 0-.733.166 1.26 1.26 0 0 0-.545.337q-.205.22-.205.605 0 .523.388.792.392.264.993.265m7.324 3.34q-.728 0-1.253-.187a2.7 2.7 0 0 1-.873-.486 2.6 2.6 0 0 1-.55-.639l.801-.563q.136.18.345.41.209.234.571.404.367.175.959.175.793 0 1.308-.383.516-.384.516-1.202v-1.33h-.085q-.11.18-.316.443a1.8 1.8 0 0 1-.579.465q-.375.2-1.014.2a2.73 2.73 0 0 1-1.424-.375 2.64 2.64 0 0 1-.993-1.091q-.362-.715-.362-1.738 0-1.007.354-1.752.354-.75.984-1.159a2.6 2.6 0 0 1 1.458-.413q.639 0 1.014.213.38.209.579.477.205.264.316.435h.102v-1.04h.972v6.733q0 .844-.384 1.372a2.2 2.2 0 0 1-1.023.78q-.639.251-1.423.251m-.034-3.596q.604 0 1.023-.277.417-.277.635-.797.217-.52.217-1.244 0-.708-.213-1.249a1.87 1.87 0 0 0-.631-.848q-.417-.307-1.031-.307-.639 0-1.065.324a1.97 1.97 0 0 0-.635.869q-.21.546-.209 1.211 0 .681.213 1.206.218.52.639.818.426.294 1.057.294m7.364 1.142q-.887 0-1.556-.422a2.87 2.87 0 0 1-1.04-1.18q-.37-.759-.37-1.773 0-1.023.37-1.786.375-.762 1.04-1.184.67-.423 1.556-.422.886 0 1.551.422.669.422 1.039 1.184.375.763.375 1.786 0 1.014-.375 1.773a2.83 2.83 0 0 1-1.039 1.18q-.665.422-1.551.422m0-.904q.673 0 1.108-.345.434-.345.643-.907t.209-1.219-.209-1.223a2.06 2.06 0 0 0-.643-.916q-.435-.35-1.108-.35-.674 0-1.108.35t-.644.916a3.5 3.5 0 0 0-.209 1.223q0 .656.209 1.219.209.562.644.907.434.345 1.108.345"/></g><mask id="r" fill="#fff"><path d="M70.64 326.16h234.72V383H70.64z"/></mask><path fill="#fff" fill-opacity=".055" d="M305.36 383v-.64H70.64v1.28h234.72z" mask="url(#r)"/><path fill="#fff" fill-opacity=".86" d="M71.599 348.16v-8.727h3.11q1.015 0 1.684.349a2.3 2.3 0 0 1 1.005.968q.333.613.333 1.419 0 .801-.337 1.41a2.26 2.26 0 0 1-1.005.942q-.669.337-1.684.337H72.35v-1.134h2.237q.64 0 1.04-.183.405-.183.592-.533.188-.35.188-.839 0-.495-.192-.857a1.24 1.24 0 0 0-.593-.554q-.4-.196-1.052-.196h-1.653v7.598zm4.308-3.937 2.156 3.937h-1.5l-2.113-3.937zm6.063 4.069q-.967 0-1.666-.413a2.8 2.8 0 0 1-1.074-1.172q-.375-.759-.375-1.777 0-1.005.375-1.773.38-.767 1.057-1.197.681-.43 1.593-.431.555 0 1.074.184.52.183.934.575.413.392.651 1.018.24.622.24 1.513v.452h-5.204v-.955h3.955q0-.503-.205-.89a1.54 1.54 0 0 0-.575-.618 1.6 1.6 0 0 0-.861-.226q-.537 0-.938.264a1.8 1.8 0 0 0-.613.682 2 2 0 0 0-.213.908v.745q0 .657.23 1.117.234.46.652.703.417.239.976.239.362 0 .66-.103.299-.107.516-.315t.332-.516l1.206.218q-.145.533-.52.933-.37.396-.933.618a3.5 3.5 0 0 1-1.274.217m6.672-.004q-.792 0-1.415-.405-.617-.409-.971-1.163-.35-.758-.35-1.82 0-1.06.354-1.815.358-.755.98-1.155a2.55 2.55 0 0 1 1.41-.401q.61 0 .98.205.375.2.58.469.21.268.324.473h.077v-3.243h1.274v8.727h-1.244v-1.018h-.107a3.4 3.4 0 0 1-.332.477 1.9 1.9 0 0 1-.588.469q-.375.2-.972.2m.281-1.087q.55 0 .93-.289.383-.295.579-.814.2-.52.2-1.211 0-.681-.196-1.193a1.76 1.76 0 0 0-.575-.797q-.379-.285-.938-.285-.575 0-.958.298-.384.298-.58.814a3.3 3.3 0 0 0-.192 1.163q0 .656.196 1.181.196.524.58.831.388.302.954.302m4.78.959v-6.545h1.224v1.065h.08q.205-.541.67-.844.465-.307 1.112-.307.656 0 1.1.307.446.307.66.844h.068q.234-.524.746-.835.51-.315 1.218-.316.891 0 1.454.559.566.558.566 1.683v4.389h-1.274v-4.27q0-.664-.362-.963a1.32 1.32 0 0 0-.865-.298q-.622 0-.967.383-.346.38-.346.976v4.172h-1.27v-4.351q0-.532-.332-.856-.333-.324-.865-.324-.361 0-.669.192a1.4 1.4 0 0 0-.49.524 1.6 1.6 0 0 0-.183.78v4.035zm10.606 0v-6.545h1.274v6.545zm.644-7.555a.8.8 0 0 1-.572-.222.72.72 0 0 1-.234-.537q0-.315.234-.537.24-.226.572-.226t.566.226a.7.7 0 0 1 .239.537q0 .312-.239.537a.8.8 0 0 1-.566.222"/><g clip-path="url(#s)"><path fill="url(#t)" d="m72.055 360.133 2.59 7.347h.103l2.59-7.347h1.109l-3.205 8.727h-1.09l-3.205-8.727zm9.75 8.864q-.946 0-1.632-.418a2.8 2.8 0 0 1-1.053-1.176q-.366-.759-.366-1.764 0-1.006.366-1.773.37-.771 1.031-1.202.665-.434 1.552-.434.51 0 1.01.17.498.17.907.554.41.38.652 1.006t.243 1.542v.427H79.47v-.87h4.022q0-.554-.221-.988a1.67 1.67 0 0 0-.623-.687 1.75 1.75 0 0 0-.945-.251q-.602 0-1.04.298-.435.294-.67.767a2.26 2.26 0 0 0-.234 1.015v.579q0 .742.256 1.257.26.512.72.78.46.264 1.07.264a2.2 2.2 0 0 0 .716-.11q.324-.116.558-.341.234-.23.362-.571l.972.272q-.153.495-.516.87-.362.37-.895.579a3.3 3.3 0 0 1-1.197.205m4.24-.137v-6.545h.971v.989h.069q.179-.486.647-.789a1.9 1.9 0 0 1 1.057-.302q.11 0 .277.004.166.004.252.013v1.022a3 3 0 0 0-.235-.038q-.179-.03-.38-.03-.476 0-.851.2a1.47 1.47 0 0 0-.801 1.334v4.142zm4.465 0v-6.545h1.005v6.545zm.511-7.636a.72.72 0 0 1-.507-.2.64.64 0 0 1-.209-.482q0-.281.209-.481a.7.7 0 0 1 .507-.201q.294 0 .503.201a.64.64 0 0 1 .213.481.64.64 0 0 1-.213.482.7.7 0 0 1-.503.2m5.251 1.091v.852h-3.528v-.852zM93.8 368.86v-7.449q0-.562.265-.937a1.64 1.64 0 0 1 .686-.563q.422-.187.89-.187.372 0 .605.06.235.059.35.11l-.29.87a4 4 0 0 0-.213-.064 1.3 1.3 0 0 0-.35-.039q-.498 0-.72.252-.217.251-.217.737v7.21zm3.882 0v-6.545h1.005v6.545zm.51-7.636a.72.72 0 0 1-.506-.2.64.64 0 0 1-.209-.482q0-.281.209-.481a.7.7 0 0 1 .507-.201.7.7 0 0 1 .503.201.64.64 0 0 1 .213.481.64.64 0 0 1-.213.482.7.7 0 0 1-.503.2m5.082 7.773q-.946 0-1.633-.418a2.8 2.8 0 0 1-1.052-1.176q-.367-.759-.367-1.764 0-1.006.367-1.773a2.9 2.9 0 0 1 1.031-1.202q.665-.434 1.551-.434.512 0 1.01.17.499.17.908.554.41.38.652 1.006t.243 1.542v.427h-5.046v-.87h4.023q0-.554-.222-.988a1.67 1.67 0 0 0-.622-.687 1.75 1.75 0 0 0-.946-.251q-.6 0-1.04.298a2 2 0 0 0-.669.767 2.26 2.26 0 0 0-.234 1.015v.579q0 .742.256 1.257.26.512.72.78.46.264 1.07.264.396 0 .715-.11.324-.116.559-.341.234-.23.362-.571l.971.272q-.153.495-.515.87-.363.37-.895.579a3.3 3.3 0 0 1-1.197.205m6.711 0a2.56 2.56 0 0 1-1.444-.414q-.627-.417-.981-1.176-.353-.762-.353-1.802 0-1.031.353-1.79.354-.758.985-1.172.63-.414 1.457-.413.64 0 1.01.213.376.209.571.477.2.264.311.435h.086v-3.222h1.005v8.727h-.971v-1.005h-.12q-.111.179-.315.451-.204.269-.584.482-.379.209-1.01.209m.137-.904q.605 0 1.022-.315.418-.32.635-.882.218-.567.218-1.308 0-.734-.214-1.283a1.87 1.87 0 0 0-.63-.861q-.418-.31-1.031-.311-.64 0-1.066.328-.422.324-.635.882-.209.554-.209 1.245 0 .699.214 1.27.216.565.639.903.426.332 1.057.332m8.953-2.284a.74.74 0 0 1-.542-.226.74.74 0 0 1-.225-.541q0-.315.225-.541a.74.74 0 0 1 .542-.226q.315 0 .541.226t.226.541a.8.8 0 0 1-.384.665.73.73 0 0 1-.383.102m5.929 3.051v-.767l2.881-3.153q.508-.554.835-.963.328-.413.486-.776.162-.366.162-.767 0-.46-.222-.797a1.44 1.44 0 0 0-.596-.52 1.9 1.9 0 0 0-.852-.183q-.503 0-.878.209a1.44 1.44 0 0 0-.576.575q-.2.37-.2.87h-1.006q0-.768.354-1.347t.963-.903a2.9 2.9 0 0 1 1.377-.324q.766 0 1.359.324t.929.873a2.3 2.3 0 0 1 .337 1.223q0 .482-.175.942-.171.456-.597 1.018-.422.559-1.172 1.364l-1.96 2.097v.068h4.057v.937zm9.755.137a2.56 2.56 0 0 1-1.445-.414q-.626-.417-.98-1.176-.354-.762-.354-1.802 0-1.031.354-1.79.354-.758.984-1.172.631-.414 1.458-.413.638 0 1.01.213.375.209.571.477.2.264.311.435h.085v-3.222h1.006v8.727h-.972v-1.005h-.119q-.11.179-.316.451-.204.269-.583.482-.38.209-1.01.209m.136-.904q.605 0 1.023-.315.417-.32.635-.882.217-.567.217-1.308 0-.734-.213-1.283a1.87 1.87 0 0 0-.631-.861q-.417-.31-1.031-.311-.639 0-1.065.328a1.96 1.96 0 0 0-.635.882q-.21.554-.209 1.245 0 .699.213 1.27.218.565.639.903.427.332 1.057.332m10.146.921a2.65 2.65 0 0 1-1.129-.235 1.93 1.93 0 0 1-.805-.686q-.299-.451-.299-1.091 0-.562.222-.912.222-.353.592-.554.37-.2.818-.298.453-.102.908-.162.597-.076.967-.115.375-.042.546-.14.175-.098.175-.341v-.034q0-.632-.346-.981-.34-.349-1.035-.349-.72 0-1.129.315-.41.316-.576.674l-.954-.341q.255-.597.682-.929.43-.337.937-.469a4 4 0 0 1 1.006-.136q.316 0 .724.076.414.073.797.303.388.23.644.695.255.464.255 1.244v4.312h-1.005v-.886h-.052a1.8 1.8 0 0 1-.34.456q-.24.243-.635.413-.397.171-.968.171m.154-.904q.596 0 1.005-.234a1.6 1.6 0 0 0 .836-1.385v-.92q-.065.077-.282.14-.213.06-.494.107-.277.043-.541.076-.26.03-.422.052a4 4 0 0 0-.733.166 1.3 1.3 0 0 0-.545.336q-.205.222-.205.606 0 .524.388.792.392.264.993.264m7.324 3.341q-.728 0-1.253-.187a2.64 2.64 0 0 1-1.423-1.125l.801-.563q.136.18.345.409.209.235.571.405.366.175.959.175.792 0 1.308-.384.516-.383.516-1.201v-1.33h-.085a5 5 0 0 1-.316.443 1.8 1.8 0 0 1-.579.465q-.375.2-1.015.2a2.73 2.73 0 0 1-1.423-.375 2.64 2.64 0 0 1-.993-1.091q-.362-.716-.362-1.738 0-1.006.354-1.752.354-.75.984-1.159.63-.414 1.458-.413.639 0 1.014.213.38.209.579.477.205.264.316.435h.102v-1.04h.971v6.733q0 .843-.383 1.372a2.2 2.2 0 0 1-1.023.78q-.639.25-1.423.251m-.034-3.596q.604 0 1.023-.277a1.73 1.73 0 0 0 .635-.797q.216-.52.217-1.245 0-.707-.213-1.248a1.87 1.87 0 0 0-.631-.848q-.417-.307-1.031-.307-.639 0-1.066.324a2 2 0 0 0-.634.869q-.21.546-.209 1.21 0 .683.213 1.206.218.52.639.819.426.294 1.057.294m7.363 1.142q-.886 0-1.555-.422a2.87 2.87 0 0 1-1.04-1.181q-.37-.758-.37-1.772 0-1.023.37-1.786.375-.762 1.04-1.184.67-.423 1.555-.422.886 0 1.552.422.669.422 1.039 1.184.375.763.375 1.786 0 1.014-.375 1.772-.37.76-1.039 1.181-.666.422-1.552.422m0-.904q.674 0 1.108-.345t.644-.908q.209-.562.209-1.218t-.209-1.223a2.05 2.05 0 0 0-.644-.916q-.434-.35-1.108-.35-.673 0-1.107.35-.435.349-.644.916a3.5 3.5 0 0 0-.209 1.223q0 .656.209 1.218.209.563.644.908.434.345 1.107.345"/></g></g><path fill="#edecec" fill-opacity=".025" d="M342 380v.64h.64V380zm-292 0h-.64v.64H50zM90 39v.64h212v-1.28H90zm252 40h-.64v301h1.28V79zm0 301v-.64H50v1.28h292zm-292 0h.64V79h-1.28v301zM302 39v.64c21.738 0 39.36 17.622 39.36 39.36h1.28c0-22.445-18.195-40.64-40.64-40.64zM90 39v-.64c-22.445 0-40.64 18.195-40.64 40.64h1.28c0-21.738 17.622-39.36 39.36-39.36z" mask="url(#u)"/></g></g><defs><linearGradient id="b" x1="345" x2="349" y1="177" y2="177" gradientUnits="userSpaceOnUse"><stop stop-color="#1c1c1e"/><stop offset="1" stop-color="#2c2c2e"/></linearGradient><linearGradient id="c" x1="47" x2="43" y1="121" y2="121" gradientUnits="userSpaceOnUse"><stop stop-color="#1c1c1e"/><stop offset="1" stop-color="#2c2c2e"/></linearGradient><linearGradient id="d" x1="47" x2="43" y1="159" y2="159" gradientUnits="userSpaceOnUse"><stop stop-color="#1c1c1e"/><stop offset="1" stop-color="#2c2c2e"/></linearGradient><linearGradient id="e" x1="47" x2="43" y1="199.5" y2="199.5" gradientUnits="userSpaceOnUse"><stop stop-color="#1c1c1e"/><stop offset="1" stop-color="#2c2c2e"/></linearGradient><linearGradient id="j" x1="70.64" x2="114.64" y1="193.84" y2="193.84" gradientUnits="userSpaceOnUse"><stop stop-color="#fff" stop-opacity=".42"/><stop offset=".3" stop-color="#fff" stop-opacity=".42"/><stop offset=".7" stop-color="#fff" stop-opacity=".42"/><stop offset="1" stop-color="#fff" stop-opacity=".42"/></linearGradient><linearGradient id="n" x1="70.64" x2="167.64" y1="250.68" y2="250.68" gradientUnits="userSpaceOnUse"><stop stop-color="#fff" stop-opacity=".42"/><stop offset=".3" stop-color="#fff" stop-opacity=".42"/><stop offset=".7" stop-color="#fff" stop-opacity=".42"/><stop offset="1" stop-color="#fff" stop-opacity=".42"/></linearGradient><linearGradient id="q" x1="70.64" x2="171.64" y1="307.521" y2="307.521" gradientUnits="userSpaceOnUse"><stop stop-color="#fff" stop-opacity=".42"/><stop offset=".3" stop-color="#fff" stop-opacity=".42"/><stop offset=".7" stop-color="#fff" stop-opacity=".42"/><stop offset="1" stop-color="#fff" stop-opacity=".42"/></linearGradient><linearGradient id="t" x1="70.64" x2="163.64" y1="364.36" y2="364.36" gradientUnits="userSpaceOnUse"><stop stop-color="#fff" stop-opacity=".42"/><stop offset=".3" stop-color="#fff" stop-opacity=".42"/><stop offset=".7" stop-color="#fff" stop-opacity=".42"/><stop offset="1" stop-color="#fff" stop-opacity=".42"/></linearGradient><clipPath id="a"><path fill="#fff" d="M0 0h391v378H0z"/></clipPath><clipPath id="f"><path fill="#fff" d="M46 80c0-24.3 19.7-44 44-44h212c24.301 0 44 19.7 44 44v303H46z"/></clipPath><clipPath id="g"><path fill="#fff" d="M50 79c0-22.091 17.909-40 40-40h212c22.091 0 40 17.909 40 40v301H50z"/></clipPath><clipPath id="i"><path fill="#fff" d="M70.64 182.84h234.72v19H70.64z"/></clipPath><clipPath id="k"><path fill="#fff" d="M126.64 186.34h132v15h-132z"/></clipPath><clipPath id="m"><path fill="#fff" d="M70.64 239.68h234.72v19H70.64z"/></clipPath><clipPath id="p"><path fill="#fff" d="M70.64 296.521h234.72v19H70.64z"/></clipPath><clipPath id="s"><path fill="#fff" d="M70.64 353.36h234.72v19H70.64z"/></clipPath></defs></svg>