<svg width="510" height="332" viewBox="98 38 510 332" fill="none" xmlns="http://www.w3.org/2000/svg">
<path d="M340 96V140" stroke="#898781" stroke-width="0.5"/>
<path d="M340 196V218" stroke="#898781" stroke-width="0.5"/>
<path d="M170 218L510 218" stroke="#898781" stroke-width="0.5"/>
<path d="M170 218V240" stroke="#898781" stroke-width="0.5"/>
<path d="M510 218V240" stroke="#898781" stroke-width="0.5"/>
<path d="M170 296V320" stroke="#898781" stroke-width="0.5"/>
<path d="M510 296V320" stroke="#898781" stroke-width="0.5"/>
<path d="M170 320H510" stroke="#898781" stroke-width="0.5"/>
<path d="M340 320V340" stroke="#898781" stroke-width="0.5"/>
<path d="M410 68H605V368H410" stroke="#D85A30" stroke-opacity="0.7" stroke-dasharray="4 4"/>
<path d="M599 212L611 224" stroke="#D85A30" stroke-width="1.5"/>
<path d="M599 224L611 212" stroke="#D85A30" stroke-width="1.5"/>
<path d="M402 40H278C273.582 40 270 43.5817 270 48V88C270 92.4183 273.582 96 278 96H402C406.418 96 410 92.4183 410 88V48C410 43.5817 406.418 40 402 40Z" fill="#E1F5EE" stroke="#0F6E56" stroke-width="0.5"/>
<path d="M315.674 56.3636V57.358H311.557V56.3636H315.674ZM312.79 64V55.3097C312.79 54.8722 312.893 54.5076 313.098 54.2159C313.304 53.9242 313.571 53.7055 313.899 53.5597C314.227 53.4138 314.573 53.3409 314.938 53.3409C315.226 53.3409 315.462 53.3641 315.644 53.4105C315.826 53.4569 315.962 53.5 316.051 53.5398L315.713 54.554C315.654 54.5341 315.571 54.5092 315.465 54.4794C315.362 54.4496 315.226 54.4347 315.057 54.4347C314.669 54.4347 314.389 54.5324 314.217 54.728C314.048 54.9235 313.963 55.2102 313.963 55.5881V64H312.79ZM317.318 64V56.3636H318.452V57.517H318.531C318.67 57.1392 318.922 56.8326 319.287 56.5973C319.651 56.362 320.062 56.2443 320.52 56.2443C320.606 56.2443 320.714 56.246 320.843 56.2493C320.972 56.2526 321.07 56.2576 321.136 56.2642V57.4574C321.096 57.4474 321.005 57.4325 320.863 57.4126C320.724 57.3894 320.576 57.3778 320.42 57.3778C320.049 57.3778 319.718 57.4557 319.426 57.6115C319.138 57.764 318.909 57.9761 318.74 58.2479C318.574 58.5163 318.491 58.8229 318.491 59.1676V64H317.318ZM325.397 64.1591C324.707 64.1591 324.103 63.995 323.582 63.6669C323.065 63.3388 322.661 62.8797 322.369 62.2898C322.081 61.6998 321.937 61.0104 321.937 60.2216C321.937 59.4261 322.081 58.7318 322.369 58.1385C322.661 57.5452 323.065 57.0845 323.582 56.7564C324.103 56.4283 324.707 56.2642 325.397 56.2642C326.086 56.2642 326.689 56.4283 327.206 56.7564C327.727 57.0845 328.131 57.5452 328.42 58.1385C328.711 58.7318 328.857 59.4261 328.857 60.2216C328.857 61.0104 328.711 61.6998 328.42 62.2898C328.131 62.8797 327.727 63.3388 327.206 63.6669C326.689 63.995 326.086 64.1591 325.397 64.1591ZM325.397 63.1051C325.921 63.1051 326.351 62.9709 326.689 62.7024C327.028 62.4339 327.278 62.081 327.44 61.6435C327.603 61.206 327.684 60.732 327.684 60.2216C327.684 59.7112 327.603 59.2356 327.44 58.7947C327.278 58.3539 327.028 57.9976 326.689 57.7259C326.351 57.4541 325.921 57.3182 325.397 57.3182C324.873 57.3182 324.442 57.4541 324.104 57.7259C323.766 57.9976 323.516 58.3539 323.354 58.7947C323.191 59.2356 323.11 59.7112 323.11 60.2216C323.11 60.732 323.191 61.206 323.354 61.6435C323.516 62.081 323.766 62.4339 324.104 62.7024C324.442 62.9709 324.873 63.1051 325.397 63.1051ZM331.821 59.4062V64H330.648V56.3636H331.782V57.5568H331.881C332.06 57.169 332.332 56.8575 332.696 56.6222C333.061 56.3835 333.532 56.2642 334.108 56.2642C334.625 56.2642 335.078 56.3703 335.466 56.5824C335.853 56.7912 336.155 57.1094 336.37 57.5369C336.586 57.9612 336.694 58.4981 336.694 59.1477V64H335.52V59.2273C335.52 58.6274 335.364 58.16 335.053 57.8253C334.741 57.4872 334.314 57.3182 333.77 57.3182C333.396 57.3182 333.061 57.3994 332.766 57.5618C332.474 57.7242 332.244 57.9612 332.075 58.2727C331.906 58.5843 331.821 58.9621 331.821 59.4062ZM342.159 56.3636V57.358H338.201V56.3636H342.159ZM339.355 54.5341H340.528V61.8125C340.528 62.1439 340.576 62.3925 340.672 62.5582C340.771 62.7206 340.897 62.83 341.05 62.8864C341.206 62.9394 341.37 62.9659 341.542 62.9659C341.671 62.9659 341.777 62.9593 341.86 62.946C341.943 62.9295 342.009 62.9162 342.059 62.9062L342.298 63.9602C342.218 63.9901 342.107 64.0199 341.965 64.0497C341.822 64.0829 341.642 64.0994 341.423 64.0994C341.091 64.0994 340.767 64.0282 340.448 63.8857C340.133 63.7431 339.872 63.526 339.663 63.2344C339.457 62.9427 339.355 62.5748 339.355 62.1307V54.5341ZM347.043 64.1591C346.307 64.1591 345.673 63.9967 345.139 63.6719C344.609 63.3438 344.199 62.8864 343.911 62.2997C343.626 61.7098 343.483 61.0237 343.483 60.2415C343.483 59.4593 343.626 58.7699 343.911 58.1733C344.199 57.5734 344.6 57.1061 345.114 56.7713C345.631 56.4332 346.234 56.2642 346.924 56.2642C347.322 56.2642 347.714 56.3305 348.102 56.4631C348.49 56.5956 348.843 56.8111 349.161 57.1094C349.479 57.4044 349.733 57.7955 349.922 58.2827C350.111 58.7699 350.205 59.3698 350.205 60.0824V60.5795H344.319V59.5653H349.012C349.012 59.1345 348.926 58.75 348.753 58.4119C348.584 58.0739 348.342 57.8071 348.028 57.6115C347.716 57.416 347.348 57.3182 346.924 57.3182C346.456 57.3182 346.052 57.4342 345.711 57.6662C345.373 57.8949 345.113 58.1932 344.93 58.5611C344.748 58.929 344.657 59.3234 344.657 59.7443V60.4205C344.657 60.9972 344.756 61.486 344.955 61.8871C345.157 62.2848 345.437 62.5881 345.795 62.7969C346.153 63.0024 346.569 63.1051 347.043 63.1051C347.351 63.1051 347.63 63.062 347.878 62.9759C348.13 62.8864 348.347 62.7538 348.53 62.5781C348.712 62.3991 348.853 62.1771 348.952 61.9119L350.086 62.2301C349.966 62.6146 349.766 62.9527 349.484 63.2443C349.202 63.5327 348.854 63.758 348.44 63.9205C348.026 64.0795 347.56 64.1591 347.043 64.1591ZM353.163 59.4062V64H351.99V56.3636H353.123V57.5568H353.223C353.402 57.169 353.674 56.8575 354.038 56.6222C354.403 56.3835 354.873 56.2642 355.45 56.2642C355.967 56.2642 356.42 56.3703 356.807 56.5824C357.195 56.7912 357.497 57.1094 357.712 57.5369C357.928 57.9612 358.035 58.4981 358.035 59.1477V64H356.862V59.2273C356.862 58.6274 356.706 58.16 356.395 57.8253C356.083 57.4872 355.656 57.3182 355.112 57.3182C354.738 57.3182 354.403 57.3994 354.108 57.5618C353.816 57.7242 353.586 57.9612 353.417 58.2727C353.248 58.5843 353.163 58.9621 353.163 59.4062ZM363.063 64.1591C362.426 64.1591 361.865 63.9983 361.377 63.6768C360.89 63.352 360.509 62.8946 360.234 62.3047C359.959 61.7114 359.821 61.0104 359.821 60.2017C359.821 59.3996 359.959 58.7036 360.234 58.1136C360.509 57.5237 360.892 57.0679 361.382 56.7464C361.873 56.425 362.44 56.2642 363.083 56.2642C363.58 56.2642 363.973 56.3471 364.261 56.5128C364.553 56.6752 364.775 56.8608 364.927 57.0696C365.083 57.2751 365.204 57.4441 365.29 57.5767H365.39V53.8182H366.563V64H365.429V62.8267H365.29C365.204 62.9659 365.081 63.1416 364.922 63.3537C364.763 63.5625 364.536 63.7498 364.241 63.9155C363.946 64.0779 363.553 64.1591 363.063 64.1591ZM363.222 63.1051C363.693 63.1051 364.09 62.9825 364.415 62.7372C364.74 62.4886 364.987 62.1456 365.156 61.7081C365.325 61.2673 365.409 60.7585 365.409 60.1818C365.409 59.6117 365.327 59.1129 365.161 58.6854C364.995 58.2545 364.75 57.9197 364.425 57.6811C364.1 57.4392 363.699 57.3182 363.222 57.3182C362.725 57.3182 362.31 57.4458 361.979 57.701C361.651 57.9529 361.404 58.2959 361.238 58.7301C361.076 59.161 360.995 59.6449 360.995 60.1818C360.995 60.7254 361.078 61.2192 361.243 61.6634C361.412 62.1042 361.661 62.4555 361.989 62.7173C362.32 62.9759 362.731 63.1051 363.222 63.1051Z" fill="#085041"/>
<path d="M312.259 79.0455V71.5455H313.069V72.4119H313.168C313.23 72.3172 313.315 72.1965 313.424 72.0497C313.535 71.9006 313.694 71.768 313.9 71.652C314.108 71.5336 314.39 71.4744 314.745 71.4744C315.204 71.4744 315.609 71.5893 315.96 71.8189C316.31 72.0485 316.583 72.3741 316.78 72.7955C316.976 73.2169 317.075 73.714 317.075 74.2869C317.075 74.8646 316.976 75.3653 316.78 75.7891C316.583 76.2105 316.311 76.5372 315.963 76.7692C315.615 76.9988 315.214 77.1136 314.759 77.1136C314.409 77.1136 314.128 77.0556 313.918 76.9396C313.707 76.8213 313.545 76.6875 313.431 76.5384C313.317 76.3868 313.23 76.2614 313.168 76.1619H313.097V79.0455H312.259ZM313.083 74.2727C313.083 74.6847 313.143 75.0481 313.264 75.3629C313.385 75.6754 313.561 75.9205 313.793 76.098C314.025 76.2732 314.309 76.3608 314.646 76.3608C314.996 76.3608 315.288 76.2685 315.523 76.0838C315.759 75.8968 315.937 75.6458 316.055 75.331C316.176 75.0137 316.237 74.661 316.237 74.2727C316.237 73.8892 316.177 73.5436 316.059 73.2358C315.943 72.9257 315.767 72.6806 315.53 72.5007C315.295 72.3184 315.001 72.2273 314.646 72.2273C314.305 72.2273 314.018 72.3137 313.786 72.4865C313.554 72.657 313.379 72.8961 313.261 73.2038C313.142 73.5092 313.083 73.8655 313.083 74.2727ZM321.79 74.7699V71.5455H322.629V77H321.79V76.0767H321.734C321.606 76.3537 321.407 76.5893 321.137 76.7834C320.867 76.9751 320.526 77.071 320.114 77.071C319.773 77.071 319.47 76.9964 319.205 76.8473C318.94 76.6958 318.732 76.4685 318.58 76.1655C318.429 75.8601 318.353 75.4754 318.353 75.0114V71.5455H319.191V74.9545C319.191 75.3523 319.302 75.6695 319.525 75.9062C319.75 76.143 320.036 76.2614 320.384 76.2614C320.593 76.2614 320.804 76.2081 321.02 76.1016C321.238 75.995 321.42 75.8317 321.567 75.6115C321.716 75.3913 321.79 75.1108 321.79 74.7699ZM324.277 77V69.7273H325.115V72.4119H325.186C325.248 72.3172 325.333 72.1965 325.442 72.0497C325.553 71.9006 325.712 71.768 325.918 71.652C326.126 71.5336 326.408 71.4744 326.763 71.4744C327.222 71.4744 327.627 71.5893 327.977 71.8189C328.328 72.0485 328.601 72.3741 328.798 72.7955C328.994 73.2169 329.093 73.714 329.093 74.2869C329.093 74.8646 328.994 75.3653 328.798 75.7891C328.601 76.2105 328.329 76.5372 327.981 76.7692C327.633 76.9988 327.232 77.1136 326.777 77.1136C326.427 77.1136 326.146 77.0556 325.936 76.9396C325.725 76.8213 325.563 76.6875 325.449 76.5384C325.335 76.3868 325.248 76.2614 325.186 76.1619H325.087V77H324.277ZM325.101 74.2727C325.101 74.6847 325.161 75.0481 325.282 75.3629C325.403 75.6754 325.579 75.9205 325.811 76.098C326.043 76.2732 326.327 76.3608 326.664 76.3608C327.014 76.3608 327.306 76.2685 327.541 76.0838C327.777 75.8968 327.955 75.6458 328.073 75.331C328.194 75.0137 328.254 74.661 328.254 74.2727C328.254 73.8892 328.195 73.5436 328.077 73.2358C327.961 72.9257 327.785 72.6806 327.548 72.5007C327.313 72.3184 327.019 72.2273 326.664 72.2273C326.323 72.2273 326.036 72.3137 325.804 72.4865C325.572 72.657 325.397 72.8961 325.279 73.2038C325.16 73.5092 325.101 73.8655 325.101 74.2727ZM331.213 69.7273V77H330.374V69.7273H331.213ZM332.748 77V71.5455H333.586V77H332.748ZM333.174 70.6364C333.01 70.6364 332.869 70.5807 332.751 70.4695C332.635 70.3582 332.577 70.2244 332.577 70.0682C332.577 69.9119 332.635 69.7782 332.751 69.6669C332.869 69.5556 333.01 69.5 333.174 69.5C333.337 69.5 333.477 69.5556 333.593 69.6669C333.711 69.7782 333.77 69.9119 333.77 70.0682C333.77 70.2244 333.711 70.3582 333.593 70.4695C333.477 70.5807 333.337 70.6364 333.174 70.6364ZM337.336 77.1136C336.825 77.1136 336.385 76.9929 336.015 76.7514C335.646 76.5099 335.362 76.1773 335.163 75.7536C334.964 75.3298 334.865 74.8456 334.865 74.3011C334.865 73.7472 334.967 73.2583 335.17 72.8345C335.376 72.4084 335.663 72.0758 336.03 71.8366C336.399 71.5952 336.83 71.4744 337.322 71.4744C337.706 71.4744 338.051 71.5455 338.359 71.6875C338.667 71.8295 338.919 72.0284 339.116 72.2841C339.312 72.5398 339.434 72.8381 339.481 73.179H338.643C338.579 72.9304 338.437 72.7102 338.217 72.5185C337.999 72.3243 337.706 72.2273 337.336 72.2273C337.01 72.2273 336.723 72.3125 336.477 72.483C336.233 72.651 336.043 72.889 335.905 73.1967C335.77 73.5021 335.703 73.8608 335.703 74.2727C335.703 74.6941 335.769 75.0611 335.902 75.3736C336.037 75.6861 336.226 75.9287 336.47 76.1016C336.716 76.2744 337.005 76.3608 337.336 76.3608C337.554 76.3608 337.752 76.3229 337.93 76.2472C338.107 76.1714 338.257 76.0625 338.381 75.9205C338.504 75.7784 338.591 75.608 338.643 75.4091H339.481C339.434 75.7311 339.317 76.0211 339.13 76.2791C338.945 76.5348 338.7 76.7384 338.395 76.8899C338.092 77.0391 337.739 77.1136 337.336 77.1136ZM345.806 77.1136C345.28 77.1136 344.827 76.9976 344.446 76.7656C344.067 76.5312 343.775 76.2045 343.569 75.7855C343.365 75.3641 343.263 74.8741 343.263 74.3153C343.263 73.7566 343.365 73.2642 343.569 72.8381C343.775 72.4096 344.061 72.0758 344.428 71.8366C344.797 71.5952 345.228 71.4744 345.721 71.4744C346.005 71.4744 346.285 71.5218 346.562 71.6165C346.839 71.7112 347.091 71.8651 347.319 72.0781C347.546 72.2888 347.727 72.5682 347.862 72.9162C347.997 73.2642 348.064 73.6927 348.064 74.2017V74.5568H343.86V73.8324H347.212C347.212 73.5246 347.151 73.25 347.028 73.0085C346.907 72.767 346.734 72.5765 346.509 72.4368C346.287 72.2971 346.024 72.2273 345.721 72.2273C345.387 72.2273 345.098 72.3101 344.854 72.4759C344.613 72.6392 344.427 72.8523 344.297 73.1151C344.166 73.3778 344.101 73.6596 344.101 73.9602V74.4432C344.101 74.8551 344.172 75.2043 344.314 75.4908C344.459 75.7749 344.659 75.9915 344.915 76.1406C345.17 76.2874 345.467 76.3608 345.806 76.3608C346.026 76.3608 346.225 76.33 346.403 76.2685C346.582 76.2045 346.738 76.1098 346.868 75.9844C346.998 75.8565 347.099 75.6979 347.17 75.5085L347.979 75.7358C347.894 76.0104 347.751 76.2519 347.55 76.4602C347.348 76.6662 347.1 76.8272 346.804 76.9432C346.508 77.0568 346.175 77.1136 345.806 77.1136ZM350.177 73.7188V77H349.339V71.5455H350.149V72.3977H350.22C350.348 72.1207 350.542 71.8982 350.802 71.7301C351.063 71.5597 351.399 71.4744 351.811 71.4744C352.18 71.4744 352.503 71.5502 352.78 71.7017C353.057 71.8509 353.273 72.0781 353.427 72.3835C353.581 72.6866 353.657 73.0701 353.657 73.5341V77H352.819V73.5909C352.819 73.1624 352.708 72.8286 352.486 72.5895C352.263 72.348 351.958 72.2273 351.569 72.2273C351.302 72.2273 351.063 72.2853 350.852 72.4013C350.644 72.5173 350.479 72.6866 350.358 72.9091C350.238 73.1316 350.177 73.4015 350.177 73.7188ZM357.561 71.5455V72.2557H354.734V71.5455H357.561ZM355.558 70.2386H356.396V75.4375C356.396 75.6742 356.431 75.8518 356.499 75.9702C356.57 76.0862 356.66 76.1643 356.769 76.2045C356.88 76.2424 356.998 76.2614 357.121 76.2614C357.213 76.2614 357.289 76.2566 357.348 76.2472C357.407 76.2353 357.455 76.2259 357.49 76.2188L357.661 76.9716C357.604 76.9929 357.524 77.0142 357.423 77.0355C357.321 77.0592 357.192 77.071 357.036 77.071C356.799 77.071 356.567 77.0201 356.339 76.9183C356.115 76.8165 355.928 76.6615 355.778 76.4531C355.632 76.2448 355.558 75.982 355.558 75.6648V70.2386ZM358.822 77V71.5455H359.631V72.3693H359.688C359.788 72.0994 359.968 71.8804 360.228 71.7124C360.488 71.5443 360.782 71.4602 361.109 71.4602C361.17 71.4602 361.247 71.4614 361.339 71.4638C361.432 71.4661 361.502 71.4697 361.549 71.4744V72.3267C361.521 72.3196 361.455 72.3089 361.354 72.2947C361.254 72.2782 361.149 72.2699 361.038 72.2699C360.772 72.2699 360.536 72.3255 360.327 72.4368C360.121 72.5457 359.958 72.6972 359.837 72.8913C359.719 73.0831 359.66 73.3021 359.66 73.5483V77H358.822ZM363.248 79.0455C363.106 79.0455 362.98 79.0336 362.868 79.0099C362.757 78.9886 362.68 78.9673 362.637 78.946L362.85 78.2074C363.054 78.2595 363.234 78.2784 363.39 78.2642C363.547 78.25 363.685 78.1802 363.806 78.0547C363.929 77.9316 364.041 77.7315 364.143 77.4545L364.299 77.0284L362.282 71.5455H363.191L364.697 75.892H364.754L366.26 71.5455H367.169L364.853 77.7955C364.749 78.0772 364.62 78.3104 364.466 78.495C364.312 78.6821 364.134 78.8205 363.93 78.9105C363.729 79.0005 363.502 79.0455 363.248 79.0455Z" fill="#0F6E56"/>
<path d="M402 140H278C273.582 140 270 143.582 270 148V188C270 192.418 273.582 196 278 196H402C406.418 196 410 192.418 410 188V148C410 143.582 406.418 140 402 140Z" fill="#E1F5EE" stroke="#0F6E56" stroke-width="0.5"/>
<path d="M312.364 165V154.818H313.537V158.577H313.637C313.723 158.444 313.842 158.275 313.994 158.07C314.15 157.861 314.372 157.675 314.661 157.513C314.952 157.347 315.347 157.264 315.844 157.264C316.487 157.264 317.054 157.425 317.544 157.746C318.035 158.068 318.418 158.524 318.693 159.114C318.968 159.704 319.105 160.4 319.105 161.202C319.105 162.01 318.968 162.711 318.693 163.305C318.418 163.895 318.036 164.352 317.549 164.677C317.062 164.998 316.5 165.159 315.864 165.159C315.373 165.159 314.981 165.078 314.686 164.915C314.391 164.75 314.164 164.562 314.004 164.354C313.845 164.142 313.723 163.966 313.637 163.827H313.497V165H312.364ZM313.517 161.182C313.517 161.759 313.602 162.267 313.771 162.708C313.94 163.146 314.187 163.489 314.512 163.737C314.836 163.982 315.234 164.105 315.705 164.105C316.195 164.105 316.605 163.976 316.933 163.717C317.264 163.455 317.513 163.104 317.678 162.663C317.847 162.219 317.932 161.725 317.932 161.182C317.932 160.645 317.849 160.161 317.683 159.73C317.521 159.296 317.274 158.953 316.943 158.701C316.615 158.446 316.202 158.318 315.705 158.318C315.227 158.318 314.826 158.439 314.502 158.681C314.177 158.92 313.932 159.254 313.766 159.685C313.6 160.113 313.517 160.612 313.517 161.182ZM323.147 165.179C322.663 165.179 322.224 165.088 321.83 164.906C321.435 164.72 321.122 164.453 320.89 164.105C320.658 163.754 320.542 163.33 320.542 162.832C320.542 162.395 320.628 162.04 320.801 161.768C320.973 161.493 321.203 161.278 321.492 161.122C321.78 160.966 322.098 160.85 322.446 160.774C322.798 160.695 323.151 160.632 323.505 160.585C323.969 160.526 324.345 160.481 324.634 160.451C324.925 160.418 325.137 160.363 325.27 160.287C325.406 160.211 325.474 160.078 325.474 159.889V159.849C325.474 159.359 325.34 158.978 325.071 158.706C324.806 158.434 324.403 158.298 323.863 158.298C323.303 158.298 322.864 158.421 322.546 158.666C322.227 158.911 322.004 159.173 321.874 159.452L320.761 159.054C320.96 158.59 321.225 158.229 321.556 157.97C321.891 157.708 322.256 157.526 322.65 157.423C323.048 157.317 323.439 157.264 323.823 157.264C324.069 157.264 324.35 157.294 324.669 157.354C324.99 157.41 325.3 157.528 325.598 157.707C325.9 157.886 326.15 158.156 326.349 158.517C326.548 158.878 326.647 159.362 326.647 159.969V165H325.474V163.966H325.414C325.335 164.132 325.202 164.309 325.017 164.498C324.831 164.687 324.584 164.848 324.276 164.98C323.968 165.113 323.591 165.179 323.147 165.179ZM323.326 164.125C323.79 164.125 324.181 164.034 324.499 163.852C324.821 163.669 325.063 163.434 325.225 163.146C325.391 162.857 325.474 162.554 325.474 162.236V161.162C325.424 161.222 325.315 161.276 325.146 161.326C324.98 161.372 324.788 161.414 324.569 161.45C324.354 161.483 324.143 161.513 323.938 161.54C323.735 161.563 323.571 161.583 323.445 161.599C323.141 161.639 322.856 161.704 322.59 161.793C322.329 161.879 322.116 162.01 321.954 162.186C321.795 162.358 321.715 162.594 321.715 162.892C321.715 163.3 321.866 163.608 322.168 163.817C322.473 164.022 322.859 164.125 323.326 164.125ZM331.891 165.159C331.175 165.159 330.559 164.99 330.042 164.652C329.525 164.314 329.127 163.848 328.848 163.255C328.57 162.662 328.431 161.984 328.431 161.222C328.431 160.446 328.573 159.762 328.858 159.168C329.147 158.572 329.548 158.106 330.061 157.771C330.578 157.433 331.182 157.264 331.871 157.264C332.408 157.264 332.892 157.364 333.323 157.562C333.754 157.761 334.107 158.04 334.382 158.398C334.657 158.756 334.828 159.173 334.894 159.651H333.721C333.631 159.303 333.432 158.994 333.124 158.726C332.819 158.454 332.408 158.318 331.891 158.318C331.434 158.318 331.033 158.437 330.688 158.676C330.346 158.911 330.08 159.245 329.887 159.675C329.699 160.103 329.604 160.605 329.604 161.182C329.604 161.772 329.697 162.286 329.882 162.723C330.071 163.161 330.337 163.5 330.678 163.742C331.023 163.984 331.427 164.105 331.891 164.105C332.196 164.105 332.473 164.052 332.721 163.946C332.97 163.84 333.18 163.688 333.353 163.489C333.525 163.29 333.648 163.051 333.721 162.773H334.894C334.828 163.223 334.663 163.629 334.402 163.991C334.143 164.349 333.8 164.634 333.373 164.846C332.948 165.055 332.454 165.159 331.891 165.159ZM337.703 162.216L337.683 160.764H337.922L341.262 157.364H342.714L339.154 160.963H339.055L337.703 162.216ZM336.609 165V154.818H337.782V165H336.609ZM341.461 165L338.478 161.222L339.314 160.406L342.953 165H341.461ZM347.112 165.159C346.376 165.159 345.741 164.997 345.207 164.672C344.677 164.344 344.268 163.886 343.979 163.3C343.694 162.71 343.552 162.024 343.552 161.241C343.552 160.459 343.694 159.77 343.979 159.173C344.268 158.573 344.669 158.106 345.183 157.771C345.7 157.433 346.303 157.264 346.992 157.264C347.39 157.264 347.783 157.33 348.17 157.463C348.558 157.596 348.911 157.811 349.229 158.109C349.548 158.404 349.801 158.795 349.99 159.283C350.179 159.77 350.273 160.37 350.273 161.082V161.58H344.387V160.565H349.08C349.08 160.134 348.994 159.75 348.822 159.412C348.653 159.074 348.411 158.807 348.096 158.612C347.784 158.416 347.416 158.318 346.992 158.318C346.525 158.318 346.121 158.434 345.779 158.666C345.441 158.895 345.181 159.193 344.999 159.561C344.816 159.929 344.725 160.323 344.725 160.744V161.42C344.725 161.997 344.825 162.486 345.023 162.887C345.226 163.285 345.506 163.588 345.864 163.797C346.222 164.002 346.638 164.105 347.112 164.105C347.42 164.105 347.698 164.062 347.947 163.976C348.199 163.886 348.416 163.754 348.598 163.578C348.78 163.399 348.921 163.177 349.021 162.912L350.154 163.23C350.035 163.615 349.834 163.953 349.553 164.244C349.271 164.533 348.923 164.758 348.509 164.92C348.094 165.08 347.629 165.159 347.112 165.159ZM353.232 160.406V165H352.058V157.364H353.192V158.557H353.291C353.47 158.169 353.742 157.857 354.107 157.622C354.471 157.384 354.942 157.264 355.518 157.264C356.036 157.264 356.488 157.37 356.876 157.582C357.263 157.791 357.565 158.109 357.781 158.537C357.996 158.961 358.104 159.498 358.104 160.148V165H356.93V160.227C356.93 159.627 356.775 159.16 356.463 158.825C356.152 158.487 355.724 158.318 355.18 158.318C354.806 158.318 354.471 158.399 354.176 158.562C353.884 158.724 353.654 158.961 353.485 159.273C353.316 159.584 353.232 159.962 353.232 160.406ZM363.131 165.159C362.495 165.159 361.933 164.998 361.446 164.677C360.959 164.352 360.577 163.895 360.302 163.305C360.027 162.711 359.89 162.01 359.89 161.202C359.89 160.4 360.027 159.704 360.302 159.114C360.577 158.524 360.96 158.068 361.451 157.746C361.941 157.425 362.508 157.264 363.151 157.264C363.648 157.264 364.041 157.347 364.329 157.513C364.621 157.675 364.843 157.861 364.996 158.07C365.151 158.275 365.272 158.444 365.358 158.577H365.458V154.818H366.631V165H365.498V163.827H365.358C365.272 163.966 365.15 164.142 364.991 164.354C364.831 164.562 364.604 164.75 364.309 164.915C364.015 165.078 363.622 165.159 363.131 165.159ZM363.29 164.105C363.761 164.105 364.159 163.982 364.483 163.737C364.808 163.489 365.055 163.146 365.224 162.708C365.393 162.267 365.478 161.759 365.478 161.182C365.478 160.612 365.395 160.113 365.229 159.685C365.064 159.254 364.818 158.92 364.493 158.681C364.169 158.439 363.768 158.318 363.29 158.318C362.793 158.318 362.379 158.446 362.047 158.701C361.719 158.953 361.472 159.296 361.307 159.73C361.144 160.161 361.063 160.645 361.063 161.182C361.063 161.725 361.146 162.219 361.312 162.663C361.481 163.104 361.729 163.455 362.057 163.717C362.389 163.976 362.8 164.105 363.29 164.105Z" fill="#085041"/>
<path d="M324.062 178.114C323.551 178.114 323.11 177.993 322.741 177.751C322.372 177.51 322.088 177.177 321.889 176.754C321.69 176.33 321.59 175.846 321.59 175.301C321.59 174.747 321.692 174.258 321.896 173.835C322.102 173.408 322.388 173.076 322.755 172.837C323.125 172.595 323.555 172.474 324.048 172.474C324.431 172.474 324.777 172.545 325.085 172.688C325.393 172.83 325.645 173.028 325.841 173.284C326.038 173.54 326.16 173.838 326.207 174.179H325.369C325.305 173.93 325.163 173.71 324.943 173.518C324.725 173.324 324.431 173.227 324.062 173.227C323.735 173.227 323.449 173.312 323.203 173.483C322.959 173.651 322.768 173.889 322.631 174.197C322.496 174.502 322.429 174.861 322.429 175.273C322.429 175.694 322.495 176.061 322.627 176.374C322.762 176.686 322.952 176.929 323.196 177.102C323.442 177.274 323.731 177.361 324.062 177.361C324.28 177.361 324.478 177.323 324.655 177.247C324.833 177.171 324.983 177.062 325.106 176.92C325.229 176.778 325.317 176.608 325.369 176.409H326.207C326.16 176.731 326.042 177.021 325.855 177.279C325.671 177.535 325.426 177.738 325.12 177.89C324.817 178.039 324.465 178.114 324.062 178.114ZM329.648 178.114C329.156 178.114 328.724 177.996 328.352 177.762C327.983 177.528 327.694 177.2 327.485 176.778C327.279 176.357 327.176 175.865 327.176 175.301C327.176 174.733 327.279 174.237 327.485 173.813C327.694 173.389 327.983 173.06 328.352 172.826C328.724 172.592 329.156 172.474 329.648 172.474C330.14 172.474 330.571 172.592 330.941 172.826C331.312 173.06 331.601 173.389 331.807 173.813C332.015 174.237 332.12 174.733 332.12 175.301C332.12 175.865 332.015 176.357 331.807 176.778C331.601 177.2 331.312 177.528 330.941 177.762C330.571 177.996 330.14 178.114 329.648 178.114ZM329.648 177.361C330.022 177.361 330.33 177.265 330.571 177.073C330.813 176.881 330.992 176.629 331.108 176.317C331.224 176.004 331.282 175.666 331.282 175.301C331.282 174.937 331.224 174.597 331.108 174.282C330.992 173.967 330.813 173.713 330.571 173.518C330.33 173.324 330.022 173.227 329.648 173.227C329.274 173.227 328.966 173.324 328.725 173.518C328.483 173.713 328.304 173.967 328.188 174.282C328.072 174.597 328.014 174.937 328.014 175.301C328.014 175.666 328.072 176.004 328.188 176.317C328.304 176.629 328.483 176.881 328.725 177.073C328.966 177.265 329.274 177.361 329.648 177.361ZM333.399 178V172.545H334.209V173.369H334.265C334.365 173.099 334.545 172.88 334.805 172.712C335.066 172.544 335.359 172.46 335.686 172.46C335.747 172.46 335.824 172.461 335.917 172.464C336.009 172.466 336.079 172.47 336.126 172.474V173.327C336.098 173.32 336.033 173.309 335.931 173.295C335.831 173.278 335.726 173.27 335.615 173.27C335.35 173.27 335.113 173.326 334.905 173.437C334.699 173.546 334.535 173.697 334.415 173.891C334.296 174.083 334.237 174.302 334.237 174.548V178H333.399ZM339.241 178.114C338.715 178.114 338.262 177.998 337.88 177.766C337.502 177.531 337.209 177.205 337.003 176.786C336.8 176.364 336.698 175.874 336.698 175.315C336.698 174.757 336.8 174.264 337.003 173.838C337.209 173.41 337.496 173.076 337.863 172.837C338.232 172.595 338.663 172.474 339.155 172.474C339.439 172.474 339.72 172.522 339.997 172.616C340.274 172.711 340.526 172.865 340.753 173.078C340.981 173.289 341.162 173.568 341.297 173.916C341.432 174.264 341.499 174.693 341.499 175.202V175.557H337.294V174.832H340.647C340.647 174.525 340.585 174.25 340.462 174.009C340.341 173.767 340.169 173.576 339.944 173.437C339.721 173.297 339.458 173.227 339.155 173.227C338.821 173.227 338.533 173.31 338.289 173.476C338.047 173.639 337.861 173.852 337.731 174.115C337.601 174.378 337.536 174.66 337.536 174.96V175.443C337.536 175.855 337.607 176.204 337.749 176.491C337.893 176.775 338.093 176.991 338.349 177.141C338.605 177.287 338.902 177.361 339.241 177.361C339.461 177.361 339.66 177.33 339.837 177.268C340.017 177.205 340.172 177.11 340.302 176.984C340.432 176.857 340.533 176.698 340.604 176.509L341.414 176.736C341.329 177.01 341.185 177.252 340.984 177.46C340.783 177.666 340.534 177.827 340.238 177.943C339.942 178.057 339.61 178.114 339.241 178.114ZM347.191 178.128C346.846 178.128 346.532 178.063 346.25 177.933C345.969 177.8 345.745 177.609 345.579 177.361C345.414 177.11 345.331 176.807 345.331 176.452C345.331 176.139 345.392 175.886 345.515 175.692C345.638 175.495 345.803 175.341 346.009 175.23C346.215 175.119 346.442 175.036 346.691 174.982C346.942 174.925 347.194 174.88 347.447 174.847C347.779 174.804 348.047 174.772 348.253 174.751C348.462 174.727 348.613 174.688 348.708 174.634C348.805 174.579 348.853 174.484 348.853 174.349V174.321C348.853 173.971 348.758 173.698 348.566 173.504C348.376 173.31 348.089 173.213 347.703 173.213C347.303 173.213 346.989 173.301 346.762 173.476C346.535 173.651 346.375 173.838 346.282 174.037L345.487 173.753C345.629 173.421 345.818 173.163 346.055 172.979C346.294 172.792 346.555 172.661 346.836 172.588C347.12 172.512 347.4 172.474 347.674 172.474C347.85 172.474 348.051 172.496 348.278 172.538C348.508 172.579 348.729 172.663 348.942 172.79C349.158 172.918 349.336 173.111 349.478 173.369C349.62 173.627 349.691 173.973 349.691 174.406V178H348.853V177.261H348.811C348.754 177.38 348.659 177.506 348.527 177.641C348.394 177.776 348.218 177.891 347.998 177.986C347.777 178.08 347.509 178.128 347.191 178.128ZM347.319 177.375C347.651 177.375 347.93 177.31 348.157 177.18C348.387 177.049 348.56 176.881 348.676 176.675C348.794 176.469 348.853 176.253 348.853 176.026V175.259C348.818 175.301 348.74 175.34 348.619 175.376C348.501 175.409 348.363 175.438 348.207 175.464C348.053 175.488 347.903 175.509 347.756 175.528C347.612 175.545 347.495 175.559 347.405 175.571C347.187 175.599 346.983 175.646 346.794 175.71C346.607 175.771 346.455 175.865 346.339 175.99C346.226 176.113 346.169 176.281 346.169 176.494C346.169 176.786 346.276 177.006 346.492 177.155C346.71 177.302 346.986 177.375 347.319 177.375ZM351.221 180.045V172.545H352.031V173.412H352.13C352.192 173.317 352.277 173.196 352.386 173.05C352.497 172.901 352.656 172.768 352.862 172.652C353.07 172.534 353.352 172.474 353.707 172.474C354.166 172.474 354.571 172.589 354.921 172.819C355.272 173.049 355.545 173.374 355.742 173.795C355.938 174.217 356.036 174.714 356.036 175.287C356.036 175.865 355.938 176.365 355.742 176.789C355.545 177.21 355.273 177.537 354.925 177.769C354.577 177.999 354.176 178.114 353.721 178.114C353.371 178.114 353.09 178.056 352.88 177.94C352.669 177.821 352.507 177.687 352.393 177.538C352.279 177.387 352.192 177.261 352.13 177.162H352.059V180.045H351.221ZM352.045 175.273C352.045 175.685 352.105 176.048 352.226 176.363C352.347 176.675 352.523 176.92 352.755 177.098C352.987 177.273 353.271 177.361 353.608 177.361C353.958 177.361 354.25 177.268 354.485 177.084C354.721 176.897 354.899 176.646 355.017 176.331C355.138 176.014 355.198 175.661 355.198 175.273C355.198 174.889 355.139 174.544 355.021 174.236C354.905 173.926 354.728 173.681 354.492 173.501C354.257 173.318 353.963 173.227 353.608 173.227C353.267 173.227 352.98 173.314 352.748 173.487C352.516 173.657 352.341 173.896 352.223 174.204C352.104 174.509 352.045 174.866 352.045 175.273ZM357.315 178V172.545H358.153V178H357.315ZM357.741 171.636C357.578 171.636 357.437 171.581 357.318 171.469C357.202 171.358 357.144 171.224 357.144 171.068C357.144 170.912 357.202 170.778 357.318 170.667C357.437 170.556 357.578 170.5 357.741 170.5C357.904 170.5 358.044 170.556 358.16 170.667C358.278 170.778 358.338 170.912 358.338 171.068C358.338 171.224 358.278 171.358 358.16 171.469C358.044 171.581 357.904 171.636 357.741 171.636Z" fill="#0F6E56"/>
<path d="M232 240H108C103.582 240 100 243.582 100 248V288C100 292.418 103.582 296 108 296H232C236.418 296 240 292.418 240 288V248C240 243.582 236.418 240 232 240Z" fill="#E1F5EE" stroke="#0F6E56" stroke-width="0.5"/>
<path d="M143.502 265.179C143.018 265.179 142.579 265.088 142.184 264.906C141.79 264.72 141.477 264.453 141.245 264.105C141.013 263.754 140.897 263.33 140.897 262.832C140.897 262.395 140.983 262.04 141.155 261.768C141.327 261.493 141.558 261.278 141.846 261.122C142.134 260.966 142.453 260.85 142.801 260.774C143.152 260.695 143.505 260.632 143.86 260.585C144.324 260.526 144.7 260.481 144.988 260.451C145.28 260.418 145.492 260.363 145.625 260.287C145.76 260.211 145.828 260.078 145.828 259.889V259.849C145.828 259.359 145.694 258.978 145.426 258.706C145.161 258.434 144.758 258.298 144.218 258.298C143.657 258.298 143.218 258.421 142.9 258.666C142.582 258.911 142.358 259.173 142.229 259.452L141.115 259.054C141.314 258.59 141.579 258.229 141.911 257.97C142.246 257.708 142.61 257.526 143.005 257.423C143.402 257.317 143.793 257.264 144.178 257.264C144.423 257.264 144.705 257.294 145.023 257.354C145.344 257.41 145.654 257.528 145.953 257.707C146.254 257.886 146.505 258.156 146.703 258.517C146.902 258.878 147.002 259.362 147.002 259.969V265H145.828V263.966H145.769C145.689 264.132 145.557 264.309 145.371 264.498C145.185 264.687 144.938 264.848 144.63 264.98C144.322 265.113 143.946 265.179 143.502 265.179ZM143.681 264.125C144.145 264.125 144.536 264.034 144.854 263.852C145.175 263.669 145.417 263.434 145.58 263.146C145.746 262.857 145.828 262.554 145.828 262.236V261.162C145.779 261.222 145.669 261.276 145.5 261.326C145.335 261.372 145.142 261.414 144.924 261.45C144.708 261.483 144.498 261.513 144.292 261.54C144.09 261.563 143.926 261.583 143.8 261.599C143.495 261.639 143.21 261.704 142.945 261.793C142.683 261.879 142.471 262.01 142.309 262.186C142.149 262.358 142.07 262.594 142.07 262.892C142.07 263.3 142.221 263.608 142.522 263.817C142.827 264.022 143.213 264.125 143.681 264.125ZM153.956 261.878V257.364H155.129V265H153.956V263.707H153.876C153.697 264.095 153.419 264.425 153.041 264.697C152.663 264.965 152.186 265.099 151.609 265.099C151.132 265.099 150.708 264.995 150.336 264.786C149.965 264.574 149.674 264.256 149.461 263.832C149.249 263.404 149.143 262.866 149.143 262.216V257.364H150.316V262.136C150.316 262.693 150.472 263.137 150.784 263.469C151.099 263.8 151.5 263.966 151.987 263.966C152.279 263.966 152.575 263.891 152.877 263.742C153.182 263.593 153.437 263.364 153.642 263.056C153.851 262.748 153.956 262.355 153.956 261.878ZM160.599 257.364V258.358H156.642V257.364H160.599ZM157.795 255.534H158.968V262.812C158.968 263.144 159.016 263.393 159.112 263.558C159.212 263.721 159.338 263.83 159.49 263.886C159.646 263.939 159.81 263.966 159.983 263.966C160.112 263.966 160.218 263.959 160.301 263.946C160.384 263.929 160.45 263.916 160.5 263.906L160.738 264.96C160.659 264.99 160.548 265.02 160.405 265.05C160.263 265.083 160.082 265.099 159.863 265.099C159.532 265.099 159.207 265.028 158.889 264.886C158.574 264.743 158.312 264.526 158.103 264.234C157.898 263.943 157.795 263.575 157.795 263.131V255.534ZM163.701 260.406V265H162.528V254.818H163.701V258.557H163.801C163.98 258.162 164.248 257.849 164.606 257.617C164.967 257.382 165.448 257.264 166.048 257.264C166.568 257.264 167.024 257.369 167.415 257.577C167.806 257.783 168.109 258.099 168.325 258.527C168.544 258.951 168.653 259.491 168.653 260.148V265H167.48V260.227C167.48 259.621 167.322 259.152 167.007 258.82C166.696 258.486 166.263 258.318 165.71 258.318C165.325 258.318 164.981 258.399 164.676 258.562C164.374 258.724 164.135 258.961 163.96 259.273C163.787 259.584 163.701 259.962 163.701 260.406ZM175.174 260.088V261.182H170.72V260.088H175.174ZM182.648 259.074L181.594 259.372C181.528 259.196 181.43 259.026 181.301 258.86C181.175 258.691 181.002 258.552 180.784 258.442C180.565 258.333 180.285 258.278 179.943 258.278C179.476 258.278 179.087 258.386 178.775 258.602C178.467 258.814 178.313 259.084 178.313 259.412C178.313 259.704 178.419 259.934 178.631 260.103C178.843 260.272 179.175 260.413 179.625 260.526L180.759 260.804C181.442 260.97 181.95 261.223 182.285 261.565C182.62 261.903 182.787 262.339 182.787 262.872C182.787 263.31 182.661 263.701 182.409 264.045C182.161 264.39 181.813 264.662 181.365 264.861C180.918 265.06 180.398 265.159 179.804 265.159C179.025 265.159 178.381 264.99 177.87 264.652C177.36 264.314 177.037 263.82 176.901 263.17L178.014 262.892C178.121 263.303 178.321 263.611 178.616 263.817C178.914 264.022 179.304 264.125 179.784 264.125C180.331 264.125 180.765 264.009 181.087 263.777C181.412 263.542 181.574 263.26 181.574 262.932C181.574 262.667 181.481 262.445 181.296 262.266C181.11 262.083 180.825 261.947 180.441 261.858L179.168 261.56C178.469 261.394 177.955 261.137 177.627 260.789C177.302 260.438 177.139 259.999 177.139 259.472C177.139 259.041 177.26 258.66 177.502 258.328C177.748 257.997 178.081 257.737 178.502 257.548C178.926 257.359 179.407 257.264 179.943 257.264C180.699 257.264 181.292 257.43 181.723 257.761C182.157 258.093 182.466 258.53 182.648 259.074ZM190.798 257.364L187.974 265H186.781L183.957 257.364H185.229L187.337 263.449H187.417L189.525 257.364H190.798ZM195.175 265.159C194.459 265.159 193.843 264.99 193.326 264.652C192.809 264.314 192.411 263.848 192.133 263.255C191.854 262.662 191.715 261.984 191.715 261.222C191.715 260.446 191.857 259.762 192.142 259.168C192.431 258.572 192.832 258.106 193.346 257.771C193.863 257.433 194.466 257.264 195.155 257.264C195.692 257.264 196.176 257.364 196.607 257.562C197.038 257.761 197.391 258.04 197.666 258.398C197.941 258.756 198.112 259.173 198.178 259.651H197.005C196.915 259.303 196.716 258.994 196.408 258.726C196.103 258.454 195.692 258.318 195.175 258.318C194.718 258.318 194.317 258.437 193.972 258.676C193.631 258.911 193.364 259.245 193.172 259.675C192.983 260.103 192.888 260.605 192.888 261.182C192.888 261.772 192.981 262.286 193.167 262.723C193.356 263.161 193.621 263.5 193.962 263.742C194.307 263.984 194.711 264.105 195.175 264.105C195.48 264.105 195.757 264.052 196.005 263.946C196.254 263.84 196.464 263.688 196.637 263.489C196.809 263.29 196.932 263.051 197.005 262.773H198.178C198.112 263.223 197.948 263.629 197.686 263.991C197.427 264.349 197.084 264.634 196.657 264.846C196.232 265.055 195.739 265.159 195.175 265.159Z" fill="#085041"/>
<path d="M138.197 277V271.545H139.035V277H138.197ZM138.623 270.636C138.46 270.636 138.319 270.581 138.2 270.469C138.084 270.358 138.026 270.224 138.026 270.068C138.026 269.912 138.084 269.778 138.2 269.667C138.319 269.556 138.46 269.5 138.623 269.5C138.786 269.5 138.926 269.556 139.042 269.667C139.16 269.778 139.219 269.912 139.219 270.068C139.219 270.224 139.16 270.358 139.042 270.469C138.926 270.581 138.786 270.636 138.623 270.636ZM144.433 272.767L143.681 272.98C143.633 272.855 143.563 272.733 143.471 272.614C143.381 272.494 143.258 272.394 143.102 272.316C142.945 272.238 142.745 272.199 142.502 272.199C142.168 272.199 141.89 272.276 141.667 272.43C141.447 272.581 141.337 272.774 141.337 273.009C141.337 273.217 141.413 273.381 141.564 273.502C141.716 273.623 141.952 273.723 142.274 273.804L143.084 274.003C143.572 274.121 143.935 274.302 144.174 274.546C144.413 274.788 144.533 275.099 144.533 275.48C144.533 275.793 144.443 276.072 144.263 276.318C144.085 276.564 143.837 276.759 143.517 276.901C143.198 277.043 142.826 277.114 142.402 277.114C141.846 277.114 141.385 276.993 141.021 276.751C140.656 276.51 140.425 276.157 140.328 275.693L141.124 275.494C141.2 275.788 141.343 276.008 141.553 276.155C141.767 276.302 142.045 276.375 142.388 276.375C142.779 276.375 143.089 276.292 143.318 276.126C143.55 275.958 143.666 275.757 143.666 275.523C143.666 275.333 143.6 275.175 143.468 275.047C143.335 274.917 143.131 274.82 142.857 274.756L141.948 274.543C141.448 274.424 141.081 274.241 140.847 273.992C140.615 273.741 140.499 273.428 140.499 273.051C140.499 272.743 140.585 272.471 140.758 272.234C140.933 271.998 141.171 271.812 141.472 271.677C141.775 271.542 142.118 271.474 142.502 271.474C143.041 271.474 143.465 271.593 143.773 271.83C144.083 272.066 144.303 272.379 144.433 272.767ZM149.658 272.767L148.905 272.98C148.858 272.855 148.788 272.733 148.696 272.614C148.606 272.494 148.483 272.394 148.326 272.316C148.17 272.238 147.97 272.199 147.726 272.199C147.392 272.199 147.114 272.276 146.892 272.43C146.672 272.581 146.561 272.774 146.561 273.009C146.561 273.217 146.637 273.381 146.789 273.502C146.94 273.623 147.177 273.723 147.499 273.804L148.309 274.003C148.796 274.121 149.16 274.302 149.399 274.546C149.638 274.788 149.757 275.099 149.757 275.48C149.757 275.793 149.667 276.072 149.488 276.318C149.31 276.564 149.061 276.759 148.742 276.901C148.422 277.043 148.051 277.114 147.627 277.114C147.07 277.114 146.61 276.993 146.245 276.751C145.881 276.51 145.65 276.157 145.553 275.693L146.348 275.494C146.424 275.788 146.567 276.008 146.778 276.155C146.991 276.302 147.269 276.375 147.613 276.375C148.003 276.375 148.313 276.292 148.543 276.126C148.775 275.958 148.891 275.757 148.891 275.523C148.891 275.333 148.825 275.175 148.692 275.047C148.56 274.917 148.356 274.82 148.081 274.756L147.172 274.543C146.673 274.424 146.306 274.241 146.071 273.992C145.839 273.741 145.723 273.428 145.723 273.051C145.723 272.743 145.81 272.471 145.983 272.234C146.158 271.998 146.396 271.812 146.696 271.677C146.999 271.542 147.343 271.474 147.726 271.474C148.266 271.474 148.69 271.593 148.998 271.83C149.308 272.066 149.528 272.379 149.658 272.767ZM154.456 274.77V271.545H155.295V277H154.456V276.077H154.4C154.272 276.354 154.073 276.589 153.803 276.783C153.533 276.975 153.192 277.071 152.78 277.071C152.439 277.071 152.136 276.996 151.871 276.847C151.606 276.696 151.398 276.469 151.246 276.165C151.095 275.86 151.019 275.475 151.019 275.011V271.545H151.857V274.955C151.857 275.352 151.968 275.67 152.191 275.906C152.416 276.143 152.702 276.261 153.05 276.261C153.259 276.261 153.47 276.208 153.686 276.102C153.904 275.995 154.086 275.832 154.233 275.612C154.382 275.391 154.456 275.111 154.456 274.77ZM159.116 277.114C158.591 277.114 158.138 276.998 157.756 276.766C157.378 276.531 157.085 276.205 156.879 275.786C156.676 275.364 156.574 274.874 156.574 274.315C156.574 273.757 156.676 273.264 156.879 272.838C157.085 272.41 157.372 272.076 157.739 271.837C158.108 271.595 158.539 271.474 159.031 271.474C159.315 271.474 159.596 271.522 159.873 271.616C160.15 271.711 160.402 271.865 160.629 272.078C160.857 272.289 161.038 272.568 161.173 272.916C161.308 273.264 161.375 273.693 161.375 274.202V274.557H157.17V273.832H160.523C160.523 273.525 160.461 273.25 160.338 273.009C160.217 272.767 160.045 272.576 159.82 272.437C159.597 272.297 159.334 272.227 159.031 272.227C158.697 272.227 158.409 272.31 158.165 272.476C157.923 272.639 157.737 272.852 157.607 273.115C157.477 273.378 157.412 273.66 157.412 273.96V274.443C157.412 274.855 157.483 275.204 157.625 275.491C157.769 275.775 157.969 275.991 158.225 276.141C158.481 276.287 158.778 276.361 159.116 276.361C159.337 276.361 159.536 276.33 159.713 276.268C159.893 276.205 160.048 276.11 160.178 275.984C160.308 275.857 160.409 275.698 160.48 275.509L161.29 275.736C161.205 276.01 161.061 276.252 160.86 276.46C160.659 276.666 160.41 276.827 160.114 276.943C159.818 277.057 159.486 277.114 159.116 277.114ZM166.513 272.767L165.761 272.98C165.713 272.855 165.643 272.733 165.551 272.614C165.461 272.494 165.338 272.394 165.182 272.316C165.026 272.238 164.826 272.199 164.582 272.199C164.248 272.199 163.97 272.276 163.747 272.43C163.527 272.581 163.417 272.774 163.417 273.009C163.417 273.217 163.493 273.381 163.644 273.502C163.796 273.623 164.032 273.723 164.354 273.804L165.164 274.003C165.652 274.121 166.015 274.302 166.254 274.546C166.493 274.788 166.613 275.099 166.613 275.48C166.613 275.793 166.523 276.072 166.343 276.318C166.165 276.564 165.917 276.759 165.597 276.901C165.278 277.043 164.906 277.114 164.482 277.114C163.926 277.114 163.465 276.993 163.101 276.751C162.736 276.51 162.505 276.157 162.408 275.693L163.204 275.494C163.28 275.788 163.423 276.008 163.634 276.155C163.847 276.302 164.125 276.375 164.468 276.375C164.859 276.375 165.169 276.292 165.398 276.126C165.63 275.958 165.746 275.757 165.746 275.523C165.746 275.333 165.68 275.175 165.548 275.047C165.415 274.917 165.211 274.82 164.937 274.756L164.028 274.543C163.528 274.424 163.161 274.241 162.927 273.992C162.695 273.741 162.579 273.428 162.579 273.051C162.579 272.743 162.665 272.471 162.838 272.234C163.013 271.998 163.251 271.812 163.552 271.677C163.855 271.542 164.198 271.474 164.582 271.474C165.121 271.474 165.545 271.593 165.853 271.83C166.163 272.066 166.383 272.379 166.513 272.767ZM173.059 271.545V272.256H170.232V271.545H173.059ZM171.056 270.239H171.894V275.438C171.894 275.674 171.929 275.852 171.997 275.97C172.068 276.086 172.158 276.164 172.267 276.205C172.378 276.242 172.496 276.261 172.619 276.261C172.711 276.261 172.787 276.257 172.846 276.247C172.905 276.235 172.953 276.226 172.988 276.219L173.159 276.972C173.102 276.993 173.022 277.014 172.921 277.036C172.819 277.059 172.69 277.071 172.534 277.071C172.297 277.071 172.065 277.02 171.838 276.918C171.613 276.817 171.426 276.661 171.276 276.453C171.13 276.245 171.056 275.982 171.056 275.665V270.239ZM176.477 277.114C175.985 277.114 175.553 276.996 175.181 276.762C174.812 276.528 174.523 276.2 174.314 275.778C174.108 275.357 174.006 274.865 174.006 274.301C174.006 273.733 174.108 273.237 174.314 272.813C174.523 272.389 174.812 272.06 175.181 271.826C175.553 271.592 175.985 271.474 176.477 271.474C176.97 271.474 177.4 271.592 177.77 271.826C178.141 272.06 178.43 272.389 178.636 272.813C178.845 273.237 178.949 273.733 178.949 274.301C178.949 274.865 178.845 275.357 178.636 275.778C178.43 276.2 178.141 276.528 177.77 276.762C177.4 276.996 176.97 277.114 176.477 277.114ZM176.477 276.361C176.851 276.361 177.159 276.265 177.4 276.073C177.642 275.881 177.821 275.629 177.937 275.317C178.053 275.004 178.111 274.666 178.111 274.301C178.111 273.937 178.053 273.597 177.937 273.282C177.821 272.967 177.642 272.713 177.4 272.518C177.159 272.324 176.851 272.227 176.477 272.227C176.103 272.227 175.795 272.324 175.554 272.518C175.312 272.713 175.134 272.967 175.018 273.282C174.902 273.597 174.844 273.937 174.844 274.301C174.844 274.666 174.902 275.004 175.018 275.317C175.134 275.629 175.312 275.881 175.554 276.073C175.795 276.265 176.103 276.361 176.477 276.361ZM181.009 275.011L180.995 273.974H181.165L183.552 271.545H184.589L182.046 274.116H181.975L181.009 275.011ZM180.228 277V269.727H181.066V277H180.228ZM183.694 277L181.563 274.301L182.16 273.719L184.759 277H183.694ZM187.73 277.114C187.204 277.114 186.751 276.998 186.37 276.766C185.991 276.531 185.699 276.205 185.493 275.786C185.289 275.364 185.187 274.874 185.187 274.315C185.187 273.757 185.289 273.264 185.493 272.838C185.699 272.41 185.985 272.076 186.352 271.837C186.721 271.595 187.152 271.474 187.645 271.474C187.929 271.474 188.209 271.522 188.486 271.616C188.763 271.711 189.015 271.865 189.243 272.078C189.47 272.289 189.651 272.568 189.786 272.916C189.921 273.264 189.988 273.693 189.988 274.202V274.557H185.784V273.832H189.136C189.136 273.525 189.074 273.25 188.951 273.009C188.831 272.767 188.658 272.576 188.433 272.437C188.21 272.297 187.948 272.227 187.645 272.227C187.311 272.227 187.022 272.31 186.778 272.476C186.537 272.639 186.351 272.852 186.221 273.115C186.09 273.378 186.025 273.66 186.025 273.96V274.443C186.025 274.855 186.096 275.204 186.238 275.491C186.383 275.775 186.583 275.991 186.838 276.141C187.094 276.287 187.391 276.361 187.73 276.361C187.95 276.361 188.149 276.33 188.326 276.268C188.506 276.205 188.661 276.11 188.792 275.984C188.922 275.857 189.022 275.698 189.093 275.509L189.903 275.736C189.818 276.01 189.675 276.252 189.473 276.46C189.272 276.666 189.024 276.827 188.728 276.943C188.432 277.057 188.099 277.114 187.73 277.114ZM192.101 273.719V277H191.263V271.545H192.073V272.398H192.144C192.272 272.121 192.466 271.898 192.726 271.73C192.987 271.56 193.323 271.474 193.735 271.474C194.104 271.474 194.427 271.55 194.704 271.702C194.981 271.851 195.197 272.078 195.35 272.384C195.504 272.687 195.581 273.07 195.581 273.534V277H194.743V273.591C194.743 273.162 194.632 272.829 194.409 272.589C194.187 272.348 193.882 272.227 193.493 272.227C193.226 272.227 192.987 272.285 192.776 272.401C192.568 272.517 192.403 272.687 192.282 272.909C192.162 273.132 192.101 273.402 192.101 273.719ZM200.976 272.767L200.224 272.98C200.176 272.855 200.106 272.733 200.014 272.614C199.924 272.494 199.801 272.394 199.645 272.316C199.488 272.238 199.288 272.199 199.045 272.199C198.711 272.199 198.433 272.276 198.21 272.43C197.99 272.581 197.88 272.774 197.88 273.009C197.88 273.217 197.956 273.381 198.107 273.502C198.259 273.623 198.495 273.723 198.817 273.804L199.627 274.003C200.115 274.121 200.478 274.302 200.717 274.546C200.956 274.788 201.076 275.099 201.076 275.48C201.076 275.793 200.986 276.072 200.806 276.318C200.628 276.564 200.38 276.759 200.06 276.901C199.741 277.043 199.369 277.114 198.945 277.114C198.389 277.114 197.928 276.993 197.564 276.751C197.199 276.51 196.968 276.157 196.871 275.693L197.667 275.494C197.742 275.788 197.886 276.008 198.096 276.155C198.309 276.302 198.588 276.375 198.931 276.375C199.322 276.375 199.632 276.292 199.861 276.126C200.093 275.958 200.209 275.757 200.209 275.523C200.209 275.333 200.143 275.175 200.01 275.047C199.878 274.917 199.674 274.82 199.4 274.756L198.491 274.543C197.991 274.424 197.624 274.241 197.39 273.992C197.158 273.741 197.042 273.428 197.042 273.051C197.042 272.743 197.128 272.471 197.301 272.234C197.476 271.998 197.714 271.812 198.015 271.677C198.318 271.542 198.661 271.474 199.045 271.474C199.584 271.474 200.008 271.593 200.316 271.83C200.626 272.066 200.846 272.379 200.976 272.767Z" fill="#0F6E56"/>
<path d="M572 240H448C443.582 240 440 243.582 440 248V288C440 292.418 443.582 296 448 296H572C576.418 296 580 292.418 580 288V248C580 243.582 576.418 240 572 240Z" fill="#E1F5EE" stroke="#0F6E56" stroke-width="0.5"/>
<path d="M474.18 265V257.364H475.314V258.517H475.393C475.533 258.139 475.784 257.833 476.149 257.597C476.514 257.362 476.925 257.244 477.382 257.244C477.468 257.244 477.576 257.246 477.705 257.249C477.834 257.253 477.932 257.258 477.998 257.264V258.457C477.959 258.447 477.868 258.433 477.725 258.413C477.586 258.389 477.438 258.378 477.283 258.378C476.911 258.378 476.58 258.456 476.288 258.612C476 258.764 475.771 258.976 475.602 259.248C475.436 259.516 475.354 259.823 475.354 260.168V265H474.18ZM479.389 265V257.364H480.563V265H479.389ZM479.986 256.091C479.757 256.091 479.56 256.013 479.394 255.857C479.232 255.701 479.151 255.514 479.151 255.295C479.151 255.077 479.232 254.889 479.394 254.734C479.56 254.578 479.757 254.5 479.986 254.5C480.215 254.5 480.41 254.578 480.573 254.734C480.738 254.889 480.821 255.077 480.821 255.295C480.821 255.514 480.738 255.701 480.573 255.857C480.41 256.013 480.215 256.091 479.986 256.091ZM488.121 259.074L487.067 259.372C487 259.196 486.903 259.026 486.773 258.86C486.647 258.691 486.475 258.552 486.256 258.442C486.038 258.333 485.757 258.278 485.416 258.278C484.949 258.278 484.559 258.386 484.248 258.602C483.94 258.814 483.785 259.084 483.785 259.412C483.785 259.704 483.891 259.934 484.104 260.103C484.316 260.272 484.647 260.413 485.098 260.526L486.231 260.804C486.914 260.97 487.423 261.223 487.758 261.565C488.092 261.903 488.26 262.339 488.26 262.872C488.26 263.31 488.134 263.701 487.882 264.045C487.633 264.39 487.285 264.662 486.838 264.861C486.391 265.06 485.87 265.159 485.277 265.159C484.498 265.159 483.853 264.99 483.343 264.652C482.833 264.314 482.509 263.82 482.373 263.17L483.487 262.892C483.593 263.303 483.794 263.611 484.089 263.817C484.387 264.022 484.776 264.125 485.257 264.125C485.804 264.125 486.238 264.009 486.56 263.777C486.884 263.542 487.047 263.26 487.047 262.932C487.047 262.667 486.954 262.445 486.768 262.266C486.583 262.083 486.298 261.947 485.913 261.858L484.641 261.56C483.941 261.394 483.427 261.137 483.099 260.789C482.775 260.438 482.612 259.999 482.612 259.472C482.612 259.041 482.733 258.66 482.975 258.328C483.22 257.997 483.553 257.737 483.974 257.548C484.399 257.359 484.879 257.264 485.416 257.264C486.172 257.264 486.765 257.43 487.196 257.761C487.63 258.093 487.938 258.53 488.121 259.074ZM491.12 262.216L491.1 260.764H491.339L494.679 257.364H496.131L492.571 260.963H492.472L491.12 262.216ZM490.026 265V254.818H491.199V265H490.026ZM494.878 265L491.895 261.222L492.731 260.406L496.37 265H494.878ZM501.374 260.088V261.182H496.919V260.088H501.374ZM506.64 265.159C505.904 265.159 505.269 264.997 504.736 264.672C504.205 264.344 503.796 263.886 503.508 263.3C503.223 262.71 503.08 262.024 503.08 261.241C503.08 260.459 503.223 259.77 503.508 259.173C503.796 258.573 504.197 258.106 504.711 257.771C505.228 257.433 505.831 257.264 506.521 257.264C506.918 257.264 507.311 257.33 507.699 257.463C508.087 257.596 508.44 257.811 508.758 258.109C509.076 258.404 509.329 258.795 509.518 259.283C509.707 259.77 509.802 260.37 509.802 261.082V261.58H503.915V260.565H508.609C508.609 260.134 508.522 259.75 508.35 259.412C508.181 259.074 507.939 258.807 507.624 258.612C507.313 258.416 506.945 258.318 506.521 258.318C506.053 258.318 505.649 258.434 505.307 258.666C504.969 258.895 504.709 259.193 504.527 259.561C504.345 259.929 504.253 260.323 504.253 260.744V261.42C504.253 261.997 504.353 262.486 504.552 262.887C504.754 263.285 505.034 263.588 505.392 263.797C505.75 264.002 506.166 264.105 506.64 264.105C506.948 264.105 507.226 264.062 507.475 263.976C507.727 263.886 507.944 263.754 508.126 263.578C508.309 263.399 508.449 263.177 508.549 262.912L509.682 263.23C509.563 263.615 509.363 263.953 509.081 264.244C508.799 264.533 508.451 264.758 508.037 264.92C507.623 265.08 507.157 265.159 506.64 265.159ZM512.76 260.406V265H511.587V257.364H512.72V258.557H512.82C512.998 258.169 513.27 257.857 513.635 257.622C513.999 257.384 514.47 257.264 515.047 257.264C515.564 257.264 516.016 257.37 516.404 257.582C516.792 257.791 517.093 258.109 517.309 258.537C517.524 258.961 517.632 259.498 517.632 260.148V265H516.459V260.227C516.459 259.627 516.303 259.16 515.991 258.825C515.68 258.487 515.252 258.318 514.709 258.318C514.334 258.318 513.999 258.399 513.704 258.562C513.413 258.724 513.182 258.961 513.013 259.273C512.844 259.584 512.76 259.962 512.76 260.406ZM522.858 268.023C522.292 268.023 521.804 267.95 521.397 267.804C520.989 267.661 520.649 267.473 520.378 267.237C520.109 267.005 519.895 266.757 519.736 266.491L520.671 265.835C520.777 265.974 520.911 266.134 521.074 266.312C521.236 266.495 521.458 266.652 521.74 266.785C522.025 266.921 522.398 266.989 522.858 266.989C523.475 266.989 523.984 266.839 524.385 266.541C524.786 266.243 524.986 265.776 524.986 265.139V263.588H524.887C524.801 263.727 524.678 263.9 524.519 264.105C524.363 264.307 524.138 264.488 523.843 264.647C523.551 264.803 523.157 264.881 522.66 264.881C522.043 264.881 521.49 264.735 520.999 264.443C520.512 264.152 520.126 263.727 519.841 263.17C519.559 262.614 519.418 261.937 519.418 261.142C519.418 260.36 519.556 259.679 519.831 259.099C520.106 258.515 520.489 258.065 520.979 257.746C521.47 257.425 522.036 257.264 522.679 257.264C523.177 257.264 523.571 257.347 523.863 257.513C524.158 257.675 524.383 257.861 524.539 258.07C524.698 258.275 524.821 258.444 524.907 258.577H525.026V257.364H526.16V265.219C526.16 265.875 526.01 266.409 525.712 266.82C525.417 267.234 525.019 267.537 524.519 267.729C524.022 267.925 523.468 268.023 522.858 268.023ZM522.819 263.827C523.289 263.827 523.687 263.719 524.012 263.504C524.337 263.288 524.584 262.978 524.753 262.574C524.922 262.17 525.006 261.686 525.006 261.122C525.006 260.572 524.923 260.086 524.758 259.665C524.592 259.245 524.347 258.915 524.022 258.676C523.697 258.437 523.296 258.318 522.819 258.318C522.321 258.318 521.907 258.444 521.576 258.696C521.248 258.948 521.001 259.286 520.835 259.71C520.673 260.134 520.591 260.605 520.591 261.122C520.591 261.652 520.674 262.121 520.84 262.529C521.009 262.933 521.258 263.252 521.586 263.484C521.917 263.712 522.328 263.827 522.819 263.827ZM528.307 265V257.364H529.481V265H528.307ZM528.904 256.091C528.675 256.091 528.478 256.013 528.312 255.857C528.15 255.701 528.069 255.514 528.069 255.295C528.069 255.077 528.15 254.889 528.312 254.734C528.478 254.578 528.675 254.5 528.904 254.5C529.133 254.5 529.328 254.578 529.491 254.734C529.656 254.889 529.739 255.077 529.739 255.295C529.739 255.514 529.656 255.701 529.491 255.857C529.328 256.013 529.133 256.091 528.904 256.091ZM532.803 260.406V265H531.63V257.364H532.763V258.557H532.862C533.041 258.169 533.313 257.857 533.678 257.622C534.042 257.384 534.513 257.264 535.09 257.264C535.607 257.264 536.059 257.37 536.447 257.582C536.835 257.791 537.136 258.109 537.352 258.537C537.567 258.961 537.675 259.498 537.675 260.148V265H536.502V260.227C536.502 259.627 536.346 259.16 536.034 258.825C535.723 258.487 535.295 258.318 534.752 258.318C534.377 258.318 534.042 258.399 533.747 258.562C533.456 258.724 533.225 258.961 533.056 259.273C532.887 259.584 532.803 259.962 532.803 260.406ZM543.021 265.159C542.285 265.159 541.65 264.997 541.117 264.672C540.586 264.344 540.177 263.886 539.889 263.3C539.604 262.71 539.461 262.024 539.461 261.241C539.461 260.459 539.604 259.77 539.889 259.173C540.177 258.573 540.578 258.106 541.092 257.771C541.609 257.433 542.212 257.264 542.901 257.264C543.299 257.264 543.692 257.33 544.08 257.463C544.467 257.596 544.82 257.811 545.139 258.109C545.457 258.404 545.71 258.795 545.899 259.283C546.088 259.77 546.183 260.37 546.183 261.082V261.58H540.296V260.565H544.989C544.989 260.134 544.903 259.75 544.731 259.412C544.562 259.074 544.32 258.807 544.005 258.612C543.694 258.416 543.326 258.318 542.901 258.318C542.434 258.318 542.03 258.434 541.688 258.666C541.35 258.895 541.09 259.193 540.908 259.561C540.725 259.929 540.634 260.323 540.634 260.744V261.42C540.634 261.997 540.734 262.486 540.933 262.887C541.135 263.285 541.415 263.588 541.773 263.797C542.131 264.002 542.547 264.105 543.021 264.105C543.329 264.105 543.607 264.062 543.856 263.976C544.108 263.886 544.325 263.754 544.507 263.578C544.689 263.399 544.83 263.177 544.93 262.912L546.063 263.23C545.944 263.615 545.743 263.953 545.462 264.244C545.18 264.533 544.832 264.758 544.418 264.92C544.003 265.08 543.538 265.159 543.021 265.159Z" fill="#085041"/>
<path d="M477.029 276.767L476.276 276.98C476.229 276.855 476.159 276.733 476.067 276.614C475.977 276.494 475.854 276.394 475.697 276.316C475.541 276.238 475.341 276.199 475.097 276.199C474.763 276.199 474.485 276.276 474.263 276.43C474.042 276.581 473.932 276.774 473.932 277.009C473.932 277.217 474.008 277.381 474.16 277.502C474.311 277.623 474.548 277.723 474.87 277.804L475.68 278.003C476.167 278.121 476.531 278.302 476.77 278.546C477.009 278.788 477.128 279.099 477.128 279.48C477.128 279.793 477.038 280.072 476.859 280.318C476.681 280.564 476.432 280.759 476.113 280.901C475.793 281.043 475.421 281.114 474.998 281.114C474.441 281.114 473.981 280.993 473.616 280.751C473.252 280.51 473.021 280.157 472.924 279.693L473.719 279.494C473.795 279.788 473.938 280.008 474.149 280.155C474.362 280.302 474.64 280.375 474.984 280.375C475.374 280.375 475.684 280.292 475.914 280.126C476.146 279.958 476.262 279.757 476.262 279.523C476.262 279.333 476.196 279.175 476.063 279.047C475.93 278.917 475.727 278.82 475.452 278.756L474.543 278.543C474.044 278.424 473.677 278.241 473.442 277.992C473.21 277.741 473.094 277.428 473.094 277.051C473.094 276.743 473.181 276.471 473.354 276.234C473.529 275.998 473.767 275.812 474.067 275.677C474.37 275.542 474.714 275.474 475.097 275.474C475.637 275.474 476.061 275.593 476.368 275.83C476.679 276.066 476.899 276.379 477.029 276.767ZM480.601 281.114C480.089 281.114 479.649 280.993 479.28 280.751C478.911 280.51 478.626 280.177 478.428 279.754C478.229 279.33 478.129 278.846 478.129 278.301C478.129 277.747 478.231 277.258 478.435 276.835C478.641 276.408 478.927 276.076 479.294 275.837C479.663 275.595 480.094 275.474 480.587 275.474C480.97 275.474 481.316 275.545 481.624 275.688C481.931 275.83 482.183 276.028 482.38 276.284C482.576 276.54 482.698 276.838 482.746 277.179H481.908C481.844 276.93 481.702 276.71 481.482 276.518C481.264 276.324 480.97 276.227 480.601 276.227C480.274 276.227 479.988 276.312 479.741 276.483C479.498 276.651 479.307 276.889 479.17 277.197C479.035 277.502 478.967 277.861 478.967 278.273C478.967 278.694 479.034 279.061 479.166 279.374C479.301 279.686 479.491 279.929 479.734 280.102C479.981 280.274 480.269 280.361 480.601 280.361C480.819 280.361 481.016 280.323 481.194 280.247C481.371 280.171 481.522 280.062 481.645 279.92C481.768 279.778 481.856 279.608 481.908 279.409H482.746C482.698 279.731 482.581 280.021 482.394 280.279C482.21 280.535 481.964 280.738 481.659 280.89C481.356 281.039 481.003 281.114 480.601 281.114ZM486.182 281.114C485.689 281.114 485.257 280.996 484.886 280.762C484.516 280.528 484.227 280.2 484.019 279.778C483.813 279.357 483.71 278.865 483.71 278.301C483.71 277.733 483.813 277.237 484.019 276.813C484.227 276.389 484.516 276.06 484.886 275.826C485.257 275.592 485.689 275.474 486.182 275.474C486.674 275.474 487.105 275.592 487.474 275.826C487.846 276.06 488.135 276.389 488.341 276.813C488.549 277.237 488.653 277.733 488.653 278.301C488.653 278.865 488.549 279.357 488.341 279.778C488.135 280.2 487.846 280.528 487.474 280.762C487.105 280.996 486.674 281.114 486.182 281.114ZM486.182 280.361C486.556 280.361 486.864 280.265 487.105 280.073C487.347 279.881 487.525 279.629 487.641 279.317C487.757 279.004 487.815 278.666 487.815 278.301C487.815 277.937 487.757 277.597 487.641 277.282C487.525 276.967 487.347 276.713 487.105 276.518C486.864 276.324 486.556 276.227 486.182 276.227C485.808 276.227 485.5 276.324 485.258 276.518C485.017 276.713 484.838 276.967 484.722 277.282C484.606 277.597 484.548 277.937 484.548 278.301C484.548 278.666 484.606 279.004 484.722 279.317C484.838 279.629 485.017 279.881 485.258 280.073C485.5 280.265 485.808 280.361 486.182 280.361ZM489.928 281V275.545H490.737V276.369H490.794C490.894 276.099 491.074 275.88 491.334 275.712C491.594 275.544 491.888 275.46 492.215 275.46C492.276 275.46 492.353 275.461 492.445 275.464C492.538 275.466 492.608 275.47 492.655 275.474V276.327C492.627 276.32 492.561 276.309 492.46 276.295C492.36 276.278 492.255 276.27 492.144 276.27C491.878 276.27 491.642 276.326 491.433 276.437C491.227 276.546 491.064 276.697 490.943 276.891C490.825 277.083 490.766 277.302 490.766 277.548V281H489.928ZM495.764 281.114C495.239 281.114 494.785 280.998 494.404 280.766C494.025 280.531 493.733 280.205 493.527 279.786C493.323 279.364 493.222 278.874 493.222 278.315C493.222 277.757 493.323 277.264 493.527 276.838C493.733 276.41 494.019 276.076 494.386 275.837C494.756 275.595 495.187 275.474 495.679 275.474C495.963 275.474 496.244 275.522 496.521 275.616C496.798 275.711 497.05 275.865 497.277 276.078C497.504 276.289 497.685 276.568 497.82 276.916C497.955 277.264 498.023 277.693 498.023 278.202V278.557H493.818V277.832H497.171C497.171 277.525 497.109 277.25 496.986 277.009C496.865 276.767 496.692 276.576 496.467 276.437C496.245 276.297 495.982 276.227 495.679 276.227C495.345 276.227 495.056 276.31 494.813 276.476C494.571 276.639 494.385 276.852 494.255 277.115C494.125 277.378 494.06 277.66 494.06 277.96V278.443C494.06 278.855 494.131 279.204 494.273 279.491C494.417 279.775 494.617 279.991 494.873 280.141C495.129 280.287 495.426 280.361 495.764 280.361C495.984 280.361 496.183 280.33 496.361 280.268C496.541 280.205 496.696 280.11 496.826 279.984C496.956 279.857 497.057 279.698 497.128 279.509L497.938 279.736C497.852 280.01 497.709 280.252 497.508 280.46C497.307 280.666 497.058 280.827 496.762 280.943C496.466 281.057 496.134 281.114 495.764 281.114ZM503.156 276.767L502.403 276.98C502.356 276.855 502.286 276.733 502.194 276.614C502.104 276.494 501.981 276.394 501.825 276.316C501.668 276.238 501.468 276.199 501.224 276.199C500.891 276.199 500.613 276.276 500.39 276.43C500.17 276.581 500.06 276.774 500.06 277.009C500.06 277.217 500.135 277.381 500.287 277.502C500.439 277.623 500.675 277.723 500.997 277.804L501.807 278.003C502.295 278.121 502.658 278.302 502.897 278.546C503.136 278.788 503.256 279.099 503.256 279.48C503.256 279.793 503.166 280.072 502.986 280.318C502.808 280.564 502.56 280.759 502.24 280.901C501.921 281.043 501.549 281.114 501.125 281.114C500.569 281.114 500.108 280.993 499.744 280.751C499.379 280.51 499.148 280.157 499.051 279.693L499.847 279.494C499.922 279.788 500.066 280.008 500.276 280.155C500.489 280.302 500.768 280.375 501.111 280.375C501.501 280.375 501.812 280.292 502.041 280.126C502.273 279.958 502.389 279.757 502.389 279.523C502.389 279.333 502.323 279.175 502.19 279.047C502.058 278.917 501.854 278.82 501.58 278.756L500.671 278.543C500.171 278.424 499.804 278.241 499.57 277.992C499.338 277.741 499.222 277.428 499.222 277.051C499.222 276.743 499.308 276.471 499.481 276.234C499.656 275.998 499.894 275.812 500.195 275.677C500.498 275.542 500.841 275.474 501.224 275.474C501.764 275.474 502.188 275.593 502.496 275.83C502.806 276.066 503.026 276.379 503.156 276.767ZM507.32 281V275.545H508.129V276.369H508.186C508.286 276.099 508.466 275.88 508.726 275.712C508.986 275.544 509.28 275.46 509.607 275.46C509.668 275.46 509.745 275.461 509.838 275.464C509.93 275.466 510 275.47 510.047 275.474V276.327C510.019 276.32 509.954 276.309 509.852 276.295C509.752 276.278 509.647 276.27 509.536 276.27C509.271 276.27 509.034 276.326 508.825 276.437C508.619 276.546 508.456 276.697 508.335 276.891C508.217 277.083 508.158 277.302 508.158 277.548V281H507.32ZM513.156 281.114C512.631 281.114 512.177 280.998 511.796 280.766C511.418 280.531 511.125 280.205 510.919 279.786C510.716 279.364 510.614 278.874 510.614 278.315C510.614 277.757 510.716 277.264 510.919 276.838C511.125 276.41 511.412 276.076 511.779 275.837C512.148 275.595 512.579 275.474 513.071 275.474C513.355 275.474 513.636 275.522 513.913 275.616C514.19 275.711 514.442 275.865 514.669 276.078C514.896 276.289 515.078 276.568 515.213 276.916C515.347 277.264 515.415 277.693 515.415 278.202V278.557H511.21V277.832H514.563C514.563 277.525 514.501 277.25 514.378 277.009C514.257 276.767 514.084 276.576 513.86 276.437C513.637 276.297 513.374 276.227 513.071 276.227C512.737 276.227 512.449 276.31 512.205 276.476C511.963 276.639 511.777 276.852 511.647 277.115C511.517 277.378 511.452 277.66 511.452 277.96V278.443C511.452 278.855 511.523 279.204 511.665 279.491C511.809 279.775 512.009 279.991 512.265 280.141C512.521 280.287 512.818 280.361 513.156 280.361C513.377 280.361 513.575 280.33 513.753 280.268C513.933 280.205 514.088 280.11 514.218 279.984C514.348 279.857 514.449 279.698 514.52 279.509L515.33 279.736C515.244 280.01 515.101 280.252 514.9 280.46C514.699 280.666 514.45 280.827 514.154 280.943C513.858 281.057 513.526 281.114 513.156 281.114ZM520.406 283.045V280.162H520.335C520.274 280.261 520.186 280.387 520.073 280.538C519.959 280.687 519.797 280.821 519.586 280.94C519.375 281.056 519.095 281.114 518.744 281.114C518.29 281.114 517.889 280.999 517.541 280.769C517.193 280.537 516.92 280.21 516.724 279.789C516.527 279.365 516.429 278.865 516.429 278.287C516.429 277.714 516.527 277.217 516.724 276.795C516.92 276.374 517.194 276.049 517.544 275.819C517.895 275.589 518.299 275.474 518.759 275.474C519.114 275.474 519.394 275.534 519.6 275.652C519.809 275.768 519.967 275.901 520.076 276.05C520.187 276.196 520.274 276.317 520.335 276.412H520.435V275.545H521.244V283.045H520.406ZM518.858 280.361C519.194 280.361 519.478 280.273 519.71 280.098C519.942 279.92 520.119 279.675 520.239 279.363C520.36 279.048 520.421 278.685 520.421 278.273C520.421 277.866 520.361 277.509 520.243 277.204C520.125 276.896 519.949 276.657 519.717 276.487C519.485 276.314 519.199 276.227 518.858 276.227C518.503 276.227 518.207 276.318 517.97 276.501C517.736 276.681 517.56 276.926 517.441 277.236C517.325 277.544 517.267 277.889 517.267 278.273C517.267 278.661 517.326 279.014 517.445 279.331C517.565 279.646 517.743 279.897 517.977 280.084C518.214 280.268 518.508 280.361 518.858 280.361ZM526.211 278.77V275.545H527.049V281H526.211V280.077H526.154C526.026 280.354 525.828 280.589 525.558 280.783C525.288 280.975 524.947 281.071 524.535 281.071C524.194 281.071 523.891 280.996 523.626 280.847C523.361 280.696 523.152 280.469 523.001 280.165C522.849 279.86 522.774 279.475 522.774 279.011V275.545H523.612V278.955C523.612 279.352 523.723 279.67 523.945 279.906C524.17 280.143 524.457 280.261 524.805 280.261C525.013 280.261 525.225 280.208 525.44 280.102C525.658 279.995 525.841 279.832 525.987 279.612C526.136 279.391 526.211 279.111 526.211 278.77ZM530.866 281.114C530.34 281.114 529.887 280.998 529.506 280.766C529.127 280.531 528.835 280.205 528.629 279.786C528.425 279.364 528.323 278.874 528.323 278.315C528.323 277.757 528.425 277.264 528.629 276.838C528.835 276.41 529.121 276.076 529.488 275.837C529.857 275.595 530.288 275.474 530.781 275.474C531.065 275.474 531.345 275.522 531.622 275.616C531.899 275.711 532.152 275.865 532.379 276.078C532.606 276.289 532.787 276.568 532.922 276.916C533.057 277.264 533.125 277.693 533.125 278.202V278.557H528.92V277.832H532.272C532.272 277.525 532.211 277.25 532.088 277.009C531.967 276.767 531.794 276.576 531.569 276.437C531.347 276.297 531.084 276.227 530.781 276.227C530.447 276.227 530.158 276.31 529.914 276.476C529.673 276.639 529.487 276.852 529.357 277.115C529.227 277.378 529.161 277.66 529.161 277.96V278.443C529.161 278.855 529.232 279.204 529.375 279.491C529.519 279.775 529.719 279.991 529.975 280.141C530.23 280.287 530.527 280.361 530.866 280.361C531.086 280.361 531.285 280.33 531.463 280.268C531.643 280.205 531.798 280.11 531.928 279.984C532.058 279.857 532.159 279.698 532.23 279.509L533.039 279.736C532.954 280.01 532.811 280.252 532.61 280.46C532.408 280.666 532.16 280.827 531.864 280.943C531.568 281.057 531.235 281.114 530.866 281.114ZM538.258 276.767L537.505 276.98C537.458 276.855 537.388 276.733 537.296 276.614C537.206 276.494 537.083 276.394 536.926 276.316C536.77 276.238 536.57 276.199 536.326 276.199C535.992 276.199 535.714 276.276 535.492 276.43C535.272 276.581 535.161 276.774 535.161 277.009C535.161 277.217 535.237 277.381 535.389 277.502C535.54 277.623 535.777 277.723 536.099 277.804L536.909 278.003C537.396 278.121 537.76 278.302 537.999 278.546C538.238 278.788 538.357 279.099 538.357 279.48C538.357 279.793 538.267 280.072 538.088 280.318C537.91 280.564 537.661 280.759 537.342 280.901C537.022 281.043 536.651 281.114 536.227 281.114C535.67 281.114 535.21 280.993 534.845 280.751C534.481 280.51 534.25 280.157 534.153 279.693L534.948 279.494C535.024 279.788 535.167 280.008 535.378 280.155C535.591 280.302 535.869 280.375 536.213 280.375C536.603 280.375 536.913 280.292 537.143 280.126C537.375 279.958 537.491 279.757 537.491 279.523C537.491 279.333 537.425 279.175 537.292 279.047C537.16 278.917 536.956 278.82 536.681 278.756L535.772 278.543C535.273 278.424 534.906 278.241 534.671 277.992C534.439 277.741 534.323 277.428 534.323 277.051C534.323 276.743 534.41 276.471 534.583 276.234C534.758 275.998 534.996 275.812 535.296 275.677C535.599 275.542 535.943 275.474 536.326 275.474C536.866 275.474 537.29 275.593 537.598 275.83C537.908 276.066 538.128 276.379 538.258 276.767ZM541.986 275.545V276.256H539.159V275.545H541.986ZM539.983 274.239H540.821V279.438C540.821 279.674 540.856 279.852 540.924 279.97C540.995 280.086 541.085 280.164 541.194 280.205C541.306 280.242 541.423 280.261 541.546 280.261C541.638 280.261 541.714 280.257 541.773 280.247C541.832 280.235 541.88 280.226 541.915 280.219L542.086 280.972C542.029 280.993 541.949 281.014 541.848 281.036C541.746 281.059 541.617 281.071 541.461 281.071C541.224 281.071 540.992 281.02 540.765 280.918C540.54 280.817 540.353 280.661 540.203 280.453C540.057 280.245 539.983 279.982 539.983 279.665V274.239ZM547.008 276.767L546.255 276.98C546.208 276.855 546.138 276.733 546.045 276.614C545.955 276.494 545.832 276.394 545.676 276.316C545.52 276.238 545.32 276.199 545.076 276.199C544.742 276.199 544.464 276.276 544.241 276.43C544.021 276.581 543.911 276.774 543.911 277.009C543.911 277.217 543.987 277.381 544.138 277.502C544.29 277.623 544.527 277.723 544.849 277.804L545.658 278.003C546.146 278.121 546.509 278.302 546.749 278.546C546.988 278.788 547.107 279.099 547.107 279.48C547.107 279.793 547.017 280.072 546.837 280.318C546.66 280.564 546.411 280.759 546.092 280.901C545.772 281.043 545.4 281.114 544.977 281.114C544.42 281.114 543.96 280.993 543.595 280.751C543.231 280.51 543 280.157 542.903 279.693L543.698 279.494C543.774 279.788 543.917 280.008 544.128 280.155C544.341 280.302 544.619 280.375 544.962 280.375C545.353 280.375 545.663 280.292 545.893 280.126C546.125 279.958 546.241 279.757 546.241 279.523C546.241 279.333 546.174 279.175 546.042 279.047C545.909 278.917 545.706 278.82 545.431 278.756L544.522 278.543C544.022 278.424 543.656 278.241 543.421 277.992C543.189 277.741 543.073 277.428 543.073 277.051C543.073 276.743 543.16 276.471 543.332 276.234C543.508 275.998 543.745 275.812 544.046 275.677C544.349 275.542 544.692 275.474 545.076 275.474C545.616 275.474 546.04 275.593 546.347 275.83C546.657 276.066 546.878 276.379 547.008 276.767Z" fill="#0F6E56"/>
<path d="M402 340H278C273.582 340 270 343.582 270 348V388C270 392.418 273.582 396 278 396H402C406.418 396 410 392.418 410 388V348C410 343.582 406.418 340 402 340Z" fill="#E6F1FB" stroke="#185FA5" stroke-width="0.5"/>
<path d="M314.487 367.864V357.364H315.62V358.577H315.76C315.846 358.444 315.965 358.275 316.118 358.07C316.273 357.861 316.495 357.675 316.784 357.513C317.075 357.347 317.47 357.264 317.967 357.264C318.61 357.264 319.177 357.425 319.667 357.746C320.158 358.068 320.541 358.524 320.816 359.114C321.091 359.704 321.228 360.4 321.228 361.202C321.228 362.01 321.091 362.711 320.816 363.305C320.541 363.895 320.16 364.352 319.672 364.677C319.185 364.998 318.623 365.159 317.987 365.159C317.496 365.159 317.104 365.078 316.809 364.915C316.514 364.75 316.287 364.562 316.128 364.354C315.968 364.142 315.846 363.966 315.76 363.827H315.66V367.864H314.487ZM315.64 361.182C315.64 361.759 315.725 362.267 315.894 362.708C316.063 363.146 316.31 363.489 316.635 363.737C316.959 363.982 317.357 364.105 317.828 364.105C318.318 364.105 318.728 363.976 319.056 363.717C319.387 363.455 319.636 363.104 319.802 362.663C319.971 362.219 320.055 361.725 320.055 361.182C320.055 360.645 319.972 360.161 319.807 359.73C319.644 359.296 319.397 358.953 319.066 358.701C318.738 358.446 318.325 358.318 317.828 358.318C317.351 358.318 316.95 358.439 316.625 358.681C316.3 358.92 316.055 359.254 315.889 359.685C315.723 360.113 315.64 360.612 315.64 361.182ZM326.12 365.159C325.431 365.159 324.826 364.995 324.306 364.667C323.789 364.339 323.384 363.88 323.093 363.29C322.804 362.7 322.66 362.01 322.66 361.222C322.66 360.426 322.804 359.732 323.093 359.138C323.384 358.545 323.789 358.085 324.306 357.756C324.826 357.428 325.431 357.264 326.12 357.264C326.81 357.264 327.413 357.428 327.93 357.756C328.45 358.085 328.855 358.545 329.143 359.138C329.435 359.732 329.581 360.426 329.581 361.222C329.581 362.01 329.435 362.7 329.143 363.29C328.855 363.88 328.45 364.339 327.93 364.667C327.413 364.995 326.81 365.159 326.12 365.159ZM326.12 364.105C326.644 364.105 327.075 363.971 327.413 363.702C327.751 363.434 328.001 363.081 328.164 362.643C328.326 362.206 328.407 361.732 328.407 361.222C328.407 360.711 328.326 360.236 328.164 359.795C328.001 359.354 327.751 358.998 327.413 358.726C327.075 358.454 326.644 358.318 326.12 358.318C325.597 358.318 325.166 358.454 324.828 358.726C324.49 358.998 324.24 359.354 324.077 359.795C323.915 360.236 323.834 360.711 323.834 361.222C323.834 361.732 323.915 362.206 324.077 362.643C324.24 363.081 324.49 363.434 324.828 363.702C325.166 363.971 325.597 364.105 326.12 364.105ZM336.781 359.074L335.727 359.372C335.661 359.196 335.563 359.026 335.434 358.86C335.308 358.691 335.135 358.552 334.916 358.442C334.698 358.333 334.418 358.278 334.076 358.278C333.609 358.278 333.219 358.386 332.908 358.602C332.6 358.814 332.446 359.084 332.446 359.412C332.446 359.704 332.552 359.934 332.764 360.103C332.976 360.272 333.307 360.413 333.758 360.526L334.892 360.804C335.574 360.97 336.083 361.223 336.418 361.565C336.753 361.903 336.92 362.339 336.92 362.872C336.92 363.31 336.794 363.701 336.542 364.045C336.294 364.39 335.946 364.662 335.498 364.861C335.051 365.06 334.53 365.159 333.937 365.159C333.158 365.159 332.514 364.99 332.003 364.652C331.493 364.314 331.17 363.82 331.034 363.17L332.147 362.892C332.253 363.303 332.454 363.611 332.749 363.817C333.047 364.022 333.437 364.125 333.917 364.125C334.464 364.125 334.898 364.009 335.22 363.777C335.545 363.542 335.707 363.26 335.707 362.932C335.707 362.667 335.614 362.445 335.429 362.266C335.243 362.083 334.958 361.947 334.573 361.858L333.301 361.56C332.601 361.394 332.088 361.137 331.759 360.789C331.435 360.438 331.272 359.999 331.272 359.472C331.272 359.041 331.393 358.66 331.635 358.328C331.88 357.997 332.214 357.737 332.634 357.548C333.059 357.359 333.539 357.264 334.076 357.264C334.832 357.264 335.425 357.43 335.856 357.761C336.29 358.093 336.599 358.53 336.781 359.074ZM342.007 357.364V358.358H338.05V357.364H342.007ZM339.203 355.534H340.377V362.812C340.377 363.144 340.425 363.393 340.521 363.558C340.62 363.721 340.746 363.83 340.899 363.886C341.054 363.939 341.218 363.966 341.391 363.966C341.52 363.966 341.626 363.959 341.709 363.946C341.792 363.929 341.858 363.916 341.908 363.906L342.146 364.96C342.067 364.99 341.956 365.02 341.813 365.05C341.671 365.083 341.49 365.099 341.271 365.099C340.94 365.099 340.615 365.028 340.297 364.886C339.982 364.743 339.72 364.526 339.511 364.234C339.306 363.943 339.203 363.575 339.203 363.131V355.534ZM346.772 368.023C346.206 368.023 345.718 367.95 345.311 367.804C344.903 367.661 344.563 367.473 344.292 367.237C344.023 367.005 343.809 366.757 343.65 366.491L344.585 365.835C344.691 365.974 344.825 366.134 344.988 366.312C345.15 366.495 345.372 366.652 345.654 366.785C345.939 366.921 346.312 366.989 346.772 366.989C347.389 366.989 347.898 366.839 348.299 366.541C348.7 366.243 348.9 365.776 348.9 365.139V363.588H348.801C348.715 363.727 348.592 363.9 348.433 364.105C348.277 364.307 348.052 364.488 347.757 364.647C347.465 364.803 347.071 364.881 346.574 364.881C345.957 364.881 345.404 364.735 344.913 364.443C344.426 364.152 344.04 363.727 343.755 363.17C343.473 362.614 343.332 361.937 343.332 361.142C343.332 360.36 343.47 359.679 343.745 359.099C344.02 358.515 344.403 358.065 344.893 357.746C345.384 357.425 345.95 357.264 346.593 357.264C347.091 357.264 347.485 357.347 347.777 357.513C348.072 357.675 348.297 357.861 348.453 358.07C348.612 358.275 348.735 358.444 348.821 358.577H348.94V357.364H350.074V365.219C350.074 365.875 349.924 366.409 349.626 366.82C349.331 367.234 348.933 367.537 348.433 367.729C347.936 367.925 347.382 368.023 346.772 368.023ZM346.733 363.827C347.203 363.827 347.601 363.719 347.926 363.504C348.251 363.288 348.498 362.978 348.667 362.574C348.836 362.17 348.92 361.686 348.92 361.122C348.92 360.572 348.837 360.086 348.672 359.665C348.506 359.245 348.261 358.915 347.936 358.676C347.611 358.437 347.21 358.318 346.733 358.318C346.236 358.318 345.821 358.444 345.49 358.696C345.162 358.948 344.915 359.286 344.749 359.71C344.587 360.134 344.505 360.605 344.505 361.122C344.505 361.652 344.588 362.121 344.754 362.529C344.923 362.933 345.172 363.252 345.5 363.484C345.831 363.712 346.242 363.827 346.733 363.827ZM352.221 365V357.364H353.355V358.517H353.434C353.574 358.139 353.825 357.833 354.19 357.597C354.555 357.362 354.966 357.244 355.423 357.244C355.509 357.244 355.617 357.246 355.746 357.249C355.875 357.253 355.973 357.258 356.04 357.264V358.457C356 358.447 355.909 358.433 355.766 358.413C355.627 358.389 355.479 358.378 355.324 358.378C354.952 358.378 354.621 358.456 354.329 358.612C354.041 358.764 353.812 358.976 353.643 359.248C353.477 359.516 353.395 359.823 353.395 360.168V365H352.221ZM360.4 365.159C359.664 365.159 359.029 364.997 358.495 364.672C357.965 364.344 357.556 363.886 357.267 363.3C356.982 362.71 356.84 362.024 356.84 361.241C356.84 360.459 356.982 359.77 357.267 359.173C357.556 358.573 357.957 358.106 358.471 357.771C358.988 357.433 359.591 357.264 360.28 357.264C360.678 357.264 361.071 357.33 361.459 357.463C361.846 357.596 362.199 357.811 362.517 358.109C362.836 358.404 363.089 358.795 363.278 359.283C363.467 359.77 363.562 360.37 363.562 361.082V361.58H357.675V360.565H362.368C362.368 360.134 362.282 359.75 362.11 359.412C361.941 359.074 361.699 358.807 361.384 358.612C361.072 358.416 360.705 358.318 360.28 358.318C359.813 358.318 359.409 358.434 359.067 358.666C358.729 358.895 358.469 359.193 358.287 359.561C358.104 359.929 358.013 360.323 358.013 360.744V361.42C358.013 361.997 358.113 362.486 358.312 362.887C358.514 363.285 358.794 363.588 359.152 363.797C359.51 364.002 359.926 364.105 360.4 364.105C360.708 364.105 360.986 364.062 361.235 363.976C361.487 363.886 361.704 363.754 361.886 363.578C362.068 363.399 362.209 363.177 362.309 362.912L363.442 363.23C363.323 363.615 363.122 363.953 362.841 364.244C362.559 364.533 362.211 364.758 361.797 364.92C361.382 365.08 360.917 365.159 360.4 365.159ZM370.755 359.074L369.701 359.372C369.635 359.196 369.537 359.026 369.408 358.86C369.282 358.691 369.11 358.552 368.891 358.442C368.672 358.333 368.392 358.278 368.051 358.278C367.584 358.278 367.194 358.386 366.883 358.602C366.574 358.814 366.42 359.084 366.42 359.412C366.42 359.704 366.526 359.934 366.738 360.103C366.95 360.272 367.282 360.413 367.733 360.526L368.866 360.804C369.549 360.97 370.058 361.223 370.392 361.565C370.727 361.903 370.895 362.339 370.895 362.872C370.895 363.31 370.769 363.701 370.517 364.045C370.268 364.39 369.92 364.662 369.473 364.861C369.025 365.06 368.505 365.159 367.912 365.159C367.133 365.159 366.488 364.99 365.978 364.652C365.467 364.314 365.144 363.82 365.008 363.17L366.122 362.892C366.228 363.303 366.428 363.611 366.723 363.817C367.022 364.022 367.411 364.125 367.892 364.125C368.439 364.125 368.873 364.009 369.194 363.777C369.519 363.542 369.682 363.26 369.682 362.932C369.682 362.667 369.589 362.445 369.403 362.266C369.218 362.083 368.932 361.947 368.548 361.858L367.275 361.56C366.576 361.394 366.062 361.137 365.734 360.789C365.409 360.438 365.247 359.999 365.247 359.472C365.247 359.041 365.368 358.66 365.61 358.328C365.855 357.997 366.188 357.737 366.609 357.548C367.033 357.359 367.514 357.264 368.051 357.264C368.807 357.264 369.4 357.43 369.831 357.761C370.265 358.093 370.573 358.53 370.755 359.074Z" fill="#0C447C"/>
<path d="M319.294 378.114C318.839 378.114 318.438 377.999 318.09 377.769C317.742 377.537 317.469 377.21 317.273 376.789C317.076 376.365 316.978 375.865 316.978 375.287C316.978 374.714 317.076 374.217 317.273 373.795C317.469 373.374 317.743 373.049 318.093 372.819C318.444 372.589 318.848 372.474 319.308 372.474C319.663 372.474 319.943 372.534 320.149 372.652C320.358 372.768 320.516 372.901 320.625 373.05C320.736 373.196 320.823 373.317 320.884 373.412H320.955V370.727H321.794V378H320.984V377.162H320.884C320.823 377.261 320.735 377.387 320.622 377.538C320.508 377.687 320.346 377.821 320.135 377.94C319.924 378.056 319.644 378.114 319.294 378.114ZM319.407 377.361C319.743 377.361 320.027 377.273 320.259 377.098C320.491 376.92 320.668 376.675 320.789 376.363C320.909 376.048 320.97 375.685 320.97 375.273C320.97 374.866 320.91 374.509 320.792 374.204C320.674 373.896 320.499 373.657 320.267 373.487C320.035 373.314 319.748 373.227 319.407 373.227C319.052 373.227 318.756 373.318 318.519 373.501C318.285 373.681 318.109 373.926 317.99 374.236C317.874 374.544 317.816 374.889 317.816 375.273C317.816 375.661 317.875 376.014 317.994 376.331C318.115 376.646 318.292 376.897 318.526 377.084C318.763 377.268 319.057 377.361 319.407 377.361ZM325.05 378.128C324.704 378.128 324.391 378.063 324.109 377.933C323.827 377.8 323.603 377.609 323.438 377.361C323.272 377.11 323.189 376.807 323.189 376.452C323.189 376.139 323.251 375.886 323.374 375.692C323.497 375.495 323.661 375.341 323.867 375.23C324.073 375.119 324.301 375.036 324.549 374.982C324.8 374.925 325.052 374.88 325.306 374.847C325.637 374.804 325.906 374.772 326.112 374.751C326.32 374.727 326.472 374.688 326.566 374.634C326.663 374.579 326.712 374.484 326.712 374.349V374.321C326.712 373.971 326.616 373.698 326.424 373.504C326.235 373.31 325.947 373.213 325.561 373.213C325.161 373.213 324.847 373.301 324.62 373.476C324.393 373.651 324.233 373.838 324.141 374.037L323.345 373.753C323.487 373.421 323.677 373.163 323.914 372.979C324.153 372.792 324.413 372.661 324.695 372.588C324.979 372.512 325.258 372.474 325.533 372.474C325.708 372.474 325.909 372.496 326.137 372.538C326.366 372.579 326.588 372.663 326.801 372.79C327.016 372.918 327.195 373.111 327.337 373.369C327.479 373.627 327.55 373.973 327.55 374.406V378H326.712V377.261H326.669C326.612 377.38 326.518 377.506 326.385 377.641C326.253 377.776 326.076 377.891 325.856 377.986C325.636 378.08 325.367 378.128 325.05 378.128ZM325.178 377.375C325.509 377.375 325.789 377.31 326.016 377.18C326.245 377.049 326.418 376.881 326.534 376.675C326.653 376.469 326.712 376.253 326.712 376.026V375.259C326.676 375.301 326.598 375.34 326.477 375.376C326.359 375.409 326.222 375.438 326.066 375.464C325.912 375.488 325.761 375.509 325.615 375.528C325.47 375.545 325.353 375.559 325.263 375.571C325.045 375.599 324.842 375.646 324.652 375.71C324.465 375.771 324.314 375.865 324.198 375.99C324.084 376.113 324.027 376.281 324.027 376.494C324.027 376.786 324.135 377.006 324.35 377.155C324.568 377.302 324.844 377.375 325.178 377.375ZM331.452 372.545V373.256H328.625V372.545H331.452ZM329.449 371.239H330.287V376.438C330.287 376.674 330.321 376.852 330.39 376.97C330.461 377.086 330.551 377.164 330.66 377.205C330.771 377.242 330.888 377.261 331.011 377.261C331.104 377.261 331.179 377.257 331.239 377.247C331.298 377.235 331.345 377.226 331.381 377.219L331.551 377.972C331.494 377.993 331.415 378.014 331.313 378.036C331.211 378.059 331.082 378.071 330.926 378.071C330.689 378.071 330.457 378.02 330.23 377.918C330.005 377.817 329.818 377.661 329.669 377.453C329.522 377.245 329.449 376.982 329.449 376.665V371.239ZM334.317 378.128C333.972 378.128 333.658 378.063 333.376 377.933C333.095 377.8 332.871 377.609 332.705 377.361C332.54 377.11 332.457 376.807 332.457 376.452C332.457 376.139 332.518 375.886 332.641 375.692C332.764 375.495 332.929 375.341 333.135 375.23C333.341 375.119 333.568 375.036 333.817 374.982C334.068 374.925 334.32 374.88 334.573 374.847C334.905 374.804 335.173 374.772 335.379 374.751C335.588 374.727 335.739 374.688 335.834 374.634C335.931 374.579 335.979 374.484 335.979 374.349V374.321C335.979 373.971 335.884 373.698 335.692 373.504C335.502 373.31 335.215 373.213 334.829 373.213C334.429 373.213 334.115 373.301 333.888 373.476C333.661 373.651 333.501 373.838 333.408 374.037L332.613 373.753C332.755 373.421 332.944 373.163 333.181 372.979C333.42 372.792 333.681 372.661 333.962 372.588C334.246 372.512 334.526 372.474 334.8 372.474C334.976 372.474 335.177 372.496 335.404 372.538C335.634 372.579 335.855 372.663 336.068 372.79C336.284 372.918 336.462 373.111 336.604 373.369C336.746 373.627 336.817 373.973 336.817 374.406V378H335.979V377.261H335.937C335.88 377.38 335.785 377.506 335.653 377.641C335.52 377.776 335.344 377.891 335.124 377.986C334.903 378.08 334.635 378.128 334.317 378.128ZM334.445 377.375C334.777 377.375 335.056 377.31 335.283 377.18C335.513 377.049 335.686 376.881 335.802 376.675C335.92 376.469 335.979 376.253 335.979 376.026V375.259C335.944 375.301 335.866 375.34 335.745 375.376C335.627 375.409 335.489 375.438 335.333 375.464C335.179 375.488 335.029 375.509 334.882 375.528C334.738 375.545 334.621 375.559 334.531 375.571C334.313 375.599 334.109 375.646 333.92 375.71C333.733 375.771 333.581 375.865 333.465 375.99C333.352 376.113 333.295 376.281 333.295 376.494C333.295 376.786 333.402 377.006 333.618 377.155C333.836 377.302 334.112 377.375 334.445 377.375ZM345.023 373.767L344.27 373.98C344.223 373.855 344.153 373.733 344.061 373.614C343.971 373.494 343.848 373.394 343.692 373.316C343.535 373.238 343.335 373.199 343.091 373.199C342.758 373.199 342.479 373.276 342.257 373.43C342.037 373.581 341.927 373.774 341.927 374.009C341.927 374.217 342.002 374.381 342.154 374.502C342.305 374.623 342.542 374.723 342.864 374.804L343.674 375.003C344.162 375.121 344.525 375.302 344.764 375.546C345.003 375.788 345.123 376.099 345.123 376.48C345.123 376.793 345.033 377.072 344.853 377.318C344.675 377.564 344.427 377.759 344.107 377.901C343.787 378.043 343.416 378.114 342.992 378.114C342.436 378.114 341.975 377.993 341.611 377.751C341.246 377.51 341.015 377.157 340.918 376.693L341.714 376.494C341.789 376.788 341.933 377.008 342.143 377.155C342.356 377.302 342.635 377.375 342.978 377.375C343.368 377.375 343.679 377.292 343.908 377.126C344.14 376.958 344.256 376.757 344.256 376.523C344.256 376.333 344.19 376.175 344.057 376.047C343.925 375.917 343.721 375.82 343.447 375.756L342.537 375.543C342.038 375.424 341.671 375.241 341.437 374.992C341.205 374.741 341.089 374.428 341.089 374.051C341.089 373.743 341.175 373.471 341.348 373.234C341.523 372.998 341.761 372.812 342.062 372.677C342.365 372.542 342.708 372.474 343.091 372.474C343.631 372.474 344.055 372.593 344.363 372.83C344.673 373.066 344.893 373.379 345.023 373.767ZM348.756 372.545V373.256H345.93V372.545H348.756ZM346.754 371.239H347.592V376.438C347.592 376.674 347.626 376.852 347.695 376.97C347.766 377.086 347.856 377.164 347.964 377.205C348.076 377.242 348.193 377.261 348.316 377.261C348.408 377.261 348.484 377.257 348.543 377.247C348.603 377.235 348.65 377.226 348.685 377.219L348.856 377.972C348.799 377.993 348.72 378.014 348.618 378.036C348.516 378.059 348.387 378.071 348.231 378.071C347.994 378.071 347.762 378.02 347.535 377.918C347.31 377.817 347.123 377.661 346.974 377.453C346.827 377.245 346.754 376.982 346.754 376.665V371.239ZM352.174 378.114C351.682 378.114 351.25 377.996 350.878 377.762C350.509 377.528 350.22 377.2 350.012 376.778C349.806 376.357 349.703 375.865 349.703 375.301C349.703 374.733 349.806 374.237 350.012 373.813C350.22 373.389 350.509 373.06 350.878 372.826C351.25 372.592 351.682 372.474 352.174 372.474C352.667 372.474 353.098 372.592 353.467 372.826C353.839 373.06 354.127 373.389 354.333 373.813C354.542 374.237 354.646 374.733 354.646 375.301C354.646 375.865 354.542 376.357 354.333 376.778C354.127 377.2 353.839 377.528 353.467 377.762C353.098 377.996 352.667 378.114 352.174 378.114ZM352.174 377.361C352.548 377.361 352.856 377.265 353.098 377.073C353.339 376.881 353.518 376.629 353.634 376.317C353.75 376.004 353.808 375.666 353.808 375.301C353.808 374.937 353.75 374.597 353.634 374.282C353.518 373.967 353.339 373.713 353.098 373.518C352.856 373.324 352.548 373.227 352.174 373.227C351.8 373.227 351.493 373.324 351.251 373.518C351.01 373.713 350.831 373.967 350.715 374.282C350.599 374.597 350.541 374.937 350.541 375.301C350.541 375.666 350.599 376.004 350.715 376.317C350.831 376.629 351.01 376.881 351.251 377.073C351.493 377.265 351.8 377.361 352.174 377.361ZM355.925 378V372.545H356.735V373.369H356.792C356.891 373.099 357.071 372.88 357.331 372.712C357.592 372.544 357.885 372.46 358.212 372.46C358.274 372.46 358.351 372.461 358.443 372.464C358.535 372.466 358.605 372.47 358.653 372.474V373.327C358.624 373.32 358.559 373.309 358.457 373.295C358.358 373.278 358.252 373.27 358.141 373.27C357.876 373.27 357.639 373.326 357.431 373.437C357.225 373.546 357.062 373.697 356.941 373.891C356.823 374.083 356.763 374.302 356.763 374.548V378H355.925ZM361.767 378.114C361.241 378.114 360.788 377.998 360.407 377.766C360.028 377.531 359.736 377.205 359.53 376.786C359.326 376.364 359.224 375.874 359.224 375.315C359.224 374.757 359.326 374.264 359.53 373.838C359.736 373.41 360.022 373.076 360.389 372.837C360.758 372.595 361.189 372.474 361.682 372.474C361.966 372.474 362.246 372.522 362.523 372.616C362.8 372.711 363.052 372.865 363.28 373.078C363.507 373.289 363.688 373.568 363.823 373.916C363.958 374.264 364.025 374.693 364.025 375.202V375.557H359.821V374.832H363.173C363.173 374.525 363.112 374.25 362.988 374.009C362.868 373.767 362.695 373.576 362.47 373.437C362.247 373.297 361.985 373.227 361.682 373.227C361.348 373.227 361.059 373.31 360.815 373.476C360.574 373.639 360.388 373.852 360.258 374.115C360.127 374.378 360.062 374.66 360.062 374.96V375.443C360.062 375.855 360.133 376.204 360.275 376.491C360.42 376.775 360.62 376.991 360.876 377.141C361.131 377.287 361.428 377.361 361.767 377.361C361.987 377.361 362.186 377.33 362.363 377.268C362.543 377.205 362.698 377.11 362.829 376.984C362.959 376.857 363.059 376.698 363.131 376.509L363.94 376.736C363.855 377.01 363.712 377.252 363.51 377.46C363.309 377.666 363.061 377.827 362.765 377.943C362.469 378.057 362.136 378.114 361.767 378.114Z" fill="#185FA5"/>
</svg>
