<svg xmlns="http://www.w3.org/2000/svg" data-name="Layer 1" viewBox="0 0 72 72" x="0px" y="0px"><path d="m48.8,31c-3.64,0-6.6,2.96-6.6,6.6,0,0,0,.01,0,.02-.17-.13-.37-.22-.6-.22-10.49,0-13.52-2.67-16.71-9.05-.06-.13-.16-.23-.26-.31,2.95-.66,5.17-3.29,5.17-6.44,0-3.64-2.96-6.6-6.6-6.6s-6.6,2.96-6.6,6.6,2.96,6.6,6.6,6.6c0,0,0,0,0,0-.13.17-.2.38-.2.6v14.4c0,.23.09.43.22.6,0,0-.01,0-.02,0-3.64,0-6.6,2.96-6.6,6.6s2.96,6.6,6.6,6.6,6.6-2.96,6.6-6.6c0-3.15-2.22-5.78-5.17-6.44.22-.18.37-.45.37-.76v-10.63c3.08,4.61,7.22,6.83,16.6,6.83.31,0,.58-.15.76-.37.66,2.95,3.29,5.17,6.44,5.17,3.64,0,6.6-2.96,6.6-6.6s-2.96-6.6-6.6-6.6Zm-30.2-9.4c0-2.54,2.06-4.6,4.6-4.6s4.6,2.06,4.6,4.6-2.06,4.6-4.6,4.6-4.6-2.06-4.6-4.6Zm9.2,28.8c0,2.54-2.06,4.6-4.6,4.6s-4.6-2.06-4.6-4.6,2.06-4.6,4.6-4.6,4.6,2.06,4.6,4.6Zm21-8.2c-2.54,0-4.6-2.06-4.6-4.6s2.06-4.6,4.6-4.6,4.6,2.06,4.6,4.6-2.06,4.6-4.6,4.6Z"/></svg>